M48
; DRILL file {KiCad 9.0.6} date 2026-01-30T17:04:59+0100
; FORMAT={-:-/ absolute / metric / decimal}
; #@! TF.CreationDate,2026-01-30T17:04:59+01:00
; #@! TF.GenerationSoftware,Kicad,Pcbnew,9.0.6
; #@! TF.FileFunction,Plated,1,2,PTH
FMAT,2
METRIC
; #@! TA.AperFunction,Plated,PTH,ComponentDrill
T1C0.400
; #@! TA.AperFunction,Plated,PTH,ViaDrill
T2C0.600
; #@! TA.AperFunction,Plated,PTH,ComponentDrill
T3C0.800
; #@! TA.AperFunction,Plated,PTH,ComponentDrill
T4C0.900
; #@! TA.AperFunction,Plated,PTH,ComponentDrill
T5C1.000
; #@! TA.AperFunction,Plated,PTH,ComponentDrill
T6C1.400
; #@! TA.AperFunction,Plated,PTH,ComponentDrill
T7C2.200
; #@! TA.AperFunction,Plated,PTH,ComponentDrill
T8C3.200
%
G90
G05
T1
X164.521Y-93.304
X164.521Y-94.829
X165.283Y-92.541
X165.283Y-94.066
X165.283Y-95.591
X166.046Y-93.304
X166.046Y-94.829
X166.808Y-92.541
X166.808Y-94.066
X166.808Y-95.591
X167.571Y-93.304
X167.571Y-94.829
T2
X121.006Y-91.846
X126.4Y-87.6
X135.6Y-87.589
X140.691Y-91.846
X147.0Y-102.0
X147.193Y-95.874
X151.696Y-88.713
X152.502Y-90.449
X152.502Y-95.25
X155.37Y-101.596
X155.842Y-102.808
X156.235Y-95.275
X156.415Y-103.974
X160.426Y-86.817
X161.4Y-106.7
X171.5Y-92.6
X171.5Y-94.0
X171.5Y-98.1
X171.528Y-96.672
X173.01Y-100.376
X173.6Y-102.1
X178.156Y-86.766
T3
X134.01Y-103.967
X134.01Y-107.467
X149.826Y-101.886
X149.826Y-104.426
X149.826Y-106.966
X149.826Y-109.506
X149.826Y-112.046
X152.366Y-101.886
X152.366Y-104.426
X152.366Y-106.966
X152.366Y-109.506
X152.366Y-112.046
T4
X164.821Y-109.626
X167.361Y-109.626
T5
X122.276Y-118.872
X122.276Y-121.412
X122.276Y-123.952
X124.816Y-118.872
X124.816Y-121.412
X124.816Y-123.952
X127.356Y-118.872
X127.356Y-121.412
X127.356Y-123.952
X129.896Y-118.872
X129.896Y-121.412
X129.896Y-123.952
X137.516Y-118.872
X137.516Y-121.412
X137.516Y-123.952
X139.294Y-95.275
X139.294Y-97.815
X140.056Y-118.872
X140.056Y-121.412
X140.056Y-123.952
X141.834Y-95.275
X141.834Y-97.815
X142.596Y-118.872
X142.596Y-121.412
X142.596Y-123.952
X145.136Y-118.872
X145.136Y-121.412
X145.136Y-123.952
X148.946Y-88.671
X148.946Y-91.211
X148.946Y-93.751
X152.756Y-118.872
X152.756Y-121.412
X152.756Y-123.952
X155.296Y-118.872
X155.296Y-121.412
X155.296Y-123.952
X156.571Y-108.102
X157.836Y-118.872
X157.836Y-121.412
X157.836Y-123.952
X159.111Y-108.102
X160.376Y-118.872
X160.376Y-121.412
X160.376Y-123.952
X167.996Y-118.872
X167.996Y-121.412
X167.996Y-123.952
X170.536Y-118.872
X170.536Y-121.412
X170.536Y-123.952
X173.076Y-118.872
X173.076Y-121.412
X173.076Y-123.952
X175.616Y-118.872
X175.616Y-121.412
X175.616Y-123.952
T6
X119.863Y-103.253
X119.863Y-107.213
X119.863Y-111.173
T7
X183.21Y-88.036
T8
X112.116Y-89.941
X112.116Y-122.682
X183.236Y-122.682
M30
