G04 #@! TF.GenerationSoftware,KiCad,Pcbnew,9.0.6*
G04 #@! TF.CreationDate,2026-01-30T17:04:59+01:00*
G04 #@! TF.ProjectId,ESP32_PWM_PCB,45535033-325f-4505-974d-5f5043422e6b,1.0*
G04 #@! TF.SameCoordinates,Original*
G04 #@! TF.FileFunction,Soldermask,Bot*
G04 #@! TF.FilePolarity,Negative*
%FSLAX46Y46*%
G04 Gerber Fmt 4.6, Leading zero omitted, Abs format (unit mm)*
G04 Created by KiCad (PCBNEW 9.0.6) date 2026-01-30 17:04:59*
%MOMM*%
%LPD*%
G01*
G04 APERTURE LIST*
G04 Aperture macros list*
%AMRoundRect*
0 Rectangle with rounded corners*
0 $1 Rounding radius*
0 $2 $3 $4 $5 $6 $7 $8 $9 X,Y pos of 4 corners*
0 Add a 4 corners polygon primitive as box body*
4,1,4,$2,$3,$4,$5,$6,$7,$8,$9,$2,$3,0*
0 Add four circle primitives for the rounded corners*
1,1,$1+$1,$2,$3*
1,1,$1+$1,$4,$5*
1,1,$1+$1,$6,$7*
1,1,$1+$1,$8,$9*
0 Add four rect primitives between the rounded corners*
20,1,$1+$1,$2,$3,$4,$5,0*
20,1,$1+$1,$4,$5,$6,$7,0*
20,1,$1+$1,$6,$7,$8,$9,0*
20,1,$1+$1,$8,$9,$2,$3,0*%
G04 Aperture macros list end*
%ADD10R,1.800000X1.800000*%
%ADD11C,1.800000*%
%ADD12R,1.700000X1.700000*%
%ADD13C,1.700000*%
%ADD14C,2.600000*%
%ADD15C,3.800000*%
%ADD16RoundRect,0.236220X-0.513780X-0.513780X0.513780X-0.513780X0.513780X0.513780X-0.513780X0.513780X0*%
%ADD17RoundRect,0.250001X-0.949999X0.949999X-0.949999X-0.949999X0.949999X-0.949999X0.949999X0.949999X0*%
%ADD18C,2.400000*%
%ADD19RoundRect,0.250000X0.550000X-0.550000X0.550000X0.550000X-0.550000X0.550000X-0.550000X-0.550000X0*%
%ADD20C,1.600000*%
%ADD21C,3.600000*%
%ADD22C,5.500000*%
G04 APERTURE END LIST*
D10*
G04 #@! TO.C,D1*
X164820600Y-109626400D03*
D11*
X167360600Y-109626400D03*
G04 #@! TD*
D12*
G04 #@! TO.C,J2*
X122275600Y-121412000D03*
D13*
X122275600Y-118872000D03*
X124815600Y-121412000D03*
X124815600Y-118872000D03*
X127355600Y-121412000D03*
X127355600Y-118872000D03*
X129895600Y-121412000D03*
X129895600Y-118872000D03*
G04 #@! TD*
D14*
G04 #@! TO.C,REF\u002A\u002A*
X183210200Y-88036400D03*
D15*
X183210200Y-88036400D03*
G04 #@! TD*
D12*
G04 #@! TO.C,J9*
X167995600Y-123952000D03*
D13*
X170535600Y-123952000D03*
X173075600Y-123952000D03*
X175615600Y-123952000D03*
G04 #@! TD*
D12*
G04 #@! TO.C,J6*
X122275600Y-123952000D03*
D13*
X124815600Y-123952000D03*
X127355600Y-123952000D03*
X129895600Y-123952000D03*
G04 #@! TD*
D12*
G04 #@! TO.C,J8*
X152755600Y-123952000D03*
D13*
X155295600Y-123952000D03*
X157835600Y-123952000D03*
X160375600Y-123952000D03*
G04 #@! TD*
D12*
G04 #@! TO.C,JP3*
X139293600Y-97815400D03*
D13*
X141833600Y-97815400D03*
G04 #@! TD*
D16*
G04 #@! TO.C,J1*
X149825902Y-101886400D03*
X152365902Y-101886400D03*
X149825902Y-104426400D03*
X152365902Y-104426400D03*
X149825902Y-106966400D03*
X152365902Y-106966400D03*
X149825902Y-109506400D03*
X152365902Y-109506400D03*
X149825902Y-112046400D03*
X152365902Y-112046400D03*
G04 #@! TD*
D12*
G04 #@! TO.C,J10*
X148945600Y-88671400D03*
D13*
X148945600Y-91211400D03*
X148945600Y-93751400D03*
G04 #@! TD*
D12*
G04 #@! TO.C,J3*
X137515600Y-121412000D03*
D13*
X137515600Y-118872000D03*
X140055600Y-121412000D03*
X140055600Y-118872000D03*
X142595600Y-121412000D03*
X142595600Y-118872000D03*
X145135600Y-121412000D03*
X145135600Y-118872000D03*
G04 #@! TD*
D17*
G04 #@! TO.C,J11*
X119862600Y-103253400D03*
D18*
X119862600Y-107213400D03*
X119862600Y-111173400D03*
G04 #@! TD*
D19*
G04 #@! TO.C,C1*
X134010400Y-107467400D03*
D20*
X134010400Y-103967400D03*
G04 #@! TD*
D21*
G04 #@! TO.C,REF\u002A\u002A*
X112115600Y-89941400D03*
D22*
X112115600Y-89941400D03*
G04 #@! TD*
D21*
G04 #@! TO.C,REF\u002A\u002A*
X112115600Y-122682000D03*
D22*
X112115600Y-122682000D03*
G04 #@! TD*
D12*
G04 #@! TO.C,J7*
X137515600Y-123952000D03*
D13*
X140055600Y-123952000D03*
X142595600Y-123952000D03*
X145135600Y-123952000D03*
G04 #@! TD*
D21*
G04 #@! TO.C,REF\u002A\u002A*
X183235600Y-122682000D03*
D22*
X183235600Y-122682000D03*
G04 #@! TD*
D12*
G04 #@! TO.C,JP1*
X159110600Y-108102400D03*
D13*
X156570600Y-108102400D03*
G04 #@! TD*
D12*
G04 #@! TO.C,J5*
X167995600Y-121412000D03*
D13*
X167995600Y-118872000D03*
X170535600Y-121412000D03*
X170535600Y-118872000D03*
X173075600Y-121412000D03*
X173075600Y-118872000D03*
X175615600Y-121412000D03*
X175615600Y-118872000D03*
G04 #@! TD*
D12*
G04 #@! TO.C,J4*
X152755600Y-121412000D03*
D13*
X152755600Y-118872000D03*
X155295600Y-121412000D03*
X155295600Y-118872000D03*
X157835600Y-121412000D03*
X157835600Y-118872000D03*
X160375600Y-121412000D03*
X160375600Y-118872000D03*
G04 #@! TD*
D12*
G04 #@! TO.C,JP2*
X139293600Y-95275400D03*
D13*
X141833600Y-95275400D03*
G04 #@! TD*
M02*
