G04 #@! TF.GenerationSoftware,KiCad,Pcbnew,9.0.6*
G04 #@! TF.CreationDate,2026-01-30T17:04:59+01:00*
G04 #@! TF.ProjectId,ESP32_PWM_PCB,45535033-325f-4505-974d-5f5043422e6b,1.0*
G04 #@! TF.SameCoordinates,Original*
G04 #@! TF.FileFunction,Legend,Top*
G04 #@! TF.FilePolarity,Positive*
%FSLAX46Y46*%
G04 Gerber Fmt 4.6, Leading zero omitted, Abs format (unit mm)*
G04 Created by KiCad (PCBNEW 9.0.6) date 2026-01-30 17:04:59*
%MOMM*%
%LPD*%
G01*
G04 APERTURE LIST*
G04 Aperture macros list*
%AMRoundRect*
0 Rectangle with rounded corners*
0 $1 Rounding radius*
0 $2 $3 $4 $5 $6 $7 $8 $9 X,Y pos of 4 corners*
0 Add a 4 corners polygon primitive as box body*
4,1,4,$2,$3,$4,$5,$6,$7,$8,$9,$2,$3,0*
0 Add four circle primitives for the rounded corners*
1,1,$1+$1,$2,$3*
1,1,$1+$1,$4,$5*
1,1,$1+$1,$6,$7*
1,1,$1+$1,$8,$9*
0 Add four rect primitives between the rounded corners*
20,1,$1+$1,$2,$3,$4,$5,0*
20,1,$1+$1,$4,$5,$6,$7,0*
20,1,$1+$1,$6,$7,$8,$9,0*
20,1,$1+$1,$8,$9,$2,$3,0*%
G04 Aperture macros list end*
%ADD10C,0.100000*%
%ADD11C,0.150000*%
%ADD12C,0.120000*%
%ADD13R,1.800000X1.800000*%
%ADD14C,1.800000*%
%ADD15RoundRect,0.200000X0.275000X-0.200000X0.275000X0.200000X-0.275000X0.200000X-0.275000X-0.200000X0*%
%ADD16R,1.700000X1.700000*%
%ADD17C,1.700000*%
%ADD18RoundRect,0.250000X0.650000X-0.325000X0.650000X0.325000X-0.650000X0.325000X-0.650000X-0.325000X0*%
%ADD19C,2.600000*%
%ADD20C,3.800000*%
%ADD21RoundRect,0.200000X-0.275000X0.200000X-0.275000X-0.200000X0.275000X-0.200000X0.275000X0.200000X0*%
%ADD22RoundRect,0.225000X-0.225000X-0.250000X0.225000X-0.250000X0.225000X0.250000X-0.225000X0.250000X0*%
%ADD23RoundRect,0.250000X1.000000X0.650000X-1.000000X0.650000X-1.000000X-0.650000X1.000000X-0.650000X0*%
%ADD24RoundRect,0.200000X0.200000X0.275000X-0.200000X0.275000X-0.200000X-0.275000X0.200000X-0.275000X0*%
%ADD25RoundRect,0.375000X-0.625000X-0.375000X0.625000X-0.375000X0.625000X0.375000X-0.625000X0.375000X0*%
%ADD26RoundRect,0.500000X-0.500000X-1.400000X0.500000X-1.400000X0.500000X1.400000X-0.500000X1.400000X0*%
%ADD27RoundRect,0.200000X-0.200000X-0.275000X0.200000X-0.275000X0.200000X0.275000X-0.200000X0.275000X0*%
%ADD28RoundRect,0.236220X-0.513780X-0.513780X0.513780X-0.513780X0.513780X0.513780X-0.513780X0.513780X0*%
%ADD29RoundRect,0.225000X0.250000X-0.225000X0.250000X0.225000X-0.250000X0.225000X-0.250000X-0.225000X0*%
%ADD30R,1.800000X1.100000*%
%ADD31RoundRect,0.250001X-0.949999X0.949999X-0.949999X-0.949999X0.949999X-0.949999X0.949999X0.949999X0*%
%ADD32C,2.400000*%
%ADD33RoundRect,0.250000X0.550000X-0.550000X0.550000X0.550000X-0.550000X0.550000X-0.550000X-0.550000X0*%
%ADD34C,1.600000*%
%ADD35C,3.600000*%
%ADD36C,5.500000*%
%ADD37R,1.500000X0.900000*%
%ADD38R,0.900000X1.500000*%
%ADD39C,0.600000*%
%ADD40R,4.200000X4.200000*%
%ADD41RoundRect,0.225000X-0.250000X0.225000X-0.250000X-0.225000X0.250000X-0.225000X0.250000X0.225000X0*%
G04 APERTURE END LIST*
D10*
X165327693Y-119372419D02*
X164756265Y-119372419D01*
X165041979Y-119372419D02*
X165041979Y-118372419D01*
X165041979Y-118372419D02*
X164946741Y-118515276D01*
X164946741Y-118515276D02*
X164851503Y-118610514D01*
X164851503Y-118610514D02*
X164756265Y-118658133D01*
X165708646Y-118467657D02*
X165756265Y-118420038D01*
X165756265Y-118420038D02*
X165851503Y-118372419D01*
X165851503Y-118372419D02*
X166089598Y-118372419D01*
X166089598Y-118372419D02*
X166184836Y-118420038D01*
X166184836Y-118420038D02*
X166232455Y-118467657D01*
X166232455Y-118467657D02*
X166280074Y-118562895D01*
X166280074Y-118562895D02*
X166280074Y-118658133D01*
X166280074Y-118658133D02*
X166232455Y-118800990D01*
X166232455Y-118800990D02*
X165661027Y-119372419D01*
X165661027Y-119372419D02*
X166280074Y-119372419D01*
X124180074Y-110372419D02*
X123703884Y-110372419D01*
X123703884Y-110372419D02*
X123656265Y-110848609D01*
X123656265Y-110848609D02*
X123703884Y-110800990D01*
X123703884Y-110800990D02*
X123799122Y-110753371D01*
X123799122Y-110753371D02*
X124037217Y-110753371D01*
X124037217Y-110753371D02*
X124132455Y-110800990D01*
X124132455Y-110800990D02*
X124180074Y-110848609D01*
X124180074Y-110848609D02*
X124227693Y-110943847D01*
X124227693Y-110943847D02*
X124227693Y-111181942D01*
X124227693Y-111181942D02*
X124180074Y-111277180D01*
X124180074Y-111277180D02*
X124132455Y-111324800D01*
X124132455Y-111324800D02*
X124037217Y-111372419D01*
X124037217Y-111372419D02*
X123799122Y-111372419D01*
X123799122Y-111372419D02*
X123703884Y-111324800D01*
X123703884Y-111324800D02*
X123656265Y-111277180D01*
X124513408Y-110372419D02*
X124846741Y-111372419D01*
X124846741Y-111372419D02*
X125180074Y-110372419D01*
X126227694Y-111324800D02*
X126370551Y-111372419D01*
X126370551Y-111372419D02*
X126608646Y-111372419D01*
X126608646Y-111372419D02*
X126703884Y-111324800D01*
X126703884Y-111324800D02*
X126751503Y-111277180D01*
X126751503Y-111277180D02*
X126799122Y-111181942D01*
X126799122Y-111181942D02*
X126799122Y-111086704D01*
X126799122Y-111086704D02*
X126751503Y-110991466D01*
X126751503Y-110991466D02*
X126703884Y-110943847D01*
X126703884Y-110943847D02*
X126608646Y-110896228D01*
X126608646Y-110896228D02*
X126418170Y-110848609D01*
X126418170Y-110848609D02*
X126322932Y-110800990D01*
X126322932Y-110800990D02*
X126275313Y-110753371D01*
X126275313Y-110753371D02*
X126227694Y-110658133D01*
X126227694Y-110658133D02*
X126227694Y-110562895D01*
X126227694Y-110562895D02*
X126275313Y-110467657D01*
X126275313Y-110467657D02*
X126322932Y-110420038D01*
X126322932Y-110420038D02*
X126418170Y-110372419D01*
X126418170Y-110372419D02*
X126656265Y-110372419D01*
X126656265Y-110372419D02*
X126799122Y-110420038D01*
X127084837Y-110372419D02*
X127418170Y-111372419D01*
X127418170Y-111372419D02*
X127751503Y-110372419D01*
X128275313Y-110372419D02*
X128465789Y-110372419D01*
X128465789Y-110372419D02*
X128561027Y-110420038D01*
X128561027Y-110420038D02*
X128656265Y-110515276D01*
X128656265Y-110515276D02*
X128703884Y-110705752D01*
X128703884Y-110705752D02*
X128703884Y-111039085D01*
X128703884Y-111039085D02*
X128656265Y-111229561D01*
X128656265Y-111229561D02*
X128561027Y-111324800D01*
X128561027Y-111324800D02*
X128465789Y-111372419D01*
X128465789Y-111372419D02*
X128275313Y-111372419D01*
X128275313Y-111372419D02*
X128180075Y-111324800D01*
X128180075Y-111324800D02*
X128084837Y-111229561D01*
X128084837Y-111229561D02*
X128037218Y-111039085D01*
X128037218Y-111039085D02*
X128037218Y-110705752D01*
X128037218Y-110705752D02*
X128084837Y-110515276D01*
X128084837Y-110515276D02*
X128180075Y-110420038D01*
X128180075Y-110420038D02*
X128275313Y-110372419D01*
X110133646Y-114477531D02*
X110752693Y-114477531D01*
X110752693Y-114477531D02*
X110419360Y-114858483D01*
X110419360Y-114858483D02*
X110562217Y-114858483D01*
X110562217Y-114858483D02*
X110657455Y-114906102D01*
X110657455Y-114906102D02*
X110705074Y-114953721D01*
X110705074Y-114953721D02*
X110752693Y-115048959D01*
X110752693Y-115048959D02*
X110752693Y-115287054D01*
X110752693Y-115287054D02*
X110705074Y-115382292D01*
X110705074Y-115382292D02*
X110657455Y-115429912D01*
X110657455Y-115429912D02*
X110562217Y-115477531D01*
X110562217Y-115477531D02*
X110276503Y-115477531D01*
X110276503Y-115477531D02*
X110181265Y-115429912D01*
X110181265Y-115429912D02*
X110133646Y-115382292D01*
X111371741Y-114477531D02*
X111466979Y-114477531D01*
X111466979Y-114477531D02*
X111562217Y-114525150D01*
X111562217Y-114525150D02*
X111609836Y-114572769D01*
X111609836Y-114572769D02*
X111657455Y-114668007D01*
X111657455Y-114668007D02*
X111705074Y-114858483D01*
X111705074Y-114858483D02*
X111705074Y-115096578D01*
X111705074Y-115096578D02*
X111657455Y-115287054D01*
X111657455Y-115287054D02*
X111609836Y-115382292D01*
X111609836Y-115382292D02*
X111562217Y-115429912D01*
X111562217Y-115429912D02*
X111466979Y-115477531D01*
X111466979Y-115477531D02*
X111371741Y-115477531D01*
X111371741Y-115477531D02*
X111276503Y-115429912D01*
X111276503Y-115429912D02*
X111228884Y-115382292D01*
X111228884Y-115382292D02*
X111181265Y-115287054D01*
X111181265Y-115287054D02*
X111133646Y-115096578D01*
X111133646Y-115096578D02*
X111133646Y-114858483D01*
X111133646Y-114858483D02*
X111181265Y-114668007D01*
X111181265Y-114668007D02*
X111228884Y-114572769D01*
X111228884Y-114572769D02*
X111276503Y-114525150D01*
X111276503Y-114525150D02*
X111371741Y-114477531D01*
X112133646Y-115382292D02*
X112181265Y-115429912D01*
X112181265Y-115429912D02*
X112133646Y-115477531D01*
X112133646Y-115477531D02*
X112086027Y-115429912D01*
X112086027Y-115429912D02*
X112133646Y-115382292D01*
X112133646Y-115382292D02*
X112133646Y-115477531D01*
X112800312Y-114477531D02*
X112895550Y-114477531D01*
X112895550Y-114477531D02*
X112990788Y-114525150D01*
X112990788Y-114525150D02*
X113038407Y-114572769D01*
X113038407Y-114572769D02*
X113086026Y-114668007D01*
X113086026Y-114668007D02*
X113133645Y-114858483D01*
X113133645Y-114858483D02*
X113133645Y-115096578D01*
X113133645Y-115096578D02*
X113086026Y-115287054D01*
X113086026Y-115287054D02*
X113038407Y-115382292D01*
X113038407Y-115382292D02*
X112990788Y-115429912D01*
X112990788Y-115429912D02*
X112895550Y-115477531D01*
X112895550Y-115477531D02*
X112800312Y-115477531D01*
X112800312Y-115477531D02*
X112705074Y-115429912D01*
X112705074Y-115429912D02*
X112657455Y-115382292D01*
X112657455Y-115382292D02*
X112609836Y-115287054D01*
X112609836Y-115287054D02*
X112562217Y-115096578D01*
X112562217Y-115096578D02*
X112562217Y-114858483D01*
X112562217Y-114858483D02*
X112609836Y-114668007D01*
X112609836Y-114668007D02*
X112657455Y-114572769D01*
X112657455Y-114572769D02*
X112705074Y-114525150D01*
X112705074Y-114525150D02*
X112800312Y-114477531D01*
X114086026Y-115477531D02*
X113514598Y-115477531D01*
X113800312Y-115477531D02*
X113800312Y-114477531D01*
X113800312Y-114477531D02*
X113705074Y-114620388D01*
X113705074Y-114620388D02*
X113609836Y-114715626D01*
X113609836Y-114715626D02*
X113514598Y-114763245D01*
X114514598Y-115382292D02*
X114562217Y-115429912D01*
X114562217Y-115429912D02*
X114514598Y-115477531D01*
X114514598Y-115477531D02*
X114466979Y-115429912D01*
X114466979Y-115429912D02*
X114514598Y-115382292D01*
X114514598Y-115382292D02*
X114514598Y-115477531D01*
X114943169Y-114572769D02*
X114990788Y-114525150D01*
X114990788Y-114525150D02*
X115086026Y-114477531D01*
X115086026Y-114477531D02*
X115324121Y-114477531D01*
X115324121Y-114477531D02*
X115419359Y-114525150D01*
X115419359Y-114525150D02*
X115466978Y-114572769D01*
X115466978Y-114572769D02*
X115514597Y-114668007D01*
X115514597Y-114668007D02*
X115514597Y-114763245D01*
X115514597Y-114763245D02*
X115466978Y-114906102D01*
X115466978Y-114906102D02*
X114895550Y-115477531D01*
X114895550Y-115477531D02*
X115514597Y-115477531D01*
X116133645Y-114477531D02*
X116228883Y-114477531D01*
X116228883Y-114477531D02*
X116324121Y-114525150D01*
X116324121Y-114525150D02*
X116371740Y-114572769D01*
X116371740Y-114572769D02*
X116419359Y-114668007D01*
X116419359Y-114668007D02*
X116466978Y-114858483D01*
X116466978Y-114858483D02*
X116466978Y-115096578D01*
X116466978Y-115096578D02*
X116419359Y-115287054D01*
X116419359Y-115287054D02*
X116371740Y-115382292D01*
X116371740Y-115382292D02*
X116324121Y-115429912D01*
X116324121Y-115429912D02*
X116228883Y-115477531D01*
X116228883Y-115477531D02*
X116133645Y-115477531D01*
X116133645Y-115477531D02*
X116038407Y-115429912D01*
X116038407Y-115429912D02*
X115990788Y-115382292D01*
X115990788Y-115382292D02*
X115943169Y-115287054D01*
X115943169Y-115287054D02*
X115895550Y-115096578D01*
X115895550Y-115096578D02*
X115895550Y-114858483D01*
X115895550Y-114858483D02*
X115943169Y-114668007D01*
X115943169Y-114668007D02*
X115990788Y-114572769D01*
X115990788Y-114572769D02*
X116038407Y-114525150D01*
X116038407Y-114525150D02*
X116133645Y-114477531D01*
X116847931Y-114572769D02*
X116895550Y-114525150D01*
X116895550Y-114525150D02*
X116990788Y-114477531D01*
X116990788Y-114477531D02*
X117228883Y-114477531D01*
X117228883Y-114477531D02*
X117324121Y-114525150D01*
X117324121Y-114525150D02*
X117371740Y-114572769D01*
X117371740Y-114572769D02*
X117419359Y-114668007D01*
X117419359Y-114668007D02*
X117419359Y-114763245D01*
X117419359Y-114763245D02*
X117371740Y-114906102D01*
X117371740Y-114906102D02*
X116800312Y-115477531D01*
X116800312Y-115477531D02*
X117419359Y-115477531D01*
X118276502Y-114477531D02*
X118086026Y-114477531D01*
X118086026Y-114477531D02*
X117990788Y-114525150D01*
X117990788Y-114525150D02*
X117943169Y-114572769D01*
X117943169Y-114572769D02*
X117847931Y-114715626D01*
X117847931Y-114715626D02*
X117800312Y-114906102D01*
X117800312Y-114906102D02*
X117800312Y-115287054D01*
X117800312Y-115287054D02*
X117847931Y-115382292D01*
X117847931Y-115382292D02*
X117895550Y-115429912D01*
X117895550Y-115429912D02*
X117990788Y-115477531D01*
X117990788Y-115477531D02*
X118181264Y-115477531D01*
X118181264Y-115477531D02*
X118276502Y-115429912D01*
X118276502Y-115429912D02*
X118324121Y-115382292D01*
X118324121Y-115382292D02*
X118371740Y-115287054D01*
X118371740Y-115287054D02*
X118371740Y-115048959D01*
X118371740Y-115048959D02*
X118324121Y-114953721D01*
X118324121Y-114953721D02*
X118276502Y-114906102D01*
X118276502Y-114906102D02*
X118181264Y-114858483D01*
X118181264Y-114858483D02*
X117990788Y-114858483D01*
X117990788Y-114858483D02*
X117895550Y-114906102D01*
X117895550Y-114906102D02*
X117847931Y-114953721D01*
X117847931Y-114953721D02*
X117800312Y-115048959D01*
X110800312Y-117087475D02*
X110466979Y-116611284D01*
X110228884Y-117087475D02*
X110228884Y-116087475D01*
X110228884Y-116087475D02*
X110609836Y-116087475D01*
X110609836Y-116087475D02*
X110705074Y-116135094D01*
X110705074Y-116135094D02*
X110752693Y-116182713D01*
X110752693Y-116182713D02*
X110800312Y-116277951D01*
X110800312Y-116277951D02*
X110800312Y-116420808D01*
X110800312Y-116420808D02*
X110752693Y-116516046D01*
X110752693Y-116516046D02*
X110705074Y-116563665D01*
X110705074Y-116563665D02*
X110609836Y-116611284D01*
X110609836Y-116611284D02*
X110228884Y-116611284D01*
X111609836Y-117039856D02*
X111514598Y-117087475D01*
X111514598Y-117087475D02*
X111324122Y-117087475D01*
X111324122Y-117087475D02*
X111228884Y-117039856D01*
X111228884Y-117039856D02*
X111181265Y-116944617D01*
X111181265Y-116944617D02*
X111181265Y-116563665D01*
X111181265Y-116563665D02*
X111228884Y-116468427D01*
X111228884Y-116468427D02*
X111324122Y-116420808D01*
X111324122Y-116420808D02*
X111514598Y-116420808D01*
X111514598Y-116420808D02*
X111609836Y-116468427D01*
X111609836Y-116468427D02*
X111657455Y-116563665D01*
X111657455Y-116563665D02*
X111657455Y-116658903D01*
X111657455Y-116658903D02*
X111181265Y-116754141D01*
X111990789Y-116420808D02*
X112228884Y-117087475D01*
X112228884Y-117087475D02*
X112466979Y-116420808D01*
X112847932Y-117087475D02*
X112847932Y-116420808D01*
X112847932Y-116087475D02*
X112800313Y-116135094D01*
X112800313Y-116135094D02*
X112847932Y-116182713D01*
X112847932Y-116182713D02*
X112895551Y-116135094D01*
X112895551Y-116135094D02*
X112847932Y-116087475D01*
X112847932Y-116087475D02*
X112847932Y-116182713D01*
X113276503Y-117039856D02*
X113371741Y-117087475D01*
X113371741Y-117087475D02*
X113562217Y-117087475D01*
X113562217Y-117087475D02*
X113657455Y-117039856D01*
X113657455Y-117039856D02*
X113705074Y-116944617D01*
X113705074Y-116944617D02*
X113705074Y-116896998D01*
X113705074Y-116896998D02*
X113657455Y-116801760D01*
X113657455Y-116801760D02*
X113562217Y-116754141D01*
X113562217Y-116754141D02*
X113419360Y-116754141D01*
X113419360Y-116754141D02*
X113324122Y-116706522D01*
X113324122Y-116706522D02*
X113276503Y-116611284D01*
X113276503Y-116611284D02*
X113276503Y-116563665D01*
X113276503Y-116563665D02*
X113324122Y-116468427D01*
X113324122Y-116468427D02*
X113419360Y-116420808D01*
X113419360Y-116420808D02*
X113562217Y-116420808D01*
X113562217Y-116420808D02*
X113657455Y-116468427D01*
X114133646Y-117087475D02*
X114133646Y-116420808D01*
X114133646Y-116087475D02*
X114086027Y-116135094D01*
X114086027Y-116135094D02*
X114133646Y-116182713D01*
X114133646Y-116182713D02*
X114181265Y-116135094D01*
X114181265Y-116135094D02*
X114133646Y-116087475D01*
X114133646Y-116087475D02*
X114133646Y-116182713D01*
X114752693Y-117087475D02*
X114657455Y-117039856D01*
X114657455Y-117039856D02*
X114609836Y-116992236D01*
X114609836Y-116992236D02*
X114562217Y-116896998D01*
X114562217Y-116896998D02*
X114562217Y-116611284D01*
X114562217Y-116611284D02*
X114609836Y-116516046D01*
X114609836Y-116516046D02*
X114657455Y-116468427D01*
X114657455Y-116468427D02*
X114752693Y-116420808D01*
X114752693Y-116420808D02*
X114895550Y-116420808D01*
X114895550Y-116420808D02*
X114990788Y-116468427D01*
X114990788Y-116468427D02*
X115038407Y-116516046D01*
X115038407Y-116516046D02*
X115086026Y-116611284D01*
X115086026Y-116611284D02*
X115086026Y-116896998D01*
X115086026Y-116896998D02*
X115038407Y-116992236D01*
X115038407Y-116992236D02*
X114990788Y-117039856D01*
X114990788Y-117039856D02*
X114895550Y-117087475D01*
X114895550Y-117087475D02*
X114752693Y-117087475D01*
X115514598Y-116420808D02*
X115514598Y-117087475D01*
X115514598Y-116516046D02*
X115562217Y-116468427D01*
X115562217Y-116468427D02*
X115657455Y-116420808D01*
X115657455Y-116420808D02*
X115800312Y-116420808D01*
X115800312Y-116420808D02*
X115895550Y-116468427D01*
X115895550Y-116468427D02*
X115943169Y-116563665D01*
X115943169Y-116563665D02*
X115943169Y-117087475D01*
X117705074Y-117087475D02*
X117133646Y-117087475D01*
X117419360Y-117087475D02*
X117419360Y-116087475D01*
X117419360Y-116087475D02*
X117324122Y-116230332D01*
X117324122Y-116230332D02*
X117228884Y-116325570D01*
X117228884Y-116325570D02*
X117133646Y-116373189D01*
X118133646Y-116992236D02*
X118181265Y-117039856D01*
X118181265Y-117039856D02*
X118133646Y-117087475D01*
X118133646Y-117087475D02*
X118086027Y-117039856D01*
X118086027Y-117039856D02*
X118133646Y-116992236D01*
X118133646Y-116992236D02*
X118133646Y-117087475D01*
X119133645Y-117087475D02*
X118562217Y-117087475D01*
X118847931Y-117087475D02*
X118847931Y-116087475D01*
X118847931Y-116087475D02*
X118752693Y-116230332D01*
X118752693Y-116230332D02*
X118657455Y-116325570D01*
X118657455Y-116325570D02*
X118562217Y-116373189D01*
X110181265Y-118649800D02*
X110324122Y-118697419D01*
X110324122Y-118697419D02*
X110562217Y-118697419D01*
X110562217Y-118697419D02*
X110657455Y-118649800D01*
X110657455Y-118649800D02*
X110705074Y-118602180D01*
X110705074Y-118602180D02*
X110752693Y-118506942D01*
X110752693Y-118506942D02*
X110752693Y-118411704D01*
X110752693Y-118411704D02*
X110705074Y-118316466D01*
X110705074Y-118316466D02*
X110657455Y-118268847D01*
X110657455Y-118268847D02*
X110562217Y-118221228D01*
X110562217Y-118221228D02*
X110371741Y-118173609D01*
X110371741Y-118173609D02*
X110276503Y-118125990D01*
X110276503Y-118125990D02*
X110228884Y-118078371D01*
X110228884Y-118078371D02*
X110181265Y-117983133D01*
X110181265Y-117983133D02*
X110181265Y-117887895D01*
X110181265Y-117887895D02*
X110228884Y-117792657D01*
X110228884Y-117792657D02*
X110276503Y-117745038D01*
X110276503Y-117745038D02*
X110371741Y-117697419D01*
X110371741Y-117697419D02*
X110609836Y-117697419D01*
X110609836Y-117697419D02*
X110752693Y-117745038D01*
X111181265Y-118697419D02*
X111181265Y-117697419D01*
X111181265Y-117697419D02*
X111514598Y-118411704D01*
X111514598Y-118411704D02*
X111847931Y-117697419D01*
X111847931Y-117697419D02*
X111847931Y-118697419D01*
X112324122Y-118697419D02*
X112324122Y-117697419D01*
X112324122Y-117697419D02*
X112562217Y-117697419D01*
X112562217Y-117697419D02*
X112705074Y-117745038D01*
X112705074Y-117745038D02*
X112800312Y-117840276D01*
X112800312Y-117840276D02*
X112847931Y-117935514D01*
X112847931Y-117935514D02*
X112895550Y-118125990D01*
X112895550Y-118125990D02*
X112895550Y-118268847D01*
X112895550Y-118268847D02*
X112847931Y-118459323D01*
X112847931Y-118459323D02*
X112800312Y-118554561D01*
X112800312Y-118554561D02*
X112705074Y-118649800D01*
X112705074Y-118649800D02*
X112562217Y-118697419D01*
X112562217Y-118697419D02*
X112324122Y-118697419D01*
X113943170Y-117697419D02*
X114276503Y-118697419D01*
X114276503Y-118697419D02*
X114609836Y-117697419D01*
X115324122Y-118649800D02*
X115228884Y-118697419D01*
X115228884Y-118697419D02*
X115038408Y-118697419D01*
X115038408Y-118697419D02*
X114943170Y-118649800D01*
X114943170Y-118649800D02*
X114895551Y-118554561D01*
X114895551Y-118554561D02*
X114895551Y-118173609D01*
X114895551Y-118173609D02*
X114943170Y-118078371D01*
X114943170Y-118078371D02*
X115038408Y-118030752D01*
X115038408Y-118030752D02*
X115228884Y-118030752D01*
X115228884Y-118030752D02*
X115324122Y-118078371D01*
X115324122Y-118078371D02*
X115371741Y-118173609D01*
X115371741Y-118173609D02*
X115371741Y-118268847D01*
X115371741Y-118268847D02*
X114895551Y-118364085D01*
X115800313Y-118697419D02*
X115800313Y-118030752D01*
X115800313Y-118221228D02*
X115847932Y-118125990D01*
X115847932Y-118125990D02*
X115895551Y-118078371D01*
X115895551Y-118078371D02*
X115990789Y-118030752D01*
X115990789Y-118030752D02*
X116086027Y-118030752D01*
X116371742Y-118649800D02*
X116466980Y-118697419D01*
X116466980Y-118697419D02*
X116657456Y-118697419D01*
X116657456Y-118697419D02*
X116752694Y-118649800D01*
X116752694Y-118649800D02*
X116800313Y-118554561D01*
X116800313Y-118554561D02*
X116800313Y-118506942D01*
X116800313Y-118506942D02*
X116752694Y-118411704D01*
X116752694Y-118411704D02*
X116657456Y-118364085D01*
X116657456Y-118364085D02*
X116514599Y-118364085D01*
X116514599Y-118364085D02*
X116419361Y-118316466D01*
X116419361Y-118316466D02*
X116371742Y-118221228D01*
X116371742Y-118221228D02*
X116371742Y-118173609D01*
X116371742Y-118173609D02*
X116419361Y-118078371D01*
X116419361Y-118078371D02*
X116514599Y-118030752D01*
X116514599Y-118030752D02*
X116657456Y-118030752D01*
X116657456Y-118030752D02*
X116752694Y-118078371D01*
X117228885Y-118697419D02*
X117228885Y-118030752D01*
X117228885Y-117697419D02*
X117181266Y-117745038D01*
X117181266Y-117745038D02*
X117228885Y-117792657D01*
X117228885Y-117792657D02*
X117276504Y-117745038D01*
X117276504Y-117745038D02*
X117228885Y-117697419D01*
X117228885Y-117697419D02*
X117228885Y-117792657D01*
X117847932Y-118697419D02*
X117752694Y-118649800D01*
X117752694Y-118649800D02*
X117705075Y-118602180D01*
X117705075Y-118602180D02*
X117657456Y-118506942D01*
X117657456Y-118506942D02*
X117657456Y-118221228D01*
X117657456Y-118221228D02*
X117705075Y-118125990D01*
X117705075Y-118125990D02*
X117752694Y-118078371D01*
X117752694Y-118078371D02*
X117847932Y-118030752D01*
X117847932Y-118030752D02*
X117990789Y-118030752D01*
X117990789Y-118030752D02*
X118086027Y-118078371D01*
X118086027Y-118078371D02*
X118133646Y-118125990D01*
X118133646Y-118125990D02*
X118181265Y-118221228D01*
X118181265Y-118221228D02*
X118181265Y-118506942D01*
X118181265Y-118506942D02*
X118133646Y-118602180D01*
X118133646Y-118602180D02*
X118086027Y-118649800D01*
X118086027Y-118649800D02*
X117990789Y-118697419D01*
X117990789Y-118697419D02*
X117847932Y-118697419D01*
X118609837Y-118030752D02*
X118609837Y-118697419D01*
X118609837Y-118125990D02*
X118657456Y-118078371D01*
X118657456Y-118078371D02*
X118752694Y-118030752D01*
X118752694Y-118030752D02*
X118895551Y-118030752D01*
X118895551Y-118030752D02*
X118990789Y-118078371D01*
X118990789Y-118078371D02*
X119038408Y-118173609D01*
X119038408Y-118173609D02*
X119038408Y-118697419D01*
X135832455Y-118605752D02*
X135832455Y-119272419D01*
X135594360Y-118224800D02*
X135356265Y-118939085D01*
X135356265Y-118939085D02*
X135975312Y-118939085D01*
X150461027Y-88072419D02*
X151032455Y-88072419D01*
X150746741Y-89072419D02*
X150746741Y-88072419D01*
X151270551Y-88072419D02*
X151937217Y-89072419D01*
X151937217Y-88072419D02*
X151270551Y-89072419D01*
X131484246Y-118272419D02*
X132103293Y-118272419D01*
X132103293Y-118272419D02*
X131769960Y-118653371D01*
X131769960Y-118653371D02*
X131912817Y-118653371D01*
X131912817Y-118653371D02*
X132008055Y-118700990D01*
X132008055Y-118700990D02*
X132055674Y-118748609D01*
X132055674Y-118748609D02*
X132103293Y-118843847D01*
X132103293Y-118843847D02*
X132103293Y-119081942D01*
X132103293Y-119081942D02*
X132055674Y-119177180D01*
X132055674Y-119177180D02*
X132008055Y-119224800D01*
X132008055Y-119224800D02*
X131912817Y-119272419D01*
X131912817Y-119272419D02*
X131627103Y-119272419D01*
X131627103Y-119272419D02*
X131531865Y-119224800D01*
X131531865Y-119224800D02*
X131484246Y-119177180D01*
X151175312Y-91872419D02*
X150841979Y-91396228D01*
X150603884Y-91872419D02*
X150603884Y-90872419D01*
X150603884Y-90872419D02*
X150984836Y-90872419D01*
X150984836Y-90872419D02*
X151080074Y-90920038D01*
X151080074Y-90920038D02*
X151127693Y-90967657D01*
X151127693Y-90967657D02*
X151175312Y-91062895D01*
X151175312Y-91062895D02*
X151175312Y-91205752D01*
X151175312Y-91205752D02*
X151127693Y-91300990D01*
X151127693Y-91300990D02*
X151080074Y-91348609D01*
X151080074Y-91348609D02*
X150984836Y-91396228D01*
X150984836Y-91396228D02*
X150603884Y-91396228D01*
X151508646Y-90872419D02*
X152175312Y-91872419D01*
X152175312Y-90872419D02*
X151508646Y-91872419D01*
X151153293Y-93420038D02*
X151058055Y-93372419D01*
X151058055Y-93372419D02*
X150915198Y-93372419D01*
X150915198Y-93372419D02*
X150772341Y-93420038D01*
X150772341Y-93420038D02*
X150677103Y-93515276D01*
X150677103Y-93515276D02*
X150629484Y-93610514D01*
X150629484Y-93610514D02*
X150581865Y-93800990D01*
X150581865Y-93800990D02*
X150581865Y-93943847D01*
X150581865Y-93943847D02*
X150629484Y-94134323D01*
X150629484Y-94134323D02*
X150677103Y-94229561D01*
X150677103Y-94229561D02*
X150772341Y-94324800D01*
X150772341Y-94324800D02*
X150915198Y-94372419D01*
X150915198Y-94372419D02*
X151010436Y-94372419D01*
X151010436Y-94372419D02*
X151153293Y-94324800D01*
X151153293Y-94324800D02*
X151200912Y-94277180D01*
X151200912Y-94277180D02*
X151200912Y-93943847D01*
X151200912Y-93943847D02*
X151010436Y-93943847D01*
X151629484Y-94372419D02*
X151629484Y-93372419D01*
X151629484Y-93372419D02*
X152200912Y-94372419D01*
X152200912Y-94372419D02*
X152200912Y-93372419D01*
X152677103Y-94372419D02*
X152677103Y-93372419D01*
X152677103Y-93372419D02*
X152915198Y-93372419D01*
X152915198Y-93372419D02*
X153058055Y-93420038D01*
X153058055Y-93420038D02*
X153153293Y-93515276D01*
X153153293Y-93515276D02*
X153200912Y-93610514D01*
X153200912Y-93610514D02*
X153248531Y-93800990D01*
X153248531Y-93800990D02*
X153248531Y-93943847D01*
X153248531Y-93943847D02*
X153200912Y-94134323D01*
X153200912Y-94134323D02*
X153153293Y-94229561D01*
X153153293Y-94229561D02*
X153058055Y-94324800D01*
X153058055Y-94324800D02*
X152915198Y-94372419D01*
X152915198Y-94372419D02*
X152677103Y-94372419D01*
X124727693Y-102520038D02*
X124632455Y-102472419D01*
X124632455Y-102472419D02*
X124489598Y-102472419D01*
X124489598Y-102472419D02*
X124346741Y-102520038D01*
X124346741Y-102520038D02*
X124251503Y-102615276D01*
X124251503Y-102615276D02*
X124203884Y-102710514D01*
X124203884Y-102710514D02*
X124156265Y-102900990D01*
X124156265Y-102900990D02*
X124156265Y-103043847D01*
X124156265Y-103043847D02*
X124203884Y-103234323D01*
X124203884Y-103234323D02*
X124251503Y-103329561D01*
X124251503Y-103329561D02*
X124346741Y-103424800D01*
X124346741Y-103424800D02*
X124489598Y-103472419D01*
X124489598Y-103472419D02*
X124584836Y-103472419D01*
X124584836Y-103472419D02*
X124727693Y-103424800D01*
X124727693Y-103424800D02*
X124775312Y-103377180D01*
X124775312Y-103377180D02*
X124775312Y-103043847D01*
X124775312Y-103043847D02*
X124584836Y-103043847D01*
X125203884Y-103472419D02*
X125203884Y-102472419D01*
X125203884Y-102472419D02*
X125775312Y-103472419D01*
X125775312Y-103472419D02*
X125775312Y-102472419D01*
X126251503Y-103472419D02*
X126251503Y-102472419D01*
X126251503Y-102472419D02*
X126489598Y-102472419D01*
X126489598Y-102472419D02*
X126632455Y-102520038D01*
X126632455Y-102520038D02*
X126727693Y-102615276D01*
X126727693Y-102615276D02*
X126775312Y-102710514D01*
X126775312Y-102710514D02*
X126822931Y-102900990D01*
X126822931Y-102900990D02*
X126822931Y-103043847D01*
X126822931Y-103043847D02*
X126775312Y-103234323D01*
X126775312Y-103234323D02*
X126727693Y-103329561D01*
X126727693Y-103329561D02*
X126632455Y-103424800D01*
X126632455Y-103424800D02*
X126489598Y-103472419D01*
X126489598Y-103472419D02*
X126251503Y-103472419D01*
X150746741Y-118800990D02*
X150651503Y-118753371D01*
X150651503Y-118753371D02*
X150603884Y-118705752D01*
X150603884Y-118705752D02*
X150556265Y-118610514D01*
X150556265Y-118610514D02*
X150556265Y-118562895D01*
X150556265Y-118562895D02*
X150603884Y-118467657D01*
X150603884Y-118467657D02*
X150651503Y-118420038D01*
X150651503Y-118420038D02*
X150746741Y-118372419D01*
X150746741Y-118372419D02*
X150937217Y-118372419D01*
X150937217Y-118372419D02*
X151032455Y-118420038D01*
X151032455Y-118420038D02*
X151080074Y-118467657D01*
X151080074Y-118467657D02*
X151127693Y-118562895D01*
X151127693Y-118562895D02*
X151127693Y-118610514D01*
X151127693Y-118610514D02*
X151080074Y-118705752D01*
X151080074Y-118705752D02*
X151032455Y-118753371D01*
X151032455Y-118753371D02*
X150937217Y-118800990D01*
X150937217Y-118800990D02*
X150746741Y-118800990D01*
X150746741Y-118800990D02*
X150651503Y-118848609D01*
X150651503Y-118848609D02*
X150603884Y-118896228D01*
X150603884Y-118896228D02*
X150556265Y-118991466D01*
X150556265Y-118991466D02*
X150556265Y-119181942D01*
X150556265Y-119181942D02*
X150603884Y-119277180D01*
X150603884Y-119277180D02*
X150651503Y-119324800D01*
X150651503Y-119324800D02*
X150746741Y-119372419D01*
X150746741Y-119372419D02*
X150937217Y-119372419D01*
X150937217Y-119372419D02*
X151032455Y-119324800D01*
X151032455Y-119324800D02*
X151080074Y-119277180D01*
X151080074Y-119277180D02*
X151127693Y-119181942D01*
X151127693Y-119181942D02*
X151127693Y-118991466D01*
X151127693Y-118991466D02*
X151080074Y-118896228D01*
X151080074Y-118896228D02*
X151032455Y-118848609D01*
X151032455Y-118848609D02*
X150937217Y-118800990D01*
X178027693Y-119472419D02*
X177456265Y-119472419D01*
X177741979Y-119472419D02*
X177741979Y-118472419D01*
X177741979Y-118472419D02*
X177646741Y-118615276D01*
X177646741Y-118615276D02*
X177551503Y-118710514D01*
X177551503Y-118710514D02*
X177456265Y-118758133D01*
X178932455Y-118472419D02*
X178456265Y-118472419D01*
X178456265Y-118472419D02*
X178408646Y-118948609D01*
X178408646Y-118948609D02*
X178456265Y-118900990D01*
X178456265Y-118900990D02*
X178551503Y-118853371D01*
X178551503Y-118853371D02*
X178789598Y-118853371D01*
X178789598Y-118853371D02*
X178884836Y-118900990D01*
X178884836Y-118900990D02*
X178932455Y-118948609D01*
X178932455Y-118948609D02*
X178980074Y-119043847D01*
X178980074Y-119043847D02*
X178980074Y-119281942D01*
X178980074Y-119281942D02*
X178932455Y-119377180D01*
X178932455Y-119377180D02*
X178884836Y-119424800D01*
X178884836Y-119424800D02*
X178789598Y-119472419D01*
X178789598Y-119472419D02*
X178551503Y-119472419D01*
X178551503Y-119472419D02*
X178456265Y-119424800D01*
X178456265Y-119424800D02*
X178408646Y-119377180D01*
X162727693Y-119372419D02*
X162156265Y-119372419D01*
X162441979Y-119372419D02*
X162441979Y-118372419D01*
X162441979Y-118372419D02*
X162346741Y-118515276D01*
X162346741Y-118515276D02*
X162251503Y-118610514D01*
X162251503Y-118610514D02*
X162156265Y-118658133D01*
X163680074Y-119372419D02*
X163108646Y-119372419D01*
X163394360Y-119372419D02*
X163394360Y-118372419D01*
X163394360Y-118372419D02*
X163299122Y-118515276D01*
X163299122Y-118515276D02*
X163203884Y-118610514D01*
X163203884Y-118610514D02*
X163108646Y-118658133D01*
X146808646Y-118372419D02*
X147475312Y-118372419D01*
X147475312Y-118372419D02*
X147046741Y-119372419D01*
X120394360Y-118372419D02*
X120489598Y-118372419D01*
X120489598Y-118372419D02*
X120584836Y-118420038D01*
X120584836Y-118420038D02*
X120632455Y-118467657D01*
X120632455Y-118467657D02*
X120680074Y-118562895D01*
X120680074Y-118562895D02*
X120727693Y-118753371D01*
X120727693Y-118753371D02*
X120727693Y-118991466D01*
X120727693Y-118991466D02*
X120680074Y-119181942D01*
X120680074Y-119181942D02*
X120632455Y-119277180D01*
X120632455Y-119277180D02*
X120584836Y-119324800D01*
X120584836Y-119324800D02*
X120489598Y-119372419D01*
X120489598Y-119372419D02*
X120394360Y-119372419D01*
X120394360Y-119372419D02*
X120299122Y-119324800D01*
X120299122Y-119324800D02*
X120251503Y-119277180D01*
X120251503Y-119277180D02*
X120203884Y-119181942D01*
X120203884Y-119181942D02*
X120156265Y-118991466D01*
X120156265Y-118991466D02*
X120156265Y-118753371D01*
X120156265Y-118753371D02*
X120203884Y-118562895D01*
X120203884Y-118562895D02*
X120251503Y-118467657D01*
X120251503Y-118467657D02*
X120299122Y-118420038D01*
X120299122Y-118420038D02*
X120394360Y-118372419D01*
D11*
X165352505Y-107121219D02*
X165352505Y-106121219D01*
X165352505Y-106121219D02*
X165590600Y-106121219D01*
X165590600Y-106121219D02*
X165733457Y-106168838D01*
X165733457Y-106168838D02*
X165828695Y-106264076D01*
X165828695Y-106264076D02*
X165876314Y-106359314D01*
X165876314Y-106359314D02*
X165923933Y-106549790D01*
X165923933Y-106549790D02*
X165923933Y-106692647D01*
X165923933Y-106692647D02*
X165876314Y-106883123D01*
X165876314Y-106883123D02*
X165828695Y-106978361D01*
X165828695Y-106978361D02*
X165733457Y-107073600D01*
X165733457Y-107073600D02*
X165590600Y-107121219D01*
X165590600Y-107121219D02*
X165352505Y-107121219D01*
X166876314Y-107121219D02*
X166304886Y-107121219D01*
X166590600Y-107121219D02*
X166590600Y-106121219D01*
X166590600Y-106121219D02*
X166495362Y-106264076D01*
X166495362Y-106264076D02*
X166400124Y-106359314D01*
X166400124Y-106359314D02*
X166304886Y-106406933D01*
X168708332Y-110029819D02*
X168708332Y-109029819D01*
X168708332Y-109029819D02*
X169279760Y-110029819D01*
X169279760Y-110029819D02*
X169279760Y-109029819D01*
X169898808Y-110029819D02*
X169803570Y-109982200D01*
X169803570Y-109982200D02*
X169755951Y-109934580D01*
X169755951Y-109934580D02*
X169708332Y-109839342D01*
X169708332Y-109839342D02*
X169708332Y-109553628D01*
X169708332Y-109553628D02*
X169755951Y-109458390D01*
X169755951Y-109458390D02*
X169803570Y-109410771D01*
X169803570Y-109410771D02*
X169898808Y-109363152D01*
X169898808Y-109363152D02*
X170041665Y-109363152D01*
X170041665Y-109363152D02*
X170136903Y-109410771D01*
X170136903Y-109410771D02*
X170184522Y-109458390D01*
X170184522Y-109458390D02*
X170232141Y-109553628D01*
X170232141Y-109553628D02*
X170232141Y-109839342D01*
X170232141Y-109839342D02*
X170184522Y-109934580D01*
X170184522Y-109934580D02*
X170136903Y-109982200D01*
X170136903Y-109982200D02*
X170041665Y-110029819D01*
X170041665Y-110029819D02*
X169898808Y-110029819D01*
X171089284Y-110029819D02*
X171089284Y-109029819D01*
X171089284Y-109982200D02*
X170994046Y-110029819D01*
X170994046Y-110029819D02*
X170803570Y-110029819D01*
X170803570Y-110029819D02*
X170708332Y-109982200D01*
X170708332Y-109982200D02*
X170660713Y-109934580D01*
X170660713Y-109934580D02*
X170613094Y-109839342D01*
X170613094Y-109839342D02*
X170613094Y-109553628D01*
X170613094Y-109553628D02*
X170660713Y-109458390D01*
X170660713Y-109458390D02*
X170708332Y-109410771D01*
X170708332Y-109410771D02*
X170803570Y-109363152D01*
X170803570Y-109363152D02*
X170994046Y-109363152D01*
X170994046Y-109363152D02*
X171089284Y-109410771D01*
X171946427Y-109982200D02*
X171851189Y-110029819D01*
X171851189Y-110029819D02*
X171660713Y-110029819D01*
X171660713Y-110029819D02*
X171565475Y-109982200D01*
X171565475Y-109982200D02*
X171517856Y-109886961D01*
X171517856Y-109886961D02*
X171517856Y-109506009D01*
X171517856Y-109506009D02*
X171565475Y-109410771D01*
X171565475Y-109410771D02*
X171660713Y-109363152D01*
X171660713Y-109363152D02*
X171851189Y-109363152D01*
X171851189Y-109363152D02*
X171946427Y-109410771D01*
X171946427Y-109410771D02*
X171994046Y-109506009D01*
X171994046Y-109506009D02*
X171994046Y-109601247D01*
X171994046Y-109601247D02*
X171517856Y-109696485D01*
X173613094Y-110029819D02*
X173613094Y-109506009D01*
X173613094Y-109506009D02*
X173565475Y-109410771D01*
X173565475Y-109410771D02*
X173470237Y-109363152D01*
X173470237Y-109363152D02*
X173279761Y-109363152D01*
X173279761Y-109363152D02*
X173184523Y-109410771D01*
X173613094Y-109982200D02*
X173517856Y-110029819D01*
X173517856Y-110029819D02*
X173279761Y-110029819D01*
X173279761Y-110029819D02*
X173184523Y-109982200D01*
X173184523Y-109982200D02*
X173136904Y-109886961D01*
X173136904Y-109886961D02*
X173136904Y-109791723D01*
X173136904Y-109791723D02*
X173184523Y-109696485D01*
X173184523Y-109696485D02*
X173279761Y-109648866D01*
X173279761Y-109648866D02*
X173517856Y-109648866D01*
X173517856Y-109648866D02*
X173613094Y-109601247D01*
X174517856Y-110029819D02*
X174517856Y-109029819D01*
X174517856Y-109982200D02*
X174422618Y-110029819D01*
X174422618Y-110029819D02*
X174232142Y-110029819D01*
X174232142Y-110029819D02*
X174136904Y-109982200D01*
X174136904Y-109982200D02*
X174089285Y-109934580D01*
X174089285Y-109934580D02*
X174041666Y-109839342D01*
X174041666Y-109839342D02*
X174041666Y-109553628D01*
X174041666Y-109553628D02*
X174089285Y-109458390D01*
X174089285Y-109458390D02*
X174136904Y-109410771D01*
X174136904Y-109410771D02*
X174232142Y-109363152D01*
X174232142Y-109363152D02*
X174422618Y-109363152D01*
X174422618Y-109363152D02*
X174517856Y-109410771D01*
X175422618Y-110029819D02*
X175422618Y-109029819D01*
X175422618Y-109982200D02*
X175327380Y-110029819D01*
X175327380Y-110029819D02*
X175136904Y-110029819D01*
X175136904Y-110029819D02*
X175041666Y-109982200D01*
X175041666Y-109982200D02*
X174994047Y-109934580D01*
X174994047Y-109934580D02*
X174946428Y-109839342D01*
X174946428Y-109839342D02*
X174946428Y-109553628D01*
X174946428Y-109553628D02*
X174994047Y-109458390D01*
X174994047Y-109458390D02*
X175041666Y-109410771D01*
X175041666Y-109410771D02*
X175136904Y-109363152D01*
X175136904Y-109363152D02*
X175327380Y-109363152D01*
X175327380Y-109363152D02*
X175422618Y-109410771D01*
X175898809Y-110029819D02*
X175898809Y-109363152D01*
X175898809Y-109553628D02*
X175946428Y-109458390D01*
X175946428Y-109458390D02*
X175994047Y-109410771D01*
X175994047Y-109410771D02*
X176089285Y-109363152D01*
X176089285Y-109363152D02*
X176184523Y-109363152D01*
X177232143Y-109982200D02*
X177327381Y-110029819D01*
X177327381Y-110029819D02*
X177517857Y-110029819D01*
X177517857Y-110029819D02*
X177613095Y-109982200D01*
X177613095Y-109982200D02*
X177660714Y-109886961D01*
X177660714Y-109886961D02*
X177660714Y-109839342D01*
X177660714Y-109839342D02*
X177613095Y-109744104D01*
X177613095Y-109744104D02*
X177517857Y-109696485D01*
X177517857Y-109696485D02*
X177375000Y-109696485D01*
X177375000Y-109696485D02*
X177279762Y-109648866D01*
X177279762Y-109648866D02*
X177232143Y-109553628D01*
X177232143Y-109553628D02*
X177232143Y-109506009D01*
X177232143Y-109506009D02*
X177279762Y-109410771D01*
X177279762Y-109410771D02*
X177375000Y-109363152D01*
X177375000Y-109363152D02*
X177517857Y-109363152D01*
X177517857Y-109363152D02*
X177613095Y-109410771D01*
X178470238Y-109982200D02*
X178375000Y-110029819D01*
X178375000Y-110029819D02*
X178184524Y-110029819D01*
X178184524Y-110029819D02*
X178089286Y-109982200D01*
X178089286Y-109982200D02*
X178041667Y-109886961D01*
X178041667Y-109886961D02*
X178041667Y-109506009D01*
X178041667Y-109506009D02*
X178089286Y-109410771D01*
X178089286Y-109410771D02*
X178184524Y-109363152D01*
X178184524Y-109363152D02*
X178375000Y-109363152D01*
X178375000Y-109363152D02*
X178470238Y-109410771D01*
X178470238Y-109410771D02*
X178517857Y-109506009D01*
X178517857Y-109506009D02*
X178517857Y-109601247D01*
X178517857Y-109601247D02*
X178041667Y-109696485D01*
X178803572Y-109363152D02*
X179184524Y-109363152D01*
X178946429Y-109029819D02*
X178946429Y-109886961D01*
X178946429Y-109886961D02*
X178994048Y-109982200D01*
X178994048Y-109982200D02*
X179089286Y-110029819D01*
X179089286Y-110029819D02*
X179184524Y-110029819D01*
X171465419Y-107227666D02*
X170989228Y-107560999D01*
X171465419Y-107799094D02*
X170465419Y-107799094D01*
X170465419Y-107799094D02*
X170465419Y-107418142D01*
X170465419Y-107418142D02*
X170513038Y-107322904D01*
X170513038Y-107322904D02*
X170560657Y-107275285D01*
X170560657Y-107275285D02*
X170655895Y-107227666D01*
X170655895Y-107227666D02*
X170798752Y-107227666D01*
X170798752Y-107227666D02*
X170893990Y-107275285D01*
X170893990Y-107275285D02*
X170941609Y-107322904D01*
X170941609Y-107322904D02*
X170989228Y-107418142D01*
X170989228Y-107418142D02*
X170989228Y-107799094D01*
X170465419Y-106894332D02*
X170465419Y-106275285D01*
X170465419Y-106275285D02*
X170846371Y-106608618D01*
X170846371Y-106608618D02*
X170846371Y-106465761D01*
X170846371Y-106465761D02*
X170893990Y-106370523D01*
X170893990Y-106370523D02*
X170941609Y-106322904D01*
X170941609Y-106322904D02*
X171036847Y-106275285D01*
X171036847Y-106275285D02*
X171274942Y-106275285D01*
X171274942Y-106275285D02*
X171370180Y-106322904D01*
X171370180Y-106322904D02*
X171417800Y-106370523D01*
X171417800Y-106370523D02*
X171465419Y-106465761D01*
X171465419Y-106465761D02*
X171465419Y-106751475D01*
X171465419Y-106751475D02*
X171417800Y-106846713D01*
X171417800Y-106846713D02*
X171370180Y-106894332D01*
X119454819Y-121433333D02*
X120169104Y-121433333D01*
X120169104Y-121433333D02*
X120311961Y-121480952D01*
X120311961Y-121480952D02*
X120407200Y-121576190D01*
X120407200Y-121576190D02*
X120454819Y-121719047D01*
X120454819Y-121719047D02*
X120454819Y-121814285D01*
X119550057Y-121004761D02*
X119502438Y-120957142D01*
X119502438Y-120957142D02*
X119454819Y-120861904D01*
X119454819Y-120861904D02*
X119454819Y-120623809D01*
X119454819Y-120623809D02*
X119502438Y-120528571D01*
X119502438Y-120528571D02*
X119550057Y-120480952D01*
X119550057Y-120480952D02*
X119645295Y-120433333D01*
X119645295Y-120433333D02*
X119740533Y-120433333D01*
X119740533Y-120433333D02*
X119883390Y-120480952D01*
X119883390Y-120480952D02*
X120454819Y-121052380D01*
X120454819Y-121052380D02*
X120454819Y-120433333D01*
X121959580Y-95264266D02*
X122007200Y-95311885D01*
X122007200Y-95311885D02*
X122054819Y-95454742D01*
X122054819Y-95454742D02*
X122054819Y-95549980D01*
X122054819Y-95549980D02*
X122007200Y-95692837D01*
X122007200Y-95692837D02*
X121911961Y-95788075D01*
X121911961Y-95788075D02*
X121816723Y-95835694D01*
X121816723Y-95835694D02*
X121626247Y-95883313D01*
X121626247Y-95883313D02*
X121483390Y-95883313D01*
X121483390Y-95883313D02*
X121292914Y-95835694D01*
X121292914Y-95835694D02*
X121197676Y-95788075D01*
X121197676Y-95788075D02*
X121102438Y-95692837D01*
X121102438Y-95692837D02*
X121054819Y-95549980D01*
X121054819Y-95549980D02*
X121054819Y-95454742D01*
X121054819Y-95454742D02*
X121102438Y-95311885D01*
X121102438Y-95311885D02*
X121150057Y-95264266D01*
X121388152Y-94407123D02*
X122054819Y-94407123D01*
X121007200Y-94645218D02*
X121721485Y-94883313D01*
X121721485Y-94883313D02*
X121721485Y-94264266D01*
X121943019Y-112866466D02*
X121466828Y-113199799D01*
X121943019Y-113437894D02*
X120943019Y-113437894D01*
X120943019Y-113437894D02*
X120943019Y-113056942D01*
X120943019Y-113056942D02*
X120990638Y-112961704D01*
X120990638Y-112961704D02*
X121038257Y-112914085D01*
X121038257Y-112914085D02*
X121133495Y-112866466D01*
X121133495Y-112866466D02*
X121276352Y-112866466D01*
X121276352Y-112866466D02*
X121371590Y-112914085D01*
X121371590Y-112914085D02*
X121419209Y-112961704D01*
X121419209Y-112961704D02*
X121466828Y-113056942D01*
X121466828Y-113056942D02*
X121466828Y-113437894D01*
X120943019Y-111961704D02*
X120943019Y-112437894D01*
X120943019Y-112437894D02*
X121419209Y-112485513D01*
X121419209Y-112485513D02*
X121371590Y-112437894D01*
X121371590Y-112437894D02*
X121323971Y-112342656D01*
X121323971Y-112342656D02*
X121323971Y-112104561D01*
X121323971Y-112104561D02*
X121371590Y-112009323D01*
X121371590Y-112009323D02*
X121419209Y-111961704D01*
X121419209Y-111961704D02*
X121514447Y-111914085D01*
X121514447Y-111914085D02*
X121752542Y-111914085D01*
X121752542Y-111914085D02*
X121847780Y-111961704D01*
X121847780Y-111961704D02*
X121895400Y-112009323D01*
X121895400Y-112009323D02*
X121943019Y-112104561D01*
X121943019Y-112104561D02*
X121943019Y-112342656D01*
X121943019Y-112342656D02*
X121895400Y-112437894D01*
X121895400Y-112437894D02*
X121847780Y-112485513D01*
X168154819Y-113267857D02*
X167678628Y-113601190D01*
X168154819Y-113839285D02*
X167154819Y-113839285D01*
X167154819Y-113839285D02*
X167154819Y-113458333D01*
X167154819Y-113458333D02*
X167202438Y-113363095D01*
X167202438Y-113363095D02*
X167250057Y-113315476D01*
X167250057Y-113315476D02*
X167345295Y-113267857D01*
X167345295Y-113267857D02*
X167488152Y-113267857D01*
X167488152Y-113267857D02*
X167583390Y-113315476D01*
X167583390Y-113315476D02*
X167631009Y-113363095D01*
X167631009Y-113363095D02*
X167678628Y-113458333D01*
X167678628Y-113458333D02*
X167678628Y-113839285D01*
X168154819Y-112315476D02*
X168154819Y-112886904D01*
X168154819Y-112601190D02*
X167154819Y-112601190D01*
X167154819Y-112601190D02*
X167297676Y-112696428D01*
X167297676Y-112696428D02*
X167392914Y-112791666D01*
X167392914Y-112791666D02*
X167440533Y-112886904D01*
X167154819Y-111982142D02*
X167154819Y-111315476D01*
X167154819Y-111315476D02*
X168154819Y-111744047D01*
X134580333Y-91766580D02*
X134532714Y-91814200D01*
X134532714Y-91814200D02*
X134389857Y-91861819D01*
X134389857Y-91861819D02*
X134294619Y-91861819D01*
X134294619Y-91861819D02*
X134151762Y-91814200D01*
X134151762Y-91814200D02*
X134056524Y-91718961D01*
X134056524Y-91718961D02*
X134008905Y-91623723D01*
X134008905Y-91623723D02*
X133961286Y-91433247D01*
X133961286Y-91433247D02*
X133961286Y-91290390D01*
X133961286Y-91290390D02*
X134008905Y-91099914D01*
X134008905Y-91099914D02*
X134056524Y-91004676D01*
X134056524Y-91004676D02*
X134151762Y-90909438D01*
X134151762Y-90909438D02*
X134294619Y-90861819D01*
X134294619Y-90861819D02*
X134389857Y-90861819D01*
X134389857Y-90861819D02*
X134532714Y-90909438D01*
X134532714Y-90909438D02*
X134580333Y-90957057D01*
X134913667Y-90861819D02*
X135532714Y-90861819D01*
X135532714Y-90861819D02*
X135199381Y-91242771D01*
X135199381Y-91242771D02*
X135342238Y-91242771D01*
X135342238Y-91242771D02*
X135437476Y-91290390D01*
X135437476Y-91290390D02*
X135485095Y-91338009D01*
X135485095Y-91338009D02*
X135532714Y-91433247D01*
X135532714Y-91433247D02*
X135532714Y-91671342D01*
X135532714Y-91671342D02*
X135485095Y-91766580D01*
X135485095Y-91766580D02*
X135437476Y-91814200D01*
X135437476Y-91814200D02*
X135342238Y-91861819D01*
X135342238Y-91861819D02*
X135056524Y-91861819D01*
X135056524Y-91861819D02*
X134961286Y-91814200D01*
X134961286Y-91814200D02*
X134913667Y-91766580D01*
X112661905Y-98354819D02*
X112661905Y-97354819D01*
X112661905Y-97354819D02*
X112900000Y-97354819D01*
X112900000Y-97354819D02*
X113042857Y-97402438D01*
X113042857Y-97402438D02*
X113138095Y-97497676D01*
X113138095Y-97497676D02*
X113185714Y-97592914D01*
X113185714Y-97592914D02*
X113233333Y-97783390D01*
X113233333Y-97783390D02*
X113233333Y-97926247D01*
X113233333Y-97926247D02*
X113185714Y-98116723D01*
X113185714Y-98116723D02*
X113138095Y-98211961D01*
X113138095Y-98211961D02*
X113042857Y-98307200D01*
X113042857Y-98307200D02*
X112900000Y-98354819D01*
X112900000Y-98354819D02*
X112661905Y-98354819D01*
X113614286Y-97450057D02*
X113661905Y-97402438D01*
X113661905Y-97402438D02*
X113757143Y-97354819D01*
X113757143Y-97354819D02*
X113995238Y-97354819D01*
X113995238Y-97354819D02*
X114090476Y-97402438D01*
X114090476Y-97402438D02*
X114138095Y-97450057D01*
X114138095Y-97450057D02*
X114185714Y-97545295D01*
X114185714Y-97545295D02*
X114185714Y-97640533D01*
X114185714Y-97640533D02*
X114138095Y-97783390D01*
X114138095Y-97783390D02*
X113566667Y-98354819D01*
X113566667Y-98354819D02*
X114185714Y-98354819D01*
X145031733Y-94632419D02*
X144698400Y-94156228D01*
X144460305Y-94632419D02*
X144460305Y-93632419D01*
X144460305Y-93632419D02*
X144841257Y-93632419D01*
X144841257Y-93632419D02*
X144936495Y-93680038D01*
X144936495Y-93680038D02*
X144984114Y-93727657D01*
X144984114Y-93727657D02*
X145031733Y-93822895D01*
X145031733Y-93822895D02*
X145031733Y-93965752D01*
X145031733Y-93965752D02*
X144984114Y-94060990D01*
X144984114Y-94060990D02*
X144936495Y-94108609D01*
X144936495Y-94108609D02*
X144841257Y-94156228D01*
X144841257Y-94156228D02*
X144460305Y-94156228D01*
X145984114Y-94632419D02*
X145412686Y-94632419D01*
X145698400Y-94632419D02*
X145698400Y-93632419D01*
X145698400Y-93632419D02*
X145603162Y-93775276D01*
X145603162Y-93775276D02*
X145507924Y-93870514D01*
X145507924Y-93870514D02*
X145412686Y-93918133D01*
X165070419Y-124285333D02*
X165784704Y-124285333D01*
X165784704Y-124285333D02*
X165927561Y-124332952D01*
X165927561Y-124332952D02*
X166022800Y-124428190D01*
X166022800Y-124428190D02*
X166070419Y-124571047D01*
X166070419Y-124571047D02*
X166070419Y-124666285D01*
X166070419Y-123761523D02*
X166070419Y-123571047D01*
X166070419Y-123571047D02*
X166022800Y-123475809D01*
X166022800Y-123475809D02*
X165975180Y-123428190D01*
X165975180Y-123428190D02*
X165832323Y-123332952D01*
X165832323Y-123332952D02*
X165641847Y-123285333D01*
X165641847Y-123285333D02*
X165260895Y-123285333D01*
X165260895Y-123285333D02*
X165165657Y-123332952D01*
X165165657Y-123332952D02*
X165118038Y-123380571D01*
X165118038Y-123380571D02*
X165070419Y-123475809D01*
X165070419Y-123475809D02*
X165070419Y-123666285D01*
X165070419Y-123666285D02*
X165118038Y-123761523D01*
X165118038Y-123761523D02*
X165165657Y-123809142D01*
X165165657Y-123809142D02*
X165260895Y-123856761D01*
X165260895Y-123856761D02*
X165498990Y-123856761D01*
X165498990Y-123856761D02*
X165594228Y-123809142D01*
X165594228Y-123809142D02*
X165641847Y-123761523D01*
X165641847Y-123761523D02*
X165689466Y-123666285D01*
X165689466Y-123666285D02*
X165689466Y-123475809D01*
X165689466Y-123475809D02*
X165641847Y-123380571D01*
X165641847Y-123380571D02*
X165594228Y-123332952D01*
X165594228Y-123332952D02*
X165498990Y-123285333D01*
X119350419Y-124285333D02*
X120064704Y-124285333D01*
X120064704Y-124285333D02*
X120207561Y-124332952D01*
X120207561Y-124332952D02*
X120302800Y-124428190D01*
X120302800Y-124428190D02*
X120350419Y-124571047D01*
X120350419Y-124571047D02*
X120350419Y-124666285D01*
X119350419Y-123380571D02*
X119350419Y-123571047D01*
X119350419Y-123571047D02*
X119398038Y-123666285D01*
X119398038Y-123666285D02*
X119445657Y-123713904D01*
X119445657Y-123713904D02*
X119588514Y-123809142D01*
X119588514Y-123809142D02*
X119778990Y-123856761D01*
X119778990Y-123856761D02*
X120159942Y-123856761D01*
X120159942Y-123856761D02*
X120255180Y-123809142D01*
X120255180Y-123809142D02*
X120302800Y-123761523D01*
X120302800Y-123761523D02*
X120350419Y-123666285D01*
X120350419Y-123666285D02*
X120350419Y-123475809D01*
X120350419Y-123475809D02*
X120302800Y-123380571D01*
X120302800Y-123380571D02*
X120255180Y-123332952D01*
X120255180Y-123332952D02*
X120159942Y-123285333D01*
X120159942Y-123285333D02*
X119921847Y-123285333D01*
X119921847Y-123285333D02*
X119826609Y-123332952D01*
X119826609Y-123332952D02*
X119778990Y-123380571D01*
X119778990Y-123380571D02*
X119731371Y-123475809D01*
X119731371Y-123475809D02*
X119731371Y-123666285D01*
X119731371Y-123666285D02*
X119778990Y-123761523D01*
X119778990Y-123761523D02*
X119826609Y-123809142D01*
X119826609Y-123809142D02*
X119921847Y-123856761D01*
X126313895Y-91830419D02*
X126313895Y-92639942D01*
X126313895Y-92639942D02*
X126361514Y-92735180D01*
X126361514Y-92735180D02*
X126409133Y-92782800D01*
X126409133Y-92782800D02*
X126504371Y-92830419D01*
X126504371Y-92830419D02*
X126694847Y-92830419D01*
X126694847Y-92830419D02*
X126790085Y-92782800D01*
X126790085Y-92782800D02*
X126837704Y-92735180D01*
X126837704Y-92735180D02*
X126885323Y-92639942D01*
X126885323Y-92639942D02*
X126885323Y-91830419D01*
X127313895Y-91925657D02*
X127361514Y-91878038D01*
X127361514Y-91878038D02*
X127456752Y-91830419D01*
X127456752Y-91830419D02*
X127694847Y-91830419D01*
X127694847Y-91830419D02*
X127790085Y-91878038D01*
X127790085Y-91878038D02*
X127837704Y-91925657D01*
X127837704Y-91925657D02*
X127885323Y-92020895D01*
X127885323Y-92020895D02*
X127885323Y-92116133D01*
X127885323Y-92116133D02*
X127837704Y-92258990D01*
X127837704Y-92258990D02*
X127266276Y-92830419D01*
X127266276Y-92830419D02*
X127885323Y-92830419D01*
X149830419Y-124285333D02*
X150544704Y-124285333D01*
X150544704Y-124285333D02*
X150687561Y-124332952D01*
X150687561Y-124332952D02*
X150782800Y-124428190D01*
X150782800Y-124428190D02*
X150830419Y-124571047D01*
X150830419Y-124571047D02*
X150830419Y-124666285D01*
X150258990Y-123666285D02*
X150211371Y-123761523D01*
X150211371Y-123761523D02*
X150163752Y-123809142D01*
X150163752Y-123809142D02*
X150068514Y-123856761D01*
X150068514Y-123856761D02*
X150020895Y-123856761D01*
X150020895Y-123856761D02*
X149925657Y-123809142D01*
X149925657Y-123809142D02*
X149878038Y-123761523D01*
X149878038Y-123761523D02*
X149830419Y-123666285D01*
X149830419Y-123666285D02*
X149830419Y-123475809D01*
X149830419Y-123475809D02*
X149878038Y-123380571D01*
X149878038Y-123380571D02*
X149925657Y-123332952D01*
X149925657Y-123332952D02*
X150020895Y-123285333D01*
X150020895Y-123285333D02*
X150068514Y-123285333D01*
X150068514Y-123285333D02*
X150163752Y-123332952D01*
X150163752Y-123332952D02*
X150211371Y-123380571D01*
X150211371Y-123380571D02*
X150258990Y-123475809D01*
X150258990Y-123475809D02*
X150258990Y-123666285D01*
X150258990Y-123666285D02*
X150306609Y-123761523D01*
X150306609Y-123761523D02*
X150354228Y-123809142D01*
X150354228Y-123809142D02*
X150449466Y-123856761D01*
X150449466Y-123856761D02*
X150639942Y-123856761D01*
X150639942Y-123856761D02*
X150735180Y-123809142D01*
X150735180Y-123809142D02*
X150782800Y-123761523D01*
X150782800Y-123761523D02*
X150830419Y-123666285D01*
X150830419Y-123666285D02*
X150830419Y-123475809D01*
X150830419Y-123475809D02*
X150782800Y-123380571D01*
X150782800Y-123380571D02*
X150735180Y-123332952D01*
X150735180Y-123332952D02*
X150639942Y-123285333D01*
X150639942Y-123285333D02*
X150449466Y-123285333D01*
X150449466Y-123285333D02*
X150354228Y-123332952D01*
X150354228Y-123332952D02*
X150306609Y-123380571D01*
X150306609Y-123380571D02*
X150258990Y-123475809D01*
X136833333Y-94759580D02*
X136785714Y-94807200D01*
X136785714Y-94807200D02*
X136642857Y-94854819D01*
X136642857Y-94854819D02*
X136547619Y-94854819D01*
X136547619Y-94854819D02*
X136404762Y-94807200D01*
X136404762Y-94807200D02*
X136309524Y-94711961D01*
X136309524Y-94711961D02*
X136261905Y-94616723D01*
X136261905Y-94616723D02*
X136214286Y-94426247D01*
X136214286Y-94426247D02*
X136214286Y-94283390D01*
X136214286Y-94283390D02*
X136261905Y-94092914D01*
X136261905Y-94092914D02*
X136309524Y-93997676D01*
X136309524Y-93997676D02*
X136404762Y-93902438D01*
X136404762Y-93902438D02*
X136547619Y-93854819D01*
X136547619Y-93854819D02*
X136642857Y-93854819D01*
X136642857Y-93854819D02*
X136785714Y-93902438D01*
X136785714Y-93902438D02*
X136833333Y-93950057D01*
X137214286Y-93950057D02*
X137261905Y-93902438D01*
X137261905Y-93902438D02*
X137357143Y-93854819D01*
X137357143Y-93854819D02*
X137595238Y-93854819D01*
X137595238Y-93854819D02*
X137690476Y-93902438D01*
X137690476Y-93902438D02*
X137738095Y-93950057D01*
X137738095Y-93950057D02*
X137785714Y-94045295D01*
X137785714Y-94045295D02*
X137785714Y-94140533D01*
X137785714Y-94140533D02*
X137738095Y-94283390D01*
X137738095Y-94283390D02*
X137166667Y-94854819D01*
X137166667Y-94854819D02*
X137785714Y-94854819D01*
X144048266Y-97270219D02*
X144048266Y-97984504D01*
X144048266Y-97984504D02*
X144000647Y-98127361D01*
X144000647Y-98127361D02*
X143905409Y-98222600D01*
X143905409Y-98222600D02*
X143762552Y-98270219D01*
X143762552Y-98270219D02*
X143667314Y-98270219D01*
X144524457Y-98270219D02*
X144524457Y-97270219D01*
X144524457Y-97270219D02*
X144905409Y-97270219D01*
X144905409Y-97270219D02*
X145000647Y-97317838D01*
X145000647Y-97317838D02*
X145048266Y-97365457D01*
X145048266Y-97365457D02*
X145095885Y-97460695D01*
X145095885Y-97460695D02*
X145095885Y-97603552D01*
X145095885Y-97603552D02*
X145048266Y-97698790D01*
X145048266Y-97698790D02*
X145000647Y-97746409D01*
X145000647Y-97746409D02*
X144905409Y-97794028D01*
X144905409Y-97794028D02*
X144524457Y-97794028D01*
X145429219Y-97270219D02*
X146048266Y-97270219D01*
X146048266Y-97270219D02*
X145714933Y-97651171D01*
X145714933Y-97651171D02*
X145857790Y-97651171D01*
X145857790Y-97651171D02*
X145953028Y-97698790D01*
X145953028Y-97698790D02*
X146000647Y-97746409D01*
X146000647Y-97746409D02*
X146048266Y-97841647D01*
X146048266Y-97841647D02*
X146048266Y-98079742D01*
X146048266Y-98079742D02*
X146000647Y-98174980D01*
X146000647Y-98174980D02*
X145953028Y-98222600D01*
X145953028Y-98222600D02*
X145857790Y-98270219D01*
X145857790Y-98270219D02*
X145572076Y-98270219D01*
X145572076Y-98270219D02*
X145476838Y-98222600D01*
X145476838Y-98222600D02*
X145429219Y-98174980D01*
X131609524Y-97754819D02*
X131847619Y-98754819D01*
X131847619Y-98754819D02*
X132038095Y-98040533D01*
X132038095Y-98040533D02*
X132228571Y-98754819D01*
X132228571Y-98754819D02*
X132466667Y-97754819D01*
X132847619Y-98754819D02*
X132847619Y-98088152D01*
X132847619Y-97754819D02*
X132800000Y-97802438D01*
X132800000Y-97802438D02*
X132847619Y-97850057D01*
X132847619Y-97850057D02*
X132895238Y-97802438D01*
X132895238Y-97802438D02*
X132847619Y-97754819D01*
X132847619Y-97754819D02*
X132847619Y-97850057D01*
X133180952Y-98088152D02*
X133561904Y-98088152D01*
X133323809Y-98754819D02*
X133323809Y-97897676D01*
X133323809Y-97897676D02*
X133371428Y-97802438D01*
X133371428Y-97802438D02*
X133466666Y-97754819D01*
X133466666Y-97754819D02*
X133561904Y-97754819D01*
X133895238Y-98754819D02*
X133895238Y-98088152D01*
X133895238Y-97754819D02*
X133847619Y-97802438D01*
X133847619Y-97802438D02*
X133895238Y-97850057D01*
X133895238Y-97850057D02*
X133942857Y-97802438D01*
X133942857Y-97802438D02*
X133895238Y-97754819D01*
X133895238Y-97754819D02*
X133895238Y-97850057D01*
X135561904Y-98707200D02*
X135466666Y-98754819D01*
X135466666Y-98754819D02*
X135276190Y-98754819D01*
X135276190Y-98754819D02*
X135180952Y-98707200D01*
X135180952Y-98707200D02*
X135133333Y-98659580D01*
X135133333Y-98659580D02*
X135085714Y-98564342D01*
X135085714Y-98564342D02*
X135085714Y-98278628D01*
X135085714Y-98278628D02*
X135133333Y-98183390D01*
X135133333Y-98183390D02*
X135180952Y-98135771D01*
X135180952Y-98135771D02*
X135276190Y-98088152D01*
X135276190Y-98088152D02*
X135466666Y-98088152D01*
X135466666Y-98088152D02*
X135561904Y-98135771D01*
X136133333Y-98754819D02*
X136038095Y-98707200D01*
X136038095Y-98707200D02*
X135990476Y-98659580D01*
X135990476Y-98659580D02*
X135942857Y-98564342D01*
X135942857Y-98564342D02*
X135942857Y-98278628D01*
X135942857Y-98278628D02*
X135990476Y-98183390D01*
X135990476Y-98183390D02*
X136038095Y-98135771D01*
X136038095Y-98135771D02*
X136133333Y-98088152D01*
X136133333Y-98088152D02*
X136276190Y-98088152D01*
X136276190Y-98088152D02*
X136371428Y-98135771D01*
X136371428Y-98135771D02*
X136419047Y-98183390D01*
X136419047Y-98183390D02*
X136466666Y-98278628D01*
X136466666Y-98278628D02*
X136466666Y-98564342D01*
X136466666Y-98564342D02*
X136419047Y-98659580D01*
X136419047Y-98659580D02*
X136371428Y-98707200D01*
X136371428Y-98707200D02*
X136276190Y-98754819D01*
X136276190Y-98754819D02*
X136133333Y-98754819D01*
X136895238Y-98088152D02*
X136895238Y-98754819D01*
X136895238Y-98183390D02*
X136942857Y-98135771D01*
X136942857Y-98135771D02*
X137038095Y-98088152D01*
X137038095Y-98088152D02*
X137180952Y-98088152D01*
X137180952Y-98088152D02*
X137276190Y-98135771D01*
X137276190Y-98135771D02*
X137323809Y-98231009D01*
X137323809Y-98231009D02*
X137323809Y-98754819D01*
X137657143Y-98088152D02*
X138038095Y-98088152D01*
X137800000Y-98754819D02*
X137800000Y-97897676D01*
X137800000Y-97897676D02*
X137847619Y-97802438D01*
X137847619Y-97802438D02*
X137942857Y-97754819D01*
X137942857Y-97754819D02*
X138038095Y-97754819D01*
X145357142Y-109254819D02*
X145023809Y-108778628D01*
X144785714Y-109254819D02*
X144785714Y-108254819D01*
X144785714Y-108254819D02*
X145166666Y-108254819D01*
X145166666Y-108254819D02*
X145261904Y-108302438D01*
X145261904Y-108302438D02*
X145309523Y-108350057D01*
X145309523Y-108350057D02*
X145357142Y-108445295D01*
X145357142Y-108445295D02*
X145357142Y-108588152D01*
X145357142Y-108588152D02*
X145309523Y-108683390D01*
X145309523Y-108683390D02*
X145261904Y-108731009D01*
X145261904Y-108731009D02*
X145166666Y-108778628D01*
X145166666Y-108778628D02*
X144785714Y-108778628D01*
X145738095Y-108350057D02*
X145785714Y-108302438D01*
X145785714Y-108302438D02*
X145880952Y-108254819D01*
X145880952Y-108254819D02*
X146119047Y-108254819D01*
X146119047Y-108254819D02*
X146214285Y-108302438D01*
X146214285Y-108302438D02*
X146261904Y-108350057D01*
X146261904Y-108350057D02*
X146309523Y-108445295D01*
X146309523Y-108445295D02*
X146309523Y-108540533D01*
X146309523Y-108540533D02*
X146261904Y-108683390D01*
X146261904Y-108683390D02*
X145690476Y-109254819D01*
X145690476Y-109254819D02*
X146309523Y-109254819D01*
X147166666Y-108254819D02*
X146976190Y-108254819D01*
X146976190Y-108254819D02*
X146880952Y-108302438D01*
X146880952Y-108302438D02*
X146833333Y-108350057D01*
X146833333Y-108350057D02*
X146738095Y-108492914D01*
X146738095Y-108492914D02*
X146690476Y-108683390D01*
X146690476Y-108683390D02*
X146690476Y-109064342D01*
X146690476Y-109064342D02*
X146738095Y-109159580D01*
X146738095Y-109159580D02*
X146785714Y-109207200D01*
X146785714Y-109207200D02*
X146880952Y-109254819D01*
X146880952Y-109254819D02*
X147071428Y-109254819D01*
X147071428Y-109254819D02*
X147166666Y-109207200D01*
X147166666Y-109207200D02*
X147214285Y-109159580D01*
X147214285Y-109159580D02*
X147261904Y-109064342D01*
X147261904Y-109064342D02*
X147261904Y-108826247D01*
X147261904Y-108826247D02*
X147214285Y-108731009D01*
X147214285Y-108731009D02*
X147166666Y-108683390D01*
X147166666Y-108683390D02*
X147071428Y-108635771D01*
X147071428Y-108635771D02*
X146880952Y-108635771D01*
X146880952Y-108635771D02*
X146785714Y-108683390D01*
X146785714Y-108683390D02*
X146738095Y-108731009D01*
X146738095Y-108731009D02*
X146690476Y-108826247D01*
X170254819Y-113317857D02*
X169778628Y-113651190D01*
X170254819Y-113889285D02*
X169254819Y-113889285D01*
X169254819Y-113889285D02*
X169254819Y-113508333D01*
X169254819Y-113508333D02*
X169302438Y-113413095D01*
X169302438Y-113413095D02*
X169350057Y-113365476D01*
X169350057Y-113365476D02*
X169445295Y-113317857D01*
X169445295Y-113317857D02*
X169588152Y-113317857D01*
X169588152Y-113317857D02*
X169683390Y-113365476D01*
X169683390Y-113365476D02*
X169731009Y-113413095D01*
X169731009Y-113413095D02*
X169778628Y-113508333D01*
X169778628Y-113508333D02*
X169778628Y-113889285D01*
X170254819Y-112365476D02*
X170254819Y-112936904D01*
X170254819Y-112651190D02*
X169254819Y-112651190D01*
X169254819Y-112651190D02*
X169397676Y-112746428D01*
X169397676Y-112746428D02*
X169492914Y-112841666D01*
X169492914Y-112841666D02*
X169540533Y-112936904D01*
X169683390Y-111794047D02*
X169635771Y-111889285D01*
X169635771Y-111889285D02*
X169588152Y-111936904D01*
X169588152Y-111936904D02*
X169492914Y-111984523D01*
X169492914Y-111984523D02*
X169445295Y-111984523D01*
X169445295Y-111984523D02*
X169350057Y-111936904D01*
X169350057Y-111936904D02*
X169302438Y-111889285D01*
X169302438Y-111889285D02*
X169254819Y-111794047D01*
X169254819Y-111794047D02*
X169254819Y-111603571D01*
X169254819Y-111603571D02*
X169302438Y-111508333D01*
X169302438Y-111508333D02*
X169350057Y-111460714D01*
X169350057Y-111460714D02*
X169445295Y-111413095D01*
X169445295Y-111413095D02*
X169492914Y-111413095D01*
X169492914Y-111413095D02*
X169588152Y-111460714D01*
X169588152Y-111460714D02*
X169635771Y-111508333D01*
X169635771Y-111508333D02*
X169683390Y-111603571D01*
X169683390Y-111603571D02*
X169683390Y-111794047D01*
X169683390Y-111794047D02*
X169731009Y-111889285D01*
X169731009Y-111889285D02*
X169778628Y-111936904D01*
X169778628Y-111936904D02*
X169873866Y-111984523D01*
X169873866Y-111984523D02*
X170064342Y-111984523D01*
X170064342Y-111984523D02*
X170159580Y-111936904D01*
X170159580Y-111936904D02*
X170207200Y-111889285D01*
X170207200Y-111889285D02*
X170254819Y-111794047D01*
X170254819Y-111794047D02*
X170254819Y-111603571D01*
X170254819Y-111603571D02*
X170207200Y-111508333D01*
X170207200Y-111508333D02*
X170159580Y-111460714D01*
X170159580Y-111460714D02*
X170064342Y-111413095D01*
X170064342Y-111413095D02*
X169873866Y-111413095D01*
X169873866Y-111413095D02*
X169778628Y-111460714D01*
X169778628Y-111460714D02*
X169731009Y-111508333D01*
X169731009Y-111508333D02*
X169683390Y-111603571D01*
X156179819Y-113342857D02*
X155703628Y-113676190D01*
X156179819Y-113914285D02*
X155179819Y-113914285D01*
X155179819Y-113914285D02*
X155179819Y-113533333D01*
X155179819Y-113533333D02*
X155227438Y-113438095D01*
X155227438Y-113438095D02*
X155275057Y-113390476D01*
X155275057Y-113390476D02*
X155370295Y-113342857D01*
X155370295Y-113342857D02*
X155513152Y-113342857D01*
X155513152Y-113342857D02*
X155608390Y-113390476D01*
X155608390Y-113390476D02*
X155656009Y-113438095D01*
X155656009Y-113438095D02*
X155703628Y-113533333D01*
X155703628Y-113533333D02*
X155703628Y-113914285D01*
X156179819Y-112390476D02*
X156179819Y-112961904D01*
X156179819Y-112676190D02*
X155179819Y-112676190D01*
X155179819Y-112676190D02*
X155322676Y-112771428D01*
X155322676Y-112771428D02*
X155417914Y-112866666D01*
X155417914Y-112866666D02*
X155465533Y-112961904D01*
X155513152Y-111533333D02*
X156179819Y-111533333D01*
X155132200Y-111771428D02*
X155846485Y-112009523D01*
X155846485Y-112009523D02*
X155846485Y-111390476D01*
X153554819Y-106033332D02*
X154554819Y-105795237D01*
X154554819Y-105795237D02*
X153840533Y-105604761D01*
X153840533Y-105604761D02*
X154554819Y-105414285D01*
X154554819Y-105414285D02*
X153554819Y-105176190D01*
X153554819Y-104319047D02*
X153554819Y-104795237D01*
X153554819Y-104795237D02*
X154031009Y-104842856D01*
X154031009Y-104842856D02*
X153983390Y-104795237D01*
X153983390Y-104795237D02*
X153935771Y-104699999D01*
X153935771Y-104699999D02*
X153935771Y-104461904D01*
X153935771Y-104461904D02*
X153983390Y-104366666D01*
X153983390Y-104366666D02*
X154031009Y-104319047D01*
X154031009Y-104319047D02*
X154126247Y-104271428D01*
X154126247Y-104271428D02*
X154364342Y-104271428D01*
X154364342Y-104271428D02*
X154459580Y-104319047D01*
X154459580Y-104319047D02*
X154507200Y-104366666D01*
X154507200Y-104366666D02*
X154554819Y-104461904D01*
X154554819Y-104461904D02*
X154554819Y-104699999D01*
X154554819Y-104699999D02*
X154507200Y-104795237D01*
X154507200Y-104795237D02*
X154459580Y-104842856D01*
X153554819Y-103366666D02*
X153554819Y-103842856D01*
X153554819Y-103842856D02*
X154031009Y-103890475D01*
X154031009Y-103890475D02*
X153983390Y-103842856D01*
X153983390Y-103842856D02*
X153935771Y-103747618D01*
X153935771Y-103747618D02*
X153935771Y-103509523D01*
X153935771Y-103509523D02*
X153983390Y-103414285D01*
X153983390Y-103414285D02*
X154031009Y-103366666D01*
X154031009Y-103366666D02*
X154126247Y-103319047D01*
X154126247Y-103319047D02*
X154364342Y-103319047D01*
X154364342Y-103319047D02*
X154459580Y-103366666D01*
X154459580Y-103366666D02*
X154507200Y-103414285D01*
X154507200Y-103414285D02*
X154554819Y-103509523D01*
X154554819Y-103509523D02*
X154554819Y-103747618D01*
X154554819Y-103747618D02*
X154507200Y-103842856D01*
X154507200Y-103842856D02*
X154459580Y-103890475D01*
X153554819Y-102699999D02*
X153554819Y-102604761D01*
X153554819Y-102604761D02*
X153602438Y-102509523D01*
X153602438Y-102509523D02*
X153650057Y-102461904D01*
X153650057Y-102461904D02*
X153745295Y-102414285D01*
X153745295Y-102414285D02*
X153935771Y-102366666D01*
X153935771Y-102366666D02*
X154173866Y-102366666D01*
X154173866Y-102366666D02*
X154364342Y-102414285D01*
X154364342Y-102414285D02*
X154459580Y-102461904D01*
X154459580Y-102461904D02*
X154507200Y-102509523D01*
X154507200Y-102509523D02*
X154554819Y-102604761D01*
X154554819Y-102604761D02*
X154554819Y-102699999D01*
X154554819Y-102699999D02*
X154507200Y-102795237D01*
X154507200Y-102795237D02*
X154459580Y-102842856D01*
X154459580Y-102842856D02*
X154364342Y-102890475D01*
X154364342Y-102890475D02*
X154173866Y-102938094D01*
X154173866Y-102938094D02*
X153935771Y-102938094D01*
X153935771Y-102938094D02*
X153745295Y-102890475D01*
X153745295Y-102890475D02*
X153650057Y-102842856D01*
X153650057Y-102842856D02*
X153602438Y-102795237D01*
X153602438Y-102795237D02*
X153554819Y-102699999D01*
X153554819Y-101747618D02*
X153554819Y-101652380D01*
X153554819Y-101652380D02*
X153602438Y-101557142D01*
X153602438Y-101557142D02*
X153650057Y-101509523D01*
X153650057Y-101509523D02*
X153745295Y-101461904D01*
X153745295Y-101461904D02*
X153935771Y-101414285D01*
X153935771Y-101414285D02*
X154173866Y-101414285D01*
X154173866Y-101414285D02*
X154364342Y-101461904D01*
X154364342Y-101461904D02*
X154459580Y-101509523D01*
X154459580Y-101509523D02*
X154507200Y-101557142D01*
X154507200Y-101557142D02*
X154554819Y-101652380D01*
X154554819Y-101652380D02*
X154554819Y-101747618D01*
X154554819Y-101747618D02*
X154507200Y-101842856D01*
X154507200Y-101842856D02*
X154459580Y-101890475D01*
X154459580Y-101890475D02*
X154364342Y-101938094D01*
X154364342Y-101938094D02*
X154173866Y-101985713D01*
X154173866Y-101985713D02*
X153935771Y-101985713D01*
X153935771Y-101985713D02*
X153745295Y-101938094D01*
X153745295Y-101938094D02*
X153650057Y-101890475D01*
X153650057Y-101890475D02*
X153602438Y-101842856D01*
X153602438Y-101842856D02*
X153554819Y-101747618D01*
X114143980Y-106592666D02*
X114191600Y-106640285D01*
X114191600Y-106640285D02*
X114239219Y-106783142D01*
X114239219Y-106783142D02*
X114239219Y-106878380D01*
X114239219Y-106878380D02*
X114191600Y-107021237D01*
X114191600Y-107021237D02*
X114096361Y-107116475D01*
X114096361Y-107116475D02*
X114001123Y-107164094D01*
X114001123Y-107164094D02*
X113810647Y-107211713D01*
X113810647Y-107211713D02*
X113667790Y-107211713D01*
X113667790Y-107211713D02*
X113477314Y-107164094D01*
X113477314Y-107164094D02*
X113382076Y-107116475D01*
X113382076Y-107116475D02*
X113286838Y-107021237D01*
X113286838Y-107021237D02*
X113239219Y-106878380D01*
X113239219Y-106878380D02*
X113239219Y-106783142D01*
X113239219Y-106783142D02*
X113286838Y-106640285D01*
X113286838Y-106640285D02*
X113334457Y-106592666D01*
X113239219Y-106259332D02*
X113239219Y-105592666D01*
X113239219Y-105592666D02*
X114239219Y-106021237D01*
X139282267Y-86748600D02*
X139425124Y-86796219D01*
X139425124Y-86796219D02*
X139663219Y-86796219D01*
X139663219Y-86796219D02*
X139758457Y-86748600D01*
X139758457Y-86748600D02*
X139806076Y-86700980D01*
X139806076Y-86700980D02*
X139853695Y-86605742D01*
X139853695Y-86605742D02*
X139853695Y-86510504D01*
X139853695Y-86510504D02*
X139806076Y-86415266D01*
X139806076Y-86415266D02*
X139758457Y-86367647D01*
X139758457Y-86367647D02*
X139663219Y-86320028D01*
X139663219Y-86320028D02*
X139472743Y-86272409D01*
X139472743Y-86272409D02*
X139377505Y-86224790D01*
X139377505Y-86224790D02*
X139329886Y-86177171D01*
X139329886Y-86177171D02*
X139282267Y-86081933D01*
X139282267Y-86081933D02*
X139282267Y-85986695D01*
X139282267Y-85986695D02*
X139329886Y-85891457D01*
X139329886Y-85891457D02*
X139377505Y-85843838D01*
X139377505Y-85843838D02*
X139472743Y-85796219D01*
X139472743Y-85796219D02*
X139710838Y-85796219D01*
X139710838Y-85796219D02*
X139853695Y-85843838D01*
X140187029Y-85796219D02*
X140425124Y-86796219D01*
X140425124Y-86796219D02*
X140615600Y-86081933D01*
X140615600Y-86081933D02*
X140806076Y-86796219D01*
X140806076Y-86796219D02*
X141044172Y-85796219D01*
X141377505Y-85891457D02*
X141425124Y-85843838D01*
X141425124Y-85843838D02*
X141520362Y-85796219D01*
X141520362Y-85796219D02*
X141758457Y-85796219D01*
X141758457Y-85796219D02*
X141853695Y-85843838D01*
X141853695Y-85843838D02*
X141901314Y-85891457D01*
X141901314Y-85891457D02*
X141948933Y-85986695D01*
X141948933Y-85986695D02*
X141948933Y-86081933D01*
X141948933Y-86081933D02*
X141901314Y-86224790D01*
X141901314Y-86224790D02*
X141329886Y-86796219D01*
X141329886Y-86796219D02*
X141948933Y-86796219D01*
X132912028Y-89872409D02*
X132578695Y-89872409D01*
X132578695Y-90396219D02*
X132578695Y-89396219D01*
X132578695Y-89396219D02*
X133054885Y-89396219D01*
X133578695Y-90396219D02*
X133483457Y-90348600D01*
X133483457Y-90348600D02*
X133435838Y-90253361D01*
X133435838Y-90253361D02*
X133435838Y-89396219D01*
X134388219Y-90396219D02*
X134388219Y-89872409D01*
X134388219Y-89872409D02*
X134340600Y-89777171D01*
X134340600Y-89777171D02*
X134245362Y-89729552D01*
X134245362Y-89729552D02*
X134054886Y-89729552D01*
X134054886Y-89729552D02*
X133959648Y-89777171D01*
X134388219Y-90348600D02*
X134292981Y-90396219D01*
X134292981Y-90396219D02*
X134054886Y-90396219D01*
X134054886Y-90396219D02*
X133959648Y-90348600D01*
X133959648Y-90348600D02*
X133912029Y-90253361D01*
X133912029Y-90253361D02*
X133912029Y-90158123D01*
X133912029Y-90158123D02*
X133959648Y-90062885D01*
X133959648Y-90062885D02*
X134054886Y-90015266D01*
X134054886Y-90015266D02*
X134292981Y-90015266D01*
X134292981Y-90015266D02*
X134388219Y-89967647D01*
X134816791Y-90348600D02*
X134912029Y-90396219D01*
X134912029Y-90396219D02*
X135102505Y-90396219D01*
X135102505Y-90396219D02*
X135197743Y-90348600D01*
X135197743Y-90348600D02*
X135245362Y-90253361D01*
X135245362Y-90253361D02*
X135245362Y-90205742D01*
X135245362Y-90205742D02*
X135197743Y-90110504D01*
X135197743Y-90110504D02*
X135102505Y-90062885D01*
X135102505Y-90062885D02*
X134959648Y-90062885D01*
X134959648Y-90062885D02*
X134864410Y-90015266D01*
X134864410Y-90015266D02*
X134816791Y-89920028D01*
X134816791Y-89920028D02*
X134816791Y-89872409D01*
X134816791Y-89872409D02*
X134864410Y-89777171D01*
X134864410Y-89777171D02*
X134959648Y-89729552D01*
X134959648Y-89729552D02*
X135102505Y-89729552D01*
X135102505Y-89729552D02*
X135197743Y-89777171D01*
X135673934Y-90396219D02*
X135673934Y-89396219D01*
X136102505Y-90396219D02*
X136102505Y-89872409D01*
X136102505Y-89872409D02*
X136054886Y-89777171D01*
X136054886Y-89777171D02*
X135959648Y-89729552D01*
X135959648Y-89729552D02*
X135816791Y-89729552D01*
X135816791Y-89729552D02*
X135721553Y-89777171D01*
X135721553Y-89777171D02*
X135673934Y-89824790D01*
X154404819Y-113342857D02*
X153928628Y-113676190D01*
X154404819Y-113914285D02*
X153404819Y-113914285D01*
X153404819Y-113914285D02*
X153404819Y-113533333D01*
X153404819Y-113533333D02*
X153452438Y-113438095D01*
X153452438Y-113438095D02*
X153500057Y-113390476D01*
X153500057Y-113390476D02*
X153595295Y-113342857D01*
X153595295Y-113342857D02*
X153738152Y-113342857D01*
X153738152Y-113342857D02*
X153833390Y-113390476D01*
X153833390Y-113390476D02*
X153881009Y-113438095D01*
X153881009Y-113438095D02*
X153928628Y-113533333D01*
X153928628Y-113533333D02*
X153928628Y-113914285D01*
X154404819Y-112390476D02*
X154404819Y-112961904D01*
X154404819Y-112676190D02*
X153404819Y-112676190D01*
X153404819Y-112676190D02*
X153547676Y-112771428D01*
X153547676Y-112771428D02*
X153642914Y-112866666D01*
X153642914Y-112866666D02*
X153690533Y-112961904D01*
X153404819Y-112057142D02*
X153404819Y-111438095D01*
X153404819Y-111438095D02*
X153785771Y-111771428D01*
X153785771Y-111771428D02*
X153785771Y-111628571D01*
X153785771Y-111628571D02*
X153833390Y-111533333D01*
X153833390Y-111533333D02*
X153881009Y-111485714D01*
X153881009Y-111485714D02*
X153976247Y-111438095D01*
X153976247Y-111438095D02*
X154214342Y-111438095D01*
X154214342Y-111438095D02*
X154309580Y-111485714D01*
X154309580Y-111485714D02*
X154357200Y-111533333D01*
X154357200Y-111533333D02*
X154404819Y-111628571D01*
X154404819Y-111628571D02*
X154404819Y-111914285D01*
X154404819Y-111914285D02*
X154357200Y-112009523D01*
X154357200Y-112009523D02*
X154309580Y-112057142D01*
X129309019Y-112790266D02*
X128832828Y-113123599D01*
X129309019Y-113361694D02*
X128309019Y-113361694D01*
X128309019Y-113361694D02*
X128309019Y-112980742D01*
X128309019Y-112980742D02*
X128356638Y-112885504D01*
X128356638Y-112885504D02*
X128404257Y-112837885D01*
X128404257Y-112837885D02*
X128499495Y-112790266D01*
X128499495Y-112790266D02*
X128642352Y-112790266D01*
X128642352Y-112790266D02*
X128737590Y-112837885D01*
X128737590Y-112837885D02*
X128785209Y-112885504D01*
X128785209Y-112885504D02*
X128832828Y-112980742D01*
X128832828Y-112980742D02*
X128832828Y-113361694D01*
X128737590Y-112218837D02*
X128689971Y-112314075D01*
X128689971Y-112314075D02*
X128642352Y-112361694D01*
X128642352Y-112361694D02*
X128547114Y-112409313D01*
X128547114Y-112409313D02*
X128499495Y-112409313D01*
X128499495Y-112409313D02*
X128404257Y-112361694D01*
X128404257Y-112361694D02*
X128356638Y-112314075D01*
X128356638Y-112314075D02*
X128309019Y-112218837D01*
X128309019Y-112218837D02*
X128309019Y-112028361D01*
X128309019Y-112028361D02*
X128356638Y-111933123D01*
X128356638Y-111933123D02*
X128404257Y-111885504D01*
X128404257Y-111885504D02*
X128499495Y-111837885D01*
X128499495Y-111837885D02*
X128547114Y-111837885D01*
X128547114Y-111837885D02*
X128642352Y-111885504D01*
X128642352Y-111885504D02*
X128689971Y-111933123D01*
X128689971Y-111933123D02*
X128737590Y-112028361D01*
X128737590Y-112028361D02*
X128737590Y-112218837D01*
X128737590Y-112218837D02*
X128785209Y-112314075D01*
X128785209Y-112314075D02*
X128832828Y-112361694D01*
X128832828Y-112361694D02*
X128928066Y-112409313D01*
X128928066Y-112409313D02*
X129118542Y-112409313D01*
X129118542Y-112409313D02*
X129213780Y-112361694D01*
X129213780Y-112361694D02*
X129261400Y-112314075D01*
X129261400Y-112314075D02*
X129309019Y-112218837D01*
X129309019Y-112218837D02*
X129309019Y-112028361D01*
X129309019Y-112028361D02*
X129261400Y-111933123D01*
X129261400Y-111933123D02*
X129213780Y-111885504D01*
X129213780Y-111885504D02*
X129118542Y-111837885D01*
X129118542Y-111837885D02*
X128928066Y-111837885D01*
X128928066Y-111837885D02*
X128832828Y-111885504D01*
X128832828Y-111885504D02*
X128785209Y-111933123D01*
X128785209Y-111933123D02*
X128737590Y-112028361D01*
X172979819Y-113317857D02*
X172503628Y-113651190D01*
X172979819Y-113889285D02*
X171979819Y-113889285D01*
X171979819Y-113889285D02*
X171979819Y-113508333D01*
X171979819Y-113508333D02*
X172027438Y-113413095D01*
X172027438Y-113413095D02*
X172075057Y-113365476D01*
X172075057Y-113365476D02*
X172170295Y-113317857D01*
X172170295Y-113317857D02*
X172313152Y-113317857D01*
X172313152Y-113317857D02*
X172408390Y-113365476D01*
X172408390Y-113365476D02*
X172456009Y-113413095D01*
X172456009Y-113413095D02*
X172503628Y-113508333D01*
X172503628Y-113508333D02*
X172503628Y-113889285D01*
X172979819Y-112365476D02*
X172979819Y-112936904D01*
X172979819Y-112651190D02*
X171979819Y-112651190D01*
X171979819Y-112651190D02*
X172122676Y-112746428D01*
X172122676Y-112746428D02*
X172217914Y-112841666D01*
X172217914Y-112841666D02*
X172265533Y-112936904D01*
X172979819Y-111889285D02*
X172979819Y-111698809D01*
X172979819Y-111698809D02*
X172932200Y-111603571D01*
X172932200Y-111603571D02*
X172884580Y-111555952D01*
X172884580Y-111555952D02*
X172741723Y-111460714D01*
X172741723Y-111460714D02*
X172551247Y-111413095D01*
X172551247Y-111413095D02*
X172170295Y-111413095D01*
X172170295Y-111413095D02*
X172075057Y-111460714D01*
X172075057Y-111460714D02*
X172027438Y-111508333D01*
X172027438Y-111508333D02*
X171979819Y-111603571D01*
X171979819Y-111603571D02*
X171979819Y-111794047D01*
X171979819Y-111794047D02*
X172027438Y-111889285D01*
X172027438Y-111889285D02*
X172075057Y-111936904D01*
X172075057Y-111936904D02*
X172170295Y-111984523D01*
X172170295Y-111984523D02*
X172408390Y-111984523D01*
X172408390Y-111984523D02*
X172503628Y-111936904D01*
X172503628Y-111936904D02*
X172551247Y-111889285D01*
X172551247Y-111889285D02*
X172598866Y-111794047D01*
X172598866Y-111794047D02*
X172598866Y-111603571D01*
X172598866Y-111603571D02*
X172551247Y-111508333D01*
X172551247Y-111508333D02*
X172503628Y-111460714D01*
X172503628Y-111460714D02*
X172408390Y-111413095D01*
X114993980Y-95238866D02*
X115041600Y-95286485D01*
X115041600Y-95286485D02*
X115089219Y-95429342D01*
X115089219Y-95429342D02*
X115089219Y-95524580D01*
X115089219Y-95524580D02*
X115041600Y-95667437D01*
X115041600Y-95667437D02*
X114946361Y-95762675D01*
X114946361Y-95762675D02*
X114851123Y-95810294D01*
X114851123Y-95810294D02*
X114660647Y-95857913D01*
X114660647Y-95857913D02*
X114517790Y-95857913D01*
X114517790Y-95857913D02*
X114327314Y-95810294D01*
X114327314Y-95810294D02*
X114232076Y-95762675D01*
X114232076Y-95762675D02*
X114136838Y-95667437D01*
X114136838Y-95667437D02*
X114089219Y-95524580D01*
X114089219Y-95524580D02*
X114089219Y-95429342D01*
X114089219Y-95429342D02*
X114136838Y-95286485D01*
X114136838Y-95286485D02*
X114184457Y-95238866D01*
X114089219Y-94334104D02*
X114089219Y-94810294D01*
X114089219Y-94810294D02*
X114565409Y-94857913D01*
X114565409Y-94857913D02*
X114517790Y-94810294D01*
X114517790Y-94810294D02*
X114470171Y-94715056D01*
X114470171Y-94715056D02*
X114470171Y-94476961D01*
X114470171Y-94476961D02*
X114517790Y-94381723D01*
X114517790Y-94381723D02*
X114565409Y-94334104D01*
X114565409Y-94334104D02*
X114660647Y-94286485D01*
X114660647Y-94286485D02*
X114898742Y-94286485D01*
X114898742Y-94286485D02*
X114993980Y-94334104D01*
X114993980Y-94334104D02*
X115041600Y-94381723D01*
X115041600Y-94381723D02*
X115089219Y-94476961D01*
X115089219Y-94476961D02*
X115089219Y-94715056D01*
X115089219Y-94715056D02*
X115041600Y-94810294D01*
X115041600Y-94810294D02*
X114993980Y-94857913D01*
X151833333Y-93054819D02*
X151500000Y-92578628D01*
X151261905Y-93054819D02*
X151261905Y-92054819D01*
X151261905Y-92054819D02*
X151642857Y-92054819D01*
X151642857Y-92054819D02*
X151738095Y-92102438D01*
X151738095Y-92102438D02*
X151785714Y-92150057D01*
X151785714Y-92150057D02*
X151833333Y-92245295D01*
X151833333Y-92245295D02*
X151833333Y-92388152D01*
X151833333Y-92388152D02*
X151785714Y-92483390D01*
X151785714Y-92483390D02*
X151738095Y-92531009D01*
X151738095Y-92531009D02*
X151642857Y-92578628D01*
X151642857Y-92578628D02*
X151261905Y-92578628D01*
X152214286Y-92150057D02*
X152261905Y-92102438D01*
X152261905Y-92102438D02*
X152357143Y-92054819D01*
X152357143Y-92054819D02*
X152595238Y-92054819D01*
X152595238Y-92054819D02*
X152690476Y-92102438D01*
X152690476Y-92102438D02*
X152738095Y-92150057D01*
X152738095Y-92150057D02*
X152785714Y-92245295D01*
X152785714Y-92245295D02*
X152785714Y-92340533D01*
X152785714Y-92340533D02*
X152738095Y-92483390D01*
X152738095Y-92483390D02*
X152166667Y-93054819D01*
X152166667Y-93054819D02*
X152785714Y-93054819D01*
X148136076Y-85746219D02*
X148136076Y-86460504D01*
X148136076Y-86460504D02*
X148088457Y-86603361D01*
X148088457Y-86603361D02*
X147993219Y-86698600D01*
X147993219Y-86698600D02*
X147850362Y-86746219D01*
X147850362Y-86746219D02*
X147755124Y-86746219D01*
X149136076Y-86746219D02*
X148564648Y-86746219D01*
X148850362Y-86746219D02*
X148850362Y-85746219D01*
X148850362Y-85746219D02*
X148755124Y-85889076D01*
X148755124Y-85889076D02*
X148659886Y-85984314D01*
X148659886Y-85984314D02*
X148564648Y-86031933D01*
X149755124Y-85746219D02*
X149850362Y-85746219D01*
X149850362Y-85746219D02*
X149945600Y-85793838D01*
X149945600Y-85793838D02*
X149993219Y-85841457D01*
X149993219Y-85841457D02*
X150040838Y-85936695D01*
X150040838Y-85936695D02*
X150088457Y-86127171D01*
X150088457Y-86127171D02*
X150088457Y-86365266D01*
X150088457Y-86365266D02*
X150040838Y-86555742D01*
X150040838Y-86555742D02*
X149993219Y-86650980D01*
X149993219Y-86650980D02*
X149945600Y-86698600D01*
X149945600Y-86698600D02*
X149850362Y-86746219D01*
X149850362Y-86746219D02*
X149755124Y-86746219D01*
X149755124Y-86746219D02*
X149659886Y-86698600D01*
X149659886Y-86698600D02*
X149612267Y-86650980D01*
X149612267Y-86650980D02*
X149564648Y-86555742D01*
X149564648Y-86555742D02*
X149517029Y-86365266D01*
X149517029Y-86365266D02*
X149517029Y-86127171D01*
X149517029Y-86127171D02*
X149564648Y-85936695D01*
X149564648Y-85936695D02*
X149612267Y-85841457D01*
X149612267Y-85841457D02*
X149659886Y-85793838D01*
X149659886Y-85793838D02*
X149755124Y-85746219D01*
X147154819Y-94914285D02*
X146154819Y-94914285D01*
X146154819Y-94914285D02*
X146154819Y-94533333D01*
X146154819Y-94533333D02*
X146202438Y-94438095D01*
X146202438Y-94438095D02*
X146250057Y-94390476D01*
X146250057Y-94390476D02*
X146345295Y-94342857D01*
X146345295Y-94342857D02*
X146488152Y-94342857D01*
X146488152Y-94342857D02*
X146583390Y-94390476D01*
X146583390Y-94390476D02*
X146631009Y-94438095D01*
X146631009Y-94438095D02*
X146678628Y-94533333D01*
X146678628Y-94533333D02*
X146678628Y-94914285D01*
X147154819Y-93914285D02*
X146488152Y-93914285D01*
X146678628Y-93914285D02*
X146583390Y-93866666D01*
X146583390Y-93866666D02*
X146535771Y-93819047D01*
X146535771Y-93819047D02*
X146488152Y-93723809D01*
X146488152Y-93723809D02*
X146488152Y-93628571D01*
X147154819Y-93152380D02*
X147107200Y-93247618D01*
X147107200Y-93247618D02*
X147059580Y-93295237D01*
X147059580Y-93295237D02*
X146964342Y-93342856D01*
X146964342Y-93342856D02*
X146678628Y-93342856D01*
X146678628Y-93342856D02*
X146583390Y-93295237D01*
X146583390Y-93295237D02*
X146535771Y-93247618D01*
X146535771Y-93247618D02*
X146488152Y-93152380D01*
X146488152Y-93152380D02*
X146488152Y-93009523D01*
X146488152Y-93009523D02*
X146535771Y-92914285D01*
X146535771Y-92914285D02*
X146583390Y-92866666D01*
X146583390Y-92866666D02*
X146678628Y-92819047D01*
X146678628Y-92819047D02*
X146964342Y-92819047D01*
X146964342Y-92819047D02*
X147059580Y-92866666D01*
X147059580Y-92866666D02*
X147107200Y-92914285D01*
X147107200Y-92914285D02*
X147154819Y-93009523D01*
X147154819Y-93009523D02*
X147154819Y-93152380D01*
X146488152Y-91961904D02*
X147297676Y-91961904D01*
X147297676Y-91961904D02*
X147392914Y-92009523D01*
X147392914Y-92009523D02*
X147440533Y-92057142D01*
X147440533Y-92057142D02*
X147488152Y-92152380D01*
X147488152Y-92152380D02*
X147488152Y-92295237D01*
X147488152Y-92295237D02*
X147440533Y-92390475D01*
X147107200Y-91961904D02*
X147154819Y-92057142D01*
X147154819Y-92057142D02*
X147154819Y-92247618D01*
X147154819Y-92247618D02*
X147107200Y-92342856D01*
X147107200Y-92342856D02*
X147059580Y-92390475D01*
X147059580Y-92390475D02*
X146964342Y-92438094D01*
X146964342Y-92438094D02*
X146678628Y-92438094D01*
X146678628Y-92438094D02*
X146583390Y-92390475D01*
X146583390Y-92390475D02*
X146535771Y-92342856D01*
X146535771Y-92342856D02*
X146488152Y-92247618D01*
X146488152Y-92247618D02*
X146488152Y-92057142D01*
X146488152Y-92057142D02*
X146535771Y-91961904D01*
X147154819Y-91485713D02*
X146488152Y-91485713D01*
X146678628Y-91485713D02*
X146583390Y-91438094D01*
X146583390Y-91438094D02*
X146535771Y-91390475D01*
X146535771Y-91390475D02*
X146488152Y-91295237D01*
X146488152Y-91295237D02*
X146488152Y-91199999D01*
X147154819Y-90438094D02*
X146631009Y-90438094D01*
X146631009Y-90438094D02*
X146535771Y-90485713D01*
X146535771Y-90485713D02*
X146488152Y-90580951D01*
X146488152Y-90580951D02*
X146488152Y-90771427D01*
X146488152Y-90771427D02*
X146535771Y-90866665D01*
X147107200Y-90438094D02*
X147154819Y-90533332D01*
X147154819Y-90533332D02*
X147154819Y-90771427D01*
X147154819Y-90771427D02*
X147107200Y-90866665D01*
X147107200Y-90866665D02*
X147011961Y-90914284D01*
X147011961Y-90914284D02*
X146916723Y-90914284D01*
X146916723Y-90914284D02*
X146821485Y-90866665D01*
X146821485Y-90866665D02*
X146773866Y-90771427D01*
X146773866Y-90771427D02*
X146773866Y-90533332D01*
X146773866Y-90533332D02*
X146726247Y-90438094D01*
X147154819Y-89961903D02*
X146488152Y-89961903D01*
X146583390Y-89961903D02*
X146535771Y-89914284D01*
X146535771Y-89914284D02*
X146488152Y-89819046D01*
X146488152Y-89819046D02*
X146488152Y-89676189D01*
X146488152Y-89676189D02*
X146535771Y-89580951D01*
X146535771Y-89580951D02*
X146631009Y-89533332D01*
X146631009Y-89533332D02*
X147154819Y-89533332D01*
X146631009Y-89533332D02*
X146535771Y-89485713D01*
X146535771Y-89485713D02*
X146488152Y-89390475D01*
X146488152Y-89390475D02*
X146488152Y-89247618D01*
X146488152Y-89247618D02*
X146535771Y-89152379D01*
X146535771Y-89152379D02*
X146631009Y-89104760D01*
X146631009Y-89104760D02*
X147154819Y-89104760D01*
X147154819Y-88628570D02*
X146488152Y-88628570D01*
X146583390Y-88628570D02*
X146535771Y-88580951D01*
X146535771Y-88580951D02*
X146488152Y-88485713D01*
X146488152Y-88485713D02*
X146488152Y-88342856D01*
X146488152Y-88342856D02*
X146535771Y-88247618D01*
X146535771Y-88247618D02*
X146631009Y-88199999D01*
X146631009Y-88199999D02*
X147154819Y-88199999D01*
X146631009Y-88199999D02*
X146535771Y-88152380D01*
X146535771Y-88152380D02*
X146488152Y-88057142D01*
X146488152Y-88057142D02*
X146488152Y-87914285D01*
X146488152Y-87914285D02*
X146535771Y-87819046D01*
X146535771Y-87819046D02*
X146631009Y-87771427D01*
X146631009Y-87771427D02*
X147154819Y-87771427D01*
X147154819Y-87295237D02*
X146488152Y-87295237D01*
X146154819Y-87295237D02*
X146202438Y-87342856D01*
X146202438Y-87342856D02*
X146250057Y-87295237D01*
X146250057Y-87295237D02*
X146202438Y-87247618D01*
X146202438Y-87247618D02*
X146154819Y-87295237D01*
X146154819Y-87295237D02*
X146250057Y-87295237D01*
X146488152Y-86819047D02*
X147154819Y-86819047D01*
X146583390Y-86819047D02*
X146535771Y-86771428D01*
X146535771Y-86771428D02*
X146488152Y-86676190D01*
X146488152Y-86676190D02*
X146488152Y-86533333D01*
X146488152Y-86533333D02*
X146535771Y-86438095D01*
X146535771Y-86438095D02*
X146631009Y-86390476D01*
X146631009Y-86390476D02*
X147154819Y-86390476D01*
X146488152Y-85485714D02*
X147297676Y-85485714D01*
X147297676Y-85485714D02*
X147392914Y-85533333D01*
X147392914Y-85533333D02*
X147440533Y-85580952D01*
X147440533Y-85580952D02*
X147488152Y-85676190D01*
X147488152Y-85676190D02*
X147488152Y-85819047D01*
X147488152Y-85819047D02*
X147440533Y-85914285D01*
X147107200Y-85485714D02*
X147154819Y-85580952D01*
X147154819Y-85580952D02*
X147154819Y-85771428D01*
X147154819Y-85771428D02*
X147107200Y-85866666D01*
X147107200Y-85866666D02*
X147059580Y-85914285D01*
X147059580Y-85914285D02*
X146964342Y-85961904D01*
X146964342Y-85961904D02*
X146678628Y-85961904D01*
X146678628Y-85961904D02*
X146583390Y-85914285D01*
X146583390Y-85914285D02*
X146535771Y-85866666D01*
X146535771Y-85866666D02*
X146488152Y-85771428D01*
X146488152Y-85771428D02*
X146488152Y-85580952D01*
X146488152Y-85580952D02*
X146535771Y-85485714D01*
X134754819Y-121533333D02*
X135469104Y-121533333D01*
X135469104Y-121533333D02*
X135611961Y-121580952D01*
X135611961Y-121580952D02*
X135707200Y-121676190D01*
X135707200Y-121676190D02*
X135754819Y-121819047D01*
X135754819Y-121819047D02*
X135754819Y-121914285D01*
X134754819Y-121152380D02*
X134754819Y-120533333D01*
X134754819Y-120533333D02*
X135135771Y-120866666D01*
X135135771Y-120866666D02*
X135135771Y-120723809D01*
X135135771Y-120723809D02*
X135183390Y-120628571D01*
X135183390Y-120628571D02*
X135231009Y-120580952D01*
X135231009Y-120580952D02*
X135326247Y-120533333D01*
X135326247Y-120533333D02*
X135564342Y-120533333D01*
X135564342Y-120533333D02*
X135659580Y-120580952D01*
X135659580Y-120580952D02*
X135707200Y-120628571D01*
X135707200Y-120628571D02*
X135754819Y-120723809D01*
X135754819Y-120723809D02*
X135754819Y-121009523D01*
X135754819Y-121009523D02*
X135707200Y-121104761D01*
X135707200Y-121104761D02*
X135659580Y-121152380D01*
X144523619Y-113063257D02*
X144047428Y-113396590D01*
X144523619Y-113634685D02*
X143523619Y-113634685D01*
X143523619Y-113634685D02*
X143523619Y-113253733D01*
X143523619Y-113253733D02*
X143571238Y-113158495D01*
X143571238Y-113158495D02*
X143618857Y-113110876D01*
X143618857Y-113110876D02*
X143714095Y-113063257D01*
X143714095Y-113063257D02*
X143856952Y-113063257D01*
X143856952Y-113063257D02*
X143952190Y-113110876D01*
X143952190Y-113110876D02*
X143999809Y-113158495D01*
X143999809Y-113158495D02*
X144047428Y-113253733D01*
X144047428Y-113253733D02*
X144047428Y-113634685D01*
X144523619Y-112110876D02*
X144523619Y-112682304D01*
X144523619Y-112396590D02*
X143523619Y-112396590D01*
X143523619Y-112396590D02*
X143666476Y-112491828D01*
X143666476Y-112491828D02*
X143761714Y-112587066D01*
X143761714Y-112587066D02*
X143809333Y-112682304D01*
X143618857Y-111729923D02*
X143571238Y-111682304D01*
X143571238Y-111682304D02*
X143523619Y-111587066D01*
X143523619Y-111587066D02*
X143523619Y-111348971D01*
X143523619Y-111348971D02*
X143571238Y-111253733D01*
X143571238Y-111253733D02*
X143618857Y-111206114D01*
X143618857Y-111206114D02*
X143714095Y-111158495D01*
X143714095Y-111158495D02*
X143809333Y-111158495D01*
X143809333Y-111158495D02*
X143952190Y-111206114D01*
X143952190Y-111206114D02*
X144523619Y-111777542D01*
X144523619Y-111777542D02*
X144523619Y-111158495D01*
X160754819Y-113342857D02*
X160278628Y-113676190D01*
X160754819Y-113914285D02*
X159754819Y-113914285D01*
X159754819Y-113914285D02*
X159754819Y-113533333D01*
X159754819Y-113533333D02*
X159802438Y-113438095D01*
X159802438Y-113438095D02*
X159850057Y-113390476D01*
X159850057Y-113390476D02*
X159945295Y-113342857D01*
X159945295Y-113342857D02*
X160088152Y-113342857D01*
X160088152Y-113342857D02*
X160183390Y-113390476D01*
X160183390Y-113390476D02*
X160231009Y-113438095D01*
X160231009Y-113438095D02*
X160278628Y-113533333D01*
X160278628Y-113533333D02*
X160278628Y-113914285D01*
X160754819Y-112390476D02*
X160754819Y-112961904D01*
X160754819Y-112676190D02*
X159754819Y-112676190D01*
X159754819Y-112676190D02*
X159897676Y-112771428D01*
X159897676Y-112771428D02*
X159992914Y-112866666D01*
X159992914Y-112866666D02*
X160040533Y-112961904D01*
X159754819Y-111533333D02*
X159754819Y-111723809D01*
X159754819Y-111723809D02*
X159802438Y-111819047D01*
X159802438Y-111819047D02*
X159850057Y-111866666D01*
X159850057Y-111866666D02*
X159992914Y-111961904D01*
X159992914Y-111961904D02*
X160183390Y-112009523D01*
X160183390Y-112009523D02*
X160564342Y-112009523D01*
X160564342Y-112009523D02*
X160659580Y-111961904D01*
X160659580Y-111961904D02*
X160707200Y-111914285D01*
X160707200Y-111914285D02*
X160754819Y-111819047D01*
X160754819Y-111819047D02*
X160754819Y-111628571D01*
X160754819Y-111628571D02*
X160707200Y-111533333D01*
X160707200Y-111533333D02*
X160659580Y-111485714D01*
X160659580Y-111485714D02*
X160564342Y-111438095D01*
X160564342Y-111438095D02*
X160326247Y-111438095D01*
X160326247Y-111438095D02*
X160231009Y-111485714D01*
X160231009Y-111485714D02*
X160183390Y-111533333D01*
X160183390Y-111533333D02*
X160135771Y-111628571D01*
X160135771Y-111628571D02*
X160135771Y-111819047D01*
X160135771Y-111819047D02*
X160183390Y-111914285D01*
X160183390Y-111914285D02*
X160231009Y-111961904D01*
X160231009Y-111961904D02*
X160326247Y-112009523D01*
X111604819Y-113550000D02*
X110604819Y-113550000D01*
X110604819Y-113550000D02*
X110604819Y-113169048D01*
X110604819Y-113169048D02*
X110652438Y-113073810D01*
X110652438Y-113073810D02*
X110700057Y-113026191D01*
X110700057Y-113026191D02*
X110795295Y-112978572D01*
X110795295Y-112978572D02*
X110938152Y-112978572D01*
X110938152Y-112978572D02*
X111033390Y-113026191D01*
X111033390Y-113026191D02*
X111081009Y-113073810D01*
X111081009Y-113073810D02*
X111128628Y-113169048D01*
X111128628Y-113169048D02*
X111128628Y-113550000D01*
X111604819Y-112407143D02*
X111557200Y-112502381D01*
X111557200Y-112502381D02*
X111509580Y-112550000D01*
X111509580Y-112550000D02*
X111414342Y-112597619D01*
X111414342Y-112597619D02*
X111128628Y-112597619D01*
X111128628Y-112597619D02*
X111033390Y-112550000D01*
X111033390Y-112550000D02*
X110985771Y-112502381D01*
X110985771Y-112502381D02*
X110938152Y-112407143D01*
X110938152Y-112407143D02*
X110938152Y-112264286D01*
X110938152Y-112264286D02*
X110985771Y-112169048D01*
X110985771Y-112169048D02*
X111033390Y-112121429D01*
X111033390Y-112121429D02*
X111128628Y-112073810D01*
X111128628Y-112073810D02*
X111414342Y-112073810D01*
X111414342Y-112073810D02*
X111509580Y-112121429D01*
X111509580Y-112121429D02*
X111557200Y-112169048D01*
X111557200Y-112169048D02*
X111604819Y-112264286D01*
X111604819Y-112264286D02*
X111604819Y-112407143D01*
X110938152Y-111740476D02*
X111604819Y-111550000D01*
X111604819Y-111550000D02*
X111128628Y-111359524D01*
X111128628Y-111359524D02*
X111604819Y-111169048D01*
X111604819Y-111169048D02*
X110938152Y-110978572D01*
X111557200Y-110216667D02*
X111604819Y-110311905D01*
X111604819Y-110311905D02*
X111604819Y-110502381D01*
X111604819Y-110502381D02*
X111557200Y-110597619D01*
X111557200Y-110597619D02*
X111461961Y-110645238D01*
X111461961Y-110645238D02*
X111081009Y-110645238D01*
X111081009Y-110645238D02*
X110985771Y-110597619D01*
X110985771Y-110597619D02*
X110938152Y-110502381D01*
X110938152Y-110502381D02*
X110938152Y-110311905D01*
X110938152Y-110311905D02*
X110985771Y-110216667D01*
X110985771Y-110216667D02*
X111081009Y-110169048D01*
X111081009Y-110169048D02*
X111176247Y-110169048D01*
X111176247Y-110169048D02*
X111271485Y-110645238D01*
X111604819Y-109740476D02*
X110938152Y-109740476D01*
X111128628Y-109740476D02*
X111033390Y-109692857D01*
X111033390Y-109692857D02*
X110985771Y-109645238D01*
X110985771Y-109645238D02*
X110938152Y-109550000D01*
X110938152Y-109550000D02*
X110938152Y-109454762D01*
X111509580Y-107788095D02*
X111557200Y-107835714D01*
X111557200Y-107835714D02*
X111604819Y-107978571D01*
X111604819Y-107978571D02*
X111604819Y-108073809D01*
X111604819Y-108073809D02*
X111557200Y-108216666D01*
X111557200Y-108216666D02*
X111461961Y-108311904D01*
X111461961Y-108311904D02*
X111366723Y-108359523D01*
X111366723Y-108359523D02*
X111176247Y-108407142D01*
X111176247Y-108407142D02*
X111033390Y-108407142D01*
X111033390Y-108407142D02*
X110842914Y-108359523D01*
X110842914Y-108359523D02*
X110747676Y-108311904D01*
X110747676Y-108311904D02*
X110652438Y-108216666D01*
X110652438Y-108216666D02*
X110604819Y-108073809D01*
X110604819Y-108073809D02*
X110604819Y-107978571D01*
X110604819Y-107978571D02*
X110652438Y-107835714D01*
X110652438Y-107835714D02*
X110700057Y-107788095D01*
X111604819Y-107216666D02*
X111557200Y-107311904D01*
X111557200Y-107311904D02*
X111509580Y-107359523D01*
X111509580Y-107359523D02*
X111414342Y-107407142D01*
X111414342Y-107407142D02*
X111128628Y-107407142D01*
X111128628Y-107407142D02*
X111033390Y-107359523D01*
X111033390Y-107359523D02*
X110985771Y-107311904D01*
X110985771Y-107311904D02*
X110938152Y-107216666D01*
X110938152Y-107216666D02*
X110938152Y-107073809D01*
X110938152Y-107073809D02*
X110985771Y-106978571D01*
X110985771Y-106978571D02*
X111033390Y-106930952D01*
X111033390Y-106930952D02*
X111128628Y-106883333D01*
X111128628Y-106883333D02*
X111414342Y-106883333D01*
X111414342Y-106883333D02*
X111509580Y-106930952D01*
X111509580Y-106930952D02*
X111557200Y-106978571D01*
X111557200Y-106978571D02*
X111604819Y-107073809D01*
X111604819Y-107073809D02*
X111604819Y-107216666D01*
X110938152Y-106454761D02*
X111604819Y-106454761D01*
X111033390Y-106454761D02*
X110985771Y-106407142D01*
X110985771Y-106407142D02*
X110938152Y-106311904D01*
X110938152Y-106311904D02*
X110938152Y-106169047D01*
X110938152Y-106169047D02*
X110985771Y-106073809D01*
X110985771Y-106073809D02*
X111081009Y-106026190D01*
X111081009Y-106026190D02*
X111604819Y-106026190D01*
X110938152Y-105549999D02*
X111604819Y-105549999D01*
X111033390Y-105549999D02*
X110985771Y-105502380D01*
X110985771Y-105502380D02*
X110938152Y-105407142D01*
X110938152Y-105407142D02*
X110938152Y-105264285D01*
X110938152Y-105264285D02*
X110985771Y-105169047D01*
X110985771Y-105169047D02*
X111081009Y-105121428D01*
X111081009Y-105121428D02*
X111604819Y-105121428D01*
X111557200Y-104264285D02*
X111604819Y-104359523D01*
X111604819Y-104359523D02*
X111604819Y-104549999D01*
X111604819Y-104549999D02*
X111557200Y-104645237D01*
X111557200Y-104645237D02*
X111461961Y-104692856D01*
X111461961Y-104692856D02*
X111081009Y-104692856D01*
X111081009Y-104692856D02*
X110985771Y-104645237D01*
X110985771Y-104645237D02*
X110938152Y-104549999D01*
X110938152Y-104549999D02*
X110938152Y-104359523D01*
X110938152Y-104359523D02*
X110985771Y-104264285D01*
X110985771Y-104264285D02*
X111081009Y-104216666D01*
X111081009Y-104216666D02*
X111176247Y-104216666D01*
X111176247Y-104216666D02*
X111271485Y-104692856D01*
X111557200Y-103359523D02*
X111604819Y-103454761D01*
X111604819Y-103454761D02*
X111604819Y-103645237D01*
X111604819Y-103645237D02*
X111557200Y-103740475D01*
X111557200Y-103740475D02*
X111509580Y-103788094D01*
X111509580Y-103788094D02*
X111414342Y-103835713D01*
X111414342Y-103835713D02*
X111128628Y-103835713D01*
X111128628Y-103835713D02*
X111033390Y-103788094D01*
X111033390Y-103788094D02*
X110985771Y-103740475D01*
X110985771Y-103740475D02*
X110938152Y-103645237D01*
X110938152Y-103645237D02*
X110938152Y-103454761D01*
X110938152Y-103454761D02*
X110985771Y-103359523D01*
X110938152Y-103073808D02*
X110938152Y-102692856D01*
X110604819Y-102930951D02*
X111461961Y-102930951D01*
X111461961Y-102930951D02*
X111557200Y-102883332D01*
X111557200Y-102883332D02*
X111604819Y-102788094D01*
X111604819Y-102788094D02*
X111604819Y-102692856D01*
X111604819Y-102359522D02*
X110938152Y-102359522D01*
X110604819Y-102359522D02*
X110652438Y-102407141D01*
X110652438Y-102407141D02*
X110700057Y-102359522D01*
X110700057Y-102359522D02*
X110652438Y-102311903D01*
X110652438Y-102311903D02*
X110604819Y-102359522D01*
X110604819Y-102359522D02*
X110700057Y-102359522D01*
X111604819Y-101740475D02*
X111557200Y-101835713D01*
X111557200Y-101835713D02*
X111509580Y-101883332D01*
X111509580Y-101883332D02*
X111414342Y-101930951D01*
X111414342Y-101930951D02*
X111128628Y-101930951D01*
X111128628Y-101930951D02*
X111033390Y-101883332D01*
X111033390Y-101883332D02*
X110985771Y-101835713D01*
X110985771Y-101835713D02*
X110938152Y-101740475D01*
X110938152Y-101740475D02*
X110938152Y-101597618D01*
X110938152Y-101597618D02*
X110985771Y-101502380D01*
X110985771Y-101502380D02*
X111033390Y-101454761D01*
X111033390Y-101454761D02*
X111128628Y-101407142D01*
X111128628Y-101407142D02*
X111414342Y-101407142D01*
X111414342Y-101407142D02*
X111509580Y-101454761D01*
X111509580Y-101454761D02*
X111557200Y-101502380D01*
X111557200Y-101502380D02*
X111604819Y-101597618D01*
X111604819Y-101597618D02*
X111604819Y-101740475D01*
X110938152Y-100978570D02*
X111604819Y-100978570D01*
X111033390Y-100978570D02*
X110985771Y-100930951D01*
X110985771Y-100930951D02*
X110938152Y-100835713D01*
X110938152Y-100835713D02*
X110938152Y-100692856D01*
X110938152Y-100692856D02*
X110985771Y-100597618D01*
X110985771Y-100597618D02*
X111081009Y-100549999D01*
X111081009Y-100549999D02*
X111604819Y-100549999D01*
X153813142Y-87435619D02*
X153479809Y-86959428D01*
X153241714Y-87435619D02*
X153241714Y-86435619D01*
X153241714Y-86435619D02*
X153622666Y-86435619D01*
X153622666Y-86435619D02*
X153717904Y-86483238D01*
X153717904Y-86483238D02*
X153765523Y-86530857D01*
X153765523Y-86530857D02*
X153813142Y-86626095D01*
X153813142Y-86626095D02*
X153813142Y-86768952D01*
X153813142Y-86768952D02*
X153765523Y-86864190D01*
X153765523Y-86864190D02*
X153717904Y-86911809D01*
X153717904Y-86911809D02*
X153622666Y-86959428D01*
X153622666Y-86959428D02*
X153241714Y-86959428D01*
X154194095Y-86530857D02*
X154241714Y-86483238D01*
X154241714Y-86483238D02*
X154336952Y-86435619D01*
X154336952Y-86435619D02*
X154575047Y-86435619D01*
X154575047Y-86435619D02*
X154670285Y-86483238D01*
X154670285Y-86483238D02*
X154717904Y-86530857D01*
X154717904Y-86530857D02*
X154765523Y-86626095D01*
X154765523Y-86626095D02*
X154765523Y-86721333D01*
X154765523Y-86721333D02*
X154717904Y-86864190D01*
X154717904Y-86864190D02*
X154146476Y-87435619D01*
X154146476Y-87435619D02*
X154765523Y-87435619D01*
X155717904Y-87435619D02*
X155146476Y-87435619D01*
X155432190Y-87435619D02*
X155432190Y-86435619D01*
X155432190Y-86435619D02*
X155336952Y-86578476D01*
X155336952Y-86578476D02*
X155241714Y-86673714D01*
X155241714Y-86673714D02*
X155146476Y-86721333D01*
X130059580Y-102366666D02*
X130107200Y-102414285D01*
X130107200Y-102414285D02*
X130154819Y-102557142D01*
X130154819Y-102557142D02*
X130154819Y-102652380D01*
X130154819Y-102652380D02*
X130107200Y-102795237D01*
X130107200Y-102795237D02*
X130011961Y-102890475D01*
X130011961Y-102890475D02*
X129916723Y-102938094D01*
X129916723Y-102938094D02*
X129726247Y-102985713D01*
X129726247Y-102985713D02*
X129583390Y-102985713D01*
X129583390Y-102985713D02*
X129392914Y-102938094D01*
X129392914Y-102938094D02*
X129297676Y-102890475D01*
X129297676Y-102890475D02*
X129202438Y-102795237D01*
X129202438Y-102795237D02*
X129154819Y-102652380D01*
X129154819Y-102652380D02*
X129154819Y-102557142D01*
X129154819Y-102557142D02*
X129202438Y-102414285D01*
X129202438Y-102414285D02*
X129250057Y-102366666D01*
X130154819Y-101414285D02*
X130154819Y-101985713D01*
X130154819Y-101699999D02*
X129154819Y-101699999D01*
X129154819Y-101699999D02*
X129297676Y-101795237D01*
X129297676Y-101795237D02*
X129392914Y-101890475D01*
X129392914Y-101890475D02*
X129440533Y-101985713D01*
X145457142Y-104754819D02*
X145123809Y-104278628D01*
X144885714Y-104754819D02*
X144885714Y-103754819D01*
X144885714Y-103754819D02*
X145266666Y-103754819D01*
X145266666Y-103754819D02*
X145361904Y-103802438D01*
X145361904Y-103802438D02*
X145409523Y-103850057D01*
X145409523Y-103850057D02*
X145457142Y-103945295D01*
X145457142Y-103945295D02*
X145457142Y-104088152D01*
X145457142Y-104088152D02*
X145409523Y-104183390D01*
X145409523Y-104183390D02*
X145361904Y-104231009D01*
X145361904Y-104231009D02*
X145266666Y-104278628D01*
X145266666Y-104278628D02*
X144885714Y-104278628D01*
X145838095Y-103850057D02*
X145885714Y-103802438D01*
X145885714Y-103802438D02*
X145980952Y-103754819D01*
X145980952Y-103754819D02*
X146219047Y-103754819D01*
X146219047Y-103754819D02*
X146314285Y-103802438D01*
X146314285Y-103802438D02*
X146361904Y-103850057D01*
X146361904Y-103850057D02*
X146409523Y-103945295D01*
X146409523Y-103945295D02*
X146409523Y-104040533D01*
X146409523Y-104040533D02*
X146361904Y-104183390D01*
X146361904Y-104183390D02*
X145790476Y-104754819D01*
X145790476Y-104754819D02*
X146409523Y-104754819D01*
X146742857Y-103754819D02*
X147409523Y-103754819D01*
X147409523Y-103754819D02*
X146980952Y-104754819D01*
X119666667Y-86751200D02*
X119809524Y-86798819D01*
X119809524Y-86798819D02*
X120047619Y-86798819D01*
X120047619Y-86798819D02*
X120142857Y-86751200D01*
X120142857Y-86751200D02*
X120190476Y-86703580D01*
X120190476Y-86703580D02*
X120238095Y-86608342D01*
X120238095Y-86608342D02*
X120238095Y-86513104D01*
X120238095Y-86513104D02*
X120190476Y-86417866D01*
X120190476Y-86417866D02*
X120142857Y-86370247D01*
X120142857Y-86370247D02*
X120047619Y-86322628D01*
X120047619Y-86322628D02*
X119857143Y-86275009D01*
X119857143Y-86275009D02*
X119761905Y-86227390D01*
X119761905Y-86227390D02*
X119714286Y-86179771D01*
X119714286Y-86179771D02*
X119666667Y-86084533D01*
X119666667Y-86084533D02*
X119666667Y-85989295D01*
X119666667Y-85989295D02*
X119714286Y-85894057D01*
X119714286Y-85894057D02*
X119761905Y-85846438D01*
X119761905Y-85846438D02*
X119857143Y-85798819D01*
X119857143Y-85798819D02*
X120095238Y-85798819D01*
X120095238Y-85798819D02*
X120238095Y-85846438D01*
X120571429Y-85798819D02*
X120809524Y-86798819D01*
X120809524Y-86798819D02*
X121000000Y-86084533D01*
X121000000Y-86084533D02*
X121190476Y-86798819D01*
X121190476Y-86798819D02*
X121428572Y-85798819D01*
X122333333Y-86798819D02*
X121761905Y-86798819D01*
X122047619Y-86798819D02*
X122047619Y-85798819D01*
X122047619Y-85798819D02*
X121952381Y-85941676D01*
X121952381Y-85941676D02*
X121857143Y-86036914D01*
X121857143Y-86036914D02*
X121761905Y-86084533D01*
X126238904Y-90354819D02*
X125905571Y-89878628D01*
X125667476Y-90354819D02*
X125667476Y-89354819D01*
X125667476Y-89354819D02*
X126048428Y-89354819D01*
X126048428Y-89354819D02*
X126143666Y-89402438D01*
X126143666Y-89402438D02*
X126191285Y-89450057D01*
X126191285Y-89450057D02*
X126238904Y-89545295D01*
X126238904Y-89545295D02*
X126238904Y-89688152D01*
X126238904Y-89688152D02*
X126191285Y-89783390D01*
X126191285Y-89783390D02*
X126143666Y-89831009D01*
X126143666Y-89831009D02*
X126048428Y-89878628D01*
X126048428Y-89878628D02*
X125667476Y-89878628D01*
X127048428Y-90307200D02*
X126953190Y-90354819D01*
X126953190Y-90354819D02*
X126762714Y-90354819D01*
X126762714Y-90354819D02*
X126667476Y-90307200D01*
X126667476Y-90307200D02*
X126619857Y-90211961D01*
X126619857Y-90211961D02*
X126619857Y-89831009D01*
X126619857Y-89831009D02*
X126667476Y-89735771D01*
X126667476Y-89735771D02*
X126762714Y-89688152D01*
X126762714Y-89688152D02*
X126953190Y-89688152D01*
X126953190Y-89688152D02*
X127048428Y-89735771D01*
X127048428Y-89735771D02*
X127096047Y-89831009D01*
X127096047Y-89831009D02*
X127096047Y-89926247D01*
X127096047Y-89926247D02*
X126619857Y-90021485D01*
X127477000Y-90307200D02*
X127572238Y-90354819D01*
X127572238Y-90354819D02*
X127762714Y-90354819D01*
X127762714Y-90354819D02*
X127857952Y-90307200D01*
X127857952Y-90307200D02*
X127905571Y-90211961D01*
X127905571Y-90211961D02*
X127905571Y-90164342D01*
X127905571Y-90164342D02*
X127857952Y-90069104D01*
X127857952Y-90069104D02*
X127762714Y-90021485D01*
X127762714Y-90021485D02*
X127619857Y-90021485D01*
X127619857Y-90021485D02*
X127524619Y-89973866D01*
X127524619Y-89973866D02*
X127477000Y-89878628D01*
X127477000Y-89878628D02*
X127477000Y-89831009D01*
X127477000Y-89831009D02*
X127524619Y-89735771D01*
X127524619Y-89735771D02*
X127619857Y-89688152D01*
X127619857Y-89688152D02*
X127762714Y-89688152D01*
X127762714Y-89688152D02*
X127857952Y-89735771D01*
X128715095Y-90307200D02*
X128619857Y-90354819D01*
X128619857Y-90354819D02*
X128429381Y-90354819D01*
X128429381Y-90354819D02*
X128334143Y-90307200D01*
X128334143Y-90307200D02*
X128286524Y-90211961D01*
X128286524Y-90211961D02*
X128286524Y-89831009D01*
X128286524Y-89831009D02*
X128334143Y-89735771D01*
X128334143Y-89735771D02*
X128429381Y-89688152D01*
X128429381Y-89688152D02*
X128619857Y-89688152D01*
X128619857Y-89688152D02*
X128715095Y-89735771D01*
X128715095Y-89735771D02*
X128762714Y-89831009D01*
X128762714Y-89831009D02*
X128762714Y-89926247D01*
X128762714Y-89926247D02*
X128286524Y-90021485D01*
X129048429Y-89688152D02*
X129429381Y-89688152D01*
X129191286Y-89354819D02*
X129191286Y-90211961D01*
X129191286Y-90211961D02*
X129238905Y-90307200D01*
X129238905Y-90307200D02*
X129334143Y-90354819D01*
X129334143Y-90354819D02*
X129429381Y-90354819D01*
X134590419Y-124285333D02*
X135304704Y-124285333D01*
X135304704Y-124285333D02*
X135447561Y-124332952D01*
X135447561Y-124332952D02*
X135542800Y-124428190D01*
X135542800Y-124428190D02*
X135590419Y-124571047D01*
X135590419Y-124571047D02*
X135590419Y-124666285D01*
X134590419Y-123904380D02*
X134590419Y-123237714D01*
X134590419Y-123237714D02*
X135590419Y-123666285D01*
X137030619Y-113018866D02*
X136554428Y-113352199D01*
X137030619Y-113590294D02*
X136030619Y-113590294D01*
X136030619Y-113590294D02*
X136030619Y-113209342D01*
X136030619Y-113209342D02*
X136078238Y-113114104D01*
X136078238Y-113114104D02*
X136125857Y-113066485D01*
X136125857Y-113066485D02*
X136221095Y-113018866D01*
X136221095Y-113018866D02*
X136363952Y-113018866D01*
X136363952Y-113018866D02*
X136459190Y-113066485D01*
X136459190Y-113066485D02*
X136506809Y-113114104D01*
X136506809Y-113114104D02*
X136554428Y-113209342D01*
X136554428Y-113209342D02*
X136554428Y-113590294D01*
X137030619Y-112542675D02*
X137030619Y-112352199D01*
X137030619Y-112352199D02*
X136983000Y-112256961D01*
X136983000Y-112256961D02*
X136935380Y-112209342D01*
X136935380Y-112209342D02*
X136792523Y-112114104D01*
X136792523Y-112114104D02*
X136602047Y-112066485D01*
X136602047Y-112066485D02*
X136221095Y-112066485D01*
X136221095Y-112066485D02*
X136125857Y-112114104D01*
X136125857Y-112114104D02*
X136078238Y-112161723D01*
X136078238Y-112161723D02*
X136030619Y-112256961D01*
X136030619Y-112256961D02*
X136030619Y-112447437D01*
X136030619Y-112447437D02*
X136078238Y-112542675D01*
X136078238Y-112542675D02*
X136125857Y-112590294D01*
X136125857Y-112590294D02*
X136221095Y-112637913D01*
X136221095Y-112637913D02*
X136459190Y-112637913D01*
X136459190Y-112637913D02*
X136554428Y-112590294D01*
X136554428Y-112590294D02*
X136602047Y-112542675D01*
X136602047Y-112542675D02*
X136649666Y-112447437D01*
X136649666Y-112447437D02*
X136649666Y-112256961D01*
X136649666Y-112256961D02*
X136602047Y-112161723D01*
X136602047Y-112161723D02*
X136554428Y-112114104D01*
X136554428Y-112114104D02*
X136459190Y-112066485D01*
X158304819Y-113242857D02*
X157828628Y-113576190D01*
X158304819Y-113814285D02*
X157304819Y-113814285D01*
X157304819Y-113814285D02*
X157304819Y-113433333D01*
X157304819Y-113433333D02*
X157352438Y-113338095D01*
X157352438Y-113338095D02*
X157400057Y-113290476D01*
X157400057Y-113290476D02*
X157495295Y-113242857D01*
X157495295Y-113242857D02*
X157638152Y-113242857D01*
X157638152Y-113242857D02*
X157733390Y-113290476D01*
X157733390Y-113290476D02*
X157781009Y-113338095D01*
X157781009Y-113338095D02*
X157828628Y-113433333D01*
X157828628Y-113433333D02*
X157828628Y-113814285D01*
X158304819Y-112290476D02*
X158304819Y-112861904D01*
X158304819Y-112576190D02*
X157304819Y-112576190D01*
X157304819Y-112576190D02*
X157447676Y-112671428D01*
X157447676Y-112671428D02*
X157542914Y-112766666D01*
X157542914Y-112766666D02*
X157590533Y-112861904D01*
X157304819Y-111385714D02*
X157304819Y-111861904D01*
X157304819Y-111861904D02*
X157781009Y-111909523D01*
X157781009Y-111909523D02*
X157733390Y-111861904D01*
X157733390Y-111861904D02*
X157685771Y-111766666D01*
X157685771Y-111766666D02*
X157685771Y-111528571D01*
X157685771Y-111528571D02*
X157733390Y-111433333D01*
X157733390Y-111433333D02*
X157781009Y-111385714D01*
X157781009Y-111385714D02*
X157876247Y-111338095D01*
X157876247Y-111338095D02*
X158114342Y-111338095D01*
X158114342Y-111338095D02*
X158209580Y-111385714D01*
X158209580Y-111385714D02*
X158257200Y-111433333D01*
X158257200Y-111433333D02*
X158304819Y-111528571D01*
X158304819Y-111528571D02*
X158304819Y-111766666D01*
X158304819Y-111766666D02*
X158257200Y-111861904D01*
X158257200Y-111861904D02*
X158209580Y-111909523D01*
X156068733Y-92061219D02*
X155735400Y-91585028D01*
X155497305Y-92061219D02*
X155497305Y-91061219D01*
X155497305Y-91061219D02*
X155878257Y-91061219D01*
X155878257Y-91061219D02*
X155973495Y-91108838D01*
X155973495Y-91108838D02*
X156021114Y-91156457D01*
X156021114Y-91156457D02*
X156068733Y-91251695D01*
X156068733Y-91251695D02*
X156068733Y-91394552D01*
X156068733Y-91394552D02*
X156021114Y-91489790D01*
X156021114Y-91489790D02*
X155973495Y-91537409D01*
X155973495Y-91537409D02*
X155878257Y-91585028D01*
X155878257Y-91585028D02*
X155497305Y-91585028D01*
X156925876Y-91394552D02*
X156925876Y-92061219D01*
X156687781Y-91013600D02*
X156449686Y-91727885D01*
X156449686Y-91727885D02*
X157068733Y-91727885D01*
X156432819Y-90215857D02*
X155956628Y-90549190D01*
X156432819Y-90787285D02*
X155432819Y-90787285D01*
X155432819Y-90787285D02*
X155432819Y-90406333D01*
X155432819Y-90406333D02*
X155480438Y-90311095D01*
X155480438Y-90311095D02*
X155528057Y-90263476D01*
X155528057Y-90263476D02*
X155623295Y-90215857D01*
X155623295Y-90215857D02*
X155766152Y-90215857D01*
X155766152Y-90215857D02*
X155861390Y-90263476D01*
X155861390Y-90263476D02*
X155909009Y-90311095D01*
X155909009Y-90311095D02*
X155956628Y-90406333D01*
X155956628Y-90406333D02*
X155956628Y-90787285D01*
X155528057Y-89834904D02*
X155480438Y-89787285D01*
X155480438Y-89787285D02*
X155432819Y-89692047D01*
X155432819Y-89692047D02*
X155432819Y-89453952D01*
X155432819Y-89453952D02*
X155480438Y-89358714D01*
X155480438Y-89358714D02*
X155528057Y-89311095D01*
X155528057Y-89311095D02*
X155623295Y-89263476D01*
X155623295Y-89263476D02*
X155718533Y-89263476D01*
X155718533Y-89263476D02*
X155861390Y-89311095D01*
X155861390Y-89311095D02*
X156432819Y-89882523D01*
X156432819Y-89882523D02*
X156432819Y-89263476D01*
X155528057Y-88882523D02*
X155480438Y-88834904D01*
X155480438Y-88834904D02*
X155432819Y-88739666D01*
X155432819Y-88739666D02*
X155432819Y-88501571D01*
X155432819Y-88501571D02*
X155480438Y-88406333D01*
X155480438Y-88406333D02*
X155528057Y-88358714D01*
X155528057Y-88358714D02*
X155623295Y-88311095D01*
X155623295Y-88311095D02*
X155718533Y-88311095D01*
X155718533Y-88311095D02*
X155861390Y-88358714D01*
X155861390Y-88358714D02*
X156432819Y-88930142D01*
X156432819Y-88930142D02*
X156432819Y-88311095D01*
X143124819Y-106967857D02*
X142648628Y-107301190D01*
X143124819Y-107539285D02*
X142124819Y-107539285D01*
X142124819Y-107539285D02*
X142124819Y-107158333D01*
X142124819Y-107158333D02*
X142172438Y-107063095D01*
X142172438Y-107063095D02*
X142220057Y-107015476D01*
X142220057Y-107015476D02*
X142315295Y-106967857D01*
X142315295Y-106967857D02*
X142458152Y-106967857D01*
X142458152Y-106967857D02*
X142553390Y-107015476D01*
X142553390Y-107015476D02*
X142601009Y-107063095D01*
X142601009Y-107063095D02*
X142648628Y-107158333D01*
X142648628Y-107158333D02*
X142648628Y-107539285D01*
X142220057Y-106586904D02*
X142172438Y-106539285D01*
X142172438Y-106539285D02*
X142124819Y-106444047D01*
X142124819Y-106444047D02*
X142124819Y-106205952D01*
X142124819Y-106205952D02*
X142172438Y-106110714D01*
X142172438Y-106110714D02*
X142220057Y-106063095D01*
X142220057Y-106063095D02*
X142315295Y-106015476D01*
X142315295Y-106015476D02*
X142410533Y-106015476D01*
X142410533Y-106015476D02*
X142553390Y-106063095D01*
X142553390Y-106063095D02*
X143124819Y-106634523D01*
X143124819Y-106634523D02*
X143124819Y-106015476D01*
X142124819Y-105110714D02*
X142124819Y-105586904D01*
X142124819Y-105586904D02*
X142601009Y-105634523D01*
X142601009Y-105634523D02*
X142553390Y-105586904D01*
X142553390Y-105586904D02*
X142505771Y-105491666D01*
X142505771Y-105491666D02*
X142505771Y-105253571D01*
X142505771Y-105253571D02*
X142553390Y-105158333D01*
X142553390Y-105158333D02*
X142601009Y-105110714D01*
X142601009Y-105110714D02*
X142696247Y-105063095D01*
X142696247Y-105063095D02*
X142934342Y-105063095D01*
X142934342Y-105063095D02*
X143029580Y-105110714D01*
X143029580Y-105110714D02*
X143077200Y-105158333D01*
X143077200Y-105158333D02*
X143124819Y-105253571D01*
X143124819Y-105253571D02*
X143124819Y-105491666D01*
X143124819Y-105491666D02*
X143077200Y-105586904D01*
X143077200Y-105586904D02*
X143029580Y-105634523D01*
X175729819Y-113342857D02*
X175253628Y-113676190D01*
X175729819Y-113914285D02*
X174729819Y-113914285D01*
X174729819Y-113914285D02*
X174729819Y-113533333D01*
X174729819Y-113533333D02*
X174777438Y-113438095D01*
X174777438Y-113438095D02*
X174825057Y-113390476D01*
X174825057Y-113390476D02*
X174920295Y-113342857D01*
X174920295Y-113342857D02*
X175063152Y-113342857D01*
X175063152Y-113342857D02*
X175158390Y-113390476D01*
X175158390Y-113390476D02*
X175206009Y-113438095D01*
X175206009Y-113438095D02*
X175253628Y-113533333D01*
X175253628Y-113533333D02*
X175253628Y-113914285D01*
X174825057Y-112961904D02*
X174777438Y-112914285D01*
X174777438Y-112914285D02*
X174729819Y-112819047D01*
X174729819Y-112819047D02*
X174729819Y-112580952D01*
X174729819Y-112580952D02*
X174777438Y-112485714D01*
X174777438Y-112485714D02*
X174825057Y-112438095D01*
X174825057Y-112438095D02*
X174920295Y-112390476D01*
X174920295Y-112390476D02*
X175015533Y-112390476D01*
X175015533Y-112390476D02*
X175158390Y-112438095D01*
X175158390Y-112438095D02*
X175729819Y-113009523D01*
X175729819Y-113009523D02*
X175729819Y-112390476D01*
X174729819Y-111771428D02*
X174729819Y-111676190D01*
X174729819Y-111676190D02*
X174777438Y-111580952D01*
X174777438Y-111580952D02*
X174825057Y-111533333D01*
X174825057Y-111533333D02*
X174920295Y-111485714D01*
X174920295Y-111485714D02*
X175110771Y-111438095D01*
X175110771Y-111438095D02*
X175348866Y-111438095D01*
X175348866Y-111438095D02*
X175539342Y-111485714D01*
X175539342Y-111485714D02*
X175634580Y-111533333D01*
X175634580Y-111533333D02*
X175682200Y-111580952D01*
X175682200Y-111580952D02*
X175729819Y-111676190D01*
X175729819Y-111676190D02*
X175729819Y-111771428D01*
X175729819Y-111771428D02*
X175682200Y-111866666D01*
X175682200Y-111866666D02*
X175634580Y-111914285D01*
X175634580Y-111914285D02*
X175539342Y-111961904D01*
X175539342Y-111961904D02*
X175348866Y-112009523D01*
X175348866Y-112009523D02*
X175110771Y-112009523D01*
X175110771Y-112009523D02*
X174920295Y-111961904D01*
X174920295Y-111961904D02*
X174825057Y-111914285D01*
X174825057Y-111914285D02*
X174777438Y-111866666D01*
X174777438Y-111866666D02*
X174729819Y-111771428D01*
X150741142Y-96898619D02*
X150407809Y-96422428D01*
X150169714Y-96898619D02*
X150169714Y-95898619D01*
X150169714Y-95898619D02*
X150550666Y-95898619D01*
X150550666Y-95898619D02*
X150645904Y-95946238D01*
X150645904Y-95946238D02*
X150693523Y-95993857D01*
X150693523Y-95993857D02*
X150741142Y-96089095D01*
X150741142Y-96089095D02*
X150741142Y-96231952D01*
X150741142Y-96231952D02*
X150693523Y-96327190D01*
X150693523Y-96327190D02*
X150645904Y-96374809D01*
X150645904Y-96374809D02*
X150550666Y-96422428D01*
X150550666Y-96422428D02*
X150169714Y-96422428D01*
X151122095Y-95993857D02*
X151169714Y-95946238D01*
X151169714Y-95946238D02*
X151264952Y-95898619D01*
X151264952Y-95898619D02*
X151503047Y-95898619D01*
X151503047Y-95898619D02*
X151598285Y-95946238D01*
X151598285Y-95946238D02*
X151645904Y-95993857D01*
X151645904Y-95993857D02*
X151693523Y-96089095D01*
X151693523Y-96089095D02*
X151693523Y-96184333D01*
X151693523Y-96184333D02*
X151645904Y-96327190D01*
X151645904Y-96327190D02*
X151074476Y-96898619D01*
X151074476Y-96898619D02*
X151693523Y-96898619D01*
X152550666Y-96231952D02*
X152550666Y-96898619D01*
X152312571Y-95851000D02*
X152074476Y-96565285D01*
X152074476Y-96565285D02*
X152693523Y-96565285D01*
X124330619Y-112815666D02*
X123854428Y-113148999D01*
X124330619Y-113387094D02*
X123330619Y-113387094D01*
X123330619Y-113387094D02*
X123330619Y-113006142D01*
X123330619Y-113006142D02*
X123378238Y-112910904D01*
X123378238Y-112910904D02*
X123425857Y-112863285D01*
X123425857Y-112863285D02*
X123521095Y-112815666D01*
X123521095Y-112815666D02*
X123663952Y-112815666D01*
X123663952Y-112815666D02*
X123759190Y-112863285D01*
X123759190Y-112863285D02*
X123806809Y-112910904D01*
X123806809Y-112910904D02*
X123854428Y-113006142D01*
X123854428Y-113006142D02*
X123854428Y-113387094D01*
X123330619Y-111958523D02*
X123330619Y-112148999D01*
X123330619Y-112148999D02*
X123378238Y-112244237D01*
X123378238Y-112244237D02*
X123425857Y-112291856D01*
X123425857Y-112291856D02*
X123568714Y-112387094D01*
X123568714Y-112387094D02*
X123759190Y-112434713D01*
X123759190Y-112434713D02*
X124140142Y-112434713D01*
X124140142Y-112434713D02*
X124235380Y-112387094D01*
X124235380Y-112387094D02*
X124283000Y-112339475D01*
X124283000Y-112339475D02*
X124330619Y-112244237D01*
X124330619Y-112244237D02*
X124330619Y-112053761D01*
X124330619Y-112053761D02*
X124283000Y-111958523D01*
X124283000Y-111958523D02*
X124235380Y-111910904D01*
X124235380Y-111910904D02*
X124140142Y-111863285D01*
X124140142Y-111863285D02*
X123902047Y-111863285D01*
X123902047Y-111863285D02*
X123806809Y-111910904D01*
X123806809Y-111910904D02*
X123759190Y-111958523D01*
X123759190Y-111958523D02*
X123711571Y-112053761D01*
X123711571Y-112053761D02*
X123711571Y-112244237D01*
X123711571Y-112244237D02*
X123759190Y-112339475D01*
X123759190Y-112339475D02*
X123806809Y-112387094D01*
X123806809Y-112387094D02*
X123902047Y-112434713D01*
X160945419Y-108935733D02*
X161659704Y-108935733D01*
X161659704Y-108935733D02*
X161802561Y-108983352D01*
X161802561Y-108983352D02*
X161897800Y-109078590D01*
X161897800Y-109078590D02*
X161945419Y-109221447D01*
X161945419Y-109221447D02*
X161945419Y-109316685D01*
X161945419Y-108459542D02*
X160945419Y-108459542D01*
X160945419Y-108459542D02*
X160945419Y-108078590D01*
X160945419Y-108078590D02*
X160993038Y-107983352D01*
X160993038Y-107983352D02*
X161040657Y-107935733D01*
X161040657Y-107935733D02*
X161135895Y-107888114D01*
X161135895Y-107888114D02*
X161278752Y-107888114D01*
X161278752Y-107888114D02*
X161373990Y-107935733D01*
X161373990Y-107935733D02*
X161421609Y-107983352D01*
X161421609Y-107983352D02*
X161469228Y-108078590D01*
X161469228Y-108078590D02*
X161469228Y-108459542D01*
X161945419Y-106935733D02*
X161945419Y-107507161D01*
X161945419Y-107221447D02*
X160945419Y-107221447D01*
X160945419Y-107221447D02*
X161088276Y-107316685D01*
X161088276Y-107316685D02*
X161183514Y-107411923D01*
X161183514Y-107411923D02*
X161231133Y-107507161D01*
X153509523Y-109654819D02*
X153604761Y-109654819D01*
X153604761Y-109654819D02*
X153699999Y-109702438D01*
X153699999Y-109702438D02*
X153747618Y-109750057D01*
X153747618Y-109750057D02*
X153795237Y-109845295D01*
X153795237Y-109845295D02*
X153842856Y-110035771D01*
X153842856Y-110035771D02*
X153842856Y-110273866D01*
X153842856Y-110273866D02*
X153795237Y-110464342D01*
X153795237Y-110464342D02*
X153747618Y-110559580D01*
X153747618Y-110559580D02*
X153699999Y-110607200D01*
X153699999Y-110607200D02*
X153604761Y-110654819D01*
X153604761Y-110654819D02*
X153509523Y-110654819D01*
X153509523Y-110654819D02*
X153414285Y-110607200D01*
X153414285Y-110607200D02*
X153366666Y-110559580D01*
X153366666Y-110559580D02*
X153319047Y-110464342D01*
X153319047Y-110464342D02*
X153271428Y-110273866D01*
X153271428Y-110273866D02*
X153271428Y-110035771D01*
X153271428Y-110035771D02*
X153319047Y-109845295D01*
X153319047Y-109845295D02*
X153366666Y-109750057D01*
X153366666Y-109750057D02*
X153414285Y-109702438D01*
X153414285Y-109702438D02*
X153509523Y-109654819D01*
X155033333Y-110131009D02*
X155795238Y-110131009D01*
X155795238Y-110416723D02*
X155033333Y-110416723D01*
X156890476Y-109988152D02*
X157271428Y-109988152D01*
X157033333Y-110654819D02*
X157033333Y-109797676D01*
X157033333Y-109797676D02*
X157080952Y-109702438D01*
X157080952Y-109702438D02*
X157176190Y-109654819D01*
X157176190Y-109654819D02*
X157271428Y-109654819D01*
X157747619Y-110654819D02*
X157652381Y-110607200D01*
X157652381Y-110607200D02*
X157604762Y-110559580D01*
X157604762Y-110559580D02*
X157557143Y-110464342D01*
X157557143Y-110464342D02*
X157557143Y-110178628D01*
X157557143Y-110178628D02*
X157604762Y-110083390D01*
X157604762Y-110083390D02*
X157652381Y-110035771D01*
X157652381Y-110035771D02*
X157747619Y-109988152D01*
X157747619Y-109988152D02*
X157890476Y-109988152D01*
X157890476Y-109988152D02*
X157985714Y-110035771D01*
X157985714Y-110035771D02*
X158033333Y-110083390D01*
X158033333Y-110083390D02*
X158080952Y-110178628D01*
X158080952Y-110178628D02*
X158080952Y-110464342D01*
X158080952Y-110464342D02*
X158033333Y-110559580D01*
X158033333Y-110559580D02*
X157985714Y-110607200D01*
X157985714Y-110607200D02*
X157890476Y-110654819D01*
X157890476Y-110654819D02*
X157747619Y-110654819D01*
X158509524Y-110654819D02*
X158509524Y-109988152D01*
X158509524Y-110178628D02*
X158557143Y-110083390D01*
X158557143Y-110083390D02*
X158604762Y-110035771D01*
X158604762Y-110035771D02*
X158700000Y-109988152D01*
X158700000Y-109988152D02*
X158795238Y-109988152D01*
X159557143Y-110607200D02*
X159461905Y-110654819D01*
X159461905Y-110654819D02*
X159271429Y-110654819D01*
X159271429Y-110654819D02*
X159176191Y-110607200D01*
X159176191Y-110607200D02*
X159128572Y-110559580D01*
X159128572Y-110559580D02*
X159080953Y-110464342D01*
X159080953Y-110464342D02*
X159080953Y-110178628D01*
X159080953Y-110178628D02*
X159128572Y-110083390D01*
X159128572Y-110083390D02*
X159176191Y-110035771D01*
X159176191Y-110035771D02*
X159271429Y-109988152D01*
X159271429Y-109988152D02*
X159461905Y-109988152D01*
X159461905Y-109988152D02*
X159557143Y-110035771D01*
X160366667Y-110607200D02*
X160271429Y-110654819D01*
X160271429Y-110654819D02*
X160080953Y-110654819D01*
X160080953Y-110654819D02*
X159985715Y-110607200D01*
X159985715Y-110607200D02*
X159938096Y-110511961D01*
X159938096Y-110511961D02*
X159938096Y-110131009D01*
X159938096Y-110131009D02*
X159985715Y-110035771D01*
X159985715Y-110035771D02*
X160080953Y-109988152D01*
X160080953Y-109988152D02*
X160271429Y-109988152D01*
X160271429Y-109988152D02*
X160366667Y-110035771D01*
X160366667Y-110035771D02*
X160414286Y-110131009D01*
X160414286Y-110131009D02*
X160414286Y-110226247D01*
X160414286Y-110226247D02*
X159938096Y-110321485D01*
X161509525Y-109654819D02*
X161747620Y-110654819D01*
X161747620Y-110654819D02*
X161938096Y-109940533D01*
X161938096Y-109940533D02*
X162128572Y-110654819D01*
X162128572Y-110654819D02*
X162366668Y-109654819D01*
X162747620Y-110654819D02*
X162747620Y-109654819D01*
X163557143Y-110131009D02*
X163223810Y-110131009D01*
X163223810Y-110654819D02*
X163223810Y-109654819D01*
X163223810Y-109654819D02*
X163700000Y-109654819D01*
X164080953Y-110654819D02*
X164080953Y-109654819D01*
X165054819Y-121733333D02*
X165769104Y-121733333D01*
X165769104Y-121733333D02*
X165911961Y-121780952D01*
X165911961Y-121780952D02*
X166007200Y-121876190D01*
X166007200Y-121876190D02*
X166054819Y-122019047D01*
X166054819Y-122019047D02*
X166054819Y-122114285D01*
X165054819Y-120780952D02*
X165054819Y-121257142D01*
X165054819Y-121257142D02*
X165531009Y-121304761D01*
X165531009Y-121304761D02*
X165483390Y-121257142D01*
X165483390Y-121257142D02*
X165435771Y-121161904D01*
X165435771Y-121161904D02*
X165435771Y-120923809D01*
X165435771Y-120923809D02*
X165483390Y-120828571D01*
X165483390Y-120828571D02*
X165531009Y-120780952D01*
X165531009Y-120780952D02*
X165626247Y-120733333D01*
X165626247Y-120733333D02*
X165864342Y-120733333D01*
X165864342Y-120733333D02*
X165959580Y-120780952D01*
X165959580Y-120780952D02*
X166007200Y-120828571D01*
X166007200Y-120828571D02*
X166054819Y-120923809D01*
X166054819Y-120923809D02*
X166054819Y-121161904D01*
X166054819Y-121161904D02*
X166007200Y-121257142D01*
X166007200Y-121257142D02*
X165959580Y-121304761D01*
X155570419Y-104168304D02*
X156379942Y-104168304D01*
X156379942Y-104168304D02*
X156475180Y-104120685D01*
X156475180Y-104120685D02*
X156522800Y-104073066D01*
X156522800Y-104073066D02*
X156570419Y-103977828D01*
X156570419Y-103977828D02*
X156570419Y-103787352D01*
X156570419Y-103787352D02*
X156522800Y-103692114D01*
X156522800Y-103692114D02*
X156475180Y-103644495D01*
X156475180Y-103644495D02*
X156379942Y-103596876D01*
X156379942Y-103596876D02*
X155570419Y-103596876D01*
X156570419Y-102596876D02*
X156570419Y-103168304D01*
X156570419Y-102882590D02*
X155570419Y-102882590D01*
X155570419Y-102882590D02*
X155713276Y-102977828D01*
X155713276Y-102977828D02*
X155808514Y-103073066D01*
X155808514Y-103073066D02*
X155856133Y-103168304D01*
X139596019Y-112987057D02*
X139119828Y-113320390D01*
X139596019Y-113558485D02*
X138596019Y-113558485D01*
X138596019Y-113558485D02*
X138596019Y-113177533D01*
X138596019Y-113177533D02*
X138643638Y-113082295D01*
X138643638Y-113082295D02*
X138691257Y-113034676D01*
X138691257Y-113034676D02*
X138786495Y-112987057D01*
X138786495Y-112987057D02*
X138929352Y-112987057D01*
X138929352Y-112987057D02*
X139024590Y-113034676D01*
X139024590Y-113034676D02*
X139072209Y-113082295D01*
X139072209Y-113082295D02*
X139119828Y-113177533D01*
X139119828Y-113177533D02*
X139119828Y-113558485D01*
X139596019Y-112034676D02*
X139596019Y-112606104D01*
X139596019Y-112320390D02*
X138596019Y-112320390D01*
X138596019Y-112320390D02*
X138738876Y-112415628D01*
X138738876Y-112415628D02*
X138834114Y-112510866D01*
X138834114Y-112510866D02*
X138881733Y-112606104D01*
X138596019Y-111415628D02*
X138596019Y-111320390D01*
X138596019Y-111320390D02*
X138643638Y-111225152D01*
X138643638Y-111225152D02*
X138691257Y-111177533D01*
X138691257Y-111177533D02*
X138786495Y-111129914D01*
X138786495Y-111129914D02*
X138976971Y-111082295D01*
X138976971Y-111082295D02*
X139215066Y-111082295D01*
X139215066Y-111082295D02*
X139405542Y-111129914D01*
X139405542Y-111129914D02*
X139500780Y-111177533D01*
X139500780Y-111177533D02*
X139548400Y-111225152D01*
X139548400Y-111225152D02*
X139596019Y-111320390D01*
X139596019Y-111320390D02*
X139596019Y-111415628D01*
X139596019Y-111415628D02*
X139548400Y-111510866D01*
X139548400Y-111510866D02*
X139500780Y-111558485D01*
X139500780Y-111558485D02*
X139405542Y-111606104D01*
X139405542Y-111606104D02*
X139215066Y-111653723D01*
X139215066Y-111653723D02*
X138976971Y-111653723D01*
X138976971Y-111653723D02*
X138786495Y-111606104D01*
X138786495Y-111606104D02*
X138691257Y-111558485D01*
X138691257Y-111558485D02*
X138643638Y-111510866D01*
X138643638Y-111510866D02*
X138596019Y-111415628D01*
X154157142Y-94154819D02*
X153823809Y-93678628D01*
X153585714Y-94154819D02*
X153585714Y-93154819D01*
X153585714Y-93154819D02*
X153966666Y-93154819D01*
X153966666Y-93154819D02*
X154061904Y-93202438D01*
X154061904Y-93202438D02*
X154109523Y-93250057D01*
X154109523Y-93250057D02*
X154157142Y-93345295D01*
X154157142Y-93345295D02*
X154157142Y-93488152D01*
X154157142Y-93488152D02*
X154109523Y-93583390D01*
X154109523Y-93583390D02*
X154061904Y-93631009D01*
X154061904Y-93631009D02*
X153966666Y-93678628D01*
X153966666Y-93678628D02*
X153585714Y-93678628D01*
X154538095Y-93250057D02*
X154585714Y-93202438D01*
X154585714Y-93202438D02*
X154680952Y-93154819D01*
X154680952Y-93154819D02*
X154919047Y-93154819D01*
X154919047Y-93154819D02*
X155014285Y-93202438D01*
X155014285Y-93202438D02*
X155061904Y-93250057D01*
X155061904Y-93250057D02*
X155109523Y-93345295D01*
X155109523Y-93345295D02*
X155109523Y-93440533D01*
X155109523Y-93440533D02*
X155061904Y-93583390D01*
X155061904Y-93583390D02*
X154490476Y-94154819D01*
X154490476Y-94154819D02*
X155109523Y-94154819D01*
X155442857Y-93154819D02*
X156061904Y-93154819D01*
X156061904Y-93154819D02*
X155728571Y-93535771D01*
X155728571Y-93535771D02*
X155871428Y-93535771D01*
X155871428Y-93535771D02*
X155966666Y-93583390D01*
X155966666Y-93583390D02*
X156014285Y-93631009D01*
X156014285Y-93631009D02*
X156061904Y-93726247D01*
X156061904Y-93726247D02*
X156061904Y-93964342D01*
X156061904Y-93964342D02*
X156014285Y-94059580D01*
X156014285Y-94059580D02*
X155966666Y-94107200D01*
X155966666Y-94107200D02*
X155871428Y-94154819D01*
X155871428Y-94154819D02*
X155585714Y-94154819D01*
X155585714Y-94154819D02*
X155490476Y-94107200D01*
X155490476Y-94107200D02*
X155442857Y-94059580D01*
X114159580Y-102553866D02*
X114207200Y-102601485D01*
X114207200Y-102601485D02*
X114254819Y-102744342D01*
X114254819Y-102744342D02*
X114254819Y-102839580D01*
X114254819Y-102839580D02*
X114207200Y-102982437D01*
X114207200Y-102982437D02*
X114111961Y-103077675D01*
X114111961Y-103077675D02*
X114016723Y-103125294D01*
X114016723Y-103125294D02*
X113826247Y-103172913D01*
X113826247Y-103172913D02*
X113683390Y-103172913D01*
X113683390Y-103172913D02*
X113492914Y-103125294D01*
X113492914Y-103125294D02*
X113397676Y-103077675D01*
X113397676Y-103077675D02*
X113302438Y-102982437D01*
X113302438Y-102982437D02*
X113254819Y-102839580D01*
X113254819Y-102839580D02*
X113254819Y-102744342D01*
X113254819Y-102744342D02*
X113302438Y-102601485D01*
X113302438Y-102601485D02*
X113350057Y-102553866D01*
X113254819Y-101696723D02*
X113254819Y-101887199D01*
X113254819Y-101887199D02*
X113302438Y-101982437D01*
X113302438Y-101982437D02*
X113350057Y-102030056D01*
X113350057Y-102030056D02*
X113492914Y-102125294D01*
X113492914Y-102125294D02*
X113683390Y-102172913D01*
X113683390Y-102172913D02*
X114064342Y-102172913D01*
X114064342Y-102172913D02*
X114159580Y-102125294D01*
X114159580Y-102125294D02*
X114207200Y-102077675D01*
X114207200Y-102077675D02*
X114254819Y-101982437D01*
X114254819Y-101982437D02*
X114254819Y-101791961D01*
X114254819Y-101791961D02*
X114207200Y-101696723D01*
X114207200Y-101696723D02*
X114159580Y-101649104D01*
X114159580Y-101649104D02*
X114064342Y-101601485D01*
X114064342Y-101601485D02*
X113826247Y-101601485D01*
X113826247Y-101601485D02*
X113731009Y-101649104D01*
X113731009Y-101649104D02*
X113683390Y-101696723D01*
X113683390Y-101696723D02*
X113635771Y-101791961D01*
X113635771Y-101791961D02*
X113635771Y-101982437D01*
X113635771Y-101982437D02*
X113683390Y-102077675D01*
X113683390Y-102077675D02*
X113731009Y-102125294D01*
X113731009Y-102125294D02*
X113826247Y-102172913D01*
X149830419Y-121533333D02*
X150544704Y-121533333D01*
X150544704Y-121533333D02*
X150687561Y-121580952D01*
X150687561Y-121580952D02*
X150782800Y-121676190D01*
X150782800Y-121676190D02*
X150830419Y-121819047D01*
X150830419Y-121819047D02*
X150830419Y-121914285D01*
X150163752Y-120628571D02*
X150830419Y-120628571D01*
X149782800Y-120866666D02*
X150497085Y-121104761D01*
X150497085Y-121104761D02*
X150497085Y-120485714D01*
X142186819Y-112987057D02*
X141710628Y-113320390D01*
X142186819Y-113558485D02*
X141186819Y-113558485D01*
X141186819Y-113558485D02*
X141186819Y-113177533D01*
X141186819Y-113177533D02*
X141234438Y-113082295D01*
X141234438Y-113082295D02*
X141282057Y-113034676D01*
X141282057Y-113034676D02*
X141377295Y-112987057D01*
X141377295Y-112987057D02*
X141520152Y-112987057D01*
X141520152Y-112987057D02*
X141615390Y-113034676D01*
X141615390Y-113034676D02*
X141663009Y-113082295D01*
X141663009Y-113082295D02*
X141710628Y-113177533D01*
X141710628Y-113177533D02*
X141710628Y-113558485D01*
X142186819Y-112034676D02*
X142186819Y-112606104D01*
X142186819Y-112320390D02*
X141186819Y-112320390D01*
X141186819Y-112320390D02*
X141329676Y-112415628D01*
X141329676Y-112415628D02*
X141424914Y-112510866D01*
X141424914Y-112510866D02*
X141472533Y-112606104D01*
X142186819Y-111082295D02*
X142186819Y-111653723D01*
X142186819Y-111368009D02*
X141186819Y-111368009D01*
X141186819Y-111368009D02*
X141329676Y-111463247D01*
X141329676Y-111463247D02*
X141424914Y-111558485D01*
X141424914Y-111558485D02*
X141472533Y-111653723D01*
X126921419Y-112790266D02*
X126445228Y-113123599D01*
X126921419Y-113361694D02*
X125921419Y-113361694D01*
X125921419Y-113361694D02*
X125921419Y-112980742D01*
X125921419Y-112980742D02*
X125969038Y-112885504D01*
X125969038Y-112885504D02*
X126016657Y-112837885D01*
X126016657Y-112837885D02*
X126111895Y-112790266D01*
X126111895Y-112790266D02*
X126254752Y-112790266D01*
X126254752Y-112790266D02*
X126349990Y-112837885D01*
X126349990Y-112837885D02*
X126397609Y-112885504D01*
X126397609Y-112885504D02*
X126445228Y-112980742D01*
X126445228Y-112980742D02*
X126445228Y-113361694D01*
X125921419Y-112456932D02*
X125921419Y-111790266D01*
X125921419Y-111790266D02*
X126921419Y-112218837D01*
X142366666Y-92654819D02*
X142366666Y-93369104D01*
X142366666Y-93369104D02*
X142319047Y-93511961D01*
X142319047Y-93511961D02*
X142223809Y-93607200D01*
X142223809Y-93607200D02*
X142080952Y-93654819D01*
X142080952Y-93654819D02*
X141985714Y-93654819D01*
X142842857Y-93654819D02*
X142842857Y-92654819D01*
X142842857Y-92654819D02*
X143223809Y-92654819D01*
X143223809Y-92654819D02*
X143319047Y-92702438D01*
X143319047Y-92702438D02*
X143366666Y-92750057D01*
X143366666Y-92750057D02*
X143414285Y-92845295D01*
X143414285Y-92845295D02*
X143414285Y-92988152D01*
X143414285Y-92988152D02*
X143366666Y-93083390D01*
X143366666Y-93083390D02*
X143319047Y-93131009D01*
X143319047Y-93131009D02*
X143223809Y-93178628D01*
X143223809Y-93178628D02*
X142842857Y-93178628D01*
X143795238Y-92750057D02*
X143842857Y-92702438D01*
X143842857Y-92702438D02*
X143938095Y-92654819D01*
X143938095Y-92654819D02*
X144176190Y-92654819D01*
X144176190Y-92654819D02*
X144271428Y-92702438D01*
X144271428Y-92702438D02*
X144319047Y-92750057D01*
X144319047Y-92750057D02*
X144366666Y-92845295D01*
X144366666Y-92845295D02*
X144366666Y-92940533D01*
X144366666Y-92940533D02*
X144319047Y-93083390D01*
X144319047Y-93083390D02*
X143747619Y-93654819D01*
X143747619Y-93654819D02*
X144366666Y-93654819D01*
X132014285Y-95731009D02*
X132157142Y-95778628D01*
X132157142Y-95778628D02*
X132204761Y-95826247D01*
X132204761Y-95826247D02*
X132252380Y-95921485D01*
X132252380Y-95921485D02*
X132252380Y-96064342D01*
X132252380Y-96064342D02*
X132204761Y-96159580D01*
X132204761Y-96159580D02*
X132157142Y-96207200D01*
X132157142Y-96207200D02*
X132061904Y-96254819D01*
X132061904Y-96254819D02*
X131680952Y-96254819D01*
X131680952Y-96254819D02*
X131680952Y-95254819D01*
X131680952Y-95254819D02*
X132014285Y-95254819D01*
X132014285Y-95254819D02*
X132109523Y-95302438D01*
X132109523Y-95302438D02*
X132157142Y-95350057D01*
X132157142Y-95350057D02*
X132204761Y-95445295D01*
X132204761Y-95445295D02*
X132204761Y-95540533D01*
X132204761Y-95540533D02*
X132157142Y-95635771D01*
X132157142Y-95635771D02*
X132109523Y-95683390D01*
X132109523Y-95683390D02*
X132014285Y-95731009D01*
X132014285Y-95731009D02*
X131680952Y-95731009D01*
X133109523Y-96254819D02*
X133109523Y-95731009D01*
X133109523Y-95731009D02*
X133061904Y-95635771D01*
X133061904Y-95635771D02*
X132966666Y-95588152D01*
X132966666Y-95588152D02*
X132776190Y-95588152D01*
X132776190Y-95588152D02*
X132680952Y-95635771D01*
X133109523Y-96207200D02*
X133014285Y-96254819D01*
X133014285Y-96254819D02*
X132776190Y-96254819D01*
X132776190Y-96254819D02*
X132680952Y-96207200D01*
X132680952Y-96207200D02*
X132633333Y-96111961D01*
X132633333Y-96111961D02*
X132633333Y-96016723D01*
X132633333Y-96016723D02*
X132680952Y-95921485D01*
X132680952Y-95921485D02*
X132776190Y-95873866D01*
X132776190Y-95873866D02*
X133014285Y-95873866D01*
X133014285Y-95873866D02*
X133109523Y-95826247D01*
X133538095Y-96207200D02*
X133633333Y-96254819D01*
X133633333Y-96254819D02*
X133823809Y-96254819D01*
X133823809Y-96254819D02*
X133919047Y-96207200D01*
X133919047Y-96207200D02*
X133966666Y-96111961D01*
X133966666Y-96111961D02*
X133966666Y-96064342D01*
X133966666Y-96064342D02*
X133919047Y-95969104D01*
X133919047Y-95969104D02*
X133823809Y-95921485D01*
X133823809Y-95921485D02*
X133680952Y-95921485D01*
X133680952Y-95921485D02*
X133585714Y-95873866D01*
X133585714Y-95873866D02*
X133538095Y-95778628D01*
X133538095Y-95778628D02*
X133538095Y-95731009D01*
X133538095Y-95731009D02*
X133585714Y-95635771D01*
X133585714Y-95635771D02*
X133680952Y-95588152D01*
X133680952Y-95588152D02*
X133823809Y-95588152D01*
X133823809Y-95588152D02*
X133919047Y-95635771D01*
X135585714Y-96207200D02*
X135490476Y-96254819D01*
X135490476Y-96254819D02*
X135300000Y-96254819D01*
X135300000Y-96254819D02*
X135204762Y-96207200D01*
X135204762Y-96207200D02*
X135157143Y-96159580D01*
X135157143Y-96159580D02*
X135109524Y-96064342D01*
X135109524Y-96064342D02*
X135109524Y-95778628D01*
X135109524Y-95778628D02*
X135157143Y-95683390D01*
X135157143Y-95683390D02*
X135204762Y-95635771D01*
X135204762Y-95635771D02*
X135300000Y-95588152D01*
X135300000Y-95588152D02*
X135490476Y-95588152D01*
X135490476Y-95588152D02*
X135585714Y-95635771D01*
X136157143Y-96254819D02*
X136061905Y-96207200D01*
X136061905Y-96207200D02*
X136014286Y-96159580D01*
X136014286Y-96159580D02*
X135966667Y-96064342D01*
X135966667Y-96064342D02*
X135966667Y-95778628D01*
X135966667Y-95778628D02*
X136014286Y-95683390D01*
X136014286Y-95683390D02*
X136061905Y-95635771D01*
X136061905Y-95635771D02*
X136157143Y-95588152D01*
X136157143Y-95588152D02*
X136300000Y-95588152D01*
X136300000Y-95588152D02*
X136395238Y-95635771D01*
X136395238Y-95635771D02*
X136442857Y-95683390D01*
X136442857Y-95683390D02*
X136490476Y-95778628D01*
X136490476Y-95778628D02*
X136490476Y-96064342D01*
X136490476Y-96064342D02*
X136442857Y-96159580D01*
X136442857Y-96159580D02*
X136395238Y-96207200D01*
X136395238Y-96207200D02*
X136300000Y-96254819D01*
X136300000Y-96254819D02*
X136157143Y-96254819D01*
X136919048Y-95588152D02*
X136919048Y-96254819D01*
X136919048Y-95683390D02*
X136966667Y-95635771D01*
X136966667Y-95635771D02*
X137061905Y-95588152D01*
X137061905Y-95588152D02*
X137204762Y-95588152D01*
X137204762Y-95588152D02*
X137300000Y-95635771D01*
X137300000Y-95635771D02*
X137347619Y-95731009D01*
X137347619Y-95731009D02*
X137347619Y-96254819D01*
X137680953Y-95588152D02*
X138061905Y-95588152D01*
X137823810Y-96254819D02*
X137823810Y-95397676D01*
X137823810Y-95397676D02*
X137871429Y-95302438D01*
X137871429Y-95302438D02*
X137966667Y-95254819D01*
X137966667Y-95254819D02*
X138061905Y-95254819D01*
D12*
G04 #@! TO.C,D1*
X164530600Y-108390400D02*
X164530600Y-108546400D01*
X164530600Y-110706400D02*
X164530600Y-110862400D01*
X164530600Y-108390884D02*
G75*
G02*
X167762037Y-108546400I1560000J-1235516D01*
G01*
X165049639Y-108546400D02*
G75*
G02*
X167131561Y-108546400I1040961J-1080000D01*
G01*
X167131561Y-110706400D02*
G75*
G02*
X165049639Y-110706400I-1040961J1080000D01*
G01*
X167762037Y-110706400D02*
G75*
G02*
X164530600Y-110861916I-1671437J1080000D01*
G01*
G04 #@! TO.C,R3*
X171918100Y-107298258D02*
X171918100Y-106823742D01*
X172963100Y-107298258D02*
X172963100Y-106823742D01*
G04 #@! TO.C,J2*
X120895600Y-117492000D02*
X131275600Y-117492000D01*
X120895600Y-120142000D02*
X120895600Y-117492000D01*
X120895600Y-122792000D02*
X120895600Y-121412000D01*
X122275600Y-122792000D02*
X120895600Y-122792000D01*
X123545600Y-120142000D02*
X120895600Y-120142000D01*
X123545600Y-122792000D02*
X123545600Y-120142000D01*
X123545600Y-122792000D02*
X131275600Y-122792000D01*
X131275600Y-122792000D02*
X131275600Y-117492000D01*
G04 #@! TO.C,C4*
X118571600Y-95808852D02*
X118571600Y-94386348D01*
X120391600Y-95808852D02*
X120391600Y-94386348D01*
G04 #@! TO.C,R5*
X121753100Y-115076742D02*
X121753100Y-115551258D01*
X122798100Y-115076742D02*
X122798100Y-115551258D01*
G04 #@! TO.C,R17*
X167473100Y-115076742D02*
X167473100Y-115551258D01*
X168518100Y-115076742D02*
X168518100Y-115551258D01*
G04 #@! TO.C,C3*
X134606420Y-92327000D02*
X134887580Y-92327000D01*
X134606420Y-93347000D02*
X134887580Y-93347000D01*
G04 #@! TO.C,D2*
X121264400Y-97550000D02*
X115754400Y-97550000D01*
X121264400Y-100850000D02*
X115754400Y-100850000D01*
X121264400Y-100850000D02*
X121264400Y-97550000D01*
G04 #@! TO.C,R1*
X145537258Y-95077500D02*
X145062742Y-95077500D01*
X145537258Y-96122500D02*
X145062742Y-96122500D01*
G04 #@! TO.C,J9*
X166615600Y-125332000D02*
X166615600Y-123952000D01*
X167995600Y-125332000D02*
X166615600Y-125332000D01*
X169265600Y-122572000D02*
X176995600Y-122572000D01*
X169265600Y-125332000D02*
X169265600Y-122572000D01*
X169265600Y-125332000D02*
X176995600Y-125332000D01*
X176995600Y-125332000D02*
X176995600Y-122572000D01*
G04 #@! TO.C,J6*
X120895600Y-125332000D02*
X120895600Y-123952000D01*
X122275600Y-125332000D02*
X120895600Y-125332000D01*
X123545600Y-122572000D02*
X131275600Y-122572000D01*
X123545600Y-125332000D02*
X123545600Y-122572000D01*
X123545600Y-125332000D02*
X131275600Y-125332000D01*
X131275600Y-125332000D02*
X131275600Y-122572000D01*
G04 #@! TO.C,U2*
X125225800Y-93465600D02*
X128985800Y-93465600D01*
X125225800Y-100285600D02*
X128985800Y-100285600D01*
X128985800Y-93465600D02*
X128985800Y-94725600D01*
X128985800Y-100285600D02*
X128985800Y-99025600D01*
X123945800Y-93565600D02*
X123705800Y-93235600D01*
X124185800Y-93235600D01*
X123945800Y-93565600D01*
G36*
X123945800Y-93565600D02*
G01*
X123705800Y-93235600D01*
X124185800Y-93235600D01*
X123945800Y-93565600D01*
G37*
G04 #@! TO.C,J8*
X151375600Y-125332000D02*
X151375600Y-123952000D01*
X152755600Y-125332000D02*
X151375600Y-125332000D01*
X154025600Y-122572000D02*
X161755600Y-122572000D01*
X154025600Y-125332000D02*
X154025600Y-122572000D01*
X154025600Y-125332000D02*
X161755600Y-125332000D01*
X161755600Y-125332000D02*
X161755600Y-122572000D01*
G04 #@! TO.C,C2*
X134606420Y-93825600D02*
X134887580Y-93825600D01*
X134606420Y-94845600D02*
X134887580Y-94845600D01*
G04 #@! TO.C,JP3*
X137913600Y-99195400D02*
X137913600Y-97815400D01*
X139293600Y-99195400D02*
X137913600Y-99195400D01*
X140563600Y-96435400D02*
X143213600Y-96435400D01*
X140563600Y-99195400D02*
X140563600Y-96435400D01*
X140563600Y-99195400D02*
X143213600Y-99195400D01*
X143213600Y-99195400D02*
X143213600Y-96435400D01*
G04 #@! TO.C,R26*
X146587742Y-106777500D02*
X147062258Y-106777500D01*
X146587742Y-107822500D02*
X147062258Y-107822500D01*
G04 #@! TO.C,R18*
X170013100Y-115076742D02*
X170013100Y-115551258D01*
X171058100Y-115076742D02*
X171058100Y-115551258D01*
G04 #@! TO.C,R14*
X154773100Y-115076742D02*
X154773100Y-115551258D01*
X155818100Y-115076742D02*
X155818100Y-115551258D01*
G04 #@! TO.C,C7*
X114704400Y-106566580D02*
X114704400Y-106285420D01*
X115724400Y-106566580D02*
X115724400Y-106285420D01*
G04 #@! TO.C,SW2*
X137895600Y-90981400D02*
X137895600Y-88901400D01*
X139165600Y-87221400D02*
X138675600Y-87711400D01*
X139165600Y-87221400D02*
X142065600Y-87221400D01*
X139165600Y-92661400D02*
X138675600Y-92171400D01*
X139165600Y-92661400D02*
X142065600Y-92661400D01*
X142065600Y-87221400D02*
X142555600Y-87711400D01*
X142065600Y-92661400D02*
X142555600Y-92171400D01*
X143335600Y-90981400D02*
X143335600Y-88901400D01*
G04 #@! TO.C,R13*
X152233100Y-115076742D02*
X152233100Y-115551258D01*
X153278100Y-115076742D02*
X153278100Y-115551258D01*
G04 #@! TO.C,R8*
X129373100Y-115076742D02*
X129373100Y-115551258D01*
X130418100Y-115076742D02*
X130418100Y-115551258D01*
G04 #@! TO.C,R19*
X172553100Y-115080742D02*
X172553100Y-115555258D01*
X173598100Y-115080742D02*
X173598100Y-115555258D01*
G04 #@! TO.C,C5*
X115574400Y-95783452D02*
X115574400Y-94360948D01*
X117394400Y-95783452D02*
X117394400Y-94360948D01*
G04 #@! TO.C,R2*
X153940742Y-92177500D02*
X154415258Y-92177500D01*
X153940742Y-93222500D02*
X154415258Y-93222500D01*
G04 #@! TO.C,J10*
X147565600Y-87291400D02*
X148945600Y-87291400D01*
X147565600Y-88671400D02*
X147565600Y-87291400D01*
X147565600Y-89941400D02*
X147565600Y-95131400D01*
X147565600Y-89941400D02*
X150325600Y-89941400D01*
X147565600Y-95131400D02*
X150325600Y-95131400D01*
X150325600Y-89941400D02*
X150325600Y-95131400D01*
G04 #@! TO.C,J3*
X136135600Y-117492000D02*
X146515600Y-117492000D01*
X136135600Y-120142000D02*
X136135600Y-117492000D01*
X136135600Y-122792000D02*
X136135600Y-121412000D01*
X137515600Y-122792000D02*
X136135600Y-122792000D01*
X138785600Y-120142000D02*
X136135600Y-120142000D01*
X138785600Y-122792000D02*
X138785600Y-120142000D01*
X138785600Y-122792000D02*
X146515600Y-122792000D01*
X146515600Y-122792000D02*
X146515600Y-117492000D01*
G04 #@! TO.C,R12*
X144613100Y-115076742D02*
X144613100Y-115551258D01*
X145658100Y-115076742D02*
X145658100Y-115551258D01*
G04 #@! TO.C,R16*
X159853100Y-115080742D02*
X159853100Y-115555258D01*
X160898100Y-115080742D02*
X160898100Y-115555258D01*
G04 #@! TO.C,J11*
X115162600Y-102753400D02*
X116162600Y-103253400D01*
X115162600Y-103753400D02*
X115162600Y-102753400D01*
X116162600Y-103253400D02*
X115162600Y-103753400D01*
X116552600Y-101453400D02*
X116552600Y-107213400D01*
X116552600Y-112973400D02*
X116552600Y-107213400D01*
X123172600Y-101453400D02*
X116552600Y-101453400D01*
X123172600Y-107213400D02*
X123172600Y-101453400D01*
X123172600Y-107213400D02*
X123172600Y-112973400D01*
X123172600Y-112973400D02*
X116552600Y-112973400D01*
G04 #@! TO.C,R21*
X154437258Y-87677500D02*
X153962742Y-87677500D01*
X154437258Y-88722500D02*
X153962742Y-88722500D01*
G04 #@! TO.C,C1*
X129930400Y-105677400D02*
X138090400Y-105677400D01*
X129930400Y-105717400D02*
X138090400Y-105717400D01*
X129931400Y-105637400D02*
X138089400Y-105637400D01*
X129932400Y-105597400D02*
X138088400Y-105597400D01*
X129933400Y-105557400D02*
X138087400Y-105557400D01*
X129935400Y-105517400D02*
X138085400Y-105517400D01*
X129937400Y-105477400D02*
X138083400Y-105477400D01*
X129940400Y-105437400D02*
X138080400Y-105437400D01*
X129942400Y-105397400D02*
X138078400Y-105397400D01*
X129946400Y-105357400D02*
X138074400Y-105357400D01*
X129949400Y-105317400D02*
X138071400Y-105317400D01*
X129954400Y-105277400D02*
X138066400Y-105277400D01*
X129958400Y-105237400D02*
X138062400Y-105237400D01*
X129963400Y-105197400D02*
X138057400Y-105197400D01*
X129968400Y-105157400D02*
X138052400Y-105157400D01*
X129974400Y-105117400D02*
X138046400Y-105117400D01*
X129980400Y-105077400D02*
X138040400Y-105077400D01*
X129987400Y-105037400D02*
X138033400Y-105037400D01*
X129993400Y-104997400D02*
X132970400Y-104997400D01*
X130001400Y-104957400D02*
X132970400Y-104957400D01*
X130008400Y-104917400D02*
X132970400Y-104917400D01*
X130017400Y-104877400D02*
X132970400Y-104877400D01*
X130025400Y-104837400D02*
X132970400Y-104837400D01*
X130034400Y-104797400D02*
X132970400Y-104797400D01*
X130043400Y-104757400D02*
X132970400Y-104757400D01*
X130053400Y-104717400D02*
X132970400Y-104717400D01*
X130063400Y-104677400D02*
X132970400Y-104677400D01*
X130074400Y-104637400D02*
X132970400Y-104637400D01*
X130085400Y-104597400D02*
X132970400Y-104597400D01*
X130097400Y-104557400D02*
X132970400Y-104557400D01*
X130109400Y-104517400D02*
X132970400Y-104517400D01*
X130121400Y-104477400D02*
X132970400Y-104477400D01*
X130134400Y-104437400D02*
X132970400Y-104437400D01*
X130147400Y-104397400D02*
X132970400Y-104397400D01*
X130161400Y-104357400D02*
X132970400Y-104357400D01*
X130175400Y-104317400D02*
X132970400Y-104317400D01*
X130190400Y-104277400D02*
X132970400Y-104277400D01*
X130205400Y-104237400D02*
X132970400Y-104237400D01*
X130221400Y-104197400D02*
X132970400Y-104197400D01*
X130237400Y-104157400D02*
X132970400Y-104157400D01*
X130253400Y-104117400D02*
X132970400Y-104117400D01*
X130270400Y-104077400D02*
X132970400Y-104077400D01*
X130288400Y-104037400D02*
X132970400Y-104037400D01*
X130306400Y-103997400D02*
X132970400Y-103997400D01*
X130325400Y-103957400D02*
X132970400Y-103957400D01*
X130344400Y-103917400D02*
X132970400Y-103917400D01*
X130364400Y-103877400D02*
X132970400Y-103877400D01*
X130384400Y-103837400D02*
X132970400Y-103837400D01*
X130405400Y-103797400D02*
X132970400Y-103797400D01*
X130426400Y-103757400D02*
X132970400Y-103757400D01*
X130448400Y-103717400D02*
X132970400Y-103717400D01*
X130471400Y-103677400D02*
X132970400Y-103677400D01*
X130494400Y-103637400D02*
X132970400Y-103637400D01*
X130517400Y-103597400D02*
X132970400Y-103597400D01*
X130542400Y-103557400D02*
X132970400Y-103557400D01*
X130567400Y-103517400D02*
X132970400Y-103517400D01*
X130592400Y-103477400D02*
X132970400Y-103477400D01*
X130618400Y-103437400D02*
X132970400Y-103437400D01*
X130645400Y-103397400D02*
X132970400Y-103397400D01*
X130673400Y-103357400D02*
X132970400Y-103357400D01*
X130701400Y-103317400D02*
X132970400Y-103317400D01*
X130730400Y-103277400D02*
X132970400Y-103277400D01*
X130760400Y-103237400D02*
X132970400Y-103237400D01*
X130791400Y-103197400D02*
X132970400Y-103197400D01*
X130822400Y-103157400D02*
X132970400Y-103157400D01*
X130854400Y-103117400D02*
X132970400Y-103117400D01*
X130887400Y-103077400D02*
X132970400Y-103077400D01*
X130921400Y-103037400D02*
X132970400Y-103037400D01*
X130955400Y-102997400D02*
X132970400Y-102997400D01*
X130991400Y-102957400D02*
X132970400Y-102957400D01*
X131028400Y-102917400D02*
X136992400Y-102917400D01*
X131065400Y-102877400D02*
X136955400Y-102877400D01*
X131104400Y-102837400D02*
X136916400Y-102837400D01*
X131143400Y-102797400D02*
X136877400Y-102797400D01*
X131184400Y-102757400D02*
X136836400Y-102757400D01*
X131226400Y-102717400D02*
X136794400Y-102717400D01*
X131269400Y-102677400D02*
X136751400Y-102677400D01*
X131295400Y-109727098D02*
X132095400Y-109727098D01*
X131314400Y-102637400D02*
X136706400Y-102637400D01*
X131359400Y-102597400D02*
X136661400Y-102597400D01*
X131406400Y-102557400D02*
X136614400Y-102557400D01*
X131455400Y-102517400D02*
X136565400Y-102517400D01*
X131505400Y-102477400D02*
X136515400Y-102477400D01*
X131557400Y-102437400D02*
X136463400Y-102437400D01*
X131610400Y-102397400D02*
X136410400Y-102397400D01*
X131666400Y-102357400D02*
X136354400Y-102357400D01*
X131695400Y-110127098D02*
X131695400Y-109327098D01*
X131723400Y-102317400D02*
X136297400Y-102317400D01*
X131783400Y-102277400D02*
X136237400Y-102277400D01*
X131845400Y-102237400D02*
X136175400Y-102237400D01*
X131909400Y-102197400D02*
X136111400Y-102197400D01*
X131976400Y-102157400D02*
X136044400Y-102157400D01*
X132046400Y-102117400D02*
X135974400Y-102117400D01*
X132120400Y-102077400D02*
X135900400Y-102077400D01*
X132197400Y-102037400D02*
X135823400Y-102037400D01*
X132279400Y-101997400D02*
X135741400Y-101997400D01*
X132366400Y-101957400D02*
X135654400Y-101957400D01*
X132458400Y-101917400D02*
X135562400Y-101917400D01*
X132557400Y-101877400D02*
X135463400Y-101877400D01*
X132664400Y-101837400D02*
X135356400Y-101837400D01*
X132782400Y-101797400D02*
X135238400Y-101797400D01*
X132913400Y-101757400D02*
X135107400Y-101757400D01*
X133063400Y-101717400D02*
X134957400Y-101717400D01*
X133242400Y-101677400D02*
X134778400Y-101677400D01*
X133477400Y-101637400D02*
X134543400Y-101637400D01*
X135050400Y-102957400D02*
X137029400Y-102957400D01*
X135050400Y-102997400D02*
X137065400Y-102997400D01*
X135050400Y-103037400D02*
X137099400Y-103037400D01*
X135050400Y-103077400D02*
X137133400Y-103077400D01*
X135050400Y-103117400D02*
X137166400Y-103117400D01*
X135050400Y-103157400D02*
X137198400Y-103157400D01*
X135050400Y-103197400D02*
X137229400Y-103197400D01*
X135050400Y-103237400D02*
X137260400Y-103237400D01*
X135050400Y-103277400D02*
X137290400Y-103277400D01*
X135050400Y-103317400D02*
X137319400Y-103317400D01*
X135050400Y-103357400D02*
X137347400Y-103357400D01*
X135050400Y-103397400D02*
X137375400Y-103397400D01*
X135050400Y-103437400D02*
X137402400Y-103437400D01*
X135050400Y-103477400D02*
X137428400Y-103477400D01*
X135050400Y-103517400D02*
X137453400Y-103517400D01*
X135050400Y-103557400D02*
X137478400Y-103557400D01*
X135050400Y-103597400D02*
X137503400Y-103597400D01*
X135050400Y-103637400D02*
X137526400Y-103637400D01*
X135050400Y-103677400D02*
X137549400Y-103677400D01*
X135050400Y-103717400D02*
X137572400Y-103717400D01*
X135050400Y-103757400D02*
X137594400Y-103757400D01*
X135050400Y-103797400D02*
X137615400Y-103797400D01*
X135050400Y-103837400D02*
X137636400Y-103837400D01*
X135050400Y-103877400D02*
X137656400Y-103877400D01*
X135050400Y-103917400D02*
X137676400Y-103917400D01*
X135050400Y-103957400D02*
X137695400Y-103957400D01*
X135050400Y-103997400D02*
X137714400Y-103997400D01*
X135050400Y-104037400D02*
X137732400Y-104037400D01*
X135050400Y-104077400D02*
X137750400Y-104077400D01*
X135050400Y-104117400D02*
X137767400Y-104117400D01*
X135050400Y-104157400D02*
X137783400Y-104157400D01*
X135050400Y-104197400D02*
X137799400Y-104197400D01*
X135050400Y-104237400D02*
X137815400Y-104237400D01*
X135050400Y-104277400D02*
X137830400Y-104277400D01*
X135050400Y-104317400D02*
X137845400Y-104317400D01*
X135050400Y-104357400D02*
X137859400Y-104357400D01*
X135050400Y-104397400D02*
X137873400Y-104397400D01*
X135050400Y-104437400D02*
X137886400Y-104437400D01*
X135050400Y-104477400D02*
X137899400Y-104477400D01*
X135050400Y-104517400D02*
X137911400Y-104517400D01*
X135050400Y-104557400D02*
X137923400Y-104557400D01*
X135050400Y-104597400D02*
X137935400Y-104597400D01*
X135050400Y-104637400D02*
X137946400Y-104637400D01*
X135050400Y-104677400D02*
X137957400Y-104677400D01*
X135050400Y-104717400D02*
X137967400Y-104717400D01*
X135050400Y-104757400D02*
X137977400Y-104757400D01*
X135050400Y-104797400D02*
X137986400Y-104797400D01*
X135050400Y-104837400D02*
X137995400Y-104837400D01*
X135050400Y-104877400D02*
X138003400Y-104877400D01*
X135050400Y-104917400D02*
X138012400Y-104917400D01*
X135050400Y-104957400D02*
X138019400Y-104957400D01*
X135050400Y-104997400D02*
X138027400Y-104997400D01*
X138130400Y-105717400D02*
G75*
G02*
X129890400Y-105717400I-4120000J0D01*
G01*
X129890400Y-105717400D02*
G75*
G02*
X138130400Y-105717400I4120000J0D01*
G01*
G04 #@! TO.C,R27*
X147062258Y-104977500D02*
X146587742Y-104977500D01*
X147062258Y-106022500D02*
X146587742Y-106022500D01*
G04 #@! TO.C,SW1*
X118280000Y-88860000D02*
X118280000Y-90940000D01*
X119550000Y-87180000D02*
X119060000Y-87670000D01*
X119550000Y-92620000D02*
X119060000Y-92130000D01*
X122450000Y-87180000D02*
X119550000Y-87180000D01*
X122450000Y-87180000D02*
X122940000Y-87670000D01*
X122450000Y-92620000D02*
X119550000Y-92620000D01*
X122450000Y-92620000D02*
X122940000Y-92130000D01*
X123720000Y-88860000D02*
X123720000Y-90940000D01*
G04 #@! TO.C,J7*
X136135600Y-125332000D02*
X136135600Y-123952000D01*
X137515600Y-125332000D02*
X136135600Y-125332000D01*
X138785600Y-122572000D02*
X146515600Y-122572000D01*
X138785600Y-125332000D02*
X138785600Y-122572000D01*
X138785600Y-125332000D02*
X146515600Y-125332000D01*
X146515600Y-125332000D02*
X146515600Y-122572000D01*
G04 #@! TO.C,R9*
X136993100Y-115076742D02*
X136993100Y-115551258D01*
X138038100Y-115076742D02*
X138038100Y-115551258D01*
G04 #@! TO.C,R15*
X157313100Y-115080742D02*
X157313100Y-115555258D01*
X158358100Y-115080742D02*
X158358100Y-115555258D01*
G04 #@! TO.C,R4*
X153940742Y-90677500D02*
X154415258Y-90677500D01*
X153940742Y-91722500D02*
X154415258Y-91722500D01*
G04 #@! TO.C,R22*
X153962742Y-89177500D02*
X154437258Y-89177500D01*
X153962742Y-90222500D02*
X154437258Y-90222500D01*
G04 #@! TO.C,R25*
X143577500Y-106562258D02*
X143577500Y-106087742D01*
X144622500Y-106562258D02*
X144622500Y-106087742D01*
G04 #@! TO.C,R20*
X175093100Y-115076742D02*
X175093100Y-115551258D01*
X176138100Y-115076742D02*
X176138100Y-115551258D01*
G04 #@! TO.C,R24*
X154403058Y-95921300D02*
X153928542Y-95921300D01*
X154403058Y-96966300D02*
X153928542Y-96966300D01*
G04 #@! TO.C,R6*
X124293100Y-115078742D02*
X124293100Y-115553258D01*
X125338100Y-115078742D02*
X125338100Y-115553258D01*
G04 #@! TO.C,JP1*
X155190600Y-106722400D02*
X155190600Y-109482400D01*
X157840600Y-106722400D02*
X155190600Y-106722400D01*
X157840600Y-106722400D02*
X157840600Y-109482400D01*
X157840600Y-109482400D02*
X155190600Y-109482400D01*
X159110600Y-106722400D02*
X160490600Y-106722400D01*
X160490600Y-106722400D02*
X160490600Y-108102400D01*
G04 #@! TO.C,J5*
X166615600Y-117492000D02*
X176995600Y-117492000D01*
X166615600Y-120142000D02*
X166615600Y-117492000D01*
X166615600Y-122792000D02*
X166615600Y-121412000D01*
X167995600Y-122792000D02*
X166615600Y-122792000D01*
X169265600Y-120142000D02*
X166615600Y-120142000D01*
X169265600Y-122792000D02*
X169265600Y-120142000D01*
X169265600Y-122792000D02*
X176995600Y-122792000D01*
X176995600Y-122792000D02*
X176995600Y-117492000D01*
G04 #@! TO.C,U1*
X157605600Y-79116400D02*
X157605600Y-85276400D01*
X157605600Y-79116400D02*
X175845600Y-79116400D01*
X157605600Y-104076400D02*
X157605600Y-104856400D01*
X157605600Y-104856400D02*
X158605600Y-104856400D01*
X175845600Y-79116400D02*
X175845600Y-85531400D01*
X175845600Y-104076400D02*
X175845600Y-104856400D01*
X175845600Y-104856400D02*
X174845600Y-104856400D01*
X157600600Y-86001400D02*
X157100600Y-86001400D01*
X157600600Y-85501400D01*
X157600600Y-86001400D01*
G36*
X157600600Y-86001400D02*
G01*
X157100600Y-86001400D01*
X157600600Y-85501400D01*
X157600600Y-86001400D01*
G37*
G04 #@! TO.C,R10*
X139533100Y-115076742D02*
X139533100Y-115551258D01*
X140578100Y-115076742D02*
X140578100Y-115551258D01*
G04 #@! TO.C,R23*
X153928542Y-94422700D02*
X154403058Y-94422700D01*
X153928542Y-95467700D02*
X154403058Y-95467700D01*
G04 #@! TO.C,C6*
X114831400Y-102359420D02*
X114831400Y-102640580D01*
X115851400Y-102359420D02*
X115851400Y-102640580D01*
G04 #@! TO.C,J4*
X151375600Y-117492000D02*
X161755600Y-117492000D01*
X151375600Y-120142000D02*
X151375600Y-117492000D01*
X151375600Y-122792000D02*
X151375600Y-121412000D01*
X152755600Y-122792000D02*
X151375600Y-122792000D01*
X154025600Y-120142000D02*
X151375600Y-120142000D01*
X154025600Y-122792000D02*
X154025600Y-120142000D01*
X154025600Y-122792000D02*
X161755600Y-122792000D01*
X161755600Y-122792000D02*
X161755600Y-117492000D01*
G04 #@! TO.C,R11*
X142073100Y-115076742D02*
X142073100Y-115551258D01*
X143118100Y-115076742D02*
X143118100Y-115551258D01*
G04 #@! TO.C,R7*
X126833100Y-115076742D02*
X126833100Y-115551258D01*
X127878100Y-115076742D02*
X127878100Y-115551258D01*
G04 #@! TO.C,JP2*
X137913600Y-96655400D02*
X137913600Y-95275400D01*
X139293600Y-96655400D02*
X137913600Y-96655400D01*
X140563600Y-93895400D02*
X143213600Y-93895400D01*
X140563600Y-96655400D02*
X140563600Y-93895400D01*
X140563600Y-96655400D02*
X143213600Y-96655400D01*
X143213600Y-96655400D02*
X143213600Y-93895400D01*
G04 #@! TD*
%LPC*%
D13*
G04 #@! TO.C,D1*
X164820600Y-109626400D03*
D14*
X167360600Y-109626400D03*
G04 #@! TD*
D15*
G04 #@! TO.C,R3*
X172440600Y-107886000D03*
X172440600Y-106236000D03*
G04 #@! TD*
D16*
G04 #@! TO.C,J2*
X122275600Y-121412000D03*
D17*
X122275600Y-118872000D03*
X124815600Y-121412000D03*
X124815600Y-118872000D03*
X127355600Y-121412000D03*
X127355600Y-118872000D03*
X129895600Y-121412000D03*
X129895600Y-118872000D03*
G04 #@! TD*
D18*
G04 #@! TO.C,C4*
X119481600Y-96572600D03*
X119481600Y-93622600D03*
G04 #@! TD*
D19*
G04 #@! TO.C,REF\u002A\u002A*
X183210200Y-88036400D03*
D20*
X183210200Y-88036400D03*
G04 #@! TD*
D21*
G04 #@! TO.C,R5*
X122275600Y-114489000D03*
X122275600Y-116139000D03*
G04 #@! TD*
G04 #@! TO.C,R17*
X167995600Y-114489000D03*
X167995600Y-116139000D03*
G04 #@! TD*
D22*
G04 #@! TO.C,C3*
X133972000Y-92837000D03*
X135522000Y-92837000D03*
G04 #@! TD*
D23*
G04 #@! TO.C,D2*
X119754400Y-99200000D03*
X115754400Y-99200000D03*
G04 #@! TD*
D24*
G04 #@! TO.C,R1*
X146125000Y-95600000D03*
X144475000Y-95600000D03*
G04 #@! TD*
D16*
G04 #@! TO.C,J9*
X167995600Y-123952000D03*
D17*
X170535600Y-123952000D03*
X173075600Y-123952000D03*
X175615600Y-123952000D03*
G04 #@! TD*
D16*
G04 #@! TO.C,J6*
X122275600Y-123952000D03*
D17*
X124815600Y-123952000D03*
X127355600Y-123952000D03*
X129895600Y-123952000D03*
G04 #@! TD*
D25*
G04 #@! TO.C,U2*
X123925800Y-94575600D03*
X123925800Y-96875600D03*
D26*
X130225800Y-96875600D03*
D25*
X123925800Y-99175600D03*
G04 #@! TD*
D16*
G04 #@! TO.C,J8*
X152755600Y-123952000D03*
D17*
X155295600Y-123952000D03*
X157835600Y-123952000D03*
X160375600Y-123952000D03*
G04 #@! TD*
D22*
G04 #@! TO.C,C2*
X133972000Y-94335600D03*
X135522000Y-94335600D03*
G04 #@! TD*
D16*
G04 #@! TO.C,JP3*
X139293600Y-97815400D03*
D17*
X141833600Y-97815400D03*
G04 #@! TD*
D27*
G04 #@! TO.C,R26*
X146000000Y-107300000D03*
X147650000Y-107300000D03*
G04 #@! TD*
D21*
G04 #@! TO.C,R18*
X170535600Y-114489000D03*
X170535600Y-116139000D03*
G04 #@! TD*
G04 #@! TO.C,R14*
X155295600Y-114489000D03*
X155295600Y-116139000D03*
G04 #@! TD*
D28*
G04 #@! TO.C,J1*
X149825902Y-101886400D03*
X152365902Y-101886400D03*
X149825902Y-104426400D03*
X152365902Y-104426400D03*
X149825902Y-106966400D03*
X152365902Y-106966400D03*
X149825902Y-109506400D03*
X152365902Y-109506400D03*
X149825902Y-112046400D03*
X152365902Y-112046400D03*
G04 #@! TD*
D29*
G04 #@! TO.C,C7*
X115214400Y-107201000D03*
X115214400Y-105651000D03*
G04 #@! TD*
D30*
G04 #@! TO.C,SW2*
X137515600Y-88091400D03*
X143715600Y-88091400D03*
X137515600Y-91791400D03*
X143715600Y-91791400D03*
G04 #@! TD*
D21*
G04 #@! TO.C,R13*
X152755600Y-114489000D03*
X152755600Y-116139000D03*
G04 #@! TD*
G04 #@! TO.C,R8*
X129895600Y-114489000D03*
X129895600Y-116139000D03*
G04 #@! TD*
G04 #@! TO.C,R19*
X173075600Y-114493000D03*
X173075600Y-116143000D03*
G04 #@! TD*
D18*
G04 #@! TO.C,C5*
X116484400Y-96547200D03*
X116484400Y-93597200D03*
G04 #@! TD*
D27*
G04 #@! TO.C,R2*
X153353000Y-92700000D03*
X155003000Y-92700000D03*
G04 #@! TD*
D16*
G04 #@! TO.C,J10*
X148945600Y-88671400D03*
D17*
X148945600Y-91211400D03*
X148945600Y-93751400D03*
G04 #@! TD*
D16*
G04 #@! TO.C,J3*
X137515600Y-121412000D03*
D17*
X137515600Y-118872000D03*
X140055600Y-121412000D03*
X140055600Y-118872000D03*
X142595600Y-121412000D03*
X142595600Y-118872000D03*
X145135600Y-121412000D03*
X145135600Y-118872000D03*
G04 #@! TD*
D21*
G04 #@! TO.C,R12*
X145135600Y-114489000D03*
X145135600Y-116139000D03*
G04 #@! TD*
G04 #@! TO.C,R16*
X160375600Y-114493000D03*
X160375600Y-116143000D03*
G04 #@! TD*
D31*
G04 #@! TO.C,J11*
X119862600Y-103253400D03*
D32*
X119862600Y-107213400D03*
X119862600Y-111173400D03*
G04 #@! TD*
D24*
G04 #@! TO.C,R21*
X155025000Y-88200000D03*
X153375000Y-88200000D03*
G04 #@! TD*
D33*
G04 #@! TO.C,C1*
X134010400Y-107467400D03*
D34*
X134010400Y-103967400D03*
G04 #@! TD*
D24*
G04 #@! TO.C,R27*
X147650000Y-105500000D03*
X146000000Y-105500000D03*
G04 #@! TD*
D35*
G04 #@! TO.C,REF\u002A\u002A*
X112115600Y-89941400D03*
D36*
X112115600Y-89941400D03*
G04 #@! TD*
D30*
G04 #@! TO.C,SW1*
X124100000Y-91750000D03*
X117900000Y-91750000D03*
X124100000Y-88050000D03*
X117900000Y-88050000D03*
G04 #@! TD*
D35*
G04 #@! TO.C,REF\u002A\u002A*
X112115600Y-122682000D03*
D36*
X112115600Y-122682000D03*
G04 #@! TD*
D16*
G04 #@! TO.C,J7*
X137515600Y-123952000D03*
D17*
X140055600Y-123952000D03*
X142595600Y-123952000D03*
X145135600Y-123952000D03*
G04 #@! TD*
D21*
G04 #@! TO.C,R9*
X137515600Y-114489000D03*
X137515600Y-116139000D03*
G04 #@! TD*
G04 #@! TO.C,R15*
X157835600Y-114493000D03*
X157835600Y-116143000D03*
G04 #@! TD*
D27*
G04 #@! TO.C,R4*
X153353000Y-91200000D03*
X155003000Y-91200000D03*
G04 #@! TD*
D35*
G04 #@! TO.C,REF\u002A\u002A*
X183235600Y-122682000D03*
D36*
X183235600Y-122682000D03*
G04 #@! TD*
D27*
G04 #@! TO.C,R22*
X153375000Y-89700000D03*
X155025000Y-89700000D03*
G04 #@! TD*
D15*
G04 #@! TO.C,R25*
X144100000Y-107150000D03*
X144100000Y-105500000D03*
G04 #@! TD*
D21*
G04 #@! TO.C,R20*
X175615600Y-114489000D03*
X175615600Y-116139000D03*
G04 #@! TD*
D24*
G04 #@! TO.C,R24*
X154990800Y-96443800D03*
X153340800Y-96443800D03*
G04 #@! TD*
D21*
G04 #@! TO.C,R6*
X124815600Y-114491000D03*
X124815600Y-116141000D03*
G04 #@! TD*
D16*
G04 #@! TO.C,JP1*
X159110600Y-108102400D03*
D17*
X156570600Y-108102400D03*
G04 #@! TD*
D16*
G04 #@! TO.C,J5*
X167995600Y-121412000D03*
D17*
X167995600Y-118872000D03*
X170535600Y-121412000D03*
X170535600Y-118872000D03*
X173075600Y-121412000D03*
X173075600Y-118872000D03*
X175615600Y-121412000D03*
X175615600Y-118872000D03*
G04 #@! TD*
D37*
G04 #@! TO.C,U1*
X157975600Y-86726400D03*
X157975600Y-87996400D03*
X157975600Y-89266400D03*
X157975600Y-90536400D03*
X157975600Y-91806400D03*
X157975600Y-93076400D03*
X157975600Y-94346400D03*
X157975600Y-95616400D03*
X157975600Y-96886400D03*
X157975600Y-98156400D03*
X157975600Y-99426400D03*
X157975600Y-100696400D03*
X157975600Y-101966400D03*
X157975600Y-103236400D03*
D38*
X161015600Y-104486400D03*
X162285600Y-104486400D03*
X163555600Y-104486400D03*
X164825600Y-104486400D03*
X166095600Y-104486400D03*
X167365600Y-104486400D03*
X168635600Y-104486400D03*
X169905600Y-104486400D03*
X171175600Y-104486400D03*
X172445600Y-104486400D03*
D37*
X175475600Y-103236400D03*
X175475600Y-101966400D03*
X175475600Y-100696400D03*
X175475600Y-99426400D03*
X175475600Y-98156400D03*
X175475600Y-96886400D03*
X175475600Y-95616400D03*
X175475600Y-94346400D03*
X175475600Y-93076400D03*
X175475600Y-91806400D03*
X175475600Y-90536400D03*
X175475600Y-89266400D03*
X175475600Y-87996400D03*
X175475600Y-86726400D03*
D39*
X164520600Y-93303900D03*
X164520600Y-94828900D03*
X165283100Y-92541400D03*
X165283100Y-94066400D03*
X165283100Y-95591400D03*
X166045600Y-93303900D03*
D40*
X166045600Y-94066400D03*
D39*
X166045600Y-94828900D03*
X166808100Y-92541400D03*
X166808100Y-94066400D03*
X166808100Y-95591400D03*
X167570600Y-93303900D03*
X167570600Y-94828900D03*
G04 #@! TD*
D21*
G04 #@! TO.C,R10*
X140055600Y-114489000D03*
X140055600Y-116139000D03*
G04 #@! TD*
D27*
G04 #@! TO.C,R23*
X153340800Y-94945200D03*
X154990800Y-94945200D03*
G04 #@! TD*
D41*
G04 #@! TO.C,C6*
X115341400Y-101725000D03*
X115341400Y-103275000D03*
G04 #@! TD*
D16*
G04 #@! TO.C,J4*
X152755600Y-121412000D03*
D17*
X152755600Y-118872000D03*
X155295600Y-121412000D03*
X155295600Y-118872000D03*
X157835600Y-121412000D03*
X157835600Y-118872000D03*
X160375600Y-121412000D03*
X160375600Y-118872000D03*
G04 #@! TD*
D21*
G04 #@! TO.C,R11*
X142595600Y-114489000D03*
X142595600Y-116139000D03*
G04 #@! TD*
G04 #@! TO.C,R7*
X127355600Y-114489000D03*
X127355600Y-116139000D03*
G04 #@! TD*
D16*
G04 #@! TO.C,JP2*
X139293600Y-95275400D03*
D17*
X141833600Y-95275400D03*
G04 #@! TD*
%LPD*%
M02*
