G04 #@! TF.GenerationSoftware,KiCad,Pcbnew,9.0.6*
G04 #@! TF.CreationDate,2026-01-30T17:04:59+01:00*
G04 #@! TF.ProjectId,ESP32_PWM_PCB,45535033-325f-4505-974d-5f5043422e6b,1.0*
G04 #@! TF.SameCoordinates,Original*
G04 #@! TF.FileFunction,Copper,L2,Bot*
G04 #@! TF.FilePolarity,Positive*
%FSLAX46Y46*%
G04 Gerber Fmt 4.6, Leading zero omitted, Abs format (unit mm)*
G04 Created by KiCad (PCBNEW 9.0.6) date 2026-01-30 17:04:59*
%MOMM*%
%LPD*%
G01*
G04 APERTURE LIST*
G04 Aperture macros list*
%AMRoundRect*
0 Rectangle with rounded corners*
0 $1 Rounding radius*
0 $2 $3 $4 $5 $6 $7 $8 $9 X,Y pos of 4 corners*
0 Add a 4 corners polygon primitive as box body*
4,1,4,$2,$3,$4,$5,$6,$7,$8,$9,$2,$3,0*
0 Add four circle primitives for the rounded corners*
1,1,$1+$1,$2,$3*
1,1,$1+$1,$4,$5*
1,1,$1+$1,$6,$7*
1,1,$1+$1,$8,$9*
0 Add four rect primitives between the rounded corners*
20,1,$1+$1,$2,$3,$4,$5,0*
20,1,$1+$1,$4,$5,$6,$7,0*
20,1,$1+$1,$6,$7,$8,$9,0*
20,1,$1+$1,$8,$9,$2,$3,0*%
G04 Aperture macros list end*
G04 #@! TA.AperFunction,ComponentPad*
%ADD10R,1.800000X1.800000*%
G04 #@! TD*
G04 #@! TA.AperFunction,ComponentPad*
%ADD11C,1.800000*%
G04 #@! TD*
G04 #@! TA.AperFunction,ComponentPad*
%ADD12R,1.700000X1.700000*%
G04 #@! TD*
G04 #@! TA.AperFunction,ComponentPad*
%ADD13C,1.700000*%
G04 #@! TD*
G04 #@! TA.AperFunction,ComponentPad*
%ADD14C,2.600000*%
G04 #@! TD*
G04 #@! TA.AperFunction,ConnectorPad*
%ADD15C,3.800000*%
G04 #@! TD*
G04 #@! TA.AperFunction,ComponentPad*
%ADD16RoundRect,0.236220X-0.513780X-0.513780X0.513780X-0.513780X0.513780X0.513780X-0.513780X0.513780X0*%
G04 #@! TD*
G04 #@! TA.AperFunction,ComponentPad*
%ADD17RoundRect,0.250001X-0.949999X0.949999X-0.949999X-0.949999X0.949999X-0.949999X0.949999X0.949999X0*%
G04 #@! TD*
G04 #@! TA.AperFunction,ComponentPad*
%ADD18C,2.400000*%
G04 #@! TD*
G04 #@! TA.AperFunction,ComponentPad*
%ADD19RoundRect,0.250000X0.550000X-0.550000X0.550000X0.550000X-0.550000X0.550000X-0.550000X-0.550000X0*%
G04 #@! TD*
G04 #@! TA.AperFunction,ComponentPad*
%ADD20C,1.600000*%
G04 #@! TD*
G04 #@! TA.AperFunction,ComponentPad*
%ADD21C,3.600000*%
G04 #@! TD*
G04 #@! TA.AperFunction,ConnectorPad*
%ADD22C,5.500000*%
G04 #@! TD*
G04 #@! TA.AperFunction,HeatsinkPad*
%ADD23C,0.600000*%
G04 #@! TD*
G04 #@! TA.AperFunction,ViaPad*
%ADD24C,1.000000*%
G04 #@! TD*
G04 #@! TA.AperFunction,ViaPad*
%ADD25C,1.100000*%
G04 #@! TD*
G04 #@! TA.AperFunction,Conductor*
%ADD26C,1.500000*%
G04 #@! TD*
G04 #@! TA.AperFunction,Conductor*
%ADD27C,2.000000*%
G04 #@! TD*
G04 #@! TA.AperFunction,Conductor*
%ADD28C,1.100000*%
G04 #@! TD*
G04 #@! TA.AperFunction,Conductor*
%ADD29C,1.000000*%
G04 #@! TD*
G04 #@! TA.AperFunction,Conductor*
%ADD30C,0.300000*%
G04 #@! TD*
G04 APERTURE END LIST*
D10*
G04 #@! TO.P,D1,1,K*
G04 #@! TO.N,GND*
X164820600Y-109626400D03*
D11*
G04 #@! TO.P,D1,2,A*
G04 #@! TO.N,Net-(D1-A)*
X167360600Y-109626400D03*
G04 #@! TD*
D12*
G04 #@! TO.P,J2,1,Pin_1*
G04 #@! TO.N,+5C*
X122275600Y-121412000D03*
D13*
G04 #@! TO.P,J2,2,Pin_2*
G04 #@! TO.N,Net-(J2-Pin_2)*
X122275600Y-118872000D03*
G04 #@! TO.P,J2,3,Pin_3*
G04 #@! TO.N,+5C*
X124815600Y-121412000D03*
G04 #@! TO.P,J2,4,Pin_4*
G04 #@! TO.N,Net-(J2-Pin_4)*
X124815600Y-118872000D03*
G04 #@! TO.P,J2,5,Pin_5*
G04 #@! TO.N,+5C*
X127355600Y-121412000D03*
G04 #@! TO.P,J2,6,Pin_6*
G04 #@! TO.N,Net-(J2-Pin_6)*
X127355600Y-118872000D03*
G04 #@! TO.P,J2,7,Pin_7*
G04 #@! TO.N,+5C*
X129895600Y-121412000D03*
G04 #@! TO.P,J2,8,Pin_8*
G04 #@! TO.N,Net-(J2-Pin_8)*
X129895600Y-118872000D03*
G04 #@! TD*
D14*
G04 #@! TO.P,REF\u002A\u002A,1*
G04 #@! TO.N,N/C*
X183210200Y-88036400D03*
D15*
X183210200Y-88036400D03*
G04 #@! TD*
D12*
G04 #@! TO.P,J9,1,Pin_1*
G04 #@! TO.N,GND*
X167995600Y-123952000D03*
D13*
G04 #@! TO.P,J9,2,Pin_2*
X170535600Y-123952000D03*
G04 #@! TO.P,J9,3,Pin_3*
X173075600Y-123952000D03*
G04 #@! TO.P,J9,4,Pin_4*
X175615600Y-123952000D03*
G04 #@! TD*
D12*
G04 #@! TO.P,J6,1,Pin_1*
G04 #@! TO.N,GND*
X122275600Y-123952000D03*
D13*
G04 #@! TO.P,J6,2,Pin_2*
X124815600Y-123952000D03*
G04 #@! TO.P,J6,3,Pin_3*
X127355600Y-123952000D03*
G04 #@! TO.P,J6,4,Pin_4*
X129895600Y-123952000D03*
G04 #@! TD*
D12*
G04 #@! TO.P,J8,1,Pin_1*
G04 #@! TO.N,GND*
X152755600Y-123952000D03*
D13*
G04 #@! TO.P,J8,2,Pin_2*
X155295600Y-123952000D03*
G04 #@! TO.P,J8,3,Pin_3*
X157835600Y-123952000D03*
G04 #@! TO.P,J8,4,Pin_4*
X160375600Y-123952000D03*
G04 #@! TD*
D12*
G04 #@! TO.P,JP3,1,A*
G04 #@! TO.N,GND*
X139293600Y-97815400D03*
D13*
G04 #@! TO.P,JP3,2,B*
G04 #@! TO.N,Net-(JP3-B)*
X141833600Y-97815400D03*
G04 #@! TD*
D16*
G04 #@! TO.P,J1,1,GND*
G04 #@! TO.N,GND*
X149825902Y-101886400D03*
G04 #@! TO.P,J1,2,SCLK*
G04 #@! TO.N,Net-(J1-SCLK)*
X152365902Y-101886400D03*
G04 #@! TO.P,J1,3,INT*
G04 #@! TO.N,unconnected-(J1-INT-Pad3)*
X149825902Y-104426400D03*
G04 #@! TO.P,J1,4,SCS*
G04 #@! TO.N,Net-(J1-SCS)*
X152365902Y-104426400D03*
G04 #@! TO.P,J1,5,RST*
G04 #@! TO.N,Net-(J1-RST)*
X149825902Y-106966400D03*
G04 #@! TO.P,J1,6,MOSI*
G04 #@! TO.N,Net-(J1-MOSI)*
X152365902Y-106966400D03*
G04 #@! TO.P,J1,7,GND*
G04 #@! TO.N,GND*
X149825902Y-109506400D03*
G04 #@! TO.P,J1,8,MISO*
G04 #@! TO.N,Net-(J1-MISO)*
X152365902Y-109506400D03*
G04 #@! TO.P,J1,9,5V*
G04 #@! TO.N,+5V*
X149825902Y-112046400D03*
G04 #@! TO.P,J1,10,3.3V*
G04 #@! TO.N,unconnected-(J1-3.3V-Pad10)*
X152365902Y-112046400D03*
G04 #@! TD*
D12*
G04 #@! TO.P,J10,1,Pin_1*
G04 #@! TO.N,Net-(J10-Pin_1)*
X148945600Y-88671400D03*
D13*
G04 #@! TO.P,J10,2,Pin_2*
G04 #@! TO.N,Net-(J10-Pin_2)*
X148945600Y-91211400D03*
G04 #@! TO.P,J10,3,Pin_3*
G04 #@! TO.N,GND*
X148945600Y-93751400D03*
G04 #@! TD*
D12*
G04 #@! TO.P,J3,1,Pin_1*
G04 #@! TO.N,+5C*
X137515600Y-121412000D03*
D13*
G04 #@! TO.P,J3,2,Pin_2*
G04 #@! TO.N,Net-(J3-Pin_2)*
X137515600Y-118872000D03*
G04 #@! TO.P,J3,3,Pin_3*
G04 #@! TO.N,+5C*
X140055600Y-121412000D03*
G04 #@! TO.P,J3,4,Pin_4*
G04 #@! TO.N,Net-(J3-Pin_4)*
X140055600Y-118872000D03*
G04 #@! TO.P,J3,5,Pin_5*
G04 #@! TO.N,+5C*
X142595600Y-121412000D03*
G04 #@! TO.P,J3,6,Pin_6*
G04 #@! TO.N,Net-(J3-Pin_6)*
X142595600Y-118872000D03*
G04 #@! TO.P,J3,7,Pin_7*
G04 #@! TO.N,+5C*
X145135600Y-121412000D03*
G04 #@! TO.P,J3,8,Pin_8*
G04 #@! TO.N,Net-(J3-Pin_8)*
X145135600Y-118872000D03*
G04 #@! TD*
D17*
G04 #@! TO.P,J11,1,Pin_1*
G04 #@! TO.N,GND*
X119862600Y-103253400D03*
D18*
G04 #@! TO.P,J11,2,Pin_2*
G04 #@! TO.N,+5V*
X119862600Y-107213400D03*
G04 #@! TO.P,J11,3,Pin_3*
G04 #@! TO.N,+5C*
X119862600Y-111173400D03*
G04 #@! TD*
D19*
G04 #@! TO.P,C1,1*
G04 #@! TO.N,+5C*
X134010400Y-107467400D03*
D20*
G04 #@! TO.P,C1,2*
G04 #@! TO.N,GND*
X134010400Y-103967400D03*
G04 #@! TD*
D21*
G04 #@! TO.P,REF\u002A\u002A,1*
G04 #@! TO.N,N/C*
X112115600Y-89941400D03*
D22*
X112115600Y-89941400D03*
G04 #@! TD*
D21*
G04 #@! TO.P,REF\u002A\u002A,1*
G04 #@! TO.N,N/C*
X112115600Y-122682000D03*
D22*
X112115600Y-122682000D03*
G04 #@! TD*
D12*
G04 #@! TO.P,J7,1,Pin_1*
G04 #@! TO.N,GND*
X137515600Y-123952000D03*
D13*
G04 #@! TO.P,J7,2,Pin_2*
X140055600Y-123952000D03*
G04 #@! TO.P,J7,3,Pin_3*
X142595600Y-123952000D03*
G04 #@! TO.P,J7,4,Pin_4*
X145135600Y-123952000D03*
G04 #@! TD*
D21*
G04 #@! TO.P,REF\u002A\u002A,1*
G04 #@! TO.N,N/C*
X183235600Y-122682000D03*
D22*
X183235600Y-122682000D03*
G04 #@! TD*
D12*
G04 #@! TO.P,JP1,1,A*
G04 #@! TO.N,Net-(JP1-A)*
X159110600Y-108102400D03*
D13*
G04 #@! TO.P,JP1,2,B*
G04 #@! TO.N,Net-(J1-MOSI)*
X156570600Y-108102400D03*
G04 #@! TD*
D12*
G04 #@! TO.P,J5,1,Pin_1*
G04 #@! TO.N,+5C*
X167995600Y-121412000D03*
D13*
G04 #@! TO.P,J5,2,Pin_2*
G04 #@! TO.N,Net-(J5-Pin_2)*
X167995600Y-118872000D03*
G04 #@! TO.P,J5,3,Pin_3*
G04 #@! TO.N,+5C*
X170535600Y-121412000D03*
G04 #@! TO.P,J5,4,Pin_4*
G04 #@! TO.N,Net-(J5-Pin_4)*
X170535600Y-118872000D03*
G04 #@! TO.P,J5,5,Pin_5*
G04 #@! TO.N,+5C*
X173075600Y-121412000D03*
G04 #@! TO.P,J5,6,Pin_6*
G04 #@! TO.N,Net-(J5-Pin_6)*
X173075600Y-118872000D03*
G04 #@! TO.P,J5,7,Pin_7*
G04 #@! TO.N,+5C*
X175615600Y-121412000D03*
G04 #@! TO.P,J5,8,Pin_8*
G04 #@! TO.N,Net-(J5-Pin_8)*
X175615600Y-118872000D03*
G04 #@! TD*
D23*
G04 #@! TO.P,U1,39,GND*
G04 #@! TO.N,GND*
X164520600Y-93303900D03*
X164520600Y-94828900D03*
X165283100Y-92541400D03*
X165283100Y-94066400D03*
X165283100Y-95591400D03*
X166045600Y-93303900D03*
X166045600Y-94828900D03*
X166808100Y-92541400D03*
X166808100Y-94066400D03*
X166808100Y-95591400D03*
X167570600Y-93303900D03*
X167570600Y-94828900D03*
G04 #@! TD*
D12*
G04 #@! TO.P,J4,1,Pin_1*
G04 #@! TO.N,+5C*
X152755600Y-121412000D03*
D13*
G04 #@! TO.P,J4,2,Pin_2*
G04 #@! TO.N,Net-(J4-Pin_2)*
X152755600Y-118872000D03*
G04 #@! TO.P,J4,3,Pin_3*
G04 #@! TO.N,+5C*
X155295600Y-121412000D03*
G04 #@! TO.P,J4,4,Pin_4*
G04 #@! TO.N,Net-(J4-Pin_4)*
X155295600Y-118872000D03*
G04 #@! TO.P,J4,5,Pin_5*
G04 #@! TO.N,+5C*
X157835600Y-121412000D03*
G04 #@! TO.P,J4,6,Pin_6*
G04 #@! TO.N,Net-(J4-Pin_6)*
X157835600Y-118872000D03*
G04 #@! TO.P,J4,7,Pin_7*
G04 #@! TO.N,+5C*
X160375600Y-121412000D03*
G04 #@! TO.P,J4,8,Pin_8*
G04 #@! TO.N,Net-(J4-Pin_8)*
X160375600Y-118872000D03*
G04 #@! TD*
D12*
G04 #@! TO.P,JP2,1,A*
G04 #@! TO.N,GND*
X139293600Y-95275400D03*
D13*
G04 #@! TO.P,JP2,2,B*
G04 #@! TO.N,Net-(JP2-B)*
X141833600Y-95275400D03*
G04 #@! TD*
D24*
G04 #@! TO.N,GND*
X140690600Y-91846400D03*
D25*
X161400000Y-106700000D03*
X160426400Y-86817200D03*
X121005600Y-91846400D03*
X178155600Y-86766400D03*
G04 #@! TO.N,+3.3V*
X147000000Y-102000000D03*
X152501600Y-90449400D03*
X147192689Y-95874000D03*
X152501600Y-95250000D03*
X151695559Y-88712650D03*
G04 #@! TO.N,Net-(J1-RST)*
X156415014Y-103974419D03*
X173009600Y-100376400D03*
G04 #@! TO.N,Net-(J1-SCLK)*
X155370438Y-101596071D03*
X171527600Y-96672400D03*
G04 #@! TO.N,Net-(J1-SCS)*
X155841863Y-102807584D03*
X171500000Y-98100000D03*
G04 #@! TO.N,Net-(J10-Pin_2)*
X171500000Y-94000000D03*
G04 #@! TO.N,Net-(J10-Pin_1)*
X171500000Y-92600000D03*
G04 #@! TO.N,Net-(U1-IO0)*
X156235400Y-95275400D03*
X173600000Y-102100000D03*
G04 #@! TO.N,Net-(C2-Pad1)*
X135600000Y-87589400D03*
X126400000Y-87600000D03*
G04 #@! TD*
D26*
G04 #@! TO.N,GND*
X154069438Y-100530562D02*
X153238876Y-99700000D01*
D27*
X165100000Y-112600000D02*
X177855600Y-112600000D01*
X178155600Y-105600000D02*
X178155600Y-86833600D01*
D26*
X154340863Y-102800000D02*
X154340863Y-104977320D01*
D27*
X134010400Y-103967400D02*
X138100000Y-103967400D01*
X118872000Y-123952000D02*
X117348000Y-122428000D01*
X140690600Y-93116400D02*
X138150600Y-95656400D01*
D26*
X146400000Y-86700000D02*
X151200000Y-86700000D01*
D27*
X166045600Y-93303900D02*
X166045600Y-86827800D01*
X151300000Y-86800000D02*
X166006200Y-86800000D01*
X176817681Y-123952000D02*
X175615600Y-123952000D01*
X160425419Y-105725419D02*
X160450838Y-105700000D01*
X148919000Y-99425600D02*
X148945600Y-99425600D01*
X166045600Y-86827800D02*
X166073400Y-86800000D01*
X160450838Y-105700000D02*
X178055600Y-105700000D01*
X178155600Y-86833600D02*
X178122000Y-86800000D01*
X132601000Y-102558000D02*
X133705600Y-103662600D01*
X122910600Y-98196400D02*
X122910600Y-93751400D01*
D28*
X149825902Y-101886400D02*
X149825902Y-100305902D01*
D27*
X148900000Y-101700000D02*
X148900000Y-99444600D01*
X120558000Y-102558000D02*
X132601000Y-102558000D01*
D29*
X149825902Y-109506400D02*
X149333600Y-109506400D01*
D27*
X140690600Y-91846400D02*
X143318500Y-89218500D01*
X122275600Y-123952000D02*
X118872000Y-123952000D01*
X138100000Y-103967400D02*
X147400000Y-103967400D01*
D26*
X148900000Y-102300000D02*
X147400000Y-103800000D01*
D30*
X147400000Y-105478400D02*
X147621600Y-105700000D01*
D27*
X122275600Y-123952000D02*
X175615600Y-123952000D01*
X122910600Y-93751400D02*
X121005600Y-91846400D01*
D26*
X148900000Y-101700000D02*
X148900000Y-102300000D01*
D27*
X119862600Y-103253400D02*
X120558000Y-102558000D01*
X138150600Y-98196400D02*
X138150600Y-103916800D01*
D26*
X148945600Y-93751400D02*
X147851400Y-93751400D01*
D27*
X122910600Y-98196400D02*
X122910600Y-100205400D01*
D29*
X148763600Y-108936400D02*
X147421600Y-107594400D01*
D27*
X165100000Y-112600000D02*
X165100000Y-110500000D01*
D28*
X154340863Y-102800000D02*
X154069438Y-102528575D01*
D27*
X155088962Y-105725419D02*
X154590863Y-105227320D01*
X133705600Y-98247200D02*
X133654800Y-98196400D01*
X160425419Y-105725419D02*
X155088962Y-105725419D01*
D26*
X147400000Y-103800000D02*
X147400000Y-103967400D01*
D27*
X178155600Y-112900000D02*
X178155600Y-122614081D01*
X117348000Y-105768000D02*
X119862600Y-103253400D01*
X145837000Y-86700000D02*
X146400000Y-86700000D01*
X138150600Y-95656400D02*
X138150600Y-98196400D01*
X147421600Y-103989000D02*
X147400000Y-103967400D01*
X166073400Y-86800000D02*
X178122000Y-86800000D01*
X134010400Y-103967400D02*
X133705600Y-103662600D01*
X117348000Y-122428000D02*
X117348000Y-105768000D01*
X138150600Y-103916800D02*
X138100000Y-103967400D01*
D28*
X149825902Y-100305902D02*
X149220000Y-99700000D01*
D27*
X148900000Y-99444600D02*
X148919000Y-99425600D01*
X177855600Y-112600000D02*
X178155600Y-112900000D01*
X165100000Y-110500000D02*
X161400000Y-106800000D01*
D30*
X148127200Y-108300000D02*
X147421600Y-107594400D01*
D27*
X122910600Y-98196400D02*
X133654800Y-98196400D01*
D30*
X153918183Y-103300000D02*
X151239502Y-103300000D01*
X151239502Y-103300000D02*
X149825902Y-101886400D01*
D27*
X161400000Y-106800000D02*
X161400000Y-106700000D01*
D26*
X147851400Y-93751400D02*
X143318500Y-89218500D01*
D27*
X148945600Y-93751400D02*
X148945600Y-99425600D01*
D28*
X154069438Y-102528575D02*
X154069438Y-100530562D01*
D27*
X147421600Y-107594400D02*
X147421600Y-103989000D01*
D30*
X147400000Y-103967400D02*
X147400000Y-105478400D01*
D26*
X154340863Y-104977320D02*
X154590863Y-105227320D01*
D27*
X165100000Y-123952000D02*
X165100000Y-112600000D01*
D29*
X149333600Y-109506400D02*
X148763600Y-108936400D01*
D27*
X143318500Y-89218500D02*
X145837000Y-86700000D01*
X133705600Y-103662600D02*
X133705600Y-98247200D01*
X178155600Y-122614081D02*
X176817681Y-123952000D01*
X122910600Y-100205400D02*
X119862600Y-103253400D01*
D30*
X148427200Y-108600000D02*
X148127200Y-108300000D01*
X150463600Y-108936400D02*
X148763600Y-108936400D01*
D26*
X153238876Y-99700000D02*
X149220000Y-99700000D01*
D27*
X161400000Y-106700000D02*
X160425419Y-105725419D01*
D30*
X147621600Y-105700000D02*
X153735693Y-105700000D01*
D27*
X178055600Y-105700000D02*
X178155600Y-105600000D01*
X140690600Y-93116400D02*
X140690600Y-91846400D01*
X178155600Y-112900000D02*
X178155600Y-105600000D01*
X133654800Y-98196400D02*
X138150600Y-98196400D01*
G04 #@! TO.N,+5C*
X146900000Y-115900000D02*
X161000000Y-115900000D01*
X137515600Y-121412000D02*
X140055600Y-121412000D01*
X133600000Y-115900000D02*
X146900000Y-115900000D01*
X167995600Y-121412000D02*
X170535600Y-121412000D01*
X120612000Y-121412000D02*
X119862600Y-120662600D01*
X161000000Y-115900000D02*
X162700000Y-117600000D01*
X162700000Y-121200000D02*
X162600000Y-121200000D01*
X162700000Y-117600000D02*
X162700000Y-121200000D01*
X162600000Y-121200000D02*
X162388000Y-121412000D01*
X162388000Y-121412000D02*
X160375600Y-121412000D01*
X119862600Y-111173400D02*
X124589200Y-115900000D01*
X133600000Y-121312000D02*
X133700000Y-121412000D01*
X149000000Y-115900000D02*
X149000000Y-121312000D01*
X152755600Y-121412000D02*
X155295600Y-121412000D01*
X129895600Y-121412000D02*
X133700000Y-121412000D01*
X157835600Y-121412000D02*
X160375600Y-121412000D01*
X124815600Y-121412000D02*
X127355600Y-121412000D01*
X145135600Y-121412000D02*
X149900000Y-121412000D01*
X146900000Y-115900000D02*
X149000000Y-115900000D01*
X124589200Y-115900000D02*
X133600000Y-115900000D01*
X119862600Y-120662600D02*
X119862600Y-111173400D01*
X155295600Y-121412000D02*
X157835600Y-121412000D01*
X149900000Y-121412000D02*
X152755600Y-121412000D01*
X133600000Y-115900000D02*
X133600000Y-121312000D01*
X149000000Y-121312000D02*
X149100000Y-121412000D01*
X173075600Y-121412000D02*
X175615600Y-121412000D01*
X149100000Y-121412000D02*
X149900000Y-121412000D01*
X133700000Y-121412000D02*
X137515600Y-121412000D01*
X122275600Y-121412000D02*
X124815600Y-121412000D01*
X170535600Y-121412000D02*
X173075600Y-121412000D01*
X122275600Y-121412000D02*
X120612000Y-121412000D01*
X140055600Y-121412000D02*
X142595600Y-121412000D01*
X127355600Y-121412000D02*
X129895600Y-121412000D01*
X142595600Y-121412000D02*
X145135600Y-121412000D01*
G04 #@! TO.N,+5V*
X146800000Y-110100000D02*
X148746400Y-112046400D01*
X148746400Y-112046400D02*
X149825902Y-112046400D01*
X132400000Y-110100000D02*
X146800000Y-110100000D01*
X129513400Y-107213400D02*
X132400000Y-110100000D01*
X149825902Y-112046400D02*
X149779502Y-112000000D01*
X119862600Y-107213400D02*
X129513400Y-107213400D01*
D30*
G04 #@! TO.N,+3.3V*
X147000000Y-96066689D02*
X147192689Y-95874000D01*
D29*
X152501600Y-89052400D02*
X152501600Y-90449400D01*
D30*
X147000000Y-102000000D02*
X147000000Y-96066689D01*
D29*
X152161850Y-88712650D02*
X152501600Y-89052400D01*
X151695559Y-88712650D02*
X152161850Y-88712650D01*
X152501600Y-90449400D02*
X152501600Y-95250000D01*
D30*
G04 #@! TO.N,Net-(J1-RST)*
X158025581Y-103974419D02*
X161700000Y-100300000D01*
X161700000Y-100300000D02*
X172933200Y-100300000D01*
X172933200Y-100300000D02*
X173009600Y-100376400D01*
X156415014Y-103974419D02*
X158025581Y-103974419D01*
G04 #@! TO.N,Net-(J1-MOSI)*
X154702400Y-108102400D02*
X153566400Y-106966400D01*
X153566400Y-106966400D02*
X152365902Y-106966400D01*
X156570600Y-108102400D02*
X154702400Y-108102400D01*
G04 #@! TO.N,Net-(J1-SCLK)*
X158061000Y-101400000D02*
X160361000Y-99100000D01*
X160361000Y-99100000D02*
X169100000Y-99100000D01*
X155370438Y-101596071D02*
X155566509Y-101400000D01*
X155566509Y-101400000D02*
X158061000Y-101400000D01*
X169100000Y-99100000D02*
X171527600Y-96672400D01*
G04 #@! TO.N,Net-(J1-SCS)*
X171396400Y-98100000D02*
X171500000Y-98100000D01*
X169796400Y-99700000D02*
X171396400Y-98100000D01*
X155841863Y-102807584D02*
X157578413Y-102807584D01*
X157578413Y-102807584D02*
X160685997Y-99700000D01*
X160685997Y-99700000D02*
X169796400Y-99700000D01*
G04 #@! TO.N,Net-(J10-Pin_2)*
X170100000Y-95400000D02*
X170100000Y-96300000D01*
X155625600Y-94374400D02*
X153100000Y-96900000D01*
X150599000Y-95753261D02*
X150599000Y-92864800D01*
X160200000Y-97900000D02*
X156674400Y-94374400D01*
X170100000Y-96300000D02*
X168500000Y-97900000D01*
X153100000Y-96900000D02*
X151745739Y-96900000D01*
X151745739Y-96900000D02*
X150599000Y-95753261D01*
X156674400Y-94374400D02*
X155625600Y-94374400D01*
X168500000Y-97900000D02*
X160200000Y-97900000D01*
X171500000Y-94000000D02*
X170100000Y-95400000D01*
X150599000Y-92864800D02*
X148945600Y-91211400D01*
G04 #@! TO.N,Net-(J10-Pin_1)*
X155395740Y-93800000D02*
X153700000Y-95495740D01*
X153700000Y-95495740D02*
X153700000Y-95500000D01*
X160500000Y-97300000D02*
X157000000Y-93800000D01*
X151100000Y-90825800D02*
X148945600Y-88671400D01*
X171500000Y-92600000D02*
X169400000Y-94700000D01*
X157000000Y-93800000D02*
X155395740Y-93800000D01*
X168200000Y-97300000D02*
X160500000Y-97300000D01*
X169400000Y-94700000D02*
X169400000Y-96100000D01*
X152900000Y-96300000D02*
X151900000Y-96300000D01*
X151100000Y-95500000D02*
X151100000Y-90825800D01*
X169400000Y-96100000D02*
X168200000Y-97300000D01*
X153700000Y-95500000D02*
X152900000Y-96300000D01*
X151900000Y-96300000D02*
X151100000Y-95500000D01*
G04 #@! TO.N,Net-(U1-IO0)*
X174000000Y-97400000D02*
X174000000Y-101800000D01*
X159460000Y-98500000D02*
X168800000Y-98500000D01*
X170626600Y-96673400D02*
X170626600Y-96299193D01*
X168800000Y-98500000D02*
X170626600Y-96673400D01*
X174000000Y-101800000D02*
X173700000Y-102100000D01*
X171425793Y-95500000D02*
X172100000Y-95500000D01*
X173700000Y-102100000D02*
X173600000Y-102100000D01*
X172100000Y-95500000D02*
X174000000Y-97400000D01*
X170626600Y-96299193D02*
X171425793Y-95500000D01*
X156235400Y-95275400D02*
X159460000Y-98500000D01*
G04 #@! TO.N,Net-(C2-Pad1)*
X135600000Y-87800000D02*
X135600000Y-87589400D01*
X135400000Y-87600000D02*
X135600000Y-87800000D01*
X126400000Y-87600000D02*
X135400000Y-87600000D01*
G04 #@! TD*
G04 #@! TA.AperFunction,Conductor*
G04 #@! TO.N,GND*
G36*
X167985371Y-91950381D02*
G01*
X168025746Y-91958412D01*
X168070443Y-91976927D01*
X168094313Y-91992877D01*
X168100205Y-91998769D01*
X168104937Y-92000829D01*
X168128522Y-92027086D01*
X168144472Y-92050956D01*
X168162988Y-92095655D01*
X168171017Y-92136020D01*
X168173400Y-92160210D01*
X168173400Y-95977589D01*
X168171017Y-96001782D01*
X168162988Y-96042144D01*
X168159797Y-96049846D01*
X168159705Y-96055006D01*
X168144472Y-96086843D01*
X168128522Y-96110713D01*
X168094313Y-96144922D01*
X168070443Y-96160872D01*
X168025744Y-96179388D01*
X168009241Y-96182670D01*
X167985378Y-96187417D01*
X167961189Y-96189800D01*
X164143811Y-96189800D01*
X164119620Y-96187417D01*
X164104344Y-96184378D01*
X164079256Y-96179388D01*
X164034556Y-96160872D01*
X164010686Y-96144922D01*
X163976477Y-96110713D01*
X163960527Y-96086843D01*
X163942012Y-96042146D01*
X163933981Y-96001771D01*
X163931600Y-95977589D01*
X163931600Y-92160210D01*
X163933981Y-92136029D01*
X163942012Y-92095651D01*
X163960527Y-92050956D01*
X163976477Y-92027086D01*
X164010686Y-91992877D01*
X164034556Y-91976927D01*
X164079253Y-91958412D01*
X164119627Y-91950381D01*
X164143811Y-91948000D01*
X167961189Y-91948000D01*
X167985371Y-91950381D01*
G37*
G04 #@! TD.AperFunction*
G04 #@! TD*
M02*
