G04 #@! TF.GenerationSoftware,KiCad,Pcbnew,9.0.6*
G04 #@! TF.CreationDate,2026-01-30T17:04:59+01:00*
G04 #@! TF.ProjectId,ESP32_PWM_PCB,45535033-325f-4505-974d-5f5043422e6b,1.0*
G04 #@! TF.SameCoordinates,Original*
G04 #@! TF.FileFunction,Soldermask,Top*
G04 #@! TF.FilePolarity,Negative*
%FSLAX46Y46*%
G04 Gerber Fmt 4.6, Leading zero omitted, Abs format (unit mm)*
G04 Created by KiCad (PCBNEW 9.0.6) date 2026-01-30 17:04:59*
%MOMM*%
%LPD*%
G01*
G04 APERTURE LIST*
G04 Aperture macros list*
%AMRoundRect*
0 Rectangle with rounded corners*
0 $1 Rounding radius*
0 $2 $3 $4 $5 $6 $7 $8 $9 X,Y pos of 4 corners*
0 Add a 4 corners polygon primitive as box body*
4,1,4,$2,$3,$4,$5,$6,$7,$8,$9,$2,$3,0*
0 Add four circle primitives for the rounded corners*
1,1,$1+$1,$2,$3*
1,1,$1+$1,$4,$5*
1,1,$1+$1,$6,$7*
1,1,$1+$1,$8,$9*
0 Add four rect primitives between the rounded corners*
20,1,$1+$1,$2,$3,$4,$5,0*
20,1,$1+$1,$4,$5,$6,$7,0*
20,1,$1+$1,$6,$7,$8,$9,0*
20,1,$1+$1,$8,$9,$2,$3,0*%
G04 Aperture macros list end*
%ADD10R,1.800000X1.800000*%
%ADD11C,1.800000*%
%ADD12RoundRect,0.200000X0.275000X-0.200000X0.275000X0.200000X-0.275000X0.200000X-0.275000X-0.200000X0*%
%ADD13R,1.700000X1.700000*%
%ADD14C,1.700000*%
%ADD15RoundRect,0.250000X0.650000X-0.325000X0.650000X0.325000X-0.650000X0.325000X-0.650000X-0.325000X0*%
%ADD16C,2.600000*%
%ADD17C,3.800000*%
%ADD18RoundRect,0.200000X-0.275000X0.200000X-0.275000X-0.200000X0.275000X-0.200000X0.275000X0.200000X0*%
%ADD19RoundRect,0.225000X-0.225000X-0.250000X0.225000X-0.250000X0.225000X0.250000X-0.225000X0.250000X0*%
%ADD20RoundRect,0.250000X1.000000X0.650000X-1.000000X0.650000X-1.000000X-0.650000X1.000000X-0.650000X0*%
%ADD21RoundRect,0.200000X0.200000X0.275000X-0.200000X0.275000X-0.200000X-0.275000X0.200000X-0.275000X0*%
%ADD22RoundRect,0.375000X-0.625000X-0.375000X0.625000X-0.375000X0.625000X0.375000X-0.625000X0.375000X0*%
%ADD23RoundRect,0.500000X-0.500000X-1.400000X0.500000X-1.400000X0.500000X1.400000X-0.500000X1.400000X0*%
%ADD24RoundRect,0.200000X-0.200000X-0.275000X0.200000X-0.275000X0.200000X0.275000X-0.200000X0.275000X0*%
%ADD25RoundRect,0.236220X-0.513780X-0.513780X0.513780X-0.513780X0.513780X0.513780X-0.513780X0.513780X0*%
%ADD26RoundRect,0.225000X0.250000X-0.225000X0.250000X0.225000X-0.250000X0.225000X-0.250000X-0.225000X0*%
%ADD27R,1.800000X1.100000*%
%ADD28RoundRect,0.250001X-0.949999X0.949999X-0.949999X-0.949999X0.949999X-0.949999X0.949999X0.949999X0*%
%ADD29C,2.400000*%
%ADD30RoundRect,0.250000X0.550000X-0.550000X0.550000X0.550000X-0.550000X0.550000X-0.550000X-0.550000X0*%
%ADD31C,1.600000*%
%ADD32C,3.600000*%
%ADD33C,5.500000*%
%ADD34R,1.500000X0.900000*%
%ADD35R,0.900000X1.500000*%
%ADD36C,0.600000*%
%ADD37R,4.200000X4.200000*%
%ADD38RoundRect,0.225000X-0.250000X0.225000X-0.250000X-0.225000X0.250000X-0.225000X0.250000X0.225000X0*%
G04 APERTURE END LIST*
D10*
G04 #@! TO.C,D1*
X164820600Y-109626400D03*
D11*
X167360600Y-109626400D03*
G04 #@! TD*
D12*
G04 #@! TO.C,R3*
X172440600Y-107886000D03*
X172440600Y-106236000D03*
G04 #@! TD*
D13*
G04 #@! TO.C,J2*
X122275600Y-121412000D03*
D14*
X122275600Y-118872000D03*
X124815600Y-121412000D03*
X124815600Y-118872000D03*
X127355600Y-121412000D03*
X127355600Y-118872000D03*
X129895600Y-121412000D03*
X129895600Y-118872000D03*
G04 #@! TD*
D15*
G04 #@! TO.C,C4*
X119481600Y-96572600D03*
X119481600Y-93622600D03*
G04 #@! TD*
D16*
G04 #@! TO.C,REF\u002A\u002A*
X183210200Y-88036400D03*
D17*
X183210200Y-88036400D03*
G04 #@! TD*
D18*
G04 #@! TO.C,R5*
X122275600Y-114489000D03*
X122275600Y-116139000D03*
G04 #@! TD*
G04 #@! TO.C,R17*
X167995600Y-114489000D03*
X167995600Y-116139000D03*
G04 #@! TD*
D19*
G04 #@! TO.C,C3*
X133972000Y-92837000D03*
X135522000Y-92837000D03*
G04 #@! TD*
D20*
G04 #@! TO.C,D2*
X119754400Y-99200000D03*
X115754400Y-99200000D03*
G04 #@! TD*
D21*
G04 #@! TO.C,R1*
X146125000Y-95600000D03*
X144475000Y-95600000D03*
G04 #@! TD*
D13*
G04 #@! TO.C,J9*
X167995600Y-123952000D03*
D14*
X170535600Y-123952000D03*
X173075600Y-123952000D03*
X175615600Y-123952000D03*
G04 #@! TD*
D13*
G04 #@! TO.C,J6*
X122275600Y-123952000D03*
D14*
X124815600Y-123952000D03*
X127355600Y-123952000D03*
X129895600Y-123952000D03*
G04 #@! TD*
D22*
G04 #@! TO.C,U2*
X123925800Y-94575600D03*
X123925800Y-96875600D03*
D23*
X130225800Y-96875600D03*
D22*
X123925800Y-99175600D03*
G04 #@! TD*
D13*
G04 #@! TO.C,J8*
X152755600Y-123952000D03*
D14*
X155295600Y-123952000D03*
X157835600Y-123952000D03*
X160375600Y-123952000D03*
G04 #@! TD*
D19*
G04 #@! TO.C,C2*
X133972000Y-94335600D03*
X135522000Y-94335600D03*
G04 #@! TD*
D13*
G04 #@! TO.C,JP3*
X139293600Y-97815400D03*
D14*
X141833600Y-97815400D03*
G04 #@! TD*
D24*
G04 #@! TO.C,R26*
X146000000Y-107300000D03*
X147650000Y-107300000D03*
G04 #@! TD*
D18*
G04 #@! TO.C,R18*
X170535600Y-114489000D03*
X170535600Y-116139000D03*
G04 #@! TD*
G04 #@! TO.C,R14*
X155295600Y-114489000D03*
X155295600Y-116139000D03*
G04 #@! TD*
D25*
G04 #@! TO.C,J1*
X149825902Y-101886400D03*
X152365902Y-101886400D03*
X149825902Y-104426400D03*
X152365902Y-104426400D03*
X149825902Y-106966400D03*
X152365902Y-106966400D03*
X149825902Y-109506400D03*
X152365902Y-109506400D03*
X149825902Y-112046400D03*
X152365902Y-112046400D03*
G04 #@! TD*
D26*
G04 #@! TO.C,C7*
X115214400Y-107201000D03*
X115214400Y-105651000D03*
G04 #@! TD*
D27*
G04 #@! TO.C,SW2*
X137515600Y-88091400D03*
X143715600Y-88091400D03*
X137515600Y-91791400D03*
X143715600Y-91791400D03*
G04 #@! TD*
D18*
G04 #@! TO.C,R13*
X152755600Y-114489000D03*
X152755600Y-116139000D03*
G04 #@! TD*
G04 #@! TO.C,R8*
X129895600Y-114489000D03*
X129895600Y-116139000D03*
G04 #@! TD*
G04 #@! TO.C,R19*
X173075600Y-114493000D03*
X173075600Y-116143000D03*
G04 #@! TD*
D15*
G04 #@! TO.C,C5*
X116484400Y-96547200D03*
X116484400Y-93597200D03*
G04 #@! TD*
D24*
G04 #@! TO.C,R2*
X153353000Y-92700000D03*
X155003000Y-92700000D03*
G04 #@! TD*
D13*
G04 #@! TO.C,J10*
X148945600Y-88671400D03*
D14*
X148945600Y-91211400D03*
X148945600Y-93751400D03*
G04 #@! TD*
D13*
G04 #@! TO.C,J3*
X137515600Y-121412000D03*
D14*
X137515600Y-118872000D03*
X140055600Y-121412000D03*
X140055600Y-118872000D03*
X142595600Y-121412000D03*
X142595600Y-118872000D03*
X145135600Y-121412000D03*
X145135600Y-118872000D03*
G04 #@! TD*
D18*
G04 #@! TO.C,R12*
X145135600Y-114489000D03*
X145135600Y-116139000D03*
G04 #@! TD*
G04 #@! TO.C,R16*
X160375600Y-114493000D03*
X160375600Y-116143000D03*
G04 #@! TD*
D28*
G04 #@! TO.C,J11*
X119862600Y-103253400D03*
D29*
X119862600Y-107213400D03*
X119862600Y-111173400D03*
G04 #@! TD*
D21*
G04 #@! TO.C,R21*
X155025000Y-88200000D03*
X153375000Y-88200000D03*
G04 #@! TD*
D30*
G04 #@! TO.C,C1*
X134010400Y-107467400D03*
D31*
X134010400Y-103967400D03*
G04 #@! TD*
D21*
G04 #@! TO.C,R27*
X147650000Y-105500000D03*
X146000000Y-105500000D03*
G04 #@! TD*
D32*
G04 #@! TO.C,REF\u002A\u002A*
X112115600Y-89941400D03*
D33*
X112115600Y-89941400D03*
G04 #@! TD*
D27*
G04 #@! TO.C,SW1*
X124100000Y-91750000D03*
X117900000Y-91750000D03*
X124100000Y-88050000D03*
X117900000Y-88050000D03*
G04 #@! TD*
D32*
G04 #@! TO.C,REF\u002A\u002A*
X112115600Y-122682000D03*
D33*
X112115600Y-122682000D03*
G04 #@! TD*
D13*
G04 #@! TO.C,J7*
X137515600Y-123952000D03*
D14*
X140055600Y-123952000D03*
X142595600Y-123952000D03*
X145135600Y-123952000D03*
G04 #@! TD*
D18*
G04 #@! TO.C,R9*
X137515600Y-114489000D03*
X137515600Y-116139000D03*
G04 #@! TD*
G04 #@! TO.C,R15*
X157835600Y-114493000D03*
X157835600Y-116143000D03*
G04 #@! TD*
D24*
G04 #@! TO.C,R4*
X153353000Y-91200000D03*
X155003000Y-91200000D03*
G04 #@! TD*
D32*
G04 #@! TO.C,REF\u002A\u002A*
X183235600Y-122682000D03*
D33*
X183235600Y-122682000D03*
G04 #@! TD*
D24*
G04 #@! TO.C,R22*
X153375000Y-89700000D03*
X155025000Y-89700000D03*
G04 #@! TD*
D12*
G04 #@! TO.C,R25*
X144100000Y-107150000D03*
X144100000Y-105500000D03*
G04 #@! TD*
D18*
G04 #@! TO.C,R20*
X175615600Y-114489000D03*
X175615600Y-116139000D03*
G04 #@! TD*
D21*
G04 #@! TO.C,R24*
X154990800Y-96443800D03*
X153340800Y-96443800D03*
G04 #@! TD*
D18*
G04 #@! TO.C,R6*
X124815600Y-114491000D03*
X124815600Y-116141000D03*
G04 #@! TD*
D13*
G04 #@! TO.C,JP1*
X159110600Y-108102400D03*
D14*
X156570600Y-108102400D03*
G04 #@! TD*
D13*
G04 #@! TO.C,J5*
X167995600Y-121412000D03*
D14*
X167995600Y-118872000D03*
X170535600Y-121412000D03*
X170535600Y-118872000D03*
X173075600Y-121412000D03*
X173075600Y-118872000D03*
X175615600Y-121412000D03*
X175615600Y-118872000D03*
G04 #@! TD*
D34*
G04 #@! TO.C,U1*
X157975600Y-86726400D03*
X157975600Y-87996400D03*
X157975600Y-89266400D03*
X157975600Y-90536400D03*
X157975600Y-91806400D03*
X157975600Y-93076400D03*
X157975600Y-94346400D03*
X157975600Y-95616400D03*
X157975600Y-96886400D03*
X157975600Y-98156400D03*
X157975600Y-99426400D03*
X157975600Y-100696400D03*
X157975600Y-101966400D03*
X157975600Y-103236400D03*
D35*
X161015600Y-104486400D03*
X162285600Y-104486400D03*
X163555600Y-104486400D03*
X164825600Y-104486400D03*
X166095600Y-104486400D03*
X167365600Y-104486400D03*
X168635600Y-104486400D03*
X169905600Y-104486400D03*
X171175600Y-104486400D03*
X172445600Y-104486400D03*
D34*
X175475600Y-103236400D03*
X175475600Y-101966400D03*
X175475600Y-100696400D03*
X175475600Y-99426400D03*
X175475600Y-98156400D03*
X175475600Y-96886400D03*
X175475600Y-95616400D03*
X175475600Y-94346400D03*
X175475600Y-93076400D03*
X175475600Y-91806400D03*
X175475600Y-90536400D03*
X175475600Y-89266400D03*
X175475600Y-87996400D03*
X175475600Y-86726400D03*
D36*
X164520600Y-93303900D03*
X164520600Y-94828900D03*
X165283100Y-92541400D03*
X165283100Y-94066400D03*
X165283100Y-95591400D03*
X166045600Y-93303900D03*
D37*
X166045600Y-94066400D03*
D36*
X166045600Y-94828900D03*
X166808100Y-92541400D03*
X166808100Y-94066400D03*
X166808100Y-95591400D03*
X167570600Y-93303900D03*
X167570600Y-94828900D03*
G04 #@! TD*
D18*
G04 #@! TO.C,R10*
X140055600Y-114489000D03*
X140055600Y-116139000D03*
G04 #@! TD*
D24*
G04 #@! TO.C,R23*
X153340800Y-94945200D03*
X154990800Y-94945200D03*
G04 #@! TD*
D38*
G04 #@! TO.C,C6*
X115341400Y-101725000D03*
X115341400Y-103275000D03*
G04 #@! TD*
D13*
G04 #@! TO.C,J4*
X152755600Y-121412000D03*
D14*
X152755600Y-118872000D03*
X155295600Y-121412000D03*
X155295600Y-118872000D03*
X157835600Y-121412000D03*
X157835600Y-118872000D03*
X160375600Y-121412000D03*
X160375600Y-118872000D03*
G04 #@! TD*
D18*
G04 #@! TO.C,R11*
X142595600Y-114489000D03*
X142595600Y-116139000D03*
G04 #@! TD*
G04 #@! TO.C,R7*
X127355600Y-114489000D03*
X127355600Y-116139000D03*
G04 #@! TD*
D13*
G04 #@! TO.C,JP2*
X139293600Y-95275400D03*
D14*
X141833600Y-95275400D03*
G04 #@! TD*
M02*
