G04 #@! TF.GenerationSoftware,KiCad,Pcbnew,9.0.6*
G04 #@! TF.CreationDate,2026-01-30T17:04:59+01:00*
G04 #@! TF.ProjectId,ESP32_PWM_PCB,45535033-325f-4505-974d-5f5043422e6b,1.0*
G04 #@! TF.SameCoordinates,Original*
G04 #@! TF.FileFunction,Copper,L1,Top*
G04 #@! TF.FilePolarity,Positive*
%FSLAX46Y46*%
G04 Gerber Fmt 4.6, Leading zero omitted, Abs format (unit mm)*
G04 Created by KiCad (PCBNEW 9.0.6) date 2026-01-30 17:04:59*
%MOMM*%
%LPD*%
G01*
G04 APERTURE LIST*
G04 Aperture macros list*
%AMRoundRect*
0 Rectangle with rounded corners*
0 $1 Rounding radius*
0 $2 $3 $4 $5 $6 $7 $8 $9 X,Y pos of 4 corners*
0 Add a 4 corners polygon primitive as box body*
4,1,4,$2,$3,$4,$5,$6,$7,$8,$9,$2,$3,0*
0 Add four circle primitives for the rounded corners*
1,1,$1+$1,$2,$3*
1,1,$1+$1,$4,$5*
1,1,$1+$1,$6,$7*
1,1,$1+$1,$8,$9*
0 Add four rect primitives between the rounded corners*
20,1,$1+$1,$2,$3,$4,$5,0*
20,1,$1+$1,$4,$5,$6,$7,0*
20,1,$1+$1,$6,$7,$8,$9,0*
20,1,$1+$1,$8,$9,$2,$3,0*%
G04 Aperture macros list end*
G04 #@! TA.AperFunction,ComponentPad*
%ADD10R,1.800000X1.800000*%
G04 #@! TD*
G04 #@! TA.AperFunction,ComponentPad*
%ADD11C,1.800000*%
G04 #@! TD*
G04 #@! TA.AperFunction,SMDPad,CuDef*
%ADD12RoundRect,0.200000X0.275000X-0.200000X0.275000X0.200000X-0.275000X0.200000X-0.275000X-0.200000X0*%
G04 #@! TD*
G04 #@! TA.AperFunction,ComponentPad*
%ADD13R,1.700000X1.700000*%
G04 #@! TD*
G04 #@! TA.AperFunction,ComponentPad*
%ADD14C,1.700000*%
G04 #@! TD*
G04 #@! TA.AperFunction,SMDPad,CuDef*
%ADD15RoundRect,0.250000X0.650000X-0.325000X0.650000X0.325000X-0.650000X0.325000X-0.650000X-0.325000X0*%
G04 #@! TD*
G04 #@! TA.AperFunction,ComponentPad*
%ADD16C,2.600000*%
G04 #@! TD*
G04 #@! TA.AperFunction,ConnectorPad*
%ADD17C,3.800000*%
G04 #@! TD*
G04 #@! TA.AperFunction,SMDPad,CuDef*
%ADD18RoundRect,0.200000X-0.275000X0.200000X-0.275000X-0.200000X0.275000X-0.200000X0.275000X0.200000X0*%
G04 #@! TD*
G04 #@! TA.AperFunction,SMDPad,CuDef*
%ADD19RoundRect,0.225000X-0.225000X-0.250000X0.225000X-0.250000X0.225000X0.250000X-0.225000X0.250000X0*%
G04 #@! TD*
G04 #@! TA.AperFunction,SMDPad,CuDef*
%ADD20RoundRect,0.250000X1.000000X0.650000X-1.000000X0.650000X-1.000000X-0.650000X1.000000X-0.650000X0*%
G04 #@! TD*
G04 #@! TA.AperFunction,SMDPad,CuDef*
%ADD21RoundRect,0.200000X0.200000X0.275000X-0.200000X0.275000X-0.200000X-0.275000X0.200000X-0.275000X0*%
G04 #@! TD*
G04 #@! TA.AperFunction,SMDPad,CuDef*
%ADD22RoundRect,0.375000X-0.625000X-0.375000X0.625000X-0.375000X0.625000X0.375000X-0.625000X0.375000X0*%
G04 #@! TD*
G04 #@! TA.AperFunction,SMDPad,CuDef*
%ADD23RoundRect,0.500000X-0.500000X-1.400000X0.500000X-1.400000X0.500000X1.400000X-0.500000X1.400000X0*%
G04 #@! TD*
G04 #@! TA.AperFunction,SMDPad,CuDef*
%ADD24RoundRect,0.200000X-0.200000X-0.275000X0.200000X-0.275000X0.200000X0.275000X-0.200000X0.275000X0*%
G04 #@! TD*
G04 #@! TA.AperFunction,ComponentPad*
%ADD25RoundRect,0.236220X-0.513780X-0.513780X0.513780X-0.513780X0.513780X0.513780X-0.513780X0.513780X0*%
G04 #@! TD*
G04 #@! TA.AperFunction,SMDPad,CuDef*
%ADD26RoundRect,0.225000X0.250000X-0.225000X0.250000X0.225000X-0.250000X0.225000X-0.250000X-0.225000X0*%
G04 #@! TD*
G04 #@! TA.AperFunction,SMDPad,CuDef*
%ADD27R,1.800000X1.100000*%
G04 #@! TD*
G04 #@! TA.AperFunction,ComponentPad*
%ADD28RoundRect,0.250001X-0.949999X0.949999X-0.949999X-0.949999X0.949999X-0.949999X0.949999X0.949999X0*%
G04 #@! TD*
G04 #@! TA.AperFunction,ComponentPad*
%ADD29C,2.400000*%
G04 #@! TD*
G04 #@! TA.AperFunction,ComponentPad*
%ADD30RoundRect,0.250000X0.550000X-0.550000X0.550000X0.550000X-0.550000X0.550000X-0.550000X-0.550000X0*%
G04 #@! TD*
G04 #@! TA.AperFunction,ComponentPad*
%ADD31C,1.600000*%
G04 #@! TD*
G04 #@! TA.AperFunction,ComponentPad*
%ADD32C,3.600000*%
G04 #@! TD*
G04 #@! TA.AperFunction,ConnectorPad*
%ADD33C,5.500000*%
G04 #@! TD*
G04 #@! TA.AperFunction,SMDPad,CuDef*
%ADD34R,1.500000X0.900000*%
G04 #@! TD*
G04 #@! TA.AperFunction,SMDPad,CuDef*
%ADD35R,0.900000X1.500000*%
G04 #@! TD*
G04 #@! TA.AperFunction,SMDPad,CuDef*
%ADD36R,1.050000X1.050000*%
G04 #@! TD*
G04 #@! TA.AperFunction,HeatsinkPad*
%ADD37C,0.600000*%
G04 #@! TD*
G04 #@! TA.AperFunction,HeatsinkPad*
%ADD38R,4.200000X4.200000*%
G04 #@! TD*
G04 #@! TA.AperFunction,SMDPad,CuDef*
%ADD39RoundRect,0.225000X-0.250000X0.225000X-0.250000X-0.225000X0.250000X-0.225000X0.250000X0.225000X0*%
G04 #@! TD*
G04 #@! TA.AperFunction,ViaPad*
%ADD40C,1.000000*%
G04 #@! TD*
G04 #@! TA.AperFunction,ViaPad*
%ADD41C,1.100000*%
G04 #@! TD*
G04 #@! TA.AperFunction,Conductor*
%ADD42C,0.300000*%
G04 #@! TD*
G04 #@! TA.AperFunction,Conductor*
%ADD43C,1.000000*%
G04 #@! TD*
G04 #@! TA.AperFunction,Conductor*
%ADD44C,2.000000*%
G04 #@! TD*
G04 #@! TA.AperFunction,Conductor*
%ADD45C,0.400000*%
G04 #@! TD*
G04 #@! TA.AperFunction,Conductor*
%ADD46C,1.500000*%
G04 #@! TD*
G04 #@! TA.AperFunction,Conductor*
%ADD47C,1.100000*%
G04 #@! TD*
G04 APERTURE END LIST*
D10*
G04 #@! TO.P,D1,1,K*
G04 #@! TO.N,GND*
X164820600Y-109626400D03*
D11*
G04 #@! TO.P,D1,2,A*
G04 #@! TO.N,Net-(D1-A)*
X167360600Y-109626400D03*
G04 #@! TD*
D12*
G04 #@! TO.P,R3,1*
G04 #@! TO.N,Net-(D1-A)*
X172440600Y-107886000D03*
G04 #@! TO.P,R3,2*
G04 #@! TO.N,Net-(U1-IO2)*
X172440600Y-106236000D03*
G04 #@! TD*
D13*
G04 #@! TO.P,J2,1,Pin_1*
G04 #@! TO.N,+5C*
X122275600Y-121412000D03*
D14*
G04 #@! TO.P,J2,2,Pin_2*
G04 #@! TO.N,Net-(J2-Pin_2)*
X122275600Y-118872000D03*
G04 #@! TO.P,J2,3,Pin_3*
G04 #@! TO.N,+5C*
X124815600Y-121412000D03*
G04 #@! TO.P,J2,4,Pin_4*
G04 #@! TO.N,Net-(J2-Pin_4)*
X124815600Y-118872000D03*
G04 #@! TO.P,J2,5,Pin_5*
G04 #@! TO.N,+5C*
X127355600Y-121412000D03*
G04 #@! TO.P,J2,6,Pin_6*
G04 #@! TO.N,Net-(J2-Pin_6)*
X127355600Y-118872000D03*
G04 #@! TO.P,J2,7,Pin_7*
G04 #@! TO.N,+5C*
X129895600Y-121412000D03*
G04 #@! TO.P,J2,8,Pin_8*
G04 #@! TO.N,Net-(J2-Pin_8)*
X129895600Y-118872000D03*
G04 #@! TD*
D15*
G04 #@! TO.P,C4,1*
G04 #@! TO.N,+5V*
X119481600Y-96572600D03*
G04 #@! TO.P,C4,2*
G04 #@! TO.N,GND*
X119481600Y-93622600D03*
G04 #@! TD*
D16*
G04 #@! TO.P,REF\u002A\u002A,1*
G04 #@! TO.N,N/C*
X183210200Y-88036400D03*
D17*
X183210200Y-88036400D03*
G04 #@! TD*
D18*
G04 #@! TO.P,R5,1*
G04 #@! TO.N,Net-(U1-IO32)*
X122275600Y-114489000D03*
G04 #@! TO.P,R5,2*
G04 #@! TO.N,Net-(J2-Pin_2)*
X122275600Y-116139000D03*
G04 #@! TD*
G04 #@! TO.P,R17,1*
G04 #@! TO.N,Net-(U1-IO19)*
X167995600Y-114489000D03*
G04 #@! TO.P,R17,2*
G04 #@! TO.N,Net-(J5-Pin_2)*
X167995600Y-116139000D03*
G04 #@! TD*
D19*
G04 #@! TO.P,C3,1*
G04 #@! TO.N,Net-(C3-Pad1)*
X133972000Y-92837000D03*
G04 #@! TO.P,C3,2*
G04 #@! TO.N,GND*
X135522000Y-92837000D03*
G04 #@! TD*
D20*
G04 #@! TO.P,D2,1,K*
G04 #@! TO.N,+5V*
X119754400Y-99200000D03*
G04 #@! TO.P,D2,2,A*
G04 #@! TO.N,+3.3V*
X115754400Y-99200000D03*
G04 #@! TD*
D21*
G04 #@! TO.P,R1,1*
G04 #@! TO.N,+3.3V*
X146125000Y-95600000D03*
G04 #@! TO.P,R1,2*
G04 #@! TO.N,Net-(JP2-B)*
X144475000Y-95600000D03*
G04 #@! TD*
D13*
G04 #@! TO.P,J9,1,Pin_1*
G04 #@! TO.N,GND*
X167995600Y-123952000D03*
D14*
G04 #@! TO.P,J9,2,Pin_2*
X170535600Y-123952000D03*
G04 #@! TO.P,J9,3,Pin_3*
X173075600Y-123952000D03*
G04 #@! TO.P,J9,4,Pin_4*
X175615600Y-123952000D03*
G04 #@! TD*
D13*
G04 #@! TO.P,J6,1,Pin_1*
G04 #@! TO.N,GND*
X122275600Y-123952000D03*
D14*
G04 #@! TO.P,J6,2,Pin_2*
X124815600Y-123952000D03*
G04 #@! TO.P,J6,3,Pin_3*
X127355600Y-123952000D03*
G04 #@! TO.P,J6,4,Pin_4*
X129895600Y-123952000D03*
G04 #@! TD*
D22*
G04 #@! TO.P,U2,1,GND*
G04 #@! TO.N,GND*
X123925800Y-94575600D03*
G04 #@! TO.P,U2,2,VO*
G04 #@! TO.N,+3.3V*
X123925800Y-96875600D03*
D23*
X130225800Y-96875600D03*
D22*
G04 #@! TO.P,U2,3,VI*
G04 #@! TO.N,+5V*
X123925800Y-99175600D03*
G04 #@! TD*
D13*
G04 #@! TO.P,J8,1,Pin_1*
G04 #@! TO.N,GND*
X152755600Y-123952000D03*
D14*
G04 #@! TO.P,J8,2,Pin_2*
X155295600Y-123952000D03*
G04 #@! TO.P,J8,3,Pin_3*
X157835600Y-123952000D03*
G04 #@! TO.P,J8,4,Pin_4*
X160375600Y-123952000D03*
G04 #@! TD*
D19*
G04 #@! TO.P,C2,1*
G04 #@! TO.N,Net-(C2-Pad1)*
X133972000Y-94335600D03*
G04 #@! TO.P,C2,2*
G04 #@! TO.N,GND*
X135522000Y-94335600D03*
G04 #@! TD*
D13*
G04 #@! TO.P,JP3,1,A*
G04 #@! TO.N,GND*
X139293600Y-97815400D03*
D14*
G04 #@! TO.P,JP3,2,B*
G04 #@! TO.N,Net-(JP3-B)*
X141833600Y-97815400D03*
G04 #@! TD*
D24*
G04 #@! TO.P,R26,1*
G04 #@! TO.N,+3.3V*
X146000000Y-107300000D03*
G04 #@! TO.P,R26,2*
G04 #@! TO.N,Net-(U1-IO15)*
X147650000Y-107300000D03*
G04 #@! TD*
D18*
G04 #@! TO.P,R18,1*
G04 #@! TO.N,Net-(U1-IO21)*
X170535600Y-114489000D03*
G04 #@! TO.P,R18,2*
G04 #@! TO.N,Net-(J5-Pin_4)*
X170535600Y-116139000D03*
G04 #@! TD*
G04 #@! TO.P,R14,1*
G04 #@! TO.N,Net-(U1-IO17)*
X155295600Y-114489000D03*
G04 #@! TO.P,R14,2*
G04 #@! TO.N,Net-(J4-Pin_4)*
X155295600Y-116139000D03*
G04 #@! TD*
D25*
G04 #@! TO.P,J1,1,GND*
G04 #@! TO.N,GND*
X149825902Y-101886400D03*
G04 #@! TO.P,J1,2,SCLK*
G04 #@! TO.N,Net-(J1-SCLK)*
X152365902Y-101886400D03*
G04 #@! TO.P,J1,3,INT*
G04 #@! TO.N,unconnected-(J1-INT-Pad3)*
X149825902Y-104426400D03*
G04 #@! TO.P,J1,4,SCS*
G04 #@! TO.N,Net-(J1-SCS)*
X152365902Y-104426400D03*
G04 #@! TO.P,J1,5,RST*
G04 #@! TO.N,Net-(J1-RST)*
X149825902Y-106966400D03*
G04 #@! TO.P,J1,6,MOSI*
G04 #@! TO.N,Net-(J1-MOSI)*
X152365902Y-106966400D03*
G04 #@! TO.P,J1,7,GND*
G04 #@! TO.N,GND*
X149825902Y-109506400D03*
G04 #@! TO.P,J1,8,MISO*
G04 #@! TO.N,Net-(J1-MISO)*
X152365902Y-109506400D03*
G04 #@! TO.P,J1,9,5V*
G04 #@! TO.N,+5V*
X149825902Y-112046400D03*
G04 #@! TO.P,J1,10,3.3V*
G04 #@! TO.N,unconnected-(J1-3.3V-Pad10)*
X152365902Y-112046400D03*
G04 #@! TD*
D26*
G04 #@! TO.P,C7,1*
G04 #@! TO.N,+5V*
X115214400Y-107201000D03*
G04 #@! TO.P,C7,2*
G04 #@! TO.N,GND*
X115214400Y-105651000D03*
G04 #@! TD*
D27*
G04 #@! TO.P,SW2,1,1*
G04 #@! TO.N,Net-(C3-Pad1)*
X137515600Y-88091400D03*
X143715600Y-88091400D03*
G04 #@! TO.P,SW2,2,2*
G04 #@! TO.N,GND*
X137515600Y-91791400D03*
X143715600Y-91791400D03*
G04 #@! TD*
D18*
G04 #@! TO.P,R13,1*
G04 #@! TO.N,Net-(U1-IO15)*
X152755600Y-114489000D03*
G04 #@! TO.P,R13,2*
G04 #@! TO.N,Net-(J4-Pin_2)*
X152755600Y-116139000D03*
G04 #@! TD*
G04 #@! TO.P,R8,1*
G04 #@! TO.N,Net-(U1-IO26)*
X129895600Y-114489000D03*
G04 #@! TO.P,R8,2*
G04 #@! TO.N,Net-(J2-Pin_8)*
X129895600Y-116139000D03*
G04 #@! TD*
G04 #@! TO.P,R19,1*
G04 #@! TO.N,Net-(J10-Pin_2)*
X173075600Y-114493000D03*
G04 #@! TO.P,R19,2*
G04 #@! TO.N,Net-(J5-Pin_6)*
X173075600Y-116143000D03*
G04 #@! TD*
D15*
G04 #@! TO.P,C5,1*
G04 #@! TO.N,+3.3V*
X116484400Y-96547200D03*
G04 #@! TO.P,C5,2*
G04 #@! TO.N,GND*
X116484400Y-93597200D03*
G04 #@! TD*
D24*
G04 #@! TO.P,R2,1*
G04 #@! TO.N,+3.3V*
X153353000Y-92700000D03*
G04 #@! TO.P,R2,2*
G04 #@! TO.N,Net-(JP3-B)*
X155003000Y-92700000D03*
G04 #@! TD*
D13*
G04 #@! TO.P,J10,1,Pin_1*
G04 #@! TO.N,Net-(J10-Pin_1)*
X148945600Y-88671400D03*
D14*
G04 #@! TO.P,J10,2,Pin_2*
G04 #@! TO.N,Net-(J10-Pin_2)*
X148945600Y-91211400D03*
G04 #@! TO.P,J10,3,Pin_3*
G04 #@! TO.N,GND*
X148945600Y-93751400D03*
G04 #@! TD*
D13*
G04 #@! TO.P,J3,1,Pin_1*
G04 #@! TO.N,+5C*
X137515600Y-121412000D03*
D14*
G04 #@! TO.P,J3,2,Pin_2*
G04 #@! TO.N,Net-(J3-Pin_2)*
X137515600Y-118872000D03*
G04 #@! TO.P,J3,3,Pin_3*
G04 #@! TO.N,+5C*
X140055600Y-121412000D03*
G04 #@! TO.P,J3,4,Pin_4*
G04 #@! TO.N,Net-(J3-Pin_4)*
X140055600Y-118872000D03*
G04 #@! TO.P,J3,5,Pin_5*
G04 #@! TO.N,+5C*
X142595600Y-121412000D03*
G04 #@! TO.P,J3,6,Pin_6*
G04 #@! TO.N,Net-(J3-Pin_6)*
X142595600Y-118872000D03*
G04 #@! TO.P,J3,7,Pin_7*
G04 #@! TO.N,+5C*
X145135600Y-121412000D03*
G04 #@! TO.P,J3,8,Pin_8*
G04 #@! TO.N,Net-(J3-Pin_8)*
X145135600Y-118872000D03*
G04 #@! TD*
D18*
G04 #@! TO.P,R12,1*
G04 #@! TO.N,Net-(U1-IO13)*
X145135600Y-114489000D03*
G04 #@! TO.P,R12,2*
G04 #@! TO.N,Net-(J3-Pin_8)*
X145135600Y-116139000D03*
G04 #@! TD*
G04 #@! TO.P,R16,1*
G04 #@! TO.N,Net-(U1-IO4)*
X160375600Y-114493000D03*
G04 #@! TO.P,R16,2*
G04 #@! TO.N,Net-(J4-Pin_8)*
X160375600Y-116143000D03*
G04 #@! TD*
D28*
G04 #@! TO.P,J11,1,Pin_1*
G04 #@! TO.N,GND*
X119862600Y-103253400D03*
D29*
G04 #@! TO.P,J11,2,Pin_2*
G04 #@! TO.N,+5V*
X119862600Y-107213400D03*
G04 #@! TO.P,J11,3,Pin_3*
G04 #@! TO.N,+5C*
X119862600Y-111173400D03*
G04 #@! TD*
D21*
G04 #@! TO.P,R21,1*
G04 #@! TO.N,Net-(U1-EN)*
X155025000Y-88200000D03*
G04 #@! TO.P,R21,2*
G04 #@! TO.N,Net-(C2-Pad1)*
X153375000Y-88200000D03*
G04 #@! TD*
D30*
G04 #@! TO.P,C1,1*
G04 #@! TO.N,+5C*
X134010400Y-107467400D03*
D31*
G04 #@! TO.P,C1,2*
G04 #@! TO.N,GND*
X134010400Y-103967400D03*
G04 #@! TD*
D21*
G04 #@! TO.P,R27,1*
G04 #@! TO.N,Net-(J1-SCS)*
X147650000Y-105500000D03*
G04 #@! TO.P,R27,2*
G04 #@! TO.N,+3.3V*
X146000000Y-105500000D03*
G04 #@! TD*
D32*
G04 #@! TO.P,REF\u002A\u002A,1*
G04 #@! TO.N,N/C*
X112115600Y-89941400D03*
D33*
X112115600Y-89941400D03*
G04 #@! TD*
D27*
G04 #@! TO.P,SW1,1,1*
G04 #@! TO.N,GND*
X124100000Y-91750000D03*
X117900000Y-91750000D03*
G04 #@! TO.P,SW1,2,2*
G04 #@! TO.N,Net-(C2-Pad1)*
X124100000Y-88050000D03*
X117900000Y-88050000D03*
G04 #@! TD*
D32*
G04 #@! TO.P,REF\u002A\u002A,1*
G04 #@! TO.N,N/C*
X112115600Y-122682000D03*
D33*
X112115600Y-122682000D03*
G04 #@! TD*
D13*
G04 #@! TO.P,J7,1,Pin_1*
G04 #@! TO.N,GND*
X137515600Y-123952000D03*
D14*
G04 #@! TO.P,J7,2,Pin_2*
X140055600Y-123952000D03*
G04 #@! TO.P,J7,3,Pin_3*
X142595600Y-123952000D03*
G04 #@! TO.P,J7,4,Pin_4*
X145135600Y-123952000D03*
G04 #@! TD*
D18*
G04 #@! TO.P,R9,1*
G04 #@! TO.N,Net-(U1-IO27)*
X137515600Y-114489000D03*
G04 #@! TO.P,R9,2*
G04 #@! TO.N,Net-(J3-Pin_2)*
X137515600Y-116139000D03*
G04 #@! TD*
G04 #@! TO.P,R15,1*
G04 #@! TO.N,Net-(U1-IO0)*
X157835600Y-114493000D03*
G04 #@! TO.P,R15,2*
G04 #@! TO.N,Net-(J4-Pin_6)*
X157835600Y-116143000D03*
G04 #@! TD*
D24*
G04 #@! TO.P,R4,1*
G04 #@! TO.N,+3.3V*
X153353000Y-91200000D03*
G04 #@! TO.P,R4,2*
G04 #@! TO.N,Net-(J1-MISO)*
X155003000Y-91200000D03*
G04 #@! TD*
D32*
G04 #@! TO.P,REF\u002A\u002A,1*
G04 #@! TO.N,N/C*
X183235600Y-122682000D03*
D33*
X183235600Y-122682000D03*
G04 #@! TD*
D24*
G04 #@! TO.P,R22,1*
G04 #@! TO.N,+3.3V*
X153375000Y-89700000D03*
G04 #@! TO.P,R22,2*
G04 #@! TO.N,Net-(U1-EN)*
X155025000Y-89700000D03*
G04 #@! TD*
D12*
G04 #@! TO.P,R25,1*
G04 #@! TO.N,Net-(U1-IO12)*
X144100000Y-107150000D03*
G04 #@! TO.P,R25,2*
G04 #@! TO.N,GND*
X144100000Y-105500000D03*
G04 #@! TD*
D18*
G04 #@! TO.P,R20,1*
G04 #@! TO.N,Net-(U1-IO22)*
X175615600Y-114489000D03*
G04 #@! TO.P,R20,2*
G04 #@! TO.N,Net-(J5-Pin_8)*
X175615600Y-116139000D03*
G04 #@! TD*
D21*
G04 #@! TO.P,R24,1*
G04 #@! TO.N,Net-(U1-IO0)*
X154990800Y-96443800D03*
G04 #@! TO.P,R24,2*
G04 #@! TO.N,Net-(C3-Pad1)*
X153340800Y-96443800D03*
G04 #@! TD*
D18*
G04 #@! TO.P,R6,1*
G04 #@! TO.N,Net-(U1-IO33)*
X124815600Y-114491000D03*
G04 #@! TO.P,R6,2*
G04 #@! TO.N,Net-(J2-Pin_4)*
X124815600Y-116141000D03*
G04 #@! TD*
D13*
G04 #@! TO.P,JP1,1,A*
G04 #@! TO.N,Net-(JP1-A)*
X159110600Y-108102400D03*
D14*
G04 #@! TO.P,JP1,2,B*
G04 #@! TO.N,Net-(J1-MOSI)*
X156570600Y-108102400D03*
G04 #@! TD*
D13*
G04 #@! TO.P,J5,1,Pin_1*
G04 #@! TO.N,+5C*
X167995600Y-121412000D03*
D14*
G04 #@! TO.P,J5,2,Pin_2*
G04 #@! TO.N,Net-(J5-Pin_2)*
X167995600Y-118872000D03*
G04 #@! TO.P,J5,3,Pin_3*
G04 #@! TO.N,+5C*
X170535600Y-121412000D03*
G04 #@! TO.P,J5,4,Pin_4*
G04 #@! TO.N,Net-(J5-Pin_4)*
X170535600Y-118872000D03*
G04 #@! TO.P,J5,5,Pin_5*
G04 #@! TO.N,+5C*
X173075600Y-121412000D03*
G04 #@! TO.P,J5,6,Pin_6*
G04 #@! TO.N,Net-(J5-Pin_6)*
X173075600Y-118872000D03*
G04 #@! TO.P,J5,7,Pin_7*
G04 #@! TO.N,+5C*
X175615600Y-121412000D03*
G04 #@! TO.P,J5,8,Pin_8*
G04 #@! TO.N,Net-(J5-Pin_8)*
X175615600Y-118872000D03*
G04 #@! TD*
D34*
G04 #@! TO.P,U1,1,GND*
G04 #@! TO.N,GND*
X157975600Y-86726400D03*
G04 #@! TO.P,U1,2,VDD*
G04 #@! TO.N,+3.3V*
X157975600Y-87996400D03*
G04 #@! TO.P,U1,3,EN*
G04 #@! TO.N,Net-(U1-EN)*
X157975600Y-89266400D03*
G04 #@! TO.P,U1,4,SENSOR_VP*
G04 #@! TO.N,Net-(J1-MISO)*
X157975600Y-90536400D03*
G04 #@! TO.P,U1,5,SENSOR_VN*
G04 #@! TO.N,unconnected-(U1-SENSOR_VN-Pad5)*
X157975600Y-91806400D03*
G04 #@! TO.P,U1,6,IO34*
G04 #@! TO.N,Net-(JP3-B)*
X157975600Y-93076400D03*
G04 #@! TO.P,U1,7,IO35*
G04 #@! TO.N,Net-(JP2-B)*
X157975600Y-94346400D03*
G04 #@! TO.P,U1,8,IO32*
G04 #@! TO.N,Net-(U1-IO32)*
X157975600Y-95616400D03*
G04 #@! TO.P,U1,9,IO33*
G04 #@! TO.N,Net-(U1-IO33)*
X157975600Y-96886400D03*
G04 #@! TO.P,U1,10,IO25*
G04 #@! TO.N,Net-(U1-IO25)*
X157975600Y-98156400D03*
G04 #@! TO.P,U1,11,IO26*
G04 #@! TO.N,Net-(U1-IO26)*
X157975600Y-99426400D03*
G04 #@! TO.P,U1,12,IO27*
G04 #@! TO.N,Net-(U1-IO27)*
X157975600Y-100696400D03*
G04 #@! TO.P,U1,13,IO14*
G04 #@! TO.N,Net-(U1-IO14)*
X157975600Y-101966400D03*
G04 #@! TO.P,U1,14,IO12*
G04 #@! TO.N,Net-(U1-IO12)*
X157975600Y-103236400D03*
D35*
G04 #@! TO.P,U1,15,GND*
G04 #@! TO.N,GND*
X161015600Y-104486400D03*
G04 #@! TO.P,U1,16,IO13*
G04 #@! TO.N,Net-(U1-IO13)*
X162285600Y-104486400D03*
G04 #@! TO.P,U1,17,SHD/SD2*
G04 #@! TO.N,unconnected-(U1-SHD{slash}SD2-Pad17)*
X163555600Y-104486400D03*
G04 #@! TO.P,U1,18,SWP/SD3*
G04 #@! TO.N,unconnected-(U1-SWP{slash}SD3-Pad18)*
X164825600Y-104486400D03*
G04 #@! TO.P,U1,19,SCS/CMD*
G04 #@! TO.N,unconnected-(U1-SCS{slash}CMD-Pad19)*
X166095600Y-104486400D03*
G04 #@! TO.P,U1,20,SCK/CLK*
G04 #@! TO.N,unconnected-(U1-SCK{slash}CLK-Pad20)*
X167365600Y-104486400D03*
G04 #@! TO.P,U1,21,SDO/SD0*
G04 #@! TO.N,unconnected-(U1-SDO{slash}SD0-Pad21)*
X168635600Y-104486400D03*
G04 #@! TO.P,U1,22,SDI/SD1*
G04 #@! TO.N,unconnected-(U1-SDI{slash}SD1-Pad22)*
X169905600Y-104486400D03*
G04 #@! TO.P,U1,23,IO15*
G04 #@! TO.N,Net-(U1-IO15)*
X171175600Y-104486400D03*
G04 #@! TO.P,U1,24,IO2*
G04 #@! TO.N,Net-(U1-IO2)*
X172445600Y-104486400D03*
D34*
G04 #@! TO.P,U1,25,IO0*
G04 #@! TO.N,Net-(U1-IO0)*
X175475600Y-103236400D03*
G04 #@! TO.P,U1,26,IO4*
G04 #@! TO.N,Net-(U1-IO4)*
X175475600Y-101966400D03*
G04 #@! TO.P,U1,27,IO16*
G04 #@! TO.N,Net-(J1-RST)*
X175475600Y-100696400D03*
G04 #@! TO.P,U1,28,IO17*
G04 #@! TO.N,Net-(U1-IO17)*
X175475600Y-99426400D03*
G04 #@! TO.P,U1,29,IO5*
G04 #@! TO.N,Net-(J1-SCS)*
X175475600Y-98156400D03*
G04 #@! TO.P,U1,30,IO18*
G04 #@! TO.N,Net-(J1-SCLK)*
X175475600Y-96886400D03*
G04 #@! TO.P,U1,31,IO19*
G04 #@! TO.N,Net-(U1-IO19)*
X175475600Y-95616400D03*
G04 #@! TO.P,U1,32,NC*
G04 #@! TO.N,unconnected-(U1-NC-Pad32)*
X175475600Y-94346400D03*
G04 #@! TO.P,U1,33,IO21*
G04 #@! TO.N,Net-(U1-IO21)*
X175475600Y-93076400D03*
G04 #@! TO.P,U1,34,RXD0/IO3*
G04 #@! TO.N,Net-(J10-Pin_2)*
X175475600Y-91806400D03*
G04 #@! TO.P,U1,35,TXD0/IO1*
G04 #@! TO.N,Net-(J10-Pin_1)*
X175475600Y-90536400D03*
G04 #@! TO.P,U1,36,IO22*
G04 #@! TO.N,Net-(U1-IO22)*
X175475600Y-89266400D03*
G04 #@! TO.P,U1,37,IO23*
G04 #@! TO.N,Net-(JP1-A)*
X175475600Y-87996400D03*
G04 #@! TO.P,U1,38,GND*
G04 #@! TO.N,GND*
X175475600Y-86726400D03*
D36*
G04 #@! TO.P,U1,39,GND*
X164520600Y-92541400D03*
D37*
X164520600Y-93303900D03*
D36*
X164520600Y-94066400D03*
D37*
X164520600Y-94828900D03*
D36*
X164520600Y-95591400D03*
D37*
X165283100Y-92541400D03*
X165283100Y-94066400D03*
X165283100Y-95591400D03*
D36*
X166045600Y-92541400D03*
D37*
X166045600Y-93303900D03*
D36*
X166045600Y-94066400D03*
D38*
X166045600Y-94066400D03*
D37*
X166045600Y-94828900D03*
D36*
X166045600Y-95591400D03*
D37*
X166808100Y-92541400D03*
X166808100Y-94066400D03*
X166808100Y-95591400D03*
D36*
X167570600Y-92541400D03*
D37*
X167570600Y-93303900D03*
D36*
X167570600Y-94066400D03*
D37*
X167570600Y-94828900D03*
D36*
X167570600Y-95591400D03*
G04 #@! TD*
D18*
G04 #@! TO.P,R10,1*
G04 #@! TO.N,Net-(U1-IO14)*
X140055600Y-114489000D03*
G04 #@! TO.P,R10,2*
G04 #@! TO.N,Net-(J3-Pin_4)*
X140055600Y-116139000D03*
G04 #@! TD*
D24*
G04 #@! TO.P,R23,1*
G04 #@! TO.N,+3.3V*
X153340800Y-94945200D03*
G04 #@! TO.P,R23,2*
G04 #@! TO.N,Net-(U1-IO0)*
X154990800Y-94945200D03*
G04 #@! TD*
D39*
G04 #@! TO.P,C6,1*
G04 #@! TO.N,+3.3V*
X115341400Y-101725000D03*
G04 #@! TO.P,C6,2*
G04 #@! TO.N,GND*
X115341400Y-103275000D03*
G04 #@! TD*
D13*
G04 #@! TO.P,J4,1,Pin_1*
G04 #@! TO.N,+5C*
X152755600Y-121412000D03*
D14*
G04 #@! TO.P,J4,2,Pin_2*
G04 #@! TO.N,Net-(J4-Pin_2)*
X152755600Y-118872000D03*
G04 #@! TO.P,J4,3,Pin_3*
G04 #@! TO.N,+5C*
X155295600Y-121412000D03*
G04 #@! TO.P,J4,4,Pin_4*
G04 #@! TO.N,Net-(J4-Pin_4)*
X155295600Y-118872000D03*
G04 #@! TO.P,J4,5,Pin_5*
G04 #@! TO.N,+5C*
X157835600Y-121412000D03*
G04 #@! TO.P,J4,6,Pin_6*
G04 #@! TO.N,Net-(J4-Pin_6)*
X157835600Y-118872000D03*
G04 #@! TO.P,J4,7,Pin_7*
G04 #@! TO.N,+5C*
X160375600Y-121412000D03*
G04 #@! TO.P,J4,8,Pin_8*
G04 #@! TO.N,Net-(J4-Pin_8)*
X160375600Y-118872000D03*
G04 #@! TD*
D18*
G04 #@! TO.P,R11,1*
G04 #@! TO.N,Net-(U1-IO12)*
X142595600Y-114489000D03*
G04 #@! TO.P,R11,2*
G04 #@! TO.N,Net-(J3-Pin_6)*
X142595600Y-116139000D03*
G04 #@! TD*
G04 #@! TO.P,R7,1*
G04 #@! TO.N,Net-(U1-IO25)*
X127355600Y-114489000D03*
G04 #@! TO.P,R7,2*
G04 #@! TO.N,Net-(J2-Pin_6)*
X127355600Y-116139000D03*
G04 #@! TD*
D13*
G04 #@! TO.P,JP2,1,A*
G04 #@! TO.N,GND*
X139293600Y-95275400D03*
D14*
G04 #@! TO.P,JP2,2,B*
G04 #@! TO.N,Net-(JP2-B)*
X141833600Y-95275400D03*
G04 #@! TD*
D40*
G04 #@! TO.N,GND*
X140690600Y-91846400D03*
D41*
X161400000Y-106700000D03*
X160426400Y-86817200D03*
X121005600Y-91846400D03*
X178155600Y-86766400D03*
G04 #@! TO.N,+3.3V*
X147000000Y-102000000D03*
X152501600Y-90449400D03*
X147192689Y-95874000D03*
X152501600Y-95250000D03*
X151695559Y-88712650D03*
G04 #@! TO.N,Net-(J1-RST)*
X156415014Y-103974419D03*
X173009600Y-100376400D03*
G04 #@! TO.N,Net-(J1-SCLK)*
X155370438Y-101596071D03*
X171527600Y-96672400D03*
G04 #@! TO.N,Net-(J1-SCS)*
X155841863Y-102807584D03*
X171500000Y-98100000D03*
G04 #@! TO.N,Net-(J10-Pin_2)*
X171500000Y-94000000D03*
G04 #@! TO.N,Net-(J10-Pin_1)*
X171500000Y-92600000D03*
G04 #@! TO.N,Net-(U1-IO0)*
X156235400Y-95275400D03*
X173600000Y-102100000D03*
G04 #@! TO.N,Net-(C2-Pad1)*
X135600000Y-87589400D03*
X126400000Y-87600000D03*
G04 #@! TD*
D42*
G04 #@! TO.N,GND*
X117905600Y-93591600D02*
X117900000Y-93597200D01*
D43*
X119481600Y-93370400D02*
X121005600Y-91846400D01*
D44*
X129895600Y-123952000D02*
X137515600Y-123952000D01*
X170535600Y-123952000D02*
X173075600Y-123952000D01*
X140055600Y-123952000D02*
X142595600Y-123952000D01*
D45*
X136300600Y-91791400D02*
X137515600Y-91791400D01*
D43*
X115275800Y-103253400D02*
X115214400Y-103314800D01*
D44*
X178300000Y-122700000D02*
X178300000Y-111900000D01*
D43*
X161015600Y-106315600D02*
X161400000Y-106700000D01*
X161015600Y-104486400D02*
X161015600Y-106315600D01*
D42*
X144100000Y-103625793D02*
X146626793Y-101099000D01*
D44*
X175615600Y-123952000D02*
X177048000Y-123952000D01*
X178155600Y-88355600D02*
X178155600Y-86766400D01*
X137515600Y-123952000D02*
X140055600Y-123952000D01*
X113200000Y-104600000D02*
X113200000Y-109800000D01*
X117746600Y-103253400D02*
X116400000Y-104600000D01*
X118852000Y-123952000D02*
X122275600Y-123952000D01*
X113200000Y-109800000D02*
X117200000Y-113800000D01*
D43*
X157975600Y-86726400D02*
X160335600Y-86726400D01*
X115214400Y-103314800D02*
X115214400Y-105651000D01*
D44*
X152755600Y-123952000D02*
X155295600Y-123952000D01*
D45*
X143715600Y-91791400D02*
X140745600Y-91791400D01*
D43*
X116484400Y-93597200D02*
X117900000Y-93597200D01*
D42*
X144100000Y-105500000D02*
X144100000Y-103625793D01*
D43*
X175475600Y-86726400D02*
X178115600Y-86726400D01*
D46*
X160543600Y-86700000D02*
X173400000Y-86700000D01*
X123734800Y-94575600D02*
X121005600Y-91846400D01*
D43*
X173400000Y-86700000D02*
X173426400Y-86726400D01*
D42*
X146626793Y-101099000D02*
X149038502Y-101099000D01*
D45*
X178115600Y-86726400D02*
X178155600Y-86766400D01*
D44*
X181300000Y-91500000D02*
X178155600Y-88355600D01*
D45*
X140690600Y-91846400D02*
X137570600Y-91846400D01*
D44*
X116400000Y-104600000D02*
X113200000Y-104600000D01*
X122275600Y-123952000D02*
X124815600Y-123952000D01*
X119862600Y-103253400D02*
X117746600Y-103253400D01*
D43*
X117900000Y-93597200D02*
X119456200Y-93597200D01*
D44*
X127355600Y-123952000D02*
X129895600Y-123952000D01*
D43*
X160335600Y-86726400D02*
X160426400Y-86817200D01*
X173426400Y-86726400D02*
X175475600Y-86726400D01*
D44*
X117200000Y-122300000D02*
X118852000Y-123952000D01*
X124815600Y-123952000D02*
X127355600Y-123952000D01*
D42*
X117905600Y-91755600D02*
X117905600Y-93591600D01*
D45*
X140745600Y-91791400D02*
X140690600Y-91846400D01*
X160335600Y-86726400D02*
X160375600Y-86766400D01*
D44*
X181300000Y-108900000D02*
X181300000Y-91500000D01*
D43*
X161015600Y-104486400D02*
X161015600Y-99096400D01*
D44*
X155295600Y-123952000D02*
X157835600Y-123952000D01*
D43*
X161015600Y-99096400D02*
X166045600Y-94066400D01*
D44*
X145135600Y-123952000D02*
X152755600Y-123952000D01*
D42*
X136300600Y-91791400D02*
X135430600Y-92661400D01*
D44*
X142595600Y-123952000D02*
X145135600Y-123952000D01*
D43*
X119481600Y-93622600D02*
X119481600Y-93370400D01*
D44*
X177048000Y-123952000D02*
X178300000Y-122700000D01*
D45*
X124105600Y-91755600D02*
X124105600Y-94395800D01*
D42*
X149038502Y-101099000D02*
X149825902Y-101886400D01*
D44*
X117200000Y-113800000D02*
X117200000Y-122300000D01*
X157835600Y-123952000D02*
X160375600Y-123952000D01*
D42*
X135522000Y-92837000D02*
X135522000Y-94335600D01*
D44*
X178300000Y-111900000D02*
X181300000Y-108900000D01*
X160375600Y-123952000D02*
X167995600Y-123952000D01*
X173075600Y-123952000D02*
X175615600Y-123952000D01*
X167995600Y-123952000D02*
X170535600Y-123952000D01*
G04 #@! TO.N,+5C*
X119800000Y-120800000D02*
X119862600Y-120737400D01*
X160375600Y-121412000D02*
X167995600Y-121412000D01*
X157835600Y-121412000D02*
X160375600Y-121412000D01*
X120412000Y-121412000D02*
X119800000Y-120800000D01*
X134112000Y-121412000D02*
X129895600Y-121412000D01*
X134010400Y-121289600D02*
X134000000Y-121300000D01*
X170535600Y-121412000D02*
X173075600Y-121412000D01*
X155295600Y-121412000D02*
X157835600Y-121412000D01*
X122275600Y-121412000D02*
X120412000Y-121412000D01*
X167995600Y-121412000D02*
X170535600Y-121412000D01*
X142595600Y-121412000D02*
X145135600Y-121412000D01*
X152755600Y-121412000D02*
X155295600Y-121412000D01*
X124815600Y-121412000D02*
X122275600Y-121412000D01*
X173075600Y-121412000D02*
X175615600Y-121412000D01*
X145135600Y-121412000D02*
X152755600Y-121412000D01*
X134000000Y-121300000D02*
X134112000Y-121412000D01*
X134010400Y-107467400D02*
X134010400Y-121289600D01*
X137515600Y-121412000D02*
X140055600Y-121412000D01*
X119862600Y-120737400D02*
X119862600Y-111173400D01*
X140055600Y-121412000D02*
X142595600Y-121412000D01*
X129895600Y-121412000D02*
X127355600Y-121412000D01*
X134112000Y-121412000D02*
X137515600Y-121412000D01*
X127355600Y-121412000D02*
X124815600Y-121412000D01*
D42*
G04 #@! TO.N,Net-(D1-A)*
X168985600Y-108001400D02*
X169101000Y-107886000D01*
D45*
X168985600Y-108001400D02*
X167360600Y-109626400D01*
D42*
X169101000Y-107886000D02*
X172440600Y-107886000D01*
D43*
G04 #@! TO.N,+5V*
X116522200Y-107213400D02*
X116509800Y-107201000D01*
X119862600Y-107213400D02*
X116522200Y-107213400D01*
X116509800Y-107201000D02*
X115214400Y-107201000D01*
D46*
X123925800Y-99175600D02*
X119870000Y-99175600D01*
X119862600Y-107213400D02*
X122631200Y-107213400D01*
X123925800Y-105917200D02*
X123925800Y-99175600D01*
X123926600Y-105918000D02*
X123925800Y-105917200D01*
D43*
X119481600Y-96572600D02*
X119481600Y-98787200D01*
D46*
X122631200Y-107213400D02*
X123926600Y-105918000D01*
D43*
G04 #@! TO.N,+3.3V*
X156525600Y-87996400D02*
X156286200Y-87757000D01*
X157975600Y-87996400D02*
X156525600Y-87996400D01*
D44*
X133300000Y-86800000D02*
X130225800Y-89874200D01*
D46*
X123925800Y-96875600D02*
X130225800Y-96875600D01*
D43*
X122885200Y-96875600D02*
X123925800Y-96875600D01*
D44*
X130225800Y-89874200D02*
X130225800Y-93218000D01*
D47*
X146314400Y-86289400D02*
X133810600Y-86289400D01*
D43*
X156286200Y-87757000D02*
X156286200Y-87161200D01*
X151695559Y-88712650D02*
X151866600Y-88541609D01*
X130225800Y-96875600D02*
X130225800Y-93218000D01*
D42*
X152501600Y-95250000D02*
X152806400Y-94945200D01*
X147000000Y-102000000D02*
X146800000Y-102000000D01*
D47*
X146625000Y-86600000D02*
X146314400Y-86289400D01*
D42*
X153353000Y-92700000D02*
X153353000Y-91200000D01*
D43*
X121109600Y-95100000D02*
X122885200Y-96875600D01*
D42*
X146924289Y-95605600D02*
X146130600Y-95605600D01*
D43*
X116484400Y-96316800D02*
X117701200Y-95100000D01*
D42*
X147591689Y-96273000D02*
X147192689Y-95874000D01*
D43*
X151866600Y-88541609D02*
X151866600Y-87020400D01*
D47*
X133810600Y-86289400D02*
X133300000Y-86800000D01*
D42*
X147192689Y-95874000D02*
X146924289Y-95605600D01*
D43*
X116484400Y-96547200D02*
X116484400Y-98330000D01*
X115341400Y-101725000D02*
X115341400Y-99473000D01*
D42*
X153353000Y-91200000D02*
X153353000Y-89722000D01*
X151478600Y-96273000D02*
X147591689Y-96273000D01*
D43*
X156286200Y-87161200D02*
X155725000Y-86600000D01*
D42*
X146000000Y-102800000D02*
X146000000Y-105500000D01*
X152806400Y-94945200D02*
X153340800Y-94945200D01*
X146000000Y-107300000D02*
X146000000Y-105500000D01*
X152501600Y-95250000D02*
X151478600Y-96273000D01*
D43*
X117701200Y-95100000D02*
X121109600Y-95100000D01*
D45*
X153152200Y-91100000D02*
X152501600Y-90449400D01*
D43*
X116484400Y-98330000D02*
X115754400Y-99060000D01*
D46*
X155725000Y-86600000D02*
X146625000Y-86600000D01*
D43*
X116484400Y-96547200D02*
X116484400Y-96316800D01*
D42*
X146800000Y-102000000D02*
X146000000Y-102800000D01*
G04 #@! TO.N,Net-(J1-RST)*
X156415014Y-103974419D02*
X154700033Y-105689400D01*
X173009600Y-100376400D02*
X173369600Y-100736400D01*
X151231600Y-105689400D02*
X149954600Y-106966400D01*
X154700033Y-105689400D02*
X151231600Y-105689400D01*
X173369600Y-100736400D02*
X175435600Y-100736400D01*
G04 #@! TO.N,Net-(J1-SCLK)*
X155370438Y-101596071D02*
X155366509Y-101600000D01*
X171527600Y-96672400D02*
X174091600Y-96672400D01*
X153557000Y-101600000D02*
X153270600Y-101886400D01*
X155366509Y-101600000D02*
X153557000Y-101600000D01*
X174305600Y-96886400D02*
X175475600Y-96886400D01*
X153270600Y-101886400D02*
X152365902Y-101886400D01*
X174091600Y-96672400D02*
X174305600Y-96886400D01*
G04 #@! TO.N,Net-(J1-SCS)*
X171500000Y-98100000D02*
X171556400Y-98156400D01*
X151000000Y-103200000D02*
X152226400Y-104426400D01*
X171556400Y-98156400D02*
X175475600Y-98156400D01*
X148900000Y-103200000D02*
X151000000Y-103200000D01*
X155841863Y-102807584D02*
X154223047Y-104426400D01*
X147650000Y-105350000D02*
X148600000Y-104400000D01*
X148600000Y-103500000D02*
X148900000Y-103200000D01*
X154223047Y-104426400D02*
X152365902Y-104426400D01*
X148600000Y-104400000D02*
X148600000Y-103500000D01*
D45*
G04 #@! TO.N,Net-(J2-Pin_6)*
X127355600Y-116139000D02*
X127355600Y-118872000D01*
G04 #@! TO.N,Net-(J2-Pin_2)*
X122275600Y-116139000D02*
X122275600Y-118872000D01*
G04 #@! TO.N,Net-(J2-Pin_8)*
X129895600Y-116139000D02*
X129895600Y-118872000D01*
G04 #@! TO.N,Net-(J2-Pin_4)*
X124815600Y-116141000D02*
X124815600Y-118872000D01*
G04 #@! TO.N,Net-(J3-Pin_4)*
X140055600Y-116139000D02*
X140055600Y-118872000D01*
G04 #@! TO.N,Net-(J3-Pin_8)*
X145135600Y-116139000D02*
X145135600Y-118872000D01*
G04 #@! TO.N,Net-(J3-Pin_6)*
X142595600Y-116139000D02*
X142595600Y-118872000D01*
G04 #@! TO.N,Net-(J3-Pin_2)*
X137515600Y-116139000D02*
X137515600Y-118872000D01*
G04 #@! TO.N,Net-(J4-Pin_6)*
X157835600Y-116143000D02*
X157835600Y-118872000D01*
G04 #@! TO.N,Net-(J4-Pin_2)*
X152755600Y-116139000D02*
X152755600Y-118872000D01*
G04 #@! TO.N,Net-(J4-Pin_4)*
X155295600Y-116139000D02*
X155295600Y-118872000D01*
G04 #@! TO.N,Net-(J4-Pin_8)*
X160375600Y-116143000D02*
X160375600Y-118872000D01*
G04 #@! TO.N,Net-(J5-Pin_4)*
X170535600Y-116139000D02*
X170535600Y-118872000D01*
G04 #@! TO.N,Net-(J5-Pin_6)*
X173075600Y-116143000D02*
X173075600Y-118872000D01*
G04 #@! TO.N,Net-(J5-Pin_8)*
X175615600Y-116139000D02*
X175615600Y-118872000D01*
G04 #@! TO.N,Net-(J5-Pin_2)*
X167995600Y-116139000D02*
X167995600Y-118872000D01*
G04 #@! TO.N,Net-(JP1-A)*
X165495600Y-87996400D02*
X160000000Y-93492000D01*
X175475600Y-87996400D02*
X165495600Y-87996400D01*
X160000000Y-93492000D02*
X160000000Y-107213000D01*
X160000000Y-107213000D02*
X159110600Y-108102400D01*
D42*
G04 #@! TO.N,Net-(JP2-B)*
X156921200Y-94107000D02*
X157160600Y-94346400D01*
X142533600Y-94575400D02*
X144551400Y-94575400D01*
X144640800Y-95434200D02*
X144640800Y-94664800D01*
X150227001Y-95772000D02*
X151892000Y-94107000D01*
X144640800Y-94664800D02*
X144551400Y-94575400D01*
X144551400Y-94575400D02*
X147166880Y-94575400D01*
X147166880Y-94575400D02*
X148363480Y-95772000D01*
X151892000Y-94107000D02*
X156921200Y-94107000D01*
X148363480Y-95772000D02*
X150227001Y-95772000D01*
X141833600Y-95275400D02*
X142533600Y-94575400D01*
D45*
X157160600Y-94346400D02*
X157975600Y-94346400D01*
D42*
G04 #@! TO.N,Net-(JP3-B)*
X141833600Y-97815400D02*
X140632600Y-96614400D01*
X147374400Y-94074400D02*
X148571000Y-95271000D01*
X155479400Y-93076400D02*
X155103000Y-92700000D01*
X153997000Y-93606000D02*
X154903000Y-92700000D01*
X151684480Y-93606000D02*
X153997000Y-93606000D01*
X148571000Y-95271000D02*
X150019480Y-95271000D01*
X140632600Y-96614400D02*
X140632600Y-94777929D01*
X141336129Y-94074400D02*
X147374400Y-94074400D01*
X157975600Y-93076400D02*
X155479400Y-93076400D01*
X140632600Y-94777929D02*
X141336129Y-94074400D01*
X150019480Y-95271000D02*
X151684480Y-93606000D01*
D45*
G04 #@! TO.N,Net-(U1-IO2)*
X172445600Y-106361400D02*
X172445600Y-104486400D01*
G04 #@! TO.N,Net-(J10-Pin_2)*
X178688600Y-93869400D02*
X178688600Y-107833226D01*
D42*
X171500000Y-94000000D02*
X172650000Y-94000000D01*
D45*
X175475600Y-91806400D02*
X176625600Y-91806400D01*
D42*
X172650000Y-94000000D02*
X174843600Y-91806400D01*
D45*
X178688600Y-107833226D02*
X173075600Y-113446226D01*
X176625600Y-91806400D02*
X178688600Y-93869400D01*
X173075600Y-113446226D02*
X173075600Y-114493000D01*
D42*
X174843600Y-91806400D02*
X175475600Y-91806400D01*
G04 #@! TO.N,Net-(J10-Pin_1)*
X171500000Y-92600000D02*
X172777206Y-92600000D01*
X172777206Y-92600000D02*
X174800806Y-90576400D01*
X174800806Y-90576400D02*
X175435600Y-90576400D01*
G04 #@! TO.N,Net-(U1-IO33)*
X130657600Y-102006400D02*
X130657600Y-107848400D01*
X124815600Y-113690400D02*
X124815600Y-114491000D01*
X142976600Y-100228400D02*
X132435600Y-100228400D01*
X145533372Y-97778594D02*
X145533366Y-97778600D01*
X145426400Y-97778600D02*
X142976600Y-100228400D01*
X132435600Y-100228400D02*
X130657600Y-102006400D01*
X145740893Y-97778600D02*
X145533372Y-97778594D01*
X130657600Y-107848400D02*
X124815600Y-113690400D01*
X156221400Y-97778600D02*
X145740893Y-97778600D01*
X157113600Y-96886400D02*
X156221400Y-97778600D01*
X145533366Y-97778600D02*
X145426400Y-97778600D01*
X157975600Y-96886400D02*
X157113600Y-96886400D01*
G04 #@! TO.N,Net-(U1-IO32)*
X145218880Y-97277600D02*
X145325846Y-97277600D01*
X130149600Y-101752400D02*
X132188600Y-99713400D01*
X155579400Y-97277600D02*
X157240600Y-95616400D01*
X145107521Y-97282000D02*
X145214479Y-97282000D01*
X145325846Y-97277600D02*
X145325852Y-97277594D01*
X123125000Y-113900000D02*
X123900000Y-113900000D01*
X130149600Y-107647880D02*
X130149600Y-101752400D01*
X122536000Y-114489000D02*
X123125000Y-113900000D01*
X132188600Y-99713400D02*
X142676121Y-99713400D01*
X145740892Y-97277594D02*
X145740898Y-97277600D01*
X145325852Y-97277594D02*
X145325859Y-97277594D01*
X123900000Y-113900000D02*
X124314600Y-113485400D01*
X145325859Y-97277594D02*
X145325865Y-97277588D01*
X124314600Y-113482879D02*
X130149600Y-107647880D01*
X124314600Y-113485400D02*
X124314600Y-113482879D01*
X145214479Y-97282000D02*
X145218880Y-97277600D01*
X145325865Y-97277588D02*
X145533386Y-97277594D01*
X145740898Y-97277600D02*
X155579400Y-97277600D01*
X157240600Y-95616400D02*
X157975600Y-95616400D01*
X145533386Y-97277594D02*
X145740892Y-97277594D01*
X142676121Y-99713400D02*
X145107521Y-97282000D01*
G04 #@! TO.N,Net-(U1-IO27)*
X137515600Y-104234400D02*
X137515600Y-114489000D01*
X153752022Y-99282400D02*
X148439780Y-99282400D01*
X146260280Y-99284200D02*
X146255879Y-99288600D01*
X156088600Y-99288600D02*
X155752806Y-99288600D01*
X153753823Y-99284200D02*
X153752022Y-99282400D01*
X143472400Y-101872400D02*
X139877600Y-101872400D01*
X157496400Y-100696400D02*
X156088600Y-99288600D01*
X146255879Y-99288600D02*
X146111400Y-99288600D01*
X155748405Y-99284200D02*
X153753823Y-99284200D01*
X146111400Y-99288600D02*
X143500000Y-101900000D01*
X148439780Y-99282400D02*
X148437979Y-99284200D01*
X143500000Y-101900000D02*
X143472400Y-101872400D01*
X139877600Y-101872400D02*
X137515600Y-104234400D01*
X155752806Y-99288600D02*
X155748405Y-99284200D01*
X148437979Y-99284200D02*
X146260280Y-99284200D01*
G04 #@! TO.N,Net-(U1-IO26)*
X156945600Y-98957400D02*
X156874600Y-98957400D01*
X145841434Y-98780606D02*
X143391642Y-101230400D01*
X129895600Y-110027440D02*
X129895600Y-114489000D01*
X157414600Y-99426400D02*
X156945600Y-98957400D01*
X156768800Y-98780600D02*
X146155926Y-98780600D01*
X156874600Y-98886400D02*
X156768800Y-98780600D01*
X145947676Y-98780606D02*
X145841434Y-98780606D01*
X146155913Y-98780606D02*
X146155907Y-98780612D01*
X146155926Y-98780600D02*
X146155920Y-98780606D01*
X146155907Y-98780612D02*
X145947676Y-98780606D01*
X131659600Y-108263440D02*
X129895600Y-110027440D01*
X131659600Y-102623920D02*
X131659600Y-108263440D01*
X156874600Y-98957400D02*
X156874600Y-98886400D01*
X133053120Y-101230400D02*
X131659600Y-102623920D01*
X146155920Y-98780606D02*
X146155913Y-98780606D01*
X143391642Y-101230400D02*
X133053120Y-101230400D01*
G04 #@! TO.N,Net-(U1-IO25)*
X145633920Y-98279600D02*
X145738749Y-98279600D01*
X131158600Y-108055920D02*
X131158600Y-102416400D01*
X157033600Y-98156400D02*
X157975600Y-98156400D01*
X145948406Y-98279600D02*
X156910400Y-98279600D01*
X156910400Y-98279600D02*
X157033600Y-98156400D01*
X145948400Y-98279606D02*
X145948406Y-98279600D01*
X131158600Y-102416400D02*
X132845600Y-100729400D01*
X132845600Y-100729400D02*
X143184121Y-100729400D01*
X127355600Y-114489000D02*
X127355600Y-111858920D01*
X127355600Y-111858920D02*
X131158600Y-108055920D01*
X145738749Y-98279600D02*
X145948400Y-98279606D01*
X143184121Y-100729400D02*
X145633920Y-98279600D01*
D45*
G04 #@! TO.N,Net-(U1-IO17)*
X172615682Y-99425400D02*
X173403518Y-99425400D01*
X173403518Y-99425400D02*
X173404518Y-99426400D01*
X155295600Y-113304342D02*
X155724942Y-112875000D01*
X172058600Y-100770318D02*
X172058600Y-99982482D01*
X159489200Y-112875000D02*
X161064200Y-111300000D01*
X172066682Y-99974400D02*
X172615682Y-99425400D01*
X155295600Y-114489000D02*
X155295600Y-113304342D01*
X174218600Y-104418600D02*
X173000000Y-103200000D01*
X172058600Y-99982482D02*
X172059600Y-99981482D01*
X172059600Y-99981482D02*
X172059600Y-99974400D01*
X155724942Y-112875000D02*
X159489200Y-112875000D01*
X173404518Y-99426400D02*
X175475600Y-99426400D01*
X161064200Y-111300000D02*
X170640000Y-111300000D01*
X172059600Y-100771318D02*
X172058600Y-100770318D01*
X172059600Y-102900000D02*
X172059600Y-100771318D01*
X173000000Y-103200000D02*
X172359600Y-103200000D01*
X172359600Y-103200000D02*
X172059600Y-102900000D01*
X170640000Y-111300000D02*
X174218600Y-107721400D01*
X174218600Y-107721400D02*
X174218600Y-104418600D01*
X172059600Y-99974400D02*
X172066682Y-99974400D01*
G04 #@! TO.N,Net-(U1-IO15)*
X163972000Y-107300000D02*
X159072000Y-112200000D01*
D42*
X146000000Y-115300000D02*
X143900000Y-115300000D01*
X152755600Y-114489000D02*
X146811000Y-114489000D01*
X146811000Y-114489000D02*
X146000000Y-115300000D01*
D45*
X171175600Y-106446400D02*
X170322000Y-107300000D01*
D42*
X143900000Y-113400000D02*
X147650000Y-109650000D01*
D45*
X155550000Y-112200000D02*
X153261000Y-114489000D01*
D42*
X147650000Y-109650000D02*
X147650000Y-107300000D01*
X143900000Y-115300000D02*
X143900000Y-113400000D01*
D45*
X153261000Y-114489000D02*
X152755600Y-114489000D01*
X159072000Y-112200000D02*
X155550000Y-112200000D01*
X171175600Y-104486400D02*
X171175600Y-106446400D01*
X170322000Y-107300000D02*
X163972000Y-107300000D01*
D42*
G04 #@! TO.N,Net-(U1-IO14)*
X146318919Y-99789601D02*
X143707520Y-102401000D01*
X146463400Y-99789600D02*
X146318919Y-99789601D01*
X146467799Y-99785201D02*
X146463400Y-99789600D01*
X155545285Y-99789600D02*
X155540885Y-99785200D01*
X151185500Y-99785200D02*
X151006303Y-99785200D01*
X157044500Y-101497400D02*
X156874600Y-101497400D01*
X156874600Y-101497400D02*
X156874600Y-101327500D01*
X140055600Y-106044400D02*
X140055600Y-114489000D01*
X151004502Y-99783400D02*
X148647300Y-99783400D01*
X151187300Y-99783400D02*
X151185500Y-99785200D01*
X155540885Y-99785200D02*
X153546302Y-99785200D01*
X155789600Y-99789600D02*
X155545285Y-99789600D01*
X143699000Y-102401000D02*
X140055600Y-106044400D01*
X148647300Y-99783400D02*
X148645499Y-99785201D01*
X156819600Y-101272500D02*
X156819600Y-100819600D01*
X156819600Y-100819600D02*
X155789600Y-99789600D01*
X143707520Y-102401000D02*
X143699000Y-102401000D01*
X148645499Y-99785201D02*
X146467799Y-99785201D01*
X157513500Y-101966400D02*
X157044500Y-101497400D01*
X153546302Y-99785200D02*
X153544502Y-99783400D01*
X153544502Y-99783400D02*
X151187300Y-99783400D01*
X151006303Y-99785200D02*
X151004502Y-99783400D01*
X156874600Y-101327500D02*
X156819600Y-101272500D01*
G04 #@! TO.N,Net-(U1-IO13)*
X163200000Y-107100000D02*
X158750000Y-111550000D01*
D45*
X162285600Y-104486400D02*
X162285600Y-105085600D01*
D42*
X158750000Y-111550000D02*
X155225000Y-111550000D01*
X153125000Y-113650000D02*
X145135600Y-113650000D01*
X162285600Y-105085600D02*
X163200000Y-106000000D01*
X155225000Y-111550000D02*
X153125000Y-113650000D01*
X145135600Y-113650000D02*
X145135600Y-114489000D01*
X163200000Y-106000000D02*
X163200000Y-107100000D01*
G04 #@! TO.N,Net-(U1-IO12)*
X148854822Y-100284400D02*
X150796982Y-100284400D01*
X151394821Y-100284400D02*
X153336982Y-100284400D01*
X144100000Y-107150000D02*
X142645600Y-107150000D01*
X142595600Y-114489000D02*
X142595600Y-107200000D01*
X142645600Y-107150000D02*
X142595600Y-107200000D01*
X144457500Y-102557500D02*
X144457500Y-102359540D01*
X142595600Y-107200000D02*
X142595600Y-104419400D01*
X156318600Y-101118600D02*
X156318600Y-101718600D01*
X155333366Y-100286200D02*
X155337766Y-100290600D01*
X150796982Y-100284400D02*
X150798783Y-100286200D01*
X156800000Y-102800000D02*
X157200000Y-103200000D01*
X146526440Y-100290600D02*
X146670924Y-100290599D01*
X155490600Y-100290600D02*
X156318600Y-101118600D01*
X146675323Y-100286200D02*
X148853021Y-100286200D01*
X155337766Y-100290600D02*
X155490600Y-100290600D01*
X153338782Y-100286200D02*
X155333366Y-100286200D01*
X157200000Y-103200000D02*
X157505200Y-103200000D01*
X146670924Y-100290599D02*
X146675323Y-100286200D01*
X148853021Y-100286200D02*
X148854822Y-100284400D01*
X151393021Y-100286200D02*
X151394821Y-100284400D01*
X156800000Y-102200000D02*
X156800000Y-102800000D01*
X156318600Y-101718600D02*
X156800000Y-102200000D01*
X153336982Y-100284400D02*
X153338782Y-100286200D01*
X144457500Y-102359540D02*
X146526440Y-100290600D01*
X142595600Y-104419400D02*
X144457500Y-102557500D01*
X150798783Y-100286200D02*
X151393021Y-100286200D01*
D45*
G04 #@! TO.N,Net-(U1-IO4)*
X176885600Y-102006400D02*
X176845600Y-101966400D01*
X171397000Y-112575000D02*
X176885600Y-107086400D01*
X176845600Y-101966400D02*
X175475600Y-101966400D01*
X176885600Y-107086400D02*
X176885600Y-102006400D01*
X170752000Y-112575000D02*
X171397000Y-112575000D01*
X162674000Y-112576000D02*
X160757000Y-114493000D01*
X162674000Y-112576000D02*
X170751000Y-112576000D01*
X160757000Y-114493000D02*
X160375600Y-114493000D01*
X170751000Y-112576000D02*
X170752000Y-112575000D01*
D42*
G04 #@! TO.N,Net-(U1-IO0)*
X155905200Y-94945200D02*
X154990800Y-94945200D01*
D45*
X160399000Y-113476000D02*
X161900000Y-111975000D01*
D42*
X156235400Y-95275400D02*
X155905200Y-94945200D01*
D45*
X160399000Y-113476000D02*
X157835600Y-113476000D01*
X161900000Y-111975000D02*
X171025000Y-111975000D01*
X157835600Y-113476000D02*
X157835600Y-114493000D01*
D42*
X173600000Y-102100000D02*
X174736400Y-103236400D01*
X154990800Y-94945200D02*
X154990800Y-96443800D01*
D45*
X175475600Y-107524400D02*
X175475600Y-103236400D01*
D42*
X174736400Y-103236400D02*
X175475600Y-103236400D01*
D45*
X171025000Y-111975000D02*
X175475600Y-107524400D01*
D42*
G04 #@! TO.N,Net-(U1-EN)*
X155025000Y-88566400D02*
X155025000Y-89700000D01*
X154975600Y-88517000D02*
X155025000Y-88566400D01*
D45*
X155879400Y-89266400D02*
X157975600Y-89266400D01*
D42*
X155879400Y-89266400D02*
X155445800Y-89700000D01*
X155445800Y-89700000D02*
X155025000Y-89700000D01*
D45*
G04 #@! TO.N,Net-(J1-MISO)*
X159300000Y-90710800D02*
X159125600Y-90536400D01*
X157160600Y-90536400D02*
X157975600Y-90536400D01*
D42*
X157160600Y-90536400D02*
X156972000Y-90347800D01*
D45*
X159125600Y-90536400D02*
X157975600Y-90536400D01*
X155420902Y-106451400D02*
X156648600Y-106451400D01*
X159300000Y-103800000D02*
X159300000Y-90710800D01*
D42*
X156972000Y-90347800D02*
X155755200Y-90347800D01*
D45*
X152365902Y-109506400D02*
X155420902Y-106451400D01*
D42*
X155755200Y-90347800D02*
X155003000Y-91100000D01*
D45*
X156648600Y-106451400D02*
X159300000Y-103800000D01*
D42*
G04 #@! TO.N,Net-(C2-Pad1)*
X135600000Y-87800000D02*
X135600000Y-87589400D01*
D45*
X117900000Y-88050000D02*
X124100000Y-88050000D01*
D42*
X151600600Y-90080400D02*
X150850600Y-90830400D01*
X151600600Y-90076193D02*
X151600600Y-90080400D01*
X152132600Y-89548400D02*
X152128393Y-89548400D01*
X150469600Y-92481400D02*
X147294600Y-92481400D01*
X133171000Y-93571000D02*
X133935600Y-94335600D01*
X126400000Y-87600000D02*
X124597000Y-87600000D01*
X147294600Y-92481400D02*
X145770600Y-90957400D01*
X133171000Y-90229000D02*
X133171000Y-93571000D01*
X153375000Y-88306000D02*
X152132600Y-89548400D01*
X150850600Y-90830400D02*
X150850600Y-92100400D01*
X133171000Y-90229000D02*
X135600000Y-87800000D01*
X152128393Y-89548400D02*
X151600600Y-90076193D01*
X150850600Y-92100400D02*
X150469600Y-92481400D01*
X145770600Y-90957400D02*
X145770600Y-87757000D01*
X124597000Y-87600000D02*
X124147000Y-88050000D01*
X145770600Y-87757000D02*
X145204000Y-87190400D01*
X136209600Y-87190400D02*
X133171000Y-90229000D01*
X145204000Y-87190400D02*
X136209600Y-87190400D01*
G04 #@! TO.N,Net-(C3-Pad1)*
X138531600Y-92989400D02*
X137388600Y-94132400D01*
X142468600Y-99212400D02*
X144907000Y-96774000D01*
X153010600Y-96774000D02*
X153340800Y-96443800D01*
X137388600Y-94132400D02*
X137388600Y-98577400D01*
D45*
X137515600Y-88091400D02*
X143715600Y-88091400D01*
D42*
X144907000Y-96774000D02*
X153010600Y-96774000D01*
D45*
X136414600Y-90085400D02*
X136414600Y-88558142D01*
D42*
X137388600Y-98577400D02*
X138023600Y-99212400D01*
X138023600Y-99212400D02*
X142468600Y-99212400D01*
X145262600Y-89074854D02*
X145262600Y-92989400D01*
D45*
X133908800Y-92591200D02*
X136414600Y-90085400D01*
X136414600Y-88558142D02*
X136881342Y-88091400D01*
D42*
X145262600Y-92989400D02*
X138531600Y-92989400D01*
X144279146Y-88091400D02*
X145262600Y-89074854D01*
D45*
G04 #@! TO.N,Net-(U1-IO19)*
X170999942Y-113177000D02*
X171000942Y-113176000D01*
X167995600Y-114489000D02*
X167995600Y-113904400D01*
X171000942Y-113176000D02*
X171645942Y-113176000D01*
X177486600Y-107335342D02*
X177486600Y-96257400D01*
X176845600Y-95616400D02*
X175475600Y-95616400D01*
X168723000Y-113177000D02*
X170999942Y-113177000D01*
X171645942Y-113176000D02*
X177486600Y-107335342D01*
X167995600Y-113904400D02*
X168723000Y-113177000D01*
X177486600Y-96257400D02*
X176845600Y-95616400D01*
G04 #@! TO.N,Net-(U1-IO21)*
X178087600Y-107584284D02*
X171894884Y-113777000D01*
X178087600Y-94538400D02*
X178087600Y-107584284D01*
X176625600Y-93076400D02*
X178087600Y-94538400D01*
X171894884Y-113777000D02*
X170898000Y-113777000D01*
X170898000Y-113777000D02*
X170535600Y-114139400D01*
X170535600Y-114139400D02*
X170535600Y-114489000D01*
X175475600Y-93076400D02*
X176625600Y-93076400D01*
G04 #@! TO.N,Net-(U1-IO22)*
X175615600Y-111809400D02*
X175615600Y-114489000D01*
X176566400Y-89266400D02*
X179289600Y-91989600D01*
X175475600Y-89266400D02*
X176566400Y-89266400D01*
X179289600Y-108135400D02*
X175615600Y-111809400D01*
X179289600Y-91989600D02*
X179289600Y-108135400D01*
G04 #@! TD*
G04 #@! TA.AperFunction,Conductor*
G04 #@! TO.N,+3.3V*
G36*
X131969294Y-88383805D02*
G01*
X132104522Y-88398708D01*
X132131641Y-88404833D01*
X132253524Y-88447200D01*
X132278591Y-88459214D01*
X132387964Y-88527680D01*
X132409730Y-88544985D01*
X132501081Y-88636097D01*
X132518447Y-88657823D01*
X132587193Y-88767005D01*
X132599279Y-88792054D01*
X132641960Y-88913808D01*
X132648160Y-88940922D01*
X132663418Y-89076110D01*
X132664200Y-89090017D01*
X132664200Y-95122999D01*
X132664200Y-95123000D01*
X134721600Y-95110300D01*
X135215611Y-95107250D01*
X135231145Y-95108132D01*
X135255856Y-95111100D01*
X135788142Y-95111100D01*
X135788144Y-95111100D01*
X135845990Y-95104153D01*
X135859964Y-95103273D01*
X136067692Y-95101991D01*
X136081631Y-95102691D01*
X136110944Y-95105823D01*
X136217203Y-95117179D01*
X136244412Y-95123238D01*
X136366672Y-95165354D01*
X136391841Y-95177338D01*
X136501606Y-95245702D01*
X136523457Y-95263002D01*
X136615180Y-95354161D01*
X136632614Y-95375904D01*
X136701653Y-95485244D01*
X136713792Y-95510338D01*
X136756661Y-95632333D01*
X136762888Y-95659504D01*
X136778214Y-95794985D01*
X136779000Y-95808923D01*
X136779000Y-98400158D01*
X136778215Y-98414088D01*
X136762907Y-98549487D01*
X136756688Y-98576641D01*
X136713871Y-98698571D01*
X136701745Y-98723655D01*
X136632783Y-98832954D01*
X136615366Y-98854695D01*
X136523749Y-98945836D01*
X136501917Y-98963141D01*
X136392266Y-99031529D01*
X136367121Y-99043523D01*
X136244966Y-99085707D01*
X136217777Y-99091785D01*
X136082298Y-99106386D01*
X136068365Y-99107098D01*
X132198432Y-99086942D01*
X132198280Y-99086942D01*
X131902200Y-99085400D01*
X131677792Y-99314633D01*
X131677791Y-99314634D01*
X129540000Y-101498400D01*
X129540000Y-107176389D01*
X129538936Y-107192600D01*
X129518209Y-107349780D01*
X129509804Y-107381094D01*
X129452189Y-107519940D01*
X129435954Y-107548005D01*
X129339312Y-107673677D01*
X129328586Y-107685879D01*
X127910886Y-109100000D01*
X123810662Y-113189869D01*
X123798475Y-113200532D01*
X123672998Y-113296604D01*
X123644995Y-113312740D01*
X123506520Y-113369995D01*
X123475300Y-113378346D01*
X123318611Y-113398942D01*
X123302451Y-113400000D01*
X122306960Y-113400000D01*
X122293077Y-113399220D01*
X122158119Y-113384014D01*
X122131047Y-113377835D01*
X122009470Y-113335293D01*
X121984453Y-113323246D01*
X121875385Y-113254714D01*
X121853676Y-113237401D01*
X121762598Y-113146323D01*
X121745285Y-113124614D01*
X121676753Y-113015546D01*
X121664708Y-112990533D01*
X121622163Y-112868948D01*
X121615986Y-112841885D01*
X121600780Y-112706922D01*
X121600000Y-112693039D01*
X121600000Y-109106960D01*
X121600780Y-109093077D01*
X121615986Y-108958112D01*
X121622162Y-108931053D01*
X121664709Y-108809463D01*
X121676749Y-108784459D01*
X121745289Y-108675379D01*
X121762594Y-108653680D01*
X121853680Y-108562594D01*
X121875379Y-108545289D01*
X121984459Y-108476749D01*
X122009463Y-108464709D01*
X122131053Y-108422162D01*
X122158112Y-108415986D01*
X122293077Y-108400779D01*
X122306960Y-108400000D01*
X123199999Y-108400000D01*
X123200000Y-108400000D01*
X123392627Y-108217509D01*
X123392630Y-108217508D01*
X123402489Y-108208167D01*
X123402491Y-108208167D01*
X124881421Y-106807075D01*
X124881421Y-106807074D01*
X125100000Y-106600000D01*
X125100000Y-100528733D01*
X125100471Y-100517935D01*
X125109673Y-100412668D01*
X125113420Y-100391399D01*
X125140750Y-100289310D01*
X125143991Y-100279024D01*
X125457855Y-99415898D01*
X125500000Y-99300000D01*
X125500000Y-98320530D01*
X128925800Y-98320530D01*
X128940922Y-98454741D01*
X129000463Y-98624901D01*
X129096377Y-98777548D01*
X129223851Y-98905022D01*
X129376498Y-99000936D01*
X129546658Y-99060477D01*
X129680869Y-99075599D01*
X129680870Y-99075600D01*
X129875800Y-99075600D01*
X130575800Y-99075600D01*
X130770730Y-99075600D01*
X130770730Y-99075599D01*
X130904941Y-99060477D01*
X131075101Y-99000936D01*
X131227748Y-98905022D01*
X131355222Y-98777548D01*
X131451136Y-98624901D01*
X131510677Y-98454741D01*
X131525799Y-98320530D01*
X131525800Y-98320530D01*
X131525800Y-97225600D01*
X130575800Y-97225600D01*
X130575800Y-99075600D01*
X129875800Y-99075600D01*
X129875800Y-97225600D01*
X128925800Y-97225600D01*
X128925800Y-98320530D01*
X125500000Y-98320530D01*
X125500000Y-95430669D01*
X128925800Y-95430669D01*
X128925800Y-96525600D01*
X129875800Y-96525600D01*
X130575800Y-96525600D01*
X131525800Y-96525600D01*
X131525800Y-95430670D01*
X131525799Y-95430669D01*
X131510677Y-95296458D01*
X131451136Y-95126298D01*
X131355222Y-94973651D01*
X131227748Y-94846177D01*
X131075101Y-94750263D01*
X130904941Y-94690722D01*
X130770730Y-94675600D01*
X130575800Y-94675600D01*
X130575800Y-96525600D01*
X129875800Y-96525600D01*
X129875800Y-94675600D01*
X129680870Y-94675600D01*
X129546658Y-94690722D01*
X129376498Y-94750263D01*
X129223851Y-94846177D01*
X129096377Y-94973651D01*
X129000463Y-95126298D01*
X128940922Y-95296458D01*
X128925800Y-95430669D01*
X125500000Y-95430669D01*
X125500000Y-91600000D01*
X125500000Y-89105117D01*
X125500777Y-89091257D01*
X125515933Y-88956514D01*
X125522088Y-88929496D01*
X125564497Y-88808079D01*
X125576501Y-88783106D01*
X125644820Y-88674150D01*
X125662075Y-88652464D01*
X125668541Y-88645981D01*
X125752892Y-88561409D01*
X125774527Y-88544102D01*
X125883308Y-88475494D01*
X125908244Y-88463427D01*
X126029551Y-88420699D01*
X126056555Y-88414472D01*
X126092925Y-88410285D01*
X126145602Y-88417657D01*
X126146091Y-88416048D01*
X126151907Y-88417811D01*
X126151918Y-88417816D01*
X126262943Y-88439900D01*
X126316228Y-88450499D01*
X126316232Y-88450500D01*
X126316233Y-88450500D01*
X126483768Y-88450500D01*
X126483769Y-88450499D01*
X126648082Y-88417816D01*
X126676056Y-88406228D01*
X126723175Y-88396790D01*
X131955395Y-88383060D01*
X131969294Y-88383805D01*
G37*
G04 #@! TD.AperFunction*
G04 #@! TD*
M02*
