%TF.GenerationSoftware,KiCad,Pcbnew,9.0.6*%
%TF.CreationDate,2026-01-30T17:04:59+01:00*%
%TF.ProjectId,ESP32_PWM_PCB,45535033-325f-4505-974d-5f5043422e6b,1.0*%
%TF.SameCoordinates,Original*%
%TF.FileFunction,Drillmap*%
%TF.FilePolarity,Positive*%
%FSLAX45Y45*%
G04 Gerber Fmt 4.5, Leading zero omitted, Abs format (unit mm)*
G04 Created by KiCad (PCBNEW 9.0.6) date 2026-01-30 17:04:59*
%MOMM*%
%LPD*%
G01*
G04 APERTURE LIST*
%ADD10C,0.050000*%
%ADD11C,0.200000*%
%ADD12C,0.100000*%
%ADD13C,0.140000*%
%ADD14C,0.220000*%
%ADD15C,0.320000*%
G04 APERTURE END LIST*
D10*
X18730000Y-12655000D02*
X10792500Y-12655000D01*
X18722340Y-9057640D02*
X18722340Y-8519160D01*
X18505200Y-9057640D02*
X18722340Y-9057640D01*
X18504150Y-10795000D02*
X18728690Y-10795000D01*
X18504150Y-10795000D02*
G75*
G02*
X18354150Y-10644890I0J150000D01*
G01*
X18355200Y-9207530D02*
G75*
G02*
X18505200Y-9057640I150000J-110D01*
G01*
X10792500Y-12655000D02*
X10792460Y-8519160D01*
X18728690Y-10795000D02*
X18730000Y-12655000D01*
X18354150Y-10644890D02*
X18355200Y-9207530D01*
X18722340Y-8519160D02*
X10792460Y-8519160D01*
D11*
D12*
X16432060Y-9310390D02*
X16472060Y-9350390D01*
X16472060Y-9310390D02*
X16432060Y-9350390D01*
X16432060Y-9462890D02*
X16472060Y-9502890D01*
X16472060Y-9462890D02*
X16432060Y-9502890D01*
X16508310Y-9234140D02*
X16548310Y-9274140D01*
X16548310Y-9234140D02*
X16508310Y-9274140D01*
X16508310Y-9386640D02*
X16548310Y-9426640D01*
X16548310Y-9386640D02*
X16508310Y-9426640D01*
X16508310Y-9539140D02*
X16548310Y-9579140D01*
X16548310Y-9539140D02*
X16508310Y-9579140D01*
X16584560Y-9310390D02*
X16624560Y-9350390D01*
X16624560Y-9310390D02*
X16584560Y-9350390D01*
X16584560Y-9462890D02*
X16624560Y-9502890D01*
X16624560Y-9462890D02*
X16584560Y-9502890D01*
X16660810Y-9234140D02*
X16700810Y-9274140D01*
X16700810Y-9234140D02*
X16660810Y-9274140D01*
X16660810Y-9386640D02*
X16700810Y-9426640D01*
X16700810Y-9386640D02*
X16660810Y-9426640D01*
X16660810Y-9539140D02*
X16700810Y-9579140D01*
X16700810Y-9539140D02*
X16660810Y-9579140D01*
X16737060Y-9310390D02*
X16777060Y-9350390D01*
X16777060Y-9310390D02*
X16737060Y-9350390D01*
X16737060Y-9462890D02*
X16777060Y-9502890D01*
X16777060Y-9462890D02*
X16737060Y-9502890D01*
X12130560Y-9184640D02*
G75*
G02*
X12070560Y-9184640I-30000J0D01*
G01*
X12070560Y-9184640D02*
G75*
G02*
X12130560Y-9184640I30000J0D01*
G01*
X12670000Y-8760000D02*
G75*
G02*
X12610000Y-8760000I-30000J0D01*
G01*
X12610000Y-8760000D02*
G75*
G02*
X12670000Y-8760000I30000J0D01*
G01*
X13590000Y-8758940D02*
G75*
G02*
X13530000Y-8758940I-30000J0D01*
G01*
X13530000Y-8758940D02*
G75*
G02*
X13590000Y-8758940I30000J0D01*
G01*
X14099060Y-9184640D02*
G75*
G02*
X14039060Y-9184640I-30000J0D01*
G01*
X14039060Y-9184640D02*
G75*
G02*
X14099060Y-9184640I30000J0D01*
G01*
X14730000Y-10200000D02*
G75*
G02*
X14670000Y-10200000I-30000J0D01*
G01*
X14670000Y-10200000D02*
G75*
G02*
X14730000Y-10200000I30000J0D01*
G01*
X14749269Y-9587400D02*
G75*
G02*
X14689269Y-9587400I-30000J0D01*
G01*
X14689269Y-9587400D02*
G75*
G02*
X14749269Y-9587400I30000J0D01*
G01*
X15199556Y-8871265D02*
G75*
G02*
X15139556Y-8871265I-30000J0D01*
G01*
X15139556Y-8871265D02*
G75*
G02*
X15199556Y-8871265I30000J0D01*
G01*
X15280160Y-9044940D02*
G75*
G02*
X15220160Y-9044940I-30000J0D01*
G01*
X15220160Y-9044940D02*
G75*
G02*
X15280160Y-9044940I30000J0D01*
G01*
X15280160Y-9525000D02*
G75*
G02*
X15220160Y-9525000I-30000J0D01*
G01*
X15220160Y-9525000D02*
G75*
G02*
X15280160Y-9525000I30000J0D01*
G01*
X15567044Y-10159607D02*
G75*
G02*
X15507044Y-10159607I-30000J0D01*
G01*
X15507044Y-10159607D02*
G75*
G02*
X15567044Y-10159607I30000J0D01*
G01*
X15614186Y-10280758D02*
G75*
G02*
X15554186Y-10280758I-30000J0D01*
G01*
X15554186Y-10280758D02*
G75*
G02*
X15614186Y-10280758I30000J0D01*
G01*
X15653540Y-9527540D02*
G75*
G02*
X15593540Y-9527540I-30000J0D01*
G01*
X15593540Y-9527540D02*
G75*
G02*
X15653540Y-9527540I30000J0D01*
G01*
X15671501Y-10397442D02*
G75*
G02*
X15611501Y-10397442I-30000J0D01*
G01*
X15611501Y-10397442D02*
G75*
G02*
X15671501Y-10397442I30000J0D01*
G01*
X16072640Y-8681720D02*
G75*
G02*
X16012640Y-8681720I-30000J0D01*
G01*
X16012640Y-8681720D02*
G75*
G02*
X16072640Y-8681720I30000J0D01*
G01*
X16170000Y-10670000D02*
G75*
G02*
X16110000Y-10670000I-30000J0D01*
G01*
X16110000Y-10670000D02*
G75*
G02*
X16170000Y-10670000I30000J0D01*
G01*
X17180000Y-9260000D02*
G75*
G02*
X17120000Y-9260000I-30000J0D01*
G01*
X17120000Y-9260000D02*
G75*
G02*
X17180000Y-9260000I30000J0D01*
G01*
X17180000Y-9400000D02*
G75*
G02*
X17120000Y-9400000I-30000J0D01*
G01*
X17120000Y-9400000D02*
G75*
G02*
X17180000Y-9400000I30000J0D01*
G01*
X17180000Y-9810000D02*
G75*
G02*
X17120000Y-9810000I-30000J0D01*
G01*
X17120000Y-9810000D02*
G75*
G02*
X17180000Y-9810000I30000J0D01*
G01*
X17182760Y-9667240D02*
G75*
G02*
X17122760Y-9667240I-30000J0D01*
G01*
X17122760Y-9667240D02*
G75*
G02*
X17182760Y-9667240I30000J0D01*
G01*
X17330960Y-10037640D02*
G75*
G02*
X17270960Y-10037640I-30000J0D01*
G01*
X17270960Y-10037640D02*
G75*
G02*
X17330960Y-10037640I30000J0D01*
G01*
X17390000Y-10210000D02*
G75*
G02*
X17330000Y-10210000I-30000J0D01*
G01*
X17330000Y-10210000D02*
G75*
G02*
X17390000Y-10210000I30000J0D01*
G01*
X17845560Y-8676640D02*
G75*
G02*
X17785560Y-8676640I-30000J0D01*
G01*
X17785560Y-8676640D02*
G75*
G02*
X17845560Y-8676640I30000J0D01*
G01*
X13401040Y-10356740D02*
X13401040Y-10436740D01*
X13361040Y-10396740D02*
X13441040Y-10396740D01*
X13401040Y-10706740D02*
X13401040Y-10786740D01*
X13361040Y-10746740D02*
X13441040Y-10746740D01*
X14982590Y-10148640D02*
X14982590Y-10228640D01*
X14942590Y-10188640D02*
X15022590Y-10188640D01*
X14982590Y-10402640D02*
X14982590Y-10482640D01*
X14942590Y-10442640D02*
X15022590Y-10442640D01*
X14982590Y-10656640D02*
X14982590Y-10736640D01*
X14942590Y-10696640D02*
X15022590Y-10696640D01*
X14982590Y-10910640D02*
X14982590Y-10990640D01*
X14942590Y-10950640D02*
X15022590Y-10950640D01*
X14982590Y-11164640D02*
X14982590Y-11244640D01*
X14942590Y-11204640D02*
X15022590Y-11204640D01*
X15236590Y-10148640D02*
X15236590Y-10228640D01*
X15196590Y-10188640D02*
X15276590Y-10188640D01*
X15236590Y-10402640D02*
X15236590Y-10482640D01*
X15196590Y-10442640D02*
X15276590Y-10442640D01*
X15236590Y-10656640D02*
X15236590Y-10736640D01*
X15196590Y-10696640D02*
X15276590Y-10696640D01*
X15236590Y-10910640D02*
X15236590Y-10990640D01*
X15196590Y-10950640D02*
X15276590Y-10950640D01*
X15236590Y-11164640D02*
X15236590Y-11244640D01*
X15196590Y-11204640D02*
X15276590Y-11204640D01*
X16513880Y-10994460D02*
X16513880Y-10930820D01*
X16450240Y-10930820D01*
X16450240Y-10994460D01*
X16513880Y-10994460D01*
X16767880Y-10994460D02*
X16767880Y-10930820D01*
X16704240Y-10930820D01*
X16704240Y-10994460D01*
X16767880Y-10994460D01*
X12227560Y-11937200D02*
X12277560Y-11887200D01*
X12227560Y-11837200D01*
X12177560Y-11887200D01*
X12227560Y-11937200D01*
X12227560Y-12191200D02*
X12277560Y-12141200D01*
X12227560Y-12091200D01*
X12177560Y-12141200D01*
X12227560Y-12191200D01*
X12227560Y-12445200D02*
X12277560Y-12395200D01*
X12227560Y-12345200D01*
X12177560Y-12395200D01*
X12227560Y-12445200D01*
X12481560Y-11937200D02*
X12531560Y-11887200D01*
X12481560Y-11837200D01*
X12431560Y-11887200D01*
X12481560Y-11937200D01*
X12481560Y-12191200D02*
X12531560Y-12141200D01*
X12481560Y-12091200D01*
X12431560Y-12141200D01*
X12481560Y-12191200D01*
X12481560Y-12445200D02*
X12531560Y-12395200D01*
X12481560Y-12345200D01*
X12431560Y-12395200D01*
X12481560Y-12445200D01*
X12735560Y-11937200D02*
X12785560Y-11887200D01*
X12735560Y-11837200D01*
X12685560Y-11887200D01*
X12735560Y-11937200D01*
X12735560Y-12191200D02*
X12785560Y-12141200D01*
X12735560Y-12091200D01*
X12685560Y-12141200D01*
X12735560Y-12191200D01*
X12735560Y-12445200D02*
X12785560Y-12395200D01*
X12735560Y-12345200D01*
X12685560Y-12395200D01*
X12735560Y-12445200D01*
X12989560Y-11937200D02*
X13039560Y-11887200D01*
X12989560Y-11837200D01*
X12939560Y-11887200D01*
X12989560Y-11937200D01*
X12989560Y-12191200D02*
X13039560Y-12141200D01*
X12989560Y-12091200D01*
X12939560Y-12141200D01*
X12989560Y-12191200D01*
X12989560Y-12445200D02*
X13039560Y-12395200D01*
X12989560Y-12345200D01*
X12939560Y-12395200D01*
X12989560Y-12445200D01*
X13751560Y-11937200D02*
X13801560Y-11887200D01*
X13751560Y-11837200D01*
X13701560Y-11887200D01*
X13751560Y-11937200D01*
X13751560Y-12191200D02*
X13801560Y-12141200D01*
X13751560Y-12091200D01*
X13701560Y-12141200D01*
X13751560Y-12191200D01*
X13751560Y-12445200D02*
X13801560Y-12395200D01*
X13751560Y-12345200D01*
X13701560Y-12395200D01*
X13751560Y-12445200D01*
X13929360Y-9577540D02*
X13979360Y-9527540D01*
X13929360Y-9477540D01*
X13879360Y-9527540D01*
X13929360Y-9577540D01*
X13929360Y-9831540D02*
X13979360Y-9781540D01*
X13929360Y-9731540D01*
X13879360Y-9781540D01*
X13929360Y-9831540D01*
X14005560Y-11937200D02*
X14055560Y-11887200D01*
X14005560Y-11837200D01*
X13955560Y-11887200D01*
X14005560Y-11937200D01*
X14005560Y-12191200D02*
X14055560Y-12141200D01*
X14005560Y-12091200D01*
X13955560Y-12141200D01*
X14005560Y-12191200D01*
X14005560Y-12445200D02*
X14055560Y-12395200D01*
X14005560Y-12345200D01*
X13955560Y-12395200D01*
X14005560Y-12445200D01*
X14183360Y-9577540D02*
X14233360Y-9527540D01*
X14183360Y-9477540D01*
X14133360Y-9527540D01*
X14183360Y-9577540D01*
X14183360Y-9831540D02*
X14233360Y-9781540D01*
X14183360Y-9731540D01*
X14133360Y-9781540D01*
X14183360Y-9831540D01*
X14259560Y-11937200D02*
X14309560Y-11887200D01*
X14259560Y-11837200D01*
X14209560Y-11887200D01*
X14259560Y-11937200D01*
X14259560Y-12191200D02*
X14309560Y-12141200D01*
X14259560Y-12091200D01*
X14209560Y-12141200D01*
X14259560Y-12191200D01*
X14259560Y-12445200D02*
X14309560Y-12395200D01*
X14259560Y-12345200D01*
X14209560Y-12395200D01*
X14259560Y-12445200D01*
X14513560Y-11937200D02*
X14563560Y-11887200D01*
X14513560Y-11837200D01*
X14463560Y-11887200D01*
X14513560Y-11937200D01*
X14513560Y-12191200D02*
X14563560Y-12141200D01*
X14513560Y-12091200D01*
X14463560Y-12141200D01*
X14513560Y-12191200D01*
X14513560Y-12445200D02*
X14563560Y-12395200D01*
X14513560Y-12345200D01*
X14463560Y-12395200D01*
X14513560Y-12445200D01*
X14894560Y-8917140D02*
X14944560Y-8867140D01*
X14894560Y-8817140D01*
X14844560Y-8867140D01*
X14894560Y-8917140D01*
X14894560Y-9171140D02*
X14944560Y-9121140D01*
X14894560Y-9071140D01*
X14844560Y-9121140D01*
X14894560Y-9171140D01*
X14894560Y-9425140D02*
X14944560Y-9375140D01*
X14894560Y-9325140D01*
X14844560Y-9375140D01*
X14894560Y-9425140D01*
X15275560Y-11937200D02*
X15325560Y-11887200D01*
X15275560Y-11837200D01*
X15225560Y-11887200D01*
X15275560Y-11937200D01*
X15275560Y-12191200D02*
X15325560Y-12141200D01*
X15275560Y-12091200D01*
X15225560Y-12141200D01*
X15275560Y-12191200D01*
X15275560Y-12445200D02*
X15325560Y-12395200D01*
X15275560Y-12345200D01*
X15225560Y-12395200D01*
X15275560Y-12445200D01*
X15529560Y-11937200D02*
X15579560Y-11887200D01*
X15529560Y-11837200D01*
X15479560Y-11887200D01*
X15529560Y-11937200D01*
X15529560Y-12191200D02*
X15579560Y-12141200D01*
X15529560Y-12091200D01*
X15479560Y-12141200D01*
X15529560Y-12191200D01*
X15529560Y-12445200D02*
X15579560Y-12395200D01*
X15529560Y-12345200D01*
X15479560Y-12395200D01*
X15529560Y-12445200D01*
X15657060Y-10860240D02*
X15707060Y-10810240D01*
X15657060Y-10760240D01*
X15607060Y-10810240D01*
X15657060Y-10860240D01*
X15783560Y-11937200D02*
X15833560Y-11887200D01*
X15783560Y-11837200D01*
X15733560Y-11887200D01*
X15783560Y-11937200D01*
X15783560Y-12191200D02*
X15833560Y-12141200D01*
X15783560Y-12091200D01*
X15733560Y-12141200D01*
X15783560Y-12191200D01*
X15783560Y-12445200D02*
X15833560Y-12395200D01*
X15783560Y-12345200D01*
X15733560Y-12395200D01*
X15783560Y-12445200D01*
X15911060Y-10860240D02*
X15961060Y-10810240D01*
X15911060Y-10760240D01*
X15861060Y-10810240D01*
X15911060Y-10860240D01*
X16037560Y-11937200D02*
X16087560Y-11887200D01*
X16037560Y-11837200D01*
X15987560Y-11887200D01*
X16037560Y-11937200D01*
X16037560Y-12191200D02*
X16087560Y-12141200D01*
X16037560Y-12091200D01*
X15987560Y-12141200D01*
X16037560Y-12191200D01*
X16037560Y-12445200D02*
X16087560Y-12395200D01*
X16037560Y-12345200D01*
X15987560Y-12395200D01*
X16037560Y-12445200D01*
X16799560Y-11937200D02*
X16849560Y-11887200D01*
X16799560Y-11837200D01*
X16749560Y-11887200D01*
X16799560Y-11937200D01*
X16799560Y-12191200D02*
X16849560Y-12141200D01*
X16799560Y-12091200D01*
X16749560Y-12141200D01*
X16799560Y-12191200D01*
X16799560Y-12445200D02*
X16849560Y-12395200D01*
X16799560Y-12345200D01*
X16749560Y-12395200D01*
X16799560Y-12445200D01*
X17053560Y-11937200D02*
X17103560Y-11887200D01*
X17053560Y-11837200D01*
X17003560Y-11887200D01*
X17053560Y-11937200D01*
X17053560Y-12191200D02*
X17103560Y-12141200D01*
X17053560Y-12091200D01*
X17003560Y-12141200D01*
X17053560Y-12191200D01*
X17053560Y-12445200D02*
X17103560Y-12395200D01*
X17053560Y-12345200D01*
X17003560Y-12395200D01*
X17053560Y-12445200D01*
X17307560Y-11937200D02*
X17357560Y-11887200D01*
X17307560Y-11837200D01*
X17257560Y-11887200D01*
X17307560Y-11937200D01*
X17307560Y-12191200D02*
X17357560Y-12141200D01*
X17307560Y-12091200D01*
X17257560Y-12141200D01*
X17307560Y-12191200D01*
X17307560Y-12445200D02*
X17357560Y-12395200D01*
X17307560Y-12345200D01*
X17257560Y-12395200D01*
X17307560Y-12445200D01*
X17561560Y-11937200D02*
X17611560Y-11887200D01*
X17561560Y-11837200D01*
X17511560Y-11887200D01*
X17561560Y-11937200D01*
X17561560Y-12191200D02*
X17611560Y-12141200D01*
X17561560Y-12091200D01*
X17511560Y-12141200D01*
X17561560Y-12191200D01*
X17561560Y-12445200D02*
X17611560Y-12395200D01*
X17561560Y-12345200D01*
X17511560Y-12395200D01*
X17561560Y-12445200D01*
D13*
X11916260Y-10255340D02*
X12056260Y-10395340D01*
X12056260Y-10255340D02*
X11916260Y-10395340D01*
X12056260Y-10325340D02*
G75*
G02*
X11916260Y-10325340I-70000J0D01*
G01*
X11916260Y-10325340D02*
G75*
G02*
X12056260Y-10325340I70000J0D01*
G01*
X11916260Y-10651340D02*
X12056260Y-10791340D01*
X12056260Y-10651340D02*
X11916260Y-10791340D01*
X12056260Y-10721340D02*
G75*
G02*
X11916260Y-10721340I-70000J0D01*
G01*
X11916260Y-10721340D02*
G75*
G02*
X12056260Y-10721340I70000J0D01*
G01*
X11916260Y-11047340D02*
X12056260Y-11187340D01*
X12056260Y-11047340D02*
X11916260Y-11187340D01*
X12056260Y-11117340D02*
G75*
G02*
X11916260Y-11117340I-70000J0D01*
G01*
X11916260Y-11117340D02*
G75*
G02*
X12056260Y-11117340I70000J0D01*
G01*
D14*
X18211020Y-8693640D02*
X18431020Y-8913640D01*
X18431020Y-8693640D02*
X18211020Y-8913640D01*
X18321020Y-8693640D02*
X18321020Y-8913640D01*
X18211020Y-8803640D02*
X18431020Y-8803640D01*
D15*
X11051560Y-8834140D02*
X11371560Y-9154140D01*
X11371560Y-8834140D02*
X11051560Y-9154140D01*
X11324698Y-9107278D02*
X11324698Y-8881002D01*
X11098422Y-8881002D01*
X11098422Y-9107278D01*
X11324698Y-9107278D01*
X11051560Y-12108200D02*
X11371560Y-12428200D01*
X11371560Y-12108200D02*
X11051560Y-12428200D01*
X11324698Y-12381338D02*
X11324698Y-12155062D01*
X11098422Y-12155062D01*
X11098422Y-12381338D01*
X11324698Y-12381338D01*
X18163560Y-12108200D02*
X18483560Y-12428200D01*
X18483560Y-12108200D02*
X18163560Y-12428200D01*
X18436698Y-12381338D02*
X18436698Y-12155062D01*
X18210422Y-12155062D01*
X18210422Y-12381338D01*
X18436698Y-12381338D01*
D11*
X11050737Y-12968984D02*
X11050737Y-12768984D01*
X11050737Y-12768984D02*
X11098356Y-12768984D01*
X11098356Y-12768984D02*
X11126927Y-12778508D01*
X11126927Y-12778508D02*
X11145975Y-12797555D01*
X11145975Y-12797555D02*
X11155499Y-12816603D01*
X11155499Y-12816603D02*
X11165023Y-12854698D01*
X11165023Y-12854698D02*
X11165023Y-12883269D01*
X11165023Y-12883269D02*
X11155499Y-12921365D01*
X11155499Y-12921365D02*
X11145975Y-12940412D01*
X11145975Y-12940412D02*
X11126927Y-12959460D01*
X11126927Y-12959460D02*
X11098356Y-12968984D01*
X11098356Y-12968984D02*
X11050737Y-12968984D01*
X11250737Y-12968984D02*
X11250737Y-12835650D01*
X11250737Y-12873746D02*
X11260261Y-12854698D01*
X11260261Y-12854698D02*
X11269784Y-12845174D01*
X11269784Y-12845174D02*
X11288832Y-12835650D01*
X11288832Y-12835650D02*
X11307880Y-12835650D01*
X11374546Y-12968984D02*
X11374546Y-12835650D01*
X11374546Y-12768984D02*
X11365022Y-12778508D01*
X11365022Y-12778508D02*
X11374546Y-12788031D01*
X11374546Y-12788031D02*
X11384070Y-12778508D01*
X11384070Y-12778508D02*
X11374546Y-12768984D01*
X11374546Y-12768984D02*
X11374546Y-12788031D01*
X11498356Y-12968984D02*
X11479308Y-12959460D01*
X11479308Y-12959460D02*
X11469784Y-12940412D01*
X11469784Y-12940412D02*
X11469784Y-12768984D01*
X11603118Y-12968984D02*
X11584070Y-12959460D01*
X11584070Y-12959460D02*
X11574546Y-12940412D01*
X11574546Y-12940412D02*
X11574546Y-12768984D01*
X11831689Y-12968984D02*
X11831689Y-12768984D01*
X11831689Y-12768984D02*
X11898356Y-12911841D01*
X11898356Y-12911841D02*
X11965022Y-12768984D01*
X11965022Y-12768984D02*
X11965022Y-12968984D01*
X12145975Y-12968984D02*
X12145975Y-12864222D01*
X12145975Y-12864222D02*
X12136451Y-12845174D01*
X12136451Y-12845174D02*
X12117403Y-12835650D01*
X12117403Y-12835650D02*
X12079308Y-12835650D01*
X12079308Y-12835650D02*
X12060261Y-12845174D01*
X12145975Y-12959460D02*
X12126927Y-12968984D01*
X12126927Y-12968984D02*
X12079308Y-12968984D01*
X12079308Y-12968984D02*
X12060261Y-12959460D01*
X12060261Y-12959460D02*
X12050737Y-12940412D01*
X12050737Y-12940412D02*
X12050737Y-12921365D01*
X12050737Y-12921365D02*
X12060261Y-12902317D01*
X12060261Y-12902317D02*
X12079308Y-12892793D01*
X12079308Y-12892793D02*
X12126927Y-12892793D01*
X12126927Y-12892793D02*
X12145975Y-12883269D01*
X12241213Y-12835650D02*
X12241213Y-13035650D01*
X12241213Y-12845174D02*
X12260261Y-12835650D01*
X12260261Y-12835650D02*
X12298356Y-12835650D01*
X12298356Y-12835650D02*
X12317403Y-12845174D01*
X12317403Y-12845174D02*
X12326927Y-12854698D01*
X12326927Y-12854698D02*
X12336451Y-12873746D01*
X12336451Y-12873746D02*
X12336451Y-12930888D01*
X12336451Y-12930888D02*
X12326927Y-12949936D01*
X12326927Y-12949936D02*
X12317403Y-12959460D01*
X12317403Y-12959460D02*
X12298356Y-12968984D01*
X12298356Y-12968984D02*
X12260261Y-12968984D01*
X12260261Y-12968984D02*
X12241213Y-12959460D01*
X12422165Y-12949936D02*
X12431689Y-12959460D01*
X12431689Y-12959460D02*
X12422165Y-12968984D01*
X12422165Y-12968984D02*
X12412642Y-12959460D01*
X12412642Y-12959460D02*
X12422165Y-12949936D01*
X12422165Y-12949936D02*
X12422165Y-12968984D01*
X12422165Y-12845174D02*
X12431689Y-12854698D01*
X12431689Y-12854698D02*
X12422165Y-12864222D01*
X12422165Y-12864222D02*
X12412642Y-12854698D01*
X12412642Y-12854698D02*
X12422165Y-12845174D01*
X12422165Y-12845174D02*
X12422165Y-12864222D01*
D12*
X10749960Y-13277500D02*
X10789960Y-13317500D01*
X10789960Y-13277500D02*
X10749960Y-13317500D01*
D11*
X11088832Y-13188984D02*
X11107880Y-13188984D01*
X11107880Y-13188984D02*
X11126927Y-13198508D01*
X11126927Y-13198508D02*
X11136451Y-13208031D01*
X11136451Y-13208031D02*
X11145975Y-13227079D01*
X11145975Y-13227079D02*
X11155499Y-13265174D01*
X11155499Y-13265174D02*
X11155499Y-13312793D01*
X11155499Y-13312793D02*
X11145975Y-13350888D01*
X11145975Y-13350888D02*
X11136451Y-13369936D01*
X11136451Y-13369936D02*
X11126927Y-13379460D01*
X11126927Y-13379460D02*
X11107880Y-13388984D01*
X11107880Y-13388984D02*
X11088832Y-13388984D01*
X11088832Y-13388984D02*
X11069784Y-13379460D01*
X11069784Y-13379460D02*
X11060261Y-13369936D01*
X11060261Y-13369936D02*
X11050737Y-13350888D01*
X11050737Y-13350888D02*
X11041213Y-13312793D01*
X11041213Y-13312793D02*
X11041213Y-13265174D01*
X11041213Y-13265174D02*
X11050737Y-13227079D01*
X11050737Y-13227079D02*
X11060261Y-13208031D01*
X11060261Y-13208031D02*
X11069784Y-13198508D01*
X11069784Y-13198508D02*
X11088832Y-13188984D01*
X11241213Y-13369936D02*
X11250737Y-13379460D01*
X11250737Y-13379460D02*
X11241213Y-13388984D01*
X11241213Y-13388984D02*
X11231689Y-13379460D01*
X11231689Y-13379460D02*
X11241213Y-13369936D01*
X11241213Y-13369936D02*
X11241213Y-13388984D01*
X11422165Y-13255650D02*
X11422165Y-13388984D01*
X11374546Y-13179460D02*
X11326927Y-13322317D01*
X11326927Y-13322317D02*
X11450737Y-13322317D01*
X11565022Y-13188984D02*
X11584070Y-13188984D01*
X11584070Y-13188984D02*
X11603118Y-13198508D01*
X11603118Y-13198508D02*
X11612642Y-13208031D01*
X11612642Y-13208031D02*
X11622165Y-13227079D01*
X11622165Y-13227079D02*
X11631689Y-13265174D01*
X11631689Y-13265174D02*
X11631689Y-13312793D01*
X11631689Y-13312793D02*
X11622165Y-13350888D01*
X11622165Y-13350888D02*
X11612642Y-13369936D01*
X11612642Y-13369936D02*
X11603118Y-13379460D01*
X11603118Y-13379460D02*
X11584070Y-13388984D01*
X11584070Y-13388984D02*
X11565022Y-13388984D01*
X11565022Y-13388984D02*
X11545975Y-13379460D01*
X11545975Y-13379460D02*
X11536451Y-13369936D01*
X11536451Y-13369936D02*
X11526927Y-13350888D01*
X11526927Y-13350888D02*
X11517403Y-13312793D01*
X11517403Y-13312793D02*
X11517403Y-13265174D01*
X11517403Y-13265174D02*
X11526927Y-13227079D01*
X11526927Y-13227079D02*
X11536451Y-13208031D01*
X11536451Y-13208031D02*
X11545975Y-13198508D01*
X11545975Y-13198508D02*
X11565022Y-13188984D01*
X11755499Y-13188984D02*
X11774546Y-13188984D01*
X11774546Y-13188984D02*
X11793594Y-13198508D01*
X11793594Y-13198508D02*
X11803118Y-13208031D01*
X11803118Y-13208031D02*
X11812642Y-13227079D01*
X11812642Y-13227079D02*
X11822165Y-13265174D01*
X11822165Y-13265174D02*
X11822165Y-13312793D01*
X11822165Y-13312793D02*
X11812642Y-13350888D01*
X11812642Y-13350888D02*
X11803118Y-13369936D01*
X11803118Y-13369936D02*
X11793594Y-13379460D01*
X11793594Y-13379460D02*
X11774546Y-13388984D01*
X11774546Y-13388984D02*
X11755499Y-13388984D01*
X11755499Y-13388984D02*
X11736451Y-13379460D01*
X11736451Y-13379460D02*
X11726927Y-13369936D01*
X11726927Y-13369936D02*
X11717403Y-13350888D01*
X11717403Y-13350888D02*
X11707880Y-13312793D01*
X11707880Y-13312793D02*
X11707880Y-13265174D01*
X11707880Y-13265174D02*
X11717403Y-13227079D01*
X11717403Y-13227079D02*
X11726927Y-13208031D01*
X11726927Y-13208031D02*
X11736451Y-13198508D01*
X11736451Y-13198508D02*
X11755499Y-13188984D01*
X11907880Y-13388984D02*
X11907880Y-13255650D01*
X11907880Y-13274698D02*
X11917403Y-13265174D01*
X11917403Y-13265174D02*
X11936451Y-13255650D01*
X11936451Y-13255650D02*
X11965023Y-13255650D01*
X11965023Y-13255650D02*
X11984070Y-13265174D01*
X11984070Y-13265174D02*
X11993594Y-13284222D01*
X11993594Y-13284222D02*
X11993594Y-13388984D01*
X11993594Y-13284222D02*
X12003118Y-13265174D01*
X12003118Y-13265174D02*
X12022165Y-13255650D01*
X12022165Y-13255650D02*
X12050737Y-13255650D01*
X12050737Y-13255650D02*
X12069784Y-13265174D01*
X12069784Y-13265174D02*
X12079308Y-13284222D01*
X12079308Y-13284222D02*
X12079308Y-13388984D01*
X12174546Y-13388984D02*
X12174546Y-13255650D01*
X12174546Y-13274698D02*
X12184070Y-13265174D01*
X12184070Y-13265174D02*
X12203118Y-13255650D01*
X12203118Y-13255650D02*
X12231689Y-13255650D01*
X12231689Y-13255650D02*
X12250737Y-13265174D01*
X12250737Y-13265174D02*
X12260261Y-13284222D01*
X12260261Y-13284222D02*
X12260261Y-13388984D01*
X12260261Y-13284222D02*
X12269784Y-13265174D01*
X12269784Y-13265174D02*
X12288832Y-13255650D01*
X12288832Y-13255650D02*
X12317403Y-13255650D01*
X12317403Y-13255650D02*
X12336451Y-13265174D01*
X12336451Y-13265174D02*
X12345975Y-13284222D01*
X12345975Y-13284222D02*
X12345975Y-13388984D01*
X12736451Y-13179460D02*
X12565023Y-13436603D01*
X12993594Y-13188984D02*
X13012642Y-13188984D01*
X13012642Y-13188984D02*
X13031689Y-13198508D01*
X13031689Y-13198508D02*
X13041213Y-13208031D01*
X13041213Y-13208031D02*
X13050737Y-13227079D01*
X13050737Y-13227079D02*
X13060261Y-13265174D01*
X13060261Y-13265174D02*
X13060261Y-13312793D01*
X13060261Y-13312793D02*
X13050737Y-13350888D01*
X13050737Y-13350888D02*
X13041213Y-13369936D01*
X13041213Y-13369936D02*
X13031689Y-13379460D01*
X13031689Y-13379460D02*
X13012642Y-13388984D01*
X13012642Y-13388984D02*
X12993594Y-13388984D01*
X12993594Y-13388984D02*
X12974546Y-13379460D01*
X12974546Y-13379460D02*
X12965023Y-13369936D01*
X12965023Y-13369936D02*
X12955499Y-13350888D01*
X12955499Y-13350888D02*
X12945975Y-13312793D01*
X12945975Y-13312793D02*
X12945975Y-13265174D01*
X12945975Y-13265174D02*
X12955499Y-13227079D01*
X12955499Y-13227079D02*
X12965023Y-13208031D01*
X12965023Y-13208031D02*
X12974546Y-13198508D01*
X12974546Y-13198508D02*
X12993594Y-13188984D01*
X13145975Y-13369936D02*
X13155499Y-13379460D01*
X13155499Y-13379460D02*
X13145975Y-13388984D01*
X13145975Y-13388984D02*
X13136451Y-13379460D01*
X13136451Y-13379460D02*
X13145975Y-13369936D01*
X13145975Y-13369936D02*
X13145975Y-13388984D01*
X13279308Y-13188984D02*
X13298356Y-13188984D01*
X13298356Y-13188984D02*
X13317404Y-13198508D01*
X13317404Y-13198508D02*
X13326927Y-13208031D01*
X13326927Y-13208031D02*
X13336451Y-13227079D01*
X13336451Y-13227079D02*
X13345975Y-13265174D01*
X13345975Y-13265174D02*
X13345975Y-13312793D01*
X13345975Y-13312793D02*
X13336451Y-13350888D01*
X13336451Y-13350888D02*
X13326927Y-13369936D01*
X13326927Y-13369936D02*
X13317404Y-13379460D01*
X13317404Y-13379460D02*
X13298356Y-13388984D01*
X13298356Y-13388984D02*
X13279308Y-13388984D01*
X13279308Y-13388984D02*
X13260261Y-13379460D01*
X13260261Y-13379460D02*
X13250737Y-13369936D01*
X13250737Y-13369936D02*
X13241213Y-13350888D01*
X13241213Y-13350888D02*
X13231689Y-13312793D01*
X13231689Y-13312793D02*
X13231689Y-13265174D01*
X13231689Y-13265174D02*
X13241213Y-13227079D01*
X13241213Y-13227079D02*
X13250737Y-13208031D01*
X13250737Y-13208031D02*
X13260261Y-13198508D01*
X13260261Y-13198508D02*
X13279308Y-13188984D01*
X13536451Y-13388984D02*
X13422166Y-13388984D01*
X13479308Y-13388984D02*
X13479308Y-13188984D01*
X13479308Y-13188984D02*
X13460261Y-13217555D01*
X13460261Y-13217555D02*
X13441213Y-13236603D01*
X13441213Y-13236603D02*
X13422166Y-13246127D01*
X13717404Y-13188984D02*
X13622166Y-13188984D01*
X13622166Y-13188984D02*
X13612642Y-13284222D01*
X13612642Y-13284222D02*
X13622166Y-13274698D01*
X13622166Y-13274698D02*
X13641213Y-13265174D01*
X13641213Y-13265174D02*
X13688832Y-13265174D01*
X13688832Y-13265174D02*
X13707880Y-13274698D01*
X13707880Y-13274698D02*
X13717404Y-13284222D01*
X13717404Y-13284222D02*
X13726927Y-13303269D01*
X13726927Y-13303269D02*
X13726927Y-13350888D01*
X13726927Y-13350888D02*
X13717404Y-13369936D01*
X13717404Y-13369936D02*
X13707880Y-13379460D01*
X13707880Y-13379460D02*
X13688832Y-13388984D01*
X13688832Y-13388984D02*
X13641213Y-13388984D01*
X13641213Y-13388984D02*
X13622166Y-13379460D01*
X13622166Y-13379460D02*
X13612642Y-13369936D01*
X13793594Y-13188984D02*
X13926927Y-13188984D01*
X13926927Y-13188984D02*
X13841213Y-13388984D01*
X13993594Y-13188984D02*
X13993594Y-13227079D01*
X14069785Y-13188984D02*
X14069785Y-13227079D01*
X14365023Y-13465174D02*
X14355499Y-13455650D01*
X14355499Y-13455650D02*
X14336451Y-13427079D01*
X14336451Y-13427079D02*
X14326928Y-13408031D01*
X14326928Y-13408031D02*
X14317404Y-13379460D01*
X14317404Y-13379460D02*
X14307880Y-13331841D01*
X14307880Y-13331841D02*
X14307880Y-13293746D01*
X14307880Y-13293746D02*
X14317404Y-13246127D01*
X14317404Y-13246127D02*
X14326928Y-13217555D01*
X14326928Y-13217555D02*
X14336451Y-13198508D01*
X14336451Y-13198508D02*
X14355499Y-13169936D01*
X14355499Y-13169936D02*
X14365023Y-13160412D01*
X14545975Y-13388984D02*
X14431689Y-13388984D01*
X14488832Y-13388984D02*
X14488832Y-13188984D01*
X14488832Y-13188984D02*
X14469785Y-13217555D01*
X14469785Y-13217555D02*
X14450737Y-13236603D01*
X14450737Y-13236603D02*
X14431689Y-13246127D01*
X14622166Y-13208031D02*
X14631689Y-13198508D01*
X14631689Y-13198508D02*
X14650737Y-13188984D01*
X14650737Y-13188984D02*
X14698356Y-13188984D01*
X14698356Y-13188984D02*
X14717404Y-13198508D01*
X14717404Y-13198508D02*
X14726928Y-13208031D01*
X14726928Y-13208031D02*
X14736451Y-13227079D01*
X14736451Y-13227079D02*
X14736451Y-13246127D01*
X14736451Y-13246127D02*
X14726928Y-13274698D01*
X14726928Y-13274698D02*
X14612642Y-13388984D01*
X14612642Y-13388984D02*
X14736451Y-13388984D01*
X14974547Y-13388984D02*
X14974547Y-13188984D01*
X15060261Y-13388984D02*
X15060261Y-13284222D01*
X15060261Y-13284222D02*
X15050737Y-13265174D01*
X15050737Y-13265174D02*
X15031690Y-13255650D01*
X15031690Y-13255650D02*
X15003118Y-13255650D01*
X15003118Y-13255650D02*
X14984070Y-13265174D01*
X14984070Y-13265174D02*
X14974547Y-13274698D01*
X15184070Y-13388984D02*
X15165023Y-13379460D01*
X15165023Y-13379460D02*
X15155499Y-13369936D01*
X15155499Y-13369936D02*
X15145975Y-13350888D01*
X15145975Y-13350888D02*
X15145975Y-13293746D01*
X15145975Y-13293746D02*
X15155499Y-13274698D01*
X15155499Y-13274698D02*
X15165023Y-13265174D01*
X15165023Y-13265174D02*
X15184070Y-13255650D01*
X15184070Y-13255650D02*
X15212642Y-13255650D01*
X15212642Y-13255650D02*
X15231690Y-13265174D01*
X15231690Y-13265174D02*
X15241213Y-13274698D01*
X15241213Y-13274698D02*
X15250737Y-13293746D01*
X15250737Y-13293746D02*
X15250737Y-13350888D01*
X15250737Y-13350888D02*
X15241213Y-13369936D01*
X15241213Y-13369936D02*
X15231690Y-13379460D01*
X15231690Y-13379460D02*
X15212642Y-13388984D01*
X15212642Y-13388984D02*
X15184070Y-13388984D01*
X15365023Y-13388984D02*
X15345975Y-13379460D01*
X15345975Y-13379460D02*
X15336451Y-13360412D01*
X15336451Y-13360412D02*
X15336451Y-13188984D01*
X15517404Y-13379460D02*
X15498356Y-13388984D01*
X15498356Y-13388984D02*
X15460261Y-13388984D01*
X15460261Y-13388984D02*
X15441213Y-13379460D01*
X15441213Y-13379460D02*
X15431690Y-13360412D01*
X15431690Y-13360412D02*
X15431690Y-13284222D01*
X15431690Y-13284222D02*
X15441213Y-13265174D01*
X15441213Y-13265174D02*
X15460261Y-13255650D01*
X15460261Y-13255650D02*
X15498356Y-13255650D01*
X15498356Y-13255650D02*
X15517404Y-13265174D01*
X15517404Y-13265174D02*
X15526928Y-13284222D01*
X15526928Y-13284222D02*
X15526928Y-13303269D01*
X15526928Y-13303269D02*
X15431690Y-13322317D01*
X15603118Y-13379460D02*
X15622166Y-13388984D01*
X15622166Y-13388984D02*
X15660261Y-13388984D01*
X15660261Y-13388984D02*
X15679309Y-13379460D01*
X15679309Y-13379460D02*
X15688832Y-13360412D01*
X15688832Y-13360412D02*
X15688832Y-13350888D01*
X15688832Y-13350888D02*
X15679309Y-13331841D01*
X15679309Y-13331841D02*
X15660261Y-13322317D01*
X15660261Y-13322317D02*
X15631690Y-13322317D01*
X15631690Y-13322317D02*
X15612642Y-13312793D01*
X15612642Y-13312793D02*
X15603118Y-13293746D01*
X15603118Y-13293746D02*
X15603118Y-13284222D01*
X15603118Y-13284222D02*
X15612642Y-13265174D01*
X15612642Y-13265174D02*
X15631690Y-13255650D01*
X15631690Y-13255650D02*
X15660261Y-13255650D01*
X15660261Y-13255650D02*
X15679309Y-13265174D01*
X15755499Y-13465174D02*
X15765023Y-13455650D01*
X15765023Y-13455650D02*
X15784071Y-13427079D01*
X15784071Y-13427079D02*
X15793594Y-13408031D01*
X15793594Y-13408031D02*
X15803118Y-13379460D01*
X15803118Y-13379460D02*
X15812642Y-13331841D01*
X15812642Y-13331841D02*
X15812642Y-13293746D01*
X15812642Y-13293746D02*
X15803118Y-13246127D01*
X15803118Y-13246127D02*
X15793594Y-13217555D01*
X15793594Y-13217555D02*
X15784071Y-13198508D01*
X15784071Y-13198508D02*
X15765023Y-13169936D01*
X15765023Y-13169936D02*
X15755499Y-13160412D01*
D12*
X10789960Y-13561500D02*
G75*
G02*
X10729960Y-13561500I-30000J0D01*
G01*
X10729960Y-13561500D02*
G75*
G02*
X10789960Y-13561500I30000J0D01*
G01*
D11*
X11088832Y-13452984D02*
X11107880Y-13452984D01*
X11107880Y-13452984D02*
X11126927Y-13462508D01*
X11126927Y-13462508D02*
X11136451Y-13472031D01*
X11136451Y-13472031D02*
X11145975Y-13491079D01*
X11145975Y-13491079D02*
X11155499Y-13529174D01*
X11155499Y-13529174D02*
X11155499Y-13576793D01*
X11155499Y-13576793D02*
X11145975Y-13614888D01*
X11145975Y-13614888D02*
X11136451Y-13633936D01*
X11136451Y-13633936D02*
X11126927Y-13643460D01*
X11126927Y-13643460D02*
X11107880Y-13652984D01*
X11107880Y-13652984D02*
X11088832Y-13652984D01*
X11088832Y-13652984D02*
X11069784Y-13643460D01*
X11069784Y-13643460D02*
X11060261Y-13633936D01*
X11060261Y-13633936D02*
X11050737Y-13614888D01*
X11050737Y-13614888D02*
X11041213Y-13576793D01*
X11041213Y-13576793D02*
X11041213Y-13529174D01*
X11041213Y-13529174D02*
X11050737Y-13491079D01*
X11050737Y-13491079D02*
X11060261Y-13472031D01*
X11060261Y-13472031D02*
X11069784Y-13462508D01*
X11069784Y-13462508D02*
X11088832Y-13452984D01*
X11241213Y-13633936D02*
X11250737Y-13643460D01*
X11250737Y-13643460D02*
X11241213Y-13652984D01*
X11241213Y-13652984D02*
X11231689Y-13643460D01*
X11231689Y-13643460D02*
X11241213Y-13633936D01*
X11241213Y-13633936D02*
X11241213Y-13652984D01*
X11422165Y-13452984D02*
X11384070Y-13452984D01*
X11384070Y-13452984D02*
X11365022Y-13462508D01*
X11365022Y-13462508D02*
X11355499Y-13472031D01*
X11355499Y-13472031D02*
X11336451Y-13500603D01*
X11336451Y-13500603D02*
X11326927Y-13538698D01*
X11326927Y-13538698D02*
X11326927Y-13614888D01*
X11326927Y-13614888D02*
X11336451Y-13633936D01*
X11336451Y-13633936D02*
X11345975Y-13643460D01*
X11345975Y-13643460D02*
X11365022Y-13652984D01*
X11365022Y-13652984D02*
X11403118Y-13652984D01*
X11403118Y-13652984D02*
X11422165Y-13643460D01*
X11422165Y-13643460D02*
X11431689Y-13633936D01*
X11431689Y-13633936D02*
X11441213Y-13614888D01*
X11441213Y-13614888D02*
X11441213Y-13567269D01*
X11441213Y-13567269D02*
X11431689Y-13548222D01*
X11431689Y-13548222D02*
X11422165Y-13538698D01*
X11422165Y-13538698D02*
X11403118Y-13529174D01*
X11403118Y-13529174D02*
X11365022Y-13529174D01*
X11365022Y-13529174D02*
X11345975Y-13538698D01*
X11345975Y-13538698D02*
X11336451Y-13548222D01*
X11336451Y-13548222D02*
X11326927Y-13567269D01*
X11565022Y-13452984D02*
X11584070Y-13452984D01*
X11584070Y-13452984D02*
X11603118Y-13462508D01*
X11603118Y-13462508D02*
X11612642Y-13472031D01*
X11612642Y-13472031D02*
X11622165Y-13491079D01*
X11622165Y-13491079D02*
X11631689Y-13529174D01*
X11631689Y-13529174D02*
X11631689Y-13576793D01*
X11631689Y-13576793D02*
X11622165Y-13614888D01*
X11622165Y-13614888D02*
X11612642Y-13633936D01*
X11612642Y-13633936D02*
X11603118Y-13643460D01*
X11603118Y-13643460D02*
X11584070Y-13652984D01*
X11584070Y-13652984D02*
X11565022Y-13652984D01*
X11565022Y-13652984D02*
X11545975Y-13643460D01*
X11545975Y-13643460D02*
X11536451Y-13633936D01*
X11536451Y-13633936D02*
X11526927Y-13614888D01*
X11526927Y-13614888D02*
X11517403Y-13576793D01*
X11517403Y-13576793D02*
X11517403Y-13529174D01*
X11517403Y-13529174D02*
X11526927Y-13491079D01*
X11526927Y-13491079D02*
X11536451Y-13472031D01*
X11536451Y-13472031D02*
X11545975Y-13462508D01*
X11545975Y-13462508D02*
X11565022Y-13452984D01*
X11755499Y-13452984D02*
X11774546Y-13452984D01*
X11774546Y-13452984D02*
X11793594Y-13462508D01*
X11793594Y-13462508D02*
X11803118Y-13472031D01*
X11803118Y-13472031D02*
X11812642Y-13491079D01*
X11812642Y-13491079D02*
X11822165Y-13529174D01*
X11822165Y-13529174D02*
X11822165Y-13576793D01*
X11822165Y-13576793D02*
X11812642Y-13614888D01*
X11812642Y-13614888D02*
X11803118Y-13633936D01*
X11803118Y-13633936D02*
X11793594Y-13643460D01*
X11793594Y-13643460D02*
X11774546Y-13652984D01*
X11774546Y-13652984D02*
X11755499Y-13652984D01*
X11755499Y-13652984D02*
X11736451Y-13643460D01*
X11736451Y-13643460D02*
X11726927Y-13633936D01*
X11726927Y-13633936D02*
X11717403Y-13614888D01*
X11717403Y-13614888D02*
X11707880Y-13576793D01*
X11707880Y-13576793D02*
X11707880Y-13529174D01*
X11707880Y-13529174D02*
X11717403Y-13491079D01*
X11717403Y-13491079D02*
X11726927Y-13472031D01*
X11726927Y-13472031D02*
X11736451Y-13462508D01*
X11736451Y-13462508D02*
X11755499Y-13452984D01*
X11907880Y-13652984D02*
X11907880Y-13519650D01*
X11907880Y-13538698D02*
X11917403Y-13529174D01*
X11917403Y-13529174D02*
X11936451Y-13519650D01*
X11936451Y-13519650D02*
X11965023Y-13519650D01*
X11965023Y-13519650D02*
X11984070Y-13529174D01*
X11984070Y-13529174D02*
X11993594Y-13548222D01*
X11993594Y-13548222D02*
X11993594Y-13652984D01*
X11993594Y-13548222D02*
X12003118Y-13529174D01*
X12003118Y-13529174D02*
X12022165Y-13519650D01*
X12022165Y-13519650D02*
X12050737Y-13519650D01*
X12050737Y-13519650D02*
X12069784Y-13529174D01*
X12069784Y-13529174D02*
X12079308Y-13548222D01*
X12079308Y-13548222D02*
X12079308Y-13652984D01*
X12174546Y-13652984D02*
X12174546Y-13519650D01*
X12174546Y-13538698D02*
X12184070Y-13529174D01*
X12184070Y-13529174D02*
X12203118Y-13519650D01*
X12203118Y-13519650D02*
X12231689Y-13519650D01*
X12231689Y-13519650D02*
X12250737Y-13529174D01*
X12250737Y-13529174D02*
X12260261Y-13548222D01*
X12260261Y-13548222D02*
X12260261Y-13652984D01*
X12260261Y-13548222D02*
X12269784Y-13529174D01*
X12269784Y-13529174D02*
X12288832Y-13519650D01*
X12288832Y-13519650D02*
X12317403Y-13519650D01*
X12317403Y-13519650D02*
X12336451Y-13529174D01*
X12336451Y-13529174D02*
X12345975Y-13548222D01*
X12345975Y-13548222D02*
X12345975Y-13652984D01*
X12736451Y-13443460D02*
X12565023Y-13700603D01*
X12993594Y-13452984D02*
X13012642Y-13452984D01*
X13012642Y-13452984D02*
X13031689Y-13462508D01*
X13031689Y-13462508D02*
X13041213Y-13472031D01*
X13041213Y-13472031D02*
X13050737Y-13491079D01*
X13050737Y-13491079D02*
X13060261Y-13529174D01*
X13060261Y-13529174D02*
X13060261Y-13576793D01*
X13060261Y-13576793D02*
X13050737Y-13614888D01*
X13050737Y-13614888D02*
X13041213Y-13633936D01*
X13041213Y-13633936D02*
X13031689Y-13643460D01*
X13031689Y-13643460D02*
X13012642Y-13652984D01*
X13012642Y-13652984D02*
X12993594Y-13652984D01*
X12993594Y-13652984D02*
X12974546Y-13643460D01*
X12974546Y-13643460D02*
X12965023Y-13633936D01*
X12965023Y-13633936D02*
X12955499Y-13614888D01*
X12955499Y-13614888D02*
X12945975Y-13576793D01*
X12945975Y-13576793D02*
X12945975Y-13529174D01*
X12945975Y-13529174D02*
X12955499Y-13491079D01*
X12955499Y-13491079D02*
X12965023Y-13472031D01*
X12965023Y-13472031D02*
X12974546Y-13462508D01*
X12974546Y-13462508D02*
X12993594Y-13452984D01*
X13145975Y-13633936D02*
X13155499Y-13643460D01*
X13155499Y-13643460D02*
X13145975Y-13652984D01*
X13145975Y-13652984D02*
X13136451Y-13643460D01*
X13136451Y-13643460D02*
X13145975Y-13633936D01*
X13145975Y-13633936D02*
X13145975Y-13652984D01*
X13279308Y-13452984D02*
X13298356Y-13452984D01*
X13298356Y-13452984D02*
X13317404Y-13462508D01*
X13317404Y-13462508D02*
X13326927Y-13472031D01*
X13326927Y-13472031D02*
X13336451Y-13491079D01*
X13336451Y-13491079D02*
X13345975Y-13529174D01*
X13345975Y-13529174D02*
X13345975Y-13576793D01*
X13345975Y-13576793D02*
X13336451Y-13614888D01*
X13336451Y-13614888D02*
X13326927Y-13633936D01*
X13326927Y-13633936D02*
X13317404Y-13643460D01*
X13317404Y-13643460D02*
X13298356Y-13652984D01*
X13298356Y-13652984D02*
X13279308Y-13652984D01*
X13279308Y-13652984D02*
X13260261Y-13643460D01*
X13260261Y-13643460D02*
X13250737Y-13633936D01*
X13250737Y-13633936D02*
X13241213Y-13614888D01*
X13241213Y-13614888D02*
X13231689Y-13576793D01*
X13231689Y-13576793D02*
X13231689Y-13529174D01*
X13231689Y-13529174D02*
X13241213Y-13491079D01*
X13241213Y-13491079D02*
X13250737Y-13472031D01*
X13250737Y-13472031D02*
X13260261Y-13462508D01*
X13260261Y-13462508D02*
X13279308Y-13452984D01*
X13422166Y-13472031D02*
X13431689Y-13462508D01*
X13431689Y-13462508D02*
X13450737Y-13452984D01*
X13450737Y-13452984D02*
X13498356Y-13452984D01*
X13498356Y-13452984D02*
X13517404Y-13462508D01*
X13517404Y-13462508D02*
X13526927Y-13472031D01*
X13526927Y-13472031D02*
X13536451Y-13491079D01*
X13536451Y-13491079D02*
X13536451Y-13510127D01*
X13536451Y-13510127D02*
X13526927Y-13538698D01*
X13526927Y-13538698D02*
X13412642Y-13652984D01*
X13412642Y-13652984D02*
X13536451Y-13652984D01*
X13603118Y-13452984D02*
X13726927Y-13452984D01*
X13726927Y-13452984D02*
X13660261Y-13529174D01*
X13660261Y-13529174D02*
X13688832Y-13529174D01*
X13688832Y-13529174D02*
X13707880Y-13538698D01*
X13707880Y-13538698D02*
X13717404Y-13548222D01*
X13717404Y-13548222D02*
X13726927Y-13567269D01*
X13726927Y-13567269D02*
X13726927Y-13614888D01*
X13726927Y-13614888D02*
X13717404Y-13633936D01*
X13717404Y-13633936D02*
X13707880Y-13643460D01*
X13707880Y-13643460D02*
X13688832Y-13652984D01*
X13688832Y-13652984D02*
X13631689Y-13652984D01*
X13631689Y-13652984D02*
X13612642Y-13643460D01*
X13612642Y-13643460D02*
X13603118Y-13633936D01*
X13898356Y-13452984D02*
X13860261Y-13452984D01*
X13860261Y-13452984D02*
X13841213Y-13462508D01*
X13841213Y-13462508D02*
X13831689Y-13472031D01*
X13831689Y-13472031D02*
X13812642Y-13500603D01*
X13812642Y-13500603D02*
X13803118Y-13538698D01*
X13803118Y-13538698D02*
X13803118Y-13614888D01*
X13803118Y-13614888D02*
X13812642Y-13633936D01*
X13812642Y-13633936D02*
X13822166Y-13643460D01*
X13822166Y-13643460D02*
X13841213Y-13652984D01*
X13841213Y-13652984D02*
X13879308Y-13652984D01*
X13879308Y-13652984D02*
X13898356Y-13643460D01*
X13898356Y-13643460D02*
X13907880Y-13633936D01*
X13907880Y-13633936D02*
X13917404Y-13614888D01*
X13917404Y-13614888D02*
X13917404Y-13567269D01*
X13917404Y-13567269D02*
X13907880Y-13548222D01*
X13907880Y-13548222D02*
X13898356Y-13538698D01*
X13898356Y-13538698D02*
X13879308Y-13529174D01*
X13879308Y-13529174D02*
X13841213Y-13529174D01*
X13841213Y-13529174D02*
X13822166Y-13538698D01*
X13822166Y-13538698D02*
X13812642Y-13548222D01*
X13812642Y-13548222D02*
X13803118Y-13567269D01*
X13993594Y-13452984D02*
X13993594Y-13491079D01*
X14069785Y-13452984D02*
X14069785Y-13491079D01*
X14365023Y-13729174D02*
X14355499Y-13719650D01*
X14355499Y-13719650D02*
X14336451Y-13691079D01*
X14336451Y-13691079D02*
X14326928Y-13672031D01*
X14326928Y-13672031D02*
X14317404Y-13643460D01*
X14317404Y-13643460D02*
X14307880Y-13595841D01*
X14307880Y-13595841D02*
X14307880Y-13557746D01*
X14307880Y-13557746D02*
X14317404Y-13510127D01*
X14317404Y-13510127D02*
X14326928Y-13481555D01*
X14326928Y-13481555D02*
X14336451Y-13462508D01*
X14336451Y-13462508D02*
X14355499Y-13433936D01*
X14355499Y-13433936D02*
X14365023Y-13424412D01*
X14431689Y-13472031D02*
X14441213Y-13462508D01*
X14441213Y-13462508D02*
X14460261Y-13452984D01*
X14460261Y-13452984D02*
X14507880Y-13452984D01*
X14507880Y-13452984D02*
X14526928Y-13462508D01*
X14526928Y-13462508D02*
X14536451Y-13472031D01*
X14536451Y-13472031D02*
X14545975Y-13491079D01*
X14545975Y-13491079D02*
X14545975Y-13510127D01*
X14545975Y-13510127D02*
X14536451Y-13538698D01*
X14536451Y-13538698D02*
X14422166Y-13652984D01*
X14422166Y-13652984D02*
X14545975Y-13652984D01*
X14622166Y-13472031D02*
X14631689Y-13462508D01*
X14631689Y-13462508D02*
X14650737Y-13452984D01*
X14650737Y-13452984D02*
X14698356Y-13452984D01*
X14698356Y-13452984D02*
X14717404Y-13462508D01*
X14717404Y-13462508D02*
X14726928Y-13472031D01*
X14726928Y-13472031D02*
X14736451Y-13491079D01*
X14736451Y-13491079D02*
X14736451Y-13510127D01*
X14736451Y-13510127D02*
X14726928Y-13538698D01*
X14726928Y-13538698D02*
X14612642Y-13652984D01*
X14612642Y-13652984D02*
X14736451Y-13652984D01*
X14974547Y-13652984D02*
X14974547Y-13452984D01*
X15060261Y-13652984D02*
X15060261Y-13548222D01*
X15060261Y-13548222D02*
X15050737Y-13529174D01*
X15050737Y-13529174D02*
X15031690Y-13519650D01*
X15031690Y-13519650D02*
X15003118Y-13519650D01*
X15003118Y-13519650D02*
X14984070Y-13529174D01*
X14984070Y-13529174D02*
X14974547Y-13538698D01*
X15184070Y-13652984D02*
X15165023Y-13643460D01*
X15165023Y-13643460D02*
X15155499Y-13633936D01*
X15155499Y-13633936D02*
X15145975Y-13614888D01*
X15145975Y-13614888D02*
X15145975Y-13557746D01*
X15145975Y-13557746D02*
X15155499Y-13538698D01*
X15155499Y-13538698D02*
X15165023Y-13529174D01*
X15165023Y-13529174D02*
X15184070Y-13519650D01*
X15184070Y-13519650D02*
X15212642Y-13519650D01*
X15212642Y-13519650D02*
X15231690Y-13529174D01*
X15231690Y-13529174D02*
X15241213Y-13538698D01*
X15241213Y-13538698D02*
X15250737Y-13557746D01*
X15250737Y-13557746D02*
X15250737Y-13614888D01*
X15250737Y-13614888D02*
X15241213Y-13633936D01*
X15241213Y-13633936D02*
X15231690Y-13643460D01*
X15231690Y-13643460D02*
X15212642Y-13652984D01*
X15212642Y-13652984D02*
X15184070Y-13652984D01*
X15365023Y-13652984D02*
X15345975Y-13643460D01*
X15345975Y-13643460D02*
X15336451Y-13624412D01*
X15336451Y-13624412D02*
X15336451Y-13452984D01*
X15517404Y-13643460D02*
X15498356Y-13652984D01*
X15498356Y-13652984D02*
X15460261Y-13652984D01*
X15460261Y-13652984D02*
X15441213Y-13643460D01*
X15441213Y-13643460D02*
X15431690Y-13624412D01*
X15431690Y-13624412D02*
X15431690Y-13548222D01*
X15431690Y-13548222D02*
X15441213Y-13529174D01*
X15441213Y-13529174D02*
X15460261Y-13519650D01*
X15460261Y-13519650D02*
X15498356Y-13519650D01*
X15498356Y-13519650D02*
X15517404Y-13529174D01*
X15517404Y-13529174D02*
X15526928Y-13548222D01*
X15526928Y-13548222D02*
X15526928Y-13567269D01*
X15526928Y-13567269D02*
X15431690Y-13586317D01*
X15603118Y-13643460D02*
X15622166Y-13652984D01*
X15622166Y-13652984D02*
X15660261Y-13652984D01*
X15660261Y-13652984D02*
X15679309Y-13643460D01*
X15679309Y-13643460D02*
X15688832Y-13624412D01*
X15688832Y-13624412D02*
X15688832Y-13614888D01*
X15688832Y-13614888D02*
X15679309Y-13595841D01*
X15679309Y-13595841D02*
X15660261Y-13586317D01*
X15660261Y-13586317D02*
X15631690Y-13586317D01*
X15631690Y-13586317D02*
X15612642Y-13576793D01*
X15612642Y-13576793D02*
X15603118Y-13557746D01*
X15603118Y-13557746D02*
X15603118Y-13548222D01*
X15603118Y-13548222D02*
X15612642Y-13529174D01*
X15612642Y-13529174D02*
X15631690Y-13519650D01*
X15631690Y-13519650D02*
X15660261Y-13519650D01*
X15660261Y-13519650D02*
X15679309Y-13529174D01*
X15755499Y-13729174D02*
X15765023Y-13719650D01*
X15765023Y-13719650D02*
X15784071Y-13691079D01*
X15784071Y-13691079D02*
X15793594Y-13672031D01*
X15793594Y-13672031D02*
X15803118Y-13643460D01*
X15803118Y-13643460D02*
X15812642Y-13595841D01*
X15812642Y-13595841D02*
X15812642Y-13557746D01*
X15812642Y-13557746D02*
X15803118Y-13510127D01*
X15803118Y-13510127D02*
X15793594Y-13481555D01*
X15793594Y-13481555D02*
X15784071Y-13462508D01*
X15784071Y-13462508D02*
X15765023Y-13433936D01*
X15765023Y-13433936D02*
X15755499Y-13424412D01*
D12*
X10749960Y-13785500D02*
X10749960Y-13865500D01*
X10709960Y-13825500D02*
X10789960Y-13825500D01*
D11*
X11088832Y-13716984D02*
X11107880Y-13716984D01*
X11107880Y-13716984D02*
X11126927Y-13726508D01*
X11126927Y-13726508D02*
X11136451Y-13736031D01*
X11136451Y-13736031D02*
X11145975Y-13755079D01*
X11145975Y-13755079D02*
X11155499Y-13793174D01*
X11155499Y-13793174D02*
X11155499Y-13840793D01*
X11155499Y-13840793D02*
X11145975Y-13878888D01*
X11145975Y-13878888D02*
X11136451Y-13897936D01*
X11136451Y-13897936D02*
X11126927Y-13907460D01*
X11126927Y-13907460D02*
X11107880Y-13916984D01*
X11107880Y-13916984D02*
X11088832Y-13916984D01*
X11088832Y-13916984D02*
X11069784Y-13907460D01*
X11069784Y-13907460D02*
X11060261Y-13897936D01*
X11060261Y-13897936D02*
X11050737Y-13878888D01*
X11050737Y-13878888D02*
X11041213Y-13840793D01*
X11041213Y-13840793D02*
X11041213Y-13793174D01*
X11041213Y-13793174D02*
X11050737Y-13755079D01*
X11050737Y-13755079D02*
X11060261Y-13736031D01*
X11060261Y-13736031D02*
X11069784Y-13726508D01*
X11069784Y-13726508D02*
X11088832Y-13716984D01*
X11241213Y-13897936D02*
X11250737Y-13907460D01*
X11250737Y-13907460D02*
X11241213Y-13916984D01*
X11241213Y-13916984D02*
X11231689Y-13907460D01*
X11231689Y-13907460D02*
X11241213Y-13897936D01*
X11241213Y-13897936D02*
X11241213Y-13916984D01*
X11365022Y-13802698D02*
X11345975Y-13793174D01*
X11345975Y-13793174D02*
X11336451Y-13783650D01*
X11336451Y-13783650D02*
X11326927Y-13764603D01*
X11326927Y-13764603D02*
X11326927Y-13755079D01*
X11326927Y-13755079D02*
X11336451Y-13736031D01*
X11336451Y-13736031D02*
X11345975Y-13726508D01*
X11345975Y-13726508D02*
X11365022Y-13716984D01*
X11365022Y-13716984D02*
X11403118Y-13716984D01*
X11403118Y-13716984D02*
X11422165Y-13726508D01*
X11422165Y-13726508D02*
X11431689Y-13736031D01*
X11431689Y-13736031D02*
X11441213Y-13755079D01*
X11441213Y-13755079D02*
X11441213Y-13764603D01*
X11441213Y-13764603D02*
X11431689Y-13783650D01*
X11431689Y-13783650D02*
X11422165Y-13793174D01*
X11422165Y-13793174D02*
X11403118Y-13802698D01*
X11403118Y-13802698D02*
X11365022Y-13802698D01*
X11365022Y-13802698D02*
X11345975Y-13812222D01*
X11345975Y-13812222D02*
X11336451Y-13821746D01*
X11336451Y-13821746D02*
X11326927Y-13840793D01*
X11326927Y-13840793D02*
X11326927Y-13878888D01*
X11326927Y-13878888D02*
X11336451Y-13897936D01*
X11336451Y-13897936D02*
X11345975Y-13907460D01*
X11345975Y-13907460D02*
X11365022Y-13916984D01*
X11365022Y-13916984D02*
X11403118Y-13916984D01*
X11403118Y-13916984D02*
X11422165Y-13907460D01*
X11422165Y-13907460D02*
X11431689Y-13897936D01*
X11431689Y-13897936D02*
X11441213Y-13878888D01*
X11441213Y-13878888D02*
X11441213Y-13840793D01*
X11441213Y-13840793D02*
X11431689Y-13821746D01*
X11431689Y-13821746D02*
X11422165Y-13812222D01*
X11422165Y-13812222D02*
X11403118Y-13802698D01*
X11565022Y-13716984D02*
X11584070Y-13716984D01*
X11584070Y-13716984D02*
X11603118Y-13726508D01*
X11603118Y-13726508D02*
X11612642Y-13736031D01*
X11612642Y-13736031D02*
X11622165Y-13755079D01*
X11622165Y-13755079D02*
X11631689Y-13793174D01*
X11631689Y-13793174D02*
X11631689Y-13840793D01*
X11631689Y-13840793D02*
X11622165Y-13878888D01*
X11622165Y-13878888D02*
X11612642Y-13897936D01*
X11612642Y-13897936D02*
X11603118Y-13907460D01*
X11603118Y-13907460D02*
X11584070Y-13916984D01*
X11584070Y-13916984D02*
X11565022Y-13916984D01*
X11565022Y-13916984D02*
X11545975Y-13907460D01*
X11545975Y-13907460D02*
X11536451Y-13897936D01*
X11536451Y-13897936D02*
X11526927Y-13878888D01*
X11526927Y-13878888D02*
X11517403Y-13840793D01*
X11517403Y-13840793D02*
X11517403Y-13793174D01*
X11517403Y-13793174D02*
X11526927Y-13755079D01*
X11526927Y-13755079D02*
X11536451Y-13736031D01*
X11536451Y-13736031D02*
X11545975Y-13726508D01*
X11545975Y-13726508D02*
X11565022Y-13716984D01*
X11755499Y-13716984D02*
X11774546Y-13716984D01*
X11774546Y-13716984D02*
X11793594Y-13726508D01*
X11793594Y-13726508D02*
X11803118Y-13736031D01*
X11803118Y-13736031D02*
X11812642Y-13755079D01*
X11812642Y-13755079D02*
X11822165Y-13793174D01*
X11822165Y-13793174D02*
X11822165Y-13840793D01*
X11822165Y-13840793D02*
X11812642Y-13878888D01*
X11812642Y-13878888D02*
X11803118Y-13897936D01*
X11803118Y-13897936D02*
X11793594Y-13907460D01*
X11793594Y-13907460D02*
X11774546Y-13916984D01*
X11774546Y-13916984D02*
X11755499Y-13916984D01*
X11755499Y-13916984D02*
X11736451Y-13907460D01*
X11736451Y-13907460D02*
X11726927Y-13897936D01*
X11726927Y-13897936D02*
X11717403Y-13878888D01*
X11717403Y-13878888D02*
X11707880Y-13840793D01*
X11707880Y-13840793D02*
X11707880Y-13793174D01*
X11707880Y-13793174D02*
X11717403Y-13755079D01*
X11717403Y-13755079D02*
X11726927Y-13736031D01*
X11726927Y-13736031D02*
X11736451Y-13726508D01*
X11736451Y-13726508D02*
X11755499Y-13716984D01*
X11907880Y-13916984D02*
X11907880Y-13783650D01*
X11907880Y-13802698D02*
X11917403Y-13793174D01*
X11917403Y-13793174D02*
X11936451Y-13783650D01*
X11936451Y-13783650D02*
X11965023Y-13783650D01*
X11965023Y-13783650D02*
X11984070Y-13793174D01*
X11984070Y-13793174D02*
X11993594Y-13812222D01*
X11993594Y-13812222D02*
X11993594Y-13916984D01*
X11993594Y-13812222D02*
X12003118Y-13793174D01*
X12003118Y-13793174D02*
X12022165Y-13783650D01*
X12022165Y-13783650D02*
X12050737Y-13783650D01*
X12050737Y-13783650D02*
X12069784Y-13793174D01*
X12069784Y-13793174D02*
X12079308Y-13812222D01*
X12079308Y-13812222D02*
X12079308Y-13916984D01*
X12174546Y-13916984D02*
X12174546Y-13783650D01*
X12174546Y-13802698D02*
X12184070Y-13793174D01*
X12184070Y-13793174D02*
X12203118Y-13783650D01*
X12203118Y-13783650D02*
X12231689Y-13783650D01*
X12231689Y-13783650D02*
X12250737Y-13793174D01*
X12250737Y-13793174D02*
X12260261Y-13812222D01*
X12260261Y-13812222D02*
X12260261Y-13916984D01*
X12260261Y-13812222D02*
X12269784Y-13793174D01*
X12269784Y-13793174D02*
X12288832Y-13783650D01*
X12288832Y-13783650D02*
X12317403Y-13783650D01*
X12317403Y-13783650D02*
X12336451Y-13793174D01*
X12336451Y-13793174D02*
X12345975Y-13812222D01*
X12345975Y-13812222D02*
X12345975Y-13916984D01*
X12736451Y-13707460D02*
X12565023Y-13964603D01*
X12993594Y-13716984D02*
X13012642Y-13716984D01*
X13012642Y-13716984D02*
X13031689Y-13726508D01*
X13031689Y-13726508D02*
X13041213Y-13736031D01*
X13041213Y-13736031D02*
X13050737Y-13755079D01*
X13050737Y-13755079D02*
X13060261Y-13793174D01*
X13060261Y-13793174D02*
X13060261Y-13840793D01*
X13060261Y-13840793D02*
X13050737Y-13878888D01*
X13050737Y-13878888D02*
X13041213Y-13897936D01*
X13041213Y-13897936D02*
X13031689Y-13907460D01*
X13031689Y-13907460D02*
X13012642Y-13916984D01*
X13012642Y-13916984D02*
X12993594Y-13916984D01*
X12993594Y-13916984D02*
X12974546Y-13907460D01*
X12974546Y-13907460D02*
X12965023Y-13897936D01*
X12965023Y-13897936D02*
X12955499Y-13878888D01*
X12955499Y-13878888D02*
X12945975Y-13840793D01*
X12945975Y-13840793D02*
X12945975Y-13793174D01*
X12945975Y-13793174D02*
X12955499Y-13755079D01*
X12955499Y-13755079D02*
X12965023Y-13736031D01*
X12965023Y-13736031D02*
X12974546Y-13726508D01*
X12974546Y-13726508D02*
X12993594Y-13716984D01*
X13145975Y-13897936D02*
X13155499Y-13907460D01*
X13155499Y-13907460D02*
X13145975Y-13916984D01*
X13145975Y-13916984D02*
X13136451Y-13907460D01*
X13136451Y-13907460D02*
X13145975Y-13897936D01*
X13145975Y-13897936D02*
X13145975Y-13916984D01*
X13279308Y-13716984D02*
X13298356Y-13716984D01*
X13298356Y-13716984D02*
X13317404Y-13726508D01*
X13317404Y-13726508D02*
X13326927Y-13736031D01*
X13326927Y-13736031D02*
X13336451Y-13755079D01*
X13336451Y-13755079D02*
X13345975Y-13793174D01*
X13345975Y-13793174D02*
X13345975Y-13840793D01*
X13345975Y-13840793D02*
X13336451Y-13878888D01*
X13336451Y-13878888D02*
X13326927Y-13897936D01*
X13326927Y-13897936D02*
X13317404Y-13907460D01*
X13317404Y-13907460D02*
X13298356Y-13916984D01*
X13298356Y-13916984D02*
X13279308Y-13916984D01*
X13279308Y-13916984D02*
X13260261Y-13907460D01*
X13260261Y-13907460D02*
X13250737Y-13897936D01*
X13250737Y-13897936D02*
X13241213Y-13878888D01*
X13241213Y-13878888D02*
X13231689Y-13840793D01*
X13231689Y-13840793D02*
X13231689Y-13793174D01*
X13231689Y-13793174D02*
X13241213Y-13755079D01*
X13241213Y-13755079D02*
X13250737Y-13736031D01*
X13250737Y-13736031D02*
X13260261Y-13726508D01*
X13260261Y-13726508D02*
X13279308Y-13716984D01*
X13412642Y-13716984D02*
X13536451Y-13716984D01*
X13536451Y-13716984D02*
X13469785Y-13793174D01*
X13469785Y-13793174D02*
X13498356Y-13793174D01*
X13498356Y-13793174D02*
X13517404Y-13802698D01*
X13517404Y-13802698D02*
X13526927Y-13812222D01*
X13526927Y-13812222D02*
X13536451Y-13831269D01*
X13536451Y-13831269D02*
X13536451Y-13878888D01*
X13536451Y-13878888D02*
X13526927Y-13897936D01*
X13526927Y-13897936D02*
X13517404Y-13907460D01*
X13517404Y-13907460D02*
X13498356Y-13916984D01*
X13498356Y-13916984D02*
X13441213Y-13916984D01*
X13441213Y-13916984D02*
X13422166Y-13907460D01*
X13422166Y-13907460D02*
X13412642Y-13897936D01*
X13726927Y-13916984D02*
X13612642Y-13916984D01*
X13669785Y-13916984D02*
X13669785Y-13716984D01*
X13669785Y-13716984D02*
X13650737Y-13745555D01*
X13650737Y-13745555D02*
X13631689Y-13764603D01*
X13631689Y-13764603D02*
X13612642Y-13774127D01*
X13907880Y-13716984D02*
X13812642Y-13716984D01*
X13812642Y-13716984D02*
X13803118Y-13812222D01*
X13803118Y-13812222D02*
X13812642Y-13802698D01*
X13812642Y-13802698D02*
X13831689Y-13793174D01*
X13831689Y-13793174D02*
X13879308Y-13793174D01*
X13879308Y-13793174D02*
X13898356Y-13802698D01*
X13898356Y-13802698D02*
X13907880Y-13812222D01*
X13907880Y-13812222D02*
X13917404Y-13831269D01*
X13917404Y-13831269D02*
X13917404Y-13878888D01*
X13917404Y-13878888D02*
X13907880Y-13897936D01*
X13907880Y-13897936D02*
X13898356Y-13907460D01*
X13898356Y-13907460D02*
X13879308Y-13916984D01*
X13879308Y-13916984D02*
X13831689Y-13916984D01*
X13831689Y-13916984D02*
X13812642Y-13907460D01*
X13812642Y-13907460D02*
X13803118Y-13897936D01*
X13993594Y-13716984D02*
X13993594Y-13755079D01*
X14069785Y-13716984D02*
X14069785Y-13755079D01*
X14365023Y-13993174D02*
X14355499Y-13983650D01*
X14355499Y-13983650D02*
X14336451Y-13955079D01*
X14336451Y-13955079D02*
X14326928Y-13936031D01*
X14326928Y-13936031D02*
X14317404Y-13907460D01*
X14317404Y-13907460D02*
X14307880Y-13859841D01*
X14307880Y-13859841D02*
X14307880Y-13821746D01*
X14307880Y-13821746D02*
X14317404Y-13774127D01*
X14317404Y-13774127D02*
X14326928Y-13745555D01*
X14326928Y-13745555D02*
X14336451Y-13726508D01*
X14336451Y-13726508D02*
X14355499Y-13697936D01*
X14355499Y-13697936D02*
X14365023Y-13688412D01*
X14545975Y-13916984D02*
X14431689Y-13916984D01*
X14488832Y-13916984D02*
X14488832Y-13716984D01*
X14488832Y-13716984D02*
X14469785Y-13745555D01*
X14469785Y-13745555D02*
X14450737Y-13764603D01*
X14450737Y-13764603D02*
X14431689Y-13774127D01*
X14622166Y-13736031D02*
X14631689Y-13726508D01*
X14631689Y-13726508D02*
X14650737Y-13716984D01*
X14650737Y-13716984D02*
X14698356Y-13716984D01*
X14698356Y-13716984D02*
X14717404Y-13726508D01*
X14717404Y-13726508D02*
X14726928Y-13736031D01*
X14726928Y-13736031D02*
X14736451Y-13755079D01*
X14736451Y-13755079D02*
X14736451Y-13774127D01*
X14736451Y-13774127D02*
X14726928Y-13802698D01*
X14726928Y-13802698D02*
X14612642Y-13916984D01*
X14612642Y-13916984D02*
X14736451Y-13916984D01*
X14974547Y-13916984D02*
X14974547Y-13716984D01*
X15060261Y-13916984D02*
X15060261Y-13812222D01*
X15060261Y-13812222D02*
X15050737Y-13793174D01*
X15050737Y-13793174D02*
X15031690Y-13783650D01*
X15031690Y-13783650D02*
X15003118Y-13783650D01*
X15003118Y-13783650D02*
X14984070Y-13793174D01*
X14984070Y-13793174D02*
X14974547Y-13802698D01*
X15184070Y-13916984D02*
X15165023Y-13907460D01*
X15165023Y-13907460D02*
X15155499Y-13897936D01*
X15155499Y-13897936D02*
X15145975Y-13878888D01*
X15145975Y-13878888D02*
X15145975Y-13821746D01*
X15145975Y-13821746D02*
X15155499Y-13802698D01*
X15155499Y-13802698D02*
X15165023Y-13793174D01*
X15165023Y-13793174D02*
X15184070Y-13783650D01*
X15184070Y-13783650D02*
X15212642Y-13783650D01*
X15212642Y-13783650D02*
X15231690Y-13793174D01*
X15231690Y-13793174D02*
X15241213Y-13802698D01*
X15241213Y-13802698D02*
X15250737Y-13821746D01*
X15250737Y-13821746D02*
X15250737Y-13878888D01*
X15250737Y-13878888D02*
X15241213Y-13897936D01*
X15241213Y-13897936D02*
X15231690Y-13907460D01*
X15231690Y-13907460D02*
X15212642Y-13916984D01*
X15212642Y-13916984D02*
X15184070Y-13916984D01*
X15365023Y-13916984D02*
X15345975Y-13907460D01*
X15345975Y-13907460D02*
X15336451Y-13888412D01*
X15336451Y-13888412D02*
X15336451Y-13716984D01*
X15517404Y-13907460D02*
X15498356Y-13916984D01*
X15498356Y-13916984D02*
X15460261Y-13916984D01*
X15460261Y-13916984D02*
X15441213Y-13907460D01*
X15441213Y-13907460D02*
X15431690Y-13888412D01*
X15431690Y-13888412D02*
X15431690Y-13812222D01*
X15431690Y-13812222D02*
X15441213Y-13793174D01*
X15441213Y-13793174D02*
X15460261Y-13783650D01*
X15460261Y-13783650D02*
X15498356Y-13783650D01*
X15498356Y-13783650D02*
X15517404Y-13793174D01*
X15517404Y-13793174D02*
X15526928Y-13812222D01*
X15526928Y-13812222D02*
X15526928Y-13831269D01*
X15526928Y-13831269D02*
X15431690Y-13850317D01*
X15603118Y-13907460D02*
X15622166Y-13916984D01*
X15622166Y-13916984D02*
X15660261Y-13916984D01*
X15660261Y-13916984D02*
X15679309Y-13907460D01*
X15679309Y-13907460D02*
X15688832Y-13888412D01*
X15688832Y-13888412D02*
X15688832Y-13878888D01*
X15688832Y-13878888D02*
X15679309Y-13859841D01*
X15679309Y-13859841D02*
X15660261Y-13850317D01*
X15660261Y-13850317D02*
X15631690Y-13850317D01*
X15631690Y-13850317D02*
X15612642Y-13840793D01*
X15612642Y-13840793D02*
X15603118Y-13821746D01*
X15603118Y-13821746D02*
X15603118Y-13812222D01*
X15603118Y-13812222D02*
X15612642Y-13793174D01*
X15612642Y-13793174D02*
X15631690Y-13783650D01*
X15631690Y-13783650D02*
X15660261Y-13783650D01*
X15660261Y-13783650D02*
X15679309Y-13793174D01*
X15755499Y-13993174D02*
X15765023Y-13983650D01*
X15765023Y-13983650D02*
X15784071Y-13955079D01*
X15784071Y-13955079D02*
X15793594Y-13936031D01*
X15793594Y-13936031D02*
X15803118Y-13907460D01*
X15803118Y-13907460D02*
X15812642Y-13859841D01*
X15812642Y-13859841D02*
X15812642Y-13821746D01*
X15812642Y-13821746D02*
X15803118Y-13774127D01*
X15803118Y-13774127D02*
X15793594Y-13745555D01*
X15793594Y-13745555D02*
X15784071Y-13726508D01*
X15784071Y-13726508D02*
X15765023Y-13697936D01*
X15765023Y-13697936D02*
X15755499Y-13688412D01*
D12*
X10776780Y-14121320D02*
X10776780Y-14057680D01*
X10713140Y-14057680D01*
X10713140Y-14121320D01*
X10776780Y-14121320D01*
D11*
X11088832Y-13980984D02*
X11107880Y-13980984D01*
X11107880Y-13980984D02*
X11126927Y-13990508D01*
X11126927Y-13990508D02*
X11136451Y-14000031D01*
X11136451Y-14000031D02*
X11145975Y-14019079D01*
X11145975Y-14019079D02*
X11155499Y-14057174D01*
X11155499Y-14057174D02*
X11155499Y-14104793D01*
X11155499Y-14104793D02*
X11145975Y-14142888D01*
X11145975Y-14142888D02*
X11136451Y-14161936D01*
X11136451Y-14161936D02*
X11126927Y-14171460D01*
X11126927Y-14171460D02*
X11107880Y-14180984D01*
X11107880Y-14180984D02*
X11088832Y-14180984D01*
X11088832Y-14180984D02*
X11069784Y-14171460D01*
X11069784Y-14171460D02*
X11060261Y-14161936D01*
X11060261Y-14161936D02*
X11050737Y-14142888D01*
X11050737Y-14142888D02*
X11041213Y-14104793D01*
X11041213Y-14104793D02*
X11041213Y-14057174D01*
X11041213Y-14057174D02*
X11050737Y-14019079D01*
X11050737Y-14019079D02*
X11060261Y-14000031D01*
X11060261Y-14000031D02*
X11069784Y-13990508D01*
X11069784Y-13990508D02*
X11088832Y-13980984D01*
X11241213Y-14161936D02*
X11250737Y-14171460D01*
X11250737Y-14171460D02*
X11241213Y-14180984D01*
X11241213Y-14180984D02*
X11231689Y-14171460D01*
X11231689Y-14171460D02*
X11241213Y-14161936D01*
X11241213Y-14161936D02*
X11241213Y-14180984D01*
X11345975Y-14180984D02*
X11384070Y-14180984D01*
X11384070Y-14180984D02*
X11403118Y-14171460D01*
X11403118Y-14171460D02*
X11412642Y-14161936D01*
X11412642Y-14161936D02*
X11431689Y-14133365D01*
X11431689Y-14133365D02*
X11441213Y-14095269D01*
X11441213Y-14095269D02*
X11441213Y-14019079D01*
X11441213Y-14019079D02*
X11431689Y-14000031D01*
X11431689Y-14000031D02*
X11422165Y-13990508D01*
X11422165Y-13990508D02*
X11403118Y-13980984D01*
X11403118Y-13980984D02*
X11365022Y-13980984D01*
X11365022Y-13980984D02*
X11345975Y-13990508D01*
X11345975Y-13990508D02*
X11336451Y-14000031D01*
X11336451Y-14000031D02*
X11326927Y-14019079D01*
X11326927Y-14019079D02*
X11326927Y-14066698D01*
X11326927Y-14066698D02*
X11336451Y-14085746D01*
X11336451Y-14085746D02*
X11345975Y-14095269D01*
X11345975Y-14095269D02*
X11365022Y-14104793D01*
X11365022Y-14104793D02*
X11403118Y-14104793D01*
X11403118Y-14104793D02*
X11422165Y-14095269D01*
X11422165Y-14095269D02*
X11431689Y-14085746D01*
X11431689Y-14085746D02*
X11441213Y-14066698D01*
X11565022Y-13980984D02*
X11584070Y-13980984D01*
X11584070Y-13980984D02*
X11603118Y-13990508D01*
X11603118Y-13990508D02*
X11612642Y-14000031D01*
X11612642Y-14000031D02*
X11622165Y-14019079D01*
X11622165Y-14019079D02*
X11631689Y-14057174D01*
X11631689Y-14057174D02*
X11631689Y-14104793D01*
X11631689Y-14104793D02*
X11622165Y-14142888D01*
X11622165Y-14142888D02*
X11612642Y-14161936D01*
X11612642Y-14161936D02*
X11603118Y-14171460D01*
X11603118Y-14171460D02*
X11584070Y-14180984D01*
X11584070Y-14180984D02*
X11565022Y-14180984D01*
X11565022Y-14180984D02*
X11545975Y-14171460D01*
X11545975Y-14171460D02*
X11536451Y-14161936D01*
X11536451Y-14161936D02*
X11526927Y-14142888D01*
X11526927Y-14142888D02*
X11517403Y-14104793D01*
X11517403Y-14104793D02*
X11517403Y-14057174D01*
X11517403Y-14057174D02*
X11526927Y-14019079D01*
X11526927Y-14019079D02*
X11536451Y-14000031D01*
X11536451Y-14000031D02*
X11545975Y-13990508D01*
X11545975Y-13990508D02*
X11565022Y-13980984D01*
X11755499Y-13980984D02*
X11774546Y-13980984D01*
X11774546Y-13980984D02*
X11793594Y-13990508D01*
X11793594Y-13990508D02*
X11803118Y-14000031D01*
X11803118Y-14000031D02*
X11812642Y-14019079D01*
X11812642Y-14019079D02*
X11822165Y-14057174D01*
X11822165Y-14057174D02*
X11822165Y-14104793D01*
X11822165Y-14104793D02*
X11812642Y-14142888D01*
X11812642Y-14142888D02*
X11803118Y-14161936D01*
X11803118Y-14161936D02*
X11793594Y-14171460D01*
X11793594Y-14171460D02*
X11774546Y-14180984D01*
X11774546Y-14180984D02*
X11755499Y-14180984D01*
X11755499Y-14180984D02*
X11736451Y-14171460D01*
X11736451Y-14171460D02*
X11726927Y-14161936D01*
X11726927Y-14161936D02*
X11717403Y-14142888D01*
X11717403Y-14142888D02*
X11707880Y-14104793D01*
X11707880Y-14104793D02*
X11707880Y-14057174D01*
X11707880Y-14057174D02*
X11717403Y-14019079D01*
X11717403Y-14019079D02*
X11726927Y-14000031D01*
X11726927Y-14000031D02*
X11736451Y-13990508D01*
X11736451Y-13990508D02*
X11755499Y-13980984D01*
X11907880Y-14180984D02*
X11907880Y-14047650D01*
X11907880Y-14066698D02*
X11917403Y-14057174D01*
X11917403Y-14057174D02*
X11936451Y-14047650D01*
X11936451Y-14047650D02*
X11965023Y-14047650D01*
X11965023Y-14047650D02*
X11984070Y-14057174D01*
X11984070Y-14057174D02*
X11993594Y-14076222D01*
X11993594Y-14076222D02*
X11993594Y-14180984D01*
X11993594Y-14076222D02*
X12003118Y-14057174D01*
X12003118Y-14057174D02*
X12022165Y-14047650D01*
X12022165Y-14047650D02*
X12050737Y-14047650D01*
X12050737Y-14047650D02*
X12069784Y-14057174D01*
X12069784Y-14057174D02*
X12079308Y-14076222D01*
X12079308Y-14076222D02*
X12079308Y-14180984D01*
X12174546Y-14180984D02*
X12174546Y-14047650D01*
X12174546Y-14066698D02*
X12184070Y-14057174D01*
X12184070Y-14057174D02*
X12203118Y-14047650D01*
X12203118Y-14047650D02*
X12231689Y-14047650D01*
X12231689Y-14047650D02*
X12250737Y-14057174D01*
X12250737Y-14057174D02*
X12260261Y-14076222D01*
X12260261Y-14076222D02*
X12260261Y-14180984D01*
X12260261Y-14076222D02*
X12269784Y-14057174D01*
X12269784Y-14057174D02*
X12288832Y-14047650D01*
X12288832Y-14047650D02*
X12317403Y-14047650D01*
X12317403Y-14047650D02*
X12336451Y-14057174D01*
X12336451Y-14057174D02*
X12345975Y-14076222D01*
X12345975Y-14076222D02*
X12345975Y-14180984D01*
X12736451Y-13971460D02*
X12565023Y-14228603D01*
X12993594Y-13980984D02*
X13012642Y-13980984D01*
X13012642Y-13980984D02*
X13031689Y-13990508D01*
X13031689Y-13990508D02*
X13041213Y-14000031D01*
X13041213Y-14000031D02*
X13050737Y-14019079D01*
X13050737Y-14019079D02*
X13060261Y-14057174D01*
X13060261Y-14057174D02*
X13060261Y-14104793D01*
X13060261Y-14104793D02*
X13050737Y-14142888D01*
X13050737Y-14142888D02*
X13041213Y-14161936D01*
X13041213Y-14161936D02*
X13031689Y-14171460D01*
X13031689Y-14171460D02*
X13012642Y-14180984D01*
X13012642Y-14180984D02*
X12993594Y-14180984D01*
X12993594Y-14180984D02*
X12974546Y-14171460D01*
X12974546Y-14171460D02*
X12965023Y-14161936D01*
X12965023Y-14161936D02*
X12955499Y-14142888D01*
X12955499Y-14142888D02*
X12945975Y-14104793D01*
X12945975Y-14104793D02*
X12945975Y-14057174D01*
X12945975Y-14057174D02*
X12955499Y-14019079D01*
X12955499Y-14019079D02*
X12965023Y-14000031D01*
X12965023Y-14000031D02*
X12974546Y-13990508D01*
X12974546Y-13990508D02*
X12993594Y-13980984D01*
X13145975Y-14161936D02*
X13155499Y-14171460D01*
X13155499Y-14171460D02*
X13145975Y-14180984D01*
X13145975Y-14180984D02*
X13136451Y-14171460D01*
X13136451Y-14171460D02*
X13145975Y-14161936D01*
X13145975Y-14161936D02*
X13145975Y-14180984D01*
X13279308Y-13980984D02*
X13298356Y-13980984D01*
X13298356Y-13980984D02*
X13317404Y-13990508D01*
X13317404Y-13990508D02*
X13326927Y-14000031D01*
X13326927Y-14000031D02*
X13336451Y-14019079D01*
X13336451Y-14019079D02*
X13345975Y-14057174D01*
X13345975Y-14057174D02*
X13345975Y-14104793D01*
X13345975Y-14104793D02*
X13336451Y-14142888D01*
X13336451Y-14142888D02*
X13326927Y-14161936D01*
X13326927Y-14161936D02*
X13317404Y-14171460D01*
X13317404Y-14171460D02*
X13298356Y-14180984D01*
X13298356Y-14180984D02*
X13279308Y-14180984D01*
X13279308Y-14180984D02*
X13260261Y-14171460D01*
X13260261Y-14171460D02*
X13250737Y-14161936D01*
X13250737Y-14161936D02*
X13241213Y-14142888D01*
X13241213Y-14142888D02*
X13231689Y-14104793D01*
X13231689Y-14104793D02*
X13231689Y-14057174D01*
X13231689Y-14057174D02*
X13241213Y-14019079D01*
X13241213Y-14019079D02*
X13250737Y-14000031D01*
X13250737Y-14000031D02*
X13260261Y-13990508D01*
X13260261Y-13990508D02*
X13279308Y-13980984D01*
X13412642Y-13980984D02*
X13536451Y-13980984D01*
X13536451Y-13980984D02*
X13469785Y-14057174D01*
X13469785Y-14057174D02*
X13498356Y-14057174D01*
X13498356Y-14057174D02*
X13517404Y-14066698D01*
X13517404Y-14066698D02*
X13526927Y-14076222D01*
X13526927Y-14076222D02*
X13536451Y-14095269D01*
X13536451Y-14095269D02*
X13536451Y-14142888D01*
X13536451Y-14142888D02*
X13526927Y-14161936D01*
X13526927Y-14161936D02*
X13517404Y-14171460D01*
X13517404Y-14171460D02*
X13498356Y-14180984D01*
X13498356Y-14180984D02*
X13441213Y-14180984D01*
X13441213Y-14180984D02*
X13422166Y-14171460D01*
X13422166Y-14171460D02*
X13412642Y-14161936D01*
X13717404Y-13980984D02*
X13622166Y-13980984D01*
X13622166Y-13980984D02*
X13612642Y-14076222D01*
X13612642Y-14076222D02*
X13622166Y-14066698D01*
X13622166Y-14066698D02*
X13641213Y-14057174D01*
X13641213Y-14057174D02*
X13688832Y-14057174D01*
X13688832Y-14057174D02*
X13707880Y-14066698D01*
X13707880Y-14066698D02*
X13717404Y-14076222D01*
X13717404Y-14076222D02*
X13726927Y-14095269D01*
X13726927Y-14095269D02*
X13726927Y-14142888D01*
X13726927Y-14142888D02*
X13717404Y-14161936D01*
X13717404Y-14161936D02*
X13707880Y-14171460D01*
X13707880Y-14171460D02*
X13688832Y-14180984D01*
X13688832Y-14180984D02*
X13641213Y-14180984D01*
X13641213Y-14180984D02*
X13622166Y-14171460D01*
X13622166Y-14171460D02*
X13612642Y-14161936D01*
X13898356Y-14047650D02*
X13898356Y-14180984D01*
X13850737Y-13971460D02*
X13803118Y-14114317D01*
X13803118Y-14114317D02*
X13926927Y-14114317D01*
X13993594Y-13980984D02*
X13993594Y-14019079D01*
X14069785Y-13980984D02*
X14069785Y-14019079D01*
X14365023Y-14257174D02*
X14355499Y-14247650D01*
X14355499Y-14247650D02*
X14336451Y-14219079D01*
X14336451Y-14219079D02*
X14326928Y-14200031D01*
X14326928Y-14200031D02*
X14317404Y-14171460D01*
X14317404Y-14171460D02*
X14307880Y-14123841D01*
X14307880Y-14123841D02*
X14307880Y-14085746D01*
X14307880Y-14085746D02*
X14317404Y-14038127D01*
X14317404Y-14038127D02*
X14326928Y-14009555D01*
X14326928Y-14009555D02*
X14336451Y-13990508D01*
X14336451Y-13990508D02*
X14355499Y-13961936D01*
X14355499Y-13961936D02*
X14365023Y-13952412D01*
X14431689Y-14000031D02*
X14441213Y-13990508D01*
X14441213Y-13990508D02*
X14460261Y-13980984D01*
X14460261Y-13980984D02*
X14507880Y-13980984D01*
X14507880Y-13980984D02*
X14526928Y-13990508D01*
X14526928Y-13990508D02*
X14536451Y-14000031D01*
X14536451Y-14000031D02*
X14545975Y-14019079D01*
X14545975Y-14019079D02*
X14545975Y-14038127D01*
X14545975Y-14038127D02*
X14536451Y-14066698D01*
X14536451Y-14066698D02*
X14422166Y-14180984D01*
X14422166Y-14180984D02*
X14545975Y-14180984D01*
X14784070Y-14180984D02*
X14784070Y-13980984D01*
X14869785Y-14180984D02*
X14869785Y-14076222D01*
X14869785Y-14076222D02*
X14860261Y-14057174D01*
X14860261Y-14057174D02*
X14841213Y-14047650D01*
X14841213Y-14047650D02*
X14812642Y-14047650D01*
X14812642Y-14047650D02*
X14793594Y-14057174D01*
X14793594Y-14057174D02*
X14784070Y-14066698D01*
X14993594Y-14180984D02*
X14974547Y-14171460D01*
X14974547Y-14171460D02*
X14965023Y-14161936D01*
X14965023Y-14161936D02*
X14955499Y-14142888D01*
X14955499Y-14142888D02*
X14955499Y-14085746D01*
X14955499Y-14085746D02*
X14965023Y-14066698D01*
X14965023Y-14066698D02*
X14974547Y-14057174D01*
X14974547Y-14057174D02*
X14993594Y-14047650D01*
X14993594Y-14047650D02*
X15022166Y-14047650D01*
X15022166Y-14047650D02*
X15041213Y-14057174D01*
X15041213Y-14057174D02*
X15050737Y-14066698D01*
X15050737Y-14066698D02*
X15060261Y-14085746D01*
X15060261Y-14085746D02*
X15060261Y-14142888D01*
X15060261Y-14142888D02*
X15050737Y-14161936D01*
X15050737Y-14161936D02*
X15041213Y-14171460D01*
X15041213Y-14171460D02*
X15022166Y-14180984D01*
X15022166Y-14180984D02*
X14993594Y-14180984D01*
X15174547Y-14180984D02*
X15155499Y-14171460D01*
X15155499Y-14171460D02*
X15145975Y-14152412D01*
X15145975Y-14152412D02*
X15145975Y-13980984D01*
X15326928Y-14171460D02*
X15307880Y-14180984D01*
X15307880Y-14180984D02*
X15269785Y-14180984D01*
X15269785Y-14180984D02*
X15250737Y-14171460D01*
X15250737Y-14171460D02*
X15241213Y-14152412D01*
X15241213Y-14152412D02*
X15241213Y-14076222D01*
X15241213Y-14076222D02*
X15250737Y-14057174D01*
X15250737Y-14057174D02*
X15269785Y-14047650D01*
X15269785Y-14047650D02*
X15307880Y-14047650D01*
X15307880Y-14047650D02*
X15326928Y-14057174D01*
X15326928Y-14057174D02*
X15336451Y-14076222D01*
X15336451Y-14076222D02*
X15336451Y-14095269D01*
X15336451Y-14095269D02*
X15241213Y-14114317D01*
X15412642Y-14171460D02*
X15431690Y-14180984D01*
X15431690Y-14180984D02*
X15469785Y-14180984D01*
X15469785Y-14180984D02*
X15488832Y-14171460D01*
X15488832Y-14171460D02*
X15498356Y-14152412D01*
X15498356Y-14152412D02*
X15498356Y-14142888D01*
X15498356Y-14142888D02*
X15488832Y-14123841D01*
X15488832Y-14123841D02*
X15469785Y-14114317D01*
X15469785Y-14114317D02*
X15441213Y-14114317D01*
X15441213Y-14114317D02*
X15422166Y-14104793D01*
X15422166Y-14104793D02*
X15412642Y-14085746D01*
X15412642Y-14085746D02*
X15412642Y-14076222D01*
X15412642Y-14076222D02*
X15422166Y-14057174D01*
X15422166Y-14057174D02*
X15441213Y-14047650D01*
X15441213Y-14047650D02*
X15469785Y-14047650D01*
X15469785Y-14047650D02*
X15488832Y-14057174D01*
X15565023Y-14257174D02*
X15574547Y-14247650D01*
X15574547Y-14247650D02*
X15593594Y-14219079D01*
X15593594Y-14219079D02*
X15603118Y-14200031D01*
X15603118Y-14200031D02*
X15612642Y-14171460D01*
X15612642Y-14171460D02*
X15622166Y-14123841D01*
X15622166Y-14123841D02*
X15622166Y-14085746D01*
X15622166Y-14085746D02*
X15612642Y-14038127D01*
X15612642Y-14038127D02*
X15603118Y-14009555D01*
X15603118Y-14009555D02*
X15593594Y-13990508D01*
X15593594Y-13990508D02*
X15574547Y-13961936D01*
X15574547Y-13961936D02*
X15565023Y-13952412D01*
D12*
X10739960Y-14403500D02*
X10789960Y-14353500D01*
X10739960Y-14303500D01*
X10689960Y-14353500D01*
X10739960Y-14403500D01*
D11*
X11155499Y-14444984D02*
X11041213Y-14444984D01*
X11098356Y-14444984D02*
X11098356Y-14244984D01*
X11098356Y-14244984D02*
X11079308Y-14273555D01*
X11079308Y-14273555D02*
X11060261Y-14292603D01*
X11060261Y-14292603D02*
X11041213Y-14302127D01*
X11241213Y-14425936D02*
X11250737Y-14435460D01*
X11250737Y-14435460D02*
X11241213Y-14444984D01*
X11241213Y-14444984D02*
X11231689Y-14435460D01*
X11231689Y-14435460D02*
X11241213Y-14425936D01*
X11241213Y-14425936D02*
X11241213Y-14444984D01*
X11374546Y-14244984D02*
X11393594Y-14244984D01*
X11393594Y-14244984D02*
X11412642Y-14254508D01*
X11412642Y-14254508D02*
X11422165Y-14264031D01*
X11422165Y-14264031D02*
X11431689Y-14283079D01*
X11431689Y-14283079D02*
X11441213Y-14321174D01*
X11441213Y-14321174D02*
X11441213Y-14368793D01*
X11441213Y-14368793D02*
X11431689Y-14406888D01*
X11431689Y-14406888D02*
X11422165Y-14425936D01*
X11422165Y-14425936D02*
X11412642Y-14435460D01*
X11412642Y-14435460D02*
X11393594Y-14444984D01*
X11393594Y-14444984D02*
X11374546Y-14444984D01*
X11374546Y-14444984D02*
X11355499Y-14435460D01*
X11355499Y-14435460D02*
X11345975Y-14425936D01*
X11345975Y-14425936D02*
X11336451Y-14406888D01*
X11336451Y-14406888D02*
X11326927Y-14368793D01*
X11326927Y-14368793D02*
X11326927Y-14321174D01*
X11326927Y-14321174D02*
X11336451Y-14283079D01*
X11336451Y-14283079D02*
X11345975Y-14264031D01*
X11345975Y-14264031D02*
X11355499Y-14254508D01*
X11355499Y-14254508D02*
X11374546Y-14244984D01*
X11565022Y-14244984D02*
X11584070Y-14244984D01*
X11584070Y-14244984D02*
X11603118Y-14254508D01*
X11603118Y-14254508D02*
X11612642Y-14264031D01*
X11612642Y-14264031D02*
X11622165Y-14283079D01*
X11622165Y-14283079D02*
X11631689Y-14321174D01*
X11631689Y-14321174D02*
X11631689Y-14368793D01*
X11631689Y-14368793D02*
X11622165Y-14406888D01*
X11622165Y-14406888D02*
X11612642Y-14425936D01*
X11612642Y-14425936D02*
X11603118Y-14435460D01*
X11603118Y-14435460D02*
X11584070Y-14444984D01*
X11584070Y-14444984D02*
X11565022Y-14444984D01*
X11565022Y-14444984D02*
X11545975Y-14435460D01*
X11545975Y-14435460D02*
X11536451Y-14425936D01*
X11536451Y-14425936D02*
X11526927Y-14406888D01*
X11526927Y-14406888D02*
X11517403Y-14368793D01*
X11517403Y-14368793D02*
X11517403Y-14321174D01*
X11517403Y-14321174D02*
X11526927Y-14283079D01*
X11526927Y-14283079D02*
X11536451Y-14264031D01*
X11536451Y-14264031D02*
X11545975Y-14254508D01*
X11545975Y-14254508D02*
X11565022Y-14244984D01*
X11755499Y-14244984D02*
X11774546Y-14244984D01*
X11774546Y-14244984D02*
X11793594Y-14254508D01*
X11793594Y-14254508D02*
X11803118Y-14264031D01*
X11803118Y-14264031D02*
X11812642Y-14283079D01*
X11812642Y-14283079D02*
X11822165Y-14321174D01*
X11822165Y-14321174D02*
X11822165Y-14368793D01*
X11822165Y-14368793D02*
X11812642Y-14406888D01*
X11812642Y-14406888D02*
X11803118Y-14425936D01*
X11803118Y-14425936D02*
X11793594Y-14435460D01*
X11793594Y-14435460D02*
X11774546Y-14444984D01*
X11774546Y-14444984D02*
X11755499Y-14444984D01*
X11755499Y-14444984D02*
X11736451Y-14435460D01*
X11736451Y-14435460D02*
X11726927Y-14425936D01*
X11726927Y-14425936D02*
X11717403Y-14406888D01*
X11717403Y-14406888D02*
X11707880Y-14368793D01*
X11707880Y-14368793D02*
X11707880Y-14321174D01*
X11707880Y-14321174D02*
X11717403Y-14283079D01*
X11717403Y-14283079D02*
X11726927Y-14264031D01*
X11726927Y-14264031D02*
X11736451Y-14254508D01*
X11736451Y-14254508D02*
X11755499Y-14244984D01*
X11907880Y-14444984D02*
X11907880Y-14311650D01*
X11907880Y-14330698D02*
X11917403Y-14321174D01*
X11917403Y-14321174D02*
X11936451Y-14311650D01*
X11936451Y-14311650D02*
X11965023Y-14311650D01*
X11965023Y-14311650D02*
X11984070Y-14321174D01*
X11984070Y-14321174D02*
X11993594Y-14340222D01*
X11993594Y-14340222D02*
X11993594Y-14444984D01*
X11993594Y-14340222D02*
X12003118Y-14321174D01*
X12003118Y-14321174D02*
X12022165Y-14311650D01*
X12022165Y-14311650D02*
X12050737Y-14311650D01*
X12050737Y-14311650D02*
X12069784Y-14321174D01*
X12069784Y-14321174D02*
X12079308Y-14340222D01*
X12079308Y-14340222D02*
X12079308Y-14444984D01*
X12174546Y-14444984D02*
X12174546Y-14311650D01*
X12174546Y-14330698D02*
X12184070Y-14321174D01*
X12184070Y-14321174D02*
X12203118Y-14311650D01*
X12203118Y-14311650D02*
X12231689Y-14311650D01*
X12231689Y-14311650D02*
X12250737Y-14321174D01*
X12250737Y-14321174D02*
X12260261Y-14340222D01*
X12260261Y-14340222D02*
X12260261Y-14444984D01*
X12260261Y-14340222D02*
X12269784Y-14321174D01*
X12269784Y-14321174D02*
X12288832Y-14311650D01*
X12288832Y-14311650D02*
X12317403Y-14311650D01*
X12317403Y-14311650D02*
X12336451Y-14321174D01*
X12336451Y-14321174D02*
X12345975Y-14340222D01*
X12345975Y-14340222D02*
X12345975Y-14444984D01*
X12736451Y-14235460D02*
X12565023Y-14492603D01*
X12993594Y-14244984D02*
X13012642Y-14244984D01*
X13012642Y-14244984D02*
X13031689Y-14254508D01*
X13031689Y-14254508D02*
X13041213Y-14264031D01*
X13041213Y-14264031D02*
X13050737Y-14283079D01*
X13050737Y-14283079D02*
X13060261Y-14321174D01*
X13060261Y-14321174D02*
X13060261Y-14368793D01*
X13060261Y-14368793D02*
X13050737Y-14406888D01*
X13050737Y-14406888D02*
X13041213Y-14425936D01*
X13041213Y-14425936D02*
X13031689Y-14435460D01*
X13031689Y-14435460D02*
X13012642Y-14444984D01*
X13012642Y-14444984D02*
X12993594Y-14444984D01*
X12993594Y-14444984D02*
X12974546Y-14435460D01*
X12974546Y-14435460D02*
X12965023Y-14425936D01*
X12965023Y-14425936D02*
X12955499Y-14406888D01*
X12955499Y-14406888D02*
X12945975Y-14368793D01*
X12945975Y-14368793D02*
X12945975Y-14321174D01*
X12945975Y-14321174D02*
X12955499Y-14283079D01*
X12955499Y-14283079D02*
X12965023Y-14264031D01*
X12965023Y-14264031D02*
X12974546Y-14254508D01*
X12974546Y-14254508D02*
X12993594Y-14244984D01*
X13145975Y-14425936D02*
X13155499Y-14435460D01*
X13155499Y-14435460D02*
X13145975Y-14444984D01*
X13145975Y-14444984D02*
X13136451Y-14435460D01*
X13136451Y-14435460D02*
X13145975Y-14425936D01*
X13145975Y-14425936D02*
X13145975Y-14444984D01*
X13279308Y-14244984D02*
X13298356Y-14244984D01*
X13298356Y-14244984D02*
X13317404Y-14254508D01*
X13317404Y-14254508D02*
X13326927Y-14264031D01*
X13326927Y-14264031D02*
X13336451Y-14283079D01*
X13336451Y-14283079D02*
X13345975Y-14321174D01*
X13345975Y-14321174D02*
X13345975Y-14368793D01*
X13345975Y-14368793D02*
X13336451Y-14406888D01*
X13336451Y-14406888D02*
X13326927Y-14425936D01*
X13326927Y-14425936D02*
X13317404Y-14435460D01*
X13317404Y-14435460D02*
X13298356Y-14444984D01*
X13298356Y-14444984D02*
X13279308Y-14444984D01*
X13279308Y-14444984D02*
X13260261Y-14435460D01*
X13260261Y-14435460D02*
X13250737Y-14425936D01*
X13250737Y-14425936D02*
X13241213Y-14406888D01*
X13241213Y-14406888D02*
X13231689Y-14368793D01*
X13231689Y-14368793D02*
X13231689Y-14321174D01*
X13231689Y-14321174D02*
X13241213Y-14283079D01*
X13241213Y-14283079D02*
X13250737Y-14264031D01*
X13250737Y-14264031D02*
X13260261Y-14254508D01*
X13260261Y-14254508D02*
X13279308Y-14244984D01*
X13412642Y-14244984D02*
X13536451Y-14244984D01*
X13536451Y-14244984D02*
X13469785Y-14321174D01*
X13469785Y-14321174D02*
X13498356Y-14321174D01*
X13498356Y-14321174D02*
X13517404Y-14330698D01*
X13517404Y-14330698D02*
X13526927Y-14340222D01*
X13526927Y-14340222D02*
X13536451Y-14359269D01*
X13536451Y-14359269D02*
X13536451Y-14406888D01*
X13536451Y-14406888D02*
X13526927Y-14425936D01*
X13526927Y-14425936D02*
X13517404Y-14435460D01*
X13517404Y-14435460D02*
X13498356Y-14444984D01*
X13498356Y-14444984D02*
X13441213Y-14444984D01*
X13441213Y-14444984D02*
X13422166Y-14435460D01*
X13422166Y-14435460D02*
X13412642Y-14425936D01*
X13631689Y-14444984D02*
X13669785Y-14444984D01*
X13669785Y-14444984D02*
X13688832Y-14435460D01*
X13688832Y-14435460D02*
X13698356Y-14425936D01*
X13698356Y-14425936D02*
X13717404Y-14397365D01*
X13717404Y-14397365D02*
X13726927Y-14359269D01*
X13726927Y-14359269D02*
X13726927Y-14283079D01*
X13726927Y-14283079D02*
X13717404Y-14264031D01*
X13717404Y-14264031D02*
X13707880Y-14254508D01*
X13707880Y-14254508D02*
X13688832Y-14244984D01*
X13688832Y-14244984D02*
X13650737Y-14244984D01*
X13650737Y-14244984D02*
X13631689Y-14254508D01*
X13631689Y-14254508D02*
X13622166Y-14264031D01*
X13622166Y-14264031D02*
X13612642Y-14283079D01*
X13612642Y-14283079D02*
X13612642Y-14330698D01*
X13612642Y-14330698D02*
X13622166Y-14349746D01*
X13622166Y-14349746D02*
X13631689Y-14359269D01*
X13631689Y-14359269D02*
X13650737Y-14368793D01*
X13650737Y-14368793D02*
X13688832Y-14368793D01*
X13688832Y-14368793D02*
X13707880Y-14359269D01*
X13707880Y-14359269D02*
X13717404Y-14349746D01*
X13717404Y-14349746D02*
X13726927Y-14330698D01*
X13898356Y-14311650D02*
X13898356Y-14444984D01*
X13850737Y-14235460D02*
X13803118Y-14378317D01*
X13803118Y-14378317D02*
X13926927Y-14378317D01*
X13993594Y-14244984D02*
X13993594Y-14283079D01*
X14069785Y-14244984D02*
X14069785Y-14283079D01*
X14365023Y-14521174D02*
X14355499Y-14511650D01*
X14355499Y-14511650D02*
X14336451Y-14483079D01*
X14336451Y-14483079D02*
X14326928Y-14464031D01*
X14326928Y-14464031D02*
X14317404Y-14435460D01*
X14317404Y-14435460D02*
X14307880Y-14387841D01*
X14307880Y-14387841D02*
X14307880Y-14349746D01*
X14307880Y-14349746D02*
X14317404Y-14302127D01*
X14317404Y-14302127D02*
X14326928Y-14273555D01*
X14326928Y-14273555D02*
X14336451Y-14254508D01*
X14336451Y-14254508D02*
X14355499Y-14225936D01*
X14355499Y-14225936D02*
X14365023Y-14216412D01*
X14536451Y-14244984D02*
X14441213Y-14244984D01*
X14441213Y-14244984D02*
X14431689Y-14340222D01*
X14431689Y-14340222D02*
X14441213Y-14330698D01*
X14441213Y-14330698D02*
X14460261Y-14321174D01*
X14460261Y-14321174D02*
X14507880Y-14321174D01*
X14507880Y-14321174D02*
X14526928Y-14330698D01*
X14526928Y-14330698D02*
X14536451Y-14340222D01*
X14536451Y-14340222D02*
X14545975Y-14359269D01*
X14545975Y-14359269D02*
X14545975Y-14406888D01*
X14545975Y-14406888D02*
X14536451Y-14425936D01*
X14536451Y-14425936D02*
X14526928Y-14435460D01*
X14526928Y-14435460D02*
X14507880Y-14444984D01*
X14507880Y-14444984D02*
X14460261Y-14444984D01*
X14460261Y-14444984D02*
X14441213Y-14435460D01*
X14441213Y-14435460D02*
X14431689Y-14425936D01*
X14612642Y-14244984D02*
X14745975Y-14244984D01*
X14745975Y-14244984D02*
X14660261Y-14444984D01*
X14974547Y-14444984D02*
X14974547Y-14244984D01*
X15060261Y-14444984D02*
X15060261Y-14340222D01*
X15060261Y-14340222D02*
X15050737Y-14321174D01*
X15050737Y-14321174D02*
X15031690Y-14311650D01*
X15031690Y-14311650D02*
X15003118Y-14311650D01*
X15003118Y-14311650D02*
X14984070Y-14321174D01*
X14984070Y-14321174D02*
X14974547Y-14330698D01*
X15184070Y-14444984D02*
X15165023Y-14435460D01*
X15165023Y-14435460D02*
X15155499Y-14425936D01*
X15155499Y-14425936D02*
X15145975Y-14406888D01*
X15145975Y-14406888D02*
X15145975Y-14349746D01*
X15145975Y-14349746D02*
X15155499Y-14330698D01*
X15155499Y-14330698D02*
X15165023Y-14321174D01*
X15165023Y-14321174D02*
X15184070Y-14311650D01*
X15184070Y-14311650D02*
X15212642Y-14311650D01*
X15212642Y-14311650D02*
X15231690Y-14321174D01*
X15231690Y-14321174D02*
X15241213Y-14330698D01*
X15241213Y-14330698D02*
X15250737Y-14349746D01*
X15250737Y-14349746D02*
X15250737Y-14406888D01*
X15250737Y-14406888D02*
X15241213Y-14425936D01*
X15241213Y-14425936D02*
X15231690Y-14435460D01*
X15231690Y-14435460D02*
X15212642Y-14444984D01*
X15212642Y-14444984D02*
X15184070Y-14444984D01*
X15365023Y-14444984D02*
X15345975Y-14435460D01*
X15345975Y-14435460D02*
X15336451Y-14416412D01*
X15336451Y-14416412D02*
X15336451Y-14244984D01*
X15517404Y-14435460D02*
X15498356Y-14444984D01*
X15498356Y-14444984D02*
X15460261Y-14444984D01*
X15460261Y-14444984D02*
X15441213Y-14435460D01*
X15441213Y-14435460D02*
X15431690Y-14416412D01*
X15431690Y-14416412D02*
X15431690Y-14340222D01*
X15431690Y-14340222D02*
X15441213Y-14321174D01*
X15441213Y-14321174D02*
X15460261Y-14311650D01*
X15460261Y-14311650D02*
X15498356Y-14311650D01*
X15498356Y-14311650D02*
X15517404Y-14321174D01*
X15517404Y-14321174D02*
X15526928Y-14340222D01*
X15526928Y-14340222D02*
X15526928Y-14359269D01*
X15526928Y-14359269D02*
X15431690Y-14378317D01*
X15603118Y-14435460D02*
X15622166Y-14444984D01*
X15622166Y-14444984D02*
X15660261Y-14444984D01*
X15660261Y-14444984D02*
X15679309Y-14435460D01*
X15679309Y-14435460D02*
X15688832Y-14416412D01*
X15688832Y-14416412D02*
X15688832Y-14406888D01*
X15688832Y-14406888D02*
X15679309Y-14387841D01*
X15679309Y-14387841D02*
X15660261Y-14378317D01*
X15660261Y-14378317D02*
X15631690Y-14378317D01*
X15631690Y-14378317D02*
X15612642Y-14368793D01*
X15612642Y-14368793D02*
X15603118Y-14349746D01*
X15603118Y-14349746D02*
X15603118Y-14340222D01*
X15603118Y-14340222D02*
X15612642Y-14321174D01*
X15612642Y-14321174D02*
X15631690Y-14311650D01*
X15631690Y-14311650D02*
X15660261Y-14311650D01*
X15660261Y-14311650D02*
X15679309Y-14321174D01*
X15755499Y-14521174D02*
X15765023Y-14511650D01*
X15765023Y-14511650D02*
X15784071Y-14483079D01*
X15784071Y-14483079D02*
X15793594Y-14464031D01*
X15793594Y-14464031D02*
X15803118Y-14435460D01*
X15803118Y-14435460D02*
X15812642Y-14387841D01*
X15812642Y-14387841D02*
X15812642Y-14349746D01*
X15812642Y-14349746D02*
X15803118Y-14302127D01*
X15803118Y-14302127D02*
X15793594Y-14273555D01*
X15793594Y-14273555D02*
X15784071Y-14254508D01*
X15784071Y-14254508D02*
X15765023Y-14225936D01*
X15765023Y-14225936D02*
X15755499Y-14216412D01*
D13*
X10649960Y-14547500D02*
X10789960Y-14687500D01*
X10789960Y-14547500D02*
X10649960Y-14687500D01*
X10789960Y-14617500D02*
G75*
G02*
X10649960Y-14617500I-70000J0D01*
G01*
X10649960Y-14617500D02*
G75*
G02*
X10789960Y-14617500I70000J0D01*
G01*
D11*
X11155499Y-14708984D02*
X11041213Y-14708984D01*
X11098356Y-14708984D02*
X11098356Y-14508984D01*
X11098356Y-14508984D02*
X11079308Y-14537555D01*
X11079308Y-14537555D02*
X11060261Y-14556603D01*
X11060261Y-14556603D02*
X11041213Y-14566127D01*
X11241213Y-14689936D02*
X11250737Y-14699460D01*
X11250737Y-14699460D02*
X11241213Y-14708984D01*
X11241213Y-14708984D02*
X11231689Y-14699460D01*
X11231689Y-14699460D02*
X11241213Y-14689936D01*
X11241213Y-14689936D02*
X11241213Y-14708984D01*
X11422165Y-14575650D02*
X11422165Y-14708984D01*
X11374546Y-14499460D02*
X11326927Y-14642317D01*
X11326927Y-14642317D02*
X11450737Y-14642317D01*
X11565022Y-14508984D02*
X11584070Y-14508984D01*
X11584070Y-14508984D02*
X11603118Y-14518508D01*
X11603118Y-14518508D02*
X11612642Y-14528031D01*
X11612642Y-14528031D02*
X11622165Y-14547079D01*
X11622165Y-14547079D02*
X11631689Y-14585174D01*
X11631689Y-14585174D02*
X11631689Y-14632793D01*
X11631689Y-14632793D02*
X11622165Y-14670888D01*
X11622165Y-14670888D02*
X11612642Y-14689936D01*
X11612642Y-14689936D02*
X11603118Y-14699460D01*
X11603118Y-14699460D02*
X11584070Y-14708984D01*
X11584070Y-14708984D02*
X11565022Y-14708984D01*
X11565022Y-14708984D02*
X11545975Y-14699460D01*
X11545975Y-14699460D02*
X11536451Y-14689936D01*
X11536451Y-14689936D02*
X11526927Y-14670888D01*
X11526927Y-14670888D02*
X11517403Y-14632793D01*
X11517403Y-14632793D02*
X11517403Y-14585174D01*
X11517403Y-14585174D02*
X11526927Y-14547079D01*
X11526927Y-14547079D02*
X11536451Y-14528031D01*
X11536451Y-14528031D02*
X11545975Y-14518508D01*
X11545975Y-14518508D02*
X11565022Y-14508984D01*
X11755499Y-14508984D02*
X11774546Y-14508984D01*
X11774546Y-14508984D02*
X11793594Y-14518508D01*
X11793594Y-14518508D02*
X11803118Y-14528031D01*
X11803118Y-14528031D02*
X11812642Y-14547079D01*
X11812642Y-14547079D02*
X11822165Y-14585174D01*
X11822165Y-14585174D02*
X11822165Y-14632793D01*
X11822165Y-14632793D02*
X11812642Y-14670888D01*
X11812642Y-14670888D02*
X11803118Y-14689936D01*
X11803118Y-14689936D02*
X11793594Y-14699460D01*
X11793594Y-14699460D02*
X11774546Y-14708984D01*
X11774546Y-14708984D02*
X11755499Y-14708984D01*
X11755499Y-14708984D02*
X11736451Y-14699460D01*
X11736451Y-14699460D02*
X11726927Y-14689936D01*
X11726927Y-14689936D02*
X11717403Y-14670888D01*
X11717403Y-14670888D02*
X11707880Y-14632793D01*
X11707880Y-14632793D02*
X11707880Y-14585174D01*
X11707880Y-14585174D02*
X11717403Y-14547079D01*
X11717403Y-14547079D02*
X11726927Y-14528031D01*
X11726927Y-14528031D02*
X11736451Y-14518508D01*
X11736451Y-14518508D02*
X11755499Y-14508984D01*
X11907880Y-14708984D02*
X11907880Y-14575650D01*
X11907880Y-14594698D02*
X11917403Y-14585174D01*
X11917403Y-14585174D02*
X11936451Y-14575650D01*
X11936451Y-14575650D02*
X11965023Y-14575650D01*
X11965023Y-14575650D02*
X11984070Y-14585174D01*
X11984070Y-14585174D02*
X11993594Y-14604222D01*
X11993594Y-14604222D02*
X11993594Y-14708984D01*
X11993594Y-14604222D02*
X12003118Y-14585174D01*
X12003118Y-14585174D02*
X12022165Y-14575650D01*
X12022165Y-14575650D02*
X12050737Y-14575650D01*
X12050737Y-14575650D02*
X12069784Y-14585174D01*
X12069784Y-14585174D02*
X12079308Y-14604222D01*
X12079308Y-14604222D02*
X12079308Y-14708984D01*
X12174546Y-14708984D02*
X12174546Y-14575650D01*
X12174546Y-14594698D02*
X12184070Y-14585174D01*
X12184070Y-14585174D02*
X12203118Y-14575650D01*
X12203118Y-14575650D02*
X12231689Y-14575650D01*
X12231689Y-14575650D02*
X12250737Y-14585174D01*
X12250737Y-14585174D02*
X12260261Y-14604222D01*
X12260261Y-14604222D02*
X12260261Y-14708984D01*
X12260261Y-14604222D02*
X12269784Y-14585174D01*
X12269784Y-14585174D02*
X12288832Y-14575650D01*
X12288832Y-14575650D02*
X12317403Y-14575650D01*
X12317403Y-14575650D02*
X12336451Y-14585174D01*
X12336451Y-14585174D02*
X12345975Y-14604222D01*
X12345975Y-14604222D02*
X12345975Y-14708984D01*
X12736451Y-14499460D02*
X12565023Y-14756603D01*
X12993594Y-14508984D02*
X13012642Y-14508984D01*
X13012642Y-14508984D02*
X13031689Y-14518508D01*
X13031689Y-14518508D02*
X13041213Y-14528031D01*
X13041213Y-14528031D02*
X13050737Y-14547079D01*
X13050737Y-14547079D02*
X13060261Y-14585174D01*
X13060261Y-14585174D02*
X13060261Y-14632793D01*
X13060261Y-14632793D02*
X13050737Y-14670888D01*
X13050737Y-14670888D02*
X13041213Y-14689936D01*
X13041213Y-14689936D02*
X13031689Y-14699460D01*
X13031689Y-14699460D02*
X13012642Y-14708984D01*
X13012642Y-14708984D02*
X12993594Y-14708984D01*
X12993594Y-14708984D02*
X12974546Y-14699460D01*
X12974546Y-14699460D02*
X12965023Y-14689936D01*
X12965023Y-14689936D02*
X12955499Y-14670888D01*
X12955499Y-14670888D02*
X12945975Y-14632793D01*
X12945975Y-14632793D02*
X12945975Y-14585174D01*
X12945975Y-14585174D02*
X12955499Y-14547079D01*
X12955499Y-14547079D02*
X12965023Y-14528031D01*
X12965023Y-14528031D02*
X12974546Y-14518508D01*
X12974546Y-14518508D02*
X12993594Y-14508984D01*
X13145975Y-14689936D02*
X13155499Y-14699460D01*
X13155499Y-14699460D02*
X13145975Y-14708984D01*
X13145975Y-14708984D02*
X13136451Y-14699460D01*
X13136451Y-14699460D02*
X13145975Y-14689936D01*
X13145975Y-14689936D02*
X13145975Y-14708984D01*
X13279308Y-14508984D02*
X13298356Y-14508984D01*
X13298356Y-14508984D02*
X13317404Y-14518508D01*
X13317404Y-14518508D02*
X13326927Y-14528031D01*
X13326927Y-14528031D02*
X13336451Y-14547079D01*
X13336451Y-14547079D02*
X13345975Y-14585174D01*
X13345975Y-14585174D02*
X13345975Y-14632793D01*
X13345975Y-14632793D02*
X13336451Y-14670888D01*
X13336451Y-14670888D02*
X13326927Y-14689936D01*
X13326927Y-14689936D02*
X13317404Y-14699460D01*
X13317404Y-14699460D02*
X13298356Y-14708984D01*
X13298356Y-14708984D02*
X13279308Y-14708984D01*
X13279308Y-14708984D02*
X13260261Y-14699460D01*
X13260261Y-14699460D02*
X13250737Y-14689936D01*
X13250737Y-14689936D02*
X13241213Y-14670888D01*
X13241213Y-14670888D02*
X13231689Y-14632793D01*
X13231689Y-14632793D02*
X13231689Y-14585174D01*
X13231689Y-14585174D02*
X13241213Y-14547079D01*
X13241213Y-14547079D02*
X13250737Y-14528031D01*
X13250737Y-14528031D02*
X13260261Y-14518508D01*
X13260261Y-14518508D02*
X13279308Y-14508984D01*
X13526927Y-14508984D02*
X13431689Y-14508984D01*
X13431689Y-14508984D02*
X13422166Y-14604222D01*
X13422166Y-14604222D02*
X13431689Y-14594698D01*
X13431689Y-14594698D02*
X13450737Y-14585174D01*
X13450737Y-14585174D02*
X13498356Y-14585174D01*
X13498356Y-14585174D02*
X13517404Y-14594698D01*
X13517404Y-14594698D02*
X13526927Y-14604222D01*
X13526927Y-14604222D02*
X13536451Y-14623269D01*
X13536451Y-14623269D02*
X13536451Y-14670888D01*
X13536451Y-14670888D02*
X13526927Y-14689936D01*
X13526927Y-14689936D02*
X13517404Y-14699460D01*
X13517404Y-14699460D02*
X13498356Y-14708984D01*
X13498356Y-14708984D02*
X13450737Y-14708984D01*
X13450737Y-14708984D02*
X13431689Y-14699460D01*
X13431689Y-14699460D02*
X13422166Y-14689936D01*
X13717404Y-14508984D02*
X13622166Y-14508984D01*
X13622166Y-14508984D02*
X13612642Y-14604222D01*
X13612642Y-14604222D02*
X13622166Y-14594698D01*
X13622166Y-14594698D02*
X13641213Y-14585174D01*
X13641213Y-14585174D02*
X13688832Y-14585174D01*
X13688832Y-14585174D02*
X13707880Y-14594698D01*
X13707880Y-14594698D02*
X13717404Y-14604222D01*
X13717404Y-14604222D02*
X13726927Y-14623269D01*
X13726927Y-14623269D02*
X13726927Y-14670888D01*
X13726927Y-14670888D02*
X13717404Y-14689936D01*
X13717404Y-14689936D02*
X13707880Y-14699460D01*
X13707880Y-14699460D02*
X13688832Y-14708984D01*
X13688832Y-14708984D02*
X13641213Y-14708984D01*
X13641213Y-14708984D02*
X13622166Y-14699460D01*
X13622166Y-14699460D02*
X13612642Y-14689936D01*
X13917404Y-14708984D02*
X13803118Y-14708984D01*
X13860261Y-14708984D02*
X13860261Y-14508984D01*
X13860261Y-14508984D02*
X13841213Y-14537555D01*
X13841213Y-14537555D02*
X13822166Y-14556603D01*
X13822166Y-14556603D02*
X13803118Y-14566127D01*
X13993594Y-14508984D02*
X13993594Y-14547079D01*
X14069785Y-14508984D02*
X14069785Y-14547079D01*
X14365023Y-14785174D02*
X14355499Y-14775650D01*
X14355499Y-14775650D02*
X14336451Y-14747079D01*
X14336451Y-14747079D02*
X14326928Y-14728031D01*
X14326928Y-14728031D02*
X14317404Y-14699460D01*
X14317404Y-14699460D02*
X14307880Y-14651841D01*
X14307880Y-14651841D02*
X14307880Y-14613746D01*
X14307880Y-14613746D02*
X14317404Y-14566127D01*
X14317404Y-14566127D02*
X14326928Y-14537555D01*
X14326928Y-14537555D02*
X14336451Y-14518508D01*
X14336451Y-14518508D02*
X14355499Y-14489936D01*
X14355499Y-14489936D02*
X14365023Y-14480412D01*
X14422166Y-14508984D02*
X14545975Y-14508984D01*
X14545975Y-14508984D02*
X14479308Y-14585174D01*
X14479308Y-14585174D02*
X14507880Y-14585174D01*
X14507880Y-14585174D02*
X14526928Y-14594698D01*
X14526928Y-14594698D02*
X14536451Y-14604222D01*
X14536451Y-14604222D02*
X14545975Y-14623269D01*
X14545975Y-14623269D02*
X14545975Y-14670888D01*
X14545975Y-14670888D02*
X14536451Y-14689936D01*
X14536451Y-14689936D02*
X14526928Y-14699460D01*
X14526928Y-14699460D02*
X14507880Y-14708984D01*
X14507880Y-14708984D02*
X14450737Y-14708984D01*
X14450737Y-14708984D02*
X14431689Y-14699460D01*
X14431689Y-14699460D02*
X14422166Y-14689936D01*
X14784070Y-14708984D02*
X14784070Y-14508984D01*
X14869785Y-14708984D02*
X14869785Y-14604222D01*
X14869785Y-14604222D02*
X14860261Y-14585174D01*
X14860261Y-14585174D02*
X14841213Y-14575650D01*
X14841213Y-14575650D02*
X14812642Y-14575650D01*
X14812642Y-14575650D02*
X14793594Y-14585174D01*
X14793594Y-14585174D02*
X14784070Y-14594698D01*
X14993594Y-14708984D02*
X14974547Y-14699460D01*
X14974547Y-14699460D02*
X14965023Y-14689936D01*
X14965023Y-14689936D02*
X14955499Y-14670888D01*
X14955499Y-14670888D02*
X14955499Y-14613746D01*
X14955499Y-14613746D02*
X14965023Y-14594698D01*
X14965023Y-14594698D02*
X14974547Y-14585174D01*
X14974547Y-14585174D02*
X14993594Y-14575650D01*
X14993594Y-14575650D02*
X15022166Y-14575650D01*
X15022166Y-14575650D02*
X15041213Y-14585174D01*
X15041213Y-14585174D02*
X15050737Y-14594698D01*
X15050737Y-14594698D02*
X15060261Y-14613746D01*
X15060261Y-14613746D02*
X15060261Y-14670888D01*
X15060261Y-14670888D02*
X15050737Y-14689936D01*
X15050737Y-14689936D02*
X15041213Y-14699460D01*
X15041213Y-14699460D02*
X15022166Y-14708984D01*
X15022166Y-14708984D02*
X14993594Y-14708984D01*
X15174547Y-14708984D02*
X15155499Y-14699460D01*
X15155499Y-14699460D02*
X15145975Y-14680412D01*
X15145975Y-14680412D02*
X15145975Y-14508984D01*
X15326928Y-14699460D02*
X15307880Y-14708984D01*
X15307880Y-14708984D02*
X15269785Y-14708984D01*
X15269785Y-14708984D02*
X15250737Y-14699460D01*
X15250737Y-14699460D02*
X15241213Y-14680412D01*
X15241213Y-14680412D02*
X15241213Y-14604222D01*
X15241213Y-14604222D02*
X15250737Y-14585174D01*
X15250737Y-14585174D02*
X15269785Y-14575650D01*
X15269785Y-14575650D02*
X15307880Y-14575650D01*
X15307880Y-14575650D02*
X15326928Y-14585174D01*
X15326928Y-14585174D02*
X15336451Y-14604222D01*
X15336451Y-14604222D02*
X15336451Y-14623269D01*
X15336451Y-14623269D02*
X15241213Y-14642317D01*
X15412642Y-14699460D02*
X15431690Y-14708984D01*
X15431690Y-14708984D02*
X15469785Y-14708984D01*
X15469785Y-14708984D02*
X15488832Y-14699460D01*
X15488832Y-14699460D02*
X15498356Y-14680412D01*
X15498356Y-14680412D02*
X15498356Y-14670888D01*
X15498356Y-14670888D02*
X15488832Y-14651841D01*
X15488832Y-14651841D02*
X15469785Y-14642317D01*
X15469785Y-14642317D02*
X15441213Y-14642317D01*
X15441213Y-14642317D02*
X15422166Y-14632793D01*
X15422166Y-14632793D02*
X15412642Y-14613746D01*
X15412642Y-14613746D02*
X15412642Y-14604222D01*
X15412642Y-14604222D02*
X15422166Y-14585174D01*
X15422166Y-14585174D02*
X15441213Y-14575650D01*
X15441213Y-14575650D02*
X15469785Y-14575650D01*
X15469785Y-14575650D02*
X15488832Y-14585174D01*
X15565023Y-14785174D02*
X15574547Y-14775650D01*
X15574547Y-14775650D02*
X15593594Y-14747079D01*
X15593594Y-14747079D02*
X15603118Y-14728031D01*
X15603118Y-14728031D02*
X15612642Y-14699460D01*
X15612642Y-14699460D02*
X15622166Y-14651841D01*
X15622166Y-14651841D02*
X15622166Y-14613746D01*
X15622166Y-14613746D02*
X15612642Y-14566127D01*
X15612642Y-14566127D02*
X15603118Y-14537555D01*
X15603118Y-14537555D02*
X15593594Y-14518508D01*
X15593594Y-14518508D02*
X15574547Y-14489936D01*
X15574547Y-14489936D02*
X15565023Y-14480412D01*
X10589960Y-14781500D02*
X10789960Y-14981500D01*
X10789960Y-14781500D02*
X10589960Y-14981500D01*
X10689960Y-14781500D02*
X10689960Y-14981500D01*
X10589960Y-14881500D02*
X10789960Y-14881500D01*
X11041213Y-14792031D02*
X11050737Y-14782508D01*
X11050737Y-14782508D02*
X11069784Y-14772984D01*
X11069784Y-14772984D02*
X11117404Y-14772984D01*
X11117404Y-14772984D02*
X11136451Y-14782508D01*
X11136451Y-14782508D02*
X11145975Y-14792031D01*
X11145975Y-14792031D02*
X11155499Y-14811079D01*
X11155499Y-14811079D02*
X11155499Y-14830127D01*
X11155499Y-14830127D02*
X11145975Y-14858698D01*
X11145975Y-14858698D02*
X11031689Y-14972984D01*
X11031689Y-14972984D02*
X11155499Y-14972984D01*
X11241213Y-14953936D02*
X11250737Y-14963460D01*
X11250737Y-14963460D02*
X11241213Y-14972984D01*
X11241213Y-14972984D02*
X11231689Y-14963460D01*
X11231689Y-14963460D02*
X11241213Y-14953936D01*
X11241213Y-14953936D02*
X11241213Y-14972984D01*
X11326927Y-14792031D02*
X11336451Y-14782508D01*
X11336451Y-14782508D02*
X11355499Y-14772984D01*
X11355499Y-14772984D02*
X11403118Y-14772984D01*
X11403118Y-14772984D02*
X11422165Y-14782508D01*
X11422165Y-14782508D02*
X11431689Y-14792031D01*
X11431689Y-14792031D02*
X11441213Y-14811079D01*
X11441213Y-14811079D02*
X11441213Y-14830127D01*
X11441213Y-14830127D02*
X11431689Y-14858698D01*
X11431689Y-14858698D02*
X11317403Y-14972984D01*
X11317403Y-14972984D02*
X11441213Y-14972984D01*
X11565022Y-14772984D02*
X11584070Y-14772984D01*
X11584070Y-14772984D02*
X11603118Y-14782508D01*
X11603118Y-14782508D02*
X11612642Y-14792031D01*
X11612642Y-14792031D02*
X11622165Y-14811079D01*
X11622165Y-14811079D02*
X11631689Y-14849174D01*
X11631689Y-14849174D02*
X11631689Y-14896793D01*
X11631689Y-14896793D02*
X11622165Y-14934888D01*
X11622165Y-14934888D02*
X11612642Y-14953936D01*
X11612642Y-14953936D02*
X11603118Y-14963460D01*
X11603118Y-14963460D02*
X11584070Y-14972984D01*
X11584070Y-14972984D02*
X11565022Y-14972984D01*
X11565022Y-14972984D02*
X11545975Y-14963460D01*
X11545975Y-14963460D02*
X11536451Y-14953936D01*
X11536451Y-14953936D02*
X11526927Y-14934888D01*
X11526927Y-14934888D02*
X11517403Y-14896793D01*
X11517403Y-14896793D02*
X11517403Y-14849174D01*
X11517403Y-14849174D02*
X11526927Y-14811079D01*
X11526927Y-14811079D02*
X11536451Y-14792031D01*
X11536451Y-14792031D02*
X11545975Y-14782508D01*
X11545975Y-14782508D02*
X11565022Y-14772984D01*
X11755499Y-14772984D02*
X11774546Y-14772984D01*
X11774546Y-14772984D02*
X11793594Y-14782508D01*
X11793594Y-14782508D02*
X11803118Y-14792031D01*
X11803118Y-14792031D02*
X11812642Y-14811079D01*
X11812642Y-14811079D02*
X11822165Y-14849174D01*
X11822165Y-14849174D02*
X11822165Y-14896793D01*
X11822165Y-14896793D02*
X11812642Y-14934888D01*
X11812642Y-14934888D02*
X11803118Y-14953936D01*
X11803118Y-14953936D02*
X11793594Y-14963460D01*
X11793594Y-14963460D02*
X11774546Y-14972984D01*
X11774546Y-14972984D02*
X11755499Y-14972984D01*
X11755499Y-14972984D02*
X11736451Y-14963460D01*
X11736451Y-14963460D02*
X11726927Y-14953936D01*
X11726927Y-14953936D02*
X11717403Y-14934888D01*
X11717403Y-14934888D02*
X11707880Y-14896793D01*
X11707880Y-14896793D02*
X11707880Y-14849174D01*
X11707880Y-14849174D02*
X11717403Y-14811079D01*
X11717403Y-14811079D02*
X11726927Y-14792031D01*
X11726927Y-14792031D02*
X11736451Y-14782508D01*
X11736451Y-14782508D02*
X11755499Y-14772984D01*
X11907880Y-14972984D02*
X11907880Y-14839650D01*
X11907880Y-14858698D02*
X11917403Y-14849174D01*
X11917403Y-14849174D02*
X11936451Y-14839650D01*
X11936451Y-14839650D02*
X11965023Y-14839650D01*
X11965023Y-14839650D02*
X11984070Y-14849174D01*
X11984070Y-14849174D02*
X11993594Y-14868222D01*
X11993594Y-14868222D02*
X11993594Y-14972984D01*
X11993594Y-14868222D02*
X12003118Y-14849174D01*
X12003118Y-14849174D02*
X12022165Y-14839650D01*
X12022165Y-14839650D02*
X12050737Y-14839650D01*
X12050737Y-14839650D02*
X12069784Y-14849174D01*
X12069784Y-14849174D02*
X12079308Y-14868222D01*
X12079308Y-14868222D02*
X12079308Y-14972984D01*
X12174546Y-14972984D02*
X12174546Y-14839650D01*
X12174546Y-14858698D02*
X12184070Y-14849174D01*
X12184070Y-14849174D02*
X12203118Y-14839650D01*
X12203118Y-14839650D02*
X12231689Y-14839650D01*
X12231689Y-14839650D02*
X12250737Y-14849174D01*
X12250737Y-14849174D02*
X12260261Y-14868222D01*
X12260261Y-14868222D02*
X12260261Y-14972984D01*
X12260261Y-14868222D02*
X12269784Y-14849174D01*
X12269784Y-14849174D02*
X12288832Y-14839650D01*
X12288832Y-14839650D02*
X12317403Y-14839650D01*
X12317403Y-14839650D02*
X12336451Y-14849174D01*
X12336451Y-14849174D02*
X12345975Y-14868222D01*
X12345975Y-14868222D02*
X12345975Y-14972984D01*
X12736451Y-14763460D02*
X12565023Y-15020603D01*
X12993594Y-14772984D02*
X13012642Y-14772984D01*
X13012642Y-14772984D02*
X13031689Y-14782508D01*
X13031689Y-14782508D02*
X13041213Y-14792031D01*
X13041213Y-14792031D02*
X13050737Y-14811079D01*
X13050737Y-14811079D02*
X13060261Y-14849174D01*
X13060261Y-14849174D02*
X13060261Y-14896793D01*
X13060261Y-14896793D02*
X13050737Y-14934888D01*
X13050737Y-14934888D02*
X13041213Y-14953936D01*
X13041213Y-14953936D02*
X13031689Y-14963460D01*
X13031689Y-14963460D02*
X13012642Y-14972984D01*
X13012642Y-14972984D02*
X12993594Y-14972984D01*
X12993594Y-14972984D02*
X12974546Y-14963460D01*
X12974546Y-14963460D02*
X12965023Y-14953936D01*
X12965023Y-14953936D02*
X12955499Y-14934888D01*
X12955499Y-14934888D02*
X12945975Y-14896793D01*
X12945975Y-14896793D02*
X12945975Y-14849174D01*
X12945975Y-14849174D02*
X12955499Y-14811079D01*
X12955499Y-14811079D02*
X12965023Y-14792031D01*
X12965023Y-14792031D02*
X12974546Y-14782508D01*
X12974546Y-14782508D02*
X12993594Y-14772984D01*
X13145975Y-14953936D02*
X13155499Y-14963460D01*
X13155499Y-14963460D02*
X13145975Y-14972984D01*
X13145975Y-14972984D02*
X13136451Y-14963460D01*
X13136451Y-14963460D02*
X13145975Y-14953936D01*
X13145975Y-14953936D02*
X13145975Y-14972984D01*
X13279308Y-14772984D02*
X13298356Y-14772984D01*
X13298356Y-14772984D02*
X13317404Y-14782508D01*
X13317404Y-14782508D02*
X13326927Y-14792031D01*
X13326927Y-14792031D02*
X13336451Y-14811079D01*
X13336451Y-14811079D02*
X13345975Y-14849174D01*
X13345975Y-14849174D02*
X13345975Y-14896793D01*
X13345975Y-14896793D02*
X13336451Y-14934888D01*
X13336451Y-14934888D02*
X13326927Y-14953936D01*
X13326927Y-14953936D02*
X13317404Y-14963460D01*
X13317404Y-14963460D02*
X13298356Y-14972984D01*
X13298356Y-14972984D02*
X13279308Y-14972984D01*
X13279308Y-14972984D02*
X13260261Y-14963460D01*
X13260261Y-14963460D02*
X13250737Y-14953936D01*
X13250737Y-14953936D02*
X13241213Y-14934888D01*
X13241213Y-14934888D02*
X13231689Y-14896793D01*
X13231689Y-14896793D02*
X13231689Y-14849174D01*
X13231689Y-14849174D02*
X13241213Y-14811079D01*
X13241213Y-14811079D02*
X13250737Y-14792031D01*
X13250737Y-14792031D02*
X13260261Y-14782508D01*
X13260261Y-14782508D02*
X13279308Y-14772984D01*
X13460261Y-14858698D02*
X13441213Y-14849174D01*
X13441213Y-14849174D02*
X13431689Y-14839650D01*
X13431689Y-14839650D02*
X13422166Y-14820603D01*
X13422166Y-14820603D02*
X13422166Y-14811079D01*
X13422166Y-14811079D02*
X13431689Y-14792031D01*
X13431689Y-14792031D02*
X13441213Y-14782508D01*
X13441213Y-14782508D02*
X13460261Y-14772984D01*
X13460261Y-14772984D02*
X13498356Y-14772984D01*
X13498356Y-14772984D02*
X13517404Y-14782508D01*
X13517404Y-14782508D02*
X13526927Y-14792031D01*
X13526927Y-14792031D02*
X13536451Y-14811079D01*
X13536451Y-14811079D02*
X13536451Y-14820603D01*
X13536451Y-14820603D02*
X13526927Y-14839650D01*
X13526927Y-14839650D02*
X13517404Y-14849174D01*
X13517404Y-14849174D02*
X13498356Y-14858698D01*
X13498356Y-14858698D02*
X13460261Y-14858698D01*
X13460261Y-14858698D02*
X13441213Y-14868222D01*
X13441213Y-14868222D02*
X13431689Y-14877746D01*
X13431689Y-14877746D02*
X13422166Y-14896793D01*
X13422166Y-14896793D02*
X13422166Y-14934888D01*
X13422166Y-14934888D02*
X13431689Y-14953936D01*
X13431689Y-14953936D02*
X13441213Y-14963460D01*
X13441213Y-14963460D02*
X13460261Y-14972984D01*
X13460261Y-14972984D02*
X13498356Y-14972984D01*
X13498356Y-14972984D02*
X13517404Y-14963460D01*
X13517404Y-14963460D02*
X13526927Y-14953936D01*
X13526927Y-14953936D02*
X13536451Y-14934888D01*
X13536451Y-14934888D02*
X13536451Y-14896793D01*
X13536451Y-14896793D02*
X13526927Y-14877746D01*
X13526927Y-14877746D02*
X13517404Y-14868222D01*
X13517404Y-14868222D02*
X13498356Y-14858698D01*
X13707880Y-14772984D02*
X13669785Y-14772984D01*
X13669785Y-14772984D02*
X13650737Y-14782508D01*
X13650737Y-14782508D02*
X13641213Y-14792031D01*
X13641213Y-14792031D02*
X13622166Y-14820603D01*
X13622166Y-14820603D02*
X13612642Y-14858698D01*
X13612642Y-14858698D02*
X13612642Y-14934888D01*
X13612642Y-14934888D02*
X13622166Y-14953936D01*
X13622166Y-14953936D02*
X13631689Y-14963460D01*
X13631689Y-14963460D02*
X13650737Y-14972984D01*
X13650737Y-14972984D02*
X13688832Y-14972984D01*
X13688832Y-14972984D02*
X13707880Y-14963460D01*
X13707880Y-14963460D02*
X13717404Y-14953936D01*
X13717404Y-14953936D02*
X13726927Y-14934888D01*
X13726927Y-14934888D02*
X13726927Y-14887269D01*
X13726927Y-14887269D02*
X13717404Y-14868222D01*
X13717404Y-14868222D02*
X13707880Y-14858698D01*
X13707880Y-14858698D02*
X13688832Y-14849174D01*
X13688832Y-14849174D02*
X13650737Y-14849174D01*
X13650737Y-14849174D02*
X13631689Y-14858698D01*
X13631689Y-14858698D02*
X13622166Y-14868222D01*
X13622166Y-14868222D02*
X13612642Y-14887269D01*
X13898356Y-14772984D02*
X13860261Y-14772984D01*
X13860261Y-14772984D02*
X13841213Y-14782508D01*
X13841213Y-14782508D02*
X13831689Y-14792031D01*
X13831689Y-14792031D02*
X13812642Y-14820603D01*
X13812642Y-14820603D02*
X13803118Y-14858698D01*
X13803118Y-14858698D02*
X13803118Y-14934888D01*
X13803118Y-14934888D02*
X13812642Y-14953936D01*
X13812642Y-14953936D02*
X13822166Y-14963460D01*
X13822166Y-14963460D02*
X13841213Y-14972984D01*
X13841213Y-14972984D02*
X13879308Y-14972984D01*
X13879308Y-14972984D02*
X13898356Y-14963460D01*
X13898356Y-14963460D02*
X13907880Y-14953936D01*
X13907880Y-14953936D02*
X13917404Y-14934888D01*
X13917404Y-14934888D02*
X13917404Y-14887269D01*
X13917404Y-14887269D02*
X13907880Y-14868222D01*
X13907880Y-14868222D02*
X13898356Y-14858698D01*
X13898356Y-14858698D02*
X13879308Y-14849174D01*
X13879308Y-14849174D02*
X13841213Y-14849174D01*
X13841213Y-14849174D02*
X13822166Y-14858698D01*
X13822166Y-14858698D02*
X13812642Y-14868222D01*
X13812642Y-14868222D02*
X13803118Y-14887269D01*
X13993594Y-14772984D02*
X13993594Y-14811079D01*
X14069785Y-14772984D02*
X14069785Y-14811079D01*
X14365023Y-15049174D02*
X14355499Y-15039650D01*
X14355499Y-15039650D02*
X14336451Y-15011079D01*
X14336451Y-15011079D02*
X14326928Y-14992031D01*
X14326928Y-14992031D02*
X14317404Y-14963460D01*
X14317404Y-14963460D02*
X14307880Y-14915841D01*
X14307880Y-14915841D02*
X14307880Y-14877746D01*
X14307880Y-14877746D02*
X14317404Y-14830127D01*
X14317404Y-14830127D02*
X14326928Y-14801555D01*
X14326928Y-14801555D02*
X14336451Y-14782508D01*
X14336451Y-14782508D02*
X14355499Y-14753936D01*
X14355499Y-14753936D02*
X14365023Y-14744412D01*
X14545975Y-14972984D02*
X14431689Y-14972984D01*
X14488832Y-14972984D02*
X14488832Y-14772984D01*
X14488832Y-14772984D02*
X14469785Y-14801555D01*
X14469785Y-14801555D02*
X14450737Y-14820603D01*
X14450737Y-14820603D02*
X14431689Y-14830127D01*
X14784070Y-14972984D02*
X14784070Y-14772984D01*
X14869785Y-14972984D02*
X14869785Y-14868222D01*
X14869785Y-14868222D02*
X14860261Y-14849174D01*
X14860261Y-14849174D02*
X14841213Y-14839650D01*
X14841213Y-14839650D02*
X14812642Y-14839650D01*
X14812642Y-14839650D02*
X14793594Y-14849174D01*
X14793594Y-14849174D02*
X14784070Y-14858698D01*
X14993594Y-14972984D02*
X14974547Y-14963460D01*
X14974547Y-14963460D02*
X14965023Y-14953936D01*
X14965023Y-14953936D02*
X14955499Y-14934888D01*
X14955499Y-14934888D02*
X14955499Y-14877746D01*
X14955499Y-14877746D02*
X14965023Y-14858698D01*
X14965023Y-14858698D02*
X14974547Y-14849174D01*
X14974547Y-14849174D02*
X14993594Y-14839650D01*
X14993594Y-14839650D02*
X15022166Y-14839650D01*
X15022166Y-14839650D02*
X15041213Y-14849174D01*
X15041213Y-14849174D02*
X15050737Y-14858698D01*
X15050737Y-14858698D02*
X15060261Y-14877746D01*
X15060261Y-14877746D02*
X15060261Y-14934888D01*
X15060261Y-14934888D02*
X15050737Y-14953936D01*
X15050737Y-14953936D02*
X15041213Y-14963460D01*
X15041213Y-14963460D02*
X15022166Y-14972984D01*
X15022166Y-14972984D02*
X14993594Y-14972984D01*
X15174547Y-14972984D02*
X15155499Y-14963460D01*
X15155499Y-14963460D02*
X15145975Y-14944412D01*
X15145975Y-14944412D02*
X15145975Y-14772984D01*
X15326928Y-14963460D02*
X15307880Y-14972984D01*
X15307880Y-14972984D02*
X15269785Y-14972984D01*
X15269785Y-14972984D02*
X15250737Y-14963460D01*
X15250737Y-14963460D02*
X15241213Y-14944412D01*
X15241213Y-14944412D02*
X15241213Y-14868222D01*
X15241213Y-14868222D02*
X15250737Y-14849174D01*
X15250737Y-14849174D02*
X15269785Y-14839650D01*
X15269785Y-14839650D02*
X15307880Y-14839650D01*
X15307880Y-14839650D02*
X15326928Y-14849174D01*
X15326928Y-14849174D02*
X15336451Y-14868222D01*
X15336451Y-14868222D02*
X15336451Y-14887269D01*
X15336451Y-14887269D02*
X15241213Y-14906317D01*
X15403118Y-15049174D02*
X15412642Y-15039650D01*
X15412642Y-15039650D02*
X15431690Y-15011079D01*
X15431690Y-15011079D02*
X15441213Y-14992031D01*
X15441213Y-14992031D02*
X15450737Y-14963460D01*
X15450737Y-14963460D02*
X15460261Y-14915841D01*
X15460261Y-14915841D02*
X15460261Y-14877746D01*
X15460261Y-14877746D02*
X15450737Y-14830127D01*
X15450737Y-14830127D02*
X15441213Y-14801555D01*
X15441213Y-14801555D02*
X15431690Y-14782508D01*
X15431690Y-14782508D02*
X15412642Y-14753936D01*
X15412642Y-14753936D02*
X15403118Y-14744412D01*
X10589960Y-15101500D02*
X10789960Y-15301500D01*
X10789960Y-15101500D02*
X10589960Y-15301500D01*
X10760671Y-15272211D02*
X10760671Y-15130789D01*
X10619249Y-15130789D01*
X10619249Y-15272211D01*
X10760671Y-15272211D01*
X11031689Y-15092984D02*
X11155499Y-15092984D01*
X11155499Y-15092984D02*
X11088832Y-15169174D01*
X11088832Y-15169174D02*
X11117404Y-15169174D01*
X11117404Y-15169174D02*
X11136451Y-15178698D01*
X11136451Y-15178698D02*
X11145975Y-15188222D01*
X11145975Y-15188222D02*
X11155499Y-15207269D01*
X11155499Y-15207269D02*
X11155499Y-15254888D01*
X11155499Y-15254888D02*
X11145975Y-15273936D01*
X11145975Y-15273936D02*
X11136451Y-15283460D01*
X11136451Y-15283460D02*
X11117404Y-15292984D01*
X11117404Y-15292984D02*
X11060261Y-15292984D01*
X11060261Y-15292984D02*
X11041213Y-15283460D01*
X11041213Y-15283460D02*
X11031689Y-15273936D01*
X11241213Y-15273936D02*
X11250737Y-15283460D01*
X11250737Y-15283460D02*
X11241213Y-15292984D01*
X11241213Y-15292984D02*
X11231689Y-15283460D01*
X11231689Y-15283460D02*
X11241213Y-15273936D01*
X11241213Y-15273936D02*
X11241213Y-15292984D01*
X11326927Y-15112031D02*
X11336451Y-15102508D01*
X11336451Y-15102508D02*
X11355499Y-15092984D01*
X11355499Y-15092984D02*
X11403118Y-15092984D01*
X11403118Y-15092984D02*
X11422165Y-15102508D01*
X11422165Y-15102508D02*
X11431689Y-15112031D01*
X11431689Y-15112031D02*
X11441213Y-15131079D01*
X11441213Y-15131079D02*
X11441213Y-15150127D01*
X11441213Y-15150127D02*
X11431689Y-15178698D01*
X11431689Y-15178698D02*
X11317403Y-15292984D01*
X11317403Y-15292984D02*
X11441213Y-15292984D01*
X11565022Y-15092984D02*
X11584070Y-15092984D01*
X11584070Y-15092984D02*
X11603118Y-15102508D01*
X11603118Y-15102508D02*
X11612642Y-15112031D01*
X11612642Y-15112031D02*
X11622165Y-15131079D01*
X11622165Y-15131079D02*
X11631689Y-15169174D01*
X11631689Y-15169174D02*
X11631689Y-15216793D01*
X11631689Y-15216793D02*
X11622165Y-15254888D01*
X11622165Y-15254888D02*
X11612642Y-15273936D01*
X11612642Y-15273936D02*
X11603118Y-15283460D01*
X11603118Y-15283460D02*
X11584070Y-15292984D01*
X11584070Y-15292984D02*
X11565022Y-15292984D01*
X11565022Y-15292984D02*
X11545975Y-15283460D01*
X11545975Y-15283460D02*
X11536451Y-15273936D01*
X11536451Y-15273936D02*
X11526927Y-15254888D01*
X11526927Y-15254888D02*
X11517403Y-15216793D01*
X11517403Y-15216793D02*
X11517403Y-15169174D01*
X11517403Y-15169174D02*
X11526927Y-15131079D01*
X11526927Y-15131079D02*
X11536451Y-15112031D01*
X11536451Y-15112031D02*
X11545975Y-15102508D01*
X11545975Y-15102508D02*
X11565022Y-15092984D01*
X11755499Y-15092984D02*
X11774546Y-15092984D01*
X11774546Y-15092984D02*
X11793594Y-15102508D01*
X11793594Y-15102508D02*
X11803118Y-15112031D01*
X11803118Y-15112031D02*
X11812642Y-15131079D01*
X11812642Y-15131079D02*
X11822165Y-15169174D01*
X11822165Y-15169174D02*
X11822165Y-15216793D01*
X11822165Y-15216793D02*
X11812642Y-15254888D01*
X11812642Y-15254888D02*
X11803118Y-15273936D01*
X11803118Y-15273936D02*
X11793594Y-15283460D01*
X11793594Y-15283460D02*
X11774546Y-15292984D01*
X11774546Y-15292984D02*
X11755499Y-15292984D01*
X11755499Y-15292984D02*
X11736451Y-15283460D01*
X11736451Y-15283460D02*
X11726927Y-15273936D01*
X11726927Y-15273936D02*
X11717403Y-15254888D01*
X11717403Y-15254888D02*
X11707880Y-15216793D01*
X11707880Y-15216793D02*
X11707880Y-15169174D01*
X11707880Y-15169174D02*
X11717403Y-15131079D01*
X11717403Y-15131079D02*
X11726927Y-15112031D01*
X11726927Y-15112031D02*
X11736451Y-15102508D01*
X11736451Y-15102508D02*
X11755499Y-15092984D01*
X11907880Y-15292984D02*
X11907880Y-15159650D01*
X11907880Y-15178698D02*
X11917403Y-15169174D01*
X11917403Y-15169174D02*
X11936451Y-15159650D01*
X11936451Y-15159650D02*
X11965023Y-15159650D01*
X11965023Y-15159650D02*
X11984070Y-15169174D01*
X11984070Y-15169174D02*
X11993594Y-15188222D01*
X11993594Y-15188222D02*
X11993594Y-15292984D01*
X11993594Y-15188222D02*
X12003118Y-15169174D01*
X12003118Y-15169174D02*
X12022165Y-15159650D01*
X12022165Y-15159650D02*
X12050737Y-15159650D01*
X12050737Y-15159650D02*
X12069784Y-15169174D01*
X12069784Y-15169174D02*
X12079308Y-15188222D01*
X12079308Y-15188222D02*
X12079308Y-15292984D01*
X12174546Y-15292984D02*
X12174546Y-15159650D01*
X12174546Y-15178698D02*
X12184070Y-15169174D01*
X12184070Y-15169174D02*
X12203118Y-15159650D01*
X12203118Y-15159650D02*
X12231689Y-15159650D01*
X12231689Y-15159650D02*
X12250737Y-15169174D01*
X12250737Y-15169174D02*
X12260261Y-15188222D01*
X12260261Y-15188222D02*
X12260261Y-15292984D01*
X12260261Y-15188222D02*
X12269784Y-15169174D01*
X12269784Y-15169174D02*
X12288832Y-15159650D01*
X12288832Y-15159650D02*
X12317403Y-15159650D01*
X12317403Y-15159650D02*
X12336451Y-15169174D01*
X12336451Y-15169174D02*
X12345975Y-15188222D01*
X12345975Y-15188222D02*
X12345975Y-15292984D01*
X12736451Y-15083460D02*
X12565023Y-15340603D01*
X12993594Y-15092984D02*
X13012642Y-15092984D01*
X13012642Y-15092984D02*
X13031689Y-15102508D01*
X13031689Y-15102508D02*
X13041213Y-15112031D01*
X13041213Y-15112031D02*
X13050737Y-15131079D01*
X13050737Y-15131079D02*
X13060261Y-15169174D01*
X13060261Y-15169174D02*
X13060261Y-15216793D01*
X13060261Y-15216793D02*
X13050737Y-15254888D01*
X13050737Y-15254888D02*
X13041213Y-15273936D01*
X13041213Y-15273936D02*
X13031689Y-15283460D01*
X13031689Y-15283460D02*
X13012642Y-15292984D01*
X13012642Y-15292984D02*
X12993594Y-15292984D01*
X12993594Y-15292984D02*
X12974546Y-15283460D01*
X12974546Y-15283460D02*
X12965023Y-15273936D01*
X12965023Y-15273936D02*
X12955499Y-15254888D01*
X12955499Y-15254888D02*
X12945975Y-15216793D01*
X12945975Y-15216793D02*
X12945975Y-15169174D01*
X12945975Y-15169174D02*
X12955499Y-15131079D01*
X12955499Y-15131079D02*
X12965023Y-15112031D01*
X12965023Y-15112031D02*
X12974546Y-15102508D01*
X12974546Y-15102508D02*
X12993594Y-15092984D01*
X13145975Y-15273936D02*
X13155499Y-15283460D01*
X13155499Y-15283460D02*
X13145975Y-15292984D01*
X13145975Y-15292984D02*
X13136451Y-15283460D01*
X13136451Y-15283460D02*
X13145975Y-15273936D01*
X13145975Y-15273936D02*
X13145975Y-15292984D01*
X13345975Y-15292984D02*
X13231689Y-15292984D01*
X13288832Y-15292984D02*
X13288832Y-15092984D01*
X13288832Y-15092984D02*
X13269785Y-15121555D01*
X13269785Y-15121555D02*
X13250737Y-15140603D01*
X13250737Y-15140603D02*
X13231689Y-15150127D01*
X13422166Y-15112031D02*
X13431689Y-15102508D01*
X13431689Y-15102508D02*
X13450737Y-15092984D01*
X13450737Y-15092984D02*
X13498356Y-15092984D01*
X13498356Y-15092984D02*
X13517404Y-15102508D01*
X13517404Y-15102508D02*
X13526927Y-15112031D01*
X13526927Y-15112031D02*
X13536451Y-15131079D01*
X13536451Y-15131079D02*
X13536451Y-15150127D01*
X13536451Y-15150127D02*
X13526927Y-15178698D01*
X13526927Y-15178698D02*
X13412642Y-15292984D01*
X13412642Y-15292984D02*
X13536451Y-15292984D01*
X13707880Y-15092984D02*
X13669785Y-15092984D01*
X13669785Y-15092984D02*
X13650737Y-15102508D01*
X13650737Y-15102508D02*
X13641213Y-15112031D01*
X13641213Y-15112031D02*
X13622166Y-15140603D01*
X13622166Y-15140603D02*
X13612642Y-15178698D01*
X13612642Y-15178698D02*
X13612642Y-15254888D01*
X13612642Y-15254888D02*
X13622166Y-15273936D01*
X13622166Y-15273936D02*
X13631689Y-15283460D01*
X13631689Y-15283460D02*
X13650737Y-15292984D01*
X13650737Y-15292984D02*
X13688832Y-15292984D01*
X13688832Y-15292984D02*
X13707880Y-15283460D01*
X13707880Y-15283460D02*
X13717404Y-15273936D01*
X13717404Y-15273936D02*
X13726927Y-15254888D01*
X13726927Y-15254888D02*
X13726927Y-15207269D01*
X13726927Y-15207269D02*
X13717404Y-15188222D01*
X13717404Y-15188222D02*
X13707880Y-15178698D01*
X13707880Y-15178698D02*
X13688832Y-15169174D01*
X13688832Y-15169174D02*
X13650737Y-15169174D01*
X13650737Y-15169174D02*
X13631689Y-15178698D01*
X13631689Y-15178698D02*
X13622166Y-15188222D01*
X13622166Y-15188222D02*
X13612642Y-15207269D01*
X13850737Y-15092984D02*
X13869785Y-15092984D01*
X13869785Y-15092984D02*
X13888832Y-15102508D01*
X13888832Y-15102508D02*
X13898356Y-15112031D01*
X13898356Y-15112031D02*
X13907880Y-15131079D01*
X13907880Y-15131079D02*
X13917404Y-15169174D01*
X13917404Y-15169174D02*
X13917404Y-15216793D01*
X13917404Y-15216793D02*
X13907880Y-15254888D01*
X13907880Y-15254888D02*
X13898356Y-15273936D01*
X13898356Y-15273936D02*
X13888832Y-15283460D01*
X13888832Y-15283460D02*
X13869785Y-15292984D01*
X13869785Y-15292984D02*
X13850737Y-15292984D01*
X13850737Y-15292984D02*
X13831689Y-15283460D01*
X13831689Y-15283460D02*
X13822166Y-15273936D01*
X13822166Y-15273936D02*
X13812642Y-15254888D01*
X13812642Y-15254888D02*
X13803118Y-15216793D01*
X13803118Y-15216793D02*
X13803118Y-15169174D01*
X13803118Y-15169174D02*
X13812642Y-15131079D01*
X13812642Y-15131079D02*
X13822166Y-15112031D01*
X13822166Y-15112031D02*
X13831689Y-15102508D01*
X13831689Y-15102508D02*
X13850737Y-15092984D01*
X13993594Y-15092984D02*
X13993594Y-15131079D01*
X14069785Y-15092984D02*
X14069785Y-15131079D01*
X14365023Y-15369174D02*
X14355499Y-15359650D01*
X14355499Y-15359650D02*
X14336451Y-15331079D01*
X14336451Y-15331079D02*
X14326928Y-15312031D01*
X14326928Y-15312031D02*
X14317404Y-15283460D01*
X14317404Y-15283460D02*
X14307880Y-15235841D01*
X14307880Y-15235841D02*
X14307880Y-15197746D01*
X14307880Y-15197746D02*
X14317404Y-15150127D01*
X14317404Y-15150127D02*
X14326928Y-15121555D01*
X14326928Y-15121555D02*
X14336451Y-15102508D01*
X14336451Y-15102508D02*
X14355499Y-15073936D01*
X14355499Y-15073936D02*
X14365023Y-15064412D01*
X14422166Y-15092984D02*
X14545975Y-15092984D01*
X14545975Y-15092984D02*
X14479308Y-15169174D01*
X14479308Y-15169174D02*
X14507880Y-15169174D01*
X14507880Y-15169174D02*
X14526928Y-15178698D01*
X14526928Y-15178698D02*
X14536451Y-15188222D01*
X14536451Y-15188222D02*
X14545975Y-15207269D01*
X14545975Y-15207269D02*
X14545975Y-15254888D01*
X14545975Y-15254888D02*
X14536451Y-15273936D01*
X14536451Y-15273936D02*
X14526928Y-15283460D01*
X14526928Y-15283460D02*
X14507880Y-15292984D01*
X14507880Y-15292984D02*
X14450737Y-15292984D01*
X14450737Y-15292984D02*
X14431689Y-15283460D01*
X14431689Y-15283460D02*
X14422166Y-15273936D01*
X14784070Y-15292984D02*
X14784070Y-15092984D01*
X14869785Y-15292984D02*
X14869785Y-15188222D01*
X14869785Y-15188222D02*
X14860261Y-15169174D01*
X14860261Y-15169174D02*
X14841213Y-15159650D01*
X14841213Y-15159650D02*
X14812642Y-15159650D01*
X14812642Y-15159650D02*
X14793594Y-15169174D01*
X14793594Y-15169174D02*
X14784070Y-15178698D01*
X14993594Y-15292984D02*
X14974547Y-15283460D01*
X14974547Y-15283460D02*
X14965023Y-15273936D01*
X14965023Y-15273936D02*
X14955499Y-15254888D01*
X14955499Y-15254888D02*
X14955499Y-15197746D01*
X14955499Y-15197746D02*
X14965023Y-15178698D01*
X14965023Y-15178698D02*
X14974547Y-15169174D01*
X14974547Y-15169174D02*
X14993594Y-15159650D01*
X14993594Y-15159650D02*
X15022166Y-15159650D01*
X15022166Y-15159650D02*
X15041213Y-15169174D01*
X15041213Y-15169174D02*
X15050737Y-15178698D01*
X15050737Y-15178698D02*
X15060261Y-15197746D01*
X15060261Y-15197746D02*
X15060261Y-15254888D01*
X15060261Y-15254888D02*
X15050737Y-15273936D01*
X15050737Y-15273936D02*
X15041213Y-15283460D01*
X15041213Y-15283460D02*
X15022166Y-15292984D01*
X15022166Y-15292984D02*
X14993594Y-15292984D01*
X15174547Y-15292984D02*
X15155499Y-15283460D01*
X15155499Y-15283460D02*
X15145975Y-15264412D01*
X15145975Y-15264412D02*
X15145975Y-15092984D01*
X15326928Y-15283460D02*
X15307880Y-15292984D01*
X15307880Y-15292984D02*
X15269785Y-15292984D01*
X15269785Y-15292984D02*
X15250737Y-15283460D01*
X15250737Y-15283460D02*
X15241213Y-15264412D01*
X15241213Y-15264412D02*
X15241213Y-15188222D01*
X15241213Y-15188222D02*
X15250737Y-15169174D01*
X15250737Y-15169174D02*
X15269785Y-15159650D01*
X15269785Y-15159650D02*
X15307880Y-15159650D01*
X15307880Y-15159650D02*
X15326928Y-15169174D01*
X15326928Y-15169174D02*
X15336451Y-15188222D01*
X15336451Y-15188222D02*
X15336451Y-15207269D01*
X15336451Y-15207269D02*
X15241213Y-15226317D01*
X15412642Y-15283460D02*
X15431690Y-15292984D01*
X15431690Y-15292984D02*
X15469785Y-15292984D01*
X15469785Y-15292984D02*
X15488832Y-15283460D01*
X15488832Y-15283460D02*
X15498356Y-15264412D01*
X15498356Y-15264412D02*
X15498356Y-15254888D01*
X15498356Y-15254888D02*
X15488832Y-15235841D01*
X15488832Y-15235841D02*
X15469785Y-15226317D01*
X15469785Y-15226317D02*
X15441213Y-15226317D01*
X15441213Y-15226317D02*
X15422166Y-15216793D01*
X15422166Y-15216793D02*
X15412642Y-15197746D01*
X15412642Y-15197746D02*
X15412642Y-15188222D01*
X15412642Y-15188222D02*
X15422166Y-15169174D01*
X15422166Y-15169174D02*
X15441213Y-15159650D01*
X15441213Y-15159650D02*
X15469785Y-15159650D01*
X15469785Y-15159650D02*
X15488832Y-15169174D01*
X15565023Y-15369174D02*
X15574547Y-15359650D01*
X15574547Y-15359650D02*
X15593594Y-15331079D01*
X15593594Y-15331079D02*
X15603118Y-15312031D01*
X15603118Y-15312031D02*
X15612642Y-15283460D01*
X15612642Y-15283460D02*
X15622166Y-15235841D01*
X15622166Y-15235841D02*
X15622166Y-15197746D01*
X15622166Y-15197746D02*
X15612642Y-15150127D01*
X15612642Y-15150127D02*
X15603118Y-15121555D01*
X15603118Y-15121555D02*
X15593594Y-15102508D01*
X15593594Y-15102508D02*
X15574547Y-15073936D01*
X15574547Y-15073936D02*
X15565023Y-15064412D01*
M02*
