%TF.GenerationSoftware,KiCad,Pcbnew,9.0.6*%
%TF.CreationDate,2026-01-30T16:54:02+01:00*%
%TF.ProjectId,ESP32_PWM_PCB_large,45535033-325f-4505-974d-5f5043425f6c,1.0*%
%TF.SameCoordinates,Original*%
%TF.FileFunction,Drillmap*%
%TF.FilePolarity,Positive*%
%FSLAX45Y45*%
G04 Gerber Fmt 4.5, Leading zero omitted, Abs format (unit mm)*
G04 Created by KiCad (PCBNEW 9.0.6) date 2026-01-30 16:54:02*
%MOMM*%
%LPD*%
G01*
G04 APERTURE LIST*
%ADD10C,0.050000*%
%ADD11C,0.200000*%
G04 APERTURE END LIST*
D10*
X20800000Y-8500000D02*
X20800000Y-6800000D01*
X20900000Y-6700000D02*
X21550000Y-6700000D01*
X12600000Y-10950000D02*
X21550000Y-10950000D01*
X12600000Y-5450000D02*
X12600000Y-10950000D01*
X21550000Y-6700000D02*
X21550000Y-5450000D01*
X21550000Y-8600000D02*
X20900000Y-8600000D01*
X21550000Y-10950000D02*
X21550000Y-8600000D01*
X21550000Y-5450000D02*
X12600000Y-5450000D01*
X20800000Y-6800000D02*
G75*
G02*
X20900000Y-6700000I100000J0D01*
G01*
X20900000Y-8600000D02*
G75*
G02*
X20800000Y-8500000I0J100000D01*
G01*
D11*
X12858277Y-11263984D02*
X12858277Y-11063984D01*
X12858277Y-11063984D02*
X12905896Y-11063984D01*
X12905896Y-11063984D02*
X12934467Y-11073508D01*
X12934467Y-11073508D02*
X12953515Y-11092555D01*
X12953515Y-11092555D02*
X12963039Y-11111603D01*
X12963039Y-11111603D02*
X12972562Y-11149698D01*
X12972562Y-11149698D02*
X12972562Y-11178270D01*
X12972562Y-11178270D02*
X12963039Y-11216365D01*
X12963039Y-11216365D02*
X12953515Y-11235412D01*
X12953515Y-11235412D02*
X12934467Y-11254460D01*
X12934467Y-11254460D02*
X12905896Y-11263984D01*
X12905896Y-11263984D02*
X12858277Y-11263984D01*
X13058277Y-11263984D02*
X13058277Y-11130650D01*
X13058277Y-11168746D02*
X13067801Y-11149698D01*
X13067801Y-11149698D02*
X13077324Y-11140174D01*
X13077324Y-11140174D02*
X13096372Y-11130650D01*
X13096372Y-11130650D02*
X13115420Y-11130650D01*
X13182086Y-11263984D02*
X13182086Y-11130650D01*
X13182086Y-11063984D02*
X13172562Y-11073508D01*
X13172562Y-11073508D02*
X13182086Y-11083031D01*
X13182086Y-11083031D02*
X13191610Y-11073508D01*
X13191610Y-11073508D02*
X13182086Y-11063984D01*
X13182086Y-11063984D02*
X13182086Y-11083031D01*
X13305896Y-11263984D02*
X13286848Y-11254460D01*
X13286848Y-11254460D02*
X13277324Y-11235412D01*
X13277324Y-11235412D02*
X13277324Y-11063984D01*
X13410658Y-11263984D02*
X13391610Y-11254460D01*
X13391610Y-11254460D02*
X13382086Y-11235412D01*
X13382086Y-11235412D02*
X13382086Y-11063984D01*
X13639229Y-11263984D02*
X13639229Y-11063984D01*
X13639229Y-11063984D02*
X13705896Y-11206841D01*
X13705896Y-11206841D02*
X13772562Y-11063984D01*
X13772562Y-11063984D02*
X13772562Y-11263984D01*
X13953515Y-11263984D02*
X13953515Y-11159222D01*
X13953515Y-11159222D02*
X13943991Y-11140174D01*
X13943991Y-11140174D02*
X13924943Y-11130650D01*
X13924943Y-11130650D02*
X13886848Y-11130650D01*
X13886848Y-11130650D02*
X13867801Y-11140174D01*
X13953515Y-11254460D02*
X13934467Y-11263984D01*
X13934467Y-11263984D02*
X13886848Y-11263984D01*
X13886848Y-11263984D02*
X13867801Y-11254460D01*
X13867801Y-11254460D02*
X13858277Y-11235412D01*
X13858277Y-11235412D02*
X13858277Y-11216365D01*
X13858277Y-11216365D02*
X13867801Y-11197317D01*
X13867801Y-11197317D02*
X13886848Y-11187793D01*
X13886848Y-11187793D02*
X13934467Y-11187793D01*
X13934467Y-11187793D02*
X13953515Y-11178270D01*
X14048753Y-11130650D02*
X14048753Y-11330650D01*
X14048753Y-11140174D02*
X14067801Y-11130650D01*
X14067801Y-11130650D02*
X14105896Y-11130650D01*
X14105896Y-11130650D02*
X14124943Y-11140174D01*
X14124943Y-11140174D02*
X14134467Y-11149698D01*
X14134467Y-11149698D02*
X14143991Y-11168746D01*
X14143991Y-11168746D02*
X14143991Y-11225888D01*
X14143991Y-11225888D02*
X14134467Y-11244936D01*
X14134467Y-11244936D02*
X14124943Y-11254460D01*
X14124943Y-11254460D02*
X14105896Y-11263984D01*
X14105896Y-11263984D02*
X14067801Y-11263984D01*
X14067801Y-11263984D02*
X14048753Y-11254460D01*
X14229705Y-11244936D02*
X14239229Y-11254460D01*
X14239229Y-11254460D02*
X14229705Y-11263984D01*
X14229705Y-11263984D02*
X14220182Y-11254460D01*
X14220182Y-11254460D02*
X14229705Y-11244936D01*
X14229705Y-11244936D02*
X14229705Y-11263984D01*
X14229705Y-11140174D02*
X14239229Y-11149698D01*
X14239229Y-11149698D02*
X14229705Y-11159222D01*
X14229705Y-11159222D02*
X14220182Y-11149698D01*
X14220182Y-11149698D02*
X14229705Y-11140174D01*
X14229705Y-11140174D02*
X14229705Y-11159222D01*
M02*
