G04 #@! TF.GenerationSoftware,KiCad,Pcbnew,9.0.6*
G04 #@! TF.CreationDate,2026-01-30T16:54:02+01:00*
G04 #@! TF.ProjectId,ESP32_PWM_PCB_large,45535033-325f-4505-974d-5f5043425f6c,1.0*
G04 #@! TF.SameCoordinates,Original*
G04 #@! TF.FileFunction,Paste,Top*
G04 #@! TF.FilePolarity,Positive*
%FSLAX46Y46*%
G04 Gerber Fmt 4.6, Leading zero omitted, Abs format (unit mm)*
G04 Created by KiCad (PCBNEW 9.0.6) date 2026-01-30 16:54:02*
%MOMM*%
%LPD*%
G01*
G04 APERTURE LIST*
G04 Aperture macros list*
%AMRoundRect*
0 Rectangle with rounded corners*
0 $1 Rounding radius*
0 $2 $3 $4 $5 $6 $7 $8 $9 X,Y pos of 4 corners*
0 Add a 4 corners polygon primitive as box body*
4,1,4,$2,$3,$4,$5,$6,$7,$8,$9,$2,$3,0*
0 Add four circle primitives for the rounded corners*
1,1,$1+$1,$2,$3*
1,1,$1+$1,$4,$5*
1,1,$1+$1,$6,$7*
1,1,$1+$1,$8,$9*
0 Add four rect primitives between the rounded corners*
20,1,$1+$1,$2,$3,$4,$5,0*
20,1,$1+$1,$4,$5,$6,$7,0*
20,1,$1+$1,$6,$7,$8,$9,0*
20,1,$1+$1,$8,$9,$2,$3,0*%
G04 Aperture macros list end*
%ADD10R,1.500000X0.900000*%
%ADD11R,0.900000X1.500000*%
%ADD12R,1.050000X1.050000*%
%ADD13RoundRect,0.375000X-0.625000X-0.375000X0.625000X-0.375000X0.625000X0.375000X-0.625000X0.375000X0*%
%ADD14RoundRect,0.500000X-0.500000X-1.400000X0.500000X-1.400000X0.500000X1.400000X-0.500000X1.400000X0*%
G04 APERTURE END LIST*
D10*
G04 #@! TO.C,U1*
X175260000Y-55880000D03*
X175260000Y-57150000D03*
X175260000Y-58420000D03*
X175260000Y-59690000D03*
X175260000Y-60960000D03*
X175260000Y-62230000D03*
X175260000Y-63500000D03*
X175260000Y-64770000D03*
X175260000Y-66040000D03*
X175260000Y-67310000D03*
X175260000Y-68580000D03*
X175260000Y-69850000D03*
X175260000Y-71120000D03*
X175260000Y-72390000D03*
D11*
X178300000Y-73640000D03*
X179570000Y-73640000D03*
X180840000Y-73640000D03*
X182110000Y-73640000D03*
X183380000Y-73640000D03*
X184650000Y-73640000D03*
X185920000Y-73640000D03*
X187190000Y-73640000D03*
X188460000Y-73640000D03*
X189730000Y-73640000D03*
D10*
X192760000Y-72390000D03*
X192760000Y-71120000D03*
X192760000Y-69850000D03*
X192760000Y-68580000D03*
X192760000Y-67310000D03*
X192760000Y-66040000D03*
X192760000Y-64770000D03*
X192760000Y-63500000D03*
X192760000Y-62230000D03*
X192760000Y-60960000D03*
X192760000Y-59690000D03*
X192760000Y-58420000D03*
X192760000Y-57150000D03*
X192760000Y-55880000D03*
D12*
X181805000Y-61695000D03*
X181805000Y-63220000D03*
X181805000Y-64745000D03*
X183330000Y-61695000D03*
X183330000Y-63220000D03*
X183330000Y-64745000D03*
X184855000Y-61695000D03*
X184855000Y-63220000D03*
X184855000Y-64745000D03*
G04 #@! TD*
D13*
G04 #@! TO.C,U2*
X156870000Y-81520000D03*
X156870000Y-83820000D03*
D14*
X163170000Y-83820000D03*
D13*
X156870000Y-86120000D03*
G04 #@! TD*
M02*
