G04 #@! TF.GenerationSoftware,KiCad,Pcbnew,9.0.6*
G04 #@! TF.CreationDate,2026-01-30T16:54:02+01:00*
G04 #@! TF.ProjectId,ESP32_PWM_PCB_large,45535033-325f-4505-974d-5f5043425f6c,1.0*
G04 #@! TF.SameCoordinates,Original*
G04 #@! TF.FileFunction,Copper,L2,Bot*
G04 #@! TF.FilePolarity,Positive*
%FSLAX46Y46*%
G04 Gerber Fmt 4.6, Leading zero omitted, Abs format (unit mm)*
G04 Created by KiCad (PCBNEW 9.0.6) date 2026-01-30 16:54:02*
%MOMM*%
%LPD*%
G01*
G04 APERTURE LIST*
G04 Aperture macros list*
%AMRoundRect*
0 Rectangle with rounded corners*
0 $1 Rounding radius*
0 $2 $3 $4 $5 $6 $7 $8 $9 X,Y pos of 4 corners*
0 Add a 4 corners polygon primitive as box body*
4,1,4,$2,$3,$4,$5,$6,$7,$8,$9,$2,$3,0*
0 Add four circle primitives for the rounded corners*
1,1,$1+$1,$2,$3*
1,1,$1+$1,$4,$5*
1,1,$1+$1,$6,$7*
1,1,$1+$1,$8,$9*
0 Add four rect primitives between the rounded corners*
20,1,$1+$1,$2,$3,$4,$5,0*
20,1,$1+$1,$4,$5,$6,$7,0*
20,1,$1+$1,$6,$7,$8,$9,0*
20,1,$1+$1,$8,$9,$2,$3,0*%
G04 Aperture macros list end*
G04 #@! TA.AperFunction,ComponentPad*
%ADD10C,1.600000*%
G04 #@! TD*
G04 #@! TA.AperFunction,ComponentPad*
%ADD11R,1.700000X1.700000*%
G04 #@! TD*
G04 #@! TA.AperFunction,ComponentPad*
%ADD12C,1.700000*%
G04 #@! TD*
G04 #@! TA.AperFunction,ComponentPad*
%ADD13RoundRect,0.236220X-0.513780X-0.513780X0.513780X-0.513780X0.513780X0.513780X-0.513780X0.513780X0*%
G04 #@! TD*
G04 #@! TA.AperFunction,ComponentPad*
%ADD14RoundRect,0.250000X0.550000X-0.550000X0.550000X0.550000X-0.550000X0.550000X-0.550000X-0.550000X0*%
G04 #@! TD*
G04 #@! TA.AperFunction,ComponentPad*
%ADD15C,3.600000*%
G04 #@! TD*
G04 #@! TA.AperFunction,ConnectorPad*
%ADD16C,5.600000*%
G04 #@! TD*
G04 #@! TA.AperFunction,ComponentPad*
%ADD17RoundRect,0.250000X-0.550000X-0.550000X0.550000X-0.550000X0.550000X0.550000X-0.550000X0.550000X0*%
G04 #@! TD*
G04 #@! TA.AperFunction,HeatsinkPad*
%ADD18C,0.600000*%
G04 #@! TD*
G04 #@! TA.AperFunction,ComponentPad*
%ADD19RoundRect,0.250001X-0.949999X0.949999X-0.949999X-0.949999X0.949999X-0.949999X0.949999X0.949999X0*%
G04 #@! TD*
G04 #@! TA.AperFunction,ComponentPad*
%ADD20C,2.400000*%
G04 #@! TD*
G04 #@! TA.AperFunction,ComponentPad*
%ADD21C,2.000000*%
G04 #@! TD*
G04 #@! TA.AperFunction,ComponentPad*
%ADD22RoundRect,0.250000X0.550000X0.550000X-0.550000X0.550000X-0.550000X-0.550000X0.550000X-0.550000X0*%
G04 #@! TD*
G04 #@! TA.AperFunction,ComponentPad*
%ADD23RoundRect,0.249999X-0.850001X-0.850001X0.850001X-0.850001X0.850001X0.850001X-0.850001X0.850001X0*%
G04 #@! TD*
G04 #@! TA.AperFunction,ComponentPad*
%ADD24C,2.200000*%
G04 #@! TD*
G04 #@! TA.AperFunction,ComponentPad*
%ADD25R,1.800000X1.800000*%
G04 #@! TD*
G04 #@! TA.AperFunction,ComponentPad*
%ADD26C,1.800000*%
G04 #@! TD*
G04 #@! TA.AperFunction,ViaPad*
%ADD27C,1.000000*%
G04 #@! TD*
G04 #@! TA.AperFunction,ViaPad*
%ADD28C,1.100000*%
G04 #@! TD*
G04 #@! TA.AperFunction,Conductor*
%ADD29C,2.000000*%
G04 #@! TD*
G04 #@! TA.AperFunction,Conductor*
%ADD30C,0.300000*%
G04 #@! TD*
G04 #@! TA.AperFunction,Conductor*
%ADD31C,0.400000*%
G04 #@! TD*
G04 APERTURE END LIST*
D10*
G04 #@! TO.P,C7,1*
G04 #@! TO.N,+5V*
X144145000Y-83780000D03*
G04 #@! TO.P,C7,2*
G04 #@! TO.N,GND*
X144145000Y-78780000D03*
G04 #@! TD*
G04 #@! TO.P,R25,1*
G04 #@! TO.N,Net-(U1-IO13)*
X185200000Y-87700000D03*
G04 #@! TO.P,R25,2*
G04 #@! TO.N,GND*
X187740000Y-87700000D03*
G04 #@! TD*
D11*
G04 #@! TO.P,J5,1,Pin_1*
G04 #@! TO.N,+5C*
X196215000Y-104140000D03*
D12*
G04 #@! TO.P,J5,2,Pin_2*
G04 #@! TO.N,Net-(J5-Pin_2)*
X196215000Y-101600000D03*
G04 #@! TO.P,J5,3,Pin_3*
G04 #@! TO.N,+5C*
X198755000Y-104140000D03*
G04 #@! TO.P,J5,4,Pin_4*
G04 #@! TO.N,Net-(J5-Pin_4)*
X198755000Y-101600000D03*
G04 #@! TO.P,J5,5,Pin_5*
G04 #@! TO.N,+5C*
X201295000Y-104140000D03*
G04 #@! TO.P,J5,6,Pin_6*
G04 #@! TO.N,Net-(J5-Pin_6)*
X201295000Y-101600000D03*
G04 #@! TO.P,J5,7,Pin_7*
G04 #@! TO.N,+5C*
X203835000Y-104140000D03*
G04 #@! TO.P,J5,8,Pin_8*
G04 #@! TO.N,Net-(J5-Pin_8)*
X203835000Y-101600000D03*
G04 #@! TD*
D10*
G04 #@! TO.P,R14,1*
G04 #@! TO.N,Net-(U1-IO17)*
X180975000Y-93570000D03*
G04 #@! TO.P,R14,2*
G04 #@! TO.N,Net-(J4-Pin_4)*
X180975000Y-96110000D03*
G04 #@! TD*
G04 #@! TO.P,R3,1*
G04 #@! TO.N,Net-(D1-A)*
X202565000Y-80645000D03*
G04 #@! TO.P,R3,2*
G04 #@! TO.N,Net-(U1-IO2)*
X200025000Y-80645000D03*
G04 #@! TD*
D11*
G04 #@! TO.P,J4,1,Pin_1*
G04 #@! TO.N,+5C*
X178435000Y-104140000D03*
D12*
G04 #@! TO.P,J4,2,Pin_2*
G04 #@! TO.N,Net-(J4-Pin_2)*
X178435000Y-101600000D03*
G04 #@! TO.P,J4,3,Pin_3*
G04 #@! TO.N,+5C*
X180975000Y-104140000D03*
G04 #@! TO.P,J4,4,Pin_4*
G04 #@! TO.N,Net-(J4-Pin_4)*
X180975000Y-101600000D03*
G04 #@! TO.P,J4,5,Pin_5*
G04 #@! TO.N,+5C*
X183515000Y-104140000D03*
G04 #@! TO.P,J4,6,Pin_6*
G04 #@! TO.N,Net-(J4-Pin_6)*
X183515000Y-101600000D03*
G04 #@! TO.P,J4,7,Pin_7*
G04 #@! TO.N,+5C*
X186055000Y-104140000D03*
G04 #@! TO.P,J4,8,Pin_8*
G04 #@! TO.N,Net-(J4-Pin_8)*
X186055000Y-101600000D03*
G04 #@! TD*
D11*
G04 #@! TO.P,J10,1,Pin_1*
G04 #@! TO.N,Net-(J10-Pin_1)*
X202565000Y-62230000D03*
D12*
G04 #@! TO.P,J10,2,Pin_2*
G04 #@! TO.N,Net-(J10-Pin_2)*
X202565000Y-64770000D03*
G04 #@! TO.P,J10,3,Pin_3*
G04 #@! TO.N,GND*
X202565000Y-67310000D03*
G04 #@! TD*
D10*
G04 #@! TO.P,C3,1*
G04 #@! TO.N,Net-(C3-Pad1)*
X147500000Y-59100000D03*
G04 #@! TO.P,C3,2*
G04 #@! TO.N,GND*
X147500000Y-66600000D03*
G04 #@! TD*
G04 #@! TO.P,R12,1*
G04 #@! TO.N,Net-(U1-IO13)*
X169545000Y-93570000D03*
G04 #@! TO.P,R12,2*
G04 #@! TO.N,Net-(J3-Pin_8)*
X169545000Y-96110000D03*
G04 #@! TD*
D11*
G04 #@! TO.P,J8,1,Pin_1*
G04 #@! TO.N,GND*
X178435000Y-106680000D03*
D12*
G04 #@! TO.P,J8,2,Pin_2*
X180975000Y-106680000D03*
G04 #@! TO.P,J8,3,Pin_3*
X183515000Y-106680000D03*
G04 #@! TO.P,J8,4,Pin_4*
X186055000Y-106680000D03*
G04 #@! TD*
D11*
G04 #@! TO.P,JP1,1,A*
G04 #@! TO.N,Net-(JP1-A)*
X197500000Y-58300000D03*
D12*
G04 #@! TO.P,JP1,2,B*
G04 #@! TO.N,Net-(J1-MOSI)*
X200040000Y-58300000D03*
G04 #@! TD*
D13*
G04 #@! TO.P,J1,1,GND*
G04 #@! TO.N,GND*
X174625000Y-79375000D03*
G04 #@! TO.P,J1,2,SCLK*
G04 #@! TO.N,Net-(J1-SCLK)*
X177165000Y-79375000D03*
G04 #@! TO.P,J1,3,INT*
G04 #@! TO.N,unconnected-(J1-INT-Pad3)*
X174625000Y-81915000D03*
G04 #@! TO.P,J1,4,SCS*
G04 #@! TO.N,Net-(J1-SCS)*
X177165000Y-81915000D03*
G04 #@! TO.P,J1,5,RST*
G04 #@! TO.N,Net-(J1-RST)*
X174625000Y-84455000D03*
G04 #@! TO.P,J1,6,MOSI*
G04 #@! TO.N,Net-(J1-MOSI)*
X177165000Y-84455000D03*
G04 #@! TO.P,J1,7,GND*
G04 #@! TO.N,GND*
X174625000Y-86995000D03*
G04 #@! TO.P,J1,8,MISO*
G04 #@! TO.N,Net-(J1-MISO)*
X177165000Y-86995000D03*
G04 #@! TO.P,J1,9,5V*
G04 #@! TO.N,+5V*
X174625000Y-89535000D03*
G04 #@! TO.P,J1,10,3.3V*
G04 #@! TO.N,unconnected-(J1-3.3V-Pad10)*
X177165000Y-89535000D03*
G04 #@! TD*
D10*
G04 #@! TO.P,R23,1*
G04 #@! TO.N,+3.3V*
X163195000Y-68580000D03*
G04 #@! TO.P,R23,2*
G04 #@! TO.N,Net-(U1-IO0)*
X165735000Y-68580000D03*
G04 #@! TD*
D14*
G04 #@! TO.P,C4,1*
G04 #@! TO.N,+5V*
X149860000Y-81280000D03*
D10*
G04 #@! TO.P,C4,2*
G04 #@! TO.N,GND*
X149860000Y-78780000D03*
G04 #@! TD*
G04 #@! TO.P,R9,1*
G04 #@! TO.N,Net-(U1-IO27)*
X160020000Y-93570000D03*
G04 #@! TO.P,R9,2*
G04 #@! TO.N,Net-(J3-Pin_2)*
X160020000Y-96110000D03*
G04 #@! TD*
D15*
G04 #@! TO.P,REF\u002A\u002A,1*
G04 #@! TO.N,N/C*
X130000000Y-105500000D03*
D16*
X130000000Y-105500000D03*
G04 #@! TD*
D10*
G04 #@! TO.P,R26,1*
G04 #@! TO.N,+3.3V*
X185200000Y-81700000D03*
G04 #@! TO.P,R26,2*
G04 #@! TO.N,Net-(U1-IO15)*
X187740000Y-81700000D03*
G04 #@! TD*
G04 #@! TO.P,R5,1*
G04 #@! TO.N,Net-(U1-IO32)*
X142240000Y-93570000D03*
G04 #@! TO.P,R5,2*
G04 #@! TO.N,Net-(J2-Pin_2)*
X142240000Y-96110000D03*
G04 #@! TD*
G04 #@! TO.P,R11,1*
G04 #@! TO.N,Net-(U1-IO12)*
X166380000Y-93570000D03*
G04 #@! TO.P,R11,2*
G04 #@! TO.N,Net-(J3-Pin_6)*
X166380000Y-96110000D03*
G04 #@! TD*
D17*
G04 #@! TO.P,C1,1*
G04 #@! TO.N,+5C*
X148842349Y-86995000D03*
D10*
G04 #@! TO.P,C1,2*
G04 #@! TO.N,GND*
X152342349Y-86995000D03*
G04 #@! TD*
G04 #@! TO.P,C2,1*
G04 #@! TO.N,Net-(C2-Pad1)*
X135890000Y-70485000D03*
G04 #@! TO.P,C2,2*
G04 #@! TO.N,GND*
X143390000Y-70485000D03*
G04 #@! TD*
G04 #@! TO.P,R13,1*
G04 #@! TO.N,Net-(U1-IO15)*
X177800000Y-93570000D03*
G04 #@! TO.P,R13,2*
G04 #@! TO.N,Net-(J4-Pin_2)*
X177800000Y-96110000D03*
G04 #@! TD*
G04 #@! TO.P,R21,1*
G04 #@! TO.N,Net-(U1-EN)*
X144500000Y-58400000D03*
G04 #@! TO.P,R21,2*
G04 #@! TO.N,Net-(C2-Pad1)*
X134340000Y-58400000D03*
G04 #@! TD*
D18*
G04 #@! TO.P,U1,39,GND*
G04 #@! TO.N,GND*
X181805000Y-62457500D03*
X181805000Y-63982500D03*
X182567500Y-61695000D03*
X182567500Y-63220000D03*
X182567500Y-64745000D03*
X183330000Y-62457500D03*
X183330000Y-63982500D03*
X184092500Y-61695000D03*
X184092500Y-63220000D03*
X184092500Y-64745000D03*
X184855000Y-62457500D03*
X184855000Y-63982500D03*
G04 #@! TD*
D10*
G04 #@! TO.P,R15,1*
G04 #@! TO.N,Net-(U1-IO0)*
X184150000Y-93570000D03*
G04 #@! TO.P,R15,2*
G04 #@! TO.N,Net-(J4-Pin_6)*
X184150000Y-96110000D03*
G04 #@! TD*
G04 #@! TO.P,R20,1*
G04 #@! TO.N,Net-(U1-IO22)*
X203860400Y-93570000D03*
G04 #@! TO.P,R20,2*
G04 #@! TO.N,Net-(J5-Pin_8)*
X203860400Y-96110000D03*
G04 #@! TD*
D19*
G04 #@! TO.P,J11,1,Pin_1*
G04 #@! TO.N,GND*
X138312500Y-79860000D03*
D20*
G04 #@! TO.P,J11,2,Pin_2*
G04 #@! TO.N,+5V*
X138312500Y-83820000D03*
G04 #@! TO.P,J11,3,Pin_3*
G04 #@! TO.N,+5C*
X138312500Y-87780000D03*
G04 #@! TD*
D10*
G04 #@! TO.P,R22,1*
G04 #@! TO.N,+3.3V*
X160600000Y-58500000D03*
G04 #@! TO.P,R22,2*
G04 #@! TO.N,Net-(U1-EN)*
X150440000Y-58500000D03*
G04 #@! TD*
D11*
G04 #@! TO.P,JP3,1,A*
G04 #@! TO.N,GND*
X163322000Y-75184000D03*
D12*
G04 #@! TO.P,JP3,2,B*
G04 #@! TO.N,Net-(JP3-B)*
X165862000Y-75184000D03*
G04 #@! TD*
D10*
G04 #@! TO.P,R10,1*
G04 #@! TO.N,Net-(U1-IO14)*
X163195000Y-93570000D03*
G04 #@! TO.P,R10,2*
G04 #@! TO.N,Net-(J3-Pin_4)*
X163195000Y-96110000D03*
G04 #@! TD*
D21*
G04 #@! TO.P,SW2,1,1*
G04 #@! TO.N,Net-(C3-Pad1)*
X152885000Y-61500000D03*
X159385000Y-61500000D03*
G04 #@! TO.P,SW2,2,2*
G04 #@! TO.N,GND*
X152885000Y-66000000D03*
X159385000Y-66000000D03*
G04 #@! TD*
D10*
G04 #@! TO.P,C6,1*
G04 #@! TO.N,+3.3V*
X158685000Y-75565000D03*
G04 #@! TO.P,C6,2*
G04 #@! TO.N,GND*
X153685000Y-75565000D03*
G04 #@! TD*
D11*
G04 #@! TO.P,J3,1,Pin_1*
G04 #@! TO.N,+5C*
X160655000Y-104140000D03*
D12*
G04 #@! TO.P,J3,2,Pin_2*
G04 #@! TO.N,Net-(J3-Pin_2)*
X160655000Y-101600000D03*
G04 #@! TO.P,J3,3,Pin_3*
G04 #@! TO.N,+5C*
X163195000Y-104140000D03*
G04 #@! TO.P,J3,4,Pin_4*
G04 #@! TO.N,Net-(J3-Pin_4)*
X163195000Y-101600000D03*
G04 #@! TO.P,J3,5,Pin_5*
G04 #@! TO.N,+5C*
X165735000Y-104140000D03*
G04 #@! TO.P,J3,6,Pin_6*
G04 #@! TO.N,Net-(J3-Pin_6)*
X165735000Y-101600000D03*
G04 #@! TO.P,J3,7,Pin_7*
G04 #@! TO.N,+5C*
X168275000Y-104140000D03*
G04 #@! TO.P,J3,8,Pin_8*
G04 #@! TO.N,Net-(J3-Pin_8)*
X168275000Y-101600000D03*
G04 #@! TD*
D11*
G04 #@! TO.P,J7,1,Pin_1*
G04 #@! TO.N,GND*
X160655000Y-106680000D03*
D12*
G04 #@! TO.P,J7,2,Pin_2*
X163195000Y-106680000D03*
G04 #@! TO.P,J7,3,Pin_3*
X165735000Y-106680000D03*
G04 #@! TO.P,J7,4,Pin_4*
X168275000Y-106680000D03*
G04 #@! TD*
D15*
G04 #@! TO.P,REF\u002A\u002A,1*
G04 #@! TO.N,N/C*
X211500000Y-58500000D03*
D16*
X211500000Y-58500000D03*
G04 #@! TD*
D10*
G04 #@! TO.P,R6,1*
G04 #@! TO.N,Net-(U1-IO33)*
X145415000Y-93570000D03*
G04 #@! TO.P,R6,2*
G04 #@! TO.N,Net-(J2-Pin_4)*
X145415000Y-96110000D03*
G04 #@! TD*
G04 #@! TO.P,R24,1*
G04 #@! TO.N,Net-(U1-IO0)*
X158750000Y-71000000D03*
G04 #@! TO.P,R24,2*
G04 #@! TO.N,Net-(C3-Pad1)*
X156210000Y-71000000D03*
G04 #@! TD*
D11*
G04 #@! TO.P,JP2,1,A*
G04 #@! TO.N,GND*
X163322000Y-71882000D03*
D12*
G04 #@! TO.P,JP2,2,B*
G04 #@! TO.N,Net-(JP2-B)*
X165862000Y-71882000D03*
G04 #@! TD*
D22*
G04 #@! TO.P,C5,1*
G04 #@! TO.N,+3.3V*
X151090000Y-70485000D03*
D10*
G04 #@! TO.P,C5,2*
G04 #@! TO.N,GND*
X148590000Y-70485000D03*
G04 #@! TD*
D11*
G04 #@! TO.P,J6,1,Pin_1*
G04 #@! TO.N,GND*
X142875000Y-106680000D03*
D12*
G04 #@! TO.P,J6,2,Pin_2*
X145415000Y-106680000D03*
G04 #@! TO.P,J6,3,Pin_3*
X147955000Y-106680000D03*
G04 #@! TO.P,J6,4,Pin_4*
X150495000Y-106680000D03*
G04 #@! TD*
D10*
G04 #@! TO.P,R27,1*
G04 #@! TO.N,Net-(J1-SCS)*
X187740000Y-84700000D03*
G04 #@! TO.P,R27,2*
G04 #@! TO.N,+3.3V*
X185200000Y-84700000D03*
G04 #@! TD*
D15*
G04 #@! TO.P,REF\u002A\u002A,1*
G04 #@! TO.N,N/C*
X130000000Y-58500000D03*
D16*
X130000000Y-58500000D03*
G04 #@! TD*
D10*
G04 #@! TO.P,R19,1*
G04 #@! TO.N,Net-(J10-Pin_2)*
X200660000Y-93570000D03*
G04 #@! TO.P,R19,2*
G04 #@! TO.N,Net-(J5-Pin_6)*
X200660000Y-96110000D03*
G04 #@! TD*
D23*
G04 #@! TO.P,D2,1,K*
G04 #@! TO.N,+5V*
X142240000Y-75565000D03*
D24*
G04 #@! TO.P,D2,2,A*
G04 #@! TO.N,+3.3V*
X149860000Y-75565000D03*
G04 #@! TD*
D10*
G04 #@! TO.P,R4,1*
G04 #@! TO.N,+3.3V*
X163195000Y-59055000D03*
G04 #@! TO.P,R4,2*
G04 #@! TO.N,Net-(J1-MISO)*
X165735000Y-59055000D03*
G04 #@! TD*
G04 #@! TO.P,R1,1*
G04 #@! TO.N,+3.3V*
X163195000Y-65405000D03*
G04 #@! TO.P,R1,2*
G04 #@! TO.N,Net-(JP2-B)*
X165735000Y-65405000D03*
G04 #@! TD*
G04 #@! TO.P,R2,1*
G04 #@! TO.N,+3.3V*
X163195000Y-62230000D03*
G04 #@! TO.P,R2,2*
G04 #@! TO.N,Net-(JP3-B)*
X165735000Y-62230000D03*
G04 #@! TD*
D25*
G04 #@! TO.P,D1,1,K*
G04 #@! TO.N,GND*
X202565000Y-74930000D03*
D26*
G04 #@! TO.P,D1,2,A*
G04 #@! TO.N,Net-(D1-A)*
X202565000Y-77470000D03*
G04 #@! TD*
D10*
G04 #@! TO.P,R18,1*
G04 #@! TO.N,Net-(U1-IO21)*
X197485000Y-93570000D03*
G04 #@! TO.P,R18,2*
G04 #@! TO.N,Net-(J5-Pin_4)*
X197485000Y-96110000D03*
G04 #@! TD*
D21*
G04 #@! TO.P,SW1,1,1*
G04 #@! TO.N,Net-(C2-Pad1)*
X135800000Y-61500000D03*
X142300000Y-61500000D03*
G04 #@! TO.P,SW1,2,2*
G04 #@! TO.N,GND*
X135800000Y-66000000D03*
X142300000Y-66000000D03*
G04 #@! TD*
D10*
G04 #@! TO.P,R16,1*
G04 #@! TO.N,Net-(U1-IO4)*
X187325000Y-93570000D03*
G04 #@! TO.P,R16,2*
G04 #@! TO.N,Net-(J4-Pin_8)*
X187325000Y-96110000D03*
G04 #@! TD*
G04 #@! TO.P,R8,1*
G04 #@! TO.N,Net-(U1-IO26)*
X151765000Y-93570000D03*
G04 #@! TO.P,R8,2*
G04 #@! TO.N,Net-(J2-Pin_8)*
X151765000Y-96110000D03*
G04 #@! TD*
G04 #@! TO.P,R7,1*
G04 #@! TO.N,Net-(U1-IO25)*
X148590000Y-93570000D03*
G04 #@! TO.P,R7,2*
G04 #@! TO.N,Net-(J2-Pin_6)*
X148590000Y-96110000D03*
G04 #@! TD*
D11*
G04 #@! TO.P,J9,1,Pin_1*
G04 #@! TO.N,GND*
X196215000Y-106680000D03*
D12*
G04 #@! TO.P,J9,2,Pin_2*
X198755000Y-106680000D03*
G04 #@! TO.P,J9,3,Pin_3*
X201295000Y-106680000D03*
G04 #@! TO.P,J9,4,Pin_4*
X203835000Y-106680000D03*
G04 #@! TD*
D11*
G04 #@! TO.P,J2,1,Pin_1*
G04 #@! TO.N,+5C*
X142875000Y-104140000D03*
D12*
G04 #@! TO.P,J2,2,Pin_2*
G04 #@! TO.N,Net-(J2-Pin_2)*
X142875000Y-101600000D03*
G04 #@! TO.P,J2,3,Pin_3*
G04 #@! TO.N,+5C*
X145415000Y-104140000D03*
G04 #@! TO.P,J2,4,Pin_4*
G04 #@! TO.N,Net-(J2-Pin_4)*
X145415000Y-101600000D03*
G04 #@! TO.P,J2,5,Pin_5*
G04 #@! TO.N,+5C*
X147955000Y-104140000D03*
G04 #@! TO.P,J2,6,Pin_6*
G04 #@! TO.N,Net-(J2-Pin_6)*
X147955000Y-101600000D03*
G04 #@! TO.P,J2,7,Pin_7*
G04 #@! TO.N,+5C*
X150495000Y-104140000D03*
G04 #@! TO.P,J2,8,Pin_8*
G04 #@! TO.N,Net-(J2-Pin_8)*
X150495000Y-101600000D03*
G04 #@! TD*
D10*
G04 #@! TO.P,R17,1*
G04 #@! TO.N,Net-(U1-IO19)*
X194310000Y-93570000D03*
G04 #@! TO.P,R17,2*
G04 #@! TO.N,Net-(J5-Pin_2)*
X194310000Y-96110000D03*
G04 #@! TD*
D15*
G04 #@! TO.P,REF\u002A\u002A,1*
G04 #@! TO.N,N/C*
X211500000Y-105500000D03*
D16*
X211500000Y-105500000D03*
G04 #@! TD*
D27*
G04 #@! TO.N,GND*
X181000000Y-76500000D03*
X187200000Y-78300000D03*
D28*
G04 #@! TO.N,+5V*
X154940000Y-86360000D03*
G04 #@! TO.N,Net-(J1-RST)*
X190500000Y-69850000D03*
G04 #@! TO.N,Net-(J1-SCLK)*
X190500000Y-66040000D03*
D27*
G04 #@! TO.N,Net-(J1-SCS)*
X190500000Y-68000000D03*
D28*
G04 #@! TO.N,Net-(U1-IO2)*
X192300000Y-80400000D03*
D27*
G04 #@! TO.N,Net-(U1-IO15)*
X188500000Y-75400000D03*
G04 #@! TD*
D29*
G04 #@! TO.N,GND*
X190400000Y-83100000D02*
X190400000Y-78200000D01*
X151145000Y-73025000D02*
X149225000Y-73025000D01*
X196215000Y-106680000D02*
X198755000Y-106680000D01*
X187200000Y-78300000D02*
X187300000Y-78200000D01*
X142875000Y-106680000D02*
X139065000Y-106680000D01*
X172720000Y-86995000D02*
X172085000Y-86360000D01*
X142875000Y-106680000D02*
X145415000Y-106680000D01*
X148400000Y-67000000D02*
X147700000Y-67000000D01*
X147955000Y-66555000D02*
X146745000Y-65345000D01*
X187300000Y-78200000D02*
X193800000Y-78200000D01*
X150991370Y-78780000D02*
X152342349Y-80130979D01*
X147500000Y-66600000D02*
X147545000Y-66555000D01*
X202565000Y-74930000D02*
X197070000Y-74930000D01*
X190400000Y-83300000D02*
X190400000Y-86800000D01*
X145415000Y-106680000D02*
X147955000Y-106680000D01*
X190400000Y-86800000D02*
X191300000Y-87700000D01*
X172085000Y-79375000D02*
X165100000Y-79375000D01*
X181000000Y-76500000D02*
X176000000Y-76500000D01*
X150495000Y-106680000D02*
X160655000Y-106680000D01*
D30*
X187840000Y-87600000D02*
X191200000Y-87600000D01*
D29*
X197070000Y-74930000D02*
X193800000Y-78200000D01*
X138312500Y-79860000D02*
X143065000Y-79860000D01*
X163195000Y-72263000D02*
X163195000Y-75057000D01*
X172085000Y-86360000D02*
X172085000Y-79375000D01*
D30*
X191200000Y-87600000D02*
X191300000Y-87700000D01*
D29*
X178435000Y-106680000D02*
X180975000Y-106680000D01*
X174625000Y-79375000D02*
X172085000Y-79375000D01*
X147955000Y-66555000D02*
X149165000Y-65345000D01*
X177165000Y-62865000D02*
X183515000Y-62865000D01*
X148590000Y-70485000D02*
X143390000Y-70485000D01*
X163195000Y-75311000D02*
X163322000Y-75184000D01*
X143065000Y-79860000D02*
X144145000Y-78780000D01*
X152885000Y-66000000D02*
X153480000Y-65405000D01*
X163195000Y-75057000D02*
X163322000Y-75184000D01*
X152885000Y-65405000D02*
X152885000Y-66000000D01*
X156210000Y-65405000D02*
X156210000Y-57785000D01*
X206375000Y-99100000D02*
X206375000Y-105410000D01*
X147545000Y-66555000D02*
X147955000Y-66555000D01*
X152360000Y-78780000D02*
X153685000Y-77455000D01*
X160655000Y-106680000D02*
X163195000Y-106680000D01*
X144145000Y-78780000D02*
X149860000Y-78780000D01*
X206375000Y-105410000D02*
X205105000Y-106680000D01*
X142315000Y-65405000D02*
X142315000Y-66000000D01*
X149225000Y-73025000D02*
X148590000Y-72390000D01*
X191300000Y-90100000D02*
X191300000Y-97300000D01*
X163322000Y-71882000D02*
X163322000Y-72136000D01*
X163195000Y-77470000D02*
X163195000Y-75311000D01*
X174625000Y-77875000D02*
X174625000Y-79375000D01*
X156210000Y-65405000D02*
X158790000Y-65405000D01*
X192200000Y-100000000D02*
X192200000Y-105880000D01*
X206375000Y-77470000D02*
X206375000Y-90100000D01*
X142315000Y-66000000D02*
X135815000Y-66000000D01*
X192200000Y-105880000D02*
X191400000Y-106680000D01*
X165100000Y-79375000D02*
X163195000Y-77470000D01*
X157696000Y-56299000D02*
X170599000Y-56299000D01*
X152342349Y-80130979D02*
X152342349Y-86995000D01*
X183515000Y-106680000D02*
X186055000Y-106680000D01*
X193100000Y-99100000D02*
X192200000Y-100000000D01*
X205105000Y-106680000D02*
X203835000Y-106680000D01*
X153685000Y-77455000D02*
X153685000Y-75565000D01*
X176000000Y-76500000D02*
X174625000Y-77875000D01*
X149165000Y-65345000D02*
X152825000Y-65345000D01*
X139045000Y-106700000D02*
X138300000Y-106700000D01*
X158790000Y-65405000D02*
X159385000Y-66000000D01*
X146745000Y-65345000D02*
X142375000Y-65345000D01*
X191400000Y-106680000D02*
X196215000Y-106680000D01*
X147500000Y-66800000D02*
X147500000Y-66600000D01*
X138300000Y-106700000D02*
X135255000Y-103655000D01*
X191300000Y-97300000D02*
X193100000Y-99100000D01*
X149860000Y-78780000D02*
X152360000Y-78780000D01*
X206375000Y-90100000D02*
X206375000Y-99100000D01*
X139065000Y-106680000D02*
X139045000Y-106700000D01*
X202565000Y-74930000D02*
X203835000Y-74930000D01*
X198755000Y-106680000D02*
X201295000Y-106680000D01*
X201295000Y-106680000D02*
X203835000Y-106680000D01*
X165735000Y-106680000D02*
X168275000Y-106680000D01*
X156210000Y-57785000D02*
X157696000Y-56299000D01*
X163322000Y-72136000D02*
X163195000Y-72263000D01*
X152825000Y-65345000D02*
X152885000Y-65405000D01*
X170599000Y-56299000D02*
X177165000Y-62865000D01*
X147955000Y-106680000D02*
X150495000Y-106680000D01*
X148590000Y-72390000D02*
X148590000Y-70485000D01*
X191300000Y-90100000D02*
X206375000Y-90100000D01*
X180975000Y-106680000D02*
X183515000Y-106680000D01*
X161885000Y-78780000D02*
X163195000Y-77470000D01*
X153685000Y-75565000D02*
X151145000Y-73025000D01*
X203835000Y-74930000D02*
X206375000Y-77470000D01*
X163195000Y-106680000D02*
X165735000Y-106680000D01*
X142375000Y-65345000D02*
X142315000Y-65405000D01*
X174625000Y-86995000D02*
X172720000Y-86995000D01*
X190300000Y-83200000D02*
X190400000Y-83300000D01*
X168275000Y-106680000D02*
X178435000Y-106680000D01*
X135255000Y-80645000D02*
X136040000Y-79860000D01*
X186055000Y-106680000D02*
X191400000Y-106680000D01*
X202565000Y-67310000D02*
X202565000Y-74930000D01*
X153480000Y-65405000D02*
X156210000Y-65405000D01*
X135255000Y-103655000D02*
X135255000Y-80645000D01*
X148590000Y-70485000D02*
X148590000Y-67190000D01*
X149860000Y-78780000D02*
X150991370Y-78780000D01*
X191300000Y-87700000D02*
X191300000Y-90100000D01*
X152360000Y-78780000D02*
X161885000Y-78780000D01*
X148590000Y-67190000D02*
X148400000Y-67000000D01*
X193100000Y-99100000D02*
X206375000Y-99100000D01*
X136040000Y-79860000D02*
X138312500Y-79860000D01*
X147700000Y-67000000D02*
X147500000Y-66800000D01*
G04 #@! TO.N,+5C*
X138312500Y-98800000D02*
X138312500Y-87780000D01*
X142875000Y-104140000D02*
X140640000Y-104140000D01*
X183515000Y-104140000D02*
X186055000Y-104140000D01*
X139097500Y-86995000D02*
X138312500Y-87780000D01*
X138300000Y-101800000D02*
X138312500Y-101787500D01*
X150495000Y-104140000D02*
X155200000Y-104140000D01*
X138312500Y-98800000D02*
X173300000Y-98800000D01*
X147955000Y-104140000D02*
X145415000Y-104140000D01*
X188700000Y-103940000D02*
X188500000Y-104140000D01*
X150495000Y-104140000D02*
X147955000Y-104140000D01*
X198755000Y-104140000D02*
X201295000Y-104140000D01*
X188500000Y-104140000D02*
X186055000Y-104140000D01*
X173300000Y-104140000D02*
X178435000Y-104140000D01*
X160655000Y-104140000D02*
X163195000Y-104140000D01*
X150700000Y-89700000D02*
X153800000Y-89700000D01*
X201295000Y-104140000D02*
X203835000Y-104140000D01*
X148842349Y-86995000D02*
X148842349Y-88242349D01*
X148842349Y-86995000D02*
X139097500Y-86995000D01*
X188700000Y-98800000D02*
X188700000Y-103940000D01*
X168275000Y-104140000D02*
X173300000Y-104140000D01*
X148842349Y-88242349D02*
X150500000Y-89900000D01*
X155200000Y-104140000D02*
X160655000Y-104140000D01*
X145415000Y-104140000D02*
X142875000Y-104140000D01*
X138312500Y-101787500D02*
X138312500Y-98800000D01*
X196215000Y-104140000D02*
X198755000Y-104140000D01*
X153800000Y-89700000D02*
X155400000Y-91300000D01*
X178435000Y-104140000D02*
X180975000Y-104140000D01*
X163195000Y-104140000D02*
X165735000Y-104140000D01*
X140640000Y-104140000D02*
X138300000Y-101800000D01*
X150500000Y-89900000D02*
X150700000Y-89700000D01*
X173300000Y-98800000D02*
X188700000Y-98800000D01*
X155400000Y-103940000D02*
X155200000Y-104140000D01*
X173300000Y-104140000D02*
X173300000Y-98800000D01*
X180975000Y-104140000D02*
X183515000Y-104140000D01*
X165735000Y-104140000D02*
X168275000Y-104140000D01*
X155400000Y-91300000D02*
X155400000Y-103940000D01*
D31*
G04 #@! TO.N,Net-(D1-A)*
X202565000Y-77470000D02*
X202565000Y-80645000D01*
D29*
G04 #@! TO.N,+5V*
X155500000Y-86900000D02*
X155480000Y-86900000D01*
X147360000Y-83780000D02*
X149860000Y-81280000D01*
X144105000Y-83820000D02*
X144145000Y-83780000D01*
X158135000Y-89535000D02*
X155500000Y-86900000D01*
X155480000Y-86900000D02*
X154940000Y-86360000D01*
X174625000Y-89535000D02*
X158135000Y-89535000D01*
X138312500Y-83820000D02*
X144105000Y-83820000D01*
X144145000Y-83780000D02*
X147360000Y-83780000D01*
G04 #@! TO.N,+3.3V*
X163195000Y-68580000D02*
X163195000Y-65405000D01*
X163195000Y-62230000D02*
X163195000Y-59055000D01*
X163115000Y-68500000D02*
X163195000Y-68580000D01*
X161925000Y-59055000D02*
X161370000Y-58500000D01*
X151090000Y-70485000D02*
X153075000Y-68500000D01*
X153075000Y-68500000D02*
X163115000Y-68500000D01*
X161370000Y-58500000D02*
X160600000Y-58500000D01*
X163195000Y-59055000D02*
X161925000Y-59055000D01*
X163195000Y-65405000D02*
X163195000Y-62230000D01*
D31*
G04 #@! TO.N,Net-(J1-RST)*
X190450000Y-69850000D02*
X190500000Y-69850000D01*
X184200000Y-77500000D02*
X184200000Y-76100000D01*
X184200000Y-76100000D02*
X190450000Y-69850000D01*
X178515000Y-83185000D02*
X184200000Y-77500000D01*
X175895000Y-83185000D02*
X178515000Y-83185000D01*
X174625000Y-84455000D02*
X175895000Y-83185000D01*
G04 #@! TO.N,Net-(J1-MOSI)*
X178445000Y-84455000D02*
X177165000Y-84455000D01*
X198120000Y-63580000D02*
X185000000Y-76700000D01*
X198120000Y-60325000D02*
X198120000Y-63580000D01*
X185000000Y-77900000D02*
X178445000Y-84455000D01*
X200025000Y-58420000D02*
X198120000Y-60325000D01*
X185000000Y-76700000D02*
X185000000Y-77900000D01*
D30*
G04 #@! TO.N,Net-(J1-SCLK)*
X182700000Y-76900000D02*
X182700000Y-74500000D01*
X177165000Y-79375000D02*
X177825000Y-79375000D01*
X190500000Y-66700000D02*
X190500000Y-66040000D01*
X181600000Y-78000000D02*
X182700000Y-76900000D01*
X177825000Y-79375000D02*
X179200000Y-78000000D01*
X179200000Y-78000000D02*
X181600000Y-78000000D01*
X182700000Y-74500000D02*
X190500000Y-66700000D01*
G04 #@! TO.N,Net-(J1-SCS)*
X190126793Y-68949000D02*
X190151000Y-68949000D01*
X190500000Y-68600000D02*
X190500000Y-68000000D01*
X183400000Y-77200000D02*
X183400000Y-75675793D01*
X183400000Y-75675793D02*
X190126793Y-68949000D01*
X177165000Y-81915000D02*
X178685000Y-81915000D01*
X178685000Y-81915000D02*
X183400000Y-77200000D01*
X190151000Y-68949000D02*
X190500000Y-68600000D01*
D31*
G04 #@! TO.N,Net-(JP2-B)*
X167005000Y-66675000D02*
X165735000Y-65405000D01*
X166116000Y-72136000D02*
X166624000Y-72136000D01*
X167005000Y-71755000D02*
X167005000Y-66675000D01*
X166624000Y-72136000D02*
X167005000Y-71755000D01*
G04 #@! TO.N,Net-(JP3-B)*
X167386000Y-75184000D02*
X167606000Y-74964000D01*
X167606000Y-74964000D02*
X167606000Y-64101000D01*
X167606000Y-64101000D02*
X165735000Y-62230000D01*
X165862000Y-75184000D02*
X167386000Y-75184000D01*
D30*
G04 #@! TO.N,Net-(U1-IO2)*
X192300000Y-80400000D02*
X192545000Y-80645000D01*
X192545000Y-80645000D02*
X200025000Y-80645000D01*
G04 #@! TO.N,Net-(U1-IO15)*
X178700000Y-91900000D02*
X178700000Y-85300000D01*
X187500000Y-75400000D02*
X188500000Y-75400000D01*
X185800000Y-78200000D02*
X185800000Y-77100000D01*
X178600000Y-92770000D02*
X178600000Y-92000000D01*
X178600000Y-92000000D02*
X178700000Y-91900000D01*
X178700000Y-85300000D02*
X185800000Y-78200000D01*
X177800000Y-93570000D02*
X178600000Y-92770000D01*
X185800000Y-77100000D02*
X187500000Y-75400000D01*
D31*
G04 #@! TO.N,Net-(U1-IO0)*
X159131000Y-70104000D02*
X158750000Y-70485000D01*
X165735000Y-68580000D02*
X164211000Y-70104000D01*
X164211000Y-70104000D02*
X159131000Y-70104000D01*
G04 #@! TO.N,Net-(U1-EN)*
X144600000Y-58500000D02*
X144500000Y-58400000D01*
X145415000Y-58500000D02*
X144600000Y-58500000D01*
X150440000Y-58500000D02*
X150440000Y-58445000D01*
X150440000Y-58445000D02*
X149780000Y-57785000D01*
X146130000Y-57785000D02*
X145415000Y-58500000D01*
X149780000Y-57785000D02*
X146130000Y-57785000D01*
G04 #@! TO.N,Net-(C2-Pad1)*
X134740000Y-58400000D02*
X134340000Y-58400000D01*
X135815000Y-60885000D02*
X135255000Y-60325000D01*
X135255000Y-60325000D02*
X135255000Y-58915000D01*
X133985000Y-68580000D02*
X133985000Y-62735000D01*
X135815000Y-61500000D02*
X142315000Y-61500000D01*
X135255000Y-58915000D02*
X134740000Y-58400000D01*
X133985000Y-62735000D02*
X135220000Y-61500000D01*
X135890000Y-70485000D02*
X133985000Y-68580000D01*
G04 #@! TO.N,Net-(C3-Pad1)*
X147555000Y-59100000D02*
X147500000Y-59100000D01*
X149955000Y-61500000D02*
X147555000Y-59100000D01*
X152290000Y-61500000D02*
X149955000Y-61500000D01*
G04 #@! TD*
G04 #@! TA.AperFunction,Conductor*
G04 #@! TO.N,GND*
G36*
X191043039Y-56219685D02*
G01*
X191088794Y-56272489D01*
X191100000Y-56324000D01*
X191100000Y-64876000D01*
X191080315Y-64943039D01*
X191027511Y-64988794D01*
X190976000Y-65000000D01*
X189500000Y-65000000D01*
X189500000Y-66648638D01*
X189480315Y-66715677D01*
X189463681Y-66736319D01*
X184136319Y-72063681D01*
X184074996Y-72097166D01*
X184048638Y-72100000D01*
X177424000Y-72100000D01*
X177356961Y-72080315D01*
X177311206Y-72027511D01*
X177300000Y-71976000D01*
X177300000Y-56324000D01*
X177319685Y-56256961D01*
X177372489Y-56211206D01*
X177424000Y-56200000D01*
X190976000Y-56200000D01*
X191043039Y-56219685D01*
G37*
G04 #@! TD.AperFunction*
G04 #@! TD*
M02*
