G04 #@! TF.GenerationSoftware,KiCad,Pcbnew,9.0.6*
G04 #@! TF.CreationDate,2026-01-30T16:54:02+01:00*
G04 #@! TF.ProjectId,ESP32_PWM_PCB_large,45535033-325f-4505-974d-5f5043425f6c,1.0*
G04 #@! TF.SameCoordinates,Original*
G04 #@! TF.FileFunction,Legend,Top*
G04 #@! TF.FilePolarity,Positive*
%FSLAX46Y46*%
G04 Gerber Fmt 4.6, Leading zero omitted, Abs format (unit mm)*
G04 Created by KiCad (PCBNEW 9.0.6) date 2026-01-30 16:54:02*
%MOMM*%
%LPD*%
G01*
G04 APERTURE LIST*
G04 Aperture macros list*
%AMRoundRect*
0 Rectangle with rounded corners*
0 $1 Rounding radius*
0 $2 $3 $4 $5 $6 $7 $8 $9 X,Y pos of 4 corners*
0 Add a 4 corners polygon primitive as box body*
4,1,4,$2,$3,$4,$5,$6,$7,$8,$9,$2,$3,0*
0 Add four circle primitives for the rounded corners*
1,1,$1+$1,$2,$3*
1,1,$1+$1,$4,$5*
1,1,$1+$1,$6,$7*
1,1,$1+$1,$8,$9*
0 Add four rect primitives between the rounded corners*
20,1,$1+$1,$2,$3,$4,$5,0*
20,1,$1+$1,$4,$5,$6,$7,0*
20,1,$1+$1,$6,$7,$8,$9,0*
20,1,$1+$1,$8,$9,$2,$3,0*%
G04 Aperture macros list end*
%ADD10C,0.100000*%
%ADD11C,0.150000*%
%ADD12C,0.120000*%
%ADD13C,1.600000*%
%ADD14R,1.700000X1.700000*%
%ADD15C,1.700000*%
%ADD16RoundRect,0.236220X-0.513780X-0.513780X0.513780X-0.513780X0.513780X0.513780X-0.513780X0.513780X0*%
%ADD17RoundRect,0.250000X0.550000X-0.550000X0.550000X0.550000X-0.550000X0.550000X-0.550000X-0.550000X0*%
%ADD18C,3.600000*%
%ADD19C,5.600000*%
%ADD20RoundRect,0.250000X-0.550000X-0.550000X0.550000X-0.550000X0.550000X0.550000X-0.550000X0.550000X0*%
%ADD21R,1.500000X0.900000*%
%ADD22R,0.900000X1.500000*%
%ADD23C,0.600000*%
%ADD24R,4.200000X4.200000*%
%ADD25RoundRect,0.250001X-0.949999X0.949999X-0.949999X-0.949999X0.949999X-0.949999X0.949999X0.949999X0*%
%ADD26C,2.400000*%
%ADD27RoundRect,0.375000X-0.625000X-0.375000X0.625000X-0.375000X0.625000X0.375000X-0.625000X0.375000X0*%
%ADD28RoundRect,0.500000X-0.500000X-1.400000X0.500000X-1.400000X0.500000X1.400000X-0.500000X1.400000X0*%
%ADD29C,2.000000*%
%ADD30RoundRect,0.250000X0.550000X0.550000X-0.550000X0.550000X-0.550000X-0.550000X0.550000X-0.550000X0*%
%ADD31RoundRect,0.249999X-0.850001X-0.850001X0.850001X-0.850001X0.850001X0.850001X-0.850001X0.850001X0*%
%ADD32C,2.200000*%
%ADD33R,1.800000X1.800000*%
%ADD34C,1.800000*%
G04 APERTURE END LIST*
D10*
X129908646Y-91152531D02*
X130527693Y-91152531D01*
X130527693Y-91152531D02*
X130194360Y-91533483D01*
X130194360Y-91533483D02*
X130337217Y-91533483D01*
X130337217Y-91533483D02*
X130432455Y-91581102D01*
X130432455Y-91581102D02*
X130480074Y-91628721D01*
X130480074Y-91628721D02*
X130527693Y-91723959D01*
X130527693Y-91723959D02*
X130527693Y-91962054D01*
X130527693Y-91962054D02*
X130480074Y-92057292D01*
X130480074Y-92057292D02*
X130432455Y-92104912D01*
X130432455Y-92104912D02*
X130337217Y-92152531D01*
X130337217Y-92152531D02*
X130051503Y-92152531D01*
X130051503Y-92152531D02*
X129956265Y-92104912D01*
X129956265Y-92104912D02*
X129908646Y-92057292D01*
X131146741Y-91152531D02*
X131241979Y-91152531D01*
X131241979Y-91152531D02*
X131337217Y-91200150D01*
X131337217Y-91200150D02*
X131384836Y-91247769D01*
X131384836Y-91247769D02*
X131432455Y-91343007D01*
X131432455Y-91343007D02*
X131480074Y-91533483D01*
X131480074Y-91533483D02*
X131480074Y-91771578D01*
X131480074Y-91771578D02*
X131432455Y-91962054D01*
X131432455Y-91962054D02*
X131384836Y-92057292D01*
X131384836Y-92057292D02*
X131337217Y-92104912D01*
X131337217Y-92104912D02*
X131241979Y-92152531D01*
X131241979Y-92152531D02*
X131146741Y-92152531D01*
X131146741Y-92152531D02*
X131051503Y-92104912D01*
X131051503Y-92104912D02*
X131003884Y-92057292D01*
X131003884Y-92057292D02*
X130956265Y-91962054D01*
X130956265Y-91962054D02*
X130908646Y-91771578D01*
X130908646Y-91771578D02*
X130908646Y-91533483D01*
X130908646Y-91533483D02*
X130956265Y-91343007D01*
X130956265Y-91343007D02*
X131003884Y-91247769D01*
X131003884Y-91247769D02*
X131051503Y-91200150D01*
X131051503Y-91200150D02*
X131146741Y-91152531D01*
X131908646Y-92057292D02*
X131956265Y-92104912D01*
X131956265Y-92104912D02*
X131908646Y-92152531D01*
X131908646Y-92152531D02*
X131861027Y-92104912D01*
X131861027Y-92104912D02*
X131908646Y-92057292D01*
X131908646Y-92057292D02*
X131908646Y-92152531D01*
X132575312Y-91152531D02*
X132670550Y-91152531D01*
X132670550Y-91152531D02*
X132765788Y-91200150D01*
X132765788Y-91200150D02*
X132813407Y-91247769D01*
X132813407Y-91247769D02*
X132861026Y-91343007D01*
X132861026Y-91343007D02*
X132908645Y-91533483D01*
X132908645Y-91533483D02*
X132908645Y-91771578D01*
X132908645Y-91771578D02*
X132861026Y-91962054D01*
X132861026Y-91962054D02*
X132813407Y-92057292D01*
X132813407Y-92057292D02*
X132765788Y-92104912D01*
X132765788Y-92104912D02*
X132670550Y-92152531D01*
X132670550Y-92152531D02*
X132575312Y-92152531D01*
X132575312Y-92152531D02*
X132480074Y-92104912D01*
X132480074Y-92104912D02*
X132432455Y-92057292D01*
X132432455Y-92057292D02*
X132384836Y-91962054D01*
X132384836Y-91962054D02*
X132337217Y-91771578D01*
X132337217Y-91771578D02*
X132337217Y-91533483D01*
X132337217Y-91533483D02*
X132384836Y-91343007D01*
X132384836Y-91343007D02*
X132432455Y-91247769D01*
X132432455Y-91247769D02*
X132480074Y-91200150D01*
X132480074Y-91200150D02*
X132575312Y-91152531D01*
X133861026Y-92152531D02*
X133289598Y-92152531D01*
X133575312Y-92152531D02*
X133575312Y-91152531D01*
X133575312Y-91152531D02*
X133480074Y-91295388D01*
X133480074Y-91295388D02*
X133384836Y-91390626D01*
X133384836Y-91390626D02*
X133289598Y-91438245D01*
X134289598Y-92057292D02*
X134337217Y-92104912D01*
X134337217Y-92104912D02*
X134289598Y-92152531D01*
X134289598Y-92152531D02*
X134241979Y-92104912D01*
X134241979Y-92104912D02*
X134289598Y-92057292D01*
X134289598Y-92057292D02*
X134289598Y-92152531D01*
X134718169Y-91247769D02*
X134765788Y-91200150D01*
X134765788Y-91200150D02*
X134861026Y-91152531D01*
X134861026Y-91152531D02*
X135099121Y-91152531D01*
X135099121Y-91152531D02*
X135194359Y-91200150D01*
X135194359Y-91200150D02*
X135241978Y-91247769D01*
X135241978Y-91247769D02*
X135289597Y-91343007D01*
X135289597Y-91343007D02*
X135289597Y-91438245D01*
X135289597Y-91438245D02*
X135241978Y-91581102D01*
X135241978Y-91581102D02*
X134670550Y-92152531D01*
X134670550Y-92152531D02*
X135289597Y-92152531D01*
X135908645Y-91152531D02*
X136003883Y-91152531D01*
X136003883Y-91152531D02*
X136099121Y-91200150D01*
X136099121Y-91200150D02*
X136146740Y-91247769D01*
X136146740Y-91247769D02*
X136194359Y-91343007D01*
X136194359Y-91343007D02*
X136241978Y-91533483D01*
X136241978Y-91533483D02*
X136241978Y-91771578D01*
X136241978Y-91771578D02*
X136194359Y-91962054D01*
X136194359Y-91962054D02*
X136146740Y-92057292D01*
X136146740Y-92057292D02*
X136099121Y-92104912D01*
X136099121Y-92104912D02*
X136003883Y-92152531D01*
X136003883Y-92152531D02*
X135908645Y-92152531D01*
X135908645Y-92152531D02*
X135813407Y-92104912D01*
X135813407Y-92104912D02*
X135765788Y-92057292D01*
X135765788Y-92057292D02*
X135718169Y-91962054D01*
X135718169Y-91962054D02*
X135670550Y-91771578D01*
X135670550Y-91771578D02*
X135670550Y-91533483D01*
X135670550Y-91533483D02*
X135718169Y-91343007D01*
X135718169Y-91343007D02*
X135765788Y-91247769D01*
X135765788Y-91247769D02*
X135813407Y-91200150D01*
X135813407Y-91200150D02*
X135908645Y-91152531D01*
X136622931Y-91247769D02*
X136670550Y-91200150D01*
X136670550Y-91200150D02*
X136765788Y-91152531D01*
X136765788Y-91152531D02*
X137003883Y-91152531D01*
X137003883Y-91152531D02*
X137099121Y-91200150D01*
X137099121Y-91200150D02*
X137146740Y-91247769D01*
X137146740Y-91247769D02*
X137194359Y-91343007D01*
X137194359Y-91343007D02*
X137194359Y-91438245D01*
X137194359Y-91438245D02*
X137146740Y-91581102D01*
X137146740Y-91581102D02*
X136575312Y-92152531D01*
X136575312Y-92152531D02*
X137194359Y-92152531D01*
X138051502Y-91152531D02*
X137861026Y-91152531D01*
X137861026Y-91152531D02*
X137765788Y-91200150D01*
X137765788Y-91200150D02*
X137718169Y-91247769D01*
X137718169Y-91247769D02*
X137622931Y-91390626D01*
X137622931Y-91390626D02*
X137575312Y-91581102D01*
X137575312Y-91581102D02*
X137575312Y-91962054D01*
X137575312Y-91962054D02*
X137622931Y-92057292D01*
X137622931Y-92057292D02*
X137670550Y-92104912D01*
X137670550Y-92104912D02*
X137765788Y-92152531D01*
X137765788Y-92152531D02*
X137956264Y-92152531D01*
X137956264Y-92152531D02*
X138051502Y-92104912D01*
X138051502Y-92104912D02*
X138099121Y-92057292D01*
X138099121Y-92057292D02*
X138146740Y-91962054D01*
X138146740Y-91962054D02*
X138146740Y-91723959D01*
X138146740Y-91723959D02*
X138099121Y-91628721D01*
X138099121Y-91628721D02*
X138051502Y-91581102D01*
X138051502Y-91581102D02*
X137956264Y-91533483D01*
X137956264Y-91533483D02*
X137765788Y-91533483D01*
X137765788Y-91533483D02*
X137670550Y-91581102D01*
X137670550Y-91581102D02*
X137622931Y-91628721D01*
X137622931Y-91628721D02*
X137575312Y-91723959D01*
X129861027Y-92762475D02*
X130194360Y-93762475D01*
X130194360Y-93762475D02*
X130527693Y-92762475D01*
X131241979Y-93714856D02*
X131146741Y-93762475D01*
X131146741Y-93762475D02*
X130956265Y-93762475D01*
X130956265Y-93762475D02*
X130861027Y-93714856D01*
X130861027Y-93714856D02*
X130813408Y-93619617D01*
X130813408Y-93619617D02*
X130813408Y-93238665D01*
X130813408Y-93238665D02*
X130861027Y-93143427D01*
X130861027Y-93143427D02*
X130956265Y-93095808D01*
X130956265Y-93095808D02*
X131146741Y-93095808D01*
X131146741Y-93095808D02*
X131241979Y-93143427D01*
X131241979Y-93143427D02*
X131289598Y-93238665D01*
X131289598Y-93238665D02*
X131289598Y-93333903D01*
X131289598Y-93333903D02*
X130813408Y-93429141D01*
X131718170Y-93762475D02*
X131718170Y-93095808D01*
X131718170Y-93286284D02*
X131765789Y-93191046D01*
X131765789Y-93191046D02*
X131813408Y-93143427D01*
X131813408Y-93143427D02*
X131908646Y-93095808D01*
X131908646Y-93095808D02*
X132003884Y-93095808D01*
X132289599Y-93714856D02*
X132384837Y-93762475D01*
X132384837Y-93762475D02*
X132575313Y-93762475D01*
X132575313Y-93762475D02*
X132670551Y-93714856D01*
X132670551Y-93714856D02*
X132718170Y-93619617D01*
X132718170Y-93619617D02*
X132718170Y-93571998D01*
X132718170Y-93571998D02*
X132670551Y-93476760D01*
X132670551Y-93476760D02*
X132575313Y-93429141D01*
X132575313Y-93429141D02*
X132432456Y-93429141D01*
X132432456Y-93429141D02*
X132337218Y-93381522D01*
X132337218Y-93381522D02*
X132289599Y-93286284D01*
X132289599Y-93286284D02*
X132289599Y-93238665D01*
X132289599Y-93238665D02*
X132337218Y-93143427D01*
X132337218Y-93143427D02*
X132432456Y-93095808D01*
X132432456Y-93095808D02*
X132575313Y-93095808D01*
X132575313Y-93095808D02*
X132670551Y-93143427D01*
X133146742Y-93762475D02*
X133146742Y-93095808D01*
X133146742Y-92762475D02*
X133099123Y-92810094D01*
X133099123Y-92810094D02*
X133146742Y-92857713D01*
X133146742Y-92857713D02*
X133194361Y-92810094D01*
X133194361Y-92810094D02*
X133146742Y-92762475D01*
X133146742Y-92762475D02*
X133146742Y-92857713D01*
X133765789Y-93762475D02*
X133670551Y-93714856D01*
X133670551Y-93714856D02*
X133622932Y-93667236D01*
X133622932Y-93667236D02*
X133575313Y-93571998D01*
X133575313Y-93571998D02*
X133575313Y-93286284D01*
X133575313Y-93286284D02*
X133622932Y-93191046D01*
X133622932Y-93191046D02*
X133670551Y-93143427D01*
X133670551Y-93143427D02*
X133765789Y-93095808D01*
X133765789Y-93095808D02*
X133908646Y-93095808D01*
X133908646Y-93095808D02*
X134003884Y-93143427D01*
X134003884Y-93143427D02*
X134051503Y-93191046D01*
X134051503Y-93191046D02*
X134099122Y-93286284D01*
X134099122Y-93286284D02*
X134099122Y-93571998D01*
X134099122Y-93571998D02*
X134051503Y-93667236D01*
X134051503Y-93667236D02*
X134003884Y-93714856D01*
X134003884Y-93714856D02*
X133908646Y-93762475D01*
X133908646Y-93762475D02*
X133765789Y-93762475D01*
X134527694Y-93095808D02*
X134527694Y-93762475D01*
X134527694Y-93191046D02*
X134575313Y-93143427D01*
X134575313Y-93143427D02*
X134670551Y-93095808D01*
X134670551Y-93095808D02*
X134813408Y-93095808D01*
X134813408Y-93095808D02*
X134908646Y-93143427D01*
X134908646Y-93143427D02*
X134956265Y-93238665D01*
X134956265Y-93238665D02*
X134956265Y-93762475D01*
X136718170Y-93762475D02*
X136146742Y-93762475D01*
X136432456Y-93762475D02*
X136432456Y-92762475D01*
X136432456Y-92762475D02*
X136337218Y-92905332D01*
X136337218Y-92905332D02*
X136241980Y-93000570D01*
X136241980Y-93000570D02*
X136146742Y-93048189D01*
X137146742Y-93667236D02*
X137194361Y-93714856D01*
X137194361Y-93714856D02*
X137146742Y-93762475D01*
X137146742Y-93762475D02*
X137099123Y-93714856D01*
X137099123Y-93714856D02*
X137146742Y-93667236D01*
X137146742Y-93667236D02*
X137146742Y-93762475D01*
X137813408Y-92762475D02*
X137908646Y-92762475D01*
X137908646Y-92762475D02*
X138003884Y-92810094D01*
X138003884Y-92810094D02*
X138051503Y-92857713D01*
X138051503Y-92857713D02*
X138099122Y-92952951D01*
X138099122Y-92952951D02*
X138146741Y-93143427D01*
X138146741Y-93143427D02*
X138146741Y-93381522D01*
X138146741Y-93381522D02*
X138099122Y-93571998D01*
X138099122Y-93571998D02*
X138051503Y-93667236D01*
X138051503Y-93667236D02*
X138003884Y-93714856D01*
X138003884Y-93714856D02*
X137908646Y-93762475D01*
X137908646Y-93762475D02*
X137813408Y-93762475D01*
X137813408Y-93762475D02*
X137718170Y-93714856D01*
X137718170Y-93714856D02*
X137670551Y-93667236D01*
X137670551Y-93667236D02*
X137622932Y-93571998D01*
X137622932Y-93571998D02*
X137575313Y-93381522D01*
X137575313Y-93381522D02*
X137575313Y-93143427D01*
X137575313Y-93143427D02*
X137622932Y-92952951D01*
X137622932Y-92952951D02*
X137670551Y-92857713D01*
X137670551Y-92857713D02*
X137718170Y-92810094D01*
X137718170Y-92810094D02*
X137813408Y-92762475D01*
X130575312Y-95277180D02*
X130527693Y-95324800D01*
X130527693Y-95324800D02*
X130384836Y-95372419D01*
X130384836Y-95372419D02*
X130289598Y-95372419D01*
X130289598Y-95372419D02*
X130146741Y-95324800D01*
X130146741Y-95324800D02*
X130051503Y-95229561D01*
X130051503Y-95229561D02*
X130003884Y-95134323D01*
X130003884Y-95134323D02*
X129956265Y-94943847D01*
X129956265Y-94943847D02*
X129956265Y-94800990D01*
X129956265Y-94800990D02*
X130003884Y-94610514D01*
X130003884Y-94610514D02*
X130051503Y-94515276D01*
X130051503Y-94515276D02*
X130146741Y-94420038D01*
X130146741Y-94420038D02*
X130289598Y-94372419D01*
X130289598Y-94372419D02*
X130384836Y-94372419D01*
X130384836Y-94372419D02*
X130527693Y-94420038D01*
X130527693Y-94420038D02*
X130575312Y-94467657D01*
X131146741Y-95372419D02*
X131051503Y-95324800D01*
X131051503Y-95324800D02*
X131003884Y-95277180D01*
X131003884Y-95277180D02*
X130956265Y-95181942D01*
X130956265Y-95181942D02*
X130956265Y-94896228D01*
X130956265Y-94896228D02*
X131003884Y-94800990D01*
X131003884Y-94800990D02*
X131051503Y-94753371D01*
X131051503Y-94753371D02*
X131146741Y-94705752D01*
X131146741Y-94705752D02*
X131289598Y-94705752D01*
X131289598Y-94705752D02*
X131384836Y-94753371D01*
X131384836Y-94753371D02*
X131432455Y-94800990D01*
X131432455Y-94800990D02*
X131480074Y-94896228D01*
X131480074Y-94896228D02*
X131480074Y-95181942D01*
X131480074Y-95181942D02*
X131432455Y-95277180D01*
X131432455Y-95277180D02*
X131384836Y-95324800D01*
X131384836Y-95324800D02*
X131289598Y-95372419D01*
X131289598Y-95372419D02*
X131146741Y-95372419D01*
X131908646Y-94705752D02*
X131908646Y-95372419D01*
X131908646Y-94800990D02*
X131956265Y-94753371D01*
X131956265Y-94753371D02*
X132051503Y-94705752D01*
X132051503Y-94705752D02*
X132194360Y-94705752D01*
X132194360Y-94705752D02*
X132289598Y-94753371D01*
X132289598Y-94753371D02*
X132337217Y-94848609D01*
X132337217Y-94848609D02*
X132337217Y-95372419D01*
X132718170Y-94705752D02*
X132956265Y-95372419D01*
X132956265Y-95372419D02*
X133194360Y-94705752D01*
X133956265Y-95324800D02*
X133861027Y-95372419D01*
X133861027Y-95372419D02*
X133670551Y-95372419D01*
X133670551Y-95372419D02*
X133575313Y-95324800D01*
X133575313Y-95324800D02*
X133527694Y-95229561D01*
X133527694Y-95229561D02*
X133527694Y-94848609D01*
X133527694Y-94848609D02*
X133575313Y-94753371D01*
X133575313Y-94753371D02*
X133670551Y-94705752D01*
X133670551Y-94705752D02*
X133861027Y-94705752D01*
X133861027Y-94705752D02*
X133956265Y-94753371D01*
X133956265Y-94753371D02*
X134003884Y-94848609D01*
X134003884Y-94848609D02*
X134003884Y-94943847D01*
X134003884Y-94943847D02*
X133527694Y-95039085D01*
X134432456Y-94705752D02*
X134432456Y-95372419D01*
X134432456Y-94800990D02*
X134480075Y-94753371D01*
X134480075Y-94753371D02*
X134575313Y-94705752D01*
X134575313Y-94705752D02*
X134718170Y-94705752D01*
X134718170Y-94705752D02*
X134813408Y-94753371D01*
X134813408Y-94753371D02*
X134861027Y-94848609D01*
X134861027Y-94848609D02*
X134861027Y-95372419D01*
X135194361Y-94705752D02*
X135575313Y-94705752D01*
X135337218Y-94372419D02*
X135337218Y-95229561D01*
X135337218Y-95229561D02*
X135384837Y-95324800D01*
X135384837Y-95324800D02*
X135480075Y-95372419D01*
X135480075Y-95372419D02*
X135575313Y-95372419D01*
X135908647Y-95372419D02*
X135908647Y-94705752D01*
X135908647Y-94372419D02*
X135861028Y-94420038D01*
X135861028Y-94420038D02*
X135908647Y-94467657D01*
X135908647Y-94467657D02*
X135956266Y-94420038D01*
X135956266Y-94420038D02*
X135908647Y-94372419D01*
X135908647Y-94372419D02*
X135908647Y-94467657D01*
X136527694Y-95372419D02*
X136432456Y-95324800D01*
X136432456Y-95324800D02*
X136384837Y-95277180D01*
X136384837Y-95277180D02*
X136337218Y-95181942D01*
X136337218Y-95181942D02*
X136337218Y-94896228D01*
X136337218Y-94896228D02*
X136384837Y-94800990D01*
X136384837Y-94800990D02*
X136432456Y-94753371D01*
X136432456Y-94753371D02*
X136527694Y-94705752D01*
X136527694Y-94705752D02*
X136670551Y-94705752D01*
X136670551Y-94705752D02*
X136765789Y-94753371D01*
X136765789Y-94753371D02*
X136813408Y-94800990D01*
X136813408Y-94800990D02*
X136861027Y-94896228D01*
X136861027Y-94896228D02*
X136861027Y-95181942D01*
X136861027Y-95181942D02*
X136813408Y-95277180D01*
X136813408Y-95277180D02*
X136765789Y-95324800D01*
X136765789Y-95324800D02*
X136670551Y-95372419D01*
X136670551Y-95372419D02*
X136527694Y-95372419D01*
X137289599Y-94705752D02*
X137289599Y-95372419D01*
X137289599Y-94800990D02*
X137337218Y-94753371D01*
X137337218Y-94753371D02*
X137432456Y-94705752D01*
X137432456Y-94705752D02*
X137575313Y-94705752D01*
X137575313Y-94705752D02*
X137670551Y-94753371D01*
X137670551Y-94753371D02*
X137718170Y-94848609D01*
X137718170Y-94848609D02*
X137718170Y-95372419D01*
X138622932Y-95372419D02*
X138622932Y-94848609D01*
X138622932Y-94848609D02*
X138575313Y-94753371D01*
X138575313Y-94753371D02*
X138480075Y-94705752D01*
X138480075Y-94705752D02*
X138289599Y-94705752D01*
X138289599Y-94705752D02*
X138194361Y-94753371D01*
X138622932Y-95324800D02*
X138527694Y-95372419D01*
X138527694Y-95372419D02*
X138289599Y-95372419D01*
X138289599Y-95372419D02*
X138194361Y-95324800D01*
X138194361Y-95324800D02*
X138146742Y-95229561D01*
X138146742Y-95229561D02*
X138146742Y-95134323D01*
X138146742Y-95134323D02*
X138194361Y-95039085D01*
X138194361Y-95039085D02*
X138289599Y-94991466D01*
X138289599Y-94991466D02*
X138527694Y-94991466D01*
X138527694Y-94991466D02*
X138622932Y-94943847D01*
X139241980Y-95372419D02*
X139146742Y-95324800D01*
X139146742Y-95324800D02*
X139099123Y-95229561D01*
X139099123Y-95229561D02*
X139099123Y-94372419D01*
X129780074Y-87188219D02*
X129303884Y-87188219D01*
X129303884Y-87188219D02*
X129256265Y-87664409D01*
X129256265Y-87664409D02*
X129303884Y-87616790D01*
X129303884Y-87616790D02*
X129399122Y-87569171D01*
X129399122Y-87569171D02*
X129637217Y-87569171D01*
X129637217Y-87569171D02*
X129732455Y-87616790D01*
X129732455Y-87616790D02*
X129780074Y-87664409D01*
X129780074Y-87664409D02*
X129827693Y-87759647D01*
X129827693Y-87759647D02*
X129827693Y-87997742D01*
X129827693Y-87997742D02*
X129780074Y-88092980D01*
X129780074Y-88092980D02*
X129732455Y-88140600D01*
X129732455Y-88140600D02*
X129637217Y-88188219D01*
X129637217Y-88188219D02*
X129399122Y-88188219D01*
X129399122Y-88188219D02*
X129303884Y-88140600D01*
X129303884Y-88140600D02*
X129256265Y-88092980D01*
X130113408Y-87188219D02*
X130446741Y-88188219D01*
X130446741Y-88188219D02*
X130780074Y-87188219D01*
X131827694Y-88140600D02*
X131970551Y-88188219D01*
X131970551Y-88188219D02*
X132208646Y-88188219D01*
X132208646Y-88188219D02*
X132303884Y-88140600D01*
X132303884Y-88140600D02*
X132351503Y-88092980D01*
X132351503Y-88092980D02*
X132399122Y-87997742D01*
X132399122Y-87997742D02*
X132399122Y-87902504D01*
X132399122Y-87902504D02*
X132351503Y-87807266D01*
X132351503Y-87807266D02*
X132303884Y-87759647D01*
X132303884Y-87759647D02*
X132208646Y-87712028D01*
X132208646Y-87712028D02*
X132018170Y-87664409D01*
X132018170Y-87664409D02*
X131922932Y-87616790D01*
X131922932Y-87616790D02*
X131875313Y-87569171D01*
X131875313Y-87569171D02*
X131827694Y-87473933D01*
X131827694Y-87473933D02*
X131827694Y-87378695D01*
X131827694Y-87378695D02*
X131875313Y-87283457D01*
X131875313Y-87283457D02*
X131922932Y-87235838D01*
X131922932Y-87235838D02*
X132018170Y-87188219D01*
X132018170Y-87188219D02*
X132256265Y-87188219D01*
X132256265Y-87188219D02*
X132399122Y-87235838D01*
X132684837Y-87188219D02*
X133018170Y-88188219D01*
X133018170Y-88188219D02*
X133351503Y-87188219D01*
X133875313Y-87188219D02*
X134065789Y-87188219D01*
X134065789Y-87188219D02*
X134161027Y-87235838D01*
X134161027Y-87235838D02*
X134256265Y-87331076D01*
X134256265Y-87331076D02*
X134303884Y-87521552D01*
X134303884Y-87521552D02*
X134303884Y-87854885D01*
X134303884Y-87854885D02*
X134256265Y-88045361D01*
X134256265Y-88045361D02*
X134161027Y-88140600D01*
X134161027Y-88140600D02*
X134065789Y-88188219D01*
X134065789Y-88188219D02*
X133875313Y-88188219D01*
X133875313Y-88188219D02*
X133780075Y-88140600D01*
X133780075Y-88140600D02*
X133684837Y-88045361D01*
X133684837Y-88045361D02*
X133637218Y-87854885D01*
X133637218Y-87854885D02*
X133637218Y-87521552D01*
X133637218Y-87521552D02*
X133684837Y-87331076D01*
X133684837Y-87331076D02*
X133780075Y-87235838D01*
X133780075Y-87235838D02*
X133875313Y-87188219D01*
X129756265Y-99524800D02*
X129899122Y-99572419D01*
X129899122Y-99572419D02*
X130137217Y-99572419D01*
X130137217Y-99572419D02*
X130232455Y-99524800D01*
X130232455Y-99524800D02*
X130280074Y-99477180D01*
X130280074Y-99477180D02*
X130327693Y-99381942D01*
X130327693Y-99381942D02*
X130327693Y-99286704D01*
X130327693Y-99286704D02*
X130280074Y-99191466D01*
X130280074Y-99191466D02*
X130232455Y-99143847D01*
X130232455Y-99143847D02*
X130137217Y-99096228D01*
X130137217Y-99096228D02*
X129946741Y-99048609D01*
X129946741Y-99048609D02*
X129851503Y-99000990D01*
X129851503Y-99000990D02*
X129803884Y-98953371D01*
X129803884Y-98953371D02*
X129756265Y-98858133D01*
X129756265Y-98858133D02*
X129756265Y-98762895D01*
X129756265Y-98762895D02*
X129803884Y-98667657D01*
X129803884Y-98667657D02*
X129851503Y-98620038D01*
X129851503Y-98620038D02*
X129946741Y-98572419D01*
X129946741Y-98572419D02*
X130184836Y-98572419D01*
X130184836Y-98572419D02*
X130327693Y-98620038D01*
X131137217Y-99524800D02*
X131041979Y-99572419D01*
X131041979Y-99572419D02*
X130851503Y-99572419D01*
X130851503Y-99572419D02*
X130756265Y-99524800D01*
X130756265Y-99524800D02*
X130708646Y-99429561D01*
X130708646Y-99429561D02*
X130708646Y-99048609D01*
X130708646Y-99048609D02*
X130756265Y-98953371D01*
X130756265Y-98953371D02*
X130851503Y-98905752D01*
X130851503Y-98905752D02*
X131041979Y-98905752D01*
X131041979Y-98905752D02*
X131137217Y-98953371D01*
X131137217Y-98953371D02*
X131184836Y-99048609D01*
X131184836Y-99048609D02*
X131184836Y-99143847D01*
X131184836Y-99143847D02*
X130708646Y-99239085D01*
X131613408Y-99572419D02*
X131613408Y-98905752D01*
X131613408Y-99096228D02*
X131661027Y-99000990D01*
X131661027Y-99000990D02*
X131708646Y-98953371D01*
X131708646Y-98953371D02*
X131803884Y-98905752D01*
X131803884Y-98905752D02*
X131899122Y-98905752D01*
X132137218Y-98905752D02*
X132375313Y-99572419D01*
X132375313Y-99572419D02*
X132613408Y-98905752D01*
X133137218Y-99572419D02*
X133041980Y-99524800D01*
X133041980Y-99524800D02*
X132994361Y-99477180D01*
X132994361Y-99477180D02*
X132946742Y-99381942D01*
X132946742Y-99381942D02*
X132946742Y-99096228D01*
X132946742Y-99096228D02*
X132994361Y-99000990D01*
X132994361Y-99000990D02*
X133041980Y-98953371D01*
X133041980Y-98953371D02*
X133137218Y-98905752D01*
X133137218Y-98905752D02*
X133280075Y-98905752D01*
X133280075Y-98905752D02*
X133375313Y-98953371D01*
X133375313Y-98953371D02*
X133422932Y-99000990D01*
X133422932Y-99000990D02*
X133470551Y-99096228D01*
X133470551Y-99096228D02*
X133470551Y-99381942D01*
X133470551Y-99381942D02*
X133422932Y-99477180D01*
X133422932Y-99477180D02*
X133375313Y-99524800D01*
X133375313Y-99524800D02*
X133280075Y-99572419D01*
X133280075Y-99572419D02*
X133137218Y-99572419D01*
X133851504Y-99524800D02*
X133946742Y-99572419D01*
X133946742Y-99572419D02*
X134137218Y-99572419D01*
X134137218Y-99572419D02*
X134232456Y-99524800D01*
X134232456Y-99524800D02*
X134280075Y-99429561D01*
X134280075Y-99429561D02*
X134280075Y-99381942D01*
X134280075Y-99381942D02*
X134232456Y-99286704D01*
X134232456Y-99286704D02*
X134137218Y-99239085D01*
X134137218Y-99239085D02*
X133994361Y-99239085D01*
X133994361Y-99239085D02*
X133899123Y-99191466D01*
X133899123Y-99191466D02*
X133851504Y-99096228D01*
X133851504Y-99096228D02*
X133851504Y-99048609D01*
X133851504Y-99048609D02*
X133899123Y-98953371D01*
X133899123Y-98953371D02*
X133994361Y-98905752D01*
X133994361Y-98905752D02*
X134137218Y-98905752D01*
X134137218Y-98905752D02*
X134232456Y-98953371D01*
X135422932Y-98524800D02*
X134565790Y-99810514D01*
X135946742Y-98572419D02*
X136137218Y-98572419D01*
X136137218Y-98572419D02*
X136232456Y-98620038D01*
X136232456Y-98620038D02*
X136327694Y-98715276D01*
X136327694Y-98715276D02*
X136375313Y-98905752D01*
X136375313Y-98905752D02*
X136375313Y-99239085D01*
X136375313Y-99239085D02*
X136327694Y-99429561D01*
X136327694Y-99429561D02*
X136232456Y-99524800D01*
X136232456Y-99524800D02*
X136137218Y-99572419D01*
X136137218Y-99572419D02*
X135946742Y-99572419D01*
X135946742Y-99572419D02*
X135851504Y-99524800D01*
X135851504Y-99524800D02*
X135756266Y-99429561D01*
X135756266Y-99429561D02*
X135708647Y-99239085D01*
X135708647Y-99239085D02*
X135708647Y-98905752D01*
X135708647Y-98905752D02*
X135756266Y-98715276D01*
X135756266Y-98715276D02*
X135851504Y-98620038D01*
X135851504Y-98620038D02*
X135946742Y-98572419D01*
X137232456Y-98905752D02*
X137232456Y-99572419D01*
X136803885Y-98905752D02*
X136803885Y-99429561D01*
X136803885Y-99429561D02*
X136851504Y-99524800D01*
X136851504Y-99524800D02*
X136946742Y-99572419D01*
X136946742Y-99572419D02*
X137089599Y-99572419D01*
X137089599Y-99572419D02*
X137184837Y-99524800D01*
X137184837Y-99524800D02*
X137232456Y-99477180D01*
X137565790Y-98905752D02*
X137946742Y-98905752D01*
X137708647Y-98572419D02*
X137708647Y-99429561D01*
X137708647Y-99429561D02*
X137756266Y-99524800D01*
X137756266Y-99524800D02*
X137851504Y-99572419D01*
X137851504Y-99572419D02*
X137946742Y-99572419D01*
X138280076Y-98905752D02*
X138280076Y-99905752D01*
X138280076Y-98953371D02*
X138375314Y-98905752D01*
X138375314Y-98905752D02*
X138565790Y-98905752D01*
X138565790Y-98905752D02*
X138661028Y-98953371D01*
X138661028Y-98953371D02*
X138708647Y-99000990D01*
X138708647Y-99000990D02*
X138756266Y-99096228D01*
X138756266Y-99096228D02*
X138756266Y-99381942D01*
X138756266Y-99381942D02*
X138708647Y-99477180D01*
X138708647Y-99477180D02*
X138661028Y-99524800D01*
X138661028Y-99524800D02*
X138565790Y-99572419D01*
X138565790Y-99572419D02*
X138375314Y-99572419D01*
X138375314Y-99572419D02*
X138280076Y-99524800D01*
X139613409Y-98905752D02*
X139613409Y-99572419D01*
X139184838Y-98905752D02*
X139184838Y-99429561D01*
X139184838Y-99429561D02*
X139232457Y-99524800D01*
X139232457Y-99524800D02*
X139327695Y-99572419D01*
X139327695Y-99572419D02*
X139470552Y-99572419D01*
X139470552Y-99572419D02*
X139565790Y-99524800D01*
X139565790Y-99524800D02*
X139613409Y-99477180D01*
X139946743Y-98905752D02*
X140327695Y-98905752D01*
X140089600Y-98572419D02*
X140089600Y-99429561D01*
X140089600Y-99429561D02*
X140137219Y-99524800D01*
X140137219Y-99524800D02*
X140232457Y-99572419D01*
X140232457Y-99572419D02*
X140327695Y-99572419D01*
X140613410Y-99524800D02*
X140708648Y-99572419D01*
X140708648Y-99572419D02*
X140899124Y-99572419D01*
X140899124Y-99572419D02*
X140994362Y-99524800D01*
X140994362Y-99524800D02*
X141041981Y-99429561D01*
X141041981Y-99429561D02*
X141041981Y-99381942D01*
X141041981Y-99381942D02*
X140994362Y-99286704D01*
X140994362Y-99286704D02*
X140899124Y-99239085D01*
X140899124Y-99239085D02*
X140756267Y-99239085D01*
X140756267Y-99239085D02*
X140661029Y-99191466D01*
X140661029Y-99191466D02*
X140613410Y-99096228D01*
X140613410Y-99096228D02*
X140613410Y-99048609D01*
X140613410Y-99048609D02*
X140661029Y-98953371D01*
X140661029Y-98953371D02*
X140756267Y-98905752D01*
X140756267Y-98905752D02*
X140899124Y-98905752D01*
X140899124Y-98905752D02*
X140994362Y-98953371D01*
X141470553Y-99477180D02*
X141518172Y-99524800D01*
X141518172Y-99524800D02*
X141470553Y-99572419D01*
X141470553Y-99572419D02*
X141422934Y-99524800D01*
X141422934Y-99524800D02*
X141470553Y-99477180D01*
X141470553Y-99477180D02*
X141470553Y-99572419D01*
X141470553Y-98953371D02*
X141518172Y-99000990D01*
X141518172Y-99000990D02*
X141470553Y-99048609D01*
X141470553Y-99048609D02*
X141422934Y-99000990D01*
X141422934Y-99000990D02*
X141470553Y-98953371D01*
X141470553Y-98953371D02*
X141470553Y-99048609D01*
X142899124Y-98572419D02*
X142994362Y-98572419D01*
X142994362Y-98572419D02*
X143089600Y-98620038D01*
X143089600Y-98620038D02*
X143137219Y-98667657D01*
X143137219Y-98667657D02*
X143184838Y-98762895D01*
X143184838Y-98762895D02*
X143232457Y-98953371D01*
X143232457Y-98953371D02*
X143232457Y-99191466D01*
X143232457Y-99191466D02*
X143184838Y-99381942D01*
X143184838Y-99381942D02*
X143137219Y-99477180D01*
X143137219Y-99477180D02*
X143089600Y-99524800D01*
X143089600Y-99524800D02*
X142994362Y-99572419D01*
X142994362Y-99572419D02*
X142899124Y-99572419D01*
X142899124Y-99572419D02*
X142803886Y-99524800D01*
X142803886Y-99524800D02*
X142756267Y-99477180D01*
X142756267Y-99477180D02*
X142708648Y-99381942D01*
X142708648Y-99381942D02*
X142661029Y-99191466D01*
X142661029Y-99191466D02*
X142661029Y-98953371D01*
X142661029Y-98953371D02*
X142708648Y-98762895D01*
X142708648Y-98762895D02*
X142756267Y-98667657D01*
X142756267Y-98667657D02*
X142803886Y-98620038D01*
X142803886Y-98620038D02*
X142899124Y-98572419D01*
X178346741Y-99100990D02*
X178251503Y-99053371D01*
X178251503Y-99053371D02*
X178203884Y-99005752D01*
X178203884Y-99005752D02*
X178156265Y-98910514D01*
X178156265Y-98910514D02*
X178156265Y-98862895D01*
X178156265Y-98862895D02*
X178203884Y-98767657D01*
X178203884Y-98767657D02*
X178251503Y-98720038D01*
X178251503Y-98720038D02*
X178346741Y-98672419D01*
X178346741Y-98672419D02*
X178537217Y-98672419D01*
X178537217Y-98672419D02*
X178632455Y-98720038D01*
X178632455Y-98720038D02*
X178680074Y-98767657D01*
X178680074Y-98767657D02*
X178727693Y-98862895D01*
X178727693Y-98862895D02*
X178727693Y-98910514D01*
X178727693Y-98910514D02*
X178680074Y-99005752D01*
X178680074Y-99005752D02*
X178632455Y-99053371D01*
X178632455Y-99053371D02*
X178537217Y-99100990D01*
X178537217Y-99100990D02*
X178346741Y-99100990D01*
X178346741Y-99100990D02*
X178251503Y-99148609D01*
X178251503Y-99148609D02*
X178203884Y-99196228D01*
X178203884Y-99196228D02*
X178156265Y-99291466D01*
X178156265Y-99291466D02*
X178156265Y-99481942D01*
X178156265Y-99481942D02*
X178203884Y-99577180D01*
X178203884Y-99577180D02*
X178251503Y-99624800D01*
X178251503Y-99624800D02*
X178346741Y-99672419D01*
X178346741Y-99672419D02*
X178537217Y-99672419D01*
X178537217Y-99672419D02*
X178632455Y-99624800D01*
X178632455Y-99624800D02*
X178680074Y-99577180D01*
X178680074Y-99577180D02*
X178727693Y-99481942D01*
X178727693Y-99481942D02*
X178727693Y-99291466D01*
X178727693Y-99291466D02*
X178680074Y-99196228D01*
X178680074Y-99196228D02*
X178632455Y-99148609D01*
X178632455Y-99148609D02*
X178537217Y-99100990D01*
X185927693Y-99672419D02*
X185356265Y-99672419D01*
X185641979Y-99672419D02*
X185641979Y-98672419D01*
X185641979Y-98672419D02*
X185546741Y-98815276D01*
X185546741Y-98815276D02*
X185451503Y-98910514D01*
X185451503Y-98910514D02*
X185356265Y-98958133D01*
X186880074Y-99672419D02*
X186308646Y-99672419D01*
X186594360Y-99672419D02*
X186594360Y-98672419D01*
X186594360Y-98672419D02*
X186499122Y-98815276D01*
X186499122Y-98815276D02*
X186403884Y-98910514D01*
X186403884Y-98910514D02*
X186308646Y-98958133D01*
X198814427Y-61178619D02*
X199385855Y-61178619D01*
X199100141Y-62178619D02*
X199100141Y-61178619D01*
X199623951Y-61178619D02*
X200290617Y-62178619D01*
X200290617Y-61178619D02*
X199623951Y-62178619D01*
X204320038Y-67872306D02*
X204272419Y-67967544D01*
X204272419Y-67967544D02*
X204272419Y-68110401D01*
X204272419Y-68110401D02*
X204320038Y-68253258D01*
X204320038Y-68253258D02*
X204415276Y-68348496D01*
X204415276Y-68348496D02*
X204510514Y-68396115D01*
X204510514Y-68396115D02*
X204700990Y-68443734D01*
X204700990Y-68443734D02*
X204843847Y-68443734D01*
X204843847Y-68443734D02*
X205034323Y-68396115D01*
X205034323Y-68396115D02*
X205129561Y-68348496D01*
X205129561Y-68348496D02*
X205224800Y-68253258D01*
X205224800Y-68253258D02*
X205272419Y-68110401D01*
X205272419Y-68110401D02*
X205272419Y-68015163D01*
X205272419Y-68015163D02*
X205224800Y-67872306D01*
X205224800Y-67872306D02*
X205177180Y-67824687D01*
X205177180Y-67824687D02*
X204843847Y-67824687D01*
X204843847Y-67824687D02*
X204843847Y-68015163D01*
X205272419Y-67396115D02*
X204272419Y-67396115D01*
X204272419Y-67396115D02*
X205272419Y-66824687D01*
X205272419Y-66824687D02*
X204272419Y-66824687D01*
X205272419Y-66348496D02*
X204272419Y-66348496D01*
X204272419Y-66348496D02*
X204272419Y-66110401D01*
X204272419Y-66110401D02*
X204320038Y-65967544D01*
X204320038Y-65967544D02*
X204415276Y-65872306D01*
X204415276Y-65872306D02*
X204510514Y-65824687D01*
X204510514Y-65824687D02*
X204700990Y-65777068D01*
X204700990Y-65777068D02*
X204843847Y-65777068D01*
X204843847Y-65777068D02*
X205034323Y-65824687D01*
X205034323Y-65824687D02*
X205129561Y-65872306D01*
X205129561Y-65872306D02*
X205224800Y-65967544D01*
X205224800Y-65967544D02*
X205272419Y-66110401D01*
X205272419Y-66110401D02*
X205272419Y-66348496D01*
X160832455Y-99005752D02*
X160832455Y-99672419D01*
X160594360Y-98624800D02*
X160356265Y-99339085D01*
X160356265Y-99339085D02*
X160975312Y-99339085D01*
X196127693Y-99672419D02*
X195556265Y-99672419D01*
X195841979Y-99672419D02*
X195841979Y-98672419D01*
X195841979Y-98672419D02*
X195746741Y-98815276D01*
X195746741Y-98815276D02*
X195651503Y-98910514D01*
X195651503Y-98910514D02*
X195556265Y-98958133D01*
X196508646Y-98767657D02*
X196556265Y-98720038D01*
X196556265Y-98720038D02*
X196651503Y-98672419D01*
X196651503Y-98672419D02*
X196889598Y-98672419D01*
X196889598Y-98672419D02*
X196984836Y-98720038D01*
X196984836Y-98720038D02*
X197032455Y-98767657D01*
X197032455Y-98767657D02*
X197080074Y-98862895D01*
X197080074Y-98862895D02*
X197080074Y-98958133D01*
X197080074Y-98958133D02*
X197032455Y-99100990D01*
X197032455Y-99100990D02*
X196461027Y-99672419D01*
X196461027Y-99672419D02*
X197080074Y-99672419D01*
X150208646Y-98672419D02*
X150827693Y-98672419D01*
X150827693Y-98672419D02*
X150494360Y-99053371D01*
X150494360Y-99053371D02*
X150637217Y-99053371D01*
X150637217Y-99053371D02*
X150732455Y-99100990D01*
X150732455Y-99100990D02*
X150780074Y-99148609D01*
X150780074Y-99148609D02*
X150827693Y-99243847D01*
X150827693Y-99243847D02*
X150827693Y-99481942D01*
X150827693Y-99481942D02*
X150780074Y-99577180D01*
X150780074Y-99577180D02*
X150732455Y-99624800D01*
X150732455Y-99624800D02*
X150637217Y-99672419D01*
X150637217Y-99672419D02*
X150351503Y-99672419D01*
X150351503Y-99672419D02*
X150256265Y-99624800D01*
X150256265Y-99624800D02*
X150208646Y-99577180D01*
X199528712Y-65201219D02*
X199195379Y-64725028D01*
X198957284Y-65201219D02*
X198957284Y-64201219D01*
X198957284Y-64201219D02*
X199338236Y-64201219D01*
X199338236Y-64201219D02*
X199433474Y-64248838D01*
X199433474Y-64248838D02*
X199481093Y-64296457D01*
X199481093Y-64296457D02*
X199528712Y-64391695D01*
X199528712Y-64391695D02*
X199528712Y-64534552D01*
X199528712Y-64534552D02*
X199481093Y-64629790D01*
X199481093Y-64629790D02*
X199433474Y-64677409D01*
X199433474Y-64677409D02*
X199338236Y-64725028D01*
X199338236Y-64725028D02*
X198957284Y-64725028D01*
X199862046Y-64201219D02*
X200528712Y-65201219D01*
X200528712Y-64201219D02*
X199862046Y-65201219D01*
X130951893Y-79280038D02*
X130856655Y-79232419D01*
X130856655Y-79232419D02*
X130713798Y-79232419D01*
X130713798Y-79232419D02*
X130570941Y-79280038D01*
X130570941Y-79280038D02*
X130475703Y-79375276D01*
X130475703Y-79375276D02*
X130428084Y-79470514D01*
X130428084Y-79470514D02*
X130380465Y-79660990D01*
X130380465Y-79660990D02*
X130380465Y-79803847D01*
X130380465Y-79803847D02*
X130428084Y-79994323D01*
X130428084Y-79994323D02*
X130475703Y-80089561D01*
X130475703Y-80089561D02*
X130570941Y-80184800D01*
X130570941Y-80184800D02*
X130713798Y-80232419D01*
X130713798Y-80232419D02*
X130809036Y-80232419D01*
X130809036Y-80232419D02*
X130951893Y-80184800D01*
X130951893Y-80184800D02*
X130999512Y-80137180D01*
X130999512Y-80137180D02*
X130999512Y-79803847D01*
X130999512Y-79803847D02*
X130809036Y-79803847D01*
X131428084Y-80232419D02*
X131428084Y-79232419D01*
X131428084Y-79232419D02*
X131999512Y-80232419D01*
X131999512Y-80232419D02*
X131999512Y-79232419D01*
X132475703Y-80232419D02*
X132475703Y-79232419D01*
X132475703Y-79232419D02*
X132713798Y-79232419D01*
X132713798Y-79232419D02*
X132856655Y-79280038D01*
X132856655Y-79280038D02*
X132951893Y-79375276D01*
X132951893Y-79375276D02*
X132999512Y-79470514D01*
X132999512Y-79470514D02*
X133047131Y-79660990D01*
X133047131Y-79660990D02*
X133047131Y-79803847D01*
X133047131Y-79803847D02*
X132999512Y-79994323D01*
X132999512Y-79994323D02*
X132951893Y-80089561D01*
X132951893Y-80089561D02*
X132856655Y-80184800D01*
X132856655Y-80184800D02*
X132713798Y-80232419D01*
X132713798Y-80232419D02*
X132475703Y-80232419D01*
X168008646Y-98672419D02*
X168675312Y-98672419D01*
X168675312Y-98672419D02*
X168246741Y-99672419D01*
X130351884Y-84098866D02*
X131113789Y-84098866D01*
X130732836Y-84479819D02*
X130732836Y-83717914D01*
X132066169Y-83479819D02*
X131589979Y-83479819D01*
X131589979Y-83479819D02*
X131542360Y-83956009D01*
X131542360Y-83956009D02*
X131589979Y-83908390D01*
X131589979Y-83908390D02*
X131685217Y-83860771D01*
X131685217Y-83860771D02*
X131923312Y-83860771D01*
X131923312Y-83860771D02*
X132018550Y-83908390D01*
X132018550Y-83908390D02*
X132066169Y-83956009D01*
X132066169Y-83956009D02*
X132113788Y-84051247D01*
X132113788Y-84051247D02*
X132113788Y-84289342D01*
X132113788Y-84289342D02*
X132066169Y-84384580D01*
X132066169Y-84384580D02*
X132018550Y-84432200D01*
X132018550Y-84432200D02*
X131923312Y-84479819D01*
X131923312Y-84479819D02*
X131685217Y-84479819D01*
X131685217Y-84479819D02*
X131589979Y-84432200D01*
X131589979Y-84432200D02*
X131542360Y-84384580D01*
X132399503Y-83479819D02*
X132732836Y-84479819D01*
X132732836Y-84479819D02*
X133066169Y-83479819D01*
X190203884Y-83328721D02*
X190537217Y-83328721D01*
X190680074Y-83852531D02*
X190203884Y-83852531D01*
X190203884Y-83852531D02*
X190203884Y-82852531D01*
X190203884Y-82852531D02*
X190680074Y-82852531D01*
X191061027Y-83804912D02*
X191203884Y-83852531D01*
X191203884Y-83852531D02*
X191441979Y-83852531D01*
X191441979Y-83852531D02*
X191537217Y-83804912D01*
X191537217Y-83804912D02*
X191584836Y-83757292D01*
X191584836Y-83757292D02*
X191632455Y-83662054D01*
X191632455Y-83662054D02*
X191632455Y-83566816D01*
X191632455Y-83566816D02*
X191584836Y-83471578D01*
X191584836Y-83471578D02*
X191537217Y-83423959D01*
X191537217Y-83423959D02*
X191441979Y-83376340D01*
X191441979Y-83376340D02*
X191251503Y-83328721D01*
X191251503Y-83328721D02*
X191156265Y-83281102D01*
X191156265Y-83281102D02*
X191108646Y-83233483D01*
X191108646Y-83233483D02*
X191061027Y-83138245D01*
X191061027Y-83138245D02*
X191061027Y-83043007D01*
X191061027Y-83043007D02*
X191108646Y-82947769D01*
X191108646Y-82947769D02*
X191156265Y-82900150D01*
X191156265Y-82900150D02*
X191251503Y-82852531D01*
X191251503Y-82852531D02*
X191489598Y-82852531D01*
X191489598Y-82852531D02*
X191632455Y-82900150D01*
X192061027Y-83852531D02*
X192061027Y-82852531D01*
X192061027Y-82852531D02*
X192441979Y-82852531D01*
X192441979Y-82852531D02*
X192537217Y-82900150D01*
X192537217Y-82900150D02*
X192584836Y-82947769D01*
X192584836Y-82947769D02*
X192632455Y-83043007D01*
X192632455Y-83043007D02*
X192632455Y-83185864D01*
X192632455Y-83185864D02*
X192584836Y-83281102D01*
X192584836Y-83281102D02*
X192537217Y-83328721D01*
X192537217Y-83328721D02*
X192441979Y-83376340D01*
X192441979Y-83376340D02*
X192061027Y-83376340D01*
X192965789Y-82852531D02*
X193584836Y-82852531D01*
X193584836Y-82852531D02*
X193251503Y-83233483D01*
X193251503Y-83233483D02*
X193394360Y-83233483D01*
X193394360Y-83233483D02*
X193489598Y-83281102D01*
X193489598Y-83281102D02*
X193537217Y-83328721D01*
X193537217Y-83328721D02*
X193584836Y-83423959D01*
X193584836Y-83423959D02*
X193584836Y-83662054D01*
X193584836Y-83662054D02*
X193537217Y-83757292D01*
X193537217Y-83757292D02*
X193489598Y-83804912D01*
X193489598Y-83804912D02*
X193394360Y-83852531D01*
X193394360Y-83852531D02*
X193108646Y-83852531D01*
X193108646Y-83852531D02*
X193013408Y-83804912D01*
X193013408Y-83804912D02*
X192965789Y-83757292D01*
X193965789Y-82947769D02*
X194013408Y-82900150D01*
X194013408Y-82900150D02*
X194108646Y-82852531D01*
X194108646Y-82852531D02*
X194346741Y-82852531D01*
X194346741Y-82852531D02*
X194441979Y-82900150D01*
X194441979Y-82900150D02*
X194489598Y-82947769D01*
X194489598Y-82947769D02*
X194537217Y-83043007D01*
X194537217Y-83043007D02*
X194537217Y-83138245D01*
X194537217Y-83138245D02*
X194489598Y-83281102D01*
X194489598Y-83281102D02*
X193918170Y-83852531D01*
X193918170Y-83852531D02*
X194537217Y-83852531D01*
X194870551Y-82852531D02*
X195108646Y-83852531D01*
X195108646Y-83852531D02*
X195299122Y-83138245D01*
X195299122Y-83138245D02*
X195489598Y-83852531D01*
X195489598Y-83852531D02*
X195727694Y-82852531D01*
X196108646Y-83852531D02*
X196108646Y-83185864D01*
X196108646Y-83376340D02*
X196156265Y-83281102D01*
X196156265Y-83281102D02*
X196203884Y-83233483D01*
X196203884Y-83233483D02*
X196299122Y-83185864D01*
X196299122Y-83185864D02*
X196394360Y-83185864D01*
X196870551Y-83852531D02*
X196775313Y-83804912D01*
X196775313Y-83804912D02*
X196727694Y-83757292D01*
X196727694Y-83757292D02*
X196680075Y-83662054D01*
X196680075Y-83662054D02*
X196680075Y-83376340D01*
X196680075Y-83376340D02*
X196727694Y-83281102D01*
X196727694Y-83281102D02*
X196775313Y-83233483D01*
X196775313Y-83233483D02*
X196870551Y-83185864D01*
X196870551Y-83185864D02*
X197013408Y-83185864D01*
X197013408Y-83185864D02*
X197108646Y-83233483D01*
X197108646Y-83233483D02*
X197156265Y-83281102D01*
X197156265Y-83281102D02*
X197203884Y-83376340D01*
X197203884Y-83376340D02*
X197203884Y-83662054D01*
X197203884Y-83662054D02*
X197156265Y-83757292D01*
X197156265Y-83757292D02*
X197108646Y-83804912D01*
X197108646Y-83804912D02*
X197013408Y-83852531D01*
X197013408Y-83852531D02*
X196870551Y-83852531D01*
X197775313Y-83852531D02*
X197680075Y-83804912D01*
X197680075Y-83804912D02*
X197632456Y-83757292D01*
X197632456Y-83757292D02*
X197584837Y-83662054D01*
X197584837Y-83662054D02*
X197584837Y-83376340D01*
X197584837Y-83376340D02*
X197632456Y-83281102D01*
X197632456Y-83281102D02*
X197680075Y-83233483D01*
X197680075Y-83233483D02*
X197775313Y-83185864D01*
X197775313Y-83185864D02*
X197918170Y-83185864D01*
X197918170Y-83185864D02*
X198013408Y-83233483D01*
X198013408Y-83233483D02*
X198061027Y-83281102D01*
X198061027Y-83281102D02*
X198108646Y-83376340D01*
X198108646Y-83376340D02*
X198108646Y-83662054D01*
X198108646Y-83662054D02*
X198061027Y-83757292D01*
X198061027Y-83757292D02*
X198013408Y-83804912D01*
X198013408Y-83804912D02*
X197918170Y-83852531D01*
X197918170Y-83852531D02*
X197775313Y-83852531D01*
X198537218Y-83852531D02*
X198537218Y-83185864D01*
X198537218Y-83281102D02*
X198584837Y-83233483D01*
X198584837Y-83233483D02*
X198680075Y-83185864D01*
X198680075Y-83185864D02*
X198822932Y-83185864D01*
X198822932Y-83185864D02*
X198918170Y-83233483D01*
X198918170Y-83233483D02*
X198965789Y-83328721D01*
X198965789Y-83328721D02*
X198965789Y-83852531D01*
X198965789Y-83328721D02*
X199013408Y-83233483D01*
X199013408Y-83233483D02*
X199108646Y-83185864D01*
X199108646Y-83185864D02*
X199251503Y-83185864D01*
X199251503Y-83185864D02*
X199346742Y-83233483D01*
X199346742Y-83233483D02*
X199394361Y-83328721D01*
X199394361Y-83328721D02*
X199394361Y-83852531D01*
X190203884Y-85462475D02*
X190203884Y-84462475D01*
X190203884Y-84462475D02*
X190584836Y-84462475D01*
X190584836Y-84462475D02*
X190680074Y-84510094D01*
X190680074Y-84510094D02*
X190727693Y-84557713D01*
X190727693Y-84557713D02*
X190775312Y-84652951D01*
X190775312Y-84652951D02*
X190775312Y-84795808D01*
X190775312Y-84795808D02*
X190727693Y-84891046D01*
X190727693Y-84891046D02*
X190680074Y-84938665D01*
X190680074Y-84938665D02*
X190584836Y-84986284D01*
X190584836Y-84986284D02*
X190203884Y-84986284D01*
X191108646Y-84462475D02*
X191346741Y-85462475D01*
X191346741Y-85462475D02*
X191537217Y-84748189D01*
X191537217Y-84748189D02*
X191727693Y-85462475D01*
X191727693Y-85462475D02*
X191965789Y-84462475D01*
X192346741Y-85462475D02*
X192346741Y-84462475D01*
X192346741Y-84462475D02*
X192680074Y-85176760D01*
X192680074Y-85176760D02*
X193013407Y-84462475D01*
X193013407Y-84462475D02*
X193013407Y-85462475D01*
X194251503Y-85462475D02*
X194251503Y-84462475D01*
X194251503Y-84462475D02*
X194632455Y-84462475D01*
X194632455Y-84462475D02*
X194727693Y-84510094D01*
X194727693Y-84510094D02*
X194775312Y-84557713D01*
X194775312Y-84557713D02*
X194822931Y-84652951D01*
X194822931Y-84652951D02*
X194822931Y-84795808D01*
X194822931Y-84795808D02*
X194775312Y-84891046D01*
X194775312Y-84891046D02*
X194727693Y-84938665D01*
X194727693Y-84938665D02*
X194632455Y-84986284D01*
X194632455Y-84986284D02*
X194251503Y-84986284D01*
X195822931Y-85367236D02*
X195775312Y-85414856D01*
X195775312Y-85414856D02*
X195632455Y-85462475D01*
X195632455Y-85462475D02*
X195537217Y-85462475D01*
X195537217Y-85462475D02*
X195394360Y-85414856D01*
X195394360Y-85414856D02*
X195299122Y-85319617D01*
X195299122Y-85319617D02*
X195251503Y-85224379D01*
X195251503Y-85224379D02*
X195203884Y-85033903D01*
X195203884Y-85033903D02*
X195203884Y-84891046D01*
X195203884Y-84891046D02*
X195251503Y-84700570D01*
X195251503Y-84700570D02*
X195299122Y-84605332D01*
X195299122Y-84605332D02*
X195394360Y-84510094D01*
X195394360Y-84510094D02*
X195537217Y-84462475D01*
X195537217Y-84462475D02*
X195632455Y-84462475D01*
X195632455Y-84462475D02*
X195775312Y-84510094D01*
X195775312Y-84510094D02*
X195822931Y-84557713D01*
X196584836Y-84938665D02*
X196727693Y-84986284D01*
X196727693Y-84986284D02*
X196775312Y-85033903D01*
X196775312Y-85033903D02*
X196822931Y-85129141D01*
X196822931Y-85129141D02*
X196822931Y-85271998D01*
X196822931Y-85271998D02*
X196775312Y-85367236D01*
X196775312Y-85367236D02*
X196727693Y-85414856D01*
X196727693Y-85414856D02*
X196632455Y-85462475D01*
X196632455Y-85462475D02*
X196251503Y-85462475D01*
X196251503Y-85462475D02*
X196251503Y-84462475D01*
X196251503Y-84462475D02*
X196584836Y-84462475D01*
X196584836Y-84462475D02*
X196680074Y-84510094D01*
X196680074Y-84510094D02*
X196727693Y-84557713D01*
X196727693Y-84557713D02*
X196775312Y-84652951D01*
X196775312Y-84652951D02*
X196775312Y-84748189D01*
X196775312Y-84748189D02*
X196727693Y-84843427D01*
X196727693Y-84843427D02*
X196680074Y-84891046D01*
X196680074Y-84891046D02*
X196584836Y-84938665D01*
X196584836Y-84938665D02*
X196251503Y-84938665D01*
X190775312Y-87072419D02*
X190441979Y-86596228D01*
X190203884Y-87072419D02*
X190203884Y-86072419D01*
X190203884Y-86072419D02*
X190584836Y-86072419D01*
X190584836Y-86072419D02*
X190680074Y-86120038D01*
X190680074Y-86120038D02*
X190727693Y-86167657D01*
X190727693Y-86167657D02*
X190775312Y-86262895D01*
X190775312Y-86262895D02*
X190775312Y-86405752D01*
X190775312Y-86405752D02*
X190727693Y-86500990D01*
X190727693Y-86500990D02*
X190680074Y-86548609D01*
X190680074Y-86548609D02*
X190584836Y-86596228D01*
X190584836Y-86596228D02*
X190203884Y-86596228D01*
X191584836Y-87024800D02*
X191489598Y-87072419D01*
X191489598Y-87072419D02*
X191299122Y-87072419D01*
X191299122Y-87072419D02*
X191203884Y-87024800D01*
X191203884Y-87024800D02*
X191156265Y-86929561D01*
X191156265Y-86929561D02*
X191156265Y-86548609D01*
X191156265Y-86548609D02*
X191203884Y-86453371D01*
X191203884Y-86453371D02*
X191299122Y-86405752D01*
X191299122Y-86405752D02*
X191489598Y-86405752D01*
X191489598Y-86405752D02*
X191584836Y-86453371D01*
X191584836Y-86453371D02*
X191632455Y-86548609D01*
X191632455Y-86548609D02*
X191632455Y-86643847D01*
X191632455Y-86643847D02*
X191156265Y-86739085D01*
X191965789Y-86405752D02*
X192203884Y-87072419D01*
X192203884Y-87072419D02*
X192441979Y-86405752D01*
X192822932Y-87072419D02*
X192822932Y-86405752D01*
X192822932Y-86072419D02*
X192775313Y-86120038D01*
X192775313Y-86120038D02*
X192822932Y-86167657D01*
X192822932Y-86167657D02*
X192870551Y-86120038D01*
X192870551Y-86120038D02*
X192822932Y-86072419D01*
X192822932Y-86072419D02*
X192822932Y-86167657D01*
X193251503Y-87024800D02*
X193346741Y-87072419D01*
X193346741Y-87072419D02*
X193537217Y-87072419D01*
X193537217Y-87072419D02*
X193632455Y-87024800D01*
X193632455Y-87024800D02*
X193680074Y-86929561D01*
X193680074Y-86929561D02*
X193680074Y-86881942D01*
X193680074Y-86881942D02*
X193632455Y-86786704D01*
X193632455Y-86786704D02*
X193537217Y-86739085D01*
X193537217Y-86739085D02*
X193394360Y-86739085D01*
X193394360Y-86739085D02*
X193299122Y-86691466D01*
X193299122Y-86691466D02*
X193251503Y-86596228D01*
X193251503Y-86596228D02*
X193251503Y-86548609D01*
X193251503Y-86548609D02*
X193299122Y-86453371D01*
X193299122Y-86453371D02*
X193394360Y-86405752D01*
X193394360Y-86405752D02*
X193537217Y-86405752D01*
X193537217Y-86405752D02*
X193632455Y-86453371D01*
X194108646Y-87072419D02*
X194108646Y-86405752D01*
X194108646Y-86072419D02*
X194061027Y-86120038D01*
X194061027Y-86120038D02*
X194108646Y-86167657D01*
X194108646Y-86167657D02*
X194156265Y-86120038D01*
X194156265Y-86120038D02*
X194108646Y-86072419D01*
X194108646Y-86072419D02*
X194108646Y-86167657D01*
X194727693Y-87072419D02*
X194632455Y-87024800D01*
X194632455Y-87024800D02*
X194584836Y-86977180D01*
X194584836Y-86977180D02*
X194537217Y-86881942D01*
X194537217Y-86881942D02*
X194537217Y-86596228D01*
X194537217Y-86596228D02*
X194584836Y-86500990D01*
X194584836Y-86500990D02*
X194632455Y-86453371D01*
X194632455Y-86453371D02*
X194727693Y-86405752D01*
X194727693Y-86405752D02*
X194870550Y-86405752D01*
X194870550Y-86405752D02*
X194965788Y-86453371D01*
X194965788Y-86453371D02*
X195013407Y-86500990D01*
X195013407Y-86500990D02*
X195061026Y-86596228D01*
X195061026Y-86596228D02*
X195061026Y-86881942D01*
X195061026Y-86881942D02*
X195013407Y-86977180D01*
X195013407Y-86977180D02*
X194965788Y-87024800D01*
X194965788Y-87024800D02*
X194870550Y-87072419D01*
X194870550Y-87072419D02*
X194727693Y-87072419D01*
X195489598Y-86405752D02*
X195489598Y-87072419D01*
X195489598Y-86500990D02*
X195537217Y-86453371D01*
X195537217Y-86453371D02*
X195632455Y-86405752D01*
X195632455Y-86405752D02*
X195775312Y-86405752D01*
X195775312Y-86405752D02*
X195870550Y-86453371D01*
X195870550Y-86453371D02*
X195918169Y-86548609D01*
X195918169Y-86548609D02*
X195918169Y-87072419D01*
X197680074Y-87072419D02*
X197108646Y-87072419D01*
X197394360Y-87072419D02*
X197394360Y-86072419D01*
X197394360Y-86072419D02*
X197299122Y-86215276D01*
X197299122Y-86215276D02*
X197203884Y-86310514D01*
X197203884Y-86310514D02*
X197108646Y-86358133D01*
X203627693Y-99672419D02*
X203056265Y-99672419D01*
X203341979Y-99672419D02*
X203341979Y-98672419D01*
X203341979Y-98672419D02*
X203246741Y-98815276D01*
X203246741Y-98815276D02*
X203151503Y-98910514D01*
X203151503Y-98910514D02*
X203056265Y-98958133D01*
X204532455Y-98672419D02*
X204056265Y-98672419D01*
X204056265Y-98672419D02*
X204008646Y-99148609D01*
X204008646Y-99148609D02*
X204056265Y-99100990D01*
X204056265Y-99100990D02*
X204151503Y-99053371D01*
X204151503Y-99053371D02*
X204389598Y-99053371D01*
X204389598Y-99053371D02*
X204484836Y-99100990D01*
X204484836Y-99100990D02*
X204532455Y-99148609D01*
X204532455Y-99148609D02*
X204580074Y-99243847D01*
X204580074Y-99243847D02*
X204580074Y-99481942D01*
X204580074Y-99481942D02*
X204532455Y-99577180D01*
X204532455Y-99577180D02*
X204484836Y-99624800D01*
X204484836Y-99624800D02*
X204389598Y-99672419D01*
X204389598Y-99672419D02*
X204151503Y-99672419D01*
X204151503Y-99672419D02*
X204056265Y-99624800D01*
X204056265Y-99624800D02*
X204008646Y-99577180D01*
D11*
X144580780Y-85891666D02*
X144628400Y-85939285D01*
X144628400Y-85939285D02*
X144676019Y-86082142D01*
X144676019Y-86082142D02*
X144676019Y-86177380D01*
X144676019Y-86177380D02*
X144628400Y-86320237D01*
X144628400Y-86320237D02*
X144533161Y-86415475D01*
X144533161Y-86415475D02*
X144437923Y-86463094D01*
X144437923Y-86463094D02*
X144247447Y-86510713D01*
X144247447Y-86510713D02*
X144104590Y-86510713D01*
X144104590Y-86510713D02*
X143914114Y-86463094D01*
X143914114Y-86463094D02*
X143818876Y-86415475D01*
X143818876Y-86415475D02*
X143723638Y-86320237D01*
X143723638Y-86320237D02*
X143676019Y-86177380D01*
X143676019Y-86177380D02*
X143676019Y-86082142D01*
X143676019Y-86082142D02*
X143723638Y-85939285D01*
X143723638Y-85939285D02*
X143771257Y-85891666D01*
X143676019Y-85558332D02*
X143676019Y-84891666D01*
X143676019Y-84891666D02*
X144676019Y-85320237D01*
X181557142Y-88154819D02*
X181223809Y-87678628D01*
X180985714Y-88154819D02*
X180985714Y-87154819D01*
X180985714Y-87154819D02*
X181366666Y-87154819D01*
X181366666Y-87154819D02*
X181461904Y-87202438D01*
X181461904Y-87202438D02*
X181509523Y-87250057D01*
X181509523Y-87250057D02*
X181557142Y-87345295D01*
X181557142Y-87345295D02*
X181557142Y-87488152D01*
X181557142Y-87488152D02*
X181509523Y-87583390D01*
X181509523Y-87583390D02*
X181461904Y-87631009D01*
X181461904Y-87631009D02*
X181366666Y-87678628D01*
X181366666Y-87678628D02*
X180985714Y-87678628D01*
X181938095Y-87250057D02*
X181985714Y-87202438D01*
X181985714Y-87202438D02*
X182080952Y-87154819D01*
X182080952Y-87154819D02*
X182319047Y-87154819D01*
X182319047Y-87154819D02*
X182414285Y-87202438D01*
X182414285Y-87202438D02*
X182461904Y-87250057D01*
X182461904Y-87250057D02*
X182509523Y-87345295D01*
X182509523Y-87345295D02*
X182509523Y-87440533D01*
X182509523Y-87440533D02*
X182461904Y-87583390D01*
X182461904Y-87583390D02*
X181890476Y-88154819D01*
X181890476Y-88154819D02*
X182509523Y-88154819D01*
X183414285Y-87154819D02*
X182938095Y-87154819D01*
X182938095Y-87154819D02*
X182890476Y-87631009D01*
X182890476Y-87631009D02*
X182938095Y-87583390D01*
X182938095Y-87583390D02*
X183033333Y-87535771D01*
X183033333Y-87535771D02*
X183271428Y-87535771D01*
X183271428Y-87535771D02*
X183366666Y-87583390D01*
X183366666Y-87583390D02*
X183414285Y-87631009D01*
X183414285Y-87631009D02*
X183461904Y-87726247D01*
X183461904Y-87726247D02*
X183461904Y-87964342D01*
X183461904Y-87964342D02*
X183414285Y-88059580D01*
X183414285Y-88059580D02*
X183366666Y-88107200D01*
X183366666Y-88107200D02*
X183271428Y-88154819D01*
X183271428Y-88154819D02*
X183033333Y-88154819D01*
X183033333Y-88154819D02*
X182938095Y-88107200D01*
X182938095Y-88107200D02*
X182890476Y-88059580D01*
X193289819Y-103203333D02*
X194004104Y-103203333D01*
X194004104Y-103203333D02*
X194146961Y-103250952D01*
X194146961Y-103250952D02*
X194242200Y-103346190D01*
X194242200Y-103346190D02*
X194289819Y-103489047D01*
X194289819Y-103489047D02*
X194289819Y-103584285D01*
X193289819Y-102250952D02*
X193289819Y-102727142D01*
X193289819Y-102727142D02*
X193766009Y-102774761D01*
X193766009Y-102774761D02*
X193718390Y-102727142D01*
X193718390Y-102727142D02*
X193670771Y-102631904D01*
X193670771Y-102631904D02*
X193670771Y-102393809D01*
X193670771Y-102393809D02*
X193718390Y-102298571D01*
X193718390Y-102298571D02*
X193766009Y-102250952D01*
X193766009Y-102250952D02*
X193861247Y-102203333D01*
X193861247Y-102203333D02*
X194099342Y-102203333D01*
X194099342Y-102203333D02*
X194194580Y-102250952D01*
X194194580Y-102250952D02*
X194242200Y-102298571D01*
X194242200Y-102298571D02*
X194289819Y-102393809D01*
X194289819Y-102393809D02*
X194289819Y-102631904D01*
X194289819Y-102631904D02*
X194242200Y-102727142D01*
X194242200Y-102727142D02*
X194194580Y-102774761D01*
X181277419Y-91143057D02*
X180801228Y-91476390D01*
X181277419Y-91714485D02*
X180277419Y-91714485D01*
X180277419Y-91714485D02*
X180277419Y-91333533D01*
X180277419Y-91333533D02*
X180325038Y-91238295D01*
X180325038Y-91238295D02*
X180372657Y-91190676D01*
X180372657Y-91190676D02*
X180467895Y-91143057D01*
X180467895Y-91143057D02*
X180610752Y-91143057D01*
X180610752Y-91143057D02*
X180705990Y-91190676D01*
X180705990Y-91190676D02*
X180753609Y-91238295D01*
X180753609Y-91238295D02*
X180801228Y-91333533D01*
X180801228Y-91333533D02*
X180801228Y-91714485D01*
X181277419Y-90190676D02*
X181277419Y-90762104D01*
X181277419Y-90476390D02*
X180277419Y-90476390D01*
X180277419Y-90476390D02*
X180420276Y-90571628D01*
X180420276Y-90571628D02*
X180515514Y-90666866D01*
X180515514Y-90666866D02*
X180563133Y-90762104D01*
X180610752Y-89333533D02*
X181277419Y-89333533D01*
X180229800Y-89571628D02*
X180944085Y-89809723D01*
X180944085Y-89809723D02*
X180944085Y-89190676D01*
X201128333Y-83469819D02*
X200795000Y-82993628D01*
X200556905Y-83469819D02*
X200556905Y-82469819D01*
X200556905Y-82469819D02*
X200937857Y-82469819D01*
X200937857Y-82469819D02*
X201033095Y-82517438D01*
X201033095Y-82517438D02*
X201080714Y-82565057D01*
X201080714Y-82565057D02*
X201128333Y-82660295D01*
X201128333Y-82660295D02*
X201128333Y-82803152D01*
X201128333Y-82803152D02*
X201080714Y-82898390D01*
X201080714Y-82898390D02*
X201033095Y-82946009D01*
X201033095Y-82946009D02*
X200937857Y-82993628D01*
X200937857Y-82993628D02*
X200556905Y-82993628D01*
X201461667Y-82469819D02*
X202080714Y-82469819D01*
X202080714Y-82469819D02*
X201747381Y-82850771D01*
X201747381Y-82850771D02*
X201890238Y-82850771D01*
X201890238Y-82850771D02*
X201985476Y-82898390D01*
X201985476Y-82898390D02*
X202033095Y-82946009D01*
X202033095Y-82946009D02*
X202080714Y-83041247D01*
X202080714Y-83041247D02*
X202080714Y-83279342D01*
X202080714Y-83279342D02*
X202033095Y-83374580D01*
X202033095Y-83374580D02*
X201985476Y-83422200D01*
X201985476Y-83422200D02*
X201890238Y-83469819D01*
X201890238Y-83469819D02*
X201604524Y-83469819D01*
X201604524Y-83469819D02*
X201509286Y-83422200D01*
X201509286Y-83422200D02*
X201461667Y-83374580D01*
X175509819Y-103203333D02*
X176224104Y-103203333D01*
X176224104Y-103203333D02*
X176366961Y-103250952D01*
X176366961Y-103250952D02*
X176462200Y-103346190D01*
X176462200Y-103346190D02*
X176509819Y-103489047D01*
X176509819Y-103489047D02*
X176509819Y-103584285D01*
X175843152Y-102298571D02*
X176509819Y-102298571D01*
X175462200Y-102536666D02*
X176176485Y-102774761D01*
X176176485Y-102774761D02*
X176176485Y-102155714D01*
X205054819Y-63109523D02*
X205769104Y-63109523D01*
X205769104Y-63109523D02*
X205911961Y-63157142D01*
X205911961Y-63157142D02*
X206007200Y-63252380D01*
X206007200Y-63252380D02*
X206054819Y-63395237D01*
X206054819Y-63395237D02*
X206054819Y-63490475D01*
X206054819Y-62109523D02*
X206054819Y-62680951D01*
X206054819Y-62395237D02*
X205054819Y-62395237D01*
X205054819Y-62395237D02*
X205197676Y-62490475D01*
X205197676Y-62490475D02*
X205292914Y-62585713D01*
X205292914Y-62585713D02*
X205340533Y-62680951D01*
X205054819Y-61490475D02*
X205054819Y-61395237D01*
X205054819Y-61395237D02*
X205102438Y-61299999D01*
X205102438Y-61299999D02*
X205150057Y-61252380D01*
X205150057Y-61252380D02*
X205245295Y-61204761D01*
X205245295Y-61204761D02*
X205435771Y-61157142D01*
X205435771Y-61157142D02*
X205673866Y-61157142D01*
X205673866Y-61157142D02*
X205864342Y-61204761D01*
X205864342Y-61204761D02*
X205959580Y-61252380D01*
X205959580Y-61252380D02*
X206007200Y-61299999D01*
X206007200Y-61299999D02*
X206054819Y-61395237D01*
X206054819Y-61395237D02*
X206054819Y-61490475D01*
X206054819Y-61490475D02*
X206007200Y-61585713D01*
X206007200Y-61585713D02*
X205959580Y-61633332D01*
X205959580Y-61633332D02*
X205864342Y-61680951D01*
X205864342Y-61680951D02*
X205673866Y-61728570D01*
X205673866Y-61728570D02*
X205435771Y-61728570D01*
X205435771Y-61728570D02*
X205245295Y-61680951D01*
X205245295Y-61680951D02*
X205150057Y-61633332D01*
X205150057Y-61633332D02*
X205102438Y-61585713D01*
X205102438Y-61585713D02*
X205054819Y-61490475D01*
X150529580Y-63016666D02*
X150577200Y-63064285D01*
X150577200Y-63064285D02*
X150624819Y-63207142D01*
X150624819Y-63207142D02*
X150624819Y-63302380D01*
X150624819Y-63302380D02*
X150577200Y-63445237D01*
X150577200Y-63445237D02*
X150481961Y-63540475D01*
X150481961Y-63540475D02*
X150386723Y-63588094D01*
X150386723Y-63588094D02*
X150196247Y-63635713D01*
X150196247Y-63635713D02*
X150053390Y-63635713D01*
X150053390Y-63635713D02*
X149862914Y-63588094D01*
X149862914Y-63588094D02*
X149767676Y-63540475D01*
X149767676Y-63540475D02*
X149672438Y-63445237D01*
X149672438Y-63445237D02*
X149624819Y-63302380D01*
X149624819Y-63302380D02*
X149624819Y-63207142D01*
X149624819Y-63207142D02*
X149672438Y-63064285D01*
X149672438Y-63064285D02*
X149720057Y-63016666D01*
X149624819Y-62683332D02*
X149624819Y-62064285D01*
X149624819Y-62064285D02*
X150005771Y-62397618D01*
X150005771Y-62397618D02*
X150005771Y-62254761D01*
X150005771Y-62254761D02*
X150053390Y-62159523D01*
X150053390Y-62159523D02*
X150101009Y-62111904D01*
X150101009Y-62111904D02*
X150196247Y-62064285D01*
X150196247Y-62064285D02*
X150434342Y-62064285D01*
X150434342Y-62064285D02*
X150529580Y-62111904D01*
X150529580Y-62111904D02*
X150577200Y-62159523D01*
X150577200Y-62159523D02*
X150624819Y-62254761D01*
X150624819Y-62254761D02*
X150624819Y-62540475D01*
X150624819Y-62540475D02*
X150577200Y-62635713D01*
X150577200Y-62635713D02*
X150529580Y-62683332D01*
X170101419Y-91117657D02*
X169625228Y-91450990D01*
X170101419Y-91689085D02*
X169101419Y-91689085D01*
X169101419Y-91689085D02*
X169101419Y-91308133D01*
X169101419Y-91308133D02*
X169149038Y-91212895D01*
X169149038Y-91212895D02*
X169196657Y-91165276D01*
X169196657Y-91165276D02*
X169291895Y-91117657D01*
X169291895Y-91117657D02*
X169434752Y-91117657D01*
X169434752Y-91117657D02*
X169529990Y-91165276D01*
X169529990Y-91165276D02*
X169577609Y-91212895D01*
X169577609Y-91212895D02*
X169625228Y-91308133D01*
X169625228Y-91308133D02*
X169625228Y-91689085D01*
X170101419Y-90165276D02*
X170101419Y-90736704D01*
X170101419Y-90450990D02*
X169101419Y-90450990D01*
X169101419Y-90450990D02*
X169244276Y-90546228D01*
X169244276Y-90546228D02*
X169339514Y-90641466D01*
X169339514Y-90641466D02*
X169387133Y-90736704D01*
X169196657Y-89784323D02*
X169149038Y-89736704D01*
X169149038Y-89736704D02*
X169101419Y-89641466D01*
X169101419Y-89641466D02*
X169101419Y-89403371D01*
X169101419Y-89403371D02*
X169149038Y-89308133D01*
X169149038Y-89308133D02*
X169196657Y-89260514D01*
X169196657Y-89260514D02*
X169291895Y-89212895D01*
X169291895Y-89212895D02*
X169387133Y-89212895D01*
X169387133Y-89212895D02*
X169529990Y-89260514D01*
X169529990Y-89260514D02*
X170101419Y-89831942D01*
X170101419Y-89831942D02*
X170101419Y-89212895D01*
X175509819Y-107013333D02*
X176224104Y-107013333D01*
X176224104Y-107013333D02*
X176366961Y-107060952D01*
X176366961Y-107060952D02*
X176462200Y-107156190D01*
X176462200Y-107156190D02*
X176509819Y-107299047D01*
X176509819Y-107299047D02*
X176509819Y-107394285D01*
X175938390Y-106394285D02*
X175890771Y-106489523D01*
X175890771Y-106489523D02*
X175843152Y-106537142D01*
X175843152Y-106537142D02*
X175747914Y-106584761D01*
X175747914Y-106584761D02*
X175700295Y-106584761D01*
X175700295Y-106584761D02*
X175605057Y-106537142D01*
X175605057Y-106537142D02*
X175557438Y-106489523D01*
X175557438Y-106489523D02*
X175509819Y-106394285D01*
X175509819Y-106394285D02*
X175509819Y-106203809D01*
X175509819Y-106203809D02*
X175557438Y-106108571D01*
X175557438Y-106108571D02*
X175605057Y-106060952D01*
X175605057Y-106060952D02*
X175700295Y-106013333D01*
X175700295Y-106013333D02*
X175747914Y-106013333D01*
X175747914Y-106013333D02*
X175843152Y-106060952D01*
X175843152Y-106060952D02*
X175890771Y-106108571D01*
X175890771Y-106108571D02*
X175938390Y-106203809D01*
X175938390Y-106203809D02*
X175938390Y-106394285D01*
X175938390Y-106394285D02*
X175986009Y-106489523D01*
X175986009Y-106489523D02*
X176033628Y-106537142D01*
X176033628Y-106537142D02*
X176128866Y-106584761D01*
X176128866Y-106584761D02*
X176319342Y-106584761D01*
X176319342Y-106584761D02*
X176414580Y-106537142D01*
X176414580Y-106537142D02*
X176462200Y-106489523D01*
X176462200Y-106489523D02*
X176509819Y-106394285D01*
X176509819Y-106394285D02*
X176509819Y-106203809D01*
X176509819Y-106203809D02*
X176462200Y-106108571D01*
X176462200Y-106108571D02*
X176414580Y-106060952D01*
X176414580Y-106060952D02*
X176319342Y-106013333D01*
X176319342Y-106013333D02*
X176128866Y-106013333D01*
X176128866Y-106013333D02*
X176033628Y-106060952D01*
X176033628Y-106060952D02*
X175986009Y-106108571D01*
X175986009Y-106108571D02*
X175938390Y-106203809D01*
X201969819Y-58433333D02*
X202684104Y-58433333D01*
X202684104Y-58433333D02*
X202826961Y-58480952D01*
X202826961Y-58480952D02*
X202922200Y-58576190D01*
X202922200Y-58576190D02*
X202969819Y-58719047D01*
X202969819Y-58719047D02*
X202969819Y-58814285D01*
X202969819Y-57957142D02*
X201969819Y-57957142D01*
X201969819Y-57957142D02*
X201969819Y-57576190D01*
X201969819Y-57576190D02*
X202017438Y-57480952D01*
X202017438Y-57480952D02*
X202065057Y-57433333D01*
X202065057Y-57433333D02*
X202160295Y-57385714D01*
X202160295Y-57385714D02*
X202303152Y-57385714D01*
X202303152Y-57385714D02*
X202398390Y-57433333D01*
X202398390Y-57433333D02*
X202446009Y-57480952D01*
X202446009Y-57480952D02*
X202493628Y-57576190D01*
X202493628Y-57576190D02*
X202493628Y-57957142D01*
X202969819Y-56433333D02*
X202969819Y-57004761D01*
X202969819Y-56719047D02*
X201969819Y-56719047D01*
X201969819Y-56719047D02*
X202112676Y-56814285D01*
X202112676Y-56814285D02*
X202207914Y-56909523D01*
X202207914Y-56909523D02*
X202255533Y-57004761D01*
X194469819Y-67340476D02*
X194469819Y-67245238D01*
X194469819Y-67245238D02*
X194517438Y-67150000D01*
X194517438Y-67150000D02*
X194565057Y-67102381D01*
X194565057Y-67102381D02*
X194660295Y-67054762D01*
X194660295Y-67054762D02*
X194850771Y-67007143D01*
X194850771Y-67007143D02*
X195088866Y-67007143D01*
X195088866Y-67007143D02*
X195279342Y-67054762D01*
X195279342Y-67054762D02*
X195374580Y-67102381D01*
X195374580Y-67102381D02*
X195422200Y-67150000D01*
X195422200Y-67150000D02*
X195469819Y-67245238D01*
X195469819Y-67245238D02*
X195469819Y-67340476D01*
X195469819Y-67340476D02*
X195422200Y-67435714D01*
X195422200Y-67435714D02*
X195374580Y-67483333D01*
X195374580Y-67483333D02*
X195279342Y-67530952D01*
X195279342Y-67530952D02*
X195088866Y-67578571D01*
X195088866Y-67578571D02*
X194850771Y-67578571D01*
X194850771Y-67578571D02*
X194660295Y-67530952D01*
X194660295Y-67530952D02*
X194565057Y-67483333D01*
X194565057Y-67483333D02*
X194517438Y-67435714D01*
X194517438Y-67435714D02*
X194469819Y-67340476D01*
X194946009Y-65816666D02*
X194946009Y-65054762D01*
X195231723Y-65054762D02*
X195231723Y-65816666D01*
X194803152Y-63959523D02*
X194803152Y-63578571D01*
X195469819Y-63816666D02*
X194612676Y-63816666D01*
X194612676Y-63816666D02*
X194517438Y-63769047D01*
X194517438Y-63769047D02*
X194469819Y-63673809D01*
X194469819Y-63673809D02*
X194469819Y-63578571D01*
X195469819Y-63102380D02*
X195422200Y-63197618D01*
X195422200Y-63197618D02*
X195374580Y-63245237D01*
X195374580Y-63245237D02*
X195279342Y-63292856D01*
X195279342Y-63292856D02*
X194993628Y-63292856D01*
X194993628Y-63292856D02*
X194898390Y-63245237D01*
X194898390Y-63245237D02*
X194850771Y-63197618D01*
X194850771Y-63197618D02*
X194803152Y-63102380D01*
X194803152Y-63102380D02*
X194803152Y-62959523D01*
X194803152Y-62959523D02*
X194850771Y-62864285D01*
X194850771Y-62864285D02*
X194898390Y-62816666D01*
X194898390Y-62816666D02*
X194993628Y-62769047D01*
X194993628Y-62769047D02*
X195279342Y-62769047D01*
X195279342Y-62769047D02*
X195374580Y-62816666D01*
X195374580Y-62816666D02*
X195422200Y-62864285D01*
X195422200Y-62864285D02*
X195469819Y-62959523D01*
X195469819Y-62959523D02*
X195469819Y-63102380D01*
X195469819Y-62340475D02*
X194803152Y-62340475D01*
X194993628Y-62340475D02*
X194898390Y-62292856D01*
X194898390Y-62292856D02*
X194850771Y-62245237D01*
X194850771Y-62245237D02*
X194803152Y-62149999D01*
X194803152Y-62149999D02*
X194803152Y-62054761D01*
X195422200Y-61292856D02*
X195469819Y-61388094D01*
X195469819Y-61388094D02*
X195469819Y-61578570D01*
X195469819Y-61578570D02*
X195422200Y-61673808D01*
X195422200Y-61673808D02*
X195374580Y-61721427D01*
X195374580Y-61721427D02*
X195279342Y-61769046D01*
X195279342Y-61769046D02*
X194993628Y-61769046D01*
X194993628Y-61769046D02*
X194898390Y-61721427D01*
X194898390Y-61721427D02*
X194850771Y-61673808D01*
X194850771Y-61673808D02*
X194803152Y-61578570D01*
X194803152Y-61578570D02*
X194803152Y-61388094D01*
X194803152Y-61388094D02*
X194850771Y-61292856D01*
X195422200Y-60483332D02*
X195469819Y-60578570D01*
X195469819Y-60578570D02*
X195469819Y-60769046D01*
X195469819Y-60769046D02*
X195422200Y-60864284D01*
X195422200Y-60864284D02*
X195326961Y-60911903D01*
X195326961Y-60911903D02*
X194946009Y-60911903D01*
X194946009Y-60911903D02*
X194850771Y-60864284D01*
X194850771Y-60864284D02*
X194803152Y-60769046D01*
X194803152Y-60769046D02*
X194803152Y-60578570D01*
X194803152Y-60578570D02*
X194850771Y-60483332D01*
X194850771Y-60483332D02*
X194946009Y-60435713D01*
X194946009Y-60435713D02*
X195041247Y-60435713D01*
X195041247Y-60435713D02*
X195136485Y-60911903D01*
X194469819Y-59340474D02*
X195469819Y-59102379D01*
X195469819Y-59102379D02*
X194755533Y-58911903D01*
X194755533Y-58911903D02*
X195469819Y-58721427D01*
X195469819Y-58721427D02*
X194469819Y-58483332D01*
X195469819Y-58102379D02*
X194469819Y-58102379D01*
X194946009Y-57292856D02*
X194946009Y-57626189D01*
X195469819Y-57626189D02*
X194469819Y-57626189D01*
X194469819Y-57626189D02*
X194469819Y-57149999D01*
X195469819Y-56769046D02*
X194469819Y-56769046D01*
D10*
X179666666Y-84457419D02*
X179666666Y-85171704D01*
X179666666Y-85171704D02*
X179619047Y-85314561D01*
X179619047Y-85314561D02*
X179523809Y-85409800D01*
X179523809Y-85409800D02*
X179380952Y-85457419D01*
X179380952Y-85457419D02*
X179285714Y-85457419D01*
X180666666Y-85457419D02*
X180095238Y-85457419D01*
X180380952Y-85457419D02*
X180380952Y-84457419D01*
X180380952Y-84457419D02*
X180285714Y-84600276D01*
X180285714Y-84600276D02*
X180190476Y-84695514D01*
X180190476Y-84695514D02*
X180095238Y-84743133D01*
D11*
X172454819Y-87333332D02*
X173454819Y-87095237D01*
X173454819Y-87095237D02*
X172740533Y-86904761D01*
X172740533Y-86904761D02*
X173454819Y-86714285D01*
X173454819Y-86714285D02*
X172454819Y-86476190D01*
X172454819Y-85619047D02*
X172454819Y-86095237D01*
X172454819Y-86095237D02*
X172931009Y-86142856D01*
X172931009Y-86142856D02*
X172883390Y-86095237D01*
X172883390Y-86095237D02*
X172835771Y-85999999D01*
X172835771Y-85999999D02*
X172835771Y-85761904D01*
X172835771Y-85761904D02*
X172883390Y-85666666D01*
X172883390Y-85666666D02*
X172931009Y-85619047D01*
X172931009Y-85619047D02*
X173026247Y-85571428D01*
X173026247Y-85571428D02*
X173264342Y-85571428D01*
X173264342Y-85571428D02*
X173359580Y-85619047D01*
X173359580Y-85619047D02*
X173407200Y-85666666D01*
X173407200Y-85666666D02*
X173454819Y-85761904D01*
X173454819Y-85761904D02*
X173454819Y-85999999D01*
X173454819Y-85999999D02*
X173407200Y-86095237D01*
X173407200Y-86095237D02*
X173359580Y-86142856D01*
X172454819Y-84666666D02*
X172454819Y-85142856D01*
X172454819Y-85142856D02*
X172931009Y-85190475D01*
X172931009Y-85190475D02*
X172883390Y-85142856D01*
X172883390Y-85142856D02*
X172835771Y-85047618D01*
X172835771Y-85047618D02*
X172835771Y-84809523D01*
X172835771Y-84809523D02*
X172883390Y-84714285D01*
X172883390Y-84714285D02*
X172931009Y-84666666D01*
X172931009Y-84666666D02*
X173026247Y-84619047D01*
X173026247Y-84619047D02*
X173264342Y-84619047D01*
X173264342Y-84619047D02*
X173359580Y-84666666D01*
X173359580Y-84666666D02*
X173407200Y-84714285D01*
X173407200Y-84714285D02*
X173454819Y-84809523D01*
X173454819Y-84809523D02*
X173454819Y-85047618D01*
X173454819Y-85047618D02*
X173407200Y-85142856D01*
X173407200Y-85142856D02*
X173359580Y-85190475D01*
X172454819Y-83999999D02*
X172454819Y-83904761D01*
X172454819Y-83904761D02*
X172502438Y-83809523D01*
X172502438Y-83809523D02*
X172550057Y-83761904D01*
X172550057Y-83761904D02*
X172645295Y-83714285D01*
X172645295Y-83714285D02*
X172835771Y-83666666D01*
X172835771Y-83666666D02*
X173073866Y-83666666D01*
X173073866Y-83666666D02*
X173264342Y-83714285D01*
X173264342Y-83714285D02*
X173359580Y-83761904D01*
X173359580Y-83761904D02*
X173407200Y-83809523D01*
X173407200Y-83809523D02*
X173454819Y-83904761D01*
X173454819Y-83904761D02*
X173454819Y-83999999D01*
X173454819Y-83999999D02*
X173407200Y-84095237D01*
X173407200Y-84095237D02*
X173359580Y-84142856D01*
X173359580Y-84142856D02*
X173264342Y-84190475D01*
X173264342Y-84190475D02*
X173073866Y-84238094D01*
X173073866Y-84238094D02*
X172835771Y-84238094D01*
X172835771Y-84238094D02*
X172645295Y-84190475D01*
X172645295Y-84190475D02*
X172550057Y-84142856D01*
X172550057Y-84142856D02*
X172502438Y-84095237D01*
X172502438Y-84095237D02*
X172454819Y-83999999D01*
X172454819Y-83047618D02*
X172454819Y-82952380D01*
X172454819Y-82952380D02*
X172502438Y-82857142D01*
X172502438Y-82857142D02*
X172550057Y-82809523D01*
X172550057Y-82809523D02*
X172645295Y-82761904D01*
X172645295Y-82761904D02*
X172835771Y-82714285D01*
X172835771Y-82714285D02*
X173073866Y-82714285D01*
X173073866Y-82714285D02*
X173264342Y-82761904D01*
X173264342Y-82761904D02*
X173359580Y-82809523D01*
X173359580Y-82809523D02*
X173407200Y-82857142D01*
X173407200Y-82857142D02*
X173454819Y-82952380D01*
X173454819Y-82952380D02*
X173454819Y-83047618D01*
X173454819Y-83047618D02*
X173407200Y-83142856D01*
X173407200Y-83142856D02*
X173359580Y-83190475D01*
X173359580Y-83190475D02*
X173264342Y-83238094D01*
X173264342Y-83238094D02*
X173073866Y-83285713D01*
X173073866Y-83285713D02*
X172835771Y-83285713D01*
X172835771Y-83285713D02*
X172645295Y-83238094D01*
X172645295Y-83238094D02*
X172550057Y-83190475D01*
X172550057Y-83190475D02*
X172502438Y-83142856D01*
X172502438Y-83142856D02*
X172454819Y-83047618D01*
X167378142Y-68954819D02*
X167044809Y-68478628D01*
X166806714Y-68954819D02*
X166806714Y-67954819D01*
X166806714Y-67954819D02*
X167187666Y-67954819D01*
X167187666Y-67954819D02*
X167282904Y-68002438D01*
X167282904Y-68002438D02*
X167330523Y-68050057D01*
X167330523Y-68050057D02*
X167378142Y-68145295D01*
X167378142Y-68145295D02*
X167378142Y-68288152D01*
X167378142Y-68288152D02*
X167330523Y-68383390D01*
X167330523Y-68383390D02*
X167282904Y-68431009D01*
X167282904Y-68431009D02*
X167187666Y-68478628D01*
X167187666Y-68478628D02*
X166806714Y-68478628D01*
X167759095Y-68050057D02*
X167806714Y-68002438D01*
X167806714Y-68002438D02*
X167901952Y-67954819D01*
X167901952Y-67954819D02*
X168140047Y-67954819D01*
X168140047Y-67954819D02*
X168235285Y-68002438D01*
X168235285Y-68002438D02*
X168282904Y-68050057D01*
X168282904Y-68050057D02*
X168330523Y-68145295D01*
X168330523Y-68145295D02*
X168330523Y-68240533D01*
X168330523Y-68240533D02*
X168282904Y-68383390D01*
X168282904Y-68383390D02*
X167711476Y-68954819D01*
X167711476Y-68954819D02*
X168330523Y-68954819D01*
X168663857Y-67954819D02*
X169282904Y-67954819D01*
X169282904Y-67954819D02*
X168949571Y-68335771D01*
X168949571Y-68335771D02*
X169092428Y-68335771D01*
X169092428Y-68335771D02*
X169187666Y-68383390D01*
X169187666Y-68383390D02*
X169235285Y-68431009D01*
X169235285Y-68431009D02*
X169282904Y-68526247D01*
X169282904Y-68526247D02*
X169282904Y-68764342D01*
X169282904Y-68764342D02*
X169235285Y-68859580D01*
X169235285Y-68859580D02*
X169187666Y-68907200D01*
X169187666Y-68907200D02*
X169092428Y-68954819D01*
X169092428Y-68954819D02*
X168806714Y-68954819D01*
X168806714Y-68954819D02*
X168711476Y-68907200D01*
X168711476Y-68907200D02*
X168663857Y-68859580D01*
X146968380Y-78474866D02*
X147016000Y-78522485D01*
X147016000Y-78522485D02*
X147063619Y-78665342D01*
X147063619Y-78665342D02*
X147063619Y-78760580D01*
X147063619Y-78760580D02*
X147016000Y-78903437D01*
X147016000Y-78903437D02*
X146920761Y-78998675D01*
X146920761Y-78998675D02*
X146825523Y-79046294D01*
X146825523Y-79046294D02*
X146635047Y-79093913D01*
X146635047Y-79093913D02*
X146492190Y-79093913D01*
X146492190Y-79093913D02*
X146301714Y-79046294D01*
X146301714Y-79046294D02*
X146206476Y-78998675D01*
X146206476Y-78998675D02*
X146111238Y-78903437D01*
X146111238Y-78903437D02*
X146063619Y-78760580D01*
X146063619Y-78760580D02*
X146063619Y-78665342D01*
X146063619Y-78665342D02*
X146111238Y-78522485D01*
X146111238Y-78522485D02*
X146158857Y-78474866D01*
X146396952Y-77617723D02*
X147063619Y-77617723D01*
X146016000Y-77855818D02*
X146730285Y-78093913D01*
X146730285Y-78093913D02*
X146730285Y-77474866D01*
X160525619Y-91098666D02*
X160049428Y-91431999D01*
X160525619Y-91670094D02*
X159525619Y-91670094D01*
X159525619Y-91670094D02*
X159525619Y-91289142D01*
X159525619Y-91289142D02*
X159573238Y-91193904D01*
X159573238Y-91193904D02*
X159620857Y-91146285D01*
X159620857Y-91146285D02*
X159716095Y-91098666D01*
X159716095Y-91098666D02*
X159858952Y-91098666D01*
X159858952Y-91098666D02*
X159954190Y-91146285D01*
X159954190Y-91146285D02*
X160001809Y-91193904D01*
X160001809Y-91193904D02*
X160049428Y-91289142D01*
X160049428Y-91289142D02*
X160049428Y-91670094D01*
X160525619Y-90622475D02*
X160525619Y-90431999D01*
X160525619Y-90431999D02*
X160478000Y-90336761D01*
X160478000Y-90336761D02*
X160430380Y-90289142D01*
X160430380Y-90289142D02*
X160287523Y-90193904D01*
X160287523Y-90193904D02*
X160097047Y-90146285D01*
X160097047Y-90146285D02*
X159716095Y-90146285D01*
X159716095Y-90146285D02*
X159620857Y-90193904D01*
X159620857Y-90193904D02*
X159573238Y-90241523D01*
X159573238Y-90241523D02*
X159525619Y-90336761D01*
X159525619Y-90336761D02*
X159525619Y-90527237D01*
X159525619Y-90527237D02*
X159573238Y-90622475D01*
X159573238Y-90622475D02*
X159620857Y-90670094D01*
X159620857Y-90670094D02*
X159716095Y-90717713D01*
X159716095Y-90717713D02*
X159954190Y-90717713D01*
X159954190Y-90717713D02*
X160049428Y-90670094D01*
X160049428Y-90670094D02*
X160097047Y-90622475D01*
X160097047Y-90622475D02*
X160144666Y-90527237D01*
X160144666Y-90527237D02*
X160144666Y-90336761D01*
X160144666Y-90336761D02*
X160097047Y-90241523D01*
X160097047Y-90241523D02*
X160049428Y-90193904D01*
X160049428Y-90193904D02*
X159954190Y-90146285D01*
X181557142Y-82154819D02*
X181223809Y-81678628D01*
X180985714Y-82154819D02*
X180985714Y-81154819D01*
X180985714Y-81154819D02*
X181366666Y-81154819D01*
X181366666Y-81154819D02*
X181461904Y-81202438D01*
X181461904Y-81202438D02*
X181509523Y-81250057D01*
X181509523Y-81250057D02*
X181557142Y-81345295D01*
X181557142Y-81345295D02*
X181557142Y-81488152D01*
X181557142Y-81488152D02*
X181509523Y-81583390D01*
X181509523Y-81583390D02*
X181461904Y-81631009D01*
X181461904Y-81631009D02*
X181366666Y-81678628D01*
X181366666Y-81678628D02*
X180985714Y-81678628D01*
X181938095Y-81250057D02*
X181985714Y-81202438D01*
X181985714Y-81202438D02*
X182080952Y-81154819D01*
X182080952Y-81154819D02*
X182319047Y-81154819D01*
X182319047Y-81154819D02*
X182414285Y-81202438D01*
X182414285Y-81202438D02*
X182461904Y-81250057D01*
X182461904Y-81250057D02*
X182509523Y-81345295D01*
X182509523Y-81345295D02*
X182509523Y-81440533D01*
X182509523Y-81440533D02*
X182461904Y-81583390D01*
X182461904Y-81583390D02*
X181890476Y-82154819D01*
X181890476Y-82154819D02*
X182509523Y-82154819D01*
X183366666Y-81154819D02*
X183176190Y-81154819D01*
X183176190Y-81154819D02*
X183080952Y-81202438D01*
X183080952Y-81202438D02*
X183033333Y-81250057D01*
X183033333Y-81250057D02*
X182938095Y-81392914D01*
X182938095Y-81392914D02*
X182890476Y-81583390D01*
X182890476Y-81583390D02*
X182890476Y-81964342D01*
X182890476Y-81964342D02*
X182938095Y-82059580D01*
X182938095Y-82059580D02*
X182985714Y-82107200D01*
X182985714Y-82107200D02*
X183080952Y-82154819D01*
X183080952Y-82154819D02*
X183271428Y-82154819D01*
X183271428Y-82154819D02*
X183366666Y-82107200D01*
X183366666Y-82107200D02*
X183414285Y-82059580D01*
X183414285Y-82059580D02*
X183461904Y-81964342D01*
X183461904Y-81964342D02*
X183461904Y-81726247D01*
X183461904Y-81726247D02*
X183414285Y-81631009D01*
X183414285Y-81631009D02*
X183366666Y-81583390D01*
X183366666Y-81583390D02*
X183271428Y-81535771D01*
X183271428Y-81535771D02*
X183080952Y-81535771D01*
X183080952Y-81535771D02*
X182985714Y-81583390D01*
X182985714Y-81583390D02*
X182938095Y-81631009D01*
X182938095Y-81631009D02*
X182890476Y-81726247D01*
X142771019Y-90971666D02*
X142294828Y-91304999D01*
X142771019Y-91543094D02*
X141771019Y-91543094D01*
X141771019Y-91543094D02*
X141771019Y-91162142D01*
X141771019Y-91162142D02*
X141818638Y-91066904D01*
X141818638Y-91066904D02*
X141866257Y-91019285D01*
X141866257Y-91019285D02*
X141961495Y-90971666D01*
X141961495Y-90971666D02*
X142104352Y-90971666D01*
X142104352Y-90971666D02*
X142199590Y-91019285D01*
X142199590Y-91019285D02*
X142247209Y-91066904D01*
X142247209Y-91066904D02*
X142294828Y-91162142D01*
X142294828Y-91162142D02*
X142294828Y-91543094D01*
X141771019Y-90066904D02*
X141771019Y-90543094D01*
X141771019Y-90543094D02*
X142247209Y-90590713D01*
X142247209Y-90590713D02*
X142199590Y-90543094D01*
X142199590Y-90543094D02*
X142151971Y-90447856D01*
X142151971Y-90447856D02*
X142151971Y-90209761D01*
X142151971Y-90209761D02*
X142199590Y-90114523D01*
X142199590Y-90114523D02*
X142247209Y-90066904D01*
X142247209Y-90066904D02*
X142342447Y-90019285D01*
X142342447Y-90019285D02*
X142580542Y-90019285D01*
X142580542Y-90019285D02*
X142675780Y-90066904D01*
X142675780Y-90066904D02*
X142723400Y-90114523D01*
X142723400Y-90114523D02*
X142771019Y-90209761D01*
X142771019Y-90209761D02*
X142771019Y-90447856D01*
X142771019Y-90447856D02*
X142723400Y-90543094D01*
X142723400Y-90543094D02*
X142675780Y-90590713D01*
X166875619Y-91016057D02*
X166399428Y-91349390D01*
X166875619Y-91587485D02*
X165875619Y-91587485D01*
X165875619Y-91587485D02*
X165875619Y-91206533D01*
X165875619Y-91206533D02*
X165923238Y-91111295D01*
X165923238Y-91111295D02*
X165970857Y-91063676D01*
X165970857Y-91063676D02*
X166066095Y-91016057D01*
X166066095Y-91016057D02*
X166208952Y-91016057D01*
X166208952Y-91016057D02*
X166304190Y-91063676D01*
X166304190Y-91063676D02*
X166351809Y-91111295D01*
X166351809Y-91111295D02*
X166399428Y-91206533D01*
X166399428Y-91206533D02*
X166399428Y-91587485D01*
X166875619Y-90063676D02*
X166875619Y-90635104D01*
X166875619Y-90349390D02*
X165875619Y-90349390D01*
X165875619Y-90349390D02*
X166018476Y-90444628D01*
X166018476Y-90444628D02*
X166113714Y-90539866D01*
X166113714Y-90539866D02*
X166161333Y-90635104D01*
X166875619Y-89111295D02*
X166875619Y-89682723D01*
X166875619Y-89397009D02*
X165875619Y-89397009D01*
X165875619Y-89397009D02*
X166018476Y-89492247D01*
X166018476Y-89492247D02*
X166113714Y-89587485D01*
X166113714Y-89587485D02*
X166161333Y-89682723D01*
X153427133Y-83011180D02*
X153379514Y-83058800D01*
X153379514Y-83058800D02*
X153236657Y-83106419D01*
X153236657Y-83106419D02*
X153141419Y-83106419D01*
X153141419Y-83106419D02*
X152998562Y-83058800D01*
X152998562Y-83058800D02*
X152903324Y-82963561D01*
X152903324Y-82963561D02*
X152855705Y-82868323D01*
X152855705Y-82868323D02*
X152808086Y-82677847D01*
X152808086Y-82677847D02*
X152808086Y-82534990D01*
X152808086Y-82534990D02*
X152855705Y-82344514D01*
X152855705Y-82344514D02*
X152903324Y-82249276D01*
X152903324Y-82249276D02*
X152998562Y-82154038D01*
X152998562Y-82154038D02*
X153141419Y-82106419D01*
X153141419Y-82106419D02*
X153236657Y-82106419D01*
X153236657Y-82106419D02*
X153379514Y-82154038D01*
X153379514Y-82154038D02*
X153427133Y-82201657D01*
X154379514Y-83106419D02*
X153808086Y-83106419D01*
X154093800Y-83106419D02*
X154093800Y-82106419D01*
X154093800Y-82106419D02*
X153998562Y-82249276D01*
X153998562Y-82249276D02*
X153903324Y-82344514D01*
X153903324Y-82344514D02*
X153808086Y-82392133D01*
X139473333Y-73859580D02*
X139425714Y-73907200D01*
X139425714Y-73907200D02*
X139282857Y-73954819D01*
X139282857Y-73954819D02*
X139187619Y-73954819D01*
X139187619Y-73954819D02*
X139044762Y-73907200D01*
X139044762Y-73907200D02*
X138949524Y-73811961D01*
X138949524Y-73811961D02*
X138901905Y-73716723D01*
X138901905Y-73716723D02*
X138854286Y-73526247D01*
X138854286Y-73526247D02*
X138854286Y-73383390D01*
X138854286Y-73383390D02*
X138901905Y-73192914D01*
X138901905Y-73192914D02*
X138949524Y-73097676D01*
X138949524Y-73097676D02*
X139044762Y-73002438D01*
X139044762Y-73002438D02*
X139187619Y-72954819D01*
X139187619Y-72954819D02*
X139282857Y-72954819D01*
X139282857Y-72954819D02*
X139425714Y-73002438D01*
X139425714Y-73002438D02*
X139473333Y-73050057D01*
X139854286Y-73050057D02*
X139901905Y-73002438D01*
X139901905Y-73002438D02*
X139997143Y-72954819D01*
X139997143Y-72954819D02*
X140235238Y-72954819D01*
X140235238Y-72954819D02*
X140330476Y-73002438D01*
X140330476Y-73002438D02*
X140378095Y-73050057D01*
X140378095Y-73050057D02*
X140425714Y-73145295D01*
X140425714Y-73145295D02*
X140425714Y-73240533D01*
X140425714Y-73240533D02*
X140378095Y-73383390D01*
X140378095Y-73383390D02*
X139806667Y-73954819D01*
X139806667Y-73954819D02*
X140425714Y-73954819D01*
X179254819Y-91142857D02*
X178778628Y-91476190D01*
X179254819Y-91714285D02*
X178254819Y-91714285D01*
X178254819Y-91714285D02*
X178254819Y-91333333D01*
X178254819Y-91333333D02*
X178302438Y-91238095D01*
X178302438Y-91238095D02*
X178350057Y-91190476D01*
X178350057Y-91190476D02*
X178445295Y-91142857D01*
X178445295Y-91142857D02*
X178588152Y-91142857D01*
X178588152Y-91142857D02*
X178683390Y-91190476D01*
X178683390Y-91190476D02*
X178731009Y-91238095D01*
X178731009Y-91238095D02*
X178778628Y-91333333D01*
X178778628Y-91333333D02*
X178778628Y-91714285D01*
X179254819Y-90190476D02*
X179254819Y-90761904D01*
X179254819Y-90476190D02*
X178254819Y-90476190D01*
X178254819Y-90476190D02*
X178397676Y-90571428D01*
X178397676Y-90571428D02*
X178492914Y-90666666D01*
X178492914Y-90666666D02*
X178540533Y-90761904D01*
X178254819Y-89857142D02*
X178254819Y-89238095D01*
X178254819Y-89238095D02*
X178635771Y-89571428D01*
X178635771Y-89571428D02*
X178635771Y-89428571D01*
X178635771Y-89428571D02*
X178683390Y-89333333D01*
X178683390Y-89333333D02*
X178731009Y-89285714D01*
X178731009Y-89285714D02*
X178826247Y-89238095D01*
X178826247Y-89238095D02*
X179064342Y-89238095D01*
X179064342Y-89238095D02*
X179159580Y-89285714D01*
X179159580Y-89285714D02*
X179207200Y-89333333D01*
X179207200Y-89333333D02*
X179254819Y-89428571D01*
X179254819Y-89428571D02*
X179254819Y-89714285D01*
X179254819Y-89714285D02*
X179207200Y-89809523D01*
X179207200Y-89809523D02*
X179159580Y-89857142D01*
X138757142Y-56654819D02*
X138423809Y-56178628D01*
X138185714Y-56654819D02*
X138185714Y-55654819D01*
X138185714Y-55654819D02*
X138566666Y-55654819D01*
X138566666Y-55654819D02*
X138661904Y-55702438D01*
X138661904Y-55702438D02*
X138709523Y-55750057D01*
X138709523Y-55750057D02*
X138757142Y-55845295D01*
X138757142Y-55845295D02*
X138757142Y-55988152D01*
X138757142Y-55988152D02*
X138709523Y-56083390D01*
X138709523Y-56083390D02*
X138661904Y-56131009D01*
X138661904Y-56131009D02*
X138566666Y-56178628D01*
X138566666Y-56178628D02*
X138185714Y-56178628D01*
X139138095Y-55750057D02*
X139185714Y-55702438D01*
X139185714Y-55702438D02*
X139280952Y-55654819D01*
X139280952Y-55654819D02*
X139519047Y-55654819D01*
X139519047Y-55654819D02*
X139614285Y-55702438D01*
X139614285Y-55702438D02*
X139661904Y-55750057D01*
X139661904Y-55750057D02*
X139709523Y-55845295D01*
X139709523Y-55845295D02*
X139709523Y-55940533D01*
X139709523Y-55940533D02*
X139661904Y-56083390D01*
X139661904Y-56083390D02*
X139090476Y-56654819D01*
X139090476Y-56654819D02*
X139709523Y-56654819D01*
X140661904Y-56654819D02*
X140090476Y-56654819D01*
X140376190Y-56654819D02*
X140376190Y-55654819D01*
X140376190Y-55654819D02*
X140280952Y-55797676D01*
X140280952Y-55797676D02*
X140185714Y-55892914D01*
X140185714Y-55892914D02*
X140090476Y-55940533D01*
X193454819Y-75261904D02*
X194264342Y-75261904D01*
X194264342Y-75261904D02*
X194359580Y-75214285D01*
X194359580Y-75214285D02*
X194407200Y-75166666D01*
X194407200Y-75166666D02*
X194454819Y-75071428D01*
X194454819Y-75071428D02*
X194454819Y-74880952D01*
X194454819Y-74880952D02*
X194407200Y-74785714D01*
X194407200Y-74785714D02*
X194359580Y-74738095D01*
X194359580Y-74738095D02*
X194264342Y-74690476D01*
X194264342Y-74690476D02*
X193454819Y-74690476D01*
X194454819Y-73690476D02*
X194454819Y-74261904D01*
X194454819Y-73976190D02*
X193454819Y-73976190D01*
X193454819Y-73976190D02*
X193597676Y-74071428D01*
X193597676Y-74071428D02*
X193692914Y-74166666D01*
X193692914Y-74166666D02*
X193740533Y-74261904D01*
X176986191Y-75561009D02*
X177319524Y-75561009D01*
X177462381Y-76084819D02*
X176986191Y-76084819D01*
X176986191Y-76084819D02*
X176986191Y-75084819D01*
X176986191Y-75084819D02*
X177462381Y-75084819D01*
X177843334Y-76037200D02*
X177986191Y-76084819D01*
X177986191Y-76084819D02*
X178224286Y-76084819D01*
X178224286Y-76084819D02*
X178319524Y-76037200D01*
X178319524Y-76037200D02*
X178367143Y-75989580D01*
X178367143Y-75989580D02*
X178414762Y-75894342D01*
X178414762Y-75894342D02*
X178414762Y-75799104D01*
X178414762Y-75799104D02*
X178367143Y-75703866D01*
X178367143Y-75703866D02*
X178319524Y-75656247D01*
X178319524Y-75656247D02*
X178224286Y-75608628D01*
X178224286Y-75608628D02*
X178033810Y-75561009D01*
X178033810Y-75561009D02*
X177938572Y-75513390D01*
X177938572Y-75513390D02*
X177890953Y-75465771D01*
X177890953Y-75465771D02*
X177843334Y-75370533D01*
X177843334Y-75370533D02*
X177843334Y-75275295D01*
X177843334Y-75275295D02*
X177890953Y-75180057D01*
X177890953Y-75180057D02*
X177938572Y-75132438D01*
X177938572Y-75132438D02*
X178033810Y-75084819D01*
X178033810Y-75084819D02*
X178271905Y-75084819D01*
X178271905Y-75084819D02*
X178414762Y-75132438D01*
X178843334Y-76084819D02*
X178843334Y-75084819D01*
X178843334Y-75084819D02*
X179224286Y-75084819D01*
X179224286Y-75084819D02*
X179319524Y-75132438D01*
X179319524Y-75132438D02*
X179367143Y-75180057D01*
X179367143Y-75180057D02*
X179414762Y-75275295D01*
X179414762Y-75275295D02*
X179414762Y-75418152D01*
X179414762Y-75418152D02*
X179367143Y-75513390D01*
X179367143Y-75513390D02*
X179319524Y-75561009D01*
X179319524Y-75561009D02*
X179224286Y-75608628D01*
X179224286Y-75608628D02*
X178843334Y-75608628D01*
X179748096Y-75084819D02*
X180367143Y-75084819D01*
X180367143Y-75084819D02*
X180033810Y-75465771D01*
X180033810Y-75465771D02*
X180176667Y-75465771D01*
X180176667Y-75465771D02*
X180271905Y-75513390D01*
X180271905Y-75513390D02*
X180319524Y-75561009D01*
X180319524Y-75561009D02*
X180367143Y-75656247D01*
X180367143Y-75656247D02*
X180367143Y-75894342D01*
X180367143Y-75894342D02*
X180319524Y-75989580D01*
X180319524Y-75989580D02*
X180271905Y-76037200D01*
X180271905Y-76037200D02*
X180176667Y-76084819D01*
X180176667Y-76084819D02*
X179890953Y-76084819D01*
X179890953Y-76084819D02*
X179795715Y-76037200D01*
X179795715Y-76037200D02*
X179748096Y-75989580D01*
X180748096Y-75180057D02*
X180795715Y-75132438D01*
X180795715Y-75132438D02*
X180890953Y-75084819D01*
X180890953Y-75084819D02*
X181129048Y-75084819D01*
X181129048Y-75084819D02*
X181224286Y-75132438D01*
X181224286Y-75132438D02*
X181271905Y-75180057D01*
X181271905Y-75180057D02*
X181319524Y-75275295D01*
X181319524Y-75275295D02*
X181319524Y-75370533D01*
X181319524Y-75370533D02*
X181271905Y-75513390D01*
X181271905Y-75513390D02*
X180700477Y-76084819D01*
X180700477Y-76084819D02*
X181319524Y-76084819D01*
X181748096Y-75703866D02*
X182510001Y-75703866D01*
X182890953Y-75084819D02*
X183129048Y-76084819D01*
X183129048Y-76084819D02*
X183319524Y-75370533D01*
X183319524Y-75370533D02*
X183510000Y-76084819D01*
X183510000Y-76084819D02*
X183748096Y-75084819D01*
X184700476Y-76084819D02*
X184367143Y-75608628D01*
X184129048Y-76084819D02*
X184129048Y-75084819D01*
X184129048Y-75084819D02*
X184510000Y-75084819D01*
X184510000Y-75084819D02*
X184605238Y-75132438D01*
X184605238Y-75132438D02*
X184652857Y-75180057D01*
X184652857Y-75180057D02*
X184700476Y-75275295D01*
X184700476Y-75275295D02*
X184700476Y-75418152D01*
X184700476Y-75418152D02*
X184652857Y-75513390D01*
X184652857Y-75513390D02*
X184605238Y-75561009D01*
X184605238Y-75561009D02*
X184510000Y-75608628D01*
X184510000Y-75608628D02*
X184129048Y-75608628D01*
X185319524Y-75084819D02*
X185510000Y-75084819D01*
X185510000Y-75084819D02*
X185605238Y-75132438D01*
X185605238Y-75132438D02*
X185700476Y-75227676D01*
X185700476Y-75227676D02*
X185748095Y-75418152D01*
X185748095Y-75418152D02*
X185748095Y-75751485D01*
X185748095Y-75751485D02*
X185700476Y-75941961D01*
X185700476Y-75941961D02*
X185605238Y-76037200D01*
X185605238Y-76037200D02*
X185510000Y-76084819D01*
X185510000Y-76084819D02*
X185319524Y-76084819D01*
X185319524Y-76084819D02*
X185224286Y-76037200D01*
X185224286Y-76037200D02*
X185129048Y-75941961D01*
X185129048Y-75941961D02*
X185081429Y-75751485D01*
X185081429Y-75751485D02*
X185081429Y-75418152D01*
X185081429Y-75418152D02*
X185129048Y-75227676D01*
X185129048Y-75227676D02*
X185224286Y-75132438D01*
X185224286Y-75132438D02*
X185319524Y-75084819D01*
X186367143Y-75084819D02*
X186557619Y-75084819D01*
X186557619Y-75084819D02*
X186652857Y-75132438D01*
X186652857Y-75132438D02*
X186748095Y-75227676D01*
X186748095Y-75227676D02*
X186795714Y-75418152D01*
X186795714Y-75418152D02*
X186795714Y-75751485D01*
X186795714Y-75751485D02*
X186748095Y-75941961D01*
X186748095Y-75941961D02*
X186652857Y-76037200D01*
X186652857Y-76037200D02*
X186557619Y-76084819D01*
X186557619Y-76084819D02*
X186367143Y-76084819D01*
X186367143Y-76084819D02*
X186271905Y-76037200D01*
X186271905Y-76037200D02*
X186176667Y-75941961D01*
X186176667Y-75941961D02*
X186129048Y-75751485D01*
X186129048Y-75751485D02*
X186129048Y-75418152D01*
X186129048Y-75418152D02*
X186176667Y-75227676D01*
X186176667Y-75227676D02*
X186271905Y-75132438D01*
X186271905Y-75132438D02*
X186367143Y-75084819D01*
X187224286Y-76084819D02*
X187224286Y-75084819D01*
X187224286Y-75084819D02*
X187557619Y-75799104D01*
X187557619Y-75799104D02*
X187890952Y-75084819D01*
X187890952Y-75084819D02*
X187890952Y-76084819D01*
X188367143Y-75703866D02*
X189129048Y-75703866D01*
X189510000Y-75084819D02*
X190129047Y-75084819D01*
X190129047Y-75084819D02*
X189795714Y-75465771D01*
X189795714Y-75465771D02*
X189938571Y-75465771D01*
X189938571Y-75465771D02*
X190033809Y-75513390D01*
X190033809Y-75513390D02*
X190081428Y-75561009D01*
X190081428Y-75561009D02*
X190129047Y-75656247D01*
X190129047Y-75656247D02*
X190129047Y-75894342D01*
X190129047Y-75894342D02*
X190081428Y-75989580D01*
X190081428Y-75989580D02*
X190033809Y-76037200D01*
X190033809Y-76037200D02*
X189938571Y-76084819D01*
X189938571Y-76084819D02*
X189652857Y-76084819D01*
X189652857Y-76084819D02*
X189557619Y-76037200D01*
X189557619Y-76037200D02*
X189510000Y-75989580D01*
X190510000Y-75180057D02*
X190557619Y-75132438D01*
X190557619Y-75132438D02*
X190652857Y-75084819D01*
X190652857Y-75084819D02*
X190890952Y-75084819D01*
X190890952Y-75084819D02*
X190986190Y-75132438D01*
X190986190Y-75132438D02*
X191033809Y-75180057D01*
X191033809Y-75180057D02*
X191081428Y-75275295D01*
X191081428Y-75275295D02*
X191081428Y-75370533D01*
X191081428Y-75370533D02*
X191033809Y-75513390D01*
X191033809Y-75513390D02*
X190462381Y-76084819D01*
X190462381Y-76084819D02*
X191081428Y-76084819D01*
X184604819Y-91117657D02*
X184128628Y-91450990D01*
X184604819Y-91689085D02*
X183604819Y-91689085D01*
X183604819Y-91689085D02*
X183604819Y-91308133D01*
X183604819Y-91308133D02*
X183652438Y-91212895D01*
X183652438Y-91212895D02*
X183700057Y-91165276D01*
X183700057Y-91165276D02*
X183795295Y-91117657D01*
X183795295Y-91117657D02*
X183938152Y-91117657D01*
X183938152Y-91117657D02*
X184033390Y-91165276D01*
X184033390Y-91165276D02*
X184081009Y-91212895D01*
X184081009Y-91212895D02*
X184128628Y-91308133D01*
X184128628Y-91308133D02*
X184128628Y-91689085D01*
X184604819Y-90165276D02*
X184604819Y-90736704D01*
X184604819Y-90450990D02*
X183604819Y-90450990D01*
X183604819Y-90450990D02*
X183747676Y-90546228D01*
X183747676Y-90546228D02*
X183842914Y-90641466D01*
X183842914Y-90641466D02*
X183890533Y-90736704D01*
X183604819Y-89260514D02*
X183604819Y-89736704D01*
X183604819Y-89736704D02*
X184081009Y-89784323D01*
X184081009Y-89784323D02*
X184033390Y-89736704D01*
X184033390Y-89736704D02*
X183985771Y-89641466D01*
X183985771Y-89641466D02*
X183985771Y-89403371D01*
X183985771Y-89403371D02*
X184033390Y-89308133D01*
X184033390Y-89308133D02*
X184081009Y-89260514D01*
X184081009Y-89260514D02*
X184176247Y-89212895D01*
X184176247Y-89212895D02*
X184414342Y-89212895D01*
X184414342Y-89212895D02*
X184509580Y-89260514D01*
X184509580Y-89260514D02*
X184557200Y-89308133D01*
X184557200Y-89308133D02*
X184604819Y-89403371D01*
X184604819Y-89403371D02*
X184604819Y-89641466D01*
X184604819Y-89641466D02*
X184557200Y-89736704D01*
X184557200Y-89736704D02*
X184509580Y-89784323D01*
X204391419Y-91244657D02*
X203915228Y-91577990D01*
X204391419Y-91816085D02*
X203391419Y-91816085D01*
X203391419Y-91816085D02*
X203391419Y-91435133D01*
X203391419Y-91435133D02*
X203439038Y-91339895D01*
X203439038Y-91339895D02*
X203486657Y-91292276D01*
X203486657Y-91292276D02*
X203581895Y-91244657D01*
X203581895Y-91244657D02*
X203724752Y-91244657D01*
X203724752Y-91244657D02*
X203819990Y-91292276D01*
X203819990Y-91292276D02*
X203867609Y-91339895D01*
X203867609Y-91339895D02*
X203915228Y-91435133D01*
X203915228Y-91435133D02*
X203915228Y-91816085D01*
X203486657Y-90863704D02*
X203439038Y-90816085D01*
X203439038Y-90816085D02*
X203391419Y-90720847D01*
X203391419Y-90720847D02*
X203391419Y-90482752D01*
X203391419Y-90482752D02*
X203439038Y-90387514D01*
X203439038Y-90387514D02*
X203486657Y-90339895D01*
X203486657Y-90339895D02*
X203581895Y-90292276D01*
X203581895Y-90292276D02*
X203677133Y-90292276D01*
X203677133Y-90292276D02*
X203819990Y-90339895D01*
X203819990Y-90339895D02*
X204391419Y-90911323D01*
X204391419Y-90911323D02*
X204391419Y-90292276D01*
X203391419Y-89673228D02*
X203391419Y-89577990D01*
X203391419Y-89577990D02*
X203439038Y-89482752D01*
X203439038Y-89482752D02*
X203486657Y-89435133D01*
X203486657Y-89435133D02*
X203581895Y-89387514D01*
X203581895Y-89387514D02*
X203772371Y-89339895D01*
X203772371Y-89339895D02*
X204010466Y-89339895D01*
X204010466Y-89339895D02*
X204200942Y-89387514D01*
X204200942Y-89387514D02*
X204296180Y-89435133D01*
X204296180Y-89435133D02*
X204343800Y-89482752D01*
X204343800Y-89482752D02*
X204391419Y-89577990D01*
X204391419Y-89577990D02*
X204391419Y-89673228D01*
X204391419Y-89673228D02*
X204343800Y-89768466D01*
X204343800Y-89768466D02*
X204296180Y-89816085D01*
X204296180Y-89816085D02*
X204200942Y-89863704D01*
X204200942Y-89863704D02*
X204010466Y-89911323D01*
X204010466Y-89911323D02*
X203772371Y-89911323D01*
X203772371Y-89911323D02*
X203581895Y-89863704D01*
X203581895Y-89863704D02*
X203486657Y-89816085D01*
X203486657Y-89816085D02*
X203439038Y-89768466D01*
X203439038Y-89768466D02*
X203391419Y-89673228D01*
X137630819Y-91944723D02*
X138345104Y-91944723D01*
X138345104Y-91944723D02*
X138487961Y-91992342D01*
X138487961Y-91992342D02*
X138583200Y-92087580D01*
X138583200Y-92087580D02*
X138630819Y-92230437D01*
X138630819Y-92230437D02*
X138630819Y-92325675D01*
X138630819Y-90944723D02*
X138630819Y-91516151D01*
X138630819Y-91230437D02*
X137630819Y-91230437D01*
X137630819Y-91230437D02*
X137773676Y-91325675D01*
X137773676Y-91325675D02*
X137868914Y-91420913D01*
X137868914Y-91420913D02*
X137916533Y-91516151D01*
X138630819Y-89992342D02*
X138630819Y-90563770D01*
X138630819Y-90278056D02*
X137630819Y-90278056D01*
X137630819Y-90278056D02*
X137773676Y-90373294D01*
X137773676Y-90373294D02*
X137868914Y-90468532D01*
X137868914Y-90468532D02*
X137916533Y-90563770D01*
X159258095Y-78774819D02*
X159258095Y-79584342D01*
X159258095Y-79584342D02*
X159305714Y-79679580D01*
X159305714Y-79679580D02*
X159353333Y-79727200D01*
X159353333Y-79727200D02*
X159448571Y-79774819D01*
X159448571Y-79774819D02*
X159639047Y-79774819D01*
X159639047Y-79774819D02*
X159734285Y-79727200D01*
X159734285Y-79727200D02*
X159781904Y-79679580D01*
X159781904Y-79679580D02*
X159829523Y-79584342D01*
X159829523Y-79584342D02*
X159829523Y-78774819D01*
X160258095Y-78870057D02*
X160305714Y-78822438D01*
X160305714Y-78822438D02*
X160400952Y-78774819D01*
X160400952Y-78774819D02*
X160639047Y-78774819D01*
X160639047Y-78774819D02*
X160734285Y-78822438D01*
X160734285Y-78822438D02*
X160781904Y-78870057D01*
X160781904Y-78870057D02*
X160829523Y-78965295D01*
X160829523Y-78965295D02*
X160829523Y-79060533D01*
X160829523Y-79060533D02*
X160781904Y-79203390D01*
X160781904Y-79203390D02*
X160210476Y-79774819D01*
X160210476Y-79774819D02*
X160829523Y-79774819D01*
X149771742Y-57405419D02*
X149438409Y-56929228D01*
X149200314Y-57405419D02*
X149200314Y-56405419D01*
X149200314Y-56405419D02*
X149581266Y-56405419D01*
X149581266Y-56405419D02*
X149676504Y-56453038D01*
X149676504Y-56453038D02*
X149724123Y-56500657D01*
X149724123Y-56500657D02*
X149771742Y-56595895D01*
X149771742Y-56595895D02*
X149771742Y-56738752D01*
X149771742Y-56738752D02*
X149724123Y-56833990D01*
X149724123Y-56833990D02*
X149676504Y-56881609D01*
X149676504Y-56881609D02*
X149581266Y-56929228D01*
X149581266Y-56929228D02*
X149200314Y-56929228D01*
X150152695Y-56500657D02*
X150200314Y-56453038D01*
X150200314Y-56453038D02*
X150295552Y-56405419D01*
X150295552Y-56405419D02*
X150533647Y-56405419D01*
X150533647Y-56405419D02*
X150628885Y-56453038D01*
X150628885Y-56453038D02*
X150676504Y-56500657D01*
X150676504Y-56500657D02*
X150724123Y-56595895D01*
X150724123Y-56595895D02*
X150724123Y-56691133D01*
X150724123Y-56691133D02*
X150676504Y-56833990D01*
X150676504Y-56833990D02*
X150105076Y-57405419D01*
X150105076Y-57405419D02*
X150724123Y-57405419D01*
X151105076Y-56500657D02*
X151152695Y-56453038D01*
X151152695Y-56453038D02*
X151247933Y-56405419D01*
X151247933Y-56405419D02*
X151486028Y-56405419D01*
X151486028Y-56405419D02*
X151581266Y-56453038D01*
X151581266Y-56453038D02*
X151628885Y-56500657D01*
X151628885Y-56500657D02*
X151676504Y-56595895D01*
X151676504Y-56595895D02*
X151676504Y-56691133D01*
X151676504Y-56691133D02*
X151628885Y-56833990D01*
X151628885Y-56833990D02*
X151057457Y-57405419D01*
X151057457Y-57405419D02*
X151676504Y-57405419D01*
X160396819Y-76017333D02*
X161111104Y-76017333D01*
X161111104Y-76017333D02*
X161253961Y-76064952D01*
X161253961Y-76064952D02*
X161349200Y-76160190D01*
X161349200Y-76160190D02*
X161396819Y-76303047D01*
X161396819Y-76303047D02*
X161396819Y-76398285D01*
X161396819Y-75541142D02*
X160396819Y-75541142D01*
X160396819Y-75541142D02*
X160396819Y-75160190D01*
X160396819Y-75160190D02*
X160444438Y-75064952D01*
X160444438Y-75064952D02*
X160492057Y-75017333D01*
X160492057Y-75017333D02*
X160587295Y-74969714D01*
X160587295Y-74969714D02*
X160730152Y-74969714D01*
X160730152Y-74969714D02*
X160825390Y-75017333D01*
X160825390Y-75017333D02*
X160873009Y-75064952D01*
X160873009Y-75064952D02*
X160920628Y-75160190D01*
X160920628Y-75160190D02*
X160920628Y-75541142D01*
X160396819Y-74636380D02*
X160396819Y-74017333D01*
X160396819Y-74017333D02*
X160777771Y-74350666D01*
X160777771Y-74350666D02*
X160777771Y-74207809D01*
X160777771Y-74207809D02*
X160825390Y-74112571D01*
X160825390Y-74112571D02*
X160873009Y-74064952D01*
X160873009Y-74064952D02*
X160968247Y-74017333D01*
X160968247Y-74017333D02*
X161206342Y-74017333D01*
X161206342Y-74017333D02*
X161301580Y-74064952D01*
X161301580Y-74064952D02*
X161349200Y-74112571D01*
X161349200Y-74112571D02*
X161396819Y-74207809D01*
X161396819Y-74207809D02*
X161396819Y-74493523D01*
X161396819Y-74493523D02*
X161349200Y-74588761D01*
X161349200Y-74588761D02*
X161301580Y-74636380D01*
X167809524Y-74638819D02*
X168047619Y-75638819D01*
X168047619Y-75638819D02*
X168238095Y-74924533D01*
X168238095Y-74924533D02*
X168428571Y-75638819D01*
X168428571Y-75638819D02*
X168666667Y-74638819D01*
X169047619Y-75638819D02*
X169047619Y-74972152D01*
X169047619Y-74638819D02*
X169000000Y-74686438D01*
X169000000Y-74686438D02*
X169047619Y-74734057D01*
X169047619Y-74734057D02*
X169095238Y-74686438D01*
X169095238Y-74686438D02*
X169047619Y-74638819D01*
X169047619Y-74638819D02*
X169047619Y-74734057D01*
X169380952Y-74972152D02*
X169761904Y-74972152D01*
X169523809Y-75638819D02*
X169523809Y-74781676D01*
X169523809Y-74781676D02*
X169571428Y-74686438D01*
X169571428Y-74686438D02*
X169666666Y-74638819D01*
X169666666Y-74638819D02*
X169761904Y-74638819D01*
X170095238Y-75638819D02*
X170095238Y-74972152D01*
X170095238Y-74638819D02*
X170047619Y-74686438D01*
X170047619Y-74686438D02*
X170095238Y-74734057D01*
X170095238Y-74734057D02*
X170142857Y-74686438D01*
X170142857Y-74686438D02*
X170095238Y-74638819D01*
X170095238Y-74638819D02*
X170095238Y-74734057D01*
X171761904Y-75591200D02*
X171666666Y-75638819D01*
X171666666Y-75638819D02*
X171476190Y-75638819D01*
X171476190Y-75638819D02*
X171380952Y-75591200D01*
X171380952Y-75591200D02*
X171333333Y-75543580D01*
X171333333Y-75543580D02*
X171285714Y-75448342D01*
X171285714Y-75448342D02*
X171285714Y-75162628D01*
X171285714Y-75162628D02*
X171333333Y-75067390D01*
X171333333Y-75067390D02*
X171380952Y-75019771D01*
X171380952Y-75019771D02*
X171476190Y-74972152D01*
X171476190Y-74972152D02*
X171666666Y-74972152D01*
X171666666Y-74972152D02*
X171761904Y-75019771D01*
X172333333Y-75638819D02*
X172238095Y-75591200D01*
X172238095Y-75591200D02*
X172190476Y-75543580D01*
X172190476Y-75543580D02*
X172142857Y-75448342D01*
X172142857Y-75448342D02*
X172142857Y-75162628D01*
X172142857Y-75162628D02*
X172190476Y-75067390D01*
X172190476Y-75067390D02*
X172238095Y-75019771D01*
X172238095Y-75019771D02*
X172333333Y-74972152D01*
X172333333Y-74972152D02*
X172476190Y-74972152D01*
X172476190Y-74972152D02*
X172571428Y-75019771D01*
X172571428Y-75019771D02*
X172619047Y-75067390D01*
X172619047Y-75067390D02*
X172666666Y-75162628D01*
X172666666Y-75162628D02*
X172666666Y-75448342D01*
X172666666Y-75448342D02*
X172619047Y-75543580D01*
X172619047Y-75543580D02*
X172571428Y-75591200D01*
X172571428Y-75591200D02*
X172476190Y-75638819D01*
X172476190Y-75638819D02*
X172333333Y-75638819D01*
X173095238Y-74972152D02*
X173095238Y-75638819D01*
X173095238Y-75067390D02*
X173142857Y-75019771D01*
X173142857Y-75019771D02*
X173238095Y-74972152D01*
X173238095Y-74972152D02*
X173380952Y-74972152D01*
X173380952Y-74972152D02*
X173476190Y-75019771D01*
X173476190Y-75019771D02*
X173523809Y-75115009D01*
X173523809Y-75115009D02*
X173523809Y-75638819D01*
X173857143Y-74972152D02*
X174238095Y-74972152D01*
X174000000Y-75638819D02*
X174000000Y-74781676D01*
X174000000Y-74781676D02*
X174047619Y-74686438D01*
X174047619Y-74686438D02*
X174142857Y-74638819D01*
X174142857Y-74638819D02*
X174238095Y-74638819D01*
X163700619Y-91041457D02*
X163224428Y-91374790D01*
X163700619Y-91612885D02*
X162700619Y-91612885D01*
X162700619Y-91612885D02*
X162700619Y-91231933D01*
X162700619Y-91231933D02*
X162748238Y-91136695D01*
X162748238Y-91136695D02*
X162795857Y-91089076D01*
X162795857Y-91089076D02*
X162891095Y-91041457D01*
X162891095Y-91041457D02*
X163033952Y-91041457D01*
X163033952Y-91041457D02*
X163129190Y-91089076D01*
X163129190Y-91089076D02*
X163176809Y-91136695D01*
X163176809Y-91136695D02*
X163224428Y-91231933D01*
X163224428Y-91231933D02*
X163224428Y-91612885D01*
X163700619Y-90089076D02*
X163700619Y-90660504D01*
X163700619Y-90374790D02*
X162700619Y-90374790D01*
X162700619Y-90374790D02*
X162843476Y-90470028D01*
X162843476Y-90470028D02*
X162938714Y-90565266D01*
X162938714Y-90565266D02*
X162986333Y-90660504D01*
X162700619Y-89470028D02*
X162700619Y-89374790D01*
X162700619Y-89374790D02*
X162748238Y-89279552D01*
X162748238Y-89279552D02*
X162795857Y-89231933D01*
X162795857Y-89231933D02*
X162891095Y-89184314D01*
X162891095Y-89184314D02*
X163081571Y-89136695D01*
X163081571Y-89136695D02*
X163319666Y-89136695D01*
X163319666Y-89136695D02*
X163510142Y-89184314D01*
X163510142Y-89184314D02*
X163605380Y-89231933D01*
X163605380Y-89231933D02*
X163653000Y-89279552D01*
X163653000Y-89279552D02*
X163700619Y-89374790D01*
X163700619Y-89374790D02*
X163700619Y-89470028D01*
X163700619Y-89470028D02*
X163653000Y-89565266D01*
X163653000Y-89565266D02*
X163605380Y-89612885D01*
X163605380Y-89612885D02*
X163510142Y-89660504D01*
X163510142Y-89660504D02*
X163319666Y-89708123D01*
X163319666Y-89708123D02*
X163081571Y-89708123D01*
X163081571Y-89708123D02*
X162891095Y-89660504D01*
X162891095Y-89660504D02*
X162795857Y-89612885D01*
X162795857Y-89612885D02*
X162748238Y-89565266D01*
X162748238Y-89565266D02*
X162700619Y-89470028D01*
X161494000Y-62659732D02*
X161541619Y-62516875D01*
X161541619Y-62516875D02*
X161541619Y-62278780D01*
X161541619Y-62278780D02*
X161494000Y-62183542D01*
X161494000Y-62183542D02*
X161446380Y-62135923D01*
X161446380Y-62135923D02*
X161351142Y-62088304D01*
X161351142Y-62088304D02*
X161255904Y-62088304D01*
X161255904Y-62088304D02*
X161160666Y-62135923D01*
X161160666Y-62135923D02*
X161113047Y-62183542D01*
X161113047Y-62183542D02*
X161065428Y-62278780D01*
X161065428Y-62278780D02*
X161017809Y-62469256D01*
X161017809Y-62469256D02*
X160970190Y-62564494D01*
X160970190Y-62564494D02*
X160922571Y-62612113D01*
X160922571Y-62612113D02*
X160827333Y-62659732D01*
X160827333Y-62659732D02*
X160732095Y-62659732D01*
X160732095Y-62659732D02*
X160636857Y-62612113D01*
X160636857Y-62612113D02*
X160589238Y-62564494D01*
X160589238Y-62564494D02*
X160541619Y-62469256D01*
X160541619Y-62469256D02*
X160541619Y-62231161D01*
X160541619Y-62231161D02*
X160589238Y-62088304D01*
X160541619Y-61754970D02*
X161541619Y-61516875D01*
X161541619Y-61516875D02*
X160827333Y-61326399D01*
X160827333Y-61326399D02*
X161541619Y-61135923D01*
X161541619Y-61135923D02*
X160541619Y-60897828D01*
X160636857Y-60564494D02*
X160589238Y-60516875D01*
X160589238Y-60516875D02*
X160541619Y-60421637D01*
X160541619Y-60421637D02*
X160541619Y-60183542D01*
X160541619Y-60183542D02*
X160589238Y-60088304D01*
X160589238Y-60088304D02*
X160636857Y-60040685D01*
X160636857Y-60040685D02*
X160732095Y-59993066D01*
X160732095Y-59993066D02*
X160827333Y-59993066D01*
X160827333Y-59993066D02*
X160970190Y-60040685D01*
X160970190Y-60040685D02*
X161541619Y-60612113D01*
X161541619Y-60612113D02*
X161541619Y-59993066D01*
X154571428Y-68131009D02*
X154238095Y-68131009D01*
X154238095Y-68654819D02*
X154238095Y-67654819D01*
X154238095Y-67654819D02*
X154714285Y-67654819D01*
X155238095Y-68654819D02*
X155142857Y-68607200D01*
X155142857Y-68607200D02*
X155095238Y-68511961D01*
X155095238Y-68511961D02*
X155095238Y-67654819D01*
X156047619Y-68654819D02*
X156047619Y-68131009D01*
X156047619Y-68131009D02*
X156000000Y-68035771D01*
X156000000Y-68035771D02*
X155904762Y-67988152D01*
X155904762Y-67988152D02*
X155714286Y-67988152D01*
X155714286Y-67988152D02*
X155619048Y-68035771D01*
X156047619Y-68607200D02*
X155952381Y-68654819D01*
X155952381Y-68654819D02*
X155714286Y-68654819D01*
X155714286Y-68654819D02*
X155619048Y-68607200D01*
X155619048Y-68607200D02*
X155571429Y-68511961D01*
X155571429Y-68511961D02*
X155571429Y-68416723D01*
X155571429Y-68416723D02*
X155619048Y-68321485D01*
X155619048Y-68321485D02*
X155714286Y-68273866D01*
X155714286Y-68273866D02*
X155952381Y-68273866D01*
X155952381Y-68273866D02*
X156047619Y-68226247D01*
X156476191Y-68607200D02*
X156571429Y-68654819D01*
X156571429Y-68654819D02*
X156761905Y-68654819D01*
X156761905Y-68654819D02*
X156857143Y-68607200D01*
X156857143Y-68607200D02*
X156904762Y-68511961D01*
X156904762Y-68511961D02*
X156904762Y-68464342D01*
X156904762Y-68464342D02*
X156857143Y-68369104D01*
X156857143Y-68369104D02*
X156761905Y-68321485D01*
X156761905Y-68321485D02*
X156619048Y-68321485D01*
X156619048Y-68321485D02*
X156523810Y-68273866D01*
X156523810Y-68273866D02*
X156476191Y-68178628D01*
X156476191Y-68178628D02*
X156476191Y-68131009D01*
X156476191Y-68131009D02*
X156523810Y-68035771D01*
X156523810Y-68035771D02*
X156619048Y-67988152D01*
X156619048Y-67988152D02*
X156761905Y-67988152D01*
X156761905Y-67988152D02*
X156857143Y-68035771D01*
X157333334Y-68654819D02*
X157333334Y-67654819D01*
X157761905Y-68654819D02*
X157761905Y-68131009D01*
X157761905Y-68131009D02*
X157714286Y-68035771D01*
X157714286Y-68035771D02*
X157619048Y-67988152D01*
X157619048Y-67988152D02*
X157476191Y-67988152D01*
X157476191Y-67988152D02*
X157380953Y-68035771D01*
X157380953Y-68035771D02*
X157333334Y-68083390D01*
X156018333Y-78424580D02*
X155970714Y-78472200D01*
X155970714Y-78472200D02*
X155827857Y-78519819D01*
X155827857Y-78519819D02*
X155732619Y-78519819D01*
X155732619Y-78519819D02*
X155589762Y-78472200D01*
X155589762Y-78472200D02*
X155494524Y-78376961D01*
X155494524Y-78376961D02*
X155446905Y-78281723D01*
X155446905Y-78281723D02*
X155399286Y-78091247D01*
X155399286Y-78091247D02*
X155399286Y-77948390D01*
X155399286Y-77948390D02*
X155446905Y-77757914D01*
X155446905Y-77757914D02*
X155494524Y-77662676D01*
X155494524Y-77662676D02*
X155589762Y-77567438D01*
X155589762Y-77567438D02*
X155732619Y-77519819D01*
X155732619Y-77519819D02*
X155827857Y-77519819D01*
X155827857Y-77519819D02*
X155970714Y-77567438D01*
X155970714Y-77567438D02*
X156018333Y-77615057D01*
X156875476Y-77519819D02*
X156685000Y-77519819D01*
X156685000Y-77519819D02*
X156589762Y-77567438D01*
X156589762Y-77567438D02*
X156542143Y-77615057D01*
X156542143Y-77615057D02*
X156446905Y-77757914D01*
X156446905Y-77757914D02*
X156399286Y-77948390D01*
X156399286Y-77948390D02*
X156399286Y-78329342D01*
X156399286Y-78329342D02*
X156446905Y-78424580D01*
X156446905Y-78424580D02*
X156494524Y-78472200D01*
X156494524Y-78472200D02*
X156589762Y-78519819D01*
X156589762Y-78519819D02*
X156780238Y-78519819D01*
X156780238Y-78519819D02*
X156875476Y-78472200D01*
X156875476Y-78472200D02*
X156923095Y-78424580D01*
X156923095Y-78424580D02*
X156970714Y-78329342D01*
X156970714Y-78329342D02*
X156970714Y-78091247D01*
X156970714Y-78091247D02*
X156923095Y-77996009D01*
X156923095Y-77996009D02*
X156875476Y-77948390D01*
X156875476Y-77948390D02*
X156780238Y-77900771D01*
X156780238Y-77900771D02*
X156589762Y-77900771D01*
X156589762Y-77900771D02*
X156494524Y-77948390D01*
X156494524Y-77948390D02*
X156446905Y-77996009D01*
X156446905Y-77996009D02*
X156399286Y-78091247D01*
X157654819Y-102633333D02*
X158369104Y-102633333D01*
X158369104Y-102633333D02*
X158511961Y-102680952D01*
X158511961Y-102680952D02*
X158607200Y-102776190D01*
X158607200Y-102776190D02*
X158654819Y-102919047D01*
X158654819Y-102919047D02*
X158654819Y-103014285D01*
X157654819Y-102252380D02*
X157654819Y-101633333D01*
X157654819Y-101633333D02*
X158035771Y-101966666D01*
X158035771Y-101966666D02*
X158035771Y-101823809D01*
X158035771Y-101823809D02*
X158083390Y-101728571D01*
X158083390Y-101728571D02*
X158131009Y-101680952D01*
X158131009Y-101680952D02*
X158226247Y-101633333D01*
X158226247Y-101633333D02*
X158464342Y-101633333D01*
X158464342Y-101633333D02*
X158559580Y-101680952D01*
X158559580Y-101680952D02*
X158607200Y-101728571D01*
X158607200Y-101728571D02*
X158654819Y-101823809D01*
X158654819Y-101823809D02*
X158654819Y-102109523D01*
X158654819Y-102109523D02*
X158607200Y-102204761D01*
X158607200Y-102204761D02*
X158559580Y-102252380D01*
X157454819Y-107013333D02*
X158169104Y-107013333D01*
X158169104Y-107013333D02*
X158311961Y-107060952D01*
X158311961Y-107060952D02*
X158407200Y-107156190D01*
X158407200Y-107156190D02*
X158454819Y-107299047D01*
X158454819Y-107299047D02*
X158454819Y-107394285D01*
X157454819Y-106632380D02*
X157454819Y-105965714D01*
X157454819Y-105965714D02*
X158454819Y-106394285D01*
X146022219Y-90895466D02*
X145546028Y-91228799D01*
X146022219Y-91466894D02*
X145022219Y-91466894D01*
X145022219Y-91466894D02*
X145022219Y-91085942D01*
X145022219Y-91085942D02*
X145069838Y-90990704D01*
X145069838Y-90990704D02*
X145117457Y-90943085D01*
X145117457Y-90943085D02*
X145212695Y-90895466D01*
X145212695Y-90895466D02*
X145355552Y-90895466D01*
X145355552Y-90895466D02*
X145450790Y-90943085D01*
X145450790Y-90943085D02*
X145498409Y-90990704D01*
X145498409Y-90990704D02*
X145546028Y-91085942D01*
X145546028Y-91085942D02*
X145546028Y-91466894D01*
X145022219Y-90038323D02*
X145022219Y-90228799D01*
X145022219Y-90228799D02*
X145069838Y-90324037D01*
X145069838Y-90324037D02*
X145117457Y-90371656D01*
X145117457Y-90371656D02*
X145260314Y-90466894D01*
X145260314Y-90466894D02*
X145450790Y-90514513D01*
X145450790Y-90514513D02*
X145831742Y-90514513D01*
X145831742Y-90514513D02*
X145926980Y-90466894D01*
X145926980Y-90466894D02*
X145974600Y-90419275D01*
X145974600Y-90419275D02*
X146022219Y-90324037D01*
X146022219Y-90324037D02*
X146022219Y-90133561D01*
X146022219Y-90133561D02*
X145974600Y-90038323D01*
X145974600Y-90038323D02*
X145926980Y-89990704D01*
X145926980Y-89990704D02*
X145831742Y-89943085D01*
X145831742Y-89943085D02*
X145593647Y-89943085D01*
X145593647Y-89943085D02*
X145498409Y-89990704D01*
X145498409Y-89990704D02*
X145450790Y-90038323D01*
X145450790Y-90038323D02*
X145403171Y-90133561D01*
X145403171Y-90133561D02*
X145403171Y-90324037D01*
X145403171Y-90324037D02*
X145450790Y-90419275D01*
X145450790Y-90419275D02*
X145498409Y-90466894D01*
X145498409Y-90466894D02*
X145593647Y-90514513D01*
X156837142Y-73824819D02*
X156503809Y-73348628D01*
X156265714Y-73824819D02*
X156265714Y-72824819D01*
X156265714Y-72824819D02*
X156646666Y-72824819D01*
X156646666Y-72824819D02*
X156741904Y-72872438D01*
X156741904Y-72872438D02*
X156789523Y-72920057D01*
X156789523Y-72920057D02*
X156837142Y-73015295D01*
X156837142Y-73015295D02*
X156837142Y-73158152D01*
X156837142Y-73158152D02*
X156789523Y-73253390D01*
X156789523Y-73253390D02*
X156741904Y-73301009D01*
X156741904Y-73301009D02*
X156646666Y-73348628D01*
X156646666Y-73348628D02*
X156265714Y-73348628D01*
X157218095Y-72920057D02*
X157265714Y-72872438D01*
X157265714Y-72872438D02*
X157360952Y-72824819D01*
X157360952Y-72824819D02*
X157599047Y-72824819D01*
X157599047Y-72824819D02*
X157694285Y-72872438D01*
X157694285Y-72872438D02*
X157741904Y-72920057D01*
X157741904Y-72920057D02*
X157789523Y-73015295D01*
X157789523Y-73015295D02*
X157789523Y-73110533D01*
X157789523Y-73110533D02*
X157741904Y-73253390D01*
X157741904Y-73253390D02*
X157170476Y-73824819D01*
X157170476Y-73824819D02*
X157789523Y-73824819D01*
X158646666Y-73158152D02*
X158646666Y-73824819D01*
X158408571Y-72777200D02*
X158170476Y-73491485D01*
X158170476Y-73491485D02*
X158789523Y-73491485D01*
X160396819Y-72715333D02*
X161111104Y-72715333D01*
X161111104Y-72715333D02*
X161253961Y-72762952D01*
X161253961Y-72762952D02*
X161349200Y-72858190D01*
X161349200Y-72858190D02*
X161396819Y-73001047D01*
X161396819Y-73001047D02*
X161396819Y-73096285D01*
X161396819Y-72239142D02*
X160396819Y-72239142D01*
X160396819Y-72239142D02*
X160396819Y-71858190D01*
X160396819Y-71858190D02*
X160444438Y-71762952D01*
X160444438Y-71762952D02*
X160492057Y-71715333D01*
X160492057Y-71715333D02*
X160587295Y-71667714D01*
X160587295Y-71667714D02*
X160730152Y-71667714D01*
X160730152Y-71667714D02*
X160825390Y-71715333D01*
X160825390Y-71715333D02*
X160873009Y-71762952D01*
X160873009Y-71762952D02*
X160920628Y-71858190D01*
X160920628Y-71858190D02*
X160920628Y-72239142D01*
X160492057Y-71286761D02*
X160444438Y-71239142D01*
X160444438Y-71239142D02*
X160396819Y-71143904D01*
X160396819Y-71143904D02*
X160396819Y-70905809D01*
X160396819Y-70905809D02*
X160444438Y-70810571D01*
X160444438Y-70810571D02*
X160492057Y-70762952D01*
X160492057Y-70762952D02*
X160587295Y-70715333D01*
X160587295Y-70715333D02*
X160682533Y-70715333D01*
X160682533Y-70715333D02*
X160825390Y-70762952D01*
X160825390Y-70762952D02*
X161396819Y-71334380D01*
X161396819Y-71334380D02*
X161396819Y-70715333D01*
X168214285Y-71931009D02*
X168357142Y-71978628D01*
X168357142Y-71978628D02*
X168404761Y-72026247D01*
X168404761Y-72026247D02*
X168452380Y-72121485D01*
X168452380Y-72121485D02*
X168452380Y-72264342D01*
X168452380Y-72264342D02*
X168404761Y-72359580D01*
X168404761Y-72359580D02*
X168357142Y-72407200D01*
X168357142Y-72407200D02*
X168261904Y-72454819D01*
X168261904Y-72454819D02*
X167880952Y-72454819D01*
X167880952Y-72454819D02*
X167880952Y-71454819D01*
X167880952Y-71454819D02*
X168214285Y-71454819D01*
X168214285Y-71454819D02*
X168309523Y-71502438D01*
X168309523Y-71502438D02*
X168357142Y-71550057D01*
X168357142Y-71550057D02*
X168404761Y-71645295D01*
X168404761Y-71645295D02*
X168404761Y-71740533D01*
X168404761Y-71740533D02*
X168357142Y-71835771D01*
X168357142Y-71835771D02*
X168309523Y-71883390D01*
X168309523Y-71883390D02*
X168214285Y-71931009D01*
X168214285Y-71931009D02*
X167880952Y-71931009D01*
X169309523Y-72454819D02*
X169309523Y-71931009D01*
X169309523Y-71931009D02*
X169261904Y-71835771D01*
X169261904Y-71835771D02*
X169166666Y-71788152D01*
X169166666Y-71788152D02*
X168976190Y-71788152D01*
X168976190Y-71788152D02*
X168880952Y-71835771D01*
X169309523Y-72407200D02*
X169214285Y-72454819D01*
X169214285Y-72454819D02*
X168976190Y-72454819D01*
X168976190Y-72454819D02*
X168880952Y-72407200D01*
X168880952Y-72407200D02*
X168833333Y-72311961D01*
X168833333Y-72311961D02*
X168833333Y-72216723D01*
X168833333Y-72216723D02*
X168880952Y-72121485D01*
X168880952Y-72121485D02*
X168976190Y-72073866D01*
X168976190Y-72073866D02*
X169214285Y-72073866D01*
X169214285Y-72073866D02*
X169309523Y-72026247D01*
X169738095Y-72407200D02*
X169833333Y-72454819D01*
X169833333Y-72454819D02*
X170023809Y-72454819D01*
X170023809Y-72454819D02*
X170119047Y-72407200D01*
X170119047Y-72407200D02*
X170166666Y-72311961D01*
X170166666Y-72311961D02*
X170166666Y-72264342D01*
X170166666Y-72264342D02*
X170119047Y-72169104D01*
X170119047Y-72169104D02*
X170023809Y-72121485D01*
X170023809Y-72121485D02*
X169880952Y-72121485D01*
X169880952Y-72121485D02*
X169785714Y-72073866D01*
X169785714Y-72073866D02*
X169738095Y-71978628D01*
X169738095Y-71978628D02*
X169738095Y-71931009D01*
X169738095Y-71931009D02*
X169785714Y-71835771D01*
X169785714Y-71835771D02*
X169880952Y-71788152D01*
X169880952Y-71788152D02*
X170023809Y-71788152D01*
X170023809Y-71788152D02*
X170119047Y-71835771D01*
X171785714Y-72407200D02*
X171690476Y-72454819D01*
X171690476Y-72454819D02*
X171500000Y-72454819D01*
X171500000Y-72454819D02*
X171404762Y-72407200D01*
X171404762Y-72407200D02*
X171357143Y-72359580D01*
X171357143Y-72359580D02*
X171309524Y-72264342D01*
X171309524Y-72264342D02*
X171309524Y-71978628D01*
X171309524Y-71978628D02*
X171357143Y-71883390D01*
X171357143Y-71883390D02*
X171404762Y-71835771D01*
X171404762Y-71835771D02*
X171500000Y-71788152D01*
X171500000Y-71788152D02*
X171690476Y-71788152D01*
X171690476Y-71788152D02*
X171785714Y-71835771D01*
X172357143Y-72454819D02*
X172261905Y-72407200D01*
X172261905Y-72407200D02*
X172214286Y-72359580D01*
X172214286Y-72359580D02*
X172166667Y-72264342D01*
X172166667Y-72264342D02*
X172166667Y-71978628D01*
X172166667Y-71978628D02*
X172214286Y-71883390D01*
X172214286Y-71883390D02*
X172261905Y-71835771D01*
X172261905Y-71835771D02*
X172357143Y-71788152D01*
X172357143Y-71788152D02*
X172500000Y-71788152D01*
X172500000Y-71788152D02*
X172595238Y-71835771D01*
X172595238Y-71835771D02*
X172642857Y-71883390D01*
X172642857Y-71883390D02*
X172690476Y-71978628D01*
X172690476Y-71978628D02*
X172690476Y-72264342D01*
X172690476Y-72264342D02*
X172642857Y-72359580D01*
X172642857Y-72359580D02*
X172595238Y-72407200D01*
X172595238Y-72407200D02*
X172500000Y-72454819D01*
X172500000Y-72454819D02*
X172357143Y-72454819D01*
X173119048Y-71788152D02*
X173119048Y-72454819D01*
X173119048Y-71883390D02*
X173166667Y-71835771D01*
X173166667Y-71835771D02*
X173261905Y-71788152D01*
X173261905Y-71788152D02*
X173404762Y-71788152D01*
X173404762Y-71788152D02*
X173500000Y-71835771D01*
X173500000Y-71835771D02*
X173547619Y-71931009D01*
X173547619Y-71931009D02*
X173547619Y-72454819D01*
X173880953Y-71788152D02*
X174261905Y-71788152D01*
X174023810Y-72454819D02*
X174023810Y-71597676D01*
X174023810Y-71597676D02*
X174071429Y-71502438D01*
X174071429Y-71502438D02*
X174166667Y-71454819D01*
X174166667Y-71454819D02*
X174261905Y-71454819D01*
X153427133Y-71073180D02*
X153379514Y-71120800D01*
X153379514Y-71120800D02*
X153236657Y-71168419D01*
X153236657Y-71168419D02*
X153141419Y-71168419D01*
X153141419Y-71168419D02*
X152998562Y-71120800D01*
X152998562Y-71120800D02*
X152903324Y-71025561D01*
X152903324Y-71025561D02*
X152855705Y-70930323D01*
X152855705Y-70930323D02*
X152808086Y-70739847D01*
X152808086Y-70739847D02*
X152808086Y-70596990D01*
X152808086Y-70596990D02*
X152855705Y-70406514D01*
X152855705Y-70406514D02*
X152903324Y-70311276D01*
X152903324Y-70311276D02*
X152998562Y-70216038D01*
X152998562Y-70216038D02*
X153141419Y-70168419D01*
X153141419Y-70168419D02*
X153236657Y-70168419D01*
X153236657Y-70168419D02*
X153379514Y-70216038D01*
X153379514Y-70216038D02*
X153427133Y-70263657D01*
X154331895Y-70168419D02*
X153855705Y-70168419D01*
X153855705Y-70168419D02*
X153808086Y-70644609D01*
X153808086Y-70644609D02*
X153855705Y-70596990D01*
X153855705Y-70596990D02*
X153950943Y-70549371D01*
X153950943Y-70549371D02*
X154189038Y-70549371D01*
X154189038Y-70549371D02*
X154284276Y-70596990D01*
X154284276Y-70596990D02*
X154331895Y-70644609D01*
X154331895Y-70644609D02*
X154379514Y-70739847D01*
X154379514Y-70739847D02*
X154379514Y-70977942D01*
X154379514Y-70977942D02*
X154331895Y-71073180D01*
X154331895Y-71073180D02*
X154284276Y-71120800D01*
X154284276Y-71120800D02*
X154189038Y-71168419D01*
X154189038Y-71168419D02*
X153950943Y-71168419D01*
X153950943Y-71168419D02*
X153855705Y-71120800D01*
X153855705Y-71120800D02*
X153808086Y-71073180D01*
X139949819Y-107013333D02*
X140664104Y-107013333D01*
X140664104Y-107013333D02*
X140806961Y-107060952D01*
X140806961Y-107060952D02*
X140902200Y-107156190D01*
X140902200Y-107156190D02*
X140949819Y-107299047D01*
X140949819Y-107299047D02*
X140949819Y-107394285D01*
X139949819Y-106108571D02*
X139949819Y-106299047D01*
X139949819Y-106299047D02*
X139997438Y-106394285D01*
X139997438Y-106394285D02*
X140045057Y-106441904D01*
X140045057Y-106441904D02*
X140187914Y-106537142D01*
X140187914Y-106537142D02*
X140378390Y-106584761D01*
X140378390Y-106584761D02*
X140759342Y-106584761D01*
X140759342Y-106584761D02*
X140854580Y-106537142D01*
X140854580Y-106537142D02*
X140902200Y-106489523D01*
X140902200Y-106489523D02*
X140949819Y-106394285D01*
X140949819Y-106394285D02*
X140949819Y-106203809D01*
X140949819Y-106203809D02*
X140902200Y-106108571D01*
X140902200Y-106108571D02*
X140854580Y-106060952D01*
X140854580Y-106060952D02*
X140759342Y-106013333D01*
X140759342Y-106013333D02*
X140521247Y-106013333D01*
X140521247Y-106013333D02*
X140426009Y-106060952D01*
X140426009Y-106060952D02*
X140378390Y-106108571D01*
X140378390Y-106108571D02*
X140330771Y-106203809D01*
X140330771Y-106203809D02*
X140330771Y-106394285D01*
X140330771Y-106394285D02*
X140378390Y-106489523D01*
X140378390Y-106489523D02*
X140426009Y-106537142D01*
X140426009Y-106537142D02*
X140521247Y-106584761D01*
X181957142Y-85354819D02*
X181623809Y-84878628D01*
X181385714Y-85354819D02*
X181385714Y-84354819D01*
X181385714Y-84354819D02*
X181766666Y-84354819D01*
X181766666Y-84354819D02*
X181861904Y-84402438D01*
X181861904Y-84402438D02*
X181909523Y-84450057D01*
X181909523Y-84450057D02*
X181957142Y-84545295D01*
X181957142Y-84545295D02*
X181957142Y-84688152D01*
X181957142Y-84688152D02*
X181909523Y-84783390D01*
X181909523Y-84783390D02*
X181861904Y-84831009D01*
X181861904Y-84831009D02*
X181766666Y-84878628D01*
X181766666Y-84878628D02*
X181385714Y-84878628D01*
X182338095Y-84450057D02*
X182385714Y-84402438D01*
X182385714Y-84402438D02*
X182480952Y-84354819D01*
X182480952Y-84354819D02*
X182719047Y-84354819D01*
X182719047Y-84354819D02*
X182814285Y-84402438D01*
X182814285Y-84402438D02*
X182861904Y-84450057D01*
X182861904Y-84450057D02*
X182909523Y-84545295D01*
X182909523Y-84545295D02*
X182909523Y-84640533D01*
X182909523Y-84640533D02*
X182861904Y-84783390D01*
X182861904Y-84783390D02*
X182290476Y-85354819D01*
X182290476Y-85354819D02*
X182909523Y-85354819D01*
X183242857Y-84354819D02*
X183909523Y-84354819D01*
X183909523Y-84354819D02*
X183480952Y-85354819D01*
X201140219Y-91193857D02*
X200664028Y-91527190D01*
X201140219Y-91765285D02*
X200140219Y-91765285D01*
X200140219Y-91765285D02*
X200140219Y-91384333D01*
X200140219Y-91384333D02*
X200187838Y-91289095D01*
X200187838Y-91289095D02*
X200235457Y-91241476D01*
X200235457Y-91241476D02*
X200330695Y-91193857D01*
X200330695Y-91193857D02*
X200473552Y-91193857D01*
X200473552Y-91193857D02*
X200568790Y-91241476D01*
X200568790Y-91241476D02*
X200616409Y-91289095D01*
X200616409Y-91289095D02*
X200664028Y-91384333D01*
X200664028Y-91384333D02*
X200664028Y-91765285D01*
X201140219Y-90241476D02*
X201140219Y-90812904D01*
X201140219Y-90527190D02*
X200140219Y-90527190D01*
X200140219Y-90527190D02*
X200283076Y-90622428D01*
X200283076Y-90622428D02*
X200378314Y-90717666D01*
X200378314Y-90717666D02*
X200425933Y-90812904D01*
X201140219Y-89765285D02*
X201140219Y-89574809D01*
X201140219Y-89574809D02*
X201092600Y-89479571D01*
X201092600Y-89479571D02*
X201044980Y-89431952D01*
X201044980Y-89431952D02*
X200902123Y-89336714D01*
X200902123Y-89336714D02*
X200711647Y-89289095D01*
X200711647Y-89289095D02*
X200330695Y-89289095D01*
X200330695Y-89289095D02*
X200235457Y-89336714D01*
X200235457Y-89336714D02*
X200187838Y-89384333D01*
X200187838Y-89384333D02*
X200140219Y-89479571D01*
X200140219Y-89479571D02*
X200140219Y-89670047D01*
X200140219Y-89670047D02*
X200187838Y-89765285D01*
X200187838Y-89765285D02*
X200235457Y-89812904D01*
X200235457Y-89812904D02*
X200330695Y-89860523D01*
X200330695Y-89860523D02*
X200568790Y-89860523D01*
X200568790Y-89860523D02*
X200664028Y-89812904D01*
X200664028Y-89812904D02*
X200711647Y-89765285D01*
X200711647Y-89765285D02*
X200759266Y-89670047D01*
X200759266Y-89670047D02*
X200759266Y-89479571D01*
X200759266Y-89479571D02*
X200711647Y-89384333D01*
X200711647Y-89384333D02*
X200664028Y-89336714D01*
X200664028Y-89336714D02*
X200568790Y-89289095D01*
X145210305Y-73429019D02*
X145210305Y-72429019D01*
X145210305Y-72429019D02*
X145448400Y-72429019D01*
X145448400Y-72429019D02*
X145591257Y-72476638D01*
X145591257Y-72476638D02*
X145686495Y-72571876D01*
X145686495Y-72571876D02*
X145734114Y-72667114D01*
X145734114Y-72667114D02*
X145781733Y-72857590D01*
X145781733Y-72857590D02*
X145781733Y-73000447D01*
X145781733Y-73000447D02*
X145734114Y-73190923D01*
X145734114Y-73190923D02*
X145686495Y-73286161D01*
X145686495Y-73286161D02*
X145591257Y-73381400D01*
X145591257Y-73381400D02*
X145448400Y-73429019D01*
X145448400Y-73429019D02*
X145210305Y-73429019D01*
X146162686Y-72524257D02*
X146210305Y-72476638D01*
X146210305Y-72476638D02*
X146305543Y-72429019D01*
X146305543Y-72429019D02*
X146543638Y-72429019D01*
X146543638Y-72429019D02*
X146638876Y-72476638D01*
X146638876Y-72476638D02*
X146686495Y-72524257D01*
X146686495Y-72524257D02*
X146734114Y-72619495D01*
X146734114Y-72619495D02*
X146734114Y-72714733D01*
X146734114Y-72714733D02*
X146686495Y-72857590D01*
X146686495Y-72857590D02*
X146115067Y-73429019D01*
X146115067Y-73429019D02*
X146734114Y-73429019D01*
X147668095Y-75784819D02*
X147668095Y-74784819D01*
X148239523Y-75784819D02*
X147810952Y-75213390D01*
X148239523Y-74784819D02*
X147668095Y-75356247D01*
X167422533Y-59433619D02*
X167089200Y-58957428D01*
X166851105Y-59433619D02*
X166851105Y-58433619D01*
X166851105Y-58433619D02*
X167232057Y-58433619D01*
X167232057Y-58433619D02*
X167327295Y-58481238D01*
X167327295Y-58481238D02*
X167374914Y-58528857D01*
X167374914Y-58528857D02*
X167422533Y-58624095D01*
X167422533Y-58624095D02*
X167422533Y-58766952D01*
X167422533Y-58766952D02*
X167374914Y-58862190D01*
X167374914Y-58862190D02*
X167327295Y-58909809D01*
X167327295Y-58909809D02*
X167232057Y-58957428D01*
X167232057Y-58957428D02*
X166851105Y-58957428D01*
X168279676Y-58766952D02*
X168279676Y-59433619D01*
X168041581Y-58386000D02*
X167803486Y-59100285D01*
X167803486Y-59100285D02*
X168422533Y-59100285D01*
X167574933Y-65961419D02*
X167241600Y-65485228D01*
X167003505Y-65961419D02*
X167003505Y-64961419D01*
X167003505Y-64961419D02*
X167384457Y-64961419D01*
X167384457Y-64961419D02*
X167479695Y-65009038D01*
X167479695Y-65009038D02*
X167527314Y-65056657D01*
X167527314Y-65056657D02*
X167574933Y-65151895D01*
X167574933Y-65151895D02*
X167574933Y-65294752D01*
X167574933Y-65294752D02*
X167527314Y-65389990D01*
X167527314Y-65389990D02*
X167479695Y-65437609D01*
X167479695Y-65437609D02*
X167384457Y-65485228D01*
X167384457Y-65485228D02*
X167003505Y-65485228D01*
X168527314Y-65961419D02*
X167955886Y-65961419D01*
X168241600Y-65961419D02*
X168241600Y-64961419D01*
X168241600Y-64961419D02*
X168146362Y-65104276D01*
X168146362Y-65104276D02*
X168051124Y-65199514D01*
X168051124Y-65199514D02*
X167955886Y-65247133D01*
X167473333Y-62735619D02*
X167140000Y-62259428D01*
X166901905Y-62735619D02*
X166901905Y-61735619D01*
X166901905Y-61735619D02*
X167282857Y-61735619D01*
X167282857Y-61735619D02*
X167378095Y-61783238D01*
X167378095Y-61783238D02*
X167425714Y-61830857D01*
X167425714Y-61830857D02*
X167473333Y-61926095D01*
X167473333Y-61926095D02*
X167473333Y-62068952D01*
X167473333Y-62068952D02*
X167425714Y-62164190D01*
X167425714Y-62164190D02*
X167378095Y-62211809D01*
X167378095Y-62211809D02*
X167282857Y-62259428D01*
X167282857Y-62259428D02*
X166901905Y-62259428D01*
X167854286Y-61830857D02*
X167901905Y-61783238D01*
X167901905Y-61783238D02*
X167997143Y-61735619D01*
X167997143Y-61735619D02*
X168235238Y-61735619D01*
X168235238Y-61735619D02*
X168330476Y-61783238D01*
X168330476Y-61783238D02*
X168378095Y-61830857D01*
X168378095Y-61830857D02*
X168425714Y-61926095D01*
X168425714Y-61926095D02*
X168425714Y-62021333D01*
X168425714Y-62021333D02*
X168378095Y-62164190D01*
X168378095Y-62164190D02*
X167806667Y-62735619D01*
X167806667Y-62735619D02*
X168425714Y-62735619D01*
X200054819Y-76738094D02*
X199054819Y-76738094D01*
X199054819Y-76738094D02*
X199054819Y-76499999D01*
X199054819Y-76499999D02*
X199102438Y-76357142D01*
X199102438Y-76357142D02*
X199197676Y-76261904D01*
X199197676Y-76261904D02*
X199292914Y-76214285D01*
X199292914Y-76214285D02*
X199483390Y-76166666D01*
X199483390Y-76166666D02*
X199626247Y-76166666D01*
X199626247Y-76166666D02*
X199816723Y-76214285D01*
X199816723Y-76214285D02*
X199911961Y-76261904D01*
X199911961Y-76261904D02*
X200007200Y-76357142D01*
X200007200Y-76357142D02*
X200054819Y-76499999D01*
X200054819Y-76499999D02*
X200054819Y-76738094D01*
X200054819Y-75214285D02*
X200054819Y-75785713D01*
X200054819Y-75499999D02*
X199054819Y-75499999D01*
X199054819Y-75499999D02*
X199197676Y-75595237D01*
X199197676Y-75595237D02*
X199292914Y-75690475D01*
X199292914Y-75690475D02*
X199340533Y-75785713D01*
X206054819Y-81566667D02*
X205054819Y-81566667D01*
X205054819Y-81566667D02*
X206054819Y-80995239D01*
X206054819Y-80995239D02*
X205054819Y-80995239D01*
X206054819Y-80376191D02*
X206007200Y-80471429D01*
X206007200Y-80471429D02*
X205959580Y-80519048D01*
X205959580Y-80519048D02*
X205864342Y-80566667D01*
X205864342Y-80566667D02*
X205578628Y-80566667D01*
X205578628Y-80566667D02*
X205483390Y-80519048D01*
X205483390Y-80519048D02*
X205435771Y-80471429D01*
X205435771Y-80471429D02*
X205388152Y-80376191D01*
X205388152Y-80376191D02*
X205388152Y-80233334D01*
X205388152Y-80233334D02*
X205435771Y-80138096D01*
X205435771Y-80138096D02*
X205483390Y-80090477D01*
X205483390Y-80090477D02*
X205578628Y-80042858D01*
X205578628Y-80042858D02*
X205864342Y-80042858D01*
X205864342Y-80042858D02*
X205959580Y-80090477D01*
X205959580Y-80090477D02*
X206007200Y-80138096D01*
X206007200Y-80138096D02*
X206054819Y-80233334D01*
X206054819Y-80233334D02*
X206054819Y-80376191D01*
X206054819Y-79185715D02*
X205054819Y-79185715D01*
X206007200Y-79185715D02*
X206054819Y-79280953D01*
X206054819Y-79280953D02*
X206054819Y-79471429D01*
X206054819Y-79471429D02*
X206007200Y-79566667D01*
X206007200Y-79566667D02*
X205959580Y-79614286D01*
X205959580Y-79614286D02*
X205864342Y-79661905D01*
X205864342Y-79661905D02*
X205578628Y-79661905D01*
X205578628Y-79661905D02*
X205483390Y-79614286D01*
X205483390Y-79614286D02*
X205435771Y-79566667D01*
X205435771Y-79566667D02*
X205388152Y-79471429D01*
X205388152Y-79471429D02*
X205388152Y-79280953D01*
X205388152Y-79280953D02*
X205435771Y-79185715D01*
X206007200Y-78328572D02*
X206054819Y-78423810D01*
X206054819Y-78423810D02*
X206054819Y-78614286D01*
X206054819Y-78614286D02*
X206007200Y-78709524D01*
X206007200Y-78709524D02*
X205911961Y-78757143D01*
X205911961Y-78757143D02*
X205531009Y-78757143D01*
X205531009Y-78757143D02*
X205435771Y-78709524D01*
X205435771Y-78709524D02*
X205388152Y-78614286D01*
X205388152Y-78614286D02*
X205388152Y-78423810D01*
X205388152Y-78423810D02*
X205435771Y-78328572D01*
X205435771Y-78328572D02*
X205531009Y-78280953D01*
X205531009Y-78280953D02*
X205626247Y-78280953D01*
X205626247Y-78280953D02*
X205721485Y-78757143D01*
X206054819Y-76661905D02*
X205531009Y-76661905D01*
X205531009Y-76661905D02*
X205435771Y-76709524D01*
X205435771Y-76709524D02*
X205388152Y-76804762D01*
X205388152Y-76804762D02*
X205388152Y-76995238D01*
X205388152Y-76995238D02*
X205435771Y-77090476D01*
X206007200Y-76661905D02*
X206054819Y-76757143D01*
X206054819Y-76757143D02*
X206054819Y-76995238D01*
X206054819Y-76995238D02*
X206007200Y-77090476D01*
X206007200Y-77090476D02*
X205911961Y-77138095D01*
X205911961Y-77138095D02*
X205816723Y-77138095D01*
X205816723Y-77138095D02*
X205721485Y-77090476D01*
X205721485Y-77090476D02*
X205673866Y-76995238D01*
X205673866Y-76995238D02*
X205673866Y-76757143D01*
X205673866Y-76757143D02*
X205626247Y-76661905D01*
X206054819Y-75757143D02*
X205054819Y-75757143D01*
X206007200Y-75757143D02*
X206054819Y-75852381D01*
X206054819Y-75852381D02*
X206054819Y-76042857D01*
X206054819Y-76042857D02*
X206007200Y-76138095D01*
X206007200Y-76138095D02*
X205959580Y-76185714D01*
X205959580Y-76185714D02*
X205864342Y-76233333D01*
X205864342Y-76233333D02*
X205578628Y-76233333D01*
X205578628Y-76233333D02*
X205483390Y-76185714D01*
X205483390Y-76185714D02*
X205435771Y-76138095D01*
X205435771Y-76138095D02*
X205388152Y-76042857D01*
X205388152Y-76042857D02*
X205388152Y-75852381D01*
X205388152Y-75852381D02*
X205435771Y-75757143D01*
X206054819Y-74852381D02*
X205054819Y-74852381D01*
X206007200Y-74852381D02*
X206054819Y-74947619D01*
X206054819Y-74947619D02*
X206054819Y-75138095D01*
X206054819Y-75138095D02*
X206007200Y-75233333D01*
X206007200Y-75233333D02*
X205959580Y-75280952D01*
X205959580Y-75280952D02*
X205864342Y-75328571D01*
X205864342Y-75328571D02*
X205578628Y-75328571D01*
X205578628Y-75328571D02*
X205483390Y-75280952D01*
X205483390Y-75280952D02*
X205435771Y-75233333D01*
X205435771Y-75233333D02*
X205388152Y-75138095D01*
X205388152Y-75138095D02*
X205388152Y-74947619D01*
X205388152Y-74947619D02*
X205435771Y-74852381D01*
X206054819Y-74376190D02*
X205388152Y-74376190D01*
X205578628Y-74376190D02*
X205483390Y-74328571D01*
X205483390Y-74328571D02*
X205435771Y-74280952D01*
X205435771Y-74280952D02*
X205388152Y-74185714D01*
X205388152Y-74185714D02*
X205388152Y-74090476D01*
X206007200Y-73042856D02*
X206054819Y-72947618D01*
X206054819Y-72947618D02*
X206054819Y-72757142D01*
X206054819Y-72757142D02*
X206007200Y-72661904D01*
X206007200Y-72661904D02*
X205911961Y-72614285D01*
X205911961Y-72614285D02*
X205864342Y-72614285D01*
X205864342Y-72614285D02*
X205769104Y-72661904D01*
X205769104Y-72661904D02*
X205721485Y-72757142D01*
X205721485Y-72757142D02*
X205721485Y-72899999D01*
X205721485Y-72899999D02*
X205673866Y-72995237D01*
X205673866Y-72995237D02*
X205578628Y-73042856D01*
X205578628Y-73042856D02*
X205531009Y-73042856D01*
X205531009Y-73042856D02*
X205435771Y-72995237D01*
X205435771Y-72995237D02*
X205388152Y-72899999D01*
X205388152Y-72899999D02*
X205388152Y-72757142D01*
X205388152Y-72757142D02*
X205435771Y-72661904D01*
X206007200Y-71804761D02*
X206054819Y-71899999D01*
X206054819Y-71899999D02*
X206054819Y-72090475D01*
X206054819Y-72090475D02*
X206007200Y-72185713D01*
X206007200Y-72185713D02*
X205911961Y-72233332D01*
X205911961Y-72233332D02*
X205531009Y-72233332D01*
X205531009Y-72233332D02*
X205435771Y-72185713D01*
X205435771Y-72185713D02*
X205388152Y-72090475D01*
X205388152Y-72090475D02*
X205388152Y-71899999D01*
X205388152Y-71899999D02*
X205435771Y-71804761D01*
X205435771Y-71804761D02*
X205531009Y-71757142D01*
X205531009Y-71757142D02*
X205626247Y-71757142D01*
X205626247Y-71757142D02*
X205721485Y-72233332D01*
X205388152Y-71471427D02*
X205388152Y-71090475D01*
X205054819Y-71328570D02*
X205911961Y-71328570D01*
X205911961Y-71328570D02*
X206007200Y-71280951D01*
X206007200Y-71280951D02*
X206054819Y-71185713D01*
X206054819Y-71185713D02*
X206054819Y-71090475D01*
X197939819Y-91092257D02*
X197463628Y-91425590D01*
X197939819Y-91663685D02*
X196939819Y-91663685D01*
X196939819Y-91663685D02*
X196939819Y-91282733D01*
X196939819Y-91282733D02*
X196987438Y-91187495D01*
X196987438Y-91187495D02*
X197035057Y-91139876D01*
X197035057Y-91139876D02*
X197130295Y-91092257D01*
X197130295Y-91092257D02*
X197273152Y-91092257D01*
X197273152Y-91092257D02*
X197368390Y-91139876D01*
X197368390Y-91139876D02*
X197416009Y-91187495D01*
X197416009Y-91187495D02*
X197463628Y-91282733D01*
X197463628Y-91282733D02*
X197463628Y-91663685D01*
X197939819Y-90139876D02*
X197939819Y-90711304D01*
X197939819Y-90425590D02*
X196939819Y-90425590D01*
X196939819Y-90425590D02*
X197082676Y-90520828D01*
X197082676Y-90520828D02*
X197177914Y-90616066D01*
X197177914Y-90616066D02*
X197225533Y-90711304D01*
X197368390Y-89568447D02*
X197320771Y-89663685D01*
X197320771Y-89663685D02*
X197273152Y-89711304D01*
X197273152Y-89711304D02*
X197177914Y-89758923D01*
X197177914Y-89758923D02*
X197130295Y-89758923D01*
X197130295Y-89758923D02*
X197035057Y-89711304D01*
X197035057Y-89711304D02*
X196987438Y-89663685D01*
X196987438Y-89663685D02*
X196939819Y-89568447D01*
X196939819Y-89568447D02*
X196939819Y-89377971D01*
X196939819Y-89377971D02*
X196987438Y-89282733D01*
X196987438Y-89282733D02*
X197035057Y-89235114D01*
X197035057Y-89235114D02*
X197130295Y-89187495D01*
X197130295Y-89187495D02*
X197177914Y-89187495D01*
X197177914Y-89187495D02*
X197273152Y-89235114D01*
X197273152Y-89235114D02*
X197320771Y-89282733D01*
X197320771Y-89282733D02*
X197368390Y-89377971D01*
X197368390Y-89377971D02*
X197368390Y-89568447D01*
X197368390Y-89568447D02*
X197416009Y-89663685D01*
X197416009Y-89663685D02*
X197463628Y-89711304D01*
X197463628Y-89711304D02*
X197558866Y-89758923D01*
X197558866Y-89758923D02*
X197749342Y-89758923D01*
X197749342Y-89758923D02*
X197844580Y-89711304D01*
X197844580Y-89711304D02*
X197892200Y-89663685D01*
X197892200Y-89663685D02*
X197939819Y-89568447D01*
X197939819Y-89568447D02*
X197939819Y-89377971D01*
X197939819Y-89377971D02*
X197892200Y-89282733D01*
X197892200Y-89282733D02*
X197844580Y-89235114D01*
X197844580Y-89235114D02*
X197749342Y-89187495D01*
X197749342Y-89187495D02*
X197558866Y-89187495D01*
X197558866Y-89187495D02*
X197463628Y-89235114D01*
X197463628Y-89235114D02*
X197416009Y-89282733D01*
X197416009Y-89282733D02*
X197368390Y-89377971D01*
X144588000Y-67608532D02*
X144635619Y-67465675D01*
X144635619Y-67465675D02*
X144635619Y-67227580D01*
X144635619Y-67227580D02*
X144588000Y-67132342D01*
X144588000Y-67132342D02*
X144540380Y-67084723D01*
X144540380Y-67084723D02*
X144445142Y-67037104D01*
X144445142Y-67037104D02*
X144349904Y-67037104D01*
X144349904Y-67037104D02*
X144254666Y-67084723D01*
X144254666Y-67084723D02*
X144207047Y-67132342D01*
X144207047Y-67132342D02*
X144159428Y-67227580D01*
X144159428Y-67227580D02*
X144111809Y-67418056D01*
X144111809Y-67418056D02*
X144064190Y-67513294D01*
X144064190Y-67513294D02*
X144016571Y-67560913D01*
X144016571Y-67560913D02*
X143921333Y-67608532D01*
X143921333Y-67608532D02*
X143826095Y-67608532D01*
X143826095Y-67608532D02*
X143730857Y-67560913D01*
X143730857Y-67560913D02*
X143683238Y-67513294D01*
X143683238Y-67513294D02*
X143635619Y-67418056D01*
X143635619Y-67418056D02*
X143635619Y-67179961D01*
X143635619Y-67179961D02*
X143683238Y-67037104D01*
X143635619Y-66703770D02*
X144635619Y-66465675D01*
X144635619Y-66465675D02*
X143921333Y-66275199D01*
X143921333Y-66275199D02*
X144635619Y-66084723D01*
X144635619Y-66084723D02*
X143635619Y-65846628D01*
X144635619Y-64941866D02*
X144635619Y-65513294D01*
X144635619Y-65227580D02*
X143635619Y-65227580D01*
X143635619Y-65227580D02*
X143778476Y-65322818D01*
X143778476Y-65322818D02*
X143873714Y-65418056D01*
X143873714Y-65418056D02*
X143921333Y-65513294D01*
X138261904Y-68554819D02*
X137928571Y-68078628D01*
X137690476Y-68554819D02*
X137690476Y-67554819D01*
X137690476Y-67554819D02*
X138071428Y-67554819D01*
X138071428Y-67554819D02*
X138166666Y-67602438D01*
X138166666Y-67602438D02*
X138214285Y-67650057D01*
X138214285Y-67650057D02*
X138261904Y-67745295D01*
X138261904Y-67745295D02*
X138261904Y-67888152D01*
X138261904Y-67888152D02*
X138214285Y-67983390D01*
X138214285Y-67983390D02*
X138166666Y-68031009D01*
X138166666Y-68031009D02*
X138071428Y-68078628D01*
X138071428Y-68078628D02*
X137690476Y-68078628D01*
X139071428Y-68507200D02*
X138976190Y-68554819D01*
X138976190Y-68554819D02*
X138785714Y-68554819D01*
X138785714Y-68554819D02*
X138690476Y-68507200D01*
X138690476Y-68507200D02*
X138642857Y-68411961D01*
X138642857Y-68411961D02*
X138642857Y-68031009D01*
X138642857Y-68031009D02*
X138690476Y-67935771D01*
X138690476Y-67935771D02*
X138785714Y-67888152D01*
X138785714Y-67888152D02*
X138976190Y-67888152D01*
X138976190Y-67888152D02*
X139071428Y-67935771D01*
X139071428Y-67935771D02*
X139119047Y-68031009D01*
X139119047Y-68031009D02*
X139119047Y-68126247D01*
X139119047Y-68126247D02*
X138642857Y-68221485D01*
X139500000Y-68507200D02*
X139595238Y-68554819D01*
X139595238Y-68554819D02*
X139785714Y-68554819D01*
X139785714Y-68554819D02*
X139880952Y-68507200D01*
X139880952Y-68507200D02*
X139928571Y-68411961D01*
X139928571Y-68411961D02*
X139928571Y-68364342D01*
X139928571Y-68364342D02*
X139880952Y-68269104D01*
X139880952Y-68269104D02*
X139785714Y-68221485D01*
X139785714Y-68221485D02*
X139642857Y-68221485D01*
X139642857Y-68221485D02*
X139547619Y-68173866D01*
X139547619Y-68173866D02*
X139500000Y-68078628D01*
X139500000Y-68078628D02*
X139500000Y-68031009D01*
X139500000Y-68031009D02*
X139547619Y-67935771D01*
X139547619Y-67935771D02*
X139642857Y-67888152D01*
X139642857Y-67888152D02*
X139785714Y-67888152D01*
X139785714Y-67888152D02*
X139880952Y-67935771D01*
X140738095Y-68507200D02*
X140642857Y-68554819D01*
X140642857Y-68554819D02*
X140452381Y-68554819D01*
X140452381Y-68554819D02*
X140357143Y-68507200D01*
X140357143Y-68507200D02*
X140309524Y-68411961D01*
X140309524Y-68411961D02*
X140309524Y-68031009D01*
X140309524Y-68031009D02*
X140357143Y-67935771D01*
X140357143Y-67935771D02*
X140452381Y-67888152D01*
X140452381Y-67888152D02*
X140642857Y-67888152D01*
X140642857Y-67888152D02*
X140738095Y-67935771D01*
X140738095Y-67935771D02*
X140785714Y-68031009D01*
X140785714Y-68031009D02*
X140785714Y-68126247D01*
X140785714Y-68126247D02*
X140309524Y-68221485D01*
X141071429Y-67888152D02*
X141452381Y-67888152D01*
X141214286Y-67554819D02*
X141214286Y-68411961D01*
X141214286Y-68411961D02*
X141261905Y-68507200D01*
X141261905Y-68507200D02*
X141357143Y-68554819D01*
X141357143Y-68554819D02*
X141452381Y-68554819D01*
X187932219Y-91168457D02*
X187456028Y-91501790D01*
X187932219Y-91739885D02*
X186932219Y-91739885D01*
X186932219Y-91739885D02*
X186932219Y-91358933D01*
X186932219Y-91358933D02*
X186979838Y-91263695D01*
X186979838Y-91263695D02*
X187027457Y-91216076D01*
X187027457Y-91216076D02*
X187122695Y-91168457D01*
X187122695Y-91168457D02*
X187265552Y-91168457D01*
X187265552Y-91168457D02*
X187360790Y-91216076D01*
X187360790Y-91216076D02*
X187408409Y-91263695D01*
X187408409Y-91263695D02*
X187456028Y-91358933D01*
X187456028Y-91358933D02*
X187456028Y-91739885D01*
X187932219Y-90216076D02*
X187932219Y-90787504D01*
X187932219Y-90501790D02*
X186932219Y-90501790D01*
X186932219Y-90501790D02*
X187075076Y-90597028D01*
X187075076Y-90597028D02*
X187170314Y-90692266D01*
X187170314Y-90692266D02*
X187217933Y-90787504D01*
X186932219Y-89358933D02*
X186932219Y-89549409D01*
X186932219Y-89549409D02*
X186979838Y-89644647D01*
X186979838Y-89644647D02*
X187027457Y-89692266D01*
X187027457Y-89692266D02*
X187170314Y-89787504D01*
X187170314Y-89787504D02*
X187360790Y-89835123D01*
X187360790Y-89835123D02*
X187741742Y-89835123D01*
X187741742Y-89835123D02*
X187836980Y-89787504D01*
X187836980Y-89787504D02*
X187884600Y-89739885D01*
X187884600Y-89739885D02*
X187932219Y-89644647D01*
X187932219Y-89644647D02*
X187932219Y-89454171D01*
X187932219Y-89454171D02*
X187884600Y-89358933D01*
X187884600Y-89358933D02*
X187836980Y-89311314D01*
X187836980Y-89311314D02*
X187741742Y-89263695D01*
X187741742Y-89263695D02*
X187503647Y-89263695D01*
X187503647Y-89263695D02*
X187408409Y-89311314D01*
X187408409Y-89311314D02*
X187360790Y-89358933D01*
X187360790Y-89358933D02*
X187313171Y-89454171D01*
X187313171Y-89454171D02*
X187313171Y-89644647D01*
X187313171Y-89644647D02*
X187360790Y-89739885D01*
X187360790Y-89739885D02*
X187408409Y-89787504D01*
X187408409Y-89787504D02*
X187503647Y-89835123D01*
X154226419Y-91733666D02*
X153750228Y-92066999D01*
X154226419Y-92305094D02*
X153226419Y-92305094D01*
X153226419Y-92305094D02*
X153226419Y-91924142D01*
X153226419Y-91924142D02*
X153274038Y-91828904D01*
X153274038Y-91828904D02*
X153321657Y-91781285D01*
X153321657Y-91781285D02*
X153416895Y-91733666D01*
X153416895Y-91733666D02*
X153559752Y-91733666D01*
X153559752Y-91733666D02*
X153654990Y-91781285D01*
X153654990Y-91781285D02*
X153702609Y-91828904D01*
X153702609Y-91828904D02*
X153750228Y-91924142D01*
X153750228Y-91924142D02*
X153750228Y-92305094D01*
X153654990Y-91162237D02*
X153607371Y-91257475D01*
X153607371Y-91257475D02*
X153559752Y-91305094D01*
X153559752Y-91305094D02*
X153464514Y-91352713D01*
X153464514Y-91352713D02*
X153416895Y-91352713D01*
X153416895Y-91352713D02*
X153321657Y-91305094D01*
X153321657Y-91305094D02*
X153274038Y-91257475D01*
X153274038Y-91257475D02*
X153226419Y-91162237D01*
X153226419Y-91162237D02*
X153226419Y-90971761D01*
X153226419Y-90971761D02*
X153274038Y-90876523D01*
X153274038Y-90876523D02*
X153321657Y-90828904D01*
X153321657Y-90828904D02*
X153416895Y-90781285D01*
X153416895Y-90781285D02*
X153464514Y-90781285D01*
X153464514Y-90781285D02*
X153559752Y-90828904D01*
X153559752Y-90828904D02*
X153607371Y-90876523D01*
X153607371Y-90876523D02*
X153654990Y-90971761D01*
X153654990Y-90971761D02*
X153654990Y-91162237D01*
X153654990Y-91162237D02*
X153702609Y-91257475D01*
X153702609Y-91257475D02*
X153750228Y-91305094D01*
X153750228Y-91305094D02*
X153845466Y-91352713D01*
X153845466Y-91352713D02*
X154035942Y-91352713D01*
X154035942Y-91352713D02*
X154131180Y-91305094D01*
X154131180Y-91305094D02*
X154178800Y-91257475D01*
X154178800Y-91257475D02*
X154226419Y-91162237D01*
X154226419Y-91162237D02*
X154226419Y-90971761D01*
X154226419Y-90971761D02*
X154178800Y-90876523D01*
X154178800Y-90876523D02*
X154131180Y-90828904D01*
X154131180Y-90828904D02*
X154035942Y-90781285D01*
X154035942Y-90781285D02*
X153845466Y-90781285D01*
X153845466Y-90781285D02*
X153750228Y-90828904D01*
X153750228Y-90828904D02*
X153702609Y-90876523D01*
X153702609Y-90876523D02*
X153654990Y-90971761D01*
X148003419Y-91098666D02*
X147527228Y-91431999D01*
X148003419Y-91670094D02*
X147003419Y-91670094D01*
X147003419Y-91670094D02*
X147003419Y-91289142D01*
X147003419Y-91289142D02*
X147051038Y-91193904D01*
X147051038Y-91193904D02*
X147098657Y-91146285D01*
X147098657Y-91146285D02*
X147193895Y-91098666D01*
X147193895Y-91098666D02*
X147336752Y-91098666D01*
X147336752Y-91098666D02*
X147431990Y-91146285D01*
X147431990Y-91146285D02*
X147479609Y-91193904D01*
X147479609Y-91193904D02*
X147527228Y-91289142D01*
X147527228Y-91289142D02*
X147527228Y-91670094D01*
X147003419Y-90765332D02*
X147003419Y-90098666D01*
X147003419Y-90098666D02*
X148003419Y-90527237D01*
X193289819Y-107013333D02*
X194004104Y-107013333D01*
X194004104Y-107013333D02*
X194146961Y-107060952D01*
X194146961Y-107060952D02*
X194242200Y-107156190D01*
X194242200Y-107156190D02*
X194289819Y-107299047D01*
X194289819Y-107299047D02*
X194289819Y-107394285D01*
X194289819Y-106489523D02*
X194289819Y-106299047D01*
X194289819Y-106299047D02*
X194242200Y-106203809D01*
X194242200Y-106203809D02*
X194194580Y-106156190D01*
X194194580Y-106156190D02*
X194051723Y-106060952D01*
X194051723Y-106060952D02*
X193861247Y-106013333D01*
X193861247Y-106013333D02*
X193480295Y-106013333D01*
X193480295Y-106013333D02*
X193385057Y-106060952D01*
X193385057Y-106060952D02*
X193337438Y-106108571D01*
X193337438Y-106108571D02*
X193289819Y-106203809D01*
X193289819Y-106203809D02*
X193289819Y-106394285D01*
X193289819Y-106394285D02*
X193337438Y-106489523D01*
X193337438Y-106489523D02*
X193385057Y-106537142D01*
X193385057Y-106537142D02*
X193480295Y-106584761D01*
X193480295Y-106584761D02*
X193718390Y-106584761D01*
X193718390Y-106584761D02*
X193813628Y-106537142D01*
X193813628Y-106537142D02*
X193861247Y-106489523D01*
X193861247Y-106489523D02*
X193908866Y-106394285D01*
X193908866Y-106394285D02*
X193908866Y-106203809D01*
X193908866Y-106203809D02*
X193861247Y-106108571D01*
X193861247Y-106108571D02*
X193813628Y-106060952D01*
X193813628Y-106060952D02*
X193718390Y-106013333D01*
X139949819Y-103203333D02*
X140664104Y-103203333D01*
X140664104Y-103203333D02*
X140806961Y-103250952D01*
X140806961Y-103250952D02*
X140902200Y-103346190D01*
X140902200Y-103346190D02*
X140949819Y-103489047D01*
X140949819Y-103489047D02*
X140949819Y-103584285D01*
X140045057Y-102774761D02*
X139997438Y-102727142D01*
X139997438Y-102727142D02*
X139949819Y-102631904D01*
X139949819Y-102631904D02*
X139949819Y-102393809D01*
X139949819Y-102393809D02*
X139997438Y-102298571D01*
X139997438Y-102298571D02*
X140045057Y-102250952D01*
X140045057Y-102250952D02*
X140140295Y-102203333D01*
X140140295Y-102203333D02*
X140235533Y-102203333D01*
X140235533Y-102203333D02*
X140378390Y-102250952D01*
X140378390Y-102250952D02*
X140949819Y-102822380D01*
X140949819Y-102822380D02*
X140949819Y-102203333D01*
X194917219Y-91193857D02*
X194441028Y-91527190D01*
X194917219Y-91765285D02*
X193917219Y-91765285D01*
X193917219Y-91765285D02*
X193917219Y-91384333D01*
X193917219Y-91384333D02*
X193964838Y-91289095D01*
X193964838Y-91289095D02*
X194012457Y-91241476D01*
X194012457Y-91241476D02*
X194107695Y-91193857D01*
X194107695Y-91193857D02*
X194250552Y-91193857D01*
X194250552Y-91193857D02*
X194345790Y-91241476D01*
X194345790Y-91241476D02*
X194393409Y-91289095D01*
X194393409Y-91289095D02*
X194441028Y-91384333D01*
X194441028Y-91384333D02*
X194441028Y-91765285D01*
X194917219Y-90241476D02*
X194917219Y-90812904D01*
X194917219Y-90527190D02*
X193917219Y-90527190D01*
X193917219Y-90527190D02*
X194060076Y-90622428D01*
X194060076Y-90622428D02*
X194155314Y-90717666D01*
X194155314Y-90717666D02*
X194202933Y-90812904D01*
X193917219Y-89908142D02*
X193917219Y-89241476D01*
X193917219Y-89241476D02*
X194917219Y-89670047D01*
D12*
G04 #@! TO.C,C7*
X142775000Y-78160000D02*
X143310000Y-78160000D01*
X142775000Y-84400000D02*
X142775000Y-78160000D01*
X143310000Y-84400000D02*
X142775000Y-84400000D01*
X144980000Y-78160000D02*
X145515000Y-78160000D01*
X145515000Y-78160000D02*
X145515000Y-84400000D01*
X145515000Y-84400000D02*
X144980000Y-84400000D01*
G04 #@! TO.C,R25*
X186570000Y-87700000D02*
X186640000Y-87700000D01*
X186570000Y-87700000D02*
G75*
G02*
X183830000Y-87700000I-1370000J0D01*
G01*
X183830000Y-87700000D02*
G75*
G02*
X186570000Y-87700000I1370000J0D01*
G01*
G04 #@! TO.C,J5*
X194835000Y-100220000D02*
X205215000Y-100220000D01*
X194835000Y-102870000D02*
X194835000Y-100220000D01*
X194835000Y-105520000D02*
X194835000Y-104140000D01*
X196215000Y-105520000D02*
X194835000Y-105520000D01*
X197485000Y-102870000D02*
X194835000Y-102870000D01*
X197485000Y-105520000D02*
X197485000Y-102870000D01*
X197485000Y-105520000D02*
X205215000Y-105520000D01*
X205215000Y-105520000D02*
X205215000Y-100220000D01*
G04 #@! TO.C,R14*
X180975000Y-94940000D02*
X180975000Y-95010000D01*
X182345000Y-93570000D02*
G75*
G02*
X179605000Y-93570000I-1370000J0D01*
G01*
X179605000Y-93570000D02*
G75*
G02*
X182345000Y-93570000I1370000J0D01*
G01*
G04 #@! TO.C,R3*
X201195000Y-80645000D02*
X201125000Y-80645000D01*
X203935000Y-80645000D02*
G75*
G02*
X201195000Y-80645000I-1370000J0D01*
G01*
X201195000Y-80645000D02*
G75*
G02*
X203935000Y-80645000I1370000J0D01*
G01*
G04 #@! TO.C,J4*
X177055000Y-100220000D02*
X187435000Y-100220000D01*
X177055000Y-102870000D02*
X177055000Y-100220000D01*
X177055000Y-105520000D02*
X177055000Y-104140000D01*
X178435000Y-105520000D02*
X177055000Y-105520000D01*
X179705000Y-102870000D02*
X177055000Y-102870000D01*
X179705000Y-105520000D02*
X179705000Y-102870000D01*
X179705000Y-105520000D02*
X187435000Y-105520000D01*
X187435000Y-105520000D02*
X187435000Y-100220000D01*
G04 #@! TO.C,J10*
X201185000Y-60850000D02*
X202565000Y-60850000D01*
X201185000Y-62230000D02*
X201185000Y-60850000D01*
X201185000Y-63500000D02*
X201185000Y-68690000D01*
X201185000Y-63500000D02*
X203945000Y-63500000D01*
X201185000Y-68690000D02*
X203945000Y-68690000D01*
X203945000Y-63500000D02*
X203945000Y-68690000D01*
G04 #@! TO.C,C3*
X147500000Y-60140000D02*
X147500000Y-60180000D01*
X147500000Y-65560000D02*
X147500000Y-65520000D01*
X149170000Y-60180000D02*
X145830000Y-60180000D01*
X145830000Y-65520000D01*
X149170000Y-65520000D01*
X149170000Y-60180000D01*
G04 #@! TO.C,R12*
X169545000Y-94940000D02*
X169545000Y-95010000D01*
X170915000Y-93570000D02*
G75*
G02*
X168175000Y-93570000I-1370000J0D01*
G01*
X168175000Y-93570000D02*
G75*
G02*
X170915000Y-93570000I1370000J0D01*
G01*
G04 #@! TO.C,J8*
X177055000Y-108060000D02*
X177055000Y-106680000D01*
X178435000Y-108060000D02*
X177055000Y-108060000D01*
X179705000Y-105300000D02*
X187435000Y-105300000D01*
X179705000Y-108060000D02*
X179705000Y-105300000D01*
X179705000Y-108060000D02*
X187435000Y-108060000D01*
X187435000Y-108060000D02*
X187435000Y-105300000D01*
G04 #@! TO.C,JP1*
X196120000Y-59680000D02*
X196120000Y-58300000D01*
X197500000Y-59680000D02*
X196120000Y-59680000D01*
X198770000Y-56920000D02*
X201420000Y-56920000D01*
X198770000Y-59680000D02*
X198770000Y-56920000D01*
X198770000Y-59680000D02*
X201420000Y-59680000D01*
X201420000Y-59680000D02*
X201420000Y-56920000D01*
G04 #@! TO.C,R23*
X164565000Y-68580000D02*
X164635000Y-68580000D01*
X164565000Y-68580000D02*
G75*
G02*
X161825000Y-68580000I-1370000J0D01*
G01*
X161825000Y-68580000D02*
G75*
G02*
X164565000Y-68580000I1370000J0D01*
G01*
G04 #@! TO.C,C4*
X147280000Y-79990000D02*
X152440000Y-79990000D01*
X147280000Y-80030000D02*
X152440000Y-80030000D01*
X147281000Y-79950000D02*
X152439000Y-79950000D01*
X147283000Y-79910000D02*
X152437000Y-79910000D01*
X147285000Y-79870000D02*
X152435000Y-79870000D01*
X147288000Y-79830000D02*
X152432000Y-79830000D01*
X147291000Y-79790000D02*
X148820000Y-79790000D01*
X147295000Y-79750000D02*
X148820000Y-79750000D01*
X147300000Y-79710000D02*
X148820000Y-79710000D01*
X147305000Y-79670000D02*
X148820000Y-79670000D01*
X147311000Y-79630000D02*
X148820000Y-79630000D01*
X147317000Y-79590000D02*
X148820000Y-79590000D01*
X147324000Y-79550000D02*
X148820000Y-79550000D01*
X147332000Y-79510000D02*
X148820000Y-79510000D01*
X147341000Y-79470000D02*
X148820000Y-79470000D01*
X147350000Y-79430000D02*
X148820000Y-79430000D01*
X147359000Y-79390000D02*
X148820000Y-79390000D01*
X147370000Y-79350000D02*
X148820000Y-79350000D01*
X147381000Y-79310000D02*
X148820000Y-79310000D01*
X147393000Y-79270000D02*
X148820000Y-79270000D01*
X147405000Y-79230000D02*
X148820000Y-79230000D01*
X147418000Y-79190000D02*
X148820000Y-79190000D01*
X147432000Y-79150000D02*
X148820000Y-79150000D01*
X147447000Y-79110000D02*
X148820000Y-79110000D01*
X147462000Y-79070000D02*
X148820000Y-79070000D01*
X147478000Y-79030000D02*
X148820000Y-79030000D01*
X147495000Y-78990000D02*
X148820000Y-78990000D01*
X147513000Y-78950000D02*
X148820000Y-78950000D01*
X147531000Y-78910000D02*
X148820000Y-78910000D01*
X147551000Y-78870000D02*
X148820000Y-78870000D01*
X147571000Y-78830000D02*
X148820000Y-78830000D01*
X147592000Y-78790000D02*
X148820000Y-78790000D01*
X147614000Y-78750000D02*
X148820000Y-78750000D01*
X147637000Y-78710000D02*
X148820000Y-78710000D01*
X147661000Y-78670000D02*
X148820000Y-78670000D01*
X147685000Y-78630000D02*
X148820000Y-78630000D01*
X147711000Y-78590000D02*
X148820000Y-78590000D01*
X147738000Y-78550000D02*
X148820000Y-78550000D01*
X147766000Y-78510000D02*
X148820000Y-78510000D01*
X147795000Y-78470000D02*
X148820000Y-78470000D01*
X147825000Y-78430000D02*
X148820000Y-78430000D01*
X147857000Y-78390000D02*
X148820000Y-78390000D01*
X147890000Y-78350000D02*
X148820000Y-78350000D01*
X147924000Y-78310000D02*
X148820000Y-78310000D01*
X147959000Y-78270000D02*
X148820000Y-78270000D01*
X147996000Y-78230000D02*
X148820000Y-78230000D01*
X148035000Y-78190000D02*
X148820000Y-78190000D01*
X148075000Y-78150000D02*
X148820000Y-78150000D01*
X148117000Y-78110000D02*
X148820000Y-78110000D01*
X148135000Y-82584775D02*
X148635000Y-82584775D01*
X148161000Y-78070000D02*
X148820000Y-78070000D01*
X148208000Y-78030000D02*
X148820000Y-78030000D01*
X148256000Y-77990000D02*
X148820000Y-77990000D01*
X148307000Y-77950000D02*
X148820000Y-77950000D01*
X148361000Y-77910000D02*
X148820000Y-77910000D01*
X148385000Y-82834775D02*
X148385000Y-82334775D01*
X148417000Y-77870000D02*
X148820000Y-77870000D01*
X148477000Y-77830000D02*
X148820000Y-77830000D01*
X148541000Y-77790000D02*
X148820000Y-77790000D01*
X148609000Y-77750000D02*
X148820000Y-77750000D01*
X148683000Y-77710000D02*
X151037000Y-77710000D01*
X148762000Y-77670000D02*
X150958000Y-77670000D01*
X148849000Y-77630000D02*
X150871000Y-77630000D01*
X148946000Y-77590000D02*
X150774000Y-77590000D01*
X149055000Y-77550000D02*
X150665000Y-77550000D01*
X149183000Y-77510000D02*
X150537000Y-77510000D01*
X149343000Y-77470000D02*
X150377000Y-77470000D01*
X149577000Y-77430000D02*
X150143000Y-77430000D01*
X150900000Y-77750000D02*
X151111000Y-77750000D01*
X150900000Y-77790000D02*
X151179000Y-77790000D01*
X150900000Y-77830000D02*
X151243000Y-77830000D01*
X150900000Y-77870000D02*
X151303000Y-77870000D01*
X150900000Y-77910000D02*
X151359000Y-77910000D01*
X150900000Y-77950000D02*
X151413000Y-77950000D01*
X150900000Y-77990000D02*
X151464000Y-77990000D01*
X150900000Y-78030000D02*
X151512000Y-78030000D01*
X150900000Y-78070000D02*
X151559000Y-78070000D01*
X150900000Y-78110000D02*
X151603000Y-78110000D01*
X150900000Y-78150000D02*
X151645000Y-78150000D01*
X150900000Y-78190000D02*
X151685000Y-78190000D01*
X150900000Y-78230000D02*
X151724000Y-78230000D01*
X150900000Y-78270000D02*
X151761000Y-78270000D01*
X150900000Y-78310000D02*
X151796000Y-78310000D01*
X150900000Y-78350000D02*
X151830000Y-78350000D01*
X150900000Y-78390000D02*
X151863000Y-78390000D01*
X150900000Y-78430000D02*
X151895000Y-78430000D01*
X150900000Y-78470000D02*
X151925000Y-78470000D01*
X150900000Y-78510000D02*
X151954000Y-78510000D01*
X150900000Y-78550000D02*
X151982000Y-78550000D01*
X150900000Y-78590000D02*
X152009000Y-78590000D01*
X150900000Y-78630000D02*
X152035000Y-78630000D01*
X150900000Y-78670000D02*
X152059000Y-78670000D01*
X150900000Y-78710000D02*
X152083000Y-78710000D01*
X150900000Y-78750000D02*
X152106000Y-78750000D01*
X150900000Y-78790000D02*
X152128000Y-78790000D01*
X150900000Y-78830000D02*
X152149000Y-78830000D01*
X150900000Y-78870000D02*
X152169000Y-78870000D01*
X150900000Y-78910000D02*
X152189000Y-78910000D01*
X150900000Y-78950000D02*
X152207000Y-78950000D01*
X150900000Y-78990000D02*
X152225000Y-78990000D01*
X150900000Y-79030000D02*
X152242000Y-79030000D01*
X150900000Y-79070000D02*
X152258000Y-79070000D01*
X150900000Y-79110000D02*
X152273000Y-79110000D01*
X150900000Y-79150000D02*
X152288000Y-79150000D01*
X150900000Y-79190000D02*
X152302000Y-79190000D01*
X150900000Y-79230000D02*
X152315000Y-79230000D01*
X150900000Y-79270000D02*
X152327000Y-79270000D01*
X150900000Y-79310000D02*
X152339000Y-79310000D01*
X150900000Y-79350000D02*
X152350000Y-79350000D01*
X150900000Y-79390000D02*
X152361000Y-79390000D01*
X150900000Y-79430000D02*
X152370000Y-79430000D01*
X150900000Y-79470000D02*
X152379000Y-79470000D01*
X150900000Y-79510000D02*
X152388000Y-79510000D01*
X150900000Y-79550000D02*
X152396000Y-79550000D01*
X150900000Y-79590000D02*
X152403000Y-79590000D01*
X150900000Y-79630000D02*
X152409000Y-79630000D01*
X150900000Y-79670000D02*
X152415000Y-79670000D01*
X150900000Y-79710000D02*
X152420000Y-79710000D01*
X150900000Y-79750000D02*
X152425000Y-79750000D01*
X150900000Y-79790000D02*
X152429000Y-79790000D01*
X152480000Y-80030000D02*
G75*
G02*
X147240000Y-80030000I-2620000J0D01*
G01*
X147240000Y-80030000D02*
G75*
G02*
X152480000Y-80030000I2620000J0D01*
G01*
G04 #@! TO.C,R9*
X160020000Y-94940000D02*
X160020000Y-95010000D01*
X161390000Y-93570000D02*
G75*
G02*
X158650000Y-93570000I-1370000J0D01*
G01*
X158650000Y-93570000D02*
G75*
G02*
X161390000Y-93570000I1370000J0D01*
G01*
G04 #@! TO.C,R26*
X186570000Y-81700000D02*
X186640000Y-81700000D01*
X186570000Y-81700000D02*
G75*
G02*
X183830000Y-81700000I-1370000J0D01*
G01*
X183830000Y-81700000D02*
G75*
G02*
X186570000Y-81700000I1370000J0D01*
G01*
G04 #@! TO.C,R5*
X142240000Y-94940000D02*
X142240000Y-95010000D01*
X143610000Y-93570000D02*
G75*
G02*
X140870000Y-93570000I-1370000J0D01*
G01*
X140870000Y-93570000D02*
G75*
G02*
X143610000Y-93570000I1370000J0D01*
G01*
G04 #@! TO.C,R11*
X166380000Y-94940000D02*
X166380000Y-95010000D01*
X167750000Y-93570000D02*
G75*
G02*
X165010000Y-93570000I-1370000J0D01*
G01*
X165010000Y-93570000D02*
G75*
G02*
X167750000Y-93570000I1370000J0D01*
G01*
G04 #@! TO.C,C1*
X146182651Y-84680000D02*
X146982651Y-84680000D01*
X146582651Y-84280000D02*
X146582651Y-85080000D01*
X150592349Y-82915000D02*
X150592349Y-91075000D01*
X150632349Y-82915000D02*
X150632349Y-91075000D01*
X150672349Y-82916000D02*
X150672349Y-91074000D01*
X150712349Y-82917000D02*
X150712349Y-91073000D01*
X150752349Y-82918000D02*
X150752349Y-91072000D01*
X150792349Y-82920000D02*
X150792349Y-91070000D01*
X150832349Y-82922000D02*
X150832349Y-91068000D01*
X150872349Y-82925000D02*
X150872349Y-91065000D01*
X150912349Y-82927000D02*
X150912349Y-91063000D01*
X150952349Y-82931000D02*
X150952349Y-91059000D01*
X150992349Y-82934000D02*
X150992349Y-91056000D01*
X151032349Y-82939000D02*
X151032349Y-91051000D01*
X151072349Y-82943000D02*
X151072349Y-91047000D01*
X151112349Y-82948000D02*
X151112349Y-91042000D01*
X151152349Y-82953000D02*
X151152349Y-91037000D01*
X151192349Y-82959000D02*
X151192349Y-91031000D01*
X151232349Y-82965000D02*
X151232349Y-91025000D01*
X151272349Y-82972000D02*
X151272349Y-91018000D01*
X151312349Y-82978000D02*
X151312349Y-85955000D01*
X151312349Y-88035000D02*
X151312349Y-91012000D01*
X151352349Y-82986000D02*
X151352349Y-85955000D01*
X151352349Y-88035000D02*
X151352349Y-91004000D01*
X151392349Y-82993000D02*
X151392349Y-85955000D01*
X151392349Y-88035000D02*
X151392349Y-90997000D01*
X151432349Y-83002000D02*
X151432349Y-85955000D01*
X151432349Y-88035000D02*
X151432349Y-90988000D01*
X151472349Y-83010000D02*
X151472349Y-85955000D01*
X151472349Y-88035000D02*
X151472349Y-90980000D01*
X151512349Y-83019000D02*
X151512349Y-85955000D01*
X151512349Y-88035000D02*
X151512349Y-90971000D01*
X151552349Y-83028000D02*
X151552349Y-85955000D01*
X151552349Y-88035000D02*
X151552349Y-90962000D01*
X151592349Y-83038000D02*
X151592349Y-85955000D01*
X151592349Y-88035000D02*
X151592349Y-90952000D01*
X151632349Y-83048000D02*
X151632349Y-85955000D01*
X151632349Y-88035000D02*
X151632349Y-90942000D01*
X151672349Y-83059000D02*
X151672349Y-85955000D01*
X151672349Y-88035000D02*
X151672349Y-90931000D01*
X151712349Y-83070000D02*
X151712349Y-85955000D01*
X151712349Y-88035000D02*
X151712349Y-90920000D01*
X151752349Y-83082000D02*
X151752349Y-85955000D01*
X151752349Y-88035000D02*
X151752349Y-90908000D01*
X151792349Y-83094000D02*
X151792349Y-85955000D01*
X151792349Y-88035000D02*
X151792349Y-90896000D01*
X151832349Y-83106000D02*
X151832349Y-85955000D01*
X151832349Y-88035000D02*
X151832349Y-90884000D01*
X151872349Y-83119000D02*
X151872349Y-85955000D01*
X151872349Y-88035000D02*
X151872349Y-90871000D01*
X151912349Y-83132000D02*
X151912349Y-85955000D01*
X151912349Y-88035000D02*
X151912349Y-90858000D01*
X151952349Y-83146000D02*
X151952349Y-85955000D01*
X151952349Y-88035000D02*
X151952349Y-90844000D01*
X151992349Y-83160000D02*
X151992349Y-85955000D01*
X151992349Y-88035000D02*
X151992349Y-90830000D01*
X152032349Y-83175000D02*
X152032349Y-85955000D01*
X152032349Y-88035000D02*
X152032349Y-90815000D01*
X152072349Y-83190000D02*
X152072349Y-85955000D01*
X152072349Y-88035000D02*
X152072349Y-90800000D01*
X152112349Y-83206000D02*
X152112349Y-85955000D01*
X152112349Y-88035000D02*
X152112349Y-90784000D01*
X152152349Y-83222000D02*
X152152349Y-85955000D01*
X152152349Y-88035000D02*
X152152349Y-90768000D01*
X152192349Y-83238000D02*
X152192349Y-85955000D01*
X152192349Y-88035000D02*
X152192349Y-90752000D01*
X152232349Y-83255000D02*
X152232349Y-85955000D01*
X152232349Y-88035000D02*
X152232349Y-90735000D01*
X152272349Y-83273000D02*
X152272349Y-85955000D01*
X152272349Y-88035000D02*
X152272349Y-90717000D01*
X152312349Y-83291000D02*
X152312349Y-85955000D01*
X152312349Y-88035000D02*
X152312349Y-90699000D01*
X152352349Y-83310000D02*
X152352349Y-85955000D01*
X152352349Y-88035000D02*
X152352349Y-90680000D01*
X152392349Y-83329000D02*
X152392349Y-85955000D01*
X152392349Y-88035000D02*
X152392349Y-90661000D01*
X152432349Y-83349000D02*
X152432349Y-85955000D01*
X152432349Y-88035000D02*
X152432349Y-90641000D01*
X152472349Y-83369000D02*
X152472349Y-85955000D01*
X152472349Y-88035000D02*
X152472349Y-90621000D01*
X152512349Y-83390000D02*
X152512349Y-85955000D01*
X152512349Y-88035000D02*
X152512349Y-90600000D01*
X152552349Y-83411000D02*
X152552349Y-85955000D01*
X152552349Y-88035000D02*
X152552349Y-90579000D01*
X152592349Y-83433000D02*
X152592349Y-85955000D01*
X152592349Y-88035000D02*
X152592349Y-90557000D01*
X152632349Y-83456000D02*
X152632349Y-85955000D01*
X152632349Y-88035000D02*
X152632349Y-90534000D01*
X152672349Y-83479000D02*
X152672349Y-85955000D01*
X152672349Y-88035000D02*
X152672349Y-90511000D01*
X152712349Y-83502000D02*
X152712349Y-85955000D01*
X152712349Y-88035000D02*
X152712349Y-90488000D01*
X152752349Y-83527000D02*
X152752349Y-85955000D01*
X152752349Y-88035000D02*
X152752349Y-90463000D01*
X152792349Y-83552000D02*
X152792349Y-85955000D01*
X152792349Y-88035000D02*
X152792349Y-90438000D01*
X152832349Y-83577000D02*
X152832349Y-85955000D01*
X152832349Y-88035000D02*
X152832349Y-90413000D01*
X152872349Y-83603000D02*
X152872349Y-85955000D01*
X152872349Y-88035000D02*
X152872349Y-90387000D01*
X152912349Y-83630000D02*
X152912349Y-85955000D01*
X152912349Y-88035000D02*
X152912349Y-90360000D01*
X152952349Y-83658000D02*
X152952349Y-85955000D01*
X152952349Y-88035000D02*
X152952349Y-90332000D01*
X152992349Y-83686000D02*
X152992349Y-85955000D01*
X152992349Y-88035000D02*
X152992349Y-90304000D01*
X153032349Y-83715000D02*
X153032349Y-85955000D01*
X153032349Y-88035000D02*
X153032349Y-90275000D01*
X153072349Y-83745000D02*
X153072349Y-85955000D01*
X153072349Y-88035000D02*
X153072349Y-90245000D01*
X153112349Y-83776000D02*
X153112349Y-85955000D01*
X153112349Y-88035000D02*
X153112349Y-90214000D01*
X153152349Y-83807000D02*
X153152349Y-85955000D01*
X153152349Y-88035000D02*
X153152349Y-90183000D01*
X153192349Y-83839000D02*
X153192349Y-85955000D01*
X153192349Y-88035000D02*
X153192349Y-90151000D01*
X153232349Y-83872000D02*
X153232349Y-85955000D01*
X153232349Y-88035000D02*
X153232349Y-90118000D01*
X153272349Y-83906000D02*
X153272349Y-85955000D01*
X153272349Y-88035000D02*
X153272349Y-90084000D01*
X153312349Y-83940000D02*
X153312349Y-85955000D01*
X153312349Y-88035000D02*
X153312349Y-90050000D01*
X153352349Y-83976000D02*
X153352349Y-85955000D01*
X153352349Y-88035000D02*
X153352349Y-90014000D01*
X153392349Y-84013000D02*
X153392349Y-89977000D01*
X153432349Y-84050000D02*
X153432349Y-89940000D01*
X153472349Y-84089000D02*
X153472349Y-89901000D01*
X153512349Y-84128000D02*
X153512349Y-89862000D01*
X153552349Y-84169000D02*
X153552349Y-89821000D01*
X153592349Y-84211000D02*
X153592349Y-89779000D01*
X153632349Y-84254000D02*
X153632349Y-89736000D01*
X153672349Y-84299000D02*
X153672349Y-89691000D01*
X153712349Y-84344000D02*
X153712349Y-89646000D01*
X153752349Y-84391000D02*
X153752349Y-89599000D01*
X153792349Y-84440000D02*
X153792349Y-89550000D01*
X153832349Y-84490000D02*
X153832349Y-89500000D01*
X153872349Y-84542000D02*
X153872349Y-89448000D01*
X153912349Y-84595000D02*
X153912349Y-89395000D01*
X153952349Y-84651000D02*
X153952349Y-89339000D01*
X153992349Y-84708000D02*
X153992349Y-89282000D01*
X154032349Y-84768000D02*
X154032349Y-89222000D01*
X154072349Y-84830000D02*
X154072349Y-89160000D01*
X154112349Y-84894000D02*
X154112349Y-89096000D01*
X154152349Y-84961000D02*
X154152349Y-89029000D01*
X154192349Y-85031000D02*
X154192349Y-88959000D01*
X154232349Y-85105000D02*
X154232349Y-88885000D01*
X154272349Y-85182000D02*
X154272349Y-88808000D01*
X154312349Y-85264000D02*
X154312349Y-88726000D01*
X154352349Y-85351000D02*
X154352349Y-88639000D01*
X154392349Y-85443000D02*
X154392349Y-88547000D01*
X154432349Y-85542000D02*
X154432349Y-88448000D01*
X154472349Y-85649000D02*
X154472349Y-88341000D01*
X154512349Y-85767000D02*
X154512349Y-88223000D01*
X154552349Y-85898000D02*
X154552349Y-88092000D01*
X154592349Y-86048000D02*
X154592349Y-87942000D01*
X154632349Y-86227000D02*
X154632349Y-87763000D01*
X154672349Y-86462000D02*
X154672349Y-87528000D01*
X154712349Y-86995000D02*
G75*
G02*
X146472349Y-86995000I-4120000J0D01*
G01*
X146472349Y-86995000D02*
G75*
G02*
X154712349Y-86995000I4120000J0D01*
G01*
G04 #@! TO.C,C2*
X136930000Y-70485000D02*
X136970000Y-70485000D01*
X142350000Y-70485000D02*
X142310000Y-70485000D01*
X136970000Y-68815000D02*
X142310000Y-68815000D01*
X142310000Y-72155000D01*
X136970000Y-72155000D01*
X136970000Y-68815000D01*
G04 #@! TO.C,R13*
X177800000Y-94940000D02*
X177800000Y-95010000D01*
X179170000Y-93570000D02*
G75*
G02*
X176430000Y-93570000I-1370000J0D01*
G01*
X176430000Y-93570000D02*
G75*
G02*
X179170000Y-93570000I1370000J0D01*
G01*
G04 #@! TO.C,R21*
X135380000Y-58400000D02*
X136150000Y-58400000D01*
X143460000Y-58400000D02*
X142690000Y-58400000D01*
X142690000Y-59770000D02*
X136150000Y-59770000D01*
X136150000Y-57030000D01*
X142690000Y-57030000D01*
X142690000Y-59770000D01*
G04 #@! TO.C,U1*
X174890000Y-48270000D02*
X174890000Y-54430000D01*
X174890000Y-48270000D02*
X193130000Y-48270000D01*
X174890000Y-73230000D02*
X174890000Y-74010000D01*
X174890000Y-74010000D02*
X175890000Y-74010000D01*
X193130000Y-48270000D02*
X193130000Y-54685000D01*
X193130000Y-73230000D02*
X193130000Y-74010000D01*
X193130000Y-74010000D02*
X192130000Y-74010000D01*
X174885000Y-55155000D02*
X174385000Y-55155000D01*
X174885000Y-54655000D01*
X174885000Y-55155000D01*
G36*
X174885000Y-55155000D02*
G01*
X174385000Y-55155000D01*
X174885000Y-54655000D01*
X174885000Y-55155000D01*
G37*
G04 #@! TO.C,R15*
X184150000Y-94940000D02*
X184150000Y-95010000D01*
X185520000Y-93570000D02*
G75*
G02*
X182780000Y-93570000I-1370000J0D01*
G01*
X182780000Y-93570000D02*
G75*
G02*
X185520000Y-93570000I1370000J0D01*
G01*
G04 #@! TO.C,R20*
X203860400Y-94940000D02*
X203860400Y-95010000D01*
X205230400Y-93570000D02*
G75*
G02*
X202490400Y-93570000I-1370000J0D01*
G01*
X202490400Y-93570000D02*
G75*
G02*
X205230400Y-93570000I1370000J0D01*
G01*
G04 #@! TO.C,J11*
X133612500Y-79360000D02*
X134612500Y-79860000D01*
X133612500Y-80360000D02*
X133612500Y-79360000D01*
X134612500Y-79860000D02*
X133612500Y-80360000D01*
X135002500Y-78060000D02*
X135002500Y-83820000D01*
X135002500Y-89580000D02*
X135002500Y-83820000D01*
X141622500Y-78060000D02*
X135002500Y-78060000D01*
X141622500Y-83820000D02*
X141622500Y-78060000D01*
X141622500Y-83820000D02*
X141622500Y-89580000D01*
X141622500Y-89580000D02*
X135002500Y-89580000D01*
G04 #@! TO.C,U2*
X158170000Y-80410000D02*
X161930000Y-80410000D01*
X158170000Y-87230000D02*
X161930000Y-87230000D01*
X161930000Y-80410000D02*
X161930000Y-81670000D01*
X161930000Y-87230000D02*
X161930000Y-85970000D01*
X156890000Y-80510000D02*
X156650000Y-80180000D01*
X157130000Y-80180000D01*
X156890000Y-80510000D01*
G36*
X156890000Y-80510000D02*
G01*
X156650000Y-80180000D01*
X157130000Y-80180000D01*
X156890000Y-80510000D01*
G37*
G04 #@! TO.C,R22*
X151480000Y-58500000D02*
X152250000Y-58500000D01*
X159560000Y-58500000D02*
X158790000Y-58500000D01*
X158790000Y-59870000D02*
X152250000Y-59870000D01*
X152250000Y-57130000D01*
X158790000Y-57130000D01*
X158790000Y-59870000D01*
G04 #@! TO.C,JP3*
X161942000Y-76564000D02*
X161942000Y-75184000D01*
X163322000Y-76564000D02*
X161942000Y-76564000D01*
X164592000Y-73804000D02*
X167242000Y-73804000D01*
X164592000Y-76564000D02*
X164592000Y-73804000D01*
X164592000Y-76564000D02*
X167242000Y-76564000D01*
X167242000Y-76564000D02*
X167242000Y-73804000D01*
G04 #@! TO.C,R10*
X163195000Y-94940000D02*
X163195000Y-95010000D01*
X164565000Y-93570000D02*
G75*
G02*
X161825000Y-93570000I-1370000J0D01*
G01*
X161825000Y-93570000D02*
G75*
G02*
X164565000Y-93570000I1370000J0D01*
G01*
G04 #@! TO.C,SW2*
X152635000Y-63000000D02*
X152635000Y-64500000D01*
X153885000Y-67000000D02*
X158385000Y-67000000D01*
X158385000Y-60500000D02*
X153885000Y-60500000D01*
X159635000Y-64500000D02*
X159635000Y-63000000D01*
G04 #@! TO.C,C6*
X153065000Y-74195000D02*
X159305000Y-74195000D01*
X153065000Y-74730000D02*
X153065000Y-74195000D01*
X153065000Y-76935000D02*
X153065000Y-76400000D01*
X159305000Y-74195000D02*
X159305000Y-74730000D01*
X159305000Y-76400000D02*
X159305000Y-76935000D01*
X159305000Y-76935000D02*
X153065000Y-76935000D01*
G04 #@! TO.C,J3*
X159275000Y-100220000D02*
X169655000Y-100220000D01*
X159275000Y-102870000D02*
X159275000Y-100220000D01*
X159275000Y-105520000D02*
X159275000Y-104140000D01*
X160655000Y-105520000D02*
X159275000Y-105520000D01*
X161925000Y-102870000D02*
X159275000Y-102870000D01*
X161925000Y-105520000D02*
X161925000Y-102870000D01*
X161925000Y-105520000D02*
X169655000Y-105520000D01*
X169655000Y-105520000D02*
X169655000Y-100220000D01*
G04 #@! TO.C,J7*
X159275000Y-108060000D02*
X159275000Y-106680000D01*
X160655000Y-108060000D02*
X159275000Y-108060000D01*
X161925000Y-105300000D02*
X169655000Y-105300000D01*
X161925000Y-108060000D02*
X161925000Y-105300000D01*
X161925000Y-108060000D02*
X169655000Y-108060000D01*
X169655000Y-108060000D02*
X169655000Y-105300000D01*
G04 #@! TO.C,R6*
X145415000Y-94940000D02*
X145415000Y-95010000D01*
X146785000Y-93570000D02*
G75*
G02*
X144045000Y-93570000I-1370000J0D01*
G01*
X144045000Y-93570000D02*
G75*
G02*
X146785000Y-93570000I1370000J0D01*
G01*
G04 #@! TO.C,R24*
X157380000Y-71000000D02*
X157310000Y-71000000D01*
X160120000Y-71000000D02*
G75*
G02*
X157380000Y-71000000I-1370000J0D01*
G01*
X157380000Y-71000000D02*
G75*
G02*
X160120000Y-71000000I1370000J0D01*
G01*
G04 #@! TO.C,JP2*
X161942000Y-73262000D02*
X161942000Y-71882000D01*
X163322000Y-73262000D02*
X161942000Y-73262000D01*
X164592000Y-70502000D02*
X167242000Y-70502000D01*
X164592000Y-73262000D02*
X164592000Y-70502000D01*
X164592000Y-73262000D02*
X167242000Y-73262000D01*
X167242000Y-73262000D02*
X167242000Y-70502000D01*
G04 #@! TO.C,C5*
X147240000Y-70768000D02*
X147240000Y-70202000D01*
X147280000Y-71002000D02*
X147280000Y-69968000D01*
X147320000Y-71162000D02*
X147320000Y-69808000D01*
X147360000Y-71290000D02*
X147360000Y-69680000D01*
X147400000Y-71399000D02*
X147400000Y-69571000D01*
X147440000Y-71496000D02*
X147440000Y-69474000D01*
X147480000Y-71583000D02*
X147480000Y-69387000D01*
X147520000Y-71662000D02*
X147520000Y-69308000D01*
X147560000Y-69445000D02*
X147560000Y-69234000D01*
X147560000Y-71736000D02*
X147560000Y-71525000D01*
X147600000Y-69445000D02*
X147600000Y-69166000D01*
X147600000Y-71804000D02*
X147600000Y-71525000D01*
X147640000Y-69445000D02*
X147640000Y-69102000D01*
X147640000Y-71868000D02*
X147640000Y-71525000D01*
X147680000Y-69445000D02*
X147680000Y-69042000D01*
X147680000Y-71928000D02*
X147680000Y-71525000D01*
X147720000Y-69445000D02*
X147720000Y-68986000D01*
X147720000Y-71984000D02*
X147720000Y-71525000D01*
X147760000Y-69445000D02*
X147760000Y-68932000D01*
X147760000Y-72038000D02*
X147760000Y-71525000D01*
X147800000Y-69445000D02*
X147800000Y-68881000D01*
X147800000Y-72089000D02*
X147800000Y-71525000D01*
X147840000Y-69445000D02*
X147840000Y-68833000D01*
X147840000Y-72137000D02*
X147840000Y-71525000D01*
X147880000Y-69445000D02*
X147880000Y-68786000D01*
X147880000Y-72184000D02*
X147880000Y-71525000D01*
X147920000Y-69445000D02*
X147920000Y-68742000D01*
X147920000Y-72228000D02*
X147920000Y-71525000D01*
X147960000Y-69445000D02*
X147960000Y-68700000D01*
X147960000Y-72270000D02*
X147960000Y-71525000D01*
X148000000Y-69445000D02*
X148000000Y-68660000D01*
X148000000Y-72310000D02*
X148000000Y-71525000D01*
X148040000Y-69445000D02*
X148040000Y-68621000D01*
X148040000Y-72349000D02*
X148040000Y-71525000D01*
X148080000Y-69445000D02*
X148080000Y-68584000D01*
X148080000Y-72386000D02*
X148080000Y-71525000D01*
X148120000Y-69445000D02*
X148120000Y-68549000D01*
X148120000Y-72421000D02*
X148120000Y-71525000D01*
X148160000Y-69445000D02*
X148160000Y-68515000D01*
X148160000Y-72455000D02*
X148160000Y-71525000D01*
X148200000Y-69445000D02*
X148200000Y-68482000D01*
X148200000Y-72488000D02*
X148200000Y-71525000D01*
X148240000Y-69445000D02*
X148240000Y-68450000D01*
X148240000Y-72520000D02*
X148240000Y-71525000D01*
X148280000Y-69445000D02*
X148280000Y-68420000D01*
X148280000Y-72550000D02*
X148280000Y-71525000D01*
X148320000Y-69445000D02*
X148320000Y-68391000D01*
X148320000Y-72579000D02*
X148320000Y-71525000D01*
X148360000Y-69445000D02*
X148360000Y-68363000D01*
X148360000Y-72607000D02*
X148360000Y-71525000D01*
X148400000Y-69445000D02*
X148400000Y-68336000D01*
X148400000Y-72634000D02*
X148400000Y-71525000D01*
X148440000Y-69445000D02*
X148440000Y-68310000D01*
X148440000Y-72660000D02*
X148440000Y-71525000D01*
X148480000Y-69445000D02*
X148480000Y-68286000D01*
X148480000Y-72684000D02*
X148480000Y-71525000D01*
X148520000Y-69445000D02*
X148520000Y-68262000D01*
X148520000Y-72708000D02*
X148520000Y-71525000D01*
X148560000Y-69445000D02*
X148560000Y-68239000D01*
X148560000Y-72731000D02*
X148560000Y-71525000D01*
X148600000Y-69445000D02*
X148600000Y-68217000D01*
X148600000Y-72753000D02*
X148600000Y-71525000D01*
X148640000Y-69445000D02*
X148640000Y-68196000D01*
X148640000Y-72774000D02*
X148640000Y-71525000D01*
X148680000Y-69445000D02*
X148680000Y-68176000D01*
X148680000Y-72794000D02*
X148680000Y-71525000D01*
X148720000Y-69445000D02*
X148720000Y-68156000D01*
X148720000Y-72814000D02*
X148720000Y-71525000D01*
X148760000Y-69445000D02*
X148760000Y-68138000D01*
X148760000Y-72832000D02*
X148760000Y-71525000D01*
X148800000Y-69445000D02*
X148800000Y-68120000D01*
X148800000Y-72850000D02*
X148800000Y-71525000D01*
X148840000Y-69445000D02*
X148840000Y-68103000D01*
X148840000Y-72867000D02*
X148840000Y-71525000D01*
X148880000Y-69445000D02*
X148880000Y-68087000D01*
X148880000Y-72883000D02*
X148880000Y-71525000D01*
X148920000Y-69445000D02*
X148920000Y-68072000D01*
X148920000Y-72898000D02*
X148920000Y-71525000D01*
X148960000Y-69445000D02*
X148960000Y-68057000D01*
X148960000Y-72913000D02*
X148960000Y-71525000D01*
X149000000Y-69445000D02*
X149000000Y-68043000D01*
X149000000Y-72927000D02*
X149000000Y-71525000D01*
X149040000Y-69445000D02*
X149040000Y-68030000D01*
X149040000Y-72940000D02*
X149040000Y-71525000D01*
X149080000Y-69445000D02*
X149080000Y-68018000D01*
X149080000Y-72952000D02*
X149080000Y-71525000D01*
X149120000Y-69445000D02*
X149120000Y-68006000D01*
X149120000Y-72964000D02*
X149120000Y-71525000D01*
X149160000Y-69445000D02*
X149160000Y-67995000D01*
X149160000Y-72975000D02*
X149160000Y-71525000D01*
X149200000Y-69445000D02*
X149200000Y-67984000D01*
X149200000Y-72986000D02*
X149200000Y-71525000D01*
X149240000Y-69445000D02*
X149240000Y-67975000D01*
X149240000Y-72995000D02*
X149240000Y-71525000D01*
X149280000Y-69445000D02*
X149280000Y-67966000D01*
X149280000Y-73004000D02*
X149280000Y-71525000D01*
X149320000Y-69445000D02*
X149320000Y-67957000D01*
X149320000Y-73013000D02*
X149320000Y-71525000D01*
X149360000Y-69445000D02*
X149360000Y-67949000D01*
X149360000Y-73021000D02*
X149360000Y-71525000D01*
X149400000Y-69445000D02*
X149400000Y-67942000D01*
X149400000Y-73028000D02*
X149400000Y-71525000D01*
X149440000Y-69445000D02*
X149440000Y-67936000D01*
X149440000Y-73034000D02*
X149440000Y-71525000D01*
X149480000Y-69445000D02*
X149480000Y-67930000D01*
X149480000Y-73040000D02*
X149480000Y-71525000D01*
X149520000Y-69445000D02*
X149520000Y-67925000D01*
X149520000Y-73045000D02*
X149520000Y-71525000D01*
X149560000Y-69445000D02*
X149560000Y-67920000D01*
X149560000Y-73050000D02*
X149560000Y-71525000D01*
X149600000Y-69445000D02*
X149600000Y-67916000D01*
X149600000Y-73054000D02*
X149600000Y-71525000D01*
X149640000Y-73057000D02*
X149640000Y-67913000D01*
X149680000Y-73060000D02*
X149680000Y-67910000D01*
X149720000Y-73062000D02*
X149720000Y-67908000D01*
X149760000Y-73064000D02*
X149760000Y-67906000D01*
X149800000Y-73065000D02*
X149800000Y-67905000D01*
X149840000Y-73065000D02*
X149840000Y-67905000D01*
X152394775Y-72210000D02*
X152394775Y-71710000D01*
X152644775Y-71960000D02*
X152144775Y-71960000D01*
X152460000Y-70485000D02*
G75*
G02*
X147220000Y-70485000I-2620000J0D01*
G01*
X147220000Y-70485000D02*
G75*
G02*
X152460000Y-70485000I2620000J0D01*
G01*
G04 #@! TO.C,J6*
X141495000Y-108060000D02*
X141495000Y-106680000D01*
X142875000Y-108060000D02*
X141495000Y-108060000D01*
X144145000Y-105300000D02*
X151875000Y-105300000D01*
X144145000Y-108060000D02*
X144145000Y-105300000D01*
X144145000Y-108060000D02*
X151875000Y-108060000D01*
X151875000Y-108060000D02*
X151875000Y-105300000D01*
G04 #@! TO.C,R27*
X186370000Y-84700000D02*
X186300000Y-84700000D01*
X189110000Y-84700000D02*
G75*
G02*
X186370000Y-84700000I-1370000J0D01*
G01*
X186370000Y-84700000D02*
G75*
G02*
X189110000Y-84700000I1370000J0D01*
G01*
G04 #@! TO.C,R19*
X200660000Y-94940000D02*
X200660000Y-95010000D01*
X202030000Y-93570000D02*
G75*
G02*
X199290000Y-93570000I-1370000J0D01*
G01*
X199290000Y-93570000D02*
G75*
G02*
X202030000Y-93570000I1370000J0D01*
G01*
G04 #@! TO.C,D2*
X143330000Y-74095000D02*
X148770000Y-74095000D01*
X143330000Y-74225000D02*
X143330000Y-74095000D01*
X143330000Y-76905000D02*
X143330000Y-77035000D01*
X143330000Y-77035000D02*
X148770000Y-77035000D01*
X144110000Y-74095000D02*
X144110000Y-77035000D01*
X144230000Y-74095000D02*
X144230000Y-77035000D01*
X144350000Y-74095000D02*
X144350000Y-77035000D01*
X148770000Y-74095000D02*
X148770000Y-74225000D01*
X148770000Y-77035000D02*
X148770000Y-76905000D01*
G04 #@! TO.C,R4*
X164565000Y-59055000D02*
X164635000Y-59055000D01*
X164565000Y-59055000D02*
G75*
G02*
X161825000Y-59055000I-1370000J0D01*
G01*
X161825000Y-59055000D02*
G75*
G02*
X164565000Y-59055000I1370000J0D01*
G01*
G04 #@! TO.C,R1*
X164565000Y-65405000D02*
X164635000Y-65405000D01*
X164565000Y-65405000D02*
G75*
G02*
X161825000Y-65405000I-1370000J0D01*
G01*
X161825000Y-65405000D02*
G75*
G02*
X164565000Y-65405000I1370000J0D01*
G01*
G04 #@! TO.C,R2*
X164565000Y-62230000D02*
X164635000Y-62230000D01*
X164565000Y-62230000D02*
G75*
G02*
X161825000Y-62230000I-1370000J0D01*
G01*
X161825000Y-62230000D02*
G75*
G02*
X164565000Y-62230000I1370000J0D01*
G01*
G04 #@! TO.C,D1*
X201485000Y-74640000D02*
X201329000Y-74640000D01*
X203801000Y-74640000D02*
X203645000Y-74640000D01*
X201485000Y-77240961D02*
G75*
G02*
X201485000Y-75159039I1080000J1040961D01*
G01*
X201485000Y-77871437D02*
G75*
G02*
X201329484Y-74640000I1080000J1671437D01*
G01*
X203645000Y-75159039D02*
G75*
G02*
X203645000Y-77240961I-1080000J-1040961D01*
G01*
X203800516Y-74640000D02*
G75*
G02*
X203645000Y-77871437I-1235516J-1560000D01*
G01*
G04 #@! TO.C,R18*
X197485000Y-94940000D02*
X197485000Y-95010000D01*
X198855000Y-93570000D02*
G75*
G02*
X196115000Y-93570000I-1370000J0D01*
G01*
X196115000Y-93570000D02*
G75*
G02*
X198855000Y-93570000I1370000J0D01*
G01*
G04 #@! TO.C,SW1*
X135550000Y-63000000D02*
X135550000Y-64500000D01*
X136800000Y-67000000D02*
X141300000Y-67000000D01*
X141300000Y-60500000D02*
X136800000Y-60500000D01*
X142550000Y-64500000D02*
X142550000Y-63000000D01*
G04 #@! TO.C,R16*
X187325000Y-94940000D02*
X187325000Y-95010000D01*
X188695000Y-93570000D02*
G75*
G02*
X185955000Y-93570000I-1370000J0D01*
G01*
X185955000Y-93570000D02*
G75*
G02*
X188695000Y-93570000I1370000J0D01*
G01*
G04 #@! TO.C,R8*
X151765000Y-94940000D02*
X151765000Y-95010000D01*
X153135000Y-93570000D02*
G75*
G02*
X150395000Y-93570000I-1370000J0D01*
G01*
X150395000Y-93570000D02*
G75*
G02*
X153135000Y-93570000I1370000J0D01*
G01*
G04 #@! TO.C,R7*
X148590000Y-94940000D02*
X148590000Y-95010000D01*
X149960000Y-93570000D02*
G75*
G02*
X147220000Y-93570000I-1370000J0D01*
G01*
X147220000Y-93570000D02*
G75*
G02*
X149960000Y-93570000I1370000J0D01*
G01*
G04 #@! TO.C,J9*
X194835000Y-108060000D02*
X194835000Y-106680000D01*
X196215000Y-108060000D02*
X194835000Y-108060000D01*
X197485000Y-105300000D02*
X205215000Y-105300000D01*
X197485000Y-108060000D02*
X197485000Y-105300000D01*
X197485000Y-108060000D02*
X205215000Y-108060000D01*
X205215000Y-108060000D02*
X205215000Y-105300000D01*
G04 #@! TO.C,J2*
X141495000Y-100220000D02*
X151875000Y-100220000D01*
X141495000Y-102870000D02*
X141495000Y-100220000D01*
X141495000Y-105520000D02*
X141495000Y-104140000D01*
X142875000Y-105520000D02*
X141495000Y-105520000D01*
X144145000Y-102870000D02*
X141495000Y-102870000D01*
X144145000Y-105520000D02*
X144145000Y-102870000D01*
X144145000Y-105520000D02*
X151875000Y-105520000D01*
X151875000Y-105520000D02*
X151875000Y-100220000D01*
G04 #@! TO.C,R17*
X194310000Y-94940000D02*
X194310000Y-95010000D01*
X195680000Y-93570000D02*
G75*
G02*
X192940000Y-93570000I-1370000J0D01*
G01*
X192940000Y-93570000D02*
G75*
G02*
X195680000Y-93570000I1370000J0D01*
G01*
G04 #@! TD*
%LPC*%
D13*
G04 #@! TO.C,C7*
X144145000Y-83780000D03*
X144145000Y-78780000D03*
G04 #@! TD*
G04 #@! TO.C,R25*
X185200000Y-87700000D03*
X187740000Y-87700000D03*
G04 #@! TD*
D14*
G04 #@! TO.C,J5*
X196215000Y-104140000D03*
D15*
X196215000Y-101600000D03*
X198755000Y-104140000D03*
X198755000Y-101600000D03*
X201295000Y-104140000D03*
X201295000Y-101600000D03*
X203835000Y-104140000D03*
X203835000Y-101600000D03*
G04 #@! TD*
D13*
G04 #@! TO.C,R14*
X180975000Y-93570000D03*
X180975000Y-96110000D03*
G04 #@! TD*
G04 #@! TO.C,R3*
X202565000Y-80645000D03*
X200025000Y-80645000D03*
G04 #@! TD*
D14*
G04 #@! TO.C,J4*
X178435000Y-104140000D03*
D15*
X178435000Y-101600000D03*
X180975000Y-104140000D03*
X180975000Y-101600000D03*
X183515000Y-104140000D03*
X183515000Y-101600000D03*
X186055000Y-104140000D03*
X186055000Y-101600000D03*
G04 #@! TD*
D14*
G04 #@! TO.C,J10*
X202565000Y-62230000D03*
D15*
X202565000Y-64770000D03*
X202565000Y-67310000D03*
G04 #@! TD*
D13*
G04 #@! TO.C,C3*
X147500000Y-59100000D03*
X147500000Y-66600000D03*
G04 #@! TD*
G04 #@! TO.C,R12*
X169545000Y-93570000D03*
X169545000Y-96110000D03*
G04 #@! TD*
D14*
G04 #@! TO.C,J8*
X178435000Y-106680000D03*
D15*
X180975000Y-106680000D03*
X183515000Y-106680000D03*
X186055000Y-106680000D03*
G04 #@! TD*
D14*
G04 #@! TO.C,JP1*
X197500000Y-58300000D03*
D15*
X200040000Y-58300000D03*
G04 #@! TD*
D16*
G04 #@! TO.C,J1*
X174625000Y-79375000D03*
X177165000Y-79375000D03*
X174625000Y-81915000D03*
X177165000Y-81915000D03*
X174625000Y-84455000D03*
X177165000Y-84455000D03*
X174625000Y-86995000D03*
X177165000Y-86995000D03*
X174625000Y-89535000D03*
X177165000Y-89535000D03*
G04 #@! TD*
D13*
G04 #@! TO.C,R23*
X163195000Y-68580000D03*
X165735000Y-68580000D03*
G04 #@! TD*
D17*
G04 #@! TO.C,C4*
X149860000Y-81280000D03*
D13*
X149860000Y-78780000D03*
G04 #@! TD*
G04 #@! TO.C,R9*
X160020000Y-93570000D03*
X160020000Y-96110000D03*
G04 #@! TD*
D18*
G04 #@! TO.C,REF\u002A\u002A*
X130000000Y-105500000D03*
D19*
X130000000Y-105500000D03*
G04 #@! TD*
D13*
G04 #@! TO.C,R26*
X185200000Y-81700000D03*
X187740000Y-81700000D03*
G04 #@! TD*
G04 #@! TO.C,R5*
X142240000Y-93570000D03*
X142240000Y-96110000D03*
G04 #@! TD*
G04 #@! TO.C,R11*
X166380000Y-93570000D03*
X166380000Y-96110000D03*
G04 #@! TD*
D20*
G04 #@! TO.C,C1*
X148842349Y-86995000D03*
D13*
X152342349Y-86995000D03*
G04 #@! TD*
G04 #@! TO.C,C2*
X135890000Y-70485000D03*
X143390000Y-70485000D03*
G04 #@! TD*
G04 #@! TO.C,R13*
X177800000Y-93570000D03*
X177800000Y-96110000D03*
G04 #@! TD*
G04 #@! TO.C,R21*
X144500000Y-58400000D03*
X134340000Y-58400000D03*
G04 #@! TD*
D21*
G04 #@! TO.C,U1*
X175260000Y-55880000D03*
X175260000Y-57150000D03*
X175260000Y-58420000D03*
X175260000Y-59690000D03*
X175260000Y-60960000D03*
X175260000Y-62230000D03*
X175260000Y-63500000D03*
X175260000Y-64770000D03*
X175260000Y-66040000D03*
X175260000Y-67310000D03*
X175260000Y-68580000D03*
X175260000Y-69850000D03*
X175260000Y-71120000D03*
X175260000Y-72390000D03*
D22*
X178300000Y-73640000D03*
X179570000Y-73640000D03*
X180840000Y-73640000D03*
X182110000Y-73640000D03*
X183380000Y-73640000D03*
X184650000Y-73640000D03*
X185920000Y-73640000D03*
X187190000Y-73640000D03*
X188460000Y-73640000D03*
X189730000Y-73640000D03*
D21*
X192760000Y-72390000D03*
X192760000Y-71120000D03*
X192760000Y-69850000D03*
X192760000Y-68580000D03*
X192760000Y-67310000D03*
X192760000Y-66040000D03*
X192760000Y-64770000D03*
X192760000Y-63500000D03*
X192760000Y-62230000D03*
X192760000Y-60960000D03*
X192760000Y-59690000D03*
X192760000Y-58420000D03*
X192760000Y-57150000D03*
X192760000Y-55880000D03*
D23*
X181805000Y-62457500D03*
X181805000Y-63982500D03*
X182567500Y-61695000D03*
X182567500Y-63220000D03*
X182567500Y-64745000D03*
X183330000Y-62457500D03*
D24*
X183330000Y-63220000D03*
D23*
X183330000Y-63982500D03*
X184092500Y-61695000D03*
X184092500Y-63220000D03*
X184092500Y-64745000D03*
X184855000Y-62457500D03*
X184855000Y-63982500D03*
G04 #@! TD*
D13*
G04 #@! TO.C,R15*
X184150000Y-93570000D03*
X184150000Y-96110000D03*
G04 #@! TD*
G04 #@! TO.C,R20*
X203860400Y-93570000D03*
X203860400Y-96110000D03*
G04 #@! TD*
D25*
G04 #@! TO.C,J11*
X138312500Y-79860000D03*
D26*
X138312500Y-83820000D03*
X138312500Y-87780000D03*
G04 #@! TD*
D27*
G04 #@! TO.C,U2*
X156870000Y-81520000D03*
X156870000Y-83820000D03*
D28*
X163170000Y-83820000D03*
D27*
X156870000Y-86120000D03*
G04 #@! TD*
D13*
G04 #@! TO.C,R22*
X160600000Y-58500000D03*
X150440000Y-58500000D03*
G04 #@! TD*
D14*
G04 #@! TO.C,JP3*
X163322000Y-75184000D03*
D15*
X165862000Y-75184000D03*
G04 #@! TD*
D13*
G04 #@! TO.C,R10*
X163195000Y-93570000D03*
X163195000Y-96110000D03*
G04 #@! TD*
D29*
G04 #@! TO.C,SW2*
X152885000Y-61500000D03*
X159385000Y-61500000D03*
X152885000Y-66000000D03*
X159385000Y-66000000D03*
G04 #@! TD*
D13*
G04 #@! TO.C,C6*
X158685000Y-75565000D03*
X153685000Y-75565000D03*
G04 #@! TD*
D14*
G04 #@! TO.C,J3*
X160655000Y-104140000D03*
D15*
X160655000Y-101600000D03*
X163195000Y-104140000D03*
X163195000Y-101600000D03*
X165735000Y-104140000D03*
X165735000Y-101600000D03*
X168275000Y-104140000D03*
X168275000Y-101600000D03*
G04 #@! TD*
D14*
G04 #@! TO.C,J7*
X160655000Y-106680000D03*
D15*
X163195000Y-106680000D03*
X165735000Y-106680000D03*
X168275000Y-106680000D03*
G04 #@! TD*
D18*
G04 #@! TO.C,REF\u002A\u002A*
X211500000Y-58500000D03*
D19*
X211500000Y-58500000D03*
G04 #@! TD*
D13*
G04 #@! TO.C,R6*
X145415000Y-93570000D03*
X145415000Y-96110000D03*
G04 #@! TD*
G04 #@! TO.C,R24*
X158750000Y-71000000D03*
X156210000Y-71000000D03*
G04 #@! TD*
D14*
G04 #@! TO.C,JP2*
X163322000Y-71882000D03*
D15*
X165862000Y-71882000D03*
G04 #@! TD*
D30*
G04 #@! TO.C,C5*
X151090000Y-70485000D03*
D13*
X148590000Y-70485000D03*
G04 #@! TD*
D14*
G04 #@! TO.C,J6*
X142875000Y-106680000D03*
D15*
X145415000Y-106680000D03*
X147955000Y-106680000D03*
X150495000Y-106680000D03*
G04 #@! TD*
D13*
G04 #@! TO.C,R27*
X187740000Y-84700000D03*
X185200000Y-84700000D03*
G04 #@! TD*
D18*
G04 #@! TO.C,REF\u002A\u002A*
X130000000Y-58500000D03*
D19*
X130000000Y-58500000D03*
G04 #@! TD*
D13*
G04 #@! TO.C,R19*
X200660000Y-93570000D03*
X200660000Y-96110000D03*
G04 #@! TD*
D31*
G04 #@! TO.C,D2*
X142240000Y-75565000D03*
D32*
X149860000Y-75565000D03*
G04 #@! TD*
D13*
G04 #@! TO.C,R4*
X163195000Y-59055000D03*
X165735000Y-59055000D03*
G04 #@! TD*
G04 #@! TO.C,R1*
X163195000Y-65405000D03*
X165735000Y-65405000D03*
G04 #@! TD*
G04 #@! TO.C,R2*
X163195000Y-62230000D03*
X165735000Y-62230000D03*
G04 #@! TD*
D33*
G04 #@! TO.C,D1*
X202565000Y-74930000D03*
D34*
X202565000Y-77470000D03*
G04 #@! TD*
D13*
G04 #@! TO.C,R18*
X197485000Y-93570000D03*
X197485000Y-96110000D03*
G04 #@! TD*
D29*
G04 #@! TO.C,SW1*
X135800000Y-61500000D03*
X142300000Y-61500000D03*
X135800000Y-66000000D03*
X142300000Y-66000000D03*
G04 #@! TD*
D13*
G04 #@! TO.C,R16*
X187325000Y-93570000D03*
X187325000Y-96110000D03*
G04 #@! TD*
G04 #@! TO.C,R8*
X151765000Y-93570000D03*
X151765000Y-96110000D03*
G04 #@! TD*
G04 #@! TO.C,R7*
X148590000Y-93570000D03*
X148590000Y-96110000D03*
G04 #@! TD*
D14*
G04 #@! TO.C,J9*
X196215000Y-106680000D03*
D15*
X198755000Y-106680000D03*
X201295000Y-106680000D03*
X203835000Y-106680000D03*
G04 #@! TD*
D14*
G04 #@! TO.C,J2*
X142875000Y-104140000D03*
D15*
X142875000Y-101600000D03*
X145415000Y-104140000D03*
X145415000Y-101600000D03*
X147955000Y-104140000D03*
X147955000Y-101600000D03*
X150495000Y-104140000D03*
X150495000Y-101600000D03*
G04 #@! TD*
D13*
G04 #@! TO.C,R17*
X194310000Y-93570000D03*
X194310000Y-96110000D03*
G04 #@! TD*
D18*
G04 #@! TO.C,REF\u002A\u002A*
X211500000Y-105500000D03*
D19*
X211500000Y-105500000D03*
G04 #@! TD*
%LPD*%
M02*
