%TF.GenerationSoftware,KiCad,Pcbnew,9.0.6*%
%TF.CreationDate,2026-01-30T16:54:02+01:00*%
%TF.ProjectId,ESP32_PWM_PCB_large,45535033-325f-4505-974d-5f5043425f6c,1.0*%
%TF.SameCoordinates,Original*%
%TF.FileFunction,Drillmap*%
%TF.FilePolarity,Positive*%
%FSLAX45Y45*%
G04 Gerber Fmt 4.5, Leading zero omitted, Abs format (unit mm)*
G04 Created by KiCad (PCBNEW 9.0.6) date 2026-01-30 16:54:02*
%MOMM*%
%LPD*%
G01*
G04 APERTURE LIST*
%ADD10C,0.050000*%
%ADD11C,0.200000*%
%ADD12C,0.100000*%
%ADD13C,0.110000*%
%ADD14C,0.140000*%
%ADD15C,0.320000*%
G04 APERTURE END LIST*
D10*
X20800000Y-8500000D02*
X20800000Y-6800000D01*
X20900000Y-6700000D02*
X21550000Y-6700000D01*
X12600000Y-10950000D02*
X21550000Y-10950000D01*
X12600000Y-5450000D02*
X12600000Y-10950000D01*
X21550000Y-6700000D02*
X21550000Y-5450000D01*
X21550000Y-8600000D02*
X20900000Y-8600000D01*
X21550000Y-10950000D02*
X21550000Y-8600000D01*
X21550000Y-5450000D02*
X12600000Y-5450000D01*
X20800000Y-6800000D02*
G75*
G02*
X20900000Y-6700000I100000J0D01*
G01*
X20900000Y-8600000D02*
G75*
G02*
X20800000Y-8500000I0J100000D01*
G01*
D11*
D12*
X18160500Y-6225750D02*
X18200500Y-6265750D01*
X18200500Y-6225750D02*
X18160500Y-6265750D01*
X18160500Y-6378250D02*
X18200500Y-6418250D01*
X18200500Y-6378250D02*
X18160500Y-6418250D01*
X18236750Y-6149500D02*
X18276750Y-6189500D01*
X18276750Y-6149500D02*
X18236750Y-6189500D01*
X18236750Y-6302000D02*
X18276750Y-6342000D01*
X18276750Y-6302000D02*
X18236750Y-6342000D01*
X18236750Y-6454500D02*
X18276750Y-6494500D01*
X18276750Y-6454500D02*
X18236750Y-6494500D01*
X18313000Y-6225750D02*
X18353000Y-6265750D01*
X18353000Y-6225750D02*
X18313000Y-6265750D01*
X18313000Y-6378250D02*
X18353000Y-6418250D01*
X18353000Y-6378250D02*
X18313000Y-6418250D01*
X18389250Y-6149500D02*
X18429250Y-6189500D01*
X18429250Y-6149500D02*
X18389250Y-6189500D01*
X18389250Y-6302000D02*
X18429250Y-6342000D01*
X18429250Y-6302000D02*
X18389250Y-6342000D01*
X18389250Y-6454500D02*
X18429250Y-6494500D01*
X18429250Y-6454500D02*
X18389250Y-6494500D01*
X18465500Y-6225750D02*
X18505500Y-6265750D01*
X18505500Y-6225750D02*
X18465500Y-6265750D01*
X18465500Y-6378250D02*
X18505500Y-6418250D01*
X18505500Y-6378250D02*
X18465500Y-6418250D01*
X15524000Y-8636000D02*
G75*
G02*
X15464000Y-8636000I-30000J0D01*
G01*
X15464000Y-8636000D02*
G75*
G02*
X15524000Y-8636000I30000J0D01*
G01*
X18130000Y-7650000D02*
G75*
G02*
X18070000Y-7650000I-30000J0D01*
G01*
X18070000Y-7650000D02*
G75*
G02*
X18130000Y-7650000I30000J0D01*
G01*
X18750000Y-7830000D02*
G75*
G02*
X18690000Y-7830000I-30000J0D01*
G01*
X18690000Y-7830000D02*
G75*
G02*
X18750000Y-7830000I30000J0D01*
G01*
X18880000Y-7540000D02*
G75*
G02*
X18820000Y-7540000I-30000J0D01*
G01*
X18820000Y-7540000D02*
G75*
G02*
X18880000Y-7540000I30000J0D01*
G01*
X19080000Y-6604000D02*
G75*
G02*
X19020000Y-6604000I-30000J0D01*
G01*
X19020000Y-6604000D02*
G75*
G02*
X19080000Y-6604000I30000J0D01*
G01*
X19080000Y-6800000D02*
G75*
G02*
X19020000Y-6800000I-30000J0D01*
G01*
X19020000Y-6800000D02*
G75*
G02*
X19080000Y-6800000I30000J0D01*
G01*
X19080000Y-6985000D02*
G75*
G02*
X19020000Y-6985000I-30000J0D01*
G01*
X19020000Y-6985000D02*
G75*
G02*
X19080000Y-6985000I30000J0D01*
G01*
X19260000Y-8040000D02*
G75*
G02*
X19200000Y-8040000I-30000J0D01*
G01*
X19200000Y-8040000D02*
G75*
G02*
X19260000Y-8040000I30000J0D01*
G01*
X13434000Y-5800000D02*
X13434000Y-5880000D01*
X13394000Y-5840000D02*
X13474000Y-5840000D01*
X13589000Y-7008500D02*
X13589000Y-7088500D01*
X13549000Y-7048500D02*
X13629000Y-7048500D01*
X14224000Y-9317000D02*
X14224000Y-9397000D01*
X14184000Y-9357000D02*
X14264000Y-9357000D01*
X14224000Y-9571000D02*
X14224000Y-9651000D01*
X14184000Y-9611000D02*
X14264000Y-9611000D01*
X14339000Y-7008500D02*
X14339000Y-7088500D01*
X14299000Y-7048500D02*
X14379000Y-7048500D01*
X14414500Y-7838000D02*
X14414500Y-7918000D01*
X14374500Y-7878000D02*
X14454500Y-7878000D01*
X14414500Y-8338000D02*
X14414500Y-8418000D01*
X14374500Y-8378000D02*
X14454500Y-8378000D01*
X14450000Y-5800000D02*
X14450000Y-5880000D01*
X14410000Y-5840000D02*
X14490000Y-5840000D01*
X14541500Y-9317000D02*
X14541500Y-9397000D01*
X14501500Y-9357000D02*
X14581500Y-9357000D01*
X14541500Y-9571000D02*
X14541500Y-9651000D01*
X14501500Y-9611000D02*
X14581500Y-9611000D01*
X14750000Y-5870000D02*
X14750000Y-5950000D01*
X14710000Y-5910000D02*
X14790000Y-5910000D01*
X14750000Y-6620000D02*
X14750000Y-6700000D01*
X14710000Y-6660000D02*
X14790000Y-6660000D01*
X14859000Y-7008500D02*
X14859000Y-7088500D01*
X14819000Y-7048500D02*
X14899000Y-7048500D01*
X14859000Y-9317000D02*
X14859000Y-9397000D01*
X14819000Y-9357000D02*
X14899000Y-9357000D01*
X14859000Y-9571000D02*
X14859000Y-9651000D01*
X14819000Y-9611000D02*
X14899000Y-9611000D01*
X14884235Y-8659500D02*
X14884235Y-8739500D01*
X14844235Y-8699500D02*
X14924235Y-8699500D01*
X14986000Y-7838000D02*
X14986000Y-7918000D01*
X14946000Y-7878000D02*
X15026000Y-7878000D01*
X14986000Y-8088000D02*
X14986000Y-8168000D01*
X14946000Y-8128000D02*
X15026000Y-8128000D01*
X15044000Y-5810000D02*
X15044000Y-5890000D01*
X15004000Y-5850000D02*
X15084000Y-5850000D01*
X15109000Y-7008500D02*
X15109000Y-7088500D01*
X15069000Y-7048500D02*
X15149000Y-7048500D01*
X15176500Y-9317000D02*
X15176500Y-9397000D01*
X15136500Y-9357000D02*
X15216500Y-9357000D01*
X15176500Y-9571000D02*
X15176500Y-9651000D01*
X15136500Y-9611000D02*
X15216500Y-9611000D01*
X15234235Y-8659500D02*
X15234235Y-8739500D01*
X15194235Y-8699500D02*
X15274235Y-8699500D01*
X15368500Y-7516500D02*
X15368500Y-7596500D01*
X15328500Y-7556500D02*
X15408500Y-7556500D01*
X15621000Y-7060000D02*
X15621000Y-7140000D01*
X15581000Y-7100000D02*
X15661000Y-7100000D01*
X15868500Y-7516500D02*
X15868500Y-7596500D01*
X15828500Y-7556500D02*
X15908500Y-7556500D01*
X15875000Y-7060000D02*
X15875000Y-7140000D01*
X15835000Y-7100000D02*
X15915000Y-7100000D01*
X16002000Y-9317000D02*
X16002000Y-9397000D01*
X15962000Y-9357000D02*
X16042000Y-9357000D01*
X16002000Y-9571000D02*
X16002000Y-9651000D01*
X15962000Y-9611000D02*
X16042000Y-9611000D01*
X16060000Y-5810000D02*
X16060000Y-5890000D01*
X16020000Y-5850000D02*
X16100000Y-5850000D01*
X16319500Y-5865500D02*
X16319500Y-5945500D01*
X16279500Y-5905500D02*
X16359500Y-5905500D01*
X16319500Y-6183000D02*
X16319500Y-6263000D01*
X16279500Y-6223000D02*
X16359500Y-6223000D01*
X16319500Y-6500500D02*
X16319500Y-6580500D01*
X16279500Y-6540500D02*
X16359500Y-6540500D01*
X16319500Y-6818000D02*
X16319500Y-6898000D01*
X16279500Y-6858000D02*
X16359500Y-6858000D01*
X16319500Y-9317000D02*
X16319500Y-9397000D01*
X16279500Y-9357000D02*
X16359500Y-9357000D01*
X16319500Y-9571000D02*
X16319500Y-9651000D01*
X16279500Y-9611000D02*
X16359500Y-9611000D01*
X16573500Y-5865500D02*
X16573500Y-5945500D01*
X16533500Y-5905500D02*
X16613500Y-5905500D01*
X16573500Y-6183000D02*
X16573500Y-6263000D01*
X16533500Y-6223000D02*
X16613500Y-6223000D01*
X16573500Y-6500500D02*
X16573500Y-6580500D01*
X16533500Y-6540500D02*
X16613500Y-6540500D01*
X16573500Y-6818000D02*
X16573500Y-6898000D01*
X16533500Y-6858000D02*
X16613500Y-6858000D01*
X16638000Y-9317000D02*
X16638000Y-9397000D01*
X16598000Y-9357000D02*
X16678000Y-9357000D01*
X16638000Y-9571000D02*
X16638000Y-9651000D01*
X16598000Y-9611000D02*
X16678000Y-9611000D01*
X16954500Y-9317000D02*
X16954500Y-9397000D01*
X16914500Y-9357000D02*
X16994500Y-9357000D01*
X16954500Y-9571000D02*
X16954500Y-9651000D01*
X16914500Y-9611000D02*
X16994500Y-9611000D01*
X17462500Y-7897500D02*
X17462500Y-7977500D01*
X17422500Y-7937500D02*
X17502500Y-7937500D01*
X17462500Y-8151500D02*
X17462500Y-8231500D01*
X17422500Y-8191500D02*
X17502500Y-8191500D01*
X17462500Y-8405500D02*
X17462500Y-8485500D01*
X17422500Y-8445500D02*
X17502500Y-8445500D01*
X17462500Y-8659500D02*
X17462500Y-8739500D01*
X17422500Y-8699500D02*
X17502500Y-8699500D01*
X17462500Y-8913500D02*
X17462500Y-8993500D01*
X17422500Y-8953500D02*
X17502500Y-8953500D01*
X17716500Y-7897500D02*
X17716500Y-7977500D01*
X17676500Y-7937500D02*
X17756500Y-7937500D01*
X17716500Y-8151500D02*
X17716500Y-8231500D01*
X17676500Y-8191500D02*
X17756500Y-8191500D01*
X17716500Y-8405500D02*
X17716500Y-8485500D01*
X17676500Y-8445500D02*
X17756500Y-8445500D01*
X17716500Y-8659500D02*
X17716500Y-8739500D01*
X17676500Y-8699500D02*
X17756500Y-8699500D01*
X17716500Y-8913500D02*
X17716500Y-8993500D01*
X17676500Y-8953500D02*
X17756500Y-8953500D01*
X17780000Y-9317000D02*
X17780000Y-9397000D01*
X17740000Y-9357000D02*
X17820000Y-9357000D01*
X17780000Y-9571000D02*
X17780000Y-9651000D01*
X17740000Y-9611000D02*
X17820000Y-9611000D01*
X18097500Y-9317000D02*
X18097500Y-9397000D01*
X18057500Y-9357000D02*
X18137500Y-9357000D01*
X18097500Y-9571000D02*
X18097500Y-9651000D01*
X18057500Y-9611000D02*
X18137500Y-9611000D01*
X18415000Y-9317000D02*
X18415000Y-9397000D01*
X18375000Y-9357000D02*
X18455000Y-9357000D01*
X18415000Y-9571000D02*
X18415000Y-9651000D01*
X18375000Y-9611000D02*
X18455000Y-9611000D01*
X18520000Y-8130000D02*
X18520000Y-8210000D01*
X18480000Y-8170000D02*
X18560000Y-8170000D01*
X18520000Y-8430000D02*
X18520000Y-8510000D01*
X18480000Y-8470000D02*
X18560000Y-8470000D01*
X18520000Y-8730000D02*
X18520000Y-8810000D01*
X18480000Y-8770000D02*
X18560000Y-8770000D01*
X18732500Y-9317000D02*
X18732500Y-9397000D01*
X18692500Y-9357000D02*
X18772500Y-9357000D01*
X18732500Y-9571000D02*
X18732500Y-9651000D01*
X18692500Y-9611000D02*
X18772500Y-9611000D01*
X18774000Y-8130000D02*
X18774000Y-8210000D01*
X18734000Y-8170000D02*
X18814000Y-8170000D01*
X18774000Y-8430000D02*
X18774000Y-8510000D01*
X18734000Y-8470000D02*
X18814000Y-8470000D01*
X18774000Y-8730000D02*
X18774000Y-8810000D01*
X18734000Y-8770000D02*
X18814000Y-8770000D01*
X19431000Y-9317000D02*
X19431000Y-9397000D01*
X19391000Y-9357000D02*
X19471000Y-9357000D01*
X19431000Y-9571000D02*
X19431000Y-9651000D01*
X19391000Y-9611000D02*
X19471000Y-9611000D01*
X19748500Y-9317000D02*
X19748500Y-9397000D01*
X19708500Y-9357000D02*
X19788500Y-9357000D01*
X19748500Y-9571000D02*
X19748500Y-9651000D01*
X19708500Y-9611000D02*
X19788500Y-9611000D01*
X20002500Y-8024500D02*
X20002500Y-8104500D01*
X19962500Y-8064500D02*
X20042500Y-8064500D01*
X20066000Y-9317000D02*
X20066000Y-9397000D01*
X20026000Y-9357000D02*
X20106000Y-9357000D01*
X20066000Y-9571000D02*
X20066000Y-9651000D01*
X20026000Y-9611000D02*
X20106000Y-9611000D01*
X20256500Y-8024500D02*
X20256500Y-8104500D01*
X20216500Y-8064500D02*
X20296500Y-8064500D01*
X20386040Y-9317000D02*
X20386040Y-9397000D01*
X20346040Y-9357000D02*
X20426040Y-9357000D01*
X20386040Y-9571000D02*
X20386040Y-9651000D01*
X20346040Y-9611000D02*
X20426040Y-9611000D01*
X20288320Y-7524820D02*
X20288320Y-7461180D01*
X20224680Y-7461180D01*
X20224680Y-7524820D01*
X20288320Y-7524820D01*
X20288320Y-7778820D02*
X20288320Y-7715180D01*
X20224680Y-7715180D01*
X20224680Y-7778820D01*
X20288320Y-7778820D01*
X14287500Y-10210000D02*
X14337500Y-10160000D01*
X14287500Y-10110000D01*
X14237500Y-10160000D01*
X14287500Y-10210000D01*
X14287500Y-10464000D02*
X14337500Y-10414000D01*
X14287500Y-10364000D01*
X14237500Y-10414000D01*
X14287500Y-10464000D01*
X14287500Y-10718000D02*
X14337500Y-10668000D01*
X14287500Y-10618000D01*
X14237500Y-10668000D01*
X14287500Y-10718000D01*
X14541500Y-10210000D02*
X14591500Y-10160000D01*
X14541500Y-10110000D01*
X14491500Y-10160000D01*
X14541500Y-10210000D01*
X14541500Y-10464000D02*
X14591500Y-10414000D01*
X14541500Y-10364000D01*
X14491500Y-10414000D01*
X14541500Y-10464000D01*
X14541500Y-10718000D02*
X14591500Y-10668000D01*
X14541500Y-10618000D01*
X14491500Y-10668000D01*
X14541500Y-10718000D01*
X14795500Y-10210000D02*
X14845500Y-10160000D01*
X14795500Y-10110000D01*
X14745500Y-10160000D01*
X14795500Y-10210000D01*
X14795500Y-10464000D02*
X14845500Y-10414000D01*
X14795500Y-10364000D01*
X14745500Y-10414000D01*
X14795500Y-10464000D01*
X14795500Y-10718000D02*
X14845500Y-10668000D01*
X14795500Y-10618000D01*
X14745500Y-10668000D01*
X14795500Y-10718000D01*
X15049500Y-10210000D02*
X15099500Y-10160000D01*
X15049500Y-10110000D01*
X14999500Y-10160000D01*
X15049500Y-10210000D01*
X15049500Y-10464000D02*
X15099500Y-10414000D01*
X15049500Y-10364000D01*
X14999500Y-10414000D01*
X15049500Y-10464000D01*
X15049500Y-10718000D02*
X15099500Y-10668000D01*
X15049500Y-10618000D01*
X14999500Y-10668000D01*
X15049500Y-10718000D01*
X16065500Y-10210000D02*
X16115500Y-10160000D01*
X16065500Y-10110000D01*
X16015500Y-10160000D01*
X16065500Y-10210000D01*
X16065500Y-10464000D02*
X16115500Y-10414000D01*
X16065500Y-10364000D01*
X16015500Y-10414000D01*
X16065500Y-10464000D01*
X16065500Y-10718000D02*
X16115500Y-10668000D01*
X16065500Y-10618000D01*
X16015500Y-10668000D01*
X16065500Y-10718000D01*
X16319500Y-10210000D02*
X16369500Y-10160000D01*
X16319500Y-10110000D01*
X16269500Y-10160000D01*
X16319500Y-10210000D01*
X16319500Y-10464000D02*
X16369500Y-10414000D01*
X16319500Y-10364000D01*
X16269500Y-10414000D01*
X16319500Y-10464000D01*
X16319500Y-10718000D02*
X16369500Y-10668000D01*
X16319500Y-10618000D01*
X16269500Y-10668000D01*
X16319500Y-10718000D01*
X16332200Y-7238200D02*
X16382200Y-7188200D01*
X16332200Y-7138200D01*
X16282200Y-7188200D01*
X16332200Y-7238200D01*
X16332200Y-7568400D02*
X16382200Y-7518400D01*
X16332200Y-7468400D01*
X16282200Y-7518400D01*
X16332200Y-7568400D01*
X16573500Y-10210000D02*
X16623500Y-10160000D01*
X16573500Y-10110000D01*
X16523500Y-10160000D01*
X16573500Y-10210000D01*
X16573500Y-10464000D02*
X16623500Y-10414000D01*
X16573500Y-10364000D01*
X16523500Y-10414000D01*
X16573500Y-10464000D01*
X16573500Y-10718000D02*
X16623500Y-10668000D01*
X16573500Y-10618000D01*
X16523500Y-10668000D01*
X16573500Y-10718000D01*
X16586200Y-7238200D02*
X16636200Y-7188200D01*
X16586200Y-7138200D01*
X16536200Y-7188200D01*
X16586200Y-7238200D01*
X16586200Y-7568400D02*
X16636200Y-7518400D01*
X16586200Y-7468400D01*
X16536200Y-7518400D01*
X16586200Y-7568400D01*
X16827500Y-10210000D02*
X16877500Y-10160000D01*
X16827500Y-10110000D01*
X16777500Y-10160000D01*
X16827500Y-10210000D01*
X16827500Y-10464000D02*
X16877500Y-10414000D01*
X16827500Y-10364000D01*
X16777500Y-10414000D01*
X16827500Y-10464000D01*
X16827500Y-10718000D02*
X16877500Y-10668000D01*
X16827500Y-10618000D01*
X16777500Y-10668000D01*
X16827500Y-10718000D01*
X17843500Y-10210000D02*
X17893500Y-10160000D01*
X17843500Y-10110000D01*
X17793500Y-10160000D01*
X17843500Y-10210000D01*
X17843500Y-10464000D02*
X17893500Y-10414000D01*
X17843500Y-10364000D01*
X17793500Y-10414000D01*
X17843500Y-10464000D01*
X17843500Y-10718000D02*
X17893500Y-10668000D01*
X17843500Y-10618000D01*
X17793500Y-10668000D01*
X17843500Y-10718000D01*
X18097500Y-10210000D02*
X18147500Y-10160000D01*
X18097500Y-10110000D01*
X18047500Y-10160000D01*
X18097500Y-10210000D01*
X18097500Y-10464000D02*
X18147500Y-10414000D01*
X18097500Y-10364000D01*
X18047500Y-10414000D01*
X18097500Y-10464000D01*
X18097500Y-10718000D02*
X18147500Y-10668000D01*
X18097500Y-10618000D01*
X18047500Y-10668000D01*
X18097500Y-10718000D01*
X18351500Y-10210000D02*
X18401500Y-10160000D01*
X18351500Y-10110000D01*
X18301500Y-10160000D01*
X18351500Y-10210000D01*
X18351500Y-10464000D02*
X18401500Y-10414000D01*
X18351500Y-10364000D01*
X18301500Y-10414000D01*
X18351500Y-10464000D01*
X18351500Y-10718000D02*
X18401500Y-10668000D01*
X18351500Y-10618000D01*
X18301500Y-10668000D01*
X18351500Y-10718000D01*
X18605500Y-10210000D02*
X18655500Y-10160000D01*
X18605500Y-10110000D01*
X18555500Y-10160000D01*
X18605500Y-10210000D01*
X18605500Y-10464000D02*
X18655500Y-10414000D01*
X18605500Y-10364000D01*
X18555500Y-10414000D01*
X18605500Y-10464000D01*
X18605500Y-10718000D02*
X18655500Y-10668000D01*
X18605500Y-10618000D01*
X18555500Y-10668000D01*
X18605500Y-10718000D01*
X19621500Y-10210000D02*
X19671500Y-10160000D01*
X19621500Y-10110000D01*
X19571500Y-10160000D01*
X19621500Y-10210000D01*
X19621500Y-10464000D02*
X19671500Y-10414000D01*
X19621500Y-10364000D01*
X19571500Y-10414000D01*
X19621500Y-10464000D01*
X19621500Y-10718000D02*
X19671500Y-10668000D01*
X19621500Y-10618000D01*
X19571500Y-10668000D01*
X19621500Y-10718000D01*
X19750000Y-5880000D02*
X19800000Y-5830000D01*
X19750000Y-5780000D01*
X19700000Y-5830000D01*
X19750000Y-5880000D01*
X19875500Y-10210000D02*
X19925500Y-10160000D01*
X19875500Y-10110000D01*
X19825500Y-10160000D01*
X19875500Y-10210000D01*
X19875500Y-10464000D02*
X19925500Y-10414000D01*
X19875500Y-10364000D01*
X19825500Y-10414000D01*
X19875500Y-10464000D01*
X19875500Y-10718000D02*
X19925500Y-10668000D01*
X19875500Y-10618000D01*
X19825500Y-10668000D01*
X19875500Y-10718000D01*
X20004000Y-5880000D02*
X20054000Y-5830000D01*
X20004000Y-5780000D01*
X19954000Y-5830000D01*
X20004000Y-5880000D01*
X20129500Y-10210000D02*
X20179500Y-10160000D01*
X20129500Y-10110000D01*
X20079500Y-10160000D01*
X20129500Y-10210000D01*
X20129500Y-10464000D02*
X20179500Y-10414000D01*
X20129500Y-10364000D01*
X20079500Y-10414000D01*
X20129500Y-10464000D01*
X20129500Y-10718000D02*
X20179500Y-10668000D01*
X20129500Y-10618000D01*
X20079500Y-10668000D01*
X20129500Y-10718000D01*
X20256500Y-6273000D02*
X20306500Y-6223000D01*
X20256500Y-6173000D01*
X20206500Y-6223000D01*
X20256500Y-6273000D01*
X20256500Y-6527000D02*
X20306500Y-6477000D01*
X20256500Y-6427000D01*
X20206500Y-6477000D01*
X20256500Y-6527000D01*
X20256500Y-6781000D02*
X20306500Y-6731000D01*
X20256500Y-6681000D01*
X20206500Y-6731000D01*
X20256500Y-6781000D01*
X20383500Y-10210000D02*
X20433500Y-10160000D01*
X20383500Y-10110000D01*
X20333500Y-10160000D01*
X20383500Y-10210000D01*
X20383500Y-10464000D02*
X20433500Y-10414000D01*
X20383500Y-10364000D01*
X20333500Y-10414000D01*
X20383500Y-10464000D01*
X20383500Y-10718000D02*
X20433500Y-10668000D01*
X20383500Y-10618000D01*
X20333500Y-10668000D01*
X20383500Y-10718000D01*
D13*
X13525000Y-6095000D02*
X13635000Y-6205000D01*
X13635000Y-6095000D02*
X13525000Y-6205000D01*
X13635000Y-6150000D02*
G75*
G02*
X13525000Y-6150000I-55000J0D01*
G01*
X13525000Y-6150000D02*
G75*
G02*
X13635000Y-6150000I55000J0D01*
G01*
X13525000Y-6545000D02*
X13635000Y-6655000D01*
X13635000Y-6545000D02*
X13525000Y-6655000D01*
X13635000Y-6600000D02*
G75*
G02*
X13525000Y-6600000I-55000J0D01*
G01*
X13525000Y-6600000D02*
G75*
G02*
X13635000Y-6600000I55000J0D01*
G01*
X14169000Y-7501500D02*
X14279000Y-7611500D01*
X14279000Y-7501500D02*
X14169000Y-7611500D01*
X14279000Y-7556500D02*
G75*
G02*
X14169000Y-7556500I-55000J0D01*
G01*
X14169000Y-7556500D02*
G75*
G02*
X14279000Y-7556500I55000J0D01*
G01*
X14175000Y-6095000D02*
X14285000Y-6205000D01*
X14285000Y-6095000D02*
X14175000Y-6205000D01*
X14285000Y-6150000D02*
G75*
G02*
X14175000Y-6150000I-55000J0D01*
G01*
X14175000Y-6150000D02*
G75*
G02*
X14285000Y-6150000I55000J0D01*
G01*
X14175000Y-6545000D02*
X14285000Y-6655000D01*
X14285000Y-6545000D02*
X14175000Y-6655000D01*
X14285000Y-6600000D02*
G75*
G02*
X14175000Y-6600000I-55000J0D01*
G01*
X14175000Y-6600000D02*
G75*
G02*
X14285000Y-6600000I55000J0D01*
G01*
X14931000Y-7501500D02*
X15041000Y-7611500D01*
X15041000Y-7501500D02*
X14931000Y-7611500D01*
X15041000Y-7556500D02*
G75*
G02*
X14931000Y-7556500I-55000J0D01*
G01*
X14931000Y-7556500D02*
G75*
G02*
X15041000Y-7556500I55000J0D01*
G01*
X15233500Y-6095000D02*
X15343500Y-6205000D01*
X15343500Y-6095000D02*
X15233500Y-6205000D01*
X15343500Y-6150000D02*
G75*
G02*
X15233500Y-6150000I-55000J0D01*
G01*
X15233500Y-6150000D02*
G75*
G02*
X15343500Y-6150000I55000J0D01*
G01*
X15233500Y-6545000D02*
X15343500Y-6655000D01*
X15343500Y-6545000D02*
X15233500Y-6655000D01*
X15343500Y-6600000D02*
G75*
G02*
X15233500Y-6600000I-55000J0D01*
G01*
X15233500Y-6600000D02*
G75*
G02*
X15343500Y-6600000I55000J0D01*
G01*
X15883500Y-6095000D02*
X15993500Y-6205000D01*
X15993500Y-6095000D02*
X15883500Y-6205000D01*
X15993500Y-6150000D02*
G75*
G02*
X15883500Y-6150000I-55000J0D01*
G01*
X15883500Y-6150000D02*
G75*
G02*
X15993500Y-6150000I55000J0D01*
G01*
X15883500Y-6545000D02*
X15993500Y-6655000D01*
X15993500Y-6545000D02*
X15883500Y-6655000D01*
X15993500Y-6600000D02*
G75*
G02*
X15883500Y-6600000I-55000J0D01*
G01*
X15883500Y-6600000D02*
G75*
G02*
X15993500Y-6600000I55000J0D01*
G01*
D14*
X13761250Y-7916000D02*
X13901250Y-8056000D01*
X13901250Y-7916000D02*
X13761250Y-8056000D01*
X13831250Y-7916000D02*
X13831250Y-8056000D01*
X13761250Y-7986000D02*
X13901250Y-7986000D01*
X13761250Y-8312000D02*
X13901250Y-8452000D01*
X13901250Y-8312000D02*
X13761250Y-8452000D01*
X13831250Y-8312000D02*
X13831250Y-8452000D01*
X13761250Y-8382000D02*
X13901250Y-8382000D01*
X13761250Y-8708000D02*
X13901250Y-8848000D01*
X13901250Y-8708000D02*
X13761250Y-8848000D01*
X13831250Y-8708000D02*
X13831250Y-8848000D01*
X13761250Y-8778000D02*
X13901250Y-8778000D01*
D15*
X12840000Y-5690000D02*
X13160000Y-6010000D01*
X13160000Y-5690000D02*
X12840000Y-6010000D01*
X13113138Y-5963138D02*
X13113138Y-5736862D01*
X12886862Y-5736862D01*
X12886862Y-5963138D01*
X13113138Y-5963138D01*
X12840000Y-10390000D02*
X13160000Y-10710000D01*
X13160000Y-10390000D02*
X12840000Y-10710000D01*
X13113138Y-10663138D02*
X13113138Y-10436862D01*
X12886862Y-10436862D01*
X12886862Y-10663138D01*
X13113138Y-10663138D01*
X20990000Y-5690000D02*
X21310000Y-6010000D01*
X21310000Y-5690000D02*
X20990000Y-6010000D01*
X21263138Y-5963138D02*
X21263138Y-5736862D01*
X21036862Y-5736862D01*
X21036862Y-5963138D01*
X21263138Y-5963138D01*
X20990000Y-10390000D02*
X21310000Y-10710000D01*
X21310000Y-10390000D02*
X20990000Y-10710000D01*
X21263138Y-10663138D02*
X21263138Y-10436862D01*
X21036862Y-10436862D01*
X21036862Y-10663138D01*
X21263138Y-10663138D01*
D11*
X12858277Y-11263984D02*
X12858277Y-11063984D01*
X12858277Y-11063984D02*
X12905896Y-11063984D01*
X12905896Y-11063984D02*
X12934467Y-11073508D01*
X12934467Y-11073508D02*
X12953515Y-11092555D01*
X12953515Y-11092555D02*
X12963039Y-11111603D01*
X12963039Y-11111603D02*
X12972562Y-11149698D01*
X12972562Y-11149698D02*
X12972562Y-11178270D01*
X12972562Y-11178270D02*
X12963039Y-11216365D01*
X12963039Y-11216365D02*
X12953515Y-11235412D01*
X12953515Y-11235412D02*
X12934467Y-11254460D01*
X12934467Y-11254460D02*
X12905896Y-11263984D01*
X12905896Y-11263984D02*
X12858277Y-11263984D01*
X13058277Y-11263984D02*
X13058277Y-11130650D01*
X13058277Y-11168746D02*
X13067801Y-11149698D01*
X13067801Y-11149698D02*
X13077324Y-11140174D01*
X13077324Y-11140174D02*
X13096372Y-11130650D01*
X13096372Y-11130650D02*
X13115420Y-11130650D01*
X13182086Y-11263984D02*
X13182086Y-11130650D01*
X13182086Y-11063984D02*
X13172562Y-11073508D01*
X13172562Y-11073508D02*
X13182086Y-11083031D01*
X13182086Y-11083031D02*
X13191610Y-11073508D01*
X13191610Y-11073508D02*
X13182086Y-11063984D01*
X13182086Y-11063984D02*
X13182086Y-11083031D01*
X13305896Y-11263984D02*
X13286848Y-11254460D01*
X13286848Y-11254460D02*
X13277324Y-11235412D01*
X13277324Y-11235412D02*
X13277324Y-11063984D01*
X13410658Y-11263984D02*
X13391610Y-11254460D01*
X13391610Y-11254460D02*
X13382086Y-11235412D01*
X13382086Y-11235412D02*
X13382086Y-11063984D01*
X13639229Y-11263984D02*
X13639229Y-11063984D01*
X13639229Y-11063984D02*
X13705896Y-11206841D01*
X13705896Y-11206841D02*
X13772562Y-11063984D01*
X13772562Y-11063984D02*
X13772562Y-11263984D01*
X13953515Y-11263984D02*
X13953515Y-11159222D01*
X13953515Y-11159222D02*
X13943991Y-11140174D01*
X13943991Y-11140174D02*
X13924943Y-11130650D01*
X13924943Y-11130650D02*
X13886848Y-11130650D01*
X13886848Y-11130650D02*
X13867801Y-11140174D01*
X13953515Y-11254460D02*
X13934467Y-11263984D01*
X13934467Y-11263984D02*
X13886848Y-11263984D01*
X13886848Y-11263984D02*
X13867801Y-11254460D01*
X13867801Y-11254460D02*
X13858277Y-11235412D01*
X13858277Y-11235412D02*
X13858277Y-11216365D01*
X13858277Y-11216365D02*
X13867801Y-11197317D01*
X13867801Y-11197317D02*
X13886848Y-11187793D01*
X13886848Y-11187793D02*
X13934467Y-11187793D01*
X13934467Y-11187793D02*
X13953515Y-11178270D01*
X14048753Y-11130650D02*
X14048753Y-11330650D01*
X14048753Y-11140174D02*
X14067801Y-11130650D01*
X14067801Y-11130650D02*
X14105896Y-11130650D01*
X14105896Y-11130650D02*
X14124943Y-11140174D01*
X14124943Y-11140174D02*
X14134467Y-11149698D01*
X14134467Y-11149698D02*
X14143991Y-11168746D01*
X14143991Y-11168746D02*
X14143991Y-11225888D01*
X14143991Y-11225888D02*
X14134467Y-11244936D01*
X14134467Y-11244936D02*
X14124943Y-11254460D01*
X14124943Y-11254460D02*
X14105896Y-11263984D01*
X14105896Y-11263984D02*
X14067801Y-11263984D01*
X14067801Y-11263984D02*
X14048753Y-11254460D01*
X14229705Y-11244936D02*
X14239229Y-11254460D01*
X14239229Y-11254460D02*
X14229705Y-11263984D01*
X14229705Y-11263984D02*
X14220182Y-11254460D01*
X14220182Y-11254460D02*
X14229705Y-11244936D01*
X14229705Y-11244936D02*
X14229705Y-11263984D01*
X14229705Y-11140174D02*
X14239229Y-11149698D01*
X14239229Y-11149698D02*
X14229705Y-11159222D01*
X14229705Y-11159222D02*
X14220182Y-11149698D01*
X14220182Y-11149698D02*
X14229705Y-11140174D01*
X14229705Y-11140174D02*
X14229705Y-11159222D01*
D12*
X12557500Y-11572500D02*
X12597500Y-11612500D01*
X12597500Y-11572500D02*
X12557500Y-11612500D01*
D11*
X12896372Y-11483984D02*
X12915420Y-11483984D01*
X12915420Y-11483984D02*
X12934467Y-11493508D01*
X12934467Y-11493508D02*
X12943991Y-11503031D01*
X12943991Y-11503031D02*
X12953515Y-11522079D01*
X12953515Y-11522079D02*
X12963039Y-11560174D01*
X12963039Y-11560174D02*
X12963039Y-11607793D01*
X12963039Y-11607793D02*
X12953515Y-11645888D01*
X12953515Y-11645888D02*
X12943991Y-11664936D01*
X12943991Y-11664936D02*
X12934467Y-11674460D01*
X12934467Y-11674460D02*
X12915420Y-11683984D01*
X12915420Y-11683984D02*
X12896372Y-11683984D01*
X12896372Y-11683984D02*
X12877324Y-11674460D01*
X12877324Y-11674460D02*
X12867801Y-11664936D01*
X12867801Y-11664936D02*
X12858277Y-11645888D01*
X12858277Y-11645888D02*
X12848753Y-11607793D01*
X12848753Y-11607793D02*
X12848753Y-11560174D01*
X12848753Y-11560174D02*
X12858277Y-11522079D01*
X12858277Y-11522079D02*
X12867801Y-11503031D01*
X12867801Y-11503031D02*
X12877324Y-11493508D01*
X12877324Y-11493508D02*
X12896372Y-11483984D01*
X13048753Y-11664936D02*
X13058277Y-11674460D01*
X13058277Y-11674460D02*
X13048753Y-11683984D01*
X13048753Y-11683984D02*
X13039229Y-11674460D01*
X13039229Y-11674460D02*
X13048753Y-11664936D01*
X13048753Y-11664936D02*
X13048753Y-11683984D01*
X13229705Y-11550650D02*
X13229705Y-11683984D01*
X13182086Y-11474460D02*
X13134467Y-11617317D01*
X13134467Y-11617317D02*
X13258277Y-11617317D01*
X13372562Y-11483984D02*
X13391610Y-11483984D01*
X13391610Y-11483984D02*
X13410658Y-11493508D01*
X13410658Y-11493508D02*
X13420182Y-11503031D01*
X13420182Y-11503031D02*
X13429705Y-11522079D01*
X13429705Y-11522079D02*
X13439229Y-11560174D01*
X13439229Y-11560174D02*
X13439229Y-11607793D01*
X13439229Y-11607793D02*
X13429705Y-11645888D01*
X13429705Y-11645888D02*
X13420182Y-11664936D01*
X13420182Y-11664936D02*
X13410658Y-11674460D01*
X13410658Y-11674460D02*
X13391610Y-11683984D01*
X13391610Y-11683984D02*
X13372562Y-11683984D01*
X13372562Y-11683984D02*
X13353515Y-11674460D01*
X13353515Y-11674460D02*
X13343991Y-11664936D01*
X13343991Y-11664936D02*
X13334467Y-11645888D01*
X13334467Y-11645888D02*
X13324943Y-11607793D01*
X13324943Y-11607793D02*
X13324943Y-11560174D01*
X13324943Y-11560174D02*
X13334467Y-11522079D01*
X13334467Y-11522079D02*
X13343991Y-11503031D01*
X13343991Y-11503031D02*
X13353515Y-11493508D01*
X13353515Y-11493508D02*
X13372562Y-11483984D01*
X13563039Y-11483984D02*
X13582086Y-11483984D01*
X13582086Y-11483984D02*
X13601134Y-11493508D01*
X13601134Y-11493508D02*
X13610658Y-11503031D01*
X13610658Y-11503031D02*
X13620182Y-11522079D01*
X13620182Y-11522079D02*
X13629705Y-11560174D01*
X13629705Y-11560174D02*
X13629705Y-11607793D01*
X13629705Y-11607793D02*
X13620182Y-11645888D01*
X13620182Y-11645888D02*
X13610658Y-11664936D01*
X13610658Y-11664936D02*
X13601134Y-11674460D01*
X13601134Y-11674460D02*
X13582086Y-11683984D01*
X13582086Y-11683984D02*
X13563039Y-11683984D01*
X13563039Y-11683984D02*
X13543991Y-11674460D01*
X13543991Y-11674460D02*
X13534467Y-11664936D01*
X13534467Y-11664936D02*
X13524943Y-11645888D01*
X13524943Y-11645888D02*
X13515420Y-11607793D01*
X13515420Y-11607793D02*
X13515420Y-11560174D01*
X13515420Y-11560174D02*
X13524943Y-11522079D01*
X13524943Y-11522079D02*
X13534467Y-11503031D01*
X13534467Y-11503031D02*
X13543991Y-11493508D01*
X13543991Y-11493508D02*
X13563039Y-11483984D01*
X13715420Y-11683984D02*
X13715420Y-11550650D01*
X13715420Y-11569698D02*
X13724943Y-11560174D01*
X13724943Y-11560174D02*
X13743991Y-11550650D01*
X13743991Y-11550650D02*
X13772563Y-11550650D01*
X13772563Y-11550650D02*
X13791610Y-11560174D01*
X13791610Y-11560174D02*
X13801134Y-11579222D01*
X13801134Y-11579222D02*
X13801134Y-11683984D01*
X13801134Y-11579222D02*
X13810658Y-11560174D01*
X13810658Y-11560174D02*
X13829705Y-11550650D01*
X13829705Y-11550650D02*
X13858277Y-11550650D01*
X13858277Y-11550650D02*
X13877324Y-11560174D01*
X13877324Y-11560174D02*
X13886848Y-11579222D01*
X13886848Y-11579222D02*
X13886848Y-11683984D01*
X13982086Y-11683984D02*
X13982086Y-11550650D01*
X13982086Y-11569698D02*
X13991610Y-11560174D01*
X13991610Y-11560174D02*
X14010658Y-11550650D01*
X14010658Y-11550650D02*
X14039229Y-11550650D01*
X14039229Y-11550650D02*
X14058277Y-11560174D01*
X14058277Y-11560174D02*
X14067801Y-11579222D01*
X14067801Y-11579222D02*
X14067801Y-11683984D01*
X14067801Y-11579222D02*
X14077324Y-11560174D01*
X14077324Y-11560174D02*
X14096372Y-11550650D01*
X14096372Y-11550650D02*
X14124943Y-11550650D01*
X14124943Y-11550650D02*
X14143991Y-11560174D01*
X14143991Y-11560174D02*
X14153515Y-11579222D01*
X14153515Y-11579222D02*
X14153515Y-11683984D01*
X14543991Y-11474460D02*
X14372563Y-11731603D01*
X14801134Y-11483984D02*
X14820182Y-11483984D01*
X14820182Y-11483984D02*
X14839229Y-11493508D01*
X14839229Y-11493508D02*
X14848753Y-11503031D01*
X14848753Y-11503031D02*
X14858277Y-11522079D01*
X14858277Y-11522079D02*
X14867801Y-11560174D01*
X14867801Y-11560174D02*
X14867801Y-11607793D01*
X14867801Y-11607793D02*
X14858277Y-11645888D01*
X14858277Y-11645888D02*
X14848753Y-11664936D01*
X14848753Y-11664936D02*
X14839229Y-11674460D01*
X14839229Y-11674460D02*
X14820182Y-11683984D01*
X14820182Y-11683984D02*
X14801134Y-11683984D01*
X14801134Y-11683984D02*
X14782086Y-11674460D01*
X14782086Y-11674460D02*
X14772563Y-11664936D01*
X14772563Y-11664936D02*
X14763039Y-11645888D01*
X14763039Y-11645888D02*
X14753515Y-11607793D01*
X14753515Y-11607793D02*
X14753515Y-11560174D01*
X14753515Y-11560174D02*
X14763039Y-11522079D01*
X14763039Y-11522079D02*
X14772563Y-11503031D01*
X14772563Y-11503031D02*
X14782086Y-11493508D01*
X14782086Y-11493508D02*
X14801134Y-11483984D01*
X14953515Y-11664936D02*
X14963039Y-11674460D01*
X14963039Y-11674460D02*
X14953515Y-11683984D01*
X14953515Y-11683984D02*
X14943991Y-11674460D01*
X14943991Y-11674460D02*
X14953515Y-11664936D01*
X14953515Y-11664936D02*
X14953515Y-11683984D01*
X15086848Y-11483984D02*
X15105896Y-11483984D01*
X15105896Y-11483984D02*
X15124944Y-11493508D01*
X15124944Y-11493508D02*
X15134467Y-11503031D01*
X15134467Y-11503031D02*
X15143991Y-11522079D01*
X15143991Y-11522079D02*
X15153515Y-11560174D01*
X15153515Y-11560174D02*
X15153515Y-11607793D01*
X15153515Y-11607793D02*
X15143991Y-11645888D01*
X15143991Y-11645888D02*
X15134467Y-11664936D01*
X15134467Y-11664936D02*
X15124944Y-11674460D01*
X15124944Y-11674460D02*
X15105896Y-11683984D01*
X15105896Y-11683984D02*
X15086848Y-11683984D01*
X15086848Y-11683984D02*
X15067801Y-11674460D01*
X15067801Y-11674460D02*
X15058277Y-11664936D01*
X15058277Y-11664936D02*
X15048753Y-11645888D01*
X15048753Y-11645888D02*
X15039229Y-11607793D01*
X15039229Y-11607793D02*
X15039229Y-11560174D01*
X15039229Y-11560174D02*
X15048753Y-11522079D01*
X15048753Y-11522079D02*
X15058277Y-11503031D01*
X15058277Y-11503031D02*
X15067801Y-11493508D01*
X15067801Y-11493508D02*
X15086848Y-11483984D01*
X15343991Y-11683984D02*
X15229706Y-11683984D01*
X15286848Y-11683984D02*
X15286848Y-11483984D01*
X15286848Y-11483984D02*
X15267801Y-11512555D01*
X15267801Y-11512555D02*
X15248753Y-11531603D01*
X15248753Y-11531603D02*
X15229706Y-11541127D01*
X15524944Y-11483984D02*
X15429706Y-11483984D01*
X15429706Y-11483984D02*
X15420182Y-11579222D01*
X15420182Y-11579222D02*
X15429706Y-11569698D01*
X15429706Y-11569698D02*
X15448753Y-11560174D01*
X15448753Y-11560174D02*
X15496372Y-11560174D01*
X15496372Y-11560174D02*
X15515420Y-11569698D01*
X15515420Y-11569698D02*
X15524944Y-11579222D01*
X15524944Y-11579222D02*
X15534467Y-11598269D01*
X15534467Y-11598269D02*
X15534467Y-11645888D01*
X15534467Y-11645888D02*
X15524944Y-11664936D01*
X15524944Y-11664936D02*
X15515420Y-11674460D01*
X15515420Y-11674460D02*
X15496372Y-11683984D01*
X15496372Y-11683984D02*
X15448753Y-11683984D01*
X15448753Y-11683984D02*
X15429706Y-11674460D01*
X15429706Y-11674460D02*
X15420182Y-11664936D01*
X15601134Y-11483984D02*
X15734467Y-11483984D01*
X15734467Y-11483984D02*
X15648753Y-11683984D01*
X15801134Y-11483984D02*
X15801134Y-11522079D01*
X15877325Y-11483984D02*
X15877325Y-11522079D01*
X16172563Y-11760174D02*
X16163039Y-11750650D01*
X16163039Y-11750650D02*
X16143991Y-11722079D01*
X16143991Y-11722079D02*
X16134468Y-11703031D01*
X16134468Y-11703031D02*
X16124944Y-11674460D01*
X16124944Y-11674460D02*
X16115420Y-11626841D01*
X16115420Y-11626841D02*
X16115420Y-11588746D01*
X16115420Y-11588746D02*
X16124944Y-11541127D01*
X16124944Y-11541127D02*
X16134468Y-11512555D01*
X16134468Y-11512555D02*
X16143991Y-11493508D01*
X16143991Y-11493508D02*
X16163039Y-11464936D01*
X16163039Y-11464936D02*
X16172563Y-11455412D01*
X16353515Y-11683984D02*
X16239229Y-11683984D01*
X16296372Y-11683984D02*
X16296372Y-11483984D01*
X16296372Y-11483984D02*
X16277325Y-11512555D01*
X16277325Y-11512555D02*
X16258277Y-11531603D01*
X16258277Y-11531603D02*
X16239229Y-11541127D01*
X16429706Y-11503031D02*
X16439229Y-11493508D01*
X16439229Y-11493508D02*
X16458277Y-11483984D01*
X16458277Y-11483984D02*
X16505896Y-11483984D01*
X16505896Y-11483984D02*
X16524944Y-11493508D01*
X16524944Y-11493508D02*
X16534468Y-11503031D01*
X16534468Y-11503031D02*
X16543991Y-11522079D01*
X16543991Y-11522079D02*
X16543991Y-11541127D01*
X16543991Y-11541127D02*
X16534468Y-11569698D01*
X16534468Y-11569698D02*
X16420182Y-11683984D01*
X16420182Y-11683984D02*
X16543991Y-11683984D01*
X16782087Y-11683984D02*
X16782087Y-11483984D01*
X16867801Y-11683984D02*
X16867801Y-11579222D01*
X16867801Y-11579222D02*
X16858277Y-11560174D01*
X16858277Y-11560174D02*
X16839230Y-11550650D01*
X16839230Y-11550650D02*
X16810658Y-11550650D01*
X16810658Y-11550650D02*
X16791611Y-11560174D01*
X16791611Y-11560174D02*
X16782087Y-11569698D01*
X16991611Y-11683984D02*
X16972563Y-11674460D01*
X16972563Y-11674460D02*
X16963039Y-11664936D01*
X16963039Y-11664936D02*
X16953515Y-11645888D01*
X16953515Y-11645888D02*
X16953515Y-11588746D01*
X16953515Y-11588746D02*
X16963039Y-11569698D01*
X16963039Y-11569698D02*
X16972563Y-11560174D01*
X16972563Y-11560174D02*
X16991611Y-11550650D01*
X16991611Y-11550650D02*
X17020182Y-11550650D01*
X17020182Y-11550650D02*
X17039230Y-11560174D01*
X17039230Y-11560174D02*
X17048753Y-11569698D01*
X17048753Y-11569698D02*
X17058277Y-11588746D01*
X17058277Y-11588746D02*
X17058277Y-11645888D01*
X17058277Y-11645888D02*
X17048753Y-11664936D01*
X17048753Y-11664936D02*
X17039230Y-11674460D01*
X17039230Y-11674460D02*
X17020182Y-11683984D01*
X17020182Y-11683984D02*
X16991611Y-11683984D01*
X17172563Y-11683984D02*
X17153515Y-11674460D01*
X17153515Y-11674460D02*
X17143992Y-11655412D01*
X17143992Y-11655412D02*
X17143992Y-11483984D01*
X17324944Y-11674460D02*
X17305896Y-11683984D01*
X17305896Y-11683984D02*
X17267801Y-11683984D01*
X17267801Y-11683984D02*
X17248753Y-11674460D01*
X17248753Y-11674460D02*
X17239230Y-11655412D01*
X17239230Y-11655412D02*
X17239230Y-11579222D01*
X17239230Y-11579222D02*
X17248753Y-11560174D01*
X17248753Y-11560174D02*
X17267801Y-11550650D01*
X17267801Y-11550650D02*
X17305896Y-11550650D01*
X17305896Y-11550650D02*
X17324944Y-11560174D01*
X17324944Y-11560174D02*
X17334468Y-11579222D01*
X17334468Y-11579222D02*
X17334468Y-11598269D01*
X17334468Y-11598269D02*
X17239230Y-11617317D01*
X17410658Y-11674460D02*
X17429706Y-11683984D01*
X17429706Y-11683984D02*
X17467801Y-11683984D01*
X17467801Y-11683984D02*
X17486849Y-11674460D01*
X17486849Y-11674460D02*
X17496373Y-11655412D01*
X17496373Y-11655412D02*
X17496373Y-11645888D01*
X17496373Y-11645888D02*
X17486849Y-11626841D01*
X17486849Y-11626841D02*
X17467801Y-11617317D01*
X17467801Y-11617317D02*
X17439230Y-11617317D01*
X17439230Y-11617317D02*
X17420182Y-11607793D01*
X17420182Y-11607793D02*
X17410658Y-11588746D01*
X17410658Y-11588746D02*
X17410658Y-11579222D01*
X17410658Y-11579222D02*
X17420182Y-11560174D01*
X17420182Y-11560174D02*
X17439230Y-11550650D01*
X17439230Y-11550650D02*
X17467801Y-11550650D01*
X17467801Y-11550650D02*
X17486849Y-11560174D01*
X17563039Y-11760174D02*
X17572563Y-11750650D01*
X17572563Y-11750650D02*
X17591611Y-11722079D01*
X17591611Y-11722079D02*
X17601134Y-11703031D01*
X17601134Y-11703031D02*
X17610658Y-11674460D01*
X17610658Y-11674460D02*
X17620182Y-11626841D01*
X17620182Y-11626841D02*
X17620182Y-11588746D01*
X17620182Y-11588746D02*
X17610658Y-11541127D01*
X17610658Y-11541127D02*
X17601134Y-11512555D01*
X17601134Y-11512555D02*
X17591611Y-11493508D01*
X17591611Y-11493508D02*
X17572563Y-11464936D01*
X17572563Y-11464936D02*
X17563039Y-11455412D01*
D12*
X12597500Y-11856500D02*
G75*
G02*
X12537500Y-11856500I-30000J0D01*
G01*
X12537500Y-11856500D02*
G75*
G02*
X12597500Y-11856500I30000J0D01*
G01*
D11*
X12896372Y-11747984D02*
X12915420Y-11747984D01*
X12915420Y-11747984D02*
X12934467Y-11757508D01*
X12934467Y-11757508D02*
X12943991Y-11767031D01*
X12943991Y-11767031D02*
X12953515Y-11786079D01*
X12953515Y-11786079D02*
X12963039Y-11824174D01*
X12963039Y-11824174D02*
X12963039Y-11871793D01*
X12963039Y-11871793D02*
X12953515Y-11909888D01*
X12953515Y-11909888D02*
X12943991Y-11928936D01*
X12943991Y-11928936D02*
X12934467Y-11938460D01*
X12934467Y-11938460D02*
X12915420Y-11947984D01*
X12915420Y-11947984D02*
X12896372Y-11947984D01*
X12896372Y-11947984D02*
X12877324Y-11938460D01*
X12877324Y-11938460D02*
X12867801Y-11928936D01*
X12867801Y-11928936D02*
X12858277Y-11909888D01*
X12858277Y-11909888D02*
X12848753Y-11871793D01*
X12848753Y-11871793D02*
X12848753Y-11824174D01*
X12848753Y-11824174D02*
X12858277Y-11786079D01*
X12858277Y-11786079D02*
X12867801Y-11767031D01*
X12867801Y-11767031D02*
X12877324Y-11757508D01*
X12877324Y-11757508D02*
X12896372Y-11747984D01*
X13048753Y-11928936D02*
X13058277Y-11938460D01*
X13058277Y-11938460D02*
X13048753Y-11947984D01*
X13048753Y-11947984D02*
X13039229Y-11938460D01*
X13039229Y-11938460D02*
X13048753Y-11928936D01*
X13048753Y-11928936D02*
X13048753Y-11947984D01*
X13229705Y-11747984D02*
X13191610Y-11747984D01*
X13191610Y-11747984D02*
X13172562Y-11757508D01*
X13172562Y-11757508D02*
X13163039Y-11767031D01*
X13163039Y-11767031D02*
X13143991Y-11795603D01*
X13143991Y-11795603D02*
X13134467Y-11833698D01*
X13134467Y-11833698D02*
X13134467Y-11909888D01*
X13134467Y-11909888D02*
X13143991Y-11928936D01*
X13143991Y-11928936D02*
X13153515Y-11938460D01*
X13153515Y-11938460D02*
X13172562Y-11947984D01*
X13172562Y-11947984D02*
X13210658Y-11947984D01*
X13210658Y-11947984D02*
X13229705Y-11938460D01*
X13229705Y-11938460D02*
X13239229Y-11928936D01*
X13239229Y-11928936D02*
X13248753Y-11909888D01*
X13248753Y-11909888D02*
X13248753Y-11862269D01*
X13248753Y-11862269D02*
X13239229Y-11843222D01*
X13239229Y-11843222D02*
X13229705Y-11833698D01*
X13229705Y-11833698D02*
X13210658Y-11824174D01*
X13210658Y-11824174D02*
X13172562Y-11824174D01*
X13172562Y-11824174D02*
X13153515Y-11833698D01*
X13153515Y-11833698D02*
X13143991Y-11843222D01*
X13143991Y-11843222D02*
X13134467Y-11862269D01*
X13372562Y-11747984D02*
X13391610Y-11747984D01*
X13391610Y-11747984D02*
X13410658Y-11757508D01*
X13410658Y-11757508D02*
X13420182Y-11767031D01*
X13420182Y-11767031D02*
X13429705Y-11786079D01*
X13429705Y-11786079D02*
X13439229Y-11824174D01*
X13439229Y-11824174D02*
X13439229Y-11871793D01*
X13439229Y-11871793D02*
X13429705Y-11909888D01*
X13429705Y-11909888D02*
X13420182Y-11928936D01*
X13420182Y-11928936D02*
X13410658Y-11938460D01*
X13410658Y-11938460D02*
X13391610Y-11947984D01*
X13391610Y-11947984D02*
X13372562Y-11947984D01*
X13372562Y-11947984D02*
X13353515Y-11938460D01*
X13353515Y-11938460D02*
X13343991Y-11928936D01*
X13343991Y-11928936D02*
X13334467Y-11909888D01*
X13334467Y-11909888D02*
X13324943Y-11871793D01*
X13324943Y-11871793D02*
X13324943Y-11824174D01*
X13324943Y-11824174D02*
X13334467Y-11786079D01*
X13334467Y-11786079D02*
X13343991Y-11767031D01*
X13343991Y-11767031D02*
X13353515Y-11757508D01*
X13353515Y-11757508D02*
X13372562Y-11747984D01*
X13563039Y-11747984D02*
X13582086Y-11747984D01*
X13582086Y-11747984D02*
X13601134Y-11757508D01*
X13601134Y-11757508D02*
X13610658Y-11767031D01*
X13610658Y-11767031D02*
X13620182Y-11786079D01*
X13620182Y-11786079D02*
X13629705Y-11824174D01*
X13629705Y-11824174D02*
X13629705Y-11871793D01*
X13629705Y-11871793D02*
X13620182Y-11909888D01*
X13620182Y-11909888D02*
X13610658Y-11928936D01*
X13610658Y-11928936D02*
X13601134Y-11938460D01*
X13601134Y-11938460D02*
X13582086Y-11947984D01*
X13582086Y-11947984D02*
X13563039Y-11947984D01*
X13563039Y-11947984D02*
X13543991Y-11938460D01*
X13543991Y-11938460D02*
X13534467Y-11928936D01*
X13534467Y-11928936D02*
X13524943Y-11909888D01*
X13524943Y-11909888D02*
X13515420Y-11871793D01*
X13515420Y-11871793D02*
X13515420Y-11824174D01*
X13515420Y-11824174D02*
X13524943Y-11786079D01*
X13524943Y-11786079D02*
X13534467Y-11767031D01*
X13534467Y-11767031D02*
X13543991Y-11757508D01*
X13543991Y-11757508D02*
X13563039Y-11747984D01*
X13715420Y-11947984D02*
X13715420Y-11814650D01*
X13715420Y-11833698D02*
X13724943Y-11824174D01*
X13724943Y-11824174D02*
X13743991Y-11814650D01*
X13743991Y-11814650D02*
X13772563Y-11814650D01*
X13772563Y-11814650D02*
X13791610Y-11824174D01*
X13791610Y-11824174D02*
X13801134Y-11843222D01*
X13801134Y-11843222D02*
X13801134Y-11947984D01*
X13801134Y-11843222D02*
X13810658Y-11824174D01*
X13810658Y-11824174D02*
X13829705Y-11814650D01*
X13829705Y-11814650D02*
X13858277Y-11814650D01*
X13858277Y-11814650D02*
X13877324Y-11824174D01*
X13877324Y-11824174D02*
X13886848Y-11843222D01*
X13886848Y-11843222D02*
X13886848Y-11947984D01*
X13982086Y-11947984D02*
X13982086Y-11814650D01*
X13982086Y-11833698D02*
X13991610Y-11824174D01*
X13991610Y-11824174D02*
X14010658Y-11814650D01*
X14010658Y-11814650D02*
X14039229Y-11814650D01*
X14039229Y-11814650D02*
X14058277Y-11824174D01*
X14058277Y-11824174D02*
X14067801Y-11843222D01*
X14067801Y-11843222D02*
X14067801Y-11947984D01*
X14067801Y-11843222D02*
X14077324Y-11824174D01*
X14077324Y-11824174D02*
X14096372Y-11814650D01*
X14096372Y-11814650D02*
X14124943Y-11814650D01*
X14124943Y-11814650D02*
X14143991Y-11824174D01*
X14143991Y-11824174D02*
X14153515Y-11843222D01*
X14153515Y-11843222D02*
X14153515Y-11947984D01*
X14543991Y-11738460D02*
X14372563Y-11995603D01*
X14801134Y-11747984D02*
X14820182Y-11747984D01*
X14820182Y-11747984D02*
X14839229Y-11757508D01*
X14839229Y-11757508D02*
X14848753Y-11767031D01*
X14848753Y-11767031D02*
X14858277Y-11786079D01*
X14858277Y-11786079D02*
X14867801Y-11824174D01*
X14867801Y-11824174D02*
X14867801Y-11871793D01*
X14867801Y-11871793D02*
X14858277Y-11909888D01*
X14858277Y-11909888D02*
X14848753Y-11928936D01*
X14848753Y-11928936D02*
X14839229Y-11938460D01*
X14839229Y-11938460D02*
X14820182Y-11947984D01*
X14820182Y-11947984D02*
X14801134Y-11947984D01*
X14801134Y-11947984D02*
X14782086Y-11938460D01*
X14782086Y-11938460D02*
X14772563Y-11928936D01*
X14772563Y-11928936D02*
X14763039Y-11909888D01*
X14763039Y-11909888D02*
X14753515Y-11871793D01*
X14753515Y-11871793D02*
X14753515Y-11824174D01*
X14753515Y-11824174D02*
X14763039Y-11786079D01*
X14763039Y-11786079D02*
X14772563Y-11767031D01*
X14772563Y-11767031D02*
X14782086Y-11757508D01*
X14782086Y-11757508D02*
X14801134Y-11747984D01*
X14953515Y-11928936D02*
X14963039Y-11938460D01*
X14963039Y-11938460D02*
X14953515Y-11947984D01*
X14953515Y-11947984D02*
X14943991Y-11938460D01*
X14943991Y-11938460D02*
X14953515Y-11928936D01*
X14953515Y-11928936D02*
X14953515Y-11947984D01*
X15086848Y-11747984D02*
X15105896Y-11747984D01*
X15105896Y-11747984D02*
X15124944Y-11757508D01*
X15124944Y-11757508D02*
X15134467Y-11767031D01*
X15134467Y-11767031D02*
X15143991Y-11786079D01*
X15143991Y-11786079D02*
X15153515Y-11824174D01*
X15153515Y-11824174D02*
X15153515Y-11871793D01*
X15153515Y-11871793D02*
X15143991Y-11909888D01*
X15143991Y-11909888D02*
X15134467Y-11928936D01*
X15134467Y-11928936D02*
X15124944Y-11938460D01*
X15124944Y-11938460D02*
X15105896Y-11947984D01*
X15105896Y-11947984D02*
X15086848Y-11947984D01*
X15086848Y-11947984D02*
X15067801Y-11938460D01*
X15067801Y-11938460D02*
X15058277Y-11928936D01*
X15058277Y-11928936D02*
X15048753Y-11909888D01*
X15048753Y-11909888D02*
X15039229Y-11871793D01*
X15039229Y-11871793D02*
X15039229Y-11824174D01*
X15039229Y-11824174D02*
X15048753Y-11786079D01*
X15048753Y-11786079D02*
X15058277Y-11767031D01*
X15058277Y-11767031D02*
X15067801Y-11757508D01*
X15067801Y-11757508D02*
X15086848Y-11747984D01*
X15229706Y-11767031D02*
X15239229Y-11757508D01*
X15239229Y-11757508D02*
X15258277Y-11747984D01*
X15258277Y-11747984D02*
X15305896Y-11747984D01*
X15305896Y-11747984D02*
X15324944Y-11757508D01*
X15324944Y-11757508D02*
X15334467Y-11767031D01*
X15334467Y-11767031D02*
X15343991Y-11786079D01*
X15343991Y-11786079D02*
X15343991Y-11805127D01*
X15343991Y-11805127D02*
X15334467Y-11833698D01*
X15334467Y-11833698D02*
X15220182Y-11947984D01*
X15220182Y-11947984D02*
X15343991Y-11947984D01*
X15410658Y-11747984D02*
X15534467Y-11747984D01*
X15534467Y-11747984D02*
X15467801Y-11824174D01*
X15467801Y-11824174D02*
X15496372Y-11824174D01*
X15496372Y-11824174D02*
X15515420Y-11833698D01*
X15515420Y-11833698D02*
X15524944Y-11843222D01*
X15524944Y-11843222D02*
X15534467Y-11862269D01*
X15534467Y-11862269D02*
X15534467Y-11909888D01*
X15534467Y-11909888D02*
X15524944Y-11928936D01*
X15524944Y-11928936D02*
X15515420Y-11938460D01*
X15515420Y-11938460D02*
X15496372Y-11947984D01*
X15496372Y-11947984D02*
X15439229Y-11947984D01*
X15439229Y-11947984D02*
X15420182Y-11938460D01*
X15420182Y-11938460D02*
X15410658Y-11928936D01*
X15705896Y-11747984D02*
X15667801Y-11747984D01*
X15667801Y-11747984D02*
X15648753Y-11757508D01*
X15648753Y-11757508D02*
X15639229Y-11767031D01*
X15639229Y-11767031D02*
X15620182Y-11795603D01*
X15620182Y-11795603D02*
X15610658Y-11833698D01*
X15610658Y-11833698D02*
X15610658Y-11909888D01*
X15610658Y-11909888D02*
X15620182Y-11928936D01*
X15620182Y-11928936D02*
X15629706Y-11938460D01*
X15629706Y-11938460D02*
X15648753Y-11947984D01*
X15648753Y-11947984D02*
X15686848Y-11947984D01*
X15686848Y-11947984D02*
X15705896Y-11938460D01*
X15705896Y-11938460D02*
X15715420Y-11928936D01*
X15715420Y-11928936D02*
X15724944Y-11909888D01*
X15724944Y-11909888D02*
X15724944Y-11862269D01*
X15724944Y-11862269D02*
X15715420Y-11843222D01*
X15715420Y-11843222D02*
X15705896Y-11833698D01*
X15705896Y-11833698D02*
X15686848Y-11824174D01*
X15686848Y-11824174D02*
X15648753Y-11824174D01*
X15648753Y-11824174D02*
X15629706Y-11833698D01*
X15629706Y-11833698D02*
X15620182Y-11843222D01*
X15620182Y-11843222D02*
X15610658Y-11862269D01*
X15801134Y-11747984D02*
X15801134Y-11786079D01*
X15877325Y-11747984D02*
X15877325Y-11786079D01*
X16172563Y-12024174D02*
X16163039Y-12014650D01*
X16163039Y-12014650D02*
X16143991Y-11986079D01*
X16143991Y-11986079D02*
X16134468Y-11967031D01*
X16134468Y-11967031D02*
X16124944Y-11938460D01*
X16124944Y-11938460D02*
X16115420Y-11890841D01*
X16115420Y-11890841D02*
X16115420Y-11852746D01*
X16115420Y-11852746D02*
X16124944Y-11805127D01*
X16124944Y-11805127D02*
X16134468Y-11776555D01*
X16134468Y-11776555D02*
X16143991Y-11757508D01*
X16143991Y-11757508D02*
X16163039Y-11728936D01*
X16163039Y-11728936D02*
X16172563Y-11719412D01*
X16277325Y-11833698D02*
X16258277Y-11824174D01*
X16258277Y-11824174D02*
X16248753Y-11814650D01*
X16248753Y-11814650D02*
X16239229Y-11795603D01*
X16239229Y-11795603D02*
X16239229Y-11786079D01*
X16239229Y-11786079D02*
X16248753Y-11767031D01*
X16248753Y-11767031D02*
X16258277Y-11757508D01*
X16258277Y-11757508D02*
X16277325Y-11747984D01*
X16277325Y-11747984D02*
X16315420Y-11747984D01*
X16315420Y-11747984D02*
X16334468Y-11757508D01*
X16334468Y-11757508D02*
X16343991Y-11767031D01*
X16343991Y-11767031D02*
X16353515Y-11786079D01*
X16353515Y-11786079D02*
X16353515Y-11795603D01*
X16353515Y-11795603D02*
X16343991Y-11814650D01*
X16343991Y-11814650D02*
X16334468Y-11824174D01*
X16334468Y-11824174D02*
X16315420Y-11833698D01*
X16315420Y-11833698D02*
X16277325Y-11833698D01*
X16277325Y-11833698D02*
X16258277Y-11843222D01*
X16258277Y-11843222D02*
X16248753Y-11852746D01*
X16248753Y-11852746D02*
X16239229Y-11871793D01*
X16239229Y-11871793D02*
X16239229Y-11909888D01*
X16239229Y-11909888D02*
X16248753Y-11928936D01*
X16248753Y-11928936D02*
X16258277Y-11938460D01*
X16258277Y-11938460D02*
X16277325Y-11947984D01*
X16277325Y-11947984D02*
X16315420Y-11947984D01*
X16315420Y-11947984D02*
X16334468Y-11938460D01*
X16334468Y-11938460D02*
X16343991Y-11928936D01*
X16343991Y-11928936D02*
X16353515Y-11909888D01*
X16353515Y-11909888D02*
X16353515Y-11871793D01*
X16353515Y-11871793D02*
X16343991Y-11852746D01*
X16343991Y-11852746D02*
X16334468Y-11843222D01*
X16334468Y-11843222D02*
X16315420Y-11833698D01*
X16591610Y-11947984D02*
X16591610Y-11747984D01*
X16677325Y-11947984D02*
X16677325Y-11843222D01*
X16677325Y-11843222D02*
X16667801Y-11824174D01*
X16667801Y-11824174D02*
X16648753Y-11814650D01*
X16648753Y-11814650D02*
X16620182Y-11814650D01*
X16620182Y-11814650D02*
X16601134Y-11824174D01*
X16601134Y-11824174D02*
X16591610Y-11833698D01*
X16801134Y-11947984D02*
X16782087Y-11938460D01*
X16782087Y-11938460D02*
X16772563Y-11928936D01*
X16772563Y-11928936D02*
X16763039Y-11909888D01*
X16763039Y-11909888D02*
X16763039Y-11852746D01*
X16763039Y-11852746D02*
X16772563Y-11833698D01*
X16772563Y-11833698D02*
X16782087Y-11824174D01*
X16782087Y-11824174D02*
X16801134Y-11814650D01*
X16801134Y-11814650D02*
X16829706Y-11814650D01*
X16829706Y-11814650D02*
X16848753Y-11824174D01*
X16848753Y-11824174D02*
X16858277Y-11833698D01*
X16858277Y-11833698D02*
X16867801Y-11852746D01*
X16867801Y-11852746D02*
X16867801Y-11909888D01*
X16867801Y-11909888D02*
X16858277Y-11928936D01*
X16858277Y-11928936D02*
X16848753Y-11938460D01*
X16848753Y-11938460D02*
X16829706Y-11947984D01*
X16829706Y-11947984D02*
X16801134Y-11947984D01*
X16982087Y-11947984D02*
X16963039Y-11938460D01*
X16963039Y-11938460D02*
X16953515Y-11919412D01*
X16953515Y-11919412D02*
X16953515Y-11747984D01*
X17134468Y-11938460D02*
X17115420Y-11947984D01*
X17115420Y-11947984D02*
X17077325Y-11947984D01*
X17077325Y-11947984D02*
X17058277Y-11938460D01*
X17058277Y-11938460D02*
X17048753Y-11919412D01*
X17048753Y-11919412D02*
X17048753Y-11843222D01*
X17048753Y-11843222D02*
X17058277Y-11824174D01*
X17058277Y-11824174D02*
X17077325Y-11814650D01*
X17077325Y-11814650D02*
X17115420Y-11814650D01*
X17115420Y-11814650D02*
X17134468Y-11824174D01*
X17134468Y-11824174D02*
X17143992Y-11843222D01*
X17143992Y-11843222D02*
X17143992Y-11862269D01*
X17143992Y-11862269D02*
X17048753Y-11881317D01*
X17220182Y-11938460D02*
X17239230Y-11947984D01*
X17239230Y-11947984D02*
X17277325Y-11947984D01*
X17277325Y-11947984D02*
X17296373Y-11938460D01*
X17296373Y-11938460D02*
X17305896Y-11919412D01*
X17305896Y-11919412D02*
X17305896Y-11909888D01*
X17305896Y-11909888D02*
X17296373Y-11890841D01*
X17296373Y-11890841D02*
X17277325Y-11881317D01*
X17277325Y-11881317D02*
X17248753Y-11881317D01*
X17248753Y-11881317D02*
X17229706Y-11871793D01*
X17229706Y-11871793D02*
X17220182Y-11852746D01*
X17220182Y-11852746D02*
X17220182Y-11843222D01*
X17220182Y-11843222D02*
X17229706Y-11824174D01*
X17229706Y-11824174D02*
X17248753Y-11814650D01*
X17248753Y-11814650D02*
X17277325Y-11814650D01*
X17277325Y-11814650D02*
X17296373Y-11824174D01*
X17372563Y-12024174D02*
X17382087Y-12014650D01*
X17382087Y-12014650D02*
X17401134Y-11986079D01*
X17401134Y-11986079D02*
X17410658Y-11967031D01*
X17410658Y-11967031D02*
X17420182Y-11938460D01*
X17420182Y-11938460D02*
X17429706Y-11890841D01*
X17429706Y-11890841D02*
X17429706Y-11852746D01*
X17429706Y-11852746D02*
X17420182Y-11805127D01*
X17420182Y-11805127D02*
X17410658Y-11776555D01*
X17410658Y-11776555D02*
X17401134Y-11757508D01*
X17401134Y-11757508D02*
X17382087Y-11728936D01*
X17382087Y-11728936D02*
X17372563Y-11719412D01*
D12*
X12557500Y-12080500D02*
X12557500Y-12160500D01*
X12517500Y-12120500D02*
X12597500Y-12120500D01*
D11*
X12896372Y-12011984D02*
X12915420Y-12011984D01*
X12915420Y-12011984D02*
X12934467Y-12021508D01*
X12934467Y-12021508D02*
X12943991Y-12031031D01*
X12943991Y-12031031D02*
X12953515Y-12050079D01*
X12953515Y-12050079D02*
X12963039Y-12088174D01*
X12963039Y-12088174D02*
X12963039Y-12135793D01*
X12963039Y-12135793D02*
X12953515Y-12173888D01*
X12953515Y-12173888D02*
X12943991Y-12192936D01*
X12943991Y-12192936D02*
X12934467Y-12202460D01*
X12934467Y-12202460D02*
X12915420Y-12211984D01*
X12915420Y-12211984D02*
X12896372Y-12211984D01*
X12896372Y-12211984D02*
X12877324Y-12202460D01*
X12877324Y-12202460D02*
X12867801Y-12192936D01*
X12867801Y-12192936D02*
X12858277Y-12173888D01*
X12858277Y-12173888D02*
X12848753Y-12135793D01*
X12848753Y-12135793D02*
X12848753Y-12088174D01*
X12848753Y-12088174D02*
X12858277Y-12050079D01*
X12858277Y-12050079D02*
X12867801Y-12031031D01*
X12867801Y-12031031D02*
X12877324Y-12021508D01*
X12877324Y-12021508D02*
X12896372Y-12011984D01*
X13048753Y-12192936D02*
X13058277Y-12202460D01*
X13058277Y-12202460D02*
X13048753Y-12211984D01*
X13048753Y-12211984D02*
X13039229Y-12202460D01*
X13039229Y-12202460D02*
X13048753Y-12192936D01*
X13048753Y-12192936D02*
X13048753Y-12211984D01*
X13172562Y-12097698D02*
X13153515Y-12088174D01*
X13153515Y-12088174D02*
X13143991Y-12078650D01*
X13143991Y-12078650D02*
X13134467Y-12059603D01*
X13134467Y-12059603D02*
X13134467Y-12050079D01*
X13134467Y-12050079D02*
X13143991Y-12031031D01*
X13143991Y-12031031D02*
X13153515Y-12021508D01*
X13153515Y-12021508D02*
X13172562Y-12011984D01*
X13172562Y-12011984D02*
X13210658Y-12011984D01*
X13210658Y-12011984D02*
X13229705Y-12021508D01*
X13229705Y-12021508D02*
X13239229Y-12031031D01*
X13239229Y-12031031D02*
X13248753Y-12050079D01*
X13248753Y-12050079D02*
X13248753Y-12059603D01*
X13248753Y-12059603D02*
X13239229Y-12078650D01*
X13239229Y-12078650D02*
X13229705Y-12088174D01*
X13229705Y-12088174D02*
X13210658Y-12097698D01*
X13210658Y-12097698D02*
X13172562Y-12097698D01*
X13172562Y-12097698D02*
X13153515Y-12107222D01*
X13153515Y-12107222D02*
X13143991Y-12116746D01*
X13143991Y-12116746D02*
X13134467Y-12135793D01*
X13134467Y-12135793D02*
X13134467Y-12173888D01*
X13134467Y-12173888D02*
X13143991Y-12192936D01*
X13143991Y-12192936D02*
X13153515Y-12202460D01*
X13153515Y-12202460D02*
X13172562Y-12211984D01*
X13172562Y-12211984D02*
X13210658Y-12211984D01*
X13210658Y-12211984D02*
X13229705Y-12202460D01*
X13229705Y-12202460D02*
X13239229Y-12192936D01*
X13239229Y-12192936D02*
X13248753Y-12173888D01*
X13248753Y-12173888D02*
X13248753Y-12135793D01*
X13248753Y-12135793D02*
X13239229Y-12116746D01*
X13239229Y-12116746D02*
X13229705Y-12107222D01*
X13229705Y-12107222D02*
X13210658Y-12097698D01*
X13372562Y-12011984D02*
X13391610Y-12011984D01*
X13391610Y-12011984D02*
X13410658Y-12021508D01*
X13410658Y-12021508D02*
X13420182Y-12031031D01*
X13420182Y-12031031D02*
X13429705Y-12050079D01*
X13429705Y-12050079D02*
X13439229Y-12088174D01*
X13439229Y-12088174D02*
X13439229Y-12135793D01*
X13439229Y-12135793D02*
X13429705Y-12173888D01*
X13429705Y-12173888D02*
X13420182Y-12192936D01*
X13420182Y-12192936D02*
X13410658Y-12202460D01*
X13410658Y-12202460D02*
X13391610Y-12211984D01*
X13391610Y-12211984D02*
X13372562Y-12211984D01*
X13372562Y-12211984D02*
X13353515Y-12202460D01*
X13353515Y-12202460D02*
X13343991Y-12192936D01*
X13343991Y-12192936D02*
X13334467Y-12173888D01*
X13334467Y-12173888D02*
X13324943Y-12135793D01*
X13324943Y-12135793D02*
X13324943Y-12088174D01*
X13324943Y-12088174D02*
X13334467Y-12050079D01*
X13334467Y-12050079D02*
X13343991Y-12031031D01*
X13343991Y-12031031D02*
X13353515Y-12021508D01*
X13353515Y-12021508D02*
X13372562Y-12011984D01*
X13563039Y-12011984D02*
X13582086Y-12011984D01*
X13582086Y-12011984D02*
X13601134Y-12021508D01*
X13601134Y-12021508D02*
X13610658Y-12031031D01*
X13610658Y-12031031D02*
X13620182Y-12050079D01*
X13620182Y-12050079D02*
X13629705Y-12088174D01*
X13629705Y-12088174D02*
X13629705Y-12135793D01*
X13629705Y-12135793D02*
X13620182Y-12173888D01*
X13620182Y-12173888D02*
X13610658Y-12192936D01*
X13610658Y-12192936D02*
X13601134Y-12202460D01*
X13601134Y-12202460D02*
X13582086Y-12211984D01*
X13582086Y-12211984D02*
X13563039Y-12211984D01*
X13563039Y-12211984D02*
X13543991Y-12202460D01*
X13543991Y-12202460D02*
X13534467Y-12192936D01*
X13534467Y-12192936D02*
X13524943Y-12173888D01*
X13524943Y-12173888D02*
X13515420Y-12135793D01*
X13515420Y-12135793D02*
X13515420Y-12088174D01*
X13515420Y-12088174D02*
X13524943Y-12050079D01*
X13524943Y-12050079D02*
X13534467Y-12031031D01*
X13534467Y-12031031D02*
X13543991Y-12021508D01*
X13543991Y-12021508D02*
X13563039Y-12011984D01*
X13715420Y-12211984D02*
X13715420Y-12078650D01*
X13715420Y-12097698D02*
X13724943Y-12088174D01*
X13724943Y-12088174D02*
X13743991Y-12078650D01*
X13743991Y-12078650D02*
X13772563Y-12078650D01*
X13772563Y-12078650D02*
X13791610Y-12088174D01*
X13791610Y-12088174D02*
X13801134Y-12107222D01*
X13801134Y-12107222D02*
X13801134Y-12211984D01*
X13801134Y-12107222D02*
X13810658Y-12088174D01*
X13810658Y-12088174D02*
X13829705Y-12078650D01*
X13829705Y-12078650D02*
X13858277Y-12078650D01*
X13858277Y-12078650D02*
X13877324Y-12088174D01*
X13877324Y-12088174D02*
X13886848Y-12107222D01*
X13886848Y-12107222D02*
X13886848Y-12211984D01*
X13982086Y-12211984D02*
X13982086Y-12078650D01*
X13982086Y-12097698D02*
X13991610Y-12088174D01*
X13991610Y-12088174D02*
X14010658Y-12078650D01*
X14010658Y-12078650D02*
X14039229Y-12078650D01*
X14039229Y-12078650D02*
X14058277Y-12088174D01*
X14058277Y-12088174D02*
X14067801Y-12107222D01*
X14067801Y-12107222D02*
X14067801Y-12211984D01*
X14067801Y-12107222D02*
X14077324Y-12088174D01*
X14077324Y-12088174D02*
X14096372Y-12078650D01*
X14096372Y-12078650D02*
X14124943Y-12078650D01*
X14124943Y-12078650D02*
X14143991Y-12088174D01*
X14143991Y-12088174D02*
X14153515Y-12107222D01*
X14153515Y-12107222D02*
X14153515Y-12211984D01*
X14543991Y-12002460D02*
X14372563Y-12259603D01*
X14801134Y-12011984D02*
X14820182Y-12011984D01*
X14820182Y-12011984D02*
X14839229Y-12021508D01*
X14839229Y-12021508D02*
X14848753Y-12031031D01*
X14848753Y-12031031D02*
X14858277Y-12050079D01*
X14858277Y-12050079D02*
X14867801Y-12088174D01*
X14867801Y-12088174D02*
X14867801Y-12135793D01*
X14867801Y-12135793D02*
X14858277Y-12173888D01*
X14858277Y-12173888D02*
X14848753Y-12192936D01*
X14848753Y-12192936D02*
X14839229Y-12202460D01*
X14839229Y-12202460D02*
X14820182Y-12211984D01*
X14820182Y-12211984D02*
X14801134Y-12211984D01*
X14801134Y-12211984D02*
X14782086Y-12202460D01*
X14782086Y-12202460D02*
X14772563Y-12192936D01*
X14772563Y-12192936D02*
X14763039Y-12173888D01*
X14763039Y-12173888D02*
X14753515Y-12135793D01*
X14753515Y-12135793D02*
X14753515Y-12088174D01*
X14753515Y-12088174D02*
X14763039Y-12050079D01*
X14763039Y-12050079D02*
X14772563Y-12031031D01*
X14772563Y-12031031D02*
X14782086Y-12021508D01*
X14782086Y-12021508D02*
X14801134Y-12011984D01*
X14953515Y-12192936D02*
X14963039Y-12202460D01*
X14963039Y-12202460D02*
X14953515Y-12211984D01*
X14953515Y-12211984D02*
X14943991Y-12202460D01*
X14943991Y-12202460D02*
X14953515Y-12192936D01*
X14953515Y-12192936D02*
X14953515Y-12211984D01*
X15086848Y-12011984D02*
X15105896Y-12011984D01*
X15105896Y-12011984D02*
X15124944Y-12021508D01*
X15124944Y-12021508D02*
X15134467Y-12031031D01*
X15134467Y-12031031D02*
X15143991Y-12050079D01*
X15143991Y-12050079D02*
X15153515Y-12088174D01*
X15153515Y-12088174D02*
X15153515Y-12135793D01*
X15153515Y-12135793D02*
X15143991Y-12173888D01*
X15143991Y-12173888D02*
X15134467Y-12192936D01*
X15134467Y-12192936D02*
X15124944Y-12202460D01*
X15124944Y-12202460D02*
X15105896Y-12211984D01*
X15105896Y-12211984D02*
X15086848Y-12211984D01*
X15086848Y-12211984D02*
X15067801Y-12202460D01*
X15067801Y-12202460D02*
X15058277Y-12192936D01*
X15058277Y-12192936D02*
X15048753Y-12173888D01*
X15048753Y-12173888D02*
X15039229Y-12135793D01*
X15039229Y-12135793D02*
X15039229Y-12088174D01*
X15039229Y-12088174D02*
X15048753Y-12050079D01*
X15048753Y-12050079D02*
X15058277Y-12031031D01*
X15058277Y-12031031D02*
X15067801Y-12021508D01*
X15067801Y-12021508D02*
X15086848Y-12011984D01*
X15220182Y-12011984D02*
X15343991Y-12011984D01*
X15343991Y-12011984D02*
X15277325Y-12088174D01*
X15277325Y-12088174D02*
X15305896Y-12088174D01*
X15305896Y-12088174D02*
X15324944Y-12097698D01*
X15324944Y-12097698D02*
X15334467Y-12107222D01*
X15334467Y-12107222D02*
X15343991Y-12126269D01*
X15343991Y-12126269D02*
X15343991Y-12173888D01*
X15343991Y-12173888D02*
X15334467Y-12192936D01*
X15334467Y-12192936D02*
X15324944Y-12202460D01*
X15324944Y-12202460D02*
X15305896Y-12211984D01*
X15305896Y-12211984D02*
X15248753Y-12211984D01*
X15248753Y-12211984D02*
X15229706Y-12202460D01*
X15229706Y-12202460D02*
X15220182Y-12192936D01*
X15534467Y-12211984D02*
X15420182Y-12211984D01*
X15477325Y-12211984D02*
X15477325Y-12011984D01*
X15477325Y-12011984D02*
X15458277Y-12040555D01*
X15458277Y-12040555D02*
X15439229Y-12059603D01*
X15439229Y-12059603D02*
X15420182Y-12069127D01*
X15715420Y-12011984D02*
X15620182Y-12011984D01*
X15620182Y-12011984D02*
X15610658Y-12107222D01*
X15610658Y-12107222D02*
X15620182Y-12097698D01*
X15620182Y-12097698D02*
X15639229Y-12088174D01*
X15639229Y-12088174D02*
X15686848Y-12088174D01*
X15686848Y-12088174D02*
X15705896Y-12097698D01*
X15705896Y-12097698D02*
X15715420Y-12107222D01*
X15715420Y-12107222D02*
X15724944Y-12126269D01*
X15724944Y-12126269D02*
X15724944Y-12173888D01*
X15724944Y-12173888D02*
X15715420Y-12192936D01*
X15715420Y-12192936D02*
X15705896Y-12202460D01*
X15705896Y-12202460D02*
X15686848Y-12211984D01*
X15686848Y-12211984D02*
X15639229Y-12211984D01*
X15639229Y-12211984D02*
X15620182Y-12202460D01*
X15620182Y-12202460D02*
X15610658Y-12192936D01*
X15801134Y-12011984D02*
X15801134Y-12050079D01*
X15877325Y-12011984D02*
X15877325Y-12050079D01*
X16172563Y-12288174D02*
X16163039Y-12278650D01*
X16163039Y-12278650D02*
X16143991Y-12250079D01*
X16143991Y-12250079D02*
X16134468Y-12231031D01*
X16134468Y-12231031D02*
X16124944Y-12202460D01*
X16124944Y-12202460D02*
X16115420Y-12154841D01*
X16115420Y-12154841D02*
X16115420Y-12116746D01*
X16115420Y-12116746D02*
X16124944Y-12069127D01*
X16124944Y-12069127D02*
X16134468Y-12040555D01*
X16134468Y-12040555D02*
X16143991Y-12021508D01*
X16143991Y-12021508D02*
X16163039Y-11992936D01*
X16163039Y-11992936D02*
X16172563Y-11983412D01*
X16229706Y-12011984D02*
X16363039Y-12011984D01*
X16363039Y-12011984D02*
X16277325Y-12211984D01*
X16467801Y-12097698D02*
X16448753Y-12088174D01*
X16448753Y-12088174D02*
X16439229Y-12078650D01*
X16439229Y-12078650D02*
X16429706Y-12059603D01*
X16429706Y-12059603D02*
X16429706Y-12050079D01*
X16429706Y-12050079D02*
X16439229Y-12031031D01*
X16439229Y-12031031D02*
X16448753Y-12021508D01*
X16448753Y-12021508D02*
X16467801Y-12011984D01*
X16467801Y-12011984D02*
X16505896Y-12011984D01*
X16505896Y-12011984D02*
X16524944Y-12021508D01*
X16524944Y-12021508D02*
X16534468Y-12031031D01*
X16534468Y-12031031D02*
X16543991Y-12050079D01*
X16543991Y-12050079D02*
X16543991Y-12059603D01*
X16543991Y-12059603D02*
X16534468Y-12078650D01*
X16534468Y-12078650D02*
X16524944Y-12088174D01*
X16524944Y-12088174D02*
X16505896Y-12097698D01*
X16505896Y-12097698D02*
X16467801Y-12097698D01*
X16467801Y-12097698D02*
X16448753Y-12107222D01*
X16448753Y-12107222D02*
X16439229Y-12116746D01*
X16439229Y-12116746D02*
X16429706Y-12135793D01*
X16429706Y-12135793D02*
X16429706Y-12173888D01*
X16429706Y-12173888D02*
X16439229Y-12192936D01*
X16439229Y-12192936D02*
X16448753Y-12202460D01*
X16448753Y-12202460D02*
X16467801Y-12211984D01*
X16467801Y-12211984D02*
X16505896Y-12211984D01*
X16505896Y-12211984D02*
X16524944Y-12202460D01*
X16524944Y-12202460D02*
X16534468Y-12192936D01*
X16534468Y-12192936D02*
X16543991Y-12173888D01*
X16543991Y-12173888D02*
X16543991Y-12135793D01*
X16543991Y-12135793D02*
X16534468Y-12116746D01*
X16534468Y-12116746D02*
X16524944Y-12107222D01*
X16524944Y-12107222D02*
X16505896Y-12097698D01*
X16782087Y-12211984D02*
X16782087Y-12011984D01*
X16867801Y-12211984D02*
X16867801Y-12107222D01*
X16867801Y-12107222D02*
X16858277Y-12088174D01*
X16858277Y-12088174D02*
X16839230Y-12078650D01*
X16839230Y-12078650D02*
X16810658Y-12078650D01*
X16810658Y-12078650D02*
X16791611Y-12088174D01*
X16791611Y-12088174D02*
X16782087Y-12097698D01*
X16991611Y-12211984D02*
X16972563Y-12202460D01*
X16972563Y-12202460D02*
X16963039Y-12192936D01*
X16963039Y-12192936D02*
X16953515Y-12173888D01*
X16953515Y-12173888D02*
X16953515Y-12116746D01*
X16953515Y-12116746D02*
X16963039Y-12097698D01*
X16963039Y-12097698D02*
X16972563Y-12088174D01*
X16972563Y-12088174D02*
X16991611Y-12078650D01*
X16991611Y-12078650D02*
X17020182Y-12078650D01*
X17020182Y-12078650D02*
X17039230Y-12088174D01*
X17039230Y-12088174D02*
X17048753Y-12097698D01*
X17048753Y-12097698D02*
X17058277Y-12116746D01*
X17058277Y-12116746D02*
X17058277Y-12173888D01*
X17058277Y-12173888D02*
X17048753Y-12192936D01*
X17048753Y-12192936D02*
X17039230Y-12202460D01*
X17039230Y-12202460D02*
X17020182Y-12211984D01*
X17020182Y-12211984D02*
X16991611Y-12211984D01*
X17172563Y-12211984D02*
X17153515Y-12202460D01*
X17153515Y-12202460D02*
X17143992Y-12183412D01*
X17143992Y-12183412D02*
X17143992Y-12011984D01*
X17324944Y-12202460D02*
X17305896Y-12211984D01*
X17305896Y-12211984D02*
X17267801Y-12211984D01*
X17267801Y-12211984D02*
X17248753Y-12202460D01*
X17248753Y-12202460D02*
X17239230Y-12183412D01*
X17239230Y-12183412D02*
X17239230Y-12107222D01*
X17239230Y-12107222D02*
X17248753Y-12088174D01*
X17248753Y-12088174D02*
X17267801Y-12078650D01*
X17267801Y-12078650D02*
X17305896Y-12078650D01*
X17305896Y-12078650D02*
X17324944Y-12088174D01*
X17324944Y-12088174D02*
X17334468Y-12107222D01*
X17334468Y-12107222D02*
X17334468Y-12126269D01*
X17334468Y-12126269D02*
X17239230Y-12145317D01*
X17410658Y-12202460D02*
X17429706Y-12211984D01*
X17429706Y-12211984D02*
X17467801Y-12211984D01*
X17467801Y-12211984D02*
X17486849Y-12202460D01*
X17486849Y-12202460D02*
X17496373Y-12183412D01*
X17496373Y-12183412D02*
X17496373Y-12173888D01*
X17496373Y-12173888D02*
X17486849Y-12154841D01*
X17486849Y-12154841D02*
X17467801Y-12145317D01*
X17467801Y-12145317D02*
X17439230Y-12145317D01*
X17439230Y-12145317D02*
X17420182Y-12135793D01*
X17420182Y-12135793D02*
X17410658Y-12116746D01*
X17410658Y-12116746D02*
X17410658Y-12107222D01*
X17410658Y-12107222D02*
X17420182Y-12088174D01*
X17420182Y-12088174D02*
X17439230Y-12078650D01*
X17439230Y-12078650D02*
X17467801Y-12078650D01*
X17467801Y-12078650D02*
X17486849Y-12088174D01*
X17563039Y-12288174D02*
X17572563Y-12278650D01*
X17572563Y-12278650D02*
X17591611Y-12250079D01*
X17591611Y-12250079D02*
X17601134Y-12231031D01*
X17601134Y-12231031D02*
X17610658Y-12202460D01*
X17610658Y-12202460D02*
X17620182Y-12154841D01*
X17620182Y-12154841D02*
X17620182Y-12116746D01*
X17620182Y-12116746D02*
X17610658Y-12069127D01*
X17610658Y-12069127D02*
X17601134Y-12040555D01*
X17601134Y-12040555D02*
X17591611Y-12021508D01*
X17591611Y-12021508D02*
X17572563Y-11992936D01*
X17572563Y-11992936D02*
X17563039Y-11983412D01*
D12*
X12584320Y-12416320D02*
X12584320Y-12352680D01*
X12520680Y-12352680D01*
X12520680Y-12416320D01*
X12584320Y-12416320D01*
D11*
X12896372Y-12275984D02*
X12915420Y-12275984D01*
X12915420Y-12275984D02*
X12934467Y-12285508D01*
X12934467Y-12285508D02*
X12943991Y-12295031D01*
X12943991Y-12295031D02*
X12953515Y-12314079D01*
X12953515Y-12314079D02*
X12963039Y-12352174D01*
X12963039Y-12352174D02*
X12963039Y-12399793D01*
X12963039Y-12399793D02*
X12953515Y-12437888D01*
X12953515Y-12437888D02*
X12943991Y-12456936D01*
X12943991Y-12456936D02*
X12934467Y-12466460D01*
X12934467Y-12466460D02*
X12915420Y-12475984D01*
X12915420Y-12475984D02*
X12896372Y-12475984D01*
X12896372Y-12475984D02*
X12877324Y-12466460D01*
X12877324Y-12466460D02*
X12867801Y-12456936D01*
X12867801Y-12456936D02*
X12858277Y-12437888D01*
X12858277Y-12437888D02*
X12848753Y-12399793D01*
X12848753Y-12399793D02*
X12848753Y-12352174D01*
X12848753Y-12352174D02*
X12858277Y-12314079D01*
X12858277Y-12314079D02*
X12867801Y-12295031D01*
X12867801Y-12295031D02*
X12877324Y-12285508D01*
X12877324Y-12285508D02*
X12896372Y-12275984D01*
X13048753Y-12456936D02*
X13058277Y-12466460D01*
X13058277Y-12466460D02*
X13048753Y-12475984D01*
X13048753Y-12475984D02*
X13039229Y-12466460D01*
X13039229Y-12466460D02*
X13048753Y-12456936D01*
X13048753Y-12456936D02*
X13048753Y-12475984D01*
X13153515Y-12475984D02*
X13191610Y-12475984D01*
X13191610Y-12475984D02*
X13210658Y-12466460D01*
X13210658Y-12466460D02*
X13220182Y-12456936D01*
X13220182Y-12456936D02*
X13239229Y-12428365D01*
X13239229Y-12428365D02*
X13248753Y-12390269D01*
X13248753Y-12390269D02*
X13248753Y-12314079D01*
X13248753Y-12314079D02*
X13239229Y-12295031D01*
X13239229Y-12295031D02*
X13229705Y-12285508D01*
X13229705Y-12285508D02*
X13210658Y-12275984D01*
X13210658Y-12275984D02*
X13172562Y-12275984D01*
X13172562Y-12275984D02*
X13153515Y-12285508D01*
X13153515Y-12285508D02*
X13143991Y-12295031D01*
X13143991Y-12295031D02*
X13134467Y-12314079D01*
X13134467Y-12314079D02*
X13134467Y-12361698D01*
X13134467Y-12361698D02*
X13143991Y-12380746D01*
X13143991Y-12380746D02*
X13153515Y-12390269D01*
X13153515Y-12390269D02*
X13172562Y-12399793D01*
X13172562Y-12399793D02*
X13210658Y-12399793D01*
X13210658Y-12399793D02*
X13229705Y-12390269D01*
X13229705Y-12390269D02*
X13239229Y-12380746D01*
X13239229Y-12380746D02*
X13248753Y-12361698D01*
X13372562Y-12275984D02*
X13391610Y-12275984D01*
X13391610Y-12275984D02*
X13410658Y-12285508D01*
X13410658Y-12285508D02*
X13420182Y-12295031D01*
X13420182Y-12295031D02*
X13429705Y-12314079D01*
X13429705Y-12314079D02*
X13439229Y-12352174D01*
X13439229Y-12352174D02*
X13439229Y-12399793D01*
X13439229Y-12399793D02*
X13429705Y-12437888D01*
X13429705Y-12437888D02*
X13420182Y-12456936D01*
X13420182Y-12456936D02*
X13410658Y-12466460D01*
X13410658Y-12466460D02*
X13391610Y-12475984D01*
X13391610Y-12475984D02*
X13372562Y-12475984D01*
X13372562Y-12475984D02*
X13353515Y-12466460D01*
X13353515Y-12466460D02*
X13343991Y-12456936D01*
X13343991Y-12456936D02*
X13334467Y-12437888D01*
X13334467Y-12437888D02*
X13324943Y-12399793D01*
X13324943Y-12399793D02*
X13324943Y-12352174D01*
X13324943Y-12352174D02*
X13334467Y-12314079D01*
X13334467Y-12314079D02*
X13343991Y-12295031D01*
X13343991Y-12295031D02*
X13353515Y-12285508D01*
X13353515Y-12285508D02*
X13372562Y-12275984D01*
X13563039Y-12275984D02*
X13582086Y-12275984D01*
X13582086Y-12275984D02*
X13601134Y-12285508D01*
X13601134Y-12285508D02*
X13610658Y-12295031D01*
X13610658Y-12295031D02*
X13620182Y-12314079D01*
X13620182Y-12314079D02*
X13629705Y-12352174D01*
X13629705Y-12352174D02*
X13629705Y-12399793D01*
X13629705Y-12399793D02*
X13620182Y-12437888D01*
X13620182Y-12437888D02*
X13610658Y-12456936D01*
X13610658Y-12456936D02*
X13601134Y-12466460D01*
X13601134Y-12466460D02*
X13582086Y-12475984D01*
X13582086Y-12475984D02*
X13563039Y-12475984D01*
X13563039Y-12475984D02*
X13543991Y-12466460D01*
X13543991Y-12466460D02*
X13534467Y-12456936D01*
X13534467Y-12456936D02*
X13524943Y-12437888D01*
X13524943Y-12437888D02*
X13515420Y-12399793D01*
X13515420Y-12399793D02*
X13515420Y-12352174D01*
X13515420Y-12352174D02*
X13524943Y-12314079D01*
X13524943Y-12314079D02*
X13534467Y-12295031D01*
X13534467Y-12295031D02*
X13543991Y-12285508D01*
X13543991Y-12285508D02*
X13563039Y-12275984D01*
X13715420Y-12475984D02*
X13715420Y-12342650D01*
X13715420Y-12361698D02*
X13724943Y-12352174D01*
X13724943Y-12352174D02*
X13743991Y-12342650D01*
X13743991Y-12342650D02*
X13772563Y-12342650D01*
X13772563Y-12342650D02*
X13791610Y-12352174D01*
X13791610Y-12352174D02*
X13801134Y-12371222D01*
X13801134Y-12371222D02*
X13801134Y-12475984D01*
X13801134Y-12371222D02*
X13810658Y-12352174D01*
X13810658Y-12352174D02*
X13829705Y-12342650D01*
X13829705Y-12342650D02*
X13858277Y-12342650D01*
X13858277Y-12342650D02*
X13877324Y-12352174D01*
X13877324Y-12352174D02*
X13886848Y-12371222D01*
X13886848Y-12371222D02*
X13886848Y-12475984D01*
X13982086Y-12475984D02*
X13982086Y-12342650D01*
X13982086Y-12361698D02*
X13991610Y-12352174D01*
X13991610Y-12352174D02*
X14010658Y-12342650D01*
X14010658Y-12342650D02*
X14039229Y-12342650D01*
X14039229Y-12342650D02*
X14058277Y-12352174D01*
X14058277Y-12352174D02*
X14067801Y-12371222D01*
X14067801Y-12371222D02*
X14067801Y-12475984D01*
X14067801Y-12371222D02*
X14077324Y-12352174D01*
X14077324Y-12352174D02*
X14096372Y-12342650D01*
X14096372Y-12342650D02*
X14124943Y-12342650D01*
X14124943Y-12342650D02*
X14143991Y-12352174D01*
X14143991Y-12352174D02*
X14153515Y-12371222D01*
X14153515Y-12371222D02*
X14153515Y-12475984D01*
X14543991Y-12266460D02*
X14372563Y-12523603D01*
X14801134Y-12275984D02*
X14820182Y-12275984D01*
X14820182Y-12275984D02*
X14839229Y-12285508D01*
X14839229Y-12285508D02*
X14848753Y-12295031D01*
X14848753Y-12295031D02*
X14858277Y-12314079D01*
X14858277Y-12314079D02*
X14867801Y-12352174D01*
X14867801Y-12352174D02*
X14867801Y-12399793D01*
X14867801Y-12399793D02*
X14858277Y-12437888D01*
X14858277Y-12437888D02*
X14848753Y-12456936D01*
X14848753Y-12456936D02*
X14839229Y-12466460D01*
X14839229Y-12466460D02*
X14820182Y-12475984D01*
X14820182Y-12475984D02*
X14801134Y-12475984D01*
X14801134Y-12475984D02*
X14782086Y-12466460D01*
X14782086Y-12466460D02*
X14772563Y-12456936D01*
X14772563Y-12456936D02*
X14763039Y-12437888D01*
X14763039Y-12437888D02*
X14753515Y-12399793D01*
X14753515Y-12399793D02*
X14753515Y-12352174D01*
X14753515Y-12352174D02*
X14763039Y-12314079D01*
X14763039Y-12314079D02*
X14772563Y-12295031D01*
X14772563Y-12295031D02*
X14782086Y-12285508D01*
X14782086Y-12285508D02*
X14801134Y-12275984D01*
X14953515Y-12456936D02*
X14963039Y-12466460D01*
X14963039Y-12466460D02*
X14953515Y-12475984D01*
X14953515Y-12475984D02*
X14943991Y-12466460D01*
X14943991Y-12466460D02*
X14953515Y-12456936D01*
X14953515Y-12456936D02*
X14953515Y-12475984D01*
X15086848Y-12275984D02*
X15105896Y-12275984D01*
X15105896Y-12275984D02*
X15124944Y-12285508D01*
X15124944Y-12285508D02*
X15134467Y-12295031D01*
X15134467Y-12295031D02*
X15143991Y-12314079D01*
X15143991Y-12314079D02*
X15153515Y-12352174D01*
X15153515Y-12352174D02*
X15153515Y-12399793D01*
X15153515Y-12399793D02*
X15143991Y-12437888D01*
X15143991Y-12437888D02*
X15134467Y-12456936D01*
X15134467Y-12456936D02*
X15124944Y-12466460D01*
X15124944Y-12466460D02*
X15105896Y-12475984D01*
X15105896Y-12475984D02*
X15086848Y-12475984D01*
X15086848Y-12475984D02*
X15067801Y-12466460D01*
X15067801Y-12466460D02*
X15058277Y-12456936D01*
X15058277Y-12456936D02*
X15048753Y-12437888D01*
X15048753Y-12437888D02*
X15039229Y-12399793D01*
X15039229Y-12399793D02*
X15039229Y-12352174D01*
X15039229Y-12352174D02*
X15048753Y-12314079D01*
X15048753Y-12314079D02*
X15058277Y-12295031D01*
X15058277Y-12295031D02*
X15067801Y-12285508D01*
X15067801Y-12285508D02*
X15086848Y-12275984D01*
X15220182Y-12275984D02*
X15343991Y-12275984D01*
X15343991Y-12275984D02*
X15277325Y-12352174D01*
X15277325Y-12352174D02*
X15305896Y-12352174D01*
X15305896Y-12352174D02*
X15324944Y-12361698D01*
X15324944Y-12361698D02*
X15334467Y-12371222D01*
X15334467Y-12371222D02*
X15343991Y-12390269D01*
X15343991Y-12390269D02*
X15343991Y-12437888D01*
X15343991Y-12437888D02*
X15334467Y-12456936D01*
X15334467Y-12456936D02*
X15324944Y-12466460D01*
X15324944Y-12466460D02*
X15305896Y-12475984D01*
X15305896Y-12475984D02*
X15248753Y-12475984D01*
X15248753Y-12475984D02*
X15229706Y-12466460D01*
X15229706Y-12466460D02*
X15220182Y-12456936D01*
X15524944Y-12275984D02*
X15429706Y-12275984D01*
X15429706Y-12275984D02*
X15420182Y-12371222D01*
X15420182Y-12371222D02*
X15429706Y-12361698D01*
X15429706Y-12361698D02*
X15448753Y-12352174D01*
X15448753Y-12352174D02*
X15496372Y-12352174D01*
X15496372Y-12352174D02*
X15515420Y-12361698D01*
X15515420Y-12361698D02*
X15524944Y-12371222D01*
X15524944Y-12371222D02*
X15534467Y-12390269D01*
X15534467Y-12390269D02*
X15534467Y-12437888D01*
X15534467Y-12437888D02*
X15524944Y-12456936D01*
X15524944Y-12456936D02*
X15515420Y-12466460D01*
X15515420Y-12466460D02*
X15496372Y-12475984D01*
X15496372Y-12475984D02*
X15448753Y-12475984D01*
X15448753Y-12475984D02*
X15429706Y-12466460D01*
X15429706Y-12466460D02*
X15420182Y-12456936D01*
X15705896Y-12342650D02*
X15705896Y-12475984D01*
X15658277Y-12266460D02*
X15610658Y-12409317D01*
X15610658Y-12409317D02*
X15734467Y-12409317D01*
X15801134Y-12275984D02*
X15801134Y-12314079D01*
X15877325Y-12275984D02*
X15877325Y-12314079D01*
X16172563Y-12552174D02*
X16163039Y-12542650D01*
X16163039Y-12542650D02*
X16143991Y-12514079D01*
X16143991Y-12514079D02*
X16134468Y-12495031D01*
X16134468Y-12495031D02*
X16124944Y-12466460D01*
X16124944Y-12466460D02*
X16115420Y-12418841D01*
X16115420Y-12418841D02*
X16115420Y-12380746D01*
X16115420Y-12380746D02*
X16124944Y-12333127D01*
X16124944Y-12333127D02*
X16134468Y-12304555D01*
X16134468Y-12304555D02*
X16143991Y-12285508D01*
X16143991Y-12285508D02*
X16163039Y-12256936D01*
X16163039Y-12256936D02*
X16172563Y-12247412D01*
X16239229Y-12295031D02*
X16248753Y-12285508D01*
X16248753Y-12285508D02*
X16267801Y-12275984D01*
X16267801Y-12275984D02*
X16315420Y-12275984D01*
X16315420Y-12275984D02*
X16334468Y-12285508D01*
X16334468Y-12285508D02*
X16343991Y-12295031D01*
X16343991Y-12295031D02*
X16353515Y-12314079D01*
X16353515Y-12314079D02*
X16353515Y-12333127D01*
X16353515Y-12333127D02*
X16343991Y-12361698D01*
X16343991Y-12361698D02*
X16229706Y-12475984D01*
X16229706Y-12475984D02*
X16353515Y-12475984D01*
X16591610Y-12475984D02*
X16591610Y-12275984D01*
X16677325Y-12475984D02*
X16677325Y-12371222D01*
X16677325Y-12371222D02*
X16667801Y-12352174D01*
X16667801Y-12352174D02*
X16648753Y-12342650D01*
X16648753Y-12342650D02*
X16620182Y-12342650D01*
X16620182Y-12342650D02*
X16601134Y-12352174D01*
X16601134Y-12352174D02*
X16591610Y-12361698D01*
X16801134Y-12475984D02*
X16782087Y-12466460D01*
X16782087Y-12466460D02*
X16772563Y-12456936D01*
X16772563Y-12456936D02*
X16763039Y-12437888D01*
X16763039Y-12437888D02*
X16763039Y-12380746D01*
X16763039Y-12380746D02*
X16772563Y-12361698D01*
X16772563Y-12361698D02*
X16782087Y-12352174D01*
X16782087Y-12352174D02*
X16801134Y-12342650D01*
X16801134Y-12342650D02*
X16829706Y-12342650D01*
X16829706Y-12342650D02*
X16848753Y-12352174D01*
X16848753Y-12352174D02*
X16858277Y-12361698D01*
X16858277Y-12361698D02*
X16867801Y-12380746D01*
X16867801Y-12380746D02*
X16867801Y-12437888D01*
X16867801Y-12437888D02*
X16858277Y-12456936D01*
X16858277Y-12456936D02*
X16848753Y-12466460D01*
X16848753Y-12466460D02*
X16829706Y-12475984D01*
X16829706Y-12475984D02*
X16801134Y-12475984D01*
X16982087Y-12475984D02*
X16963039Y-12466460D01*
X16963039Y-12466460D02*
X16953515Y-12447412D01*
X16953515Y-12447412D02*
X16953515Y-12275984D01*
X17134468Y-12466460D02*
X17115420Y-12475984D01*
X17115420Y-12475984D02*
X17077325Y-12475984D01*
X17077325Y-12475984D02*
X17058277Y-12466460D01*
X17058277Y-12466460D02*
X17048753Y-12447412D01*
X17048753Y-12447412D02*
X17048753Y-12371222D01*
X17048753Y-12371222D02*
X17058277Y-12352174D01*
X17058277Y-12352174D02*
X17077325Y-12342650D01*
X17077325Y-12342650D02*
X17115420Y-12342650D01*
X17115420Y-12342650D02*
X17134468Y-12352174D01*
X17134468Y-12352174D02*
X17143992Y-12371222D01*
X17143992Y-12371222D02*
X17143992Y-12390269D01*
X17143992Y-12390269D02*
X17048753Y-12409317D01*
X17220182Y-12466460D02*
X17239230Y-12475984D01*
X17239230Y-12475984D02*
X17277325Y-12475984D01*
X17277325Y-12475984D02*
X17296373Y-12466460D01*
X17296373Y-12466460D02*
X17305896Y-12447412D01*
X17305896Y-12447412D02*
X17305896Y-12437888D01*
X17305896Y-12437888D02*
X17296373Y-12418841D01*
X17296373Y-12418841D02*
X17277325Y-12409317D01*
X17277325Y-12409317D02*
X17248753Y-12409317D01*
X17248753Y-12409317D02*
X17229706Y-12399793D01*
X17229706Y-12399793D02*
X17220182Y-12380746D01*
X17220182Y-12380746D02*
X17220182Y-12371222D01*
X17220182Y-12371222D02*
X17229706Y-12352174D01*
X17229706Y-12352174D02*
X17248753Y-12342650D01*
X17248753Y-12342650D02*
X17277325Y-12342650D01*
X17277325Y-12342650D02*
X17296373Y-12352174D01*
X17372563Y-12552174D02*
X17382087Y-12542650D01*
X17382087Y-12542650D02*
X17401134Y-12514079D01*
X17401134Y-12514079D02*
X17410658Y-12495031D01*
X17410658Y-12495031D02*
X17420182Y-12466460D01*
X17420182Y-12466460D02*
X17429706Y-12418841D01*
X17429706Y-12418841D02*
X17429706Y-12380746D01*
X17429706Y-12380746D02*
X17420182Y-12333127D01*
X17420182Y-12333127D02*
X17410658Y-12304555D01*
X17410658Y-12304555D02*
X17401134Y-12285508D01*
X17401134Y-12285508D02*
X17382087Y-12256936D01*
X17382087Y-12256936D02*
X17372563Y-12247412D01*
D12*
X12547500Y-12698500D02*
X12597500Y-12648500D01*
X12547500Y-12598500D01*
X12497500Y-12648500D01*
X12547500Y-12698500D01*
D11*
X12963039Y-12739984D02*
X12848753Y-12739984D01*
X12905896Y-12739984D02*
X12905896Y-12539984D01*
X12905896Y-12539984D02*
X12886848Y-12568555D01*
X12886848Y-12568555D02*
X12867801Y-12587603D01*
X12867801Y-12587603D02*
X12848753Y-12597127D01*
X13048753Y-12720936D02*
X13058277Y-12730460D01*
X13058277Y-12730460D02*
X13048753Y-12739984D01*
X13048753Y-12739984D02*
X13039229Y-12730460D01*
X13039229Y-12730460D02*
X13048753Y-12720936D01*
X13048753Y-12720936D02*
X13048753Y-12739984D01*
X13182086Y-12539984D02*
X13201134Y-12539984D01*
X13201134Y-12539984D02*
X13220182Y-12549508D01*
X13220182Y-12549508D02*
X13229705Y-12559031D01*
X13229705Y-12559031D02*
X13239229Y-12578079D01*
X13239229Y-12578079D02*
X13248753Y-12616174D01*
X13248753Y-12616174D02*
X13248753Y-12663793D01*
X13248753Y-12663793D02*
X13239229Y-12701888D01*
X13239229Y-12701888D02*
X13229705Y-12720936D01*
X13229705Y-12720936D02*
X13220182Y-12730460D01*
X13220182Y-12730460D02*
X13201134Y-12739984D01*
X13201134Y-12739984D02*
X13182086Y-12739984D01*
X13182086Y-12739984D02*
X13163039Y-12730460D01*
X13163039Y-12730460D02*
X13153515Y-12720936D01*
X13153515Y-12720936D02*
X13143991Y-12701888D01*
X13143991Y-12701888D02*
X13134467Y-12663793D01*
X13134467Y-12663793D02*
X13134467Y-12616174D01*
X13134467Y-12616174D02*
X13143991Y-12578079D01*
X13143991Y-12578079D02*
X13153515Y-12559031D01*
X13153515Y-12559031D02*
X13163039Y-12549508D01*
X13163039Y-12549508D02*
X13182086Y-12539984D01*
X13372562Y-12539984D02*
X13391610Y-12539984D01*
X13391610Y-12539984D02*
X13410658Y-12549508D01*
X13410658Y-12549508D02*
X13420182Y-12559031D01*
X13420182Y-12559031D02*
X13429705Y-12578079D01*
X13429705Y-12578079D02*
X13439229Y-12616174D01*
X13439229Y-12616174D02*
X13439229Y-12663793D01*
X13439229Y-12663793D02*
X13429705Y-12701888D01*
X13429705Y-12701888D02*
X13420182Y-12720936D01*
X13420182Y-12720936D02*
X13410658Y-12730460D01*
X13410658Y-12730460D02*
X13391610Y-12739984D01*
X13391610Y-12739984D02*
X13372562Y-12739984D01*
X13372562Y-12739984D02*
X13353515Y-12730460D01*
X13353515Y-12730460D02*
X13343991Y-12720936D01*
X13343991Y-12720936D02*
X13334467Y-12701888D01*
X13334467Y-12701888D02*
X13324943Y-12663793D01*
X13324943Y-12663793D02*
X13324943Y-12616174D01*
X13324943Y-12616174D02*
X13334467Y-12578079D01*
X13334467Y-12578079D02*
X13343991Y-12559031D01*
X13343991Y-12559031D02*
X13353515Y-12549508D01*
X13353515Y-12549508D02*
X13372562Y-12539984D01*
X13563039Y-12539984D02*
X13582086Y-12539984D01*
X13582086Y-12539984D02*
X13601134Y-12549508D01*
X13601134Y-12549508D02*
X13610658Y-12559031D01*
X13610658Y-12559031D02*
X13620182Y-12578079D01*
X13620182Y-12578079D02*
X13629705Y-12616174D01*
X13629705Y-12616174D02*
X13629705Y-12663793D01*
X13629705Y-12663793D02*
X13620182Y-12701888D01*
X13620182Y-12701888D02*
X13610658Y-12720936D01*
X13610658Y-12720936D02*
X13601134Y-12730460D01*
X13601134Y-12730460D02*
X13582086Y-12739984D01*
X13582086Y-12739984D02*
X13563039Y-12739984D01*
X13563039Y-12739984D02*
X13543991Y-12730460D01*
X13543991Y-12730460D02*
X13534467Y-12720936D01*
X13534467Y-12720936D02*
X13524943Y-12701888D01*
X13524943Y-12701888D02*
X13515420Y-12663793D01*
X13515420Y-12663793D02*
X13515420Y-12616174D01*
X13515420Y-12616174D02*
X13524943Y-12578079D01*
X13524943Y-12578079D02*
X13534467Y-12559031D01*
X13534467Y-12559031D02*
X13543991Y-12549508D01*
X13543991Y-12549508D02*
X13563039Y-12539984D01*
X13715420Y-12739984D02*
X13715420Y-12606650D01*
X13715420Y-12625698D02*
X13724943Y-12616174D01*
X13724943Y-12616174D02*
X13743991Y-12606650D01*
X13743991Y-12606650D02*
X13772563Y-12606650D01*
X13772563Y-12606650D02*
X13791610Y-12616174D01*
X13791610Y-12616174D02*
X13801134Y-12635222D01*
X13801134Y-12635222D02*
X13801134Y-12739984D01*
X13801134Y-12635222D02*
X13810658Y-12616174D01*
X13810658Y-12616174D02*
X13829705Y-12606650D01*
X13829705Y-12606650D02*
X13858277Y-12606650D01*
X13858277Y-12606650D02*
X13877324Y-12616174D01*
X13877324Y-12616174D02*
X13886848Y-12635222D01*
X13886848Y-12635222D02*
X13886848Y-12739984D01*
X13982086Y-12739984D02*
X13982086Y-12606650D01*
X13982086Y-12625698D02*
X13991610Y-12616174D01*
X13991610Y-12616174D02*
X14010658Y-12606650D01*
X14010658Y-12606650D02*
X14039229Y-12606650D01*
X14039229Y-12606650D02*
X14058277Y-12616174D01*
X14058277Y-12616174D02*
X14067801Y-12635222D01*
X14067801Y-12635222D02*
X14067801Y-12739984D01*
X14067801Y-12635222D02*
X14077324Y-12616174D01*
X14077324Y-12616174D02*
X14096372Y-12606650D01*
X14096372Y-12606650D02*
X14124943Y-12606650D01*
X14124943Y-12606650D02*
X14143991Y-12616174D01*
X14143991Y-12616174D02*
X14153515Y-12635222D01*
X14153515Y-12635222D02*
X14153515Y-12739984D01*
X14543991Y-12530460D02*
X14372563Y-12787603D01*
X14801134Y-12539984D02*
X14820182Y-12539984D01*
X14820182Y-12539984D02*
X14839229Y-12549508D01*
X14839229Y-12549508D02*
X14848753Y-12559031D01*
X14848753Y-12559031D02*
X14858277Y-12578079D01*
X14858277Y-12578079D02*
X14867801Y-12616174D01*
X14867801Y-12616174D02*
X14867801Y-12663793D01*
X14867801Y-12663793D02*
X14858277Y-12701888D01*
X14858277Y-12701888D02*
X14848753Y-12720936D01*
X14848753Y-12720936D02*
X14839229Y-12730460D01*
X14839229Y-12730460D02*
X14820182Y-12739984D01*
X14820182Y-12739984D02*
X14801134Y-12739984D01*
X14801134Y-12739984D02*
X14782086Y-12730460D01*
X14782086Y-12730460D02*
X14772563Y-12720936D01*
X14772563Y-12720936D02*
X14763039Y-12701888D01*
X14763039Y-12701888D02*
X14753515Y-12663793D01*
X14753515Y-12663793D02*
X14753515Y-12616174D01*
X14753515Y-12616174D02*
X14763039Y-12578079D01*
X14763039Y-12578079D02*
X14772563Y-12559031D01*
X14772563Y-12559031D02*
X14782086Y-12549508D01*
X14782086Y-12549508D02*
X14801134Y-12539984D01*
X14953515Y-12720936D02*
X14963039Y-12730460D01*
X14963039Y-12730460D02*
X14953515Y-12739984D01*
X14953515Y-12739984D02*
X14943991Y-12730460D01*
X14943991Y-12730460D02*
X14953515Y-12720936D01*
X14953515Y-12720936D02*
X14953515Y-12739984D01*
X15086848Y-12539984D02*
X15105896Y-12539984D01*
X15105896Y-12539984D02*
X15124944Y-12549508D01*
X15124944Y-12549508D02*
X15134467Y-12559031D01*
X15134467Y-12559031D02*
X15143991Y-12578079D01*
X15143991Y-12578079D02*
X15153515Y-12616174D01*
X15153515Y-12616174D02*
X15153515Y-12663793D01*
X15153515Y-12663793D02*
X15143991Y-12701888D01*
X15143991Y-12701888D02*
X15134467Y-12720936D01*
X15134467Y-12720936D02*
X15124944Y-12730460D01*
X15124944Y-12730460D02*
X15105896Y-12739984D01*
X15105896Y-12739984D02*
X15086848Y-12739984D01*
X15086848Y-12739984D02*
X15067801Y-12730460D01*
X15067801Y-12730460D02*
X15058277Y-12720936D01*
X15058277Y-12720936D02*
X15048753Y-12701888D01*
X15048753Y-12701888D02*
X15039229Y-12663793D01*
X15039229Y-12663793D02*
X15039229Y-12616174D01*
X15039229Y-12616174D02*
X15048753Y-12578079D01*
X15048753Y-12578079D02*
X15058277Y-12559031D01*
X15058277Y-12559031D02*
X15067801Y-12549508D01*
X15067801Y-12549508D02*
X15086848Y-12539984D01*
X15220182Y-12539984D02*
X15343991Y-12539984D01*
X15343991Y-12539984D02*
X15277325Y-12616174D01*
X15277325Y-12616174D02*
X15305896Y-12616174D01*
X15305896Y-12616174D02*
X15324944Y-12625698D01*
X15324944Y-12625698D02*
X15334467Y-12635222D01*
X15334467Y-12635222D02*
X15343991Y-12654269D01*
X15343991Y-12654269D02*
X15343991Y-12701888D01*
X15343991Y-12701888D02*
X15334467Y-12720936D01*
X15334467Y-12720936D02*
X15324944Y-12730460D01*
X15324944Y-12730460D02*
X15305896Y-12739984D01*
X15305896Y-12739984D02*
X15248753Y-12739984D01*
X15248753Y-12739984D02*
X15229706Y-12730460D01*
X15229706Y-12730460D02*
X15220182Y-12720936D01*
X15439229Y-12739984D02*
X15477325Y-12739984D01*
X15477325Y-12739984D02*
X15496372Y-12730460D01*
X15496372Y-12730460D02*
X15505896Y-12720936D01*
X15505896Y-12720936D02*
X15524944Y-12692365D01*
X15524944Y-12692365D02*
X15534467Y-12654269D01*
X15534467Y-12654269D02*
X15534467Y-12578079D01*
X15534467Y-12578079D02*
X15524944Y-12559031D01*
X15524944Y-12559031D02*
X15515420Y-12549508D01*
X15515420Y-12549508D02*
X15496372Y-12539984D01*
X15496372Y-12539984D02*
X15458277Y-12539984D01*
X15458277Y-12539984D02*
X15439229Y-12549508D01*
X15439229Y-12549508D02*
X15429706Y-12559031D01*
X15429706Y-12559031D02*
X15420182Y-12578079D01*
X15420182Y-12578079D02*
X15420182Y-12625698D01*
X15420182Y-12625698D02*
X15429706Y-12644746D01*
X15429706Y-12644746D02*
X15439229Y-12654269D01*
X15439229Y-12654269D02*
X15458277Y-12663793D01*
X15458277Y-12663793D02*
X15496372Y-12663793D01*
X15496372Y-12663793D02*
X15515420Y-12654269D01*
X15515420Y-12654269D02*
X15524944Y-12644746D01*
X15524944Y-12644746D02*
X15534467Y-12625698D01*
X15705896Y-12606650D02*
X15705896Y-12739984D01*
X15658277Y-12530460D02*
X15610658Y-12673317D01*
X15610658Y-12673317D02*
X15734467Y-12673317D01*
X15801134Y-12539984D02*
X15801134Y-12578079D01*
X15877325Y-12539984D02*
X15877325Y-12578079D01*
X16172563Y-12816174D02*
X16163039Y-12806650D01*
X16163039Y-12806650D02*
X16143991Y-12778079D01*
X16143991Y-12778079D02*
X16134468Y-12759031D01*
X16134468Y-12759031D02*
X16124944Y-12730460D01*
X16124944Y-12730460D02*
X16115420Y-12682841D01*
X16115420Y-12682841D02*
X16115420Y-12644746D01*
X16115420Y-12644746D02*
X16124944Y-12597127D01*
X16124944Y-12597127D02*
X16134468Y-12568555D01*
X16134468Y-12568555D02*
X16143991Y-12549508D01*
X16143991Y-12549508D02*
X16163039Y-12520936D01*
X16163039Y-12520936D02*
X16172563Y-12511412D01*
X16343991Y-12539984D02*
X16248753Y-12539984D01*
X16248753Y-12539984D02*
X16239229Y-12635222D01*
X16239229Y-12635222D02*
X16248753Y-12625698D01*
X16248753Y-12625698D02*
X16267801Y-12616174D01*
X16267801Y-12616174D02*
X16315420Y-12616174D01*
X16315420Y-12616174D02*
X16334468Y-12625698D01*
X16334468Y-12625698D02*
X16343991Y-12635222D01*
X16343991Y-12635222D02*
X16353515Y-12654269D01*
X16353515Y-12654269D02*
X16353515Y-12701888D01*
X16353515Y-12701888D02*
X16343991Y-12720936D01*
X16343991Y-12720936D02*
X16334468Y-12730460D01*
X16334468Y-12730460D02*
X16315420Y-12739984D01*
X16315420Y-12739984D02*
X16267801Y-12739984D01*
X16267801Y-12739984D02*
X16248753Y-12730460D01*
X16248753Y-12730460D02*
X16239229Y-12720936D01*
X16420182Y-12539984D02*
X16553515Y-12539984D01*
X16553515Y-12539984D02*
X16467801Y-12739984D01*
X16782087Y-12739984D02*
X16782087Y-12539984D01*
X16867801Y-12739984D02*
X16867801Y-12635222D01*
X16867801Y-12635222D02*
X16858277Y-12616174D01*
X16858277Y-12616174D02*
X16839230Y-12606650D01*
X16839230Y-12606650D02*
X16810658Y-12606650D01*
X16810658Y-12606650D02*
X16791611Y-12616174D01*
X16791611Y-12616174D02*
X16782087Y-12625698D01*
X16991611Y-12739984D02*
X16972563Y-12730460D01*
X16972563Y-12730460D02*
X16963039Y-12720936D01*
X16963039Y-12720936D02*
X16953515Y-12701888D01*
X16953515Y-12701888D02*
X16953515Y-12644746D01*
X16953515Y-12644746D02*
X16963039Y-12625698D01*
X16963039Y-12625698D02*
X16972563Y-12616174D01*
X16972563Y-12616174D02*
X16991611Y-12606650D01*
X16991611Y-12606650D02*
X17020182Y-12606650D01*
X17020182Y-12606650D02*
X17039230Y-12616174D01*
X17039230Y-12616174D02*
X17048753Y-12625698D01*
X17048753Y-12625698D02*
X17058277Y-12644746D01*
X17058277Y-12644746D02*
X17058277Y-12701888D01*
X17058277Y-12701888D02*
X17048753Y-12720936D01*
X17048753Y-12720936D02*
X17039230Y-12730460D01*
X17039230Y-12730460D02*
X17020182Y-12739984D01*
X17020182Y-12739984D02*
X16991611Y-12739984D01*
X17172563Y-12739984D02*
X17153515Y-12730460D01*
X17153515Y-12730460D02*
X17143992Y-12711412D01*
X17143992Y-12711412D02*
X17143992Y-12539984D01*
X17324944Y-12730460D02*
X17305896Y-12739984D01*
X17305896Y-12739984D02*
X17267801Y-12739984D01*
X17267801Y-12739984D02*
X17248753Y-12730460D01*
X17248753Y-12730460D02*
X17239230Y-12711412D01*
X17239230Y-12711412D02*
X17239230Y-12635222D01*
X17239230Y-12635222D02*
X17248753Y-12616174D01*
X17248753Y-12616174D02*
X17267801Y-12606650D01*
X17267801Y-12606650D02*
X17305896Y-12606650D01*
X17305896Y-12606650D02*
X17324944Y-12616174D01*
X17324944Y-12616174D02*
X17334468Y-12635222D01*
X17334468Y-12635222D02*
X17334468Y-12654269D01*
X17334468Y-12654269D02*
X17239230Y-12673317D01*
X17410658Y-12730460D02*
X17429706Y-12739984D01*
X17429706Y-12739984D02*
X17467801Y-12739984D01*
X17467801Y-12739984D02*
X17486849Y-12730460D01*
X17486849Y-12730460D02*
X17496373Y-12711412D01*
X17496373Y-12711412D02*
X17496373Y-12701888D01*
X17496373Y-12701888D02*
X17486849Y-12682841D01*
X17486849Y-12682841D02*
X17467801Y-12673317D01*
X17467801Y-12673317D02*
X17439230Y-12673317D01*
X17439230Y-12673317D02*
X17420182Y-12663793D01*
X17420182Y-12663793D02*
X17410658Y-12644746D01*
X17410658Y-12644746D02*
X17410658Y-12635222D01*
X17410658Y-12635222D02*
X17420182Y-12616174D01*
X17420182Y-12616174D02*
X17439230Y-12606650D01*
X17439230Y-12606650D02*
X17467801Y-12606650D01*
X17467801Y-12606650D02*
X17486849Y-12616174D01*
X17563039Y-12816174D02*
X17572563Y-12806650D01*
X17572563Y-12806650D02*
X17591611Y-12778079D01*
X17591611Y-12778079D02*
X17601134Y-12759031D01*
X17601134Y-12759031D02*
X17610658Y-12730460D01*
X17610658Y-12730460D02*
X17620182Y-12682841D01*
X17620182Y-12682841D02*
X17620182Y-12644746D01*
X17620182Y-12644746D02*
X17610658Y-12597127D01*
X17610658Y-12597127D02*
X17601134Y-12568555D01*
X17601134Y-12568555D02*
X17591611Y-12549508D01*
X17591611Y-12549508D02*
X17572563Y-12520936D01*
X17572563Y-12520936D02*
X17563039Y-12511412D01*
D13*
X12487500Y-12857500D02*
X12597500Y-12967500D01*
X12597500Y-12857500D02*
X12487500Y-12967500D01*
X12597500Y-12912500D02*
G75*
G02*
X12487500Y-12912500I-55000J0D01*
G01*
X12487500Y-12912500D02*
G75*
G02*
X12597500Y-12912500I55000J0D01*
G01*
D11*
X12963039Y-13003984D02*
X12848753Y-13003984D01*
X12905896Y-13003984D02*
X12905896Y-12803984D01*
X12905896Y-12803984D02*
X12886848Y-12832555D01*
X12886848Y-12832555D02*
X12867801Y-12851603D01*
X12867801Y-12851603D02*
X12848753Y-12861127D01*
X13048753Y-12984936D02*
X13058277Y-12994460D01*
X13058277Y-12994460D02*
X13048753Y-13003984D01*
X13048753Y-13003984D02*
X13039229Y-12994460D01*
X13039229Y-12994460D02*
X13048753Y-12984936D01*
X13048753Y-12984936D02*
X13048753Y-13003984D01*
X13248753Y-13003984D02*
X13134467Y-13003984D01*
X13191610Y-13003984D02*
X13191610Y-12803984D01*
X13191610Y-12803984D02*
X13172562Y-12832555D01*
X13172562Y-12832555D02*
X13153515Y-12851603D01*
X13153515Y-12851603D02*
X13134467Y-12861127D01*
X13372562Y-12803984D02*
X13391610Y-12803984D01*
X13391610Y-12803984D02*
X13410658Y-12813508D01*
X13410658Y-12813508D02*
X13420182Y-12823031D01*
X13420182Y-12823031D02*
X13429705Y-12842079D01*
X13429705Y-12842079D02*
X13439229Y-12880174D01*
X13439229Y-12880174D02*
X13439229Y-12927793D01*
X13439229Y-12927793D02*
X13429705Y-12965888D01*
X13429705Y-12965888D02*
X13420182Y-12984936D01*
X13420182Y-12984936D02*
X13410658Y-12994460D01*
X13410658Y-12994460D02*
X13391610Y-13003984D01*
X13391610Y-13003984D02*
X13372562Y-13003984D01*
X13372562Y-13003984D02*
X13353515Y-12994460D01*
X13353515Y-12994460D02*
X13343991Y-12984936D01*
X13343991Y-12984936D02*
X13334467Y-12965888D01*
X13334467Y-12965888D02*
X13324943Y-12927793D01*
X13324943Y-12927793D02*
X13324943Y-12880174D01*
X13324943Y-12880174D02*
X13334467Y-12842079D01*
X13334467Y-12842079D02*
X13343991Y-12823031D01*
X13343991Y-12823031D02*
X13353515Y-12813508D01*
X13353515Y-12813508D02*
X13372562Y-12803984D01*
X13563039Y-12803984D02*
X13582086Y-12803984D01*
X13582086Y-12803984D02*
X13601134Y-12813508D01*
X13601134Y-12813508D02*
X13610658Y-12823031D01*
X13610658Y-12823031D02*
X13620182Y-12842079D01*
X13620182Y-12842079D02*
X13629705Y-12880174D01*
X13629705Y-12880174D02*
X13629705Y-12927793D01*
X13629705Y-12927793D02*
X13620182Y-12965888D01*
X13620182Y-12965888D02*
X13610658Y-12984936D01*
X13610658Y-12984936D02*
X13601134Y-12994460D01*
X13601134Y-12994460D02*
X13582086Y-13003984D01*
X13582086Y-13003984D02*
X13563039Y-13003984D01*
X13563039Y-13003984D02*
X13543991Y-12994460D01*
X13543991Y-12994460D02*
X13534467Y-12984936D01*
X13534467Y-12984936D02*
X13524943Y-12965888D01*
X13524943Y-12965888D02*
X13515420Y-12927793D01*
X13515420Y-12927793D02*
X13515420Y-12880174D01*
X13515420Y-12880174D02*
X13524943Y-12842079D01*
X13524943Y-12842079D02*
X13534467Y-12823031D01*
X13534467Y-12823031D02*
X13543991Y-12813508D01*
X13543991Y-12813508D02*
X13563039Y-12803984D01*
X13715420Y-13003984D02*
X13715420Y-12870650D01*
X13715420Y-12889698D02*
X13724943Y-12880174D01*
X13724943Y-12880174D02*
X13743991Y-12870650D01*
X13743991Y-12870650D02*
X13772563Y-12870650D01*
X13772563Y-12870650D02*
X13791610Y-12880174D01*
X13791610Y-12880174D02*
X13801134Y-12899222D01*
X13801134Y-12899222D02*
X13801134Y-13003984D01*
X13801134Y-12899222D02*
X13810658Y-12880174D01*
X13810658Y-12880174D02*
X13829705Y-12870650D01*
X13829705Y-12870650D02*
X13858277Y-12870650D01*
X13858277Y-12870650D02*
X13877324Y-12880174D01*
X13877324Y-12880174D02*
X13886848Y-12899222D01*
X13886848Y-12899222D02*
X13886848Y-13003984D01*
X13982086Y-13003984D02*
X13982086Y-12870650D01*
X13982086Y-12889698D02*
X13991610Y-12880174D01*
X13991610Y-12880174D02*
X14010658Y-12870650D01*
X14010658Y-12870650D02*
X14039229Y-12870650D01*
X14039229Y-12870650D02*
X14058277Y-12880174D01*
X14058277Y-12880174D02*
X14067801Y-12899222D01*
X14067801Y-12899222D02*
X14067801Y-13003984D01*
X14067801Y-12899222D02*
X14077324Y-12880174D01*
X14077324Y-12880174D02*
X14096372Y-12870650D01*
X14096372Y-12870650D02*
X14124943Y-12870650D01*
X14124943Y-12870650D02*
X14143991Y-12880174D01*
X14143991Y-12880174D02*
X14153515Y-12899222D01*
X14153515Y-12899222D02*
X14153515Y-13003984D01*
X14543991Y-12794460D02*
X14372563Y-13051603D01*
X14801134Y-12803984D02*
X14820182Y-12803984D01*
X14820182Y-12803984D02*
X14839229Y-12813508D01*
X14839229Y-12813508D02*
X14848753Y-12823031D01*
X14848753Y-12823031D02*
X14858277Y-12842079D01*
X14858277Y-12842079D02*
X14867801Y-12880174D01*
X14867801Y-12880174D02*
X14867801Y-12927793D01*
X14867801Y-12927793D02*
X14858277Y-12965888D01*
X14858277Y-12965888D02*
X14848753Y-12984936D01*
X14848753Y-12984936D02*
X14839229Y-12994460D01*
X14839229Y-12994460D02*
X14820182Y-13003984D01*
X14820182Y-13003984D02*
X14801134Y-13003984D01*
X14801134Y-13003984D02*
X14782086Y-12994460D01*
X14782086Y-12994460D02*
X14772563Y-12984936D01*
X14772563Y-12984936D02*
X14763039Y-12965888D01*
X14763039Y-12965888D02*
X14753515Y-12927793D01*
X14753515Y-12927793D02*
X14753515Y-12880174D01*
X14753515Y-12880174D02*
X14763039Y-12842079D01*
X14763039Y-12842079D02*
X14772563Y-12823031D01*
X14772563Y-12823031D02*
X14782086Y-12813508D01*
X14782086Y-12813508D02*
X14801134Y-12803984D01*
X14953515Y-12984936D02*
X14963039Y-12994460D01*
X14963039Y-12994460D02*
X14953515Y-13003984D01*
X14953515Y-13003984D02*
X14943991Y-12994460D01*
X14943991Y-12994460D02*
X14953515Y-12984936D01*
X14953515Y-12984936D02*
X14953515Y-13003984D01*
X15086848Y-12803984D02*
X15105896Y-12803984D01*
X15105896Y-12803984D02*
X15124944Y-12813508D01*
X15124944Y-12813508D02*
X15134467Y-12823031D01*
X15134467Y-12823031D02*
X15143991Y-12842079D01*
X15143991Y-12842079D02*
X15153515Y-12880174D01*
X15153515Y-12880174D02*
X15153515Y-12927793D01*
X15153515Y-12927793D02*
X15143991Y-12965888D01*
X15143991Y-12965888D02*
X15134467Y-12984936D01*
X15134467Y-12984936D02*
X15124944Y-12994460D01*
X15124944Y-12994460D02*
X15105896Y-13003984D01*
X15105896Y-13003984D02*
X15086848Y-13003984D01*
X15086848Y-13003984D02*
X15067801Y-12994460D01*
X15067801Y-12994460D02*
X15058277Y-12984936D01*
X15058277Y-12984936D02*
X15048753Y-12965888D01*
X15048753Y-12965888D02*
X15039229Y-12927793D01*
X15039229Y-12927793D02*
X15039229Y-12880174D01*
X15039229Y-12880174D02*
X15048753Y-12842079D01*
X15048753Y-12842079D02*
X15058277Y-12823031D01*
X15058277Y-12823031D02*
X15067801Y-12813508D01*
X15067801Y-12813508D02*
X15086848Y-12803984D01*
X15324944Y-12870650D02*
X15324944Y-13003984D01*
X15277325Y-12794460D02*
X15229706Y-12937317D01*
X15229706Y-12937317D02*
X15353515Y-12937317D01*
X15410658Y-12803984D02*
X15534467Y-12803984D01*
X15534467Y-12803984D02*
X15467801Y-12880174D01*
X15467801Y-12880174D02*
X15496372Y-12880174D01*
X15496372Y-12880174D02*
X15515420Y-12889698D01*
X15515420Y-12889698D02*
X15524944Y-12899222D01*
X15524944Y-12899222D02*
X15534467Y-12918269D01*
X15534467Y-12918269D02*
X15534467Y-12965888D01*
X15534467Y-12965888D02*
X15524944Y-12984936D01*
X15524944Y-12984936D02*
X15515420Y-12994460D01*
X15515420Y-12994460D02*
X15496372Y-13003984D01*
X15496372Y-13003984D02*
X15439229Y-13003984D01*
X15439229Y-13003984D02*
X15420182Y-12994460D01*
X15420182Y-12994460D02*
X15410658Y-12984936D01*
X15601134Y-12803984D02*
X15724944Y-12803984D01*
X15724944Y-12803984D02*
X15658277Y-12880174D01*
X15658277Y-12880174D02*
X15686848Y-12880174D01*
X15686848Y-12880174D02*
X15705896Y-12889698D01*
X15705896Y-12889698D02*
X15715420Y-12899222D01*
X15715420Y-12899222D02*
X15724944Y-12918269D01*
X15724944Y-12918269D02*
X15724944Y-12965888D01*
X15724944Y-12965888D02*
X15715420Y-12984936D01*
X15715420Y-12984936D02*
X15705896Y-12994460D01*
X15705896Y-12994460D02*
X15686848Y-13003984D01*
X15686848Y-13003984D02*
X15629706Y-13003984D01*
X15629706Y-13003984D02*
X15610658Y-12994460D01*
X15610658Y-12994460D02*
X15601134Y-12984936D01*
X15801134Y-12803984D02*
X15801134Y-12842079D01*
X15877325Y-12803984D02*
X15877325Y-12842079D01*
X16172563Y-13080174D02*
X16163039Y-13070650D01*
X16163039Y-13070650D02*
X16143991Y-13042079D01*
X16143991Y-13042079D02*
X16134468Y-13023031D01*
X16134468Y-13023031D02*
X16124944Y-12994460D01*
X16124944Y-12994460D02*
X16115420Y-12946841D01*
X16115420Y-12946841D02*
X16115420Y-12908746D01*
X16115420Y-12908746D02*
X16124944Y-12861127D01*
X16124944Y-12861127D02*
X16134468Y-12832555D01*
X16134468Y-12832555D02*
X16143991Y-12813508D01*
X16143991Y-12813508D02*
X16163039Y-12784936D01*
X16163039Y-12784936D02*
X16172563Y-12775412D01*
X16353515Y-13003984D02*
X16239229Y-13003984D01*
X16296372Y-13003984D02*
X16296372Y-12803984D01*
X16296372Y-12803984D02*
X16277325Y-12832555D01*
X16277325Y-12832555D02*
X16258277Y-12851603D01*
X16258277Y-12851603D02*
X16239229Y-12861127D01*
X16477325Y-12803984D02*
X16496372Y-12803984D01*
X16496372Y-12803984D02*
X16515420Y-12813508D01*
X16515420Y-12813508D02*
X16524944Y-12823031D01*
X16524944Y-12823031D02*
X16534468Y-12842079D01*
X16534468Y-12842079D02*
X16543991Y-12880174D01*
X16543991Y-12880174D02*
X16543991Y-12927793D01*
X16543991Y-12927793D02*
X16534468Y-12965888D01*
X16534468Y-12965888D02*
X16524944Y-12984936D01*
X16524944Y-12984936D02*
X16515420Y-12994460D01*
X16515420Y-12994460D02*
X16496372Y-13003984D01*
X16496372Y-13003984D02*
X16477325Y-13003984D01*
X16477325Y-13003984D02*
X16458277Y-12994460D01*
X16458277Y-12994460D02*
X16448753Y-12984936D01*
X16448753Y-12984936D02*
X16439229Y-12965888D01*
X16439229Y-12965888D02*
X16429706Y-12927793D01*
X16429706Y-12927793D02*
X16429706Y-12880174D01*
X16429706Y-12880174D02*
X16439229Y-12842079D01*
X16439229Y-12842079D02*
X16448753Y-12823031D01*
X16448753Y-12823031D02*
X16458277Y-12813508D01*
X16458277Y-12813508D02*
X16477325Y-12803984D01*
X16782087Y-13003984D02*
X16782087Y-12803984D01*
X16867801Y-13003984D02*
X16867801Y-12899222D01*
X16867801Y-12899222D02*
X16858277Y-12880174D01*
X16858277Y-12880174D02*
X16839230Y-12870650D01*
X16839230Y-12870650D02*
X16810658Y-12870650D01*
X16810658Y-12870650D02*
X16791611Y-12880174D01*
X16791611Y-12880174D02*
X16782087Y-12889698D01*
X16991611Y-13003984D02*
X16972563Y-12994460D01*
X16972563Y-12994460D02*
X16963039Y-12984936D01*
X16963039Y-12984936D02*
X16953515Y-12965888D01*
X16953515Y-12965888D02*
X16953515Y-12908746D01*
X16953515Y-12908746D02*
X16963039Y-12889698D01*
X16963039Y-12889698D02*
X16972563Y-12880174D01*
X16972563Y-12880174D02*
X16991611Y-12870650D01*
X16991611Y-12870650D02*
X17020182Y-12870650D01*
X17020182Y-12870650D02*
X17039230Y-12880174D01*
X17039230Y-12880174D02*
X17048753Y-12889698D01*
X17048753Y-12889698D02*
X17058277Y-12908746D01*
X17058277Y-12908746D02*
X17058277Y-12965888D01*
X17058277Y-12965888D02*
X17048753Y-12984936D01*
X17048753Y-12984936D02*
X17039230Y-12994460D01*
X17039230Y-12994460D02*
X17020182Y-13003984D01*
X17020182Y-13003984D02*
X16991611Y-13003984D01*
X17172563Y-13003984D02*
X17153515Y-12994460D01*
X17153515Y-12994460D02*
X17143992Y-12975412D01*
X17143992Y-12975412D02*
X17143992Y-12803984D01*
X17324944Y-12994460D02*
X17305896Y-13003984D01*
X17305896Y-13003984D02*
X17267801Y-13003984D01*
X17267801Y-13003984D02*
X17248753Y-12994460D01*
X17248753Y-12994460D02*
X17239230Y-12975412D01*
X17239230Y-12975412D02*
X17239230Y-12899222D01*
X17239230Y-12899222D02*
X17248753Y-12880174D01*
X17248753Y-12880174D02*
X17267801Y-12870650D01*
X17267801Y-12870650D02*
X17305896Y-12870650D01*
X17305896Y-12870650D02*
X17324944Y-12880174D01*
X17324944Y-12880174D02*
X17334468Y-12899222D01*
X17334468Y-12899222D02*
X17334468Y-12918269D01*
X17334468Y-12918269D02*
X17239230Y-12937317D01*
X17410658Y-12994460D02*
X17429706Y-13003984D01*
X17429706Y-13003984D02*
X17467801Y-13003984D01*
X17467801Y-13003984D02*
X17486849Y-12994460D01*
X17486849Y-12994460D02*
X17496373Y-12975412D01*
X17496373Y-12975412D02*
X17496373Y-12965888D01*
X17496373Y-12965888D02*
X17486849Y-12946841D01*
X17486849Y-12946841D02*
X17467801Y-12937317D01*
X17467801Y-12937317D02*
X17439230Y-12937317D01*
X17439230Y-12937317D02*
X17420182Y-12927793D01*
X17420182Y-12927793D02*
X17410658Y-12908746D01*
X17410658Y-12908746D02*
X17410658Y-12899222D01*
X17410658Y-12899222D02*
X17420182Y-12880174D01*
X17420182Y-12880174D02*
X17439230Y-12870650D01*
X17439230Y-12870650D02*
X17467801Y-12870650D01*
X17467801Y-12870650D02*
X17486849Y-12880174D01*
X17563039Y-13080174D02*
X17572563Y-13070650D01*
X17572563Y-13070650D02*
X17591611Y-13042079D01*
X17591611Y-13042079D02*
X17601134Y-13023031D01*
X17601134Y-13023031D02*
X17610658Y-12994460D01*
X17610658Y-12994460D02*
X17620182Y-12946841D01*
X17620182Y-12946841D02*
X17620182Y-12908746D01*
X17620182Y-12908746D02*
X17610658Y-12861127D01*
X17610658Y-12861127D02*
X17601134Y-12832555D01*
X17601134Y-12832555D02*
X17591611Y-12813508D01*
X17591611Y-12813508D02*
X17572563Y-12784936D01*
X17572563Y-12784936D02*
X17563039Y-12775412D01*
D14*
X12457500Y-13106500D02*
X12597500Y-13246500D01*
X12597500Y-13106500D02*
X12457500Y-13246500D01*
X12527500Y-13106500D02*
X12527500Y-13246500D01*
X12457500Y-13176500D02*
X12597500Y-13176500D01*
D11*
X12963039Y-13267984D02*
X12848753Y-13267984D01*
X12905896Y-13267984D02*
X12905896Y-13067984D01*
X12905896Y-13067984D02*
X12886848Y-13096555D01*
X12886848Y-13096555D02*
X12867801Y-13115603D01*
X12867801Y-13115603D02*
X12848753Y-13125127D01*
X13048753Y-13248936D02*
X13058277Y-13258460D01*
X13058277Y-13258460D02*
X13048753Y-13267984D01*
X13048753Y-13267984D02*
X13039229Y-13258460D01*
X13039229Y-13258460D02*
X13048753Y-13248936D01*
X13048753Y-13248936D02*
X13048753Y-13267984D01*
X13229705Y-13134650D02*
X13229705Y-13267984D01*
X13182086Y-13058460D02*
X13134467Y-13201317D01*
X13134467Y-13201317D02*
X13258277Y-13201317D01*
X13372562Y-13067984D02*
X13391610Y-13067984D01*
X13391610Y-13067984D02*
X13410658Y-13077508D01*
X13410658Y-13077508D02*
X13420182Y-13087031D01*
X13420182Y-13087031D02*
X13429705Y-13106079D01*
X13429705Y-13106079D02*
X13439229Y-13144174D01*
X13439229Y-13144174D02*
X13439229Y-13191793D01*
X13439229Y-13191793D02*
X13429705Y-13229888D01*
X13429705Y-13229888D02*
X13420182Y-13248936D01*
X13420182Y-13248936D02*
X13410658Y-13258460D01*
X13410658Y-13258460D02*
X13391610Y-13267984D01*
X13391610Y-13267984D02*
X13372562Y-13267984D01*
X13372562Y-13267984D02*
X13353515Y-13258460D01*
X13353515Y-13258460D02*
X13343991Y-13248936D01*
X13343991Y-13248936D02*
X13334467Y-13229888D01*
X13334467Y-13229888D02*
X13324943Y-13191793D01*
X13324943Y-13191793D02*
X13324943Y-13144174D01*
X13324943Y-13144174D02*
X13334467Y-13106079D01*
X13334467Y-13106079D02*
X13343991Y-13087031D01*
X13343991Y-13087031D02*
X13353515Y-13077508D01*
X13353515Y-13077508D02*
X13372562Y-13067984D01*
X13563039Y-13067984D02*
X13582086Y-13067984D01*
X13582086Y-13067984D02*
X13601134Y-13077508D01*
X13601134Y-13077508D02*
X13610658Y-13087031D01*
X13610658Y-13087031D02*
X13620182Y-13106079D01*
X13620182Y-13106079D02*
X13629705Y-13144174D01*
X13629705Y-13144174D02*
X13629705Y-13191793D01*
X13629705Y-13191793D02*
X13620182Y-13229888D01*
X13620182Y-13229888D02*
X13610658Y-13248936D01*
X13610658Y-13248936D02*
X13601134Y-13258460D01*
X13601134Y-13258460D02*
X13582086Y-13267984D01*
X13582086Y-13267984D02*
X13563039Y-13267984D01*
X13563039Y-13267984D02*
X13543991Y-13258460D01*
X13543991Y-13258460D02*
X13534467Y-13248936D01*
X13534467Y-13248936D02*
X13524943Y-13229888D01*
X13524943Y-13229888D02*
X13515420Y-13191793D01*
X13515420Y-13191793D02*
X13515420Y-13144174D01*
X13515420Y-13144174D02*
X13524943Y-13106079D01*
X13524943Y-13106079D02*
X13534467Y-13087031D01*
X13534467Y-13087031D02*
X13543991Y-13077508D01*
X13543991Y-13077508D02*
X13563039Y-13067984D01*
X13715420Y-13267984D02*
X13715420Y-13134650D01*
X13715420Y-13153698D02*
X13724943Y-13144174D01*
X13724943Y-13144174D02*
X13743991Y-13134650D01*
X13743991Y-13134650D02*
X13772563Y-13134650D01*
X13772563Y-13134650D02*
X13791610Y-13144174D01*
X13791610Y-13144174D02*
X13801134Y-13163222D01*
X13801134Y-13163222D02*
X13801134Y-13267984D01*
X13801134Y-13163222D02*
X13810658Y-13144174D01*
X13810658Y-13144174D02*
X13829705Y-13134650D01*
X13829705Y-13134650D02*
X13858277Y-13134650D01*
X13858277Y-13134650D02*
X13877324Y-13144174D01*
X13877324Y-13144174D02*
X13886848Y-13163222D01*
X13886848Y-13163222D02*
X13886848Y-13267984D01*
X13982086Y-13267984D02*
X13982086Y-13134650D01*
X13982086Y-13153698D02*
X13991610Y-13144174D01*
X13991610Y-13144174D02*
X14010658Y-13134650D01*
X14010658Y-13134650D02*
X14039229Y-13134650D01*
X14039229Y-13134650D02*
X14058277Y-13144174D01*
X14058277Y-13144174D02*
X14067801Y-13163222D01*
X14067801Y-13163222D02*
X14067801Y-13267984D01*
X14067801Y-13163222D02*
X14077324Y-13144174D01*
X14077324Y-13144174D02*
X14096372Y-13134650D01*
X14096372Y-13134650D02*
X14124943Y-13134650D01*
X14124943Y-13134650D02*
X14143991Y-13144174D01*
X14143991Y-13144174D02*
X14153515Y-13163222D01*
X14153515Y-13163222D02*
X14153515Y-13267984D01*
X14543991Y-13058460D02*
X14372563Y-13315603D01*
X14801134Y-13067984D02*
X14820182Y-13067984D01*
X14820182Y-13067984D02*
X14839229Y-13077508D01*
X14839229Y-13077508D02*
X14848753Y-13087031D01*
X14848753Y-13087031D02*
X14858277Y-13106079D01*
X14858277Y-13106079D02*
X14867801Y-13144174D01*
X14867801Y-13144174D02*
X14867801Y-13191793D01*
X14867801Y-13191793D02*
X14858277Y-13229888D01*
X14858277Y-13229888D02*
X14848753Y-13248936D01*
X14848753Y-13248936D02*
X14839229Y-13258460D01*
X14839229Y-13258460D02*
X14820182Y-13267984D01*
X14820182Y-13267984D02*
X14801134Y-13267984D01*
X14801134Y-13267984D02*
X14782086Y-13258460D01*
X14782086Y-13258460D02*
X14772563Y-13248936D01*
X14772563Y-13248936D02*
X14763039Y-13229888D01*
X14763039Y-13229888D02*
X14753515Y-13191793D01*
X14753515Y-13191793D02*
X14753515Y-13144174D01*
X14753515Y-13144174D02*
X14763039Y-13106079D01*
X14763039Y-13106079D02*
X14772563Y-13087031D01*
X14772563Y-13087031D02*
X14782086Y-13077508D01*
X14782086Y-13077508D02*
X14801134Y-13067984D01*
X14953515Y-13248936D02*
X14963039Y-13258460D01*
X14963039Y-13258460D02*
X14953515Y-13267984D01*
X14953515Y-13267984D02*
X14943991Y-13258460D01*
X14943991Y-13258460D02*
X14953515Y-13248936D01*
X14953515Y-13248936D02*
X14953515Y-13267984D01*
X15086848Y-13067984D02*
X15105896Y-13067984D01*
X15105896Y-13067984D02*
X15124944Y-13077508D01*
X15124944Y-13077508D02*
X15134467Y-13087031D01*
X15134467Y-13087031D02*
X15143991Y-13106079D01*
X15143991Y-13106079D02*
X15153515Y-13144174D01*
X15153515Y-13144174D02*
X15153515Y-13191793D01*
X15153515Y-13191793D02*
X15143991Y-13229888D01*
X15143991Y-13229888D02*
X15134467Y-13248936D01*
X15134467Y-13248936D02*
X15124944Y-13258460D01*
X15124944Y-13258460D02*
X15105896Y-13267984D01*
X15105896Y-13267984D02*
X15086848Y-13267984D01*
X15086848Y-13267984D02*
X15067801Y-13258460D01*
X15067801Y-13258460D02*
X15058277Y-13248936D01*
X15058277Y-13248936D02*
X15048753Y-13229888D01*
X15048753Y-13229888D02*
X15039229Y-13191793D01*
X15039229Y-13191793D02*
X15039229Y-13144174D01*
X15039229Y-13144174D02*
X15048753Y-13106079D01*
X15048753Y-13106079D02*
X15058277Y-13087031D01*
X15058277Y-13087031D02*
X15067801Y-13077508D01*
X15067801Y-13077508D02*
X15086848Y-13067984D01*
X15334467Y-13067984D02*
X15239229Y-13067984D01*
X15239229Y-13067984D02*
X15229706Y-13163222D01*
X15229706Y-13163222D02*
X15239229Y-13153698D01*
X15239229Y-13153698D02*
X15258277Y-13144174D01*
X15258277Y-13144174D02*
X15305896Y-13144174D01*
X15305896Y-13144174D02*
X15324944Y-13153698D01*
X15324944Y-13153698D02*
X15334467Y-13163222D01*
X15334467Y-13163222D02*
X15343991Y-13182269D01*
X15343991Y-13182269D02*
X15343991Y-13229888D01*
X15343991Y-13229888D02*
X15334467Y-13248936D01*
X15334467Y-13248936D02*
X15324944Y-13258460D01*
X15324944Y-13258460D02*
X15305896Y-13267984D01*
X15305896Y-13267984D02*
X15258277Y-13267984D01*
X15258277Y-13267984D02*
X15239229Y-13258460D01*
X15239229Y-13258460D02*
X15229706Y-13248936D01*
X15524944Y-13067984D02*
X15429706Y-13067984D01*
X15429706Y-13067984D02*
X15420182Y-13163222D01*
X15420182Y-13163222D02*
X15429706Y-13153698D01*
X15429706Y-13153698D02*
X15448753Y-13144174D01*
X15448753Y-13144174D02*
X15496372Y-13144174D01*
X15496372Y-13144174D02*
X15515420Y-13153698D01*
X15515420Y-13153698D02*
X15524944Y-13163222D01*
X15524944Y-13163222D02*
X15534467Y-13182269D01*
X15534467Y-13182269D02*
X15534467Y-13229888D01*
X15534467Y-13229888D02*
X15524944Y-13248936D01*
X15524944Y-13248936D02*
X15515420Y-13258460D01*
X15515420Y-13258460D02*
X15496372Y-13267984D01*
X15496372Y-13267984D02*
X15448753Y-13267984D01*
X15448753Y-13267984D02*
X15429706Y-13258460D01*
X15429706Y-13258460D02*
X15420182Y-13248936D01*
X15724944Y-13267984D02*
X15610658Y-13267984D01*
X15667801Y-13267984D02*
X15667801Y-13067984D01*
X15667801Y-13067984D02*
X15648753Y-13096555D01*
X15648753Y-13096555D02*
X15629706Y-13115603D01*
X15629706Y-13115603D02*
X15610658Y-13125127D01*
X15801134Y-13067984D02*
X15801134Y-13106079D01*
X15877325Y-13067984D02*
X15877325Y-13106079D01*
X16172563Y-13344174D02*
X16163039Y-13334650D01*
X16163039Y-13334650D02*
X16143991Y-13306079D01*
X16143991Y-13306079D02*
X16134468Y-13287031D01*
X16134468Y-13287031D02*
X16124944Y-13258460D01*
X16124944Y-13258460D02*
X16115420Y-13210841D01*
X16115420Y-13210841D02*
X16115420Y-13172746D01*
X16115420Y-13172746D02*
X16124944Y-13125127D01*
X16124944Y-13125127D02*
X16134468Y-13096555D01*
X16134468Y-13096555D02*
X16143991Y-13077508D01*
X16143991Y-13077508D02*
X16163039Y-13048936D01*
X16163039Y-13048936D02*
X16172563Y-13039412D01*
X16229706Y-13067984D02*
X16353515Y-13067984D01*
X16353515Y-13067984D02*
X16286848Y-13144174D01*
X16286848Y-13144174D02*
X16315420Y-13144174D01*
X16315420Y-13144174D02*
X16334468Y-13153698D01*
X16334468Y-13153698D02*
X16343991Y-13163222D01*
X16343991Y-13163222D02*
X16353515Y-13182269D01*
X16353515Y-13182269D02*
X16353515Y-13229888D01*
X16353515Y-13229888D02*
X16343991Y-13248936D01*
X16343991Y-13248936D02*
X16334468Y-13258460D01*
X16334468Y-13258460D02*
X16315420Y-13267984D01*
X16315420Y-13267984D02*
X16258277Y-13267984D01*
X16258277Y-13267984D02*
X16239229Y-13258460D01*
X16239229Y-13258460D02*
X16229706Y-13248936D01*
X16591610Y-13267984D02*
X16591610Y-13067984D01*
X16677325Y-13267984D02*
X16677325Y-13163222D01*
X16677325Y-13163222D02*
X16667801Y-13144174D01*
X16667801Y-13144174D02*
X16648753Y-13134650D01*
X16648753Y-13134650D02*
X16620182Y-13134650D01*
X16620182Y-13134650D02*
X16601134Y-13144174D01*
X16601134Y-13144174D02*
X16591610Y-13153698D01*
X16801134Y-13267984D02*
X16782087Y-13258460D01*
X16782087Y-13258460D02*
X16772563Y-13248936D01*
X16772563Y-13248936D02*
X16763039Y-13229888D01*
X16763039Y-13229888D02*
X16763039Y-13172746D01*
X16763039Y-13172746D02*
X16772563Y-13153698D01*
X16772563Y-13153698D02*
X16782087Y-13144174D01*
X16782087Y-13144174D02*
X16801134Y-13134650D01*
X16801134Y-13134650D02*
X16829706Y-13134650D01*
X16829706Y-13134650D02*
X16848753Y-13144174D01*
X16848753Y-13144174D02*
X16858277Y-13153698D01*
X16858277Y-13153698D02*
X16867801Y-13172746D01*
X16867801Y-13172746D02*
X16867801Y-13229888D01*
X16867801Y-13229888D02*
X16858277Y-13248936D01*
X16858277Y-13248936D02*
X16848753Y-13258460D01*
X16848753Y-13258460D02*
X16829706Y-13267984D01*
X16829706Y-13267984D02*
X16801134Y-13267984D01*
X16982087Y-13267984D02*
X16963039Y-13258460D01*
X16963039Y-13258460D02*
X16953515Y-13239412D01*
X16953515Y-13239412D02*
X16953515Y-13067984D01*
X17134468Y-13258460D02*
X17115420Y-13267984D01*
X17115420Y-13267984D02*
X17077325Y-13267984D01*
X17077325Y-13267984D02*
X17058277Y-13258460D01*
X17058277Y-13258460D02*
X17048753Y-13239412D01*
X17048753Y-13239412D02*
X17048753Y-13163222D01*
X17048753Y-13163222D02*
X17058277Y-13144174D01*
X17058277Y-13144174D02*
X17077325Y-13134650D01*
X17077325Y-13134650D02*
X17115420Y-13134650D01*
X17115420Y-13134650D02*
X17134468Y-13144174D01*
X17134468Y-13144174D02*
X17143992Y-13163222D01*
X17143992Y-13163222D02*
X17143992Y-13182269D01*
X17143992Y-13182269D02*
X17048753Y-13201317D01*
X17220182Y-13258460D02*
X17239230Y-13267984D01*
X17239230Y-13267984D02*
X17277325Y-13267984D01*
X17277325Y-13267984D02*
X17296373Y-13258460D01*
X17296373Y-13258460D02*
X17305896Y-13239412D01*
X17305896Y-13239412D02*
X17305896Y-13229888D01*
X17305896Y-13229888D02*
X17296373Y-13210841D01*
X17296373Y-13210841D02*
X17277325Y-13201317D01*
X17277325Y-13201317D02*
X17248753Y-13201317D01*
X17248753Y-13201317D02*
X17229706Y-13191793D01*
X17229706Y-13191793D02*
X17220182Y-13172746D01*
X17220182Y-13172746D02*
X17220182Y-13163222D01*
X17220182Y-13163222D02*
X17229706Y-13144174D01*
X17229706Y-13144174D02*
X17248753Y-13134650D01*
X17248753Y-13134650D02*
X17277325Y-13134650D01*
X17277325Y-13134650D02*
X17296373Y-13144174D01*
X17372563Y-13344174D02*
X17382087Y-13334650D01*
X17382087Y-13334650D02*
X17401134Y-13306079D01*
X17401134Y-13306079D02*
X17410658Y-13287031D01*
X17410658Y-13287031D02*
X17420182Y-13258460D01*
X17420182Y-13258460D02*
X17429706Y-13210841D01*
X17429706Y-13210841D02*
X17429706Y-13172746D01*
X17429706Y-13172746D02*
X17420182Y-13125127D01*
X17420182Y-13125127D02*
X17410658Y-13096555D01*
X17410658Y-13096555D02*
X17401134Y-13077508D01*
X17401134Y-13077508D02*
X17382087Y-13048936D01*
X17382087Y-13048936D02*
X17372563Y-13039412D01*
X12397500Y-13340500D02*
X12597500Y-13540500D01*
X12597500Y-13340500D02*
X12397500Y-13540500D01*
X12568211Y-13511211D02*
X12568211Y-13369789D01*
X12426789Y-13369789D01*
X12426789Y-13511211D01*
X12568211Y-13511211D01*
X12839229Y-13331984D02*
X12963039Y-13331984D01*
X12963039Y-13331984D02*
X12896372Y-13408174D01*
X12896372Y-13408174D02*
X12924943Y-13408174D01*
X12924943Y-13408174D02*
X12943991Y-13417698D01*
X12943991Y-13417698D02*
X12953515Y-13427222D01*
X12953515Y-13427222D02*
X12963039Y-13446269D01*
X12963039Y-13446269D02*
X12963039Y-13493888D01*
X12963039Y-13493888D02*
X12953515Y-13512936D01*
X12953515Y-13512936D02*
X12943991Y-13522460D01*
X12943991Y-13522460D02*
X12924943Y-13531984D01*
X12924943Y-13531984D02*
X12867801Y-13531984D01*
X12867801Y-13531984D02*
X12848753Y-13522460D01*
X12848753Y-13522460D02*
X12839229Y-13512936D01*
X13048753Y-13512936D02*
X13058277Y-13522460D01*
X13058277Y-13522460D02*
X13048753Y-13531984D01*
X13048753Y-13531984D02*
X13039229Y-13522460D01*
X13039229Y-13522460D02*
X13048753Y-13512936D01*
X13048753Y-13512936D02*
X13048753Y-13531984D01*
X13134467Y-13351031D02*
X13143991Y-13341508D01*
X13143991Y-13341508D02*
X13163039Y-13331984D01*
X13163039Y-13331984D02*
X13210658Y-13331984D01*
X13210658Y-13331984D02*
X13229705Y-13341508D01*
X13229705Y-13341508D02*
X13239229Y-13351031D01*
X13239229Y-13351031D02*
X13248753Y-13370079D01*
X13248753Y-13370079D02*
X13248753Y-13389127D01*
X13248753Y-13389127D02*
X13239229Y-13417698D01*
X13239229Y-13417698D02*
X13124943Y-13531984D01*
X13124943Y-13531984D02*
X13248753Y-13531984D01*
X13372562Y-13331984D02*
X13391610Y-13331984D01*
X13391610Y-13331984D02*
X13410658Y-13341508D01*
X13410658Y-13341508D02*
X13420182Y-13351031D01*
X13420182Y-13351031D02*
X13429705Y-13370079D01*
X13429705Y-13370079D02*
X13439229Y-13408174D01*
X13439229Y-13408174D02*
X13439229Y-13455793D01*
X13439229Y-13455793D02*
X13429705Y-13493888D01*
X13429705Y-13493888D02*
X13420182Y-13512936D01*
X13420182Y-13512936D02*
X13410658Y-13522460D01*
X13410658Y-13522460D02*
X13391610Y-13531984D01*
X13391610Y-13531984D02*
X13372562Y-13531984D01*
X13372562Y-13531984D02*
X13353515Y-13522460D01*
X13353515Y-13522460D02*
X13343991Y-13512936D01*
X13343991Y-13512936D02*
X13334467Y-13493888D01*
X13334467Y-13493888D02*
X13324943Y-13455793D01*
X13324943Y-13455793D02*
X13324943Y-13408174D01*
X13324943Y-13408174D02*
X13334467Y-13370079D01*
X13334467Y-13370079D02*
X13343991Y-13351031D01*
X13343991Y-13351031D02*
X13353515Y-13341508D01*
X13353515Y-13341508D02*
X13372562Y-13331984D01*
X13563039Y-13331984D02*
X13582086Y-13331984D01*
X13582086Y-13331984D02*
X13601134Y-13341508D01*
X13601134Y-13341508D02*
X13610658Y-13351031D01*
X13610658Y-13351031D02*
X13620182Y-13370079D01*
X13620182Y-13370079D02*
X13629705Y-13408174D01*
X13629705Y-13408174D02*
X13629705Y-13455793D01*
X13629705Y-13455793D02*
X13620182Y-13493888D01*
X13620182Y-13493888D02*
X13610658Y-13512936D01*
X13610658Y-13512936D02*
X13601134Y-13522460D01*
X13601134Y-13522460D02*
X13582086Y-13531984D01*
X13582086Y-13531984D02*
X13563039Y-13531984D01*
X13563039Y-13531984D02*
X13543991Y-13522460D01*
X13543991Y-13522460D02*
X13534467Y-13512936D01*
X13534467Y-13512936D02*
X13524943Y-13493888D01*
X13524943Y-13493888D02*
X13515420Y-13455793D01*
X13515420Y-13455793D02*
X13515420Y-13408174D01*
X13515420Y-13408174D02*
X13524943Y-13370079D01*
X13524943Y-13370079D02*
X13534467Y-13351031D01*
X13534467Y-13351031D02*
X13543991Y-13341508D01*
X13543991Y-13341508D02*
X13563039Y-13331984D01*
X13715420Y-13531984D02*
X13715420Y-13398650D01*
X13715420Y-13417698D02*
X13724943Y-13408174D01*
X13724943Y-13408174D02*
X13743991Y-13398650D01*
X13743991Y-13398650D02*
X13772563Y-13398650D01*
X13772563Y-13398650D02*
X13791610Y-13408174D01*
X13791610Y-13408174D02*
X13801134Y-13427222D01*
X13801134Y-13427222D02*
X13801134Y-13531984D01*
X13801134Y-13427222D02*
X13810658Y-13408174D01*
X13810658Y-13408174D02*
X13829705Y-13398650D01*
X13829705Y-13398650D02*
X13858277Y-13398650D01*
X13858277Y-13398650D02*
X13877324Y-13408174D01*
X13877324Y-13408174D02*
X13886848Y-13427222D01*
X13886848Y-13427222D02*
X13886848Y-13531984D01*
X13982086Y-13531984D02*
X13982086Y-13398650D01*
X13982086Y-13417698D02*
X13991610Y-13408174D01*
X13991610Y-13408174D02*
X14010658Y-13398650D01*
X14010658Y-13398650D02*
X14039229Y-13398650D01*
X14039229Y-13398650D02*
X14058277Y-13408174D01*
X14058277Y-13408174D02*
X14067801Y-13427222D01*
X14067801Y-13427222D02*
X14067801Y-13531984D01*
X14067801Y-13427222D02*
X14077324Y-13408174D01*
X14077324Y-13408174D02*
X14096372Y-13398650D01*
X14096372Y-13398650D02*
X14124943Y-13398650D01*
X14124943Y-13398650D02*
X14143991Y-13408174D01*
X14143991Y-13408174D02*
X14153515Y-13427222D01*
X14153515Y-13427222D02*
X14153515Y-13531984D01*
X14543991Y-13322460D02*
X14372563Y-13579603D01*
X14801134Y-13331984D02*
X14820182Y-13331984D01*
X14820182Y-13331984D02*
X14839229Y-13341508D01*
X14839229Y-13341508D02*
X14848753Y-13351031D01*
X14848753Y-13351031D02*
X14858277Y-13370079D01*
X14858277Y-13370079D02*
X14867801Y-13408174D01*
X14867801Y-13408174D02*
X14867801Y-13455793D01*
X14867801Y-13455793D02*
X14858277Y-13493888D01*
X14858277Y-13493888D02*
X14848753Y-13512936D01*
X14848753Y-13512936D02*
X14839229Y-13522460D01*
X14839229Y-13522460D02*
X14820182Y-13531984D01*
X14820182Y-13531984D02*
X14801134Y-13531984D01*
X14801134Y-13531984D02*
X14782086Y-13522460D01*
X14782086Y-13522460D02*
X14772563Y-13512936D01*
X14772563Y-13512936D02*
X14763039Y-13493888D01*
X14763039Y-13493888D02*
X14753515Y-13455793D01*
X14753515Y-13455793D02*
X14753515Y-13408174D01*
X14753515Y-13408174D02*
X14763039Y-13370079D01*
X14763039Y-13370079D02*
X14772563Y-13351031D01*
X14772563Y-13351031D02*
X14782086Y-13341508D01*
X14782086Y-13341508D02*
X14801134Y-13331984D01*
X14953515Y-13512936D02*
X14963039Y-13522460D01*
X14963039Y-13522460D02*
X14953515Y-13531984D01*
X14953515Y-13531984D02*
X14943991Y-13522460D01*
X14943991Y-13522460D02*
X14953515Y-13512936D01*
X14953515Y-13512936D02*
X14953515Y-13531984D01*
X15153515Y-13531984D02*
X15039229Y-13531984D01*
X15096372Y-13531984D02*
X15096372Y-13331984D01*
X15096372Y-13331984D02*
X15077325Y-13360555D01*
X15077325Y-13360555D02*
X15058277Y-13379603D01*
X15058277Y-13379603D02*
X15039229Y-13389127D01*
X15229706Y-13351031D02*
X15239229Y-13341508D01*
X15239229Y-13341508D02*
X15258277Y-13331984D01*
X15258277Y-13331984D02*
X15305896Y-13331984D01*
X15305896Y-13331984D02*
X15324944Y-13341508D01*
X15324944Y-13341508D02*
X15334467Y-13351031D01*
X15334467Y-13351031D02*
X15343991Y-13370079D01*
X15343991Y-13370079D02*
X15343991Y-13389127D01*
X15343991Y-13389127D02*
X15334467Y-13417698D01*
X15334467Y-13417698D02*
X15220182Y-13531984D01*
X15220182Y-13531984D02*
X15343991Y-13531984D01*
X15515420Y-13331984D02*
X15477325Y-13331984D01*
X15477325Y-13331984D02*
X15458277Y-13341508D01*
X15458277Y-13341508D02*
X15448753Y-13351031D01*
X15448753Y-13351031D02*
X15429706Y-13379603D01*
X15429706Y-13379603D02*
X15420182Y-13417698D01*
X15420182Y-13417698D02*
X15420182Y-13493888D01*
X15420182Y-13493888D02*
X15429706Y-13512936D01*
X15429706Y-13512936D02*
X15439229Y-13522460D01*
X15439229Y-13522460D02*
X15458277Y-13531984D01*
X15458277Y-13531984D02*
X15496372Y-13531984D01*
X15496372Y-13531984D02*
X15515420Y-13522460D01*
X15515420Y-13522460D02*
X15524944Y-13512936D01*
X15524944Y-13512936D02*
X15534467Y-13493888D01*
X15534467Y-13493888D02*
X15534467Y-13446269D01*
X15534467Y-13446269D02*
X15524944Y-13427222D01*
X15524944Y-13427222D02*
X15515420Y-13417698D01*
X15515420Y-13417698D02*
X15496372Y-13408174D01*
X15496372Y-13408174D02*
X15458277Y-13408174D01*
X15458277Y-13408174D02*
X15439229Y-13417698D01*
X15439229Y-13417698D02*
X15429706Y-13427222D01*
X15429706Y-13427222D02*
X15420182Y-13446269D01*
X15658277Y-13331984D02*
X15677325Y-13331984D01*
X15677325Y-13331984D02*
X15696372Y-13341508D01*
X15696372Y-13341508D02*
X15705896Y-13351031D01*
X15705896Y-13351031D02*
X15715420Y-13370079D01*
X15715420Y-13370079D02*
X15724944Y-13408174D01*
X15724944Y-13408174D02*
X15724944Y-13455793D01*
X15724944Y-13455793D02*
X15715420Y-13493888D01*
X15715420Y-13493888D02*
X15705896Y-13512936D01*
X15705896Y-13512936D02*
X15696372Y-13522460D01*
X15696372Y-13522460D02*
X15677325Y-13531984D01*
X15677325Y-13531984D02*
X15658277Y-13531984D01*
X15658277Y-13531984D02*
X15639229Y-13522460D01*
X15639229Y-13522460D02*
X15629706Y-13512936D01*
X15629706Y-13512936D02*
X15620182Y-13493888D01*
X15620182Y-13493888D02*
X15610658Y-13455793D01*
X15610658Y-13455793D02*
X15610658Y-13408174D01*
X15610658Y-13408174D02*
X15620182Y-13370079D01*
X15620182Y-13370079D02*
X15629706Y-13351031D01*
X15629706Y-13351031D02*
X15639229Y-13341508D01*
X15639229Y-13341508D02*
X15658277Y-13331984D01*
X15801134Y-13331984D02*
X15801134Y-13370079D01*
X15877325Y-13331984D02*
X15877325Y-13370079D01*
X16172563Y-13608174D02*
X16163039Y-13598650D01*
X16163039Y-13598650D02*
X16143991Y-13570079D01*
X16143991Y-13570079D02*
X16134468Y-13551031D01*
X16134468Y-13551031D02*
X16124944Y-13522460D01*
X16124944Y-13522460D02*
X16115420Y-13474841D01*
X16115420Y-13474841D02*
X16115420Y-13436746D01*
X16115420Y-13436746D02*
X16124944Y-13389127D01*
X16124944Y-13389127D02*
X16134468Y-13360555D01*
X16134468Y-13360555D02*
X16143991Y-13341508D01*
X16143991Y-13341508D02*
X16163039Y-13312936D01*
X16163039Y-13312936D02*
X16172563Y-13303412D01*
X16334468Y-13398650D02*
X16334468Y-13531984D01*
X16286848Y-13322460D02*
X16239229Y-13465317D01*
X16239229Y-13465317D02*
X16363039Y-13465317D01*
X16591610Y-13531984D02*
X16591610Y-13331984D01*
X16677325Y-13531984D02*
X16677325Y-13427222D01*
X16677325Y-13427222D02*
X16667801Y-13408174D01*
X16667801Y-13408174D02*
X16648753Y-13398650D01*
X16648753Y-13398650D02*
X16620182Y-13398650D01*
X16620182Y-13398650D02*
X16601134Y-13408174D01*
X16601134Y-13408174D02*
X16591610Y-13417698D01*
X16801134Y-13531984D02*
X16782087Y-13522460D01*
X16782087Y-13522460D02*
X16772563Y-13512936D01*
X16772563Y-13512936D02*
X16763039Y-13493888D01*
X16763039Y-13493888D02*
X16763039Y-13436746D01*
X16763039Y-13436746D02*
X16772563Y-13417698D01*
X16772563Y-13417698D02*
X16782087Y-13408174D01*
X16782087Y-13408174D02*
X16801134Y-13398650D01*
X16801134Y-13398650D02*
X16829706Y-13398650D01*
X16829706Y-13398650D02*
X16848753Y-13408174D01*
X16848753Y-13408174D02*
X16858277Y-13417698D01*
X16858277Y-13417698D02*
X16867801Y-13436746D01*
X16867801Y-13436746D02*
X16867801Y-13493888D01*
X16867801Y-13493888D02*
X16858277Y-13512936D01*
X16858277Y-13512936D02*
X16848753Y-13522460D01*
X16848753Y-13522460D02*
X16829706Y-13531984D01*
X16829706Y-13531984D02*
X16801134Y-13531984D01*
X16982087Y-13531984D02*
X16963039Y-13522460D01*
X16963039Y-13522460D02*
X16953515Y-13503412D01*
X16953515Y-13503412D02*
X16953515Y-13331984D01*
X17134468Y-13522460D02*
X17115420Y-13531984D01*
X17115420Y-13531984D02*
X17077325Y-13531984D01*
X17077325Y-13531984D02*
X17058277Y-13522460D01*
X17058277Y-13522460D02*
X17048753Y-13503412D01*
X17048753Y-13503412D02*
X17048753Y-13427222D01*
X17048753Y-13427222D02*
X17058277Y-13408174D01*
X17058277Y-13408174D02*
X17077325Y-13398650D01*
X17077325Y-13398650D02*
X17115420Y-13398650D01*
X17115420Y-13398650D02*
X17134468Y-13408174D01*
X17134468Y-13408174D02*
X17143992Y-13427222D01*
X17143992Y-13427222D02*
X17143992Y-13446269D01*
X17143992Y-13446269D02*
X17048753Y-13465317D01*
X17220182Y-13522460D02*
X17239230Y-13531984D01*
X17239230Y-13531984D02*
X17277325Y-13531984D01*
X17277325Y-13531984D02*
X17296373Y-13522460D01*
X17296373Y-13522460D02*
X17305896Y-13503412D01*
X17305896Y-13503412D02*
X17305896Y-13493888D01*
X17305896Y-13493888D02*
X17296373Y-13474841D01*
X17296373Y-13474841D02*
X17277325Y-13465317D01*
X17277325Y-13465317D02*
X17248753Y-13465317D01*
X17248753Y-13465317D02*
X17229706Y-13455793D01*
X17229706Y-13455793D02*
X17220182Y-13436746D01*
X17220182Y-13436746D02*
X17220182Y-13427222D01*
X17220182Y-13427222D02*
X17229706Y-13408174D01*
X17229706Y-13408174D02*
X17248753Y-13398650D01*
X17248753Y-13398650D02*
X17277325Y-13398650D01*
X17277325Y-13398650D02*
X17296373Y-13408174D01*
X17372563Y-13608174D02*
X17382087Y-13598650D01*
X17382087Y-13598650D02*
X17401134Y-13570079D01*
X17401134Y-13570079D02*
X17410658Y-13551031D01*
X17410658Y-13551031D02*
X17420182Y-13522460D01*
X17420182Y-13522460D02*
X17429706Y-13474841D01*
X17429706Y-13474841D02*
X17429706Y-13436746D01*
X17429706Y-13436746D02*
X17420182Y-13389127D01*
X17420182Y-13389127D02*
X17410658Y-13360555D01*
X17410658Y-13360555D02*
X17401134Y-13341508D01*
X17401134Y-13341508D02*
X17382087Y-13312936D01*
X17382087Y-13312936D02*
X17372563Y-13303412D01*
M02*
