M48
; DRILL file {KiCad 9.0.6} date 2026-01-30T16:54:02+0100
; FORMAT={-:-/ absolute / metric / decimal}
; #@! TF.CreationDate,2026-01-30T16:54:02+01:00
; #@! TF.GenerationSoftware,Kicad,Pcbnew,9.0.6
; #@! TF.FileFunction,Plated,1,2,PTH
FMAT,2
METRIC
; #@! TA.AperFunction,Plated,PTH,ComponentDrill
T1C0.400
; #@! TA.AperFunction,Plated,PTH,ViaDrill
T2C0.600
; #@! TA.AperFunction,Plated,PTH,ComponentDrill
T3C0.800
; #@! TA.AperFunction,Plated,PTH,ComponentDrill
T4C0.900
; #@! TA.AperFunction,Plated,PTH,ComponentDrill
T5C1.000
; #@! TA.AperFunction,Plated,PTH,ComponentDrill
T6C1.100
; #@! TA.AperFunction,Plated,PTH,ComponentDrill
T7C1.400
; #@! TA.AperFunction,Plated,PTH,ComponentDrill
T8C3.200
%
G90
G05
T1
X181.805Y-62.457
X181.805Y-63.982
X182.567Y-61.695
X182.567Y-63.22
X182.567Y-64.745
X183.33Y-62.457
X183.33Y-63.982
X184.093Y-61.695
X184.093Y-63.22
X184.093Y-64.745
X184.855Y-62.457
X184.855Y-63.982
T2
X154.94Y-86.36
X181.0Y-76.5
X187.2Y-78.3
X188.5Y-75.4
X190.5Y-66.04
X190.5Y-68.0
X190.5Y-69.85
X192.3Y-80.4
T3
X134.34Y-58.4
X135.89Y-70.485
X142.24Y-93.57
X142.24Y-96.11
X143.39Y-70.485
X144.145Y-78.78
X144.145Y-83.78
X144.5Y-58.4
X145.415Y-93.57
X145.415Y-96.11
X147.5Y-59.1
X147.5Y-66.6
X148.59Y-70.485
X148.59Y-93.57
X148.59Y-96.11
X148.842Y-86.995
X149.86Y-78.78
X149.86Y-81.28
X150.44Y-58.5
X151.09Y-70.485
X151.765Y-93.57
X151.765Y-96.11
X152.342Y-86.995
X153.685Y-75.565
X156.21Y-71.0
X158.685Y-75.565
X158.75Y-71.0
X160.02Y-93.57
X160.02Y-96.11
X160.6Y-58.5
X163.195Y-59.055
X163.195Y-62.23
X163.195Y-65.405
X163.195Y-68.58
X163.195Y-93.57
X163.195Y-96.11
X165.735Y-59.055
X165.735Y-62.23
X165.735Y-65.405
X165.735Y-68.58
X166.38Y-93.57
X166.38Y-96.11
X169.545Y-93.57
X169.545Y-96.11
X174.625Y-79.375
X174.625Y-81.915
X174.625Y-84.455
X174.625Y-86.995
X174.625Y-89.535
X177.165Y-79.375
X177.165Y-81.915
X177.165Y-84.455
X177.165Y-86.995
X177.165Y-89.535
X177.8Y-93.57
X177.8Y-96.11
X180.975Y-93.57
X180.975Y-96.11
X184.15Y-93.57
X184.15Y-96.11
X185.2Y-81.7
X185.2Y-84.7
X185.2Y-87.7
X187.325Y-93.57
X187.325Y-96.11
X187.74Y-81.7
X187.74Y-84.7
X187.74Y-87.7
X194.31Y-93.57
X194.31Y-96.11
X197.485Y-93.57
X197.485Y-96.11
X200.025Y-80.645
X200.66Y-93.57
X200.66Y-96.11
X202.565Y-80.645
X203.86Y-93.57
X203.86Y-96.11
T4
X202.565Y-74.93
X202.565Y-77.47
T5
X142.875Y-101.6
X142.875Y-104.14
X142.875Y-106.68
X145.415Y-101.6
X145.415Y-104.14
X145.415Y-106.68
X147.955Y-101.6
X147.955Y-104.14
X147.955Y-106.68
X150.495Y-101.6
X150.495Y-104.14
X150.495Y-106.68
X160.655Y-101.6
X160.655Y-104.14
X160.655Y-106.68
X163.195Y-101.6
X163.195Y-104.14
X163.195Y-106.68
X163.322Y-71.882
X163.322Y-75.184
X165.735Y-101.6
X165.735Y-104.14
X165.735Y-106.68
X165.862Y-71.882
X165.862Y-75.184
X168.275Y-101.6
X168.275Y-104.14
X168.275Y-106.68
X178.435Y-101.6
X178.435Y-104.14
X178.435Y-106.68
X180.975Y-101.6
X180.975Y-104.14
X180.975Y-106.68
X183.515Y-101.6
X183.515Y-104.14
X183.515Y-106.68
X186.055Y-101.6
X186.055Y-104.14
X186.055Y-106.68
X196.215Y-101.6
X196.215Y-104.14
X196.215Y-106.68
X197.5Y-58.3
X198.755Y-101.6
X198.755Y-104.14
X198.755Y-106.68
X200.04Y-58.3
X201.295Y-101.6
X201.295Y-104.14
X201.295Y-106.68
X202.565Y-62.23
X202.565Y-64.77
X202.565Y-67.31
X203.835Y-101.6
X203.835Y-104.14
X203.835Y-106.68
T6
X135.8Y-61.5
X135.8Y-66.0
X142.24Y-75.565
X142.3Y-61.5
X142.3Y-66.0
X149.86Y-75.565
X152.885Y-61.5
X152.885Y-66.0
X159.385Y-61.5
X159.385Y-66.0
T7
X138.312Y-79.86
X138.312Y-83.82
X138.312Y-87.78
T8
X130.0Y-58.5
X130.0Y-105.5
X211.5Y-58.5
X211.5Y-105.5
M30
